M48
; DRILL file {KiCad 8.0.2} date 2025-06-17T08:58:24+0530
; FORMAT={-:-/ absolute / inch / decimal}
; #@! TF.CreationDate,2025-06-17T08:58:24+05:30
; #@! TF.GenerationSoftware,Kicad,Pcbnew,8.0.2
; #@! TF.FileFunction,MixedPlating,1,2
FMAT,2
INCH
; #@! TA.AperFunction,Plated,PTH,ViaDrill
T1C0.0118
; #@! TA.AperFunction,Plated,PTH,ComponentDrill
T2C0.0315
; #@! TA.AperFunction,Plated,PTH,ComponentDrill
T3C0.0354
; #@! TA.AperFunction,Plated,PTH,ComponentDrill
T4C0.0394
; #@! TA.AperFunction,Plated,PTH,ComponentDrill
T5C0.0512
; #@! TA.AperFunction,Plated,PTH,ComponentDrill
T6C0.0591
; #@! TA.AperFunction,NonPlated,NPTH,ComponentDrill
T7C0.0827
%
G90
G05
T1
X4.3898Y-3.7205
X4.3898Y-3.9567
X6.3583Y-4.1535
X6.4764Y-4.1535
X6.5551Y-4.0354
X6.6732Y-4.0354
X7.0276Y-3.7992
X7.0669Y-4.3504
T2
X3.878Y-3.1299
X3.8854Y-3.563
X3.8854Y-3.7205
X3.9173Y-4.5374
X3.9173Y-4.6358
X4.178Y-3.1299
X4.1854Y-3.563
X4.1854Y-3.7205
X4.2047Y-4.5356
X4.2047Y-4.6341
X4.311Y-3.1299
X4.311Y-3.2874
X4.4047Y-4.9016
X4.4047Y-5.0591
X4.5209Y-3.4524
X4.5209Y-3.7524
X4.5209Y-4.4366
X4.5209Y-4.7366
X4.5228Y-3.9441
X4.5228Y-4.2441
X4.611Y-3.1299
X4.611Y-3.2874
X4.6228Y-3.9441
X4.6228Y-4.2441
X4.6423Y-3.4602
X4.6423Y-3.7445
X4.6423Y-4.4445
X4.6423Y-4.7287
X4.7047Y-4.9016
X4.7047Y-5.0591
X4.7228Y-3.9441
X4.7228Y-4.2441
X4.7407Y-3.4602
X4.7407Y-3.7445
X4.7407Y-4.4445
X4.7407Y-4.7287
X4.8031Y-4.9016
X4.8031Y-5.0591
X4.8228Y-3.9441
X4.8228Y-4.2441
X4.8622Y-3.4524
X4.8622Y-3.7524
X4.8622Y-4.4366
X4.8622Y-4.7366
X4.9016Y-4.9016
X4.9016Y-5.0591
X5.0197Y-3.4524
X5.0197Y-3.7524
X5.0197Y-4.4366
X5.0197Y-4.7366
X5.0201Y-3.9441
X5.0201Y-4.2441
X5.1201Y-3.9441
X5.1201Y-4.2441
X5.1378Y-4.4445
X5.1378Y-4.7287
X5.1411Y-3.4602
X5.1411Y-3.7445
X5.2201Y-3.9441
X5.2201Y-4.2441
X5.2362Y-4.4445
X5.2362Y-4.7287
X5.2396Y-3.4602
X5.2396Y-3.7445
X5.3201Y-3.9441
X5.3201Y-4.2441
X5.361Y-3.4524
X5.361Y-3.7524
X5.361Y-4.4366
X5.361Y-4.7366
X5.5051Y-3.4524
X5.5051Y-3.7524
X5.5051Y-4.4366
X5.5051Y-4.7366
X5.5173Y-3.9441
X5.5173Y-4.2441
X5.6173Y-3.9441
X5.6173Y-4.2441
X5.6266Y-3.4602
X5.6266Y-3.7445
X5.6266Y-4.4445
X5.6266Y-4.7287
X5.7173Y-3.9441
X5.7173Y-4.2441
X5.725Y-3.4602
X5.725Y-3.7445
X5.725Y-4.4445
X5.725Y-4.7287
X5.8173Y-3.9441
X5.8173Y-4.2441
X5.8465Y-3.4524
X5.8465Y-3.7524
X5.8465Y-4.4366
X5.8465Y-4.7366
X5.9173Y-3.9441
X5.9173Y-4.2441
X6.0173Y-3.9441
X6.0173Y-4.2441
X6.1173Y-3.9441
X6.1173Y-4.2441
X6.2953Y-3.6417
X6.2953Y-3.7992
X6.2953Y-4.3898
X6.2953Y-4.5472
X6.3157Y-3.9441
X6.3157Y-4.2441
X6.4157Y-3.9441
X6.4157Y-4.2441
X6.5157Y-3.9441
X6.5157Y-4.2441
X6.5953Y-3.6417
X6.5953Y-3.7992
X6.5953Y-4.3898
X6.5953Y-4.5472
X6.6157Y-3.9441
X6.6157Y-4.2441
X6.7913Y-3.9445
X6.7913Y-4.2445
X6.9059Y-4.4826
X6.9094Y-3.7064
X7.0043Y-4.4826
X7.0079Y-3.7064
T3
X3.9252Y-3.2485
X3.9252Y-3.3485
X6.9882Y-4.0157
X6.9882Y-4.0945
X6.9882Y-4.1732
T4
X3.9055Y-4.9213
X3.9055Y-5.0197
X4.1929Y-4.9213
X4.1929Y-5.0197
X6.122Y-4.526
X6.122Y-4.626
X6.122Y-4.726
T5
X3.878Y-4.0968
X4.0315Y-4.2779
X4.1457Y-3.9983
X4.1929Y-3.892
X4.3189Y-4.2582
X6.5787Y-3.126
X6.5787Y-4.7323
X6.7047Y-3.4921
X6.7047Y-5.0984
X6.752Y-3.3858
X6.752Y-4.9921
X6.8661Y-3.1063
X6.8661Y-4.7126
X7.0197Y-3.2874
X7.0197Y-4.8937
T6
X6.9882Y-3.9331
X6.9882Y-4.2559
T7
X4.8622Y-3.189
X5.2953Y-5.0
X6.1614Y-3.189
X6.1614Y-5.0
M30
