  0
SECTION
  2
HEADER
  9
$ANGBASE
  50
0.0
  9
$ANGDIR
  70
1
  9
$MEASUREMENT
  70
0
  0
ENDSEC
  0
SECTION
  2
TABLES
  0
TABLE
  2
LTYPE
  70
4
  0
LTYPE
  5
40F
  2
CONTINUOUS
  70
0
  3
Solid line
  72
65
  73
0
  40
0.0
  0
LTYPE
  5
410
  2
DASHDOT
 70
0
  3
Dash Dot ____ _ ____ _
 72
65
 73
4
 40
2.0
 49
1.25
 49
-0.25
 49
0.25
 49
-0.25
  0
LTYPE
  5
411
  2
DASHED
 70
0
  3
Dashed __ __ __ __ __
 72
65
 73
2
 40
0.75
 49
0.5
 49
-0.25
  0
LTYPE
  5
43B
  2
DOTTED
 70
0
  3
Dotted .  .  .  .
 72
65
 73
2
 40
0.2
 49
0.0
 49
-0.2
  0
ENDTAB
  0
TABLE
  2
STYLE
  70
4
  0
STYLE
  2
KICAD
  70
0
  40
0
  41
1
  42
1
  50
0
  71
0
  3
isocp.shx
  0
STYLE
  2
KICADB
  70
0
  40
0
  41
1
  42
1
  50
0
  71
0
  3
isocp.shx
  0
STYLE
  2
KICADI
  70
0
  40
0
  41
1
  42
1
  50
15
  71
0
  3
isocp.shx
  0
STYLE
  2
KICADBI
  70
0
  40
0
  41
1
  42
1
  50
15
  71
0
  3
isocp.shx
  0
ENDTAB
  0
TABLE
  2
LAYER
  70
1
  0
LAYER
  2
BLACK
  70
0
  62
7
  6
CONTINUOUS
  0
ENDTAB
  0
ENDSEC
  0
SECTION
  2
ENTITIES
0
LINE
8
BLACK
6
CONTINUOUS
10
7.1267375590551181
20
-3.0099923622047244
11
7.1278029133858265
21
-3.0110577165354329
0
LINE
8
BLACK
6
CONTINUOUS
10
7.1278029133858265
20
-3.0110577165354329
11
7.127952755905512
21
-5.1771653543307083
0
LINE
8
BLACK
6
CONTINUOUS
10
7.127952755905512
20
-5.1771653543307083
11
7.1278029133858265
21
-5.1779186614173227
0
LINE
8
BLACK
6
CONTINUOUS
10
7.1278029133858265
20
-5.1779186614173227
11
7.1267375590551181
21
-5.1789840157480311
0
LINE
8
BLACK
6
CONTINUOUS
10
7.1267375590551181
20
-5.1789840157480311
11
6.122047244094488
21
-5.1791338582677167
0
LINE
8
BLACK
6
CONTINUOUS
10
6.122047244094488
20
-5.1791338582677167
11
6.1212939370078736
21
-5.1789840157480311
0
LINE
8
BLACK
6
CONTINUOUS
10
6.1212939370078736
20
-5.1789840157480311
11
6.0029730314960625
21
-5.0608742125984252
0
LINE
8
BLACK
6
CONTINUOUS
10
6.0029730314960625
20
-5.0608742125984252
11
5.4533616929133855
21
-5.0610234251968507
0
LINE
8
BLACK
6
CONTINUOUS
10
5.4533616929133855
20
-5.0610234251968507
11
5.3360375984251966
21
-5.178557283464567
0
LINE
8
BLACK
6
CONTINUOUS
10
5.3360375984251966
20
-5.178557283464567
11
5.3353989763779524
21
-5.1789840157480311
0
LINE
8
BLACK
6
CONTINUOUS
10
5.3353989763779524
20
-5.1789840157480311
11
3.7795275590551181
21
-5.1791338582677167
0
LINE
8
BLACK
6
CONTINUOUS
10
3.7795275590551181
20
-5.1791338582677167
11
3.7787742519685037
21
-5.1789840157480311
0
LINE
8
BLACK
6
CONTINUOUS
10
3.7787742519685037
20
-5.1789840157480311
11
3.7777088976377953
21
-5.1779186614173227
0
LINE
8
BLACK
6
CONTINUOUS
10
3.7777088976377953
20
-5.1779186614173227
11
3.7775590551181102
21
-3.0118110236220472
0
LINE
8
BLACK
6
CONTINUOUS
10
3.7775590551181102
20
-3.0118110236220472
11
3.7777088976377953
21
-3.0110577165354329
0
LINE
8
BLACK
6
CONTINUOUS
10
3.7777088976377953
20
-3.0110577165354329
11
3.7787742519685037
21
-3.0099923622047244
0
LINE
8
BLACK
6
CONTINUOUS
10
3.7787742519685037
20
-3.0099923622047244
11
4.8622047244094491
21
-3.0098425196850394
0
LINE
8
BLACK
6
CONTINUOUS
10
4.8622047244094491
20
-3.0098425196850394
11
4.8629580314960625
21
-3.0099923622047244
0
LINE
8
BLACK
6
CONTINUOUS
10
4.8629580314960625
20
-3.0099923622047244
11
4.9812791732283461
21
-3.1281023228346454
0
LINE
8
BLACK
6
CONTINUOUS
10
4.9812791732283461
20
-3.1281023228346454
11
6.0427013385826767
21
-3.1279528346456691
0
LINE
8
BLACK
6
CONTINUOUS
10
6.0427013385826767
20
-3.1279528346456691
11
6.1600253937007876
21
-3.0104190551181103
0
LINE
8
BLACK
6
CONTINUOUS
10
6.1600253937007876
20
-3.0104190551181103
11
6.160664015748031
21
-3.0099923622047244
0
LINE
8
BLACK
6
CONTINUOUS
10
6.160664015748031
20
-3.0099923622047244
11
7.1259842519685037
21
-3.0098425196850394
0
LINE
8
BLACK
6
CONTINUOUS
10
7.1259842519685037
20
-3.0098425196850394
11
7.1267375590551181
21
-3.0099923622047244
0
LINE
8
BLACK
6
CONTINUOUS
10
3.7813463779527559
20
-3.0137792519685038
11
3.7814959055118109
21
-5.1753464173228343
0
LINE
8
BLACK
6
CONTINUOUS
10
3.7814959055118109
20
-5.1753464173228343
11
5.3340399606299211
21
-5.1751968897637797
0
LINE
8
BLACK
6
CONTINUOUS
10
5.3340399606299211
20
-5.1751968897637797
11
5.4513639763779524
21
-5.0576631496062987
0
LINE
8
BLACK
6
CONTINUOUS
10
5.4513639763779524
20
-5.0576631496062987
11
5.4520025984251967
21
-5.0572364566929133
0
LINE
8
BLACK
6
CONTINUOUS
10
5.4520025984251967
20
-5.0572364566929133
11
6.0039370078740157
21
-5.0570866141732278
0
LINE
8
BLACK
6
CONTINUOUS
10
6.0039370078740157
20
-5.0570866141732278
11
6.0046903149606301
21
-5.0572364566929133
0
LINE
8
BLACK
6
CONTINUOUS
10
6.0046903149606301
20
-5.0572364566929133
11
6.1230114566929137
21
-5.1753464173228343
0
LINE
8
BLACK
6
CONTINUOUS
10
6.1230114566929137
20
-5.1753464173228343
11
7.1241653937007872
21
-5.1751970866141734
0
LINE
8
BLACK
6
CONTINUOUS
10
7.1241653937007872
20
-5.1751970866141734
11
7.1240158661417325
21
-3.0136300787401575
0
LINE
8
BLACK
6
CONTINUOUS
10
7.1240158661417325
20
-3.0136300787401575
11
6.1620230314960631
21
-3.0137794094488188
0
LINE
8
BLACK
6
CONTINUOUS
10
6.1620230314960631
20
-3.0137794094488188
11
6.0446990157480309
21
-3.1313131889763777
0
LINE
8
BLACK
6
CONTINUOUS
10
6.0446990157480309
20
-3.1313131889763777
11
6.0440603937007875
21
-3.1317399212598422
0
LINE
8
BLACK
6
CONTINUOUS
10
6.0440603937007875
20
-3.1317399212598422
11
4.9803149606299213
21
-3.1318897637795273
0
LINE
8
BLACK
6
CONTINUOUS
10
4.9803149606299213
20
-3.1318897637795273
11
4.9795616535433069
21
-3.1317399212598422
0
LINE
8
BLACK
6
CONTINUOUS
10
4.9795616535433069
20
-3.1317399212598422
11
4.8612405118110233
21
-3.0136299212598425
0
LINE
8
BLACK
6
CONTINUOUS
10
4.8612405118110233
20
-3.0136299212598425
11
3.7813463779527559
21
-3.0137792519685038
  0
ENDSEC
  0
EOF
