%TF.GenerationSoftware,KiCad,Pcbnew,8.0.2*%
%TF.CreationDate,2025-06-13T16:45:19+05:30*%
%TF.ProjectId,final schematics,66696e61-6c20-4736-9368-656d61746963,1.0*%
%TF.SameCoordinates,Original*%
%TF.FileFunction,Copper,L1,Top*%
%TF.FilePolarity,Positive*%
%FSLAX46Y46*%
G04 Gerber Fmt 4.6, Leading zero omitted, Abs format (unit mm)*
G04 Created by KiCad (PCBNEW 8.0.2) date 2025-06-13 16:45:19*
%MOMM*%
%LPD*%
G01*
G04 APERTURE LIST*
G04 Aperture macros list*
%AMRoundRect*
0 Rectangle with rounded corners*
0 $1 Rounding radius*
0 $2 $3 $4 $5 $6 $7 $8 $9 X,Y pos of 4 corners*
0 Add a 4 corners polygon primitive as box body*
4,1,4,$2,$3,$4,$5,$6,$7,$8,$9,$2,$3,0*
0 Add four circle primitives for the rounded corners*
1,1,$1+$1,$2,$3*
1,1,$1+$1,$4,$5*
1,1,$1+$1,$6,$7*
1,1,$1+$1,$8,$9*
0 Add four rect primitives between the rounded corners*
20,1,$1+$1,$2,$3,$4,$5,0*
20,1,$1+$1,$4,$5,$6,$7,0*
20,1,$1+$1,$6,$7,$8,$9,0*
20,1,$1+$1,$8,$9,$2,$3,0*%
G04 Aperture macros list end*
%TA.AperFunction,ComponentPad*%
%ADD10C,1.600000*%
%TD*%
%TA.AperFunction,ComponentPad*%
%ADD11O,1.600000X1.600000*%
%TD*%
%TA.AperFunction,ComponentPad*%
%ADD12RoundRect,0.250000X0.750000X-0.600000X0.750000X0.600000X-0.750000X0.600000X-0.750000X-0.600000X0*%
%TD*%
%TA.AperFunction,ComponentPad*%
%ADD13O,2.000000X1.700000*%
%TD*%
%TA.AperFunction,ComponentPad*%
%ADD14R,1.600000X1.600000*%
%TD*%
%TA.AperFunction,ComponentPad*%
%ADD15R,1.700000X1.700000*%
%TD*%
%TA.AperFunction,ComponentPad*%
%ADD16O,1.700000X1.700000*%
%TD*%
%TA.AperFunction,ComponentPad*%
%ADD17O,4.000000X2.200000*%
%TD*%
%TA.AperFunction,ComponentPad*%
%ADD18O,2.200000X4.000000*%
%TD*%
%TA.AperFunction,ComponentPad*%
%ADD19R,4.000000X2.200000*%
%TD*%
%TA.AperFunction,ComponentPad*%
%ADD20O,3.500000X2.200000*%
%TD*%
%TA.AperFunction,ComponentPad*%
%ADD21R,2.500000X1.500000*%
%TD*%
%TA.AperFunction,ComponentPad*%
%ADD22O,2.500000X1.500000*%
%TD*%
%TA.AperFunction,ComponentPad*%
%ADD23R,1.800000X1.800000*%
%TD*%
%TA.AperFunction,ComponentPad*%
%ADD24C,1.800000*%
%TD*%
%TA.AperFunction,ViaPad*%
%ADD25C,0.700000*%
%TD*%
%TA.AperFunction,Conductor*%
%ADD26C,0.300000*%
%TD*%
%TA.AperFunction,Conductor*%
%ADD27C,0.500000*%
%TD*%
%TA.AperFunction,Conductor*%
%ADD28C,0.250000*%
%TD*%
G04 APERTURE END LIST*
D10*
%TO.P,C7,1*%
%TO.N,Net-(U2A-+)*%
X122000000Y-128500000D03*
%TO.P,C7,2*%
%TO.N,GND*%
X124500000Y-128500000D03*
%TD*%
%TO.P,R8,1*%
%TO.N,FSignal*%
X159900000Y-115500000D03*
D11*
%TO.P,R8,2*%
%TO.N,Net-(J4-PadR)*%
X167520000Y-115500000D03*
%TD*%
D12*
%TO.P,J6,1,Pin_1*%
%TO.N,+5V*%
X106500000Y-127500000D03*
D13*
%TO.P,J6,2,Pin_2*%
%TO.N,switch*%
X106500000Y-125000000D03*
%TD*%
D14*
%TO.P,U3,1*%
%TO.N,Net-(C10-Pad2)*%
X127510000Y-107800000D03*
D11*
%TO.P,U3,2,-*%
%TO.N,Net-(U3A--)*%
X130050000Y-107800000D03*
%TO.P,U3,3,+*%
%TO.N,2.5V*%
X132590000Y-107800000D03*
%TO.P,U3,4,V-*%
%TO.N,GND*%
X135130000Y-107800000D03*
%TO.P,U3,5,+*%
%TO.N,2.5V*%
X135130000Y-100180000D03*
%TO.P,U3,6,-*%
%TO.N,Net-(U3B--)*%
X132590000Y-100180000D03*
%TO.P,U3,7*%
%TO.N,Net-(R18-Pad1)*%
X130050000Y-100180000D03*
%TO.P,U3,8,V+*%
%TO.N,+5V*%
X127510000Y-100180000D03*
%TD*%
D10*
%TO.P,C16,1*%
%TO.N,Net-(U4C--)*%
X130585000Y-87890000D03*
%TO.P,C16,2*%
%TO.N,Net-(C16-Pad2)*%
X133085000Y-87890000D03*
%TD*%
%TO.P,R2,1*%
%TO.N,PMIC*%
X106310000Y-90500000D03*
D11*
%TO.P,R2,2*%
%TO.N,+5V*%
X98690000Y-90500000D03*
%TD*%
D10*
%TO.P,R16,1*%
%TO.N,Net-(U2A-+)*%
X119500000Y-128500000D03*
D11*
%TO.P,R16,2*%
%TO.N,GND*%
X111880000Y-128500000D03*
%TD*%
D10*
%TO.P,R22,1*%
%TO.N,Net-(C15-Pad2)*%
X114830000Y-87690000D03*
D11*
%TO.P,R22,2*%
%TO.N,Net-(U3B--)*%
X114830000Y-95310000D03*
%TD*%
D10*
%TO.P,R18,1*%
%TO.N,Net-(R18-Pad1)*%
X127500000Y-95310000D03*
D11*
%TO.P,R18,2*%
%TO.N,Net-(C16-Pad2)*%
X127500000Y-87690000D03*
%TD*%
D10*
%TO.P,R6,1*%
%TO.N,SMIC*%
X106310000Y-94500000D03*
D11*
%TO.P,R6,2*%
%TO.N,+5V*%
X98690000Y-94500000D03*
%TD*%
D10*
%TO.P,R20,1*%
%TO.N,Net-(U4C--)*%
X139830000Y-95310000D03*
D11*
%TO.P,R20,2*%
%TO.N,Net-(C17-Pad2)*%
X139830000Y-87690000D03*
%TD*%
D10*
%TO.P,R17,1*%
%TO.N,Net-(U3A--)*%
X123500000Y-120310000D03*
D11*
%TO.P,R17,2*%
%TO.N,Net-(C10-Pad2)*%
X123500000Y-112690000D03*
%TD*%
D10*
%TO.P,R21,1*%
%TO.N,Net-(C17-Pad2)*%
X148500000Y-95310000D03*
D11*
%TO.P,R21,2*%
%TO.N,Net-(U4D-+)*%
X148500000Y-87690000D03*
%TD*%
D10*
%TO.P,R5,1*%
%TO.N,Net-(R4-Pad1)*%
X117120000Y-83500000D03*
D11*
%TO.P,R5,2*%
%TO.N,Net-(R4-Pad2)*%
X109500000Y-83500000D03*
%TD*%
D10*
%TO.P,C18,1*%
%TO.N,Net-(U3B--)*%
X117915000Y-95110000D03*
%TO.P,C18,2*%
%TO.N,Net-(C18-Pad2)*%
X120415000Y-95110000D03*
%TD*%
%TO.P,R1,1*%
%TO.N,Net-(J7-Pin_3)*%
X167520000Y-92500000D03*
D11*
%TO.P,R1,2*%
%TO.N,Net-(R1-Pad2)*%
X159900000Y-92500000D03*
%TD*%
D15*
%TO.P,J7,1,Pin_1*%
%TO.N,unconnected-(J7-Pin_1-Pad1)*%
X155500000Y-120040000D03*
D16*
%TO.P,J7,2,Pin_2*%
%TO.N,Net-(J7-Pin_2)*%
X155500000Y-117500000D03*
%TO.P,J7,3,Pin_3*%
%TO.N,Net-(J7-Pin_3)*%
X155500000Y-114960000D03*
%TD*%
D14*
%TO.P,U2,1*%
%TO.N,2.5V*%
X160420000Y-107800000D03*
D11*
%TO.P,U2,2,-*%
X162960000Y-107800000D03*
%TO.P,U2,3,+*%
%TO.N,Net-(U2A-+)*%
X165500000Y-107800000D03*
%TO.P,U2,4,V-*%
%TO.N,GND*%
X168040000Y-107800000D03*
%TO.P,U2,5,+*%
%TO.N,2.5V*%
X168040000Y-100180000D03*
%TO.P,U2,6,-*%
%TO.N,Net-(J7-Pin_3)*%
X165500000Y-100180000D03*
%TO.P,U2,7*%
%TO.N,Net-(R1-Pad2)*%
X162960000Y-100180000D03*
%TO.P,U2,8,V+*%
%TO.N,+5V*%
X160420000Y-100180000D03*
%TD*%
D10*
%TO.P,R24,1*%
%TO.N,+5V*%
X98500000Y-79500000D03*
D11*
%TO.P,R24,2*%
%TO.N,Net-(D1-A)*%
X106120000Y-79500000D03*
%TD*%
D10*
%TO.P,C4,1*%
%TO.N,Net-(U4B-+)*%
X142915000Y-120110000D03*
%TO.P,C4,2*%
%TO.N,GND*%
X145415000Y-120110000D03*
%TD*%
%TO.P,R4,1*%
%TO.N,Net-(R4-Pad1)*%
X117120000Y-79500000D03*
D11*
%TO.P,R4,2*%
%TO.N,Net-(R4-Pad2)*%
X109500000Y-79500000D03*
%TD*%
D10*
%TO.P,C13,1*%
%TO.N,Net-(U4C-+)*%
X130585000Y-95110000D03*
%TO.P,C13,2*%
%TO.N,GND*%
X133085000Y-95110000D03*
%TD*%
D17*
%TO.P,J1,R*%
%TO.N,FSignal*%
X170300000Y-88700000D03*
%TO.P,J1,RN*%
%TO.N,N/C*%
X171500000Y-86000000D03*
D18*
%TO.P,J1,S*%
%TO.N,GND*%
X178300000Y-83500000D03*
D19*
%TO.P,J1,T*%
%TO.N,FSignal*%
X174400000Y-78900000D03*
D18*
%TO.P,J1,TN*%
%TO.N,N/C*%
X167100000Y-79400000D03*
%TD*%
D10*
%TO.P,C12,1*%
%TO.N,+5V*%
X99500000Y-117750000D03*
%TO.P,C12,2*%
%TO.N,GND*%
X99500000Y-115250000D03*
%TD*%
%TO.P,C10,1*%
%TO.N,Net-(U3A--)*%
X117915000Y-112890000D03*
%TO.P,C10,2*%
%TO.N,Net-(C10-Pad2)*%
X120415000Y-112890000D03*
%TD*%
D17*
%TO.P,J4,R*%
%TO.N,Net-(J4-PadR)*%
X170300000Y-129500000D03*
%TO.P,J4,RN*%
%TO.N,N/C*%
X171500000Y-126800000D03*
D18*
%TO.P,J4,S*%
%TO.N,GND*%
X178300000Y-124300000D03*
D19*
%TO.P,J4,T*%
%TO.N,Net-(J4-PadR)*%
X174400000Y-119700000D03*
D18*
%TO.P,J4,TN*%
%TO.N,N/C*%
X167100000Y-120200000D03*
%TD*%
D10*
%TO.P,R14,1*%
%TO.N,Net-(C9-Pad2)*%
X148500000Y-120310000D03*
D11*
%TO.P,R14,2*%
%TO.N,Net-(U4B-+)*%
X148500000Y-112690000D03*
%TD*%
D10*
%TO.P,R19,1*%
%TO.N,Net-(C16-Pad2)*%
X136170000Y-95310000D03*
D11*
%TO.P,R19,2*%
%TO.N,Net-(U4C-+)*%
X136170000Y-87690000D03*
%TD*%
D10*
%TO.P,R10,1*%
%TO.N,+5V*%
X111880000Y-124500000D03*
D11*
%TO.P,R10,2*%
%TO.N,Net-(U2A-+)*%
X119500000Y-124500000D03*
%TD*%
D12*
%TO.P,J5,1,Pin_1*%
%TO.N,switch*%
X99200000Y-127500000D03*
D13*
%TO.P,J5,2,Pin_2*%
%TO.N,GND*%
X99200000Y-125000000D03*
%TD*%
D10*
%TO.P,R23,1*%
%TO.N,Net-(U3B--)*%
X123500000Y-87690000D03*
D11*
%TO.P,R23,2*%
%TO.N,Net-(C18-Pad2)*%
X123500000Y-95310000D03*
%TD*%
D10*
%TO.P,C6,1*%
%TO.N,Signal*%
X120415000Y-120110000D03*
%TO.P,C6,2*%
%TO.N,Net-(C6-Pad2)*%
X117915000Y-120110000D03*
%TD*%
D14*
%TO.P,U1,1,Rg*%
%TO.N,Net-(R4-Pad1)*%
X114880000Y-107800000D03*
D11*
%TO.P,U1,2,-*%
%TO.N,SMIC*%
X117420000Y-107800000D03*
%TO.P,U1,3,+*%
%TO.N,PMIC*%
X119960000Y-107800000D03*
%TO.P,U1,4,V-*%
%TO.N,GND*%
X122500000Y-107800000D03*
%TO.P,U1,5,Ref*%
%TO.N,2.5V*%
X122500000Y-100180000D03*
%TO.P,U1,6*%
%TO.N,Signal*%
X119960000Y-100180000D03*
%TO.P,U1,7,V+*%
%TO.N,+5V*%
X117420000Y-100180000D03*
%TO.P,U1,8,Rg*%
%TO.N,Net-(R4-Pad2)*%
X114880000Y-100180000D03*
%TD*%
D10*
%TO.P,C14,1*%
%TO.N,Net-(U4D-+)*%
X142915000Y-95110000D03*
%TO.P,C14,2*%
%TO.N,GND*%
X145415000Y-95110000D03*
%TD*%
D14*
%TO.P,C1,1*%
%TO.N,Net-(SW1-C)*%
X177910225Y-113857500D03*
D10*
%TO.P,C1,2*%
%TO.N,Net-(J7-Pin_2)*%
X175410225Y-113857500D03*
%TD*%
%TO.P,C8,1*%
%TO.N,Net-(U4A--)*%
X133000000Y-120110000D03*
%TO.P,C8,2*%
%TO.N,Net-(C8-Pad2)*%
X130500000Y-120110000D03*
%TD*%
%TO.P,R13,1*%
%TO.N,Net-(C9-Pad2)*%
X139830000Y-120310000D03*
D11*
%TO.P,R13,2*%
%TO.N,Net-(U4A--)*%
X139830000Y-112690000D03*
%TD*%
D10*
%TO.P,R12,1*%
%TO.N,Net-(C8-Pad2)*%
X136170000Y-120310000D03*
D11*
%TO.P,R12,2*%
%TO.N,Net-(U4A-+)*%
X136170000Y-112690000D03*
%TD*%
D17*
%TO.P,J3,R*%
%TO.N,PMIC*%
X106500000Y-98857500D03*
%TO.P,J3,RN*%
%TO.N,N/C*%
X105300000Y-101557500D03*
D18*
%TO.P,J3,S*%
%TO.N,GND*%
X98500000Y-104057500D03*
D19*
%TO.P,J3,T*%
%TO.N,SMIC*%
X102400000Y-108657500D03*
D18*
%TO.P,J3,TN*%
%TO.N,N/C*%
X109700000Y-108157500D03*
%TD*%
D10*
%TO.P,R9,1*%
%TO.N,Net-(J4-PadR)*%
X167520000Y-111500000D03*
D11*
%TO.P,R9,2*%
%TO.N,GND*%
X159900000Y-111500000D03*
%TD*%
D20*
%TO.P,SW1,*%
%TO.N,*%
X177500000Y-108100000D03*
X177500000Y-99900000D03*
D21*
%TO.P,SW1,1,C*%
%TO.N,Heart*%
X177500000Y-106000000D03*
D22*
%TO.P,SW1,2,B*%
%TO.N,Net-(SW1-C)*%
X177500000Y-104000000D03*
%TO.P,SW1,3,A*%
%TO.N,Lungs*%
X177500000Y-102000000D03*
%TD*%
D10*
%TO.P,R7,1*%
%TO.N,Net-(R1-Pad2)*%
X159900000Y-96500000D03*
D11*
%TO.P,R7,2*%
%TO.N,Net-(C2-Pad1)*%
X167520000Y-96500000D03*
%TD*%
D14*
%TO.P,C11,1*%
%TO.N,+5V*%
X106800000Y-117705113D03*
D10*
%TO.P,C11,2*%
%TO.N,GND*%
X106800000Y-115205113D03*
%TD*%
%TO.P,R3,1*%
%TO.N,Net-(J7-Pin_2)*%
X172500000Y-107810000D03*
D11*
%TO.P,R3,2*%
%TO.N,Net-(J7-Pin_3)*%
X172500000Y-100190000D03*
%TD*%
D14*
%TO.P,U4,1*%
%TO.N,Net-(U4A--)*%
X140140000Y-107800000D03*
D11*
%TO.P,U4,2,-*%
X142680000Y-107800000D03*
%TO.P,U4,3,+*%
%TO.N,Net-(U4A-+)*%
X145220000Y-107800000D03*
%TO.P,U4,4,V+*%
%TO.N,+5V*%
X147760000Y-107800000D03*
%TO.P,U4,5,+*%
%TO.N,Net-(U4B-+)*%
X150300000Y-107800000D03*
%TO.P,U4,6,-*%
%TO.N,Heart*%
X152840000Y-107800000D03*
%TO.P,U4,7*%
X155380000Y-107800000D03*
%TO.P,U4,8*%
%TO.N,Net-(U4C--)*%
X155380000Y-100180000D03*
%TO.P,U4,9,-*%
X152840000Y-100180000D03*
%TO.P,U4,10,+*%
%TO.N,Net-(U4C-+)*%
X150300000Y-100180000D03*
%TO.P,U4,11,V-*%
%TO.N,GND*%
X147760000Y-100180000D03*
%TO.P,U4,12,+*%
%TO.N,Net-(U4D-+)*%
X145220000Y-100180000D03*
%TO.P,U4,13,-*%
%TO.N,Lungs*%
X142680000Y-100180000D03*
%TO.P,U4,14*%
X140140000Y-100180000D03*
%TD*%
D14*
%TO.P,C2,1*%
%TO.N,Net-(C2-Pad1)*%
X175500000Y-94142500D03*
D10*
%TO.P,C2,2*%
%TO.N,FSignal*%
X178000000Y-94142500D03*
%TD*%
D23*
%TO.P,D1,1,K*%
%TO.N,GND*%
X99700000Y-85051283D03*
D24*
%TO.P,D1,2,A*%
%TO.N,Net-(D1-A)*%
X99700000Y-82511283D03*
%TD*%
D10*
%TO.P,R15,1*%
%TO.N,Net-(C6-Pad2)*%
X114830000Y-120310000D03*
D11*
%TO.P,R15,2*%
%TO.N,Net-(U3A--)*%
X114830000Y-112690000D03*
%TD*%
D10*
%TO.P,C5,1*%
%TO.N,+5V*%
X124500000Y-124500000D03*
%TO.P,C5,2*%
%TO.N,Net-(U2A-+)*%
X122000000Y-124500000D03*
%TD*%
%TO.P,C15,1*%
%TO.N,Signal*%
X120415000Y-87890000D03*
%TO.P,C15,2*%
%TO.N,Net-(C15-Pad2)*%
X117915000Y-87890000D03*
%TD*%
%TO.P,C9,1*%
%TO.N,Heart*%
X142915000Y-112890000D03*
%TO.P,C9,2*%
%TO.N,Net-(C9-Pad2)*%
X145415000Y-112890000D03*
%TD*%
%TO.P,C17,1*%
%TO.N,Lungs*%
X142915000Y-87890000D03*
%TO.P,C17,2*%
%TO.N,Net-(C17-Pad2)*%
X145415000Y-87890000D03*
%TD*%
%TO.P,R11,1*%
%TO.N,Net-(C10-Pad2)*%
X127500000Y-112690000D03*
D11*
%TO.P,R11,2*%
%TO.N,Net-(C8-Pad2)*%
X127500000Y-120310000D03*
%TD*%
D10*
%TO.P,C3,1*%
%TO.N,Net-(U4A-+)*%
X130500000Y-112890000D03*
%TO.P,C3,2*%
%TO.N,GND*%
X133000000Y-112890000D03*
%TD*%
D25*
%TO.N,FSignal*%
X179500000Y-110500000D03*
X178500000Y-96500000D03*
%TO.N,Heart*%
X161500000Y-105500000D03*
X164500000Y-105500000D03*
%TO.N,Lungs*%
X169500000Y-102500000D03*
X166500000Y-102500000D03*
%TO.N,Net-(R4-Pad1)*%
X111500000Y-94500000D03*
X111500000Y-100500000D03*
%TD*%
D26*
%TO.N,Net-(SW1-C)*%
X180350000Y-112500000D02*
X178350000Y-114500000D01*
X180350000Y-105500000D02*
X180350000Y-112500000D01*
X178350000Y-114500000D02*
X177500000Y-114500000D01*
X177500000Y-104000000D02*
X178850000Y-104000000D01*
X178850000Y-104000000D02*
X180350000Y-105500000D01*
%TO.N,Net-(C2-Pad1)*%
X167520000Y-96500000D02*
X173142500Y-96500000D01*
X173142500Y-96500000D02*
X175500000Y-94142500D01*
%TO.N,FSignal*%
X161900000Y-117500000D02*
X159900000Y-115500000D01*
X178000000Y-96000000D02*
X178500000Y-96500000D01*
X171500000Y-117500000D02*
X161900000Y-117500000D01*
X172500000Y-112500000D02*
X172500000Y-116500000D01*
X170300000Y-88385000D02*
X170300000Y-88700000D01*
X174400000Y-78585000D02*
X174400000Y-87600000D01*
X174400000Y-87600000D02*
X173615000Y-88385000D01*
X172500000Y-116500000D02*
X171500000Y-117500000D01*
X173500000Y-111500000D02*
X172500000Y-112500000D01*
X178000000Y-94142500D02*
X178000000Y-96000000D01*
X173615000Y-88385000D02*
X170300000Y-88385000D01*
X179500000Y-110500000D02*
X178500000Y-111500000D01*
X176650000Y-94142500D02*
X178000000Y-94142500D01*
X178500000Y-111500000D02*
X173500000Y-111500000D01*
X176650000Y-92650000D02*
X176650000Y-94142500D01*
X170300000Y-88700000D02*
X172700000Y-88700000D01*
X172700000Y-88700000D02*
X176650000Y-92650000D01*
%TO.N,Net-(U4A-+)*%
X132110000Y-114500000D02*
X134500000Y-114500000D01*
X137500000Y-105500000D02*
X137500000Y-111360000D01*
X142920000Y-105500000D02*
X137500000Y-105500000D01*
X134500000Y-114360000D02*
X136170000Y-112690000D01*
X130500000Y-112890000D02*
X132110000Y-114500000D01*
X137500000Y-111360000D02*
X136170000Y-112690000D01*
X134500000Y-114500000D02*
X134500000Y-114360000D01*
X145220000Y-107800000D02*
X142920000Y-105500000D01*
%TO.N,Net-(U4B-+)*%
X144500000Y-109500000D02*
X148600000Y-109500000D01*
X142915000Y-115085000D02*
X143500000Y-114500000D01*
X141765000Y-118960000D02*
X141765000Y-112235000D01*
X142915000Y-120110000D02*
X141765000Y-118960000D01*
X141765000Y-112235000D02*
X144500000Y-109500000D01*
X146690000Y-114500000D02*
X148500000Y-112690000D01*
X148600000Y-109500000D02*
X150300000Y-107800000D01*
X143500000Y-114500000D02*
X146690000Y-114500000D01*
X142915000Y-120110000D02*
X142915000Y-115085000D01*
D27*
%TO.N,+5V*%
X99500000Y-117750000D02*
X106755113Y-117750000D01*
X111880000Y-124500000D02*
X108880000Y-127500000D01*
X99500000Y-106500000D02*
X100500000Y-106500000D01*
X111500000Y-124120000D02*
X111880000Y-124500000D01*
X98690000Y-95690000D02*
X98690000Y-94500000D01*
X98500000Y-107500000D02*
X99500000Y-106500000D01*
X111880000Y-124500000D02*
X113880000Y-122500000D01*
X98500000Y-112500000D02*
X98500000Y-107500000D01*
X108880000Y-127500000D02*
X106500000Y-127500000D01*
X99500000Y-117750000D02*
X101500000Y-115750000D01*
X111500000Y-122405113D02*
X111500000Y-124120000D01*
X101500000Y-115750000D02*
X101500000Y-112500000D01*
X106800000Y-117705113D02*
X111500000Y-122405113D01*
X106755113Y-117750000D02*
X106800000Y-117705113D01*
X97700001Y-80299999D02*
X98500000Y-79500000D01*
X97700001Y-88700001D02*
X97700001Y-80299999D01*
X101500000Y-112500000D02*
X98500000Y-112500000D01*
X100500000Y-106500000D02*
X101500000Y-105500000D01*
X101500000Y-98500000D02*
X98690000Y-95690000D01*
X98690000Y-94500000D02*
X98690000Y-90500000D01*
X98690000Y-89690000D02*
X97700001Y-88700001D01*
X101500000Y-105500000D02*
X101500000Y-98500000D01*
X113880000Y-122500000D02*
X122500000Y-122500000D01*
X98690000Y-90500000D02*
X98690000Y-89690000D01*
X122500000Y-122500000D02*
X124500000Y-124500000D01*
%TO.N,Net-(U2A-+)*%
X119500000Y-128500000D02*
X122000000Y-128500000D01*
X122000000Y-127000000D02*
X126000000Y-127000000D01*
X152500000Y-109500000D02*
X163800000Y-109500000D01*
X152500000Y-123500000D02*
X152500000Y-109500000D01*
X119500000Y-124500000D02*
X119500000Y-128500000D01*
X119500000Y-124500000D02*
X122000000Y-124500000D01*
X163800000Y-109500000D02*
X165500000Y-107800000D01*
X129500000Y-123500000D02*
X152500000Y-123500000D01*
X122000000Y-124500000D02*
X122000000Y-128500000D01*
X122000000Y-128500000D02*
X122000000Y-127000000D01*
X126000000Y-127000000D02*
X129500000Y-123500000D01*
D26*
%TO.N,Signal*%
X112500000Y-86500000D02*
X113500000Y-85500000D01*
X120415000Y-86415000D02*
X120415000Y-87890000D01*
X112500000Y-96500000D02*
X112500000Y-86500000D01*
X115500000Y-110500000D02*
X114500000Y-110500000D01*
X119500000Y-119195000D02*
X120415000Y-120110000D01*
X116500000Y-109500000D02*
X115500000Y-110500000D01*
X114500000Y-110500000D02*
X112500000Y-112500000D01*
X112500000Y-117500000D02*
X113500000Y-118500000D01*
X124500000Y-109500000D02*
X116500000Y-109500000D01*
X119960000Y-100180000D02*
X117280000Y-97500000D01*
X113500000Y-85500000D02*
X119500000Y-85500000D01*
X119500000Y-118500000D02*
X119500000Y-119195000D01*
X117280000Y-97500000D02*
X113500000Y-97500000D01*
X124500000Y-104720000D02*
X124500000Y-109500000D01*
X119500000Y-85500000D02*
X120415000Y-86415000D01*
X113500000Y-97500000D02*
X112500000Y-96500000D01*
X119960000Y-100180000D02*
X124500000Y-104720000D01*
X112500000Y-112500000D02*
X112500000Y-117500000D01*
X113500000Y-118500000D02*
X119500000Y-118500000D01*
%TO.N,Net-(C6-Pad2)*%
X114830000Y-120310000D02*
X117715000Y-120310000D01*
X117715000Y-120310000D02*
X117915000Y-120110000D01*
%TO.N,Net-(U4A--)*%
X139830000Y-108110000D02*
X140140000Y-107800000D01*
X140140000Y-107800000D02*
X142680000Y-107800000D01*
X137500000Y-116500000D02*
X139830000Y-114170000D01*
X133000000Y-120110000D02*
X133000000Y-118000000D01*
X133000000Y-118000000D02*
X134500000Y-116500000D01*
X139830000Y-112690000D02*
X139830000Y-108110000D01*
X139830000Y-114170000D02*
X139830000Y-112690000D01*
X134500000Y-116500000D02*
X137500000Y-116500000D01*
%TO.N,Net-(C8-Pad2)*%
X131890000Y-121500000D02*
X134980000Y-121500000D01*
X130500000Y-120110000D02*
X131890000Y-121500000D01*
X134980000Y-121500000D02*
X136170000Y-120310000D01*
X127500000Y-120310000D02*
X130300000Y-120310000D01*
X130300000Y-120310000D02*
X130500000Y-120110000D01*
%TO.N,Net-(C9-Pad2)*%
X150500000Y-111500000D02*
X147500000Y-111500000D01*
X148500000Y-119500000D02*
X150500000Y-117500000D01*
X148500000Y-120310000D02*
X148500000Y-119500000D01*
X146910000Y-121900000D02*
X148500000Y-120310000D01*
X146110000Y-112890000D02*
X145415000Y-112890000D01*
X139830000Y-120310000D02*
X141420000Y-121900000D01*
X147500000Y-111500000D02*
X146110000Y-112890000D01*
X141420000Y-121900000D02*
X146910000Y-121900000D01*
X150500000Y-117500000D02*
X150500000Y-111500000D01*
%TO.N,Heart*%
X144305000Y-111500000D02*
X146500000Y-111500000D01*
X150140000Y-110500000D02*
X152840000Y-107800000D01*
X147500000Y-110500000D02*
X150140000Y-110500000D01*
X146500000Y-111500000D02*
X147500000Y-110500000D01*
X170500000Y-105500000D02*
X171000000Y-106000000D01*
X142915000Y-112890000D02*
X144305000Y-111500000D01*
X171000000Y-106000000D02*
X177500000Y-106000000D01*
X155380000Y-106620000D02*
X155380000Y-107800000D01*
X164500000Y-105500000D02*
X170500000Y-105500000D01*
X156500000Y-105500000D02*
X155380000Y-106620000D01*
X142915000Y-113085000D02*
X142500000Y-113500000D01*
X142915000Y-112890000D02*
X142915000Y-113085000D01*
D27*
X152840000Y-107800000D02*
X155380000Y-107800000D01*
D26*
X161500000Y-105500000D02*
X156500000Y-105500000D01*
%TO.N,Net-(U3A--)*%
X117915000Y-112890000D02*
X117915000Y-114725000D01*
X114830000Y-112690000D02*
X117715000Y-112690000D01*
X117715000Y-112690000D02*
X117915000Y-112890000D01*
X128750000Y-106500000D02*
X130050000Y-107800000D01*
X117915000Y-114725000D02*
X123500000Y-120310000D01*
X120305000Y-110500000D02*
X125500000Y-110500000D01*
X125500000Y-106500000D02*
X128750000Y-106500000D01*
X125500000Y-110500000D02*
X125500000Y-106500000D01*
X117915000Y-112890000D02*
X120305000Y-110500000D01*
%TO.N,Net-(C10-Pad2)*%
X127500000Y-112690000D02*
X127500000Y-111500000D01*
X123500000Y-112690000D02*
X127500000Y-112690000D01*
X120415000Y-112890000D02*
X123300000Y-112890000D01*
X127510000Y-111490000D02*
X127510000Y-107800000D01*
X123300000Y-112890000D02*
X123500000Y-112690000D01*
X127500000Y-111500000D02*
X127510000Y-111490000D01*
%TO.N,Net-(U4C-+)*%
X137500000Y-96500000D02*
X139500000Y-98500000D01*
X148620000Y-98500000D02*
X150300000Y-100180000D01*
X130585000Y-95110000D02*
X130585000Y-93275000D01*
X139500000Y-98500000D02*
X148620000Y-98500000D01*
X130585000Y-93275000D02*
X136170000Y-87690000D01*
X137500000Y-89020000D02*
X137500000Y-96500000D01*
X136170000Y-87690000D02*
X137500000Y-89020000D01*
%TO.N,Net-(U4D-+)*%
X142915000Y-95110000D02*
X142915000Y-93275000D01*
X142915000Y-93275000D02*
X148500000Y-87690000D01*
%TO.N,Net-(C15-Pad2)*%
X115030000Y-87890000D02*
X114830000Y-87690000D01*
X117915000Y-87890000D02*
X115030000Y-87890000D01*
%TO.N,Net-(U4C--)*%
X151500000Y-98500000D02*
X150500000Y-97500000D01*
X152500000Y-98500000D02*
X151500000Y-98500000D01*
X138500000Y-93980000D02*
X139830000Y-95310000D01*
X140500000Y-95980000D02*
X139830000Y-95310000D01*
X138500000Y-87986346D02*
X138500000Y-93980000D01*
X150500000Y-97500000D02*
X140500000Y-97500000D01*
X136013654Y-85500000D02*
X138500000Y-87986346D01*
X130585000Y-87890000D02*
X132975000Y-85500000D01*
X155180000Y-100180000D02*
X152840000Y-100180000D01*
X155380000Y-100380000D02*
X155180000Y-100180000D01*
X152840000Y-100180000D02*
X152840000Y-98840000D01*
X132975000Y-85500000D02*
X136013654Y-85500000D01*
X140500000Y-97500000D02*
X140500000Y-95980000D01*
X155380000Y-100180000D02*
X155380000Y-100380000D01*
X152840000Y-98840000D02*
X152500000Y-98500000D01*
%TO.N,Net-(C16-Pad2)*%
X134980000Y-96500000D02*
X129310000Y-96500000D01*
X127500000Y-87690000D02*
X129310000Y-89500000D01*
X136170000Y-95310000D02*
X134980000Y-96500000D01*
X129310000Y-96500000D02*
X129310000Y-89500000D01*
X131475000Y-89500000D02*
X133085000Y-87890000D01*
X129310000Y-89500000D02*
X131475000Y-89500000D01*
%TO.N,Net-(C17-Pad2)*%
X146500000Y-85500000D02*
X150500000Y-85500000D01*
X149500000Y-94500000D02*
X149310000Y-94500000D01*
X150500000Y-85500000D02*
X151500000Y-86500000D01*
X145415000Y-86585000D02*
X146500000Y-85500000D01*
X151500000Y-92500000D02*
X149500000Y-94500000D01*
X149310000Y-94500000D02*
X148500000Y-95310000D01*
X151500000Y-86500000D02*
X151500000Y-92500000D01*
X145415000Y-87890000D02*
X145415000Y-86585000D01*
%TO.N,Lungs*%
X166500000Y-102500000D02*
X143500000Y-102500000D01*
D27*
X140140000Y-100180000D02*
X142680000Y-100180000D01*
D26*
X171000000Y-102000000D02*
X177500000Y-102000000D01*
X142680000Y-101680000D02*
X142680000Y-100180000D01*
X177500000Y-102000000D02*
X177500000Y-101500000D01*
X170500000Y-102500000D02*
X171000000Y-102000000D01*
X169500000Y-102500000D02*
X170500000Y-102500000D01*
X143500000Y-102500000D02*
X142680000Y-101680000D01*
%TO.N,Net-(U3B--)*%
X121500000Y-92500000D02*
X123500000Y-90500000D01*
X117915000Y-95110000D02*
X120525000Y-92500000D01*
X125500000Y-92500000D02*
X125500000Y-101500000D01*
X117715000Y-95310000D02*
X117915000Y-95110000D01*
X123500000Y-90500000D02*
X125500000Y-92500000D01*
X114830000Y-95310000D02*
X117715000Y-95310000D01*
X123500000Y-87690000D02*
X123500000Y-90500000D01*
X125500000Y-101500000D02*
X127500000Y-103500000D01*
X127500000Y-103500000D02*
X130500000Y-103500000D01*
X130500000Y-103500000D02*
X132590000Y-101410000D01*
X120525000Y-92500000D02*
X121500000Y-92500000D01*
X132590000Y-101410000D02*
X132590000Y-100180000D01*
%TO.N,Net-(C18-Pad2)*%
X120415000Y-95110000D02*
X123300000Y-95110000D01*
X123300000Y-95110000D02*
X123500000Y-95310000D01*
%TO.N,Net-(D1-A)*%
X99700000Y-82511283D02*
X104488717Y-82511283D01*
X106120000Y-80880000D02*
X106120000Y-79500000D01*
X104488717Y-82511283D02*
X106120000Y-80880000D01*
%TO.N,SMIC*%
X104500000Y-110500000D02*
X109091890Y-110500000D01*
X102400000Y-108657500D02*
X102657500Y-108657500D01*
X112500000Y-109500000D02*
X115720000Y-109500000D01*
X115720000Y-109500000D02*
X117420000Y-107800000D01*
X102400000Y-108657500D02*
X102400000Y-96600000D01*
X102657500Y-108657500D02*
X104500000Y-110500000D01*
X109091890Y-110500000D02*
X109099390Y-110507500D01*
X102400000Y-96600000D02*
X104500000Y-94500000D01*
X111492500Y-110507500D02*
X112500000Y-109500000D01*
X109099390Y-110507500D02*
X111492500Y-110507500D01*
X104500000Y-94500000D02*
X106310000Y-94500000D01*
%TO.N,PMIC*%
X106310000Y-90500000D02*
X108500000Y-92690000D01*
X106500000Y-98857500D02*
X111857500Y-98857500D01*
X115660000Y-103500000D02*
X119960000Y-107800000D01*
X108500000Y-92690000D02*
X108500000Y-96857500D01*
X108500000Y-96857500D02*
X106500000Y-98857500D01*
X112500000Y-99500000D02*
X112500000Y-103500000D01*
X111857500Y-98857500D02*
X112500000Y-99500000D01*
X112500000Y-103500000D02*
X115660000Y-103500000D01*
%TO.N,Net-(J4-PadR)*%
X172100000Y-129900000D02*
X170300000Y-129900000D01*
X174500000Y-127500000D02*
X172100000Y-129900000D01*
X174500000Y-120200000D02*
X174500000Y-127500000D01*
X167520000Y-111500000D02*
X167520000Y-115500000D01*
D27*
%TO.N,switch*%
X101500000Y-127500000D02*
X104000000Y-125000000D01*
X99200000Y-127500000D02*
X101500000Y-127500000D01*
X104000000Y-125000000D02*
X106500000Y-125000000D01*
D26*
%TO.N,Net-(R1-Pad2)*%
X159900000Y-96500000D02*
X161500000Y-96500000D01*
X161500000Y-96500000D02*
X162960000Y-97960000D01*
X162960000Y-97960000D02*
X162960000Y-100180000D01*
X159900000Y-92500000D02*
X159900000Y-96500000D01*
%TO.N,Net-(R4-Pad1)*%
X117120000Y-79500000D02*
X117120000Y-83500000D01*
X111500000Y-85500000D02*
X111500000Y-94500000D01*
X111500000Y-100500000D02*
X111500000Y-104420000D01*
X117120000Y-83500000D02*
X113500000Y-83500000D01*
X111500000Y-104420000D02*
X114880000Y-107800000D01*
X113500000Y-83500000D02*
X111500000Y-85500000D01*
%TO.N,Net-(R4-Pad2)*%
X109500000Y-79500000D02*
X109500000Y-83500000D01*
X109500000Y-94800000D02*
X114880000Y-100180000D01*
X109500000Y-83500000D02*
X109500000Y-94800000D01*
%TO.N,Net-(R18-Pad1)*%
X127500000Y-97630000D02*
X130050000Y-100180000D01*
X127500000Y-95310000D02*
X127500000Y-97630000D01*
%TO.N,2.5V*%
X167500000Y-104500000D02*
X163800000Y-104500000D01*
D27*
X132590000Y-107800000D02*
X132590000Y-106410000D01*
D26*
X168040000Y-101960000D02*
X167500000Y-102500000D01*
D27*
X132590000Y-106590000D02*
X130500000Y-104500000D01*
X134500000Y-104500000D02*
X136500000Y-104500000D01*
D26*
X162960000Y-107800000D02*
X162960000Y-104960000D01*
D27*
X130500000Y-104500000D02*
X126820000Y-104500000D01*
D26*
X168040000Y-100180000D02*
X168040000Y-101960000D01*
X136500000Y-104500000D02*
X135130000Y-103130000D01*
X162960000Y-104960000D02*
X162500000Y-104500000D01*
X167500000Y-102500000D02*
X167500000Y-104500000D01*
X162500000Y-104500000D02*
X136500000Y-104500000D01*
D27*
X132590000Y-107800000D02*
X132590000Y-106590000D01*
X126820000Y-104500000D02*
X122500000Y-100180000D01*
D26*
X160420000Y-107800000D02*
X162960000Y-107800000D01*
X162960000Y-105340000D02*
X162960000Y-107800000D01*
X163800000Y-104500000D02*
X162960000Y-105340000D01*
D27*
X132590000Y-106410000D02*
X134500000Y-104500000D01*
D26*
X135130000Y-103130000D02*
X135130000Y-100180000D01*
D28*
%TO.N,Net-(J7-Pin_2)*%
X155500000Y-117500000D02*
X161500000Y-123500000D01*
D26*
X175410225Y-114589775D02*
X175410225Y-113857500D01*
X170500000Y-121500000D02*
X170500000Y-119500000D01*
D28*
X161500000Y-123500000D02*
X170500000Y-123500000D01*
D26*
X170500000Y-119500000D02*
X175410225Y-114589775D01*
D28*
X170500000Y-123500000D02*
X170500000Y-121500000D01*
D26*
%TO.N,Net-(J7-Pin_3)*%
X165500000Y-93500000D02*
X166500000Y-92500000D01*
X165500000Y-100180000D02*
X165500000Y-93500000D01*
X167180000Y-98500000D02*
X165500000Y-100180000D01*
X170810000Y-98500000D02*
X167180000Y-98500000D01*
X172500000Y-100190000D02*
X170810000Y-98500000D01*
X166500000Y-92500000D02*
X167520000Y-92500000D01*
%TD*%
%TA.AperFunction,Conductor*%
%TO.N,GND*%
G36*
X123308363Y-77020185D02*
G01*
X123329005Y-77036819D01*
X126099500Y-79807314D01*
X126192686Y-79900500D01*
X126306814Y-79966392D01*
X126434108Y-80000500D01*
X126434110Y-80000500D01*
X153565890Y-80000500D01*
X153565892Y-80000500D01*
X153693186Y-79966392D01*
X153807314Y-79900500D01*
X156670995Y-77036819D01*
X156732318Y-77003334D01*
X156758676Y-77000500D01*
X166059318Y-77000500D01*
X166126357Y-77020185D01*
X166172112Y-77072989D01*
X166182056Y-77142147D01*
X166153031Y-77205703D01*
X166132203Y-77224818D01*
X166057350Y-77279201D01*
X166057345Y-77279205D01*
X165879205Y-77457345D01*
X165879201Y-77457350D01*
X165731132Y-77661151D01*
X165616760Y-77885616D01*
X165538910Y-78125214D01*
X165538910Y-78125215D01*
X165499500Y-78374038D01*
X165499500Y-80425962D01*
X165517322Y-80538484D01*
X165538910Y-80674785D01*
X165616760Y-80914383D01*
X165695413Y-81068747D01*
X165712535Y-81102351D01*
X165731132Y-81138848D01*
X165879201Y-81342649D01*
X165879205Y-81342654D01*
X166057345Y-81520794D01*
X166057350Y-81520798D01*
X166170443Y-81602964D01*
X166261155Y-81668870D01*
X166404184Y-81741747D01*
X166485616Y-81783239D01*
X166485618Y-81783239D01*
X166485621Y-81783241D01*
X166725215Y-81861090D01*
X166974038Y-81900500D01*
X166974039Y-81900500D01*
X167225961Y-81900500D01*
X167225962Y-81900500D01*
X167474785Y-81861090D01*
X167714379Y-81783241D01*
X167938845Y-81668870D01*
X168142656Y-81520793D01*
X168320793Y-81342656D01*
X168468870Y-81138845D01*
X168583241Y-80914379D01*
X168661090Y-80674785D01*
X168700500Y-80425962D01*
X168700500Y-78374038D01*
X168661090Y-78125215D01*
X168583241Y-77885621D01*
X168583239Y-77885618D01*
X168583239Y-77885616D01*
X168541747Y-77804184D01*
X168468870Y-77661155D01*
X168393680Y-77557664D01*
X168320798Y-77457350D01*
X168320794Y-77457345D01*
X168142654Y-77279205D01*
X168142649Y-77279201D01*
X168067797Y-77224818D01*
X168025131Y-77169488D01*
X168019152Y-77099875D01*
X168051757Y-77038080D01*
X168112596Y-77003723D01*
X168140682Y-77000500D01*
X180375500Y-77000500D01*
X180442539Y-77020185D01*
X180488294Y-77072989D01*
X180499500Y-77124500D01*
X180499500Y-104430191D01*
X180479815Y-104497230D01*
X180427011Y-104542985D01*
X180357853Y-104552929D01*
X180294297Y-104523904D01*
X180287819Y-104517872D01*
X179264673Y-103494726D01*
X179195249Y-103448339D01*
X179158127Y-103423535D01*
X179158124Y-103423533D01*
X179158123Y-103423533D01*
X179139064Y-103415638D01*
X179084662Y-103371796D01*
X179076033Y-103357370D01*
X179069524Y-103344595D01*
X178953828Y-103185354D01*
X178856155Y-103087681D01*
X178822670Y-103026358D01*
X178827654Y-102956666D01*
X178856155Y-102912319D01*
X178893977Y-102874497D01*
X178953828Y-102814646D01*
X179069524Y-102655405D01*
X179158884Y-102480025D01*
X179219709Y-102292826D01*
X179223621Y-102268127D01*
X179250500Y-102098422D01*
X179250500Y-101901577D01*
X179219709Y-101707173D01*
X179168565Y-101549770D01*
X179158884Y-101519975D01*
X179158882Y-101519972D01*
X179158882Y-101519970D01*
X179084761Y-101374499D01*
X179069524Y-101344595D01*
X179069522Y-101344593D01*
X179067647Y-101340912D01*
X179054751Y-101272243D01*
X179081027Y-101207502D01*
X179105248Y-101184298D01*
X179192652Y-101120796D01*
X179192652Y-101120795D01*
X179192656Y-101120793D01*
X179370793Y-100942656D01*
X179518870Y-100738845D01*
X179633241Y-100514379D01*
X179711090Y-100274785D01*
X179750500Y-100025962D01*
X179750500Y-99774038D01*
X179711090Y-99525215D01*
X179633241Y-99285621D01*
X179633239Y-99285618D01*
X179633239Y-99285616D01*
X179579401Y-99179954D01*
X179518870Y-99061155D01*
X179440481Y-98953261D01*
X179370798Y-98857350D01*
X179370794Y-98857345D01*
X179192654Y-98679205D01*
X179192649Y-98679201D01*
X178988848Y-98531132D01*
X178988847Y-98531131D01*
X178988845Y-98531130D01*
X178893823Y-98482714D01*
X178764383Y-98416760D01*
X178524785Y-98338910D01*
X178275962Y-98299500D01*
X176724038Y-98299500D01*
X176600687Y-98319037D01*
X176475214Y-98338910D01*
X176235616Y-98416760D01*
X176011151Y-98531132D01*
X175807350Y-98679201D01*
X175807345Y-98679205D01*
X175629205Y-98857345D01*
X175629201Y-98857350D01*
X175481132Y-99061151D01*
X175366760Y-99285616D01*
X175288910Y-99525214D01*
X175251820Y-99759388D01*
X175249500Y-99774038D01*
X175249500Y-100025962D01*
X175257789Y-100078294D01*
X175288910Y-100274785D01*
X175366760Y-100514383D01*
X175428981Y-100636497D01*
X175472692Y-100722285D01*
X175481132Y-100738848D01*
X175629201Y-100942649D01*
X175629205Y-100942654D01*
X175807345Y-101120794D01*
X175813382Y-101125180D01*
X175856049Y-101180509D01*
X175862030Y-101250122D01*
X175829425Y-101311918D01*
X175768587Y-101346277D01*
X175740499Y-101349500D01*
X173479049Y-101349500D01*
X173412010Y-101329815D01*
X173366255Y-101277011D01*
X173356311Y-101207853D01*
X173385336Y-101144297D01*
X173391368Y-101137819D01*
X173500045Y-101029141D01*
X173500047Y-101029139D01*
X173630568Y-100842734D01*
X173726739Y-100636496D01*
X173785635Y-100416692D01*
X173805468Y-100190000D01*
X173785635Y-99963308D01*
X173726739Y-99743504D01*
X173630568Y-99537266D01*
X173518086Y-99376623D01*
X173500045Y-99350858D01*
X173339141Y-99189954D01*
X173152734Y-99059432D01*
X173152732Y-99059431D01*
X172946497Y-98963261D01*
X172946488Y-98963258D01*
X172726697Y-98904366D01*
X172726693Y-98904365D01*
X172726692Y-98904365D01*
X172726691Y-98904364D01*
X172726686Y-98904364D01*
X172500002Y-98884532D01*
X172499998Y-98884532D01*
X172273313Y-98904364D01*
X172273299Y-98904367D01*
X172232834Y-98915209D01*
X172162984Y-98913545D01*
X172113061Y-98883115D01*
X171224674Y-97994727D01*
X171224673Y-97994726D01*
X171224669Y-97994723D01*
X171118127Y-97923535D01*
X171118123Y-97923533D01*
X170999742Y-97874498D01*
X170999739Y-97874497D01*
X170994748Y-97873505D01*
X170994742Y-97873504D01*
X170874071Y-97849500D01*
X170874069Y-97849500D01*
X168253344Y-97849500D01*
X168186305Y-97829815D01*
X168140550Y-97777011D01*
X168130606Y-97707853D01*
X168159631Y-97644297D01*
X168182221Y-97623925D01*
X168188701Y-97619388D01*
X168359139Y-97500047D01*
X168520047Y-97339139D01*
X168589037Y-97240610D01*
X168615108Y-97203377D01*
X168669685Y-97159752D01*
X168716683Y-97150500D01*
X173206571Y-97150500D01*
X173296405Y-97132630D01*
X173332244Y-97125501D01*
X173450627Y-97076465D01*
X173453336Y-97074654D01*
X173454272Y-97074030D01*
X173494363Y-97047242D01*
X173557169Y-97005277D01*
X175083127Y-95479317D01*
X175144450Y-95445833D01*
X175170808Y-95442999D01*
X176347871Y-95442999D01*
X176347872Y-95442999D01*
X176407483Y-95436591D01*
X176542331Y-95386296D01*
X176657546Y-95300046D01*
X176743796Y-95184831D01*
X176794091Y-95049983D01*
X176794092Y-95049972D01*
X176795365Y-95044588D01*
X176829933Y-94983869D01*
X176891841Y-94951478D01*
X176961433Y-94957699D01*
X177003725Y-94985412D01*
X177160855Y-95142542D01*
X177160858Y-95142544D01*
X177160861Y-95142547D01*
X177296626Y-95237609D01*
X177340248Y-95292183D01*
X177349500Y-95339182D01*
X177349500Y-96064071D01*
X177370520Y-96169741D01*
X177370520Y-96169742D01*
X177374497Y-96189737D01*
X177374500Y-96189747D01*
X177423532Y-96308123D01*
X177424818Y-96310047D01*
X177494723Y-96414669D01*
X177621372Y-96541318D01*
X177654856Y-96602639D01*
X177657010Y-96616031D01*
X177663503Y-96677803D01*
X177663504Y-96677805D01*
X177663504Y-96677807D01*
X177718747Y-96847829D01*
X177718750Y-96847835D01*
X177808141Y-97002665D01*
X177841112Y-97039283D01*
X177927764Y-97135521D01*
X177927767Y-97135523D01*
X177927770Y-97135526D01*
X178072407Y-97240612D01*
X178235733Y-97313329D01*
X178410609Y-97350500D01*
X178410610Y-97350500D01*
X178589389Y-97350500D01*
X178589391Y-97350500D01*
X178764267Y-97313329D01*
X178927593Y-97240612D01*
X179072230Y-97135526D01*
X179081258Y-97125500D01*
X179098855Y-97105956D01*
X179191859Y-97002665D01*
X179281250Y-96847835D01*
X179336497Y-96677803D01*
X179355185Y-96500000D01*
X179336497Y-96322197D01*
X179293458Y-96189737D01*
X179281252Y-96152170D01*
X179281249Y-96152164D01*
X179279503Y-96149139D01*
X179191859Y-95997335D01*
X179145003Y-95945296D01*
X179072235Y-95864478D01*
X179072232Y-95864476D01*
X179072231Y-95864475D01*
X179072230Y-95864474D01*
X178927593Y-95759388D01*
X178764267Y-95686671D01*
X178764265Y-95686670D01*
X178764264Y-95686670D01*
X178764263Y-95686669D01*
X178748714Y-95683364D01*
X178687233Y-95650169D01*
X178653460Y-95589005D01*
X178650500Y-95562075D01*
X178650500Y-95339182D01*
X178670185Y-95272143D01*
X178703371Y-95237611D01*
X178839139Y-95142547D01*
X179000047Y-94981639D01*
X179130568Y-94795234D01*
X179226739Y-94588996D01*
X179285635Y-94369192D01*
X179305468Y-94142500D01*
X179285635Y-93915808D01*
X179226739Y-93696004D01*
X179130568Y-93489766D01*
X179000047Y-93303361D01*
X179000045Y-93303358D01*
X178839141Y-93142454D01*
X178652734Y-93011932D01*
X178652732Y-93011931D01*
X178446497Y-92915761D01*
X178446488Y-92915758D01*
X178226697Y-92856866D01*
X178226693Y-92856865D01*
X178226692Y-92856865D01*
X178226691Y-92856864D01*
X178226686Y-92856864D01*
X178000002Y-92837032D01*
X177999998Y-92837032D01*
X177773313Y-92856864D01*
X177773302Y-92856866D01*
X177553511Y-92915758D01*
X177553502Y-92915762D01*
X177476905Y-92951480D01*
X177407827Y-92961972D01*
X177344043Y-92933452D01*
X177305804Y-92874976D01*
X177300500Y-92839098D01*
X177300500Y-92585928D01*
X177275502Y-92460261D01*
X177275501Y-92460260D01*
X177275501Y-92460256D01*
X177243034Y-92381873D01*
X177226466Y-92341874D01*
X177180655Y-92273313D01*
X177155278Y-92235332D01*
X177155272Y-92235325D01*
X174004960Y-89085014D01*
X173971475Y-89023691D01*
X173976459Y-88953999D01*
X174018331Y-88898066D01*
X174023723Y-88894249D01*
X174029669Y-88890277D01*
X174905277Y-88014669D01*
X174976466Y-87908126D01*
X175017717Y-87808535D01*
X175025501Y-87789744D01*
X175045342Y-87690000D01*
X175050500Y-87664071D01*
X175050500Y-80624499D01*
X175070185Y-80557460D01*
X175122989Y-80511705D01*
X175174500Y-80500499D01*
X176447871Y-80500499D01*
X176447872Y-80500499D01*
X176507483Y-80494091D01*
X176642331Y-80443796D01*
X176757546Y-80357546D01*
X176843796Y-80242331D01*
X176894091Y-80107483D01*
X176900500Y-80047873D01*
X176900499Y-77752128D01*
X176894091Y-77692517D01*
X176882392Y-77661151D01*
X176843797Y-77557671D01*
X176843793Y-77557664D01*
X176757547Y-77442455D01*
X176757544Y-77442452D01*
X176642335Y-77356206D01*
X176642328Y-77356202D01*
X176507482Y-77305908D01*
X176507483Y-77305908D01*
X176447883Y-77299501D01*
X176447881Y-77299500D01*
X176447873Y-77299500D01*
X176447864Y-77299500D01*
X172352129Y-77299500D01*
X172352123Y-77299501D01*
X172292516Y-77305908D01*
X172157671Y-77356202D01*
X172157664Y-77356206D01*
X172042455Y-77442452D01*
X172042452Y-77442455D01*
X171956206Y-77557664D01*
X171956202Y-77557671D01*
X171905908Y-77692517D01*
X171899501Y-77752116D01*
X171899501Y-77752123D01*
X171899500Y-77752135D01*
X171899500Y-80047870D01*
X171899501Y-80047876D01*
X171905908Y-80107483D01*
X171956202Y-80242328D01*
X171956206Y-80242335D01*
X172042452Y-80357544D01*
X172042455Y-80357547D01*
X172157664Y-80443793D01*
X172157671Y-80443797D01*
X172292517Y-80494091D01*
X172292516Y-80494091D01*
X172299444Y-80494835D01*
X172352127Y-80500500D01*
X173625500Y-80500499D01*
X173692539Y-80520184D01*
X173738294Y-80572987D01*
X173749500Y-80624499D01*
X173749500Y-84786689D01*
X173729815Y-84853728D01*
X173677011Y-84899483D01*
X173607853Y-84909427D01*
X173544297Y-84880402D01*
X173537819Y-84874370D01*
X173442654Y-84779205D01*
X173442649Y-84779201D01*
X173238848Y-84631132D01*
X173238847Y-84631131D01*
X173238845Y-84631130D01*
X173168144Y-84595106D01*
X173014383Y-84516760D01*
X172774785Y-84438910D01*
X172525962Y-84399500D01*
X170474038Y-84399500D01*
X170349626Y-84419205D01*
X170225214Y-84438910D01*
X169985616Y-84516760D01*
X169761151Y-84631132D01*
X169557350Y-84779201D01*
X169557345Y-84779205D01*
X169379205Y-84957345D01*
X169379201Y-84957350D01*
X169231132Y-85161151D01*
X169116760Y-85385616D01*
X169100413Y-85435928D01*
X169038910Y-85625215D01*
X168999500Y-85874038D01*
X168999500Y-86125962D01*
X169008920Y-86185439D01*
X169038910Y-86374785D01*
X169116760Y-86614383D01*
X169177264Y-86733127D01*
X169208734Y-86794891D01*
X169231132Y-86838848D01*
X169286453Y-86914992D01*
X169309933Y-86980798D01*
X169294107Y-87048852D01*
X169244001Y-87097547D01*
X169205533Y-87110350D01*
X169025214Y-87138909D01*
X168785616Y-87216760D01*
X168561151Y-87331132D01*
X168357350Y-87479201D01*
X168357345Y-87479205D01*
X168179205Y-87657345D01*
X168179201Y-87657350D01*
X168031132Y-87861151D01*
X167916760Y-88085616D01*
X167838910Y-88325214D01*
X167799500Y-88574038D01*
X167799500Y-88825961D01*
X167838910Y-89074785D01*
X167916760Y-89314383D01*
X168031132Y-89538848D01*
X168179201Y-89742649D01*
X168179205Y-89742654D01*
X168357345Y-89920794D01*
X168357350Y-89920798D01*
X168535117Y-90049952D01*
X168561155Y-90068870D01*
X168672298Y-90125500D01*
X168785616Y-90183239D01*
X168785618Y-90183239D01*
X168785621Y-90183241D01*
X169025215Y-90261090D01*
X169274038Y-90300500D01*
X169274039Y-90300500D01*
X171325961Y-90300500D01*
X171325962Y-90300500D01*
X171574785Y-90261090D01*
X171814379Y-90183241D01*
X172038845Y-90068870D01*
X172242656Y-89920793D01*
X172420793Y-89742656D01*
X172504586Y-89627324D01*
X172559914Y-89584660D01*
X172629527Y-89578681D01*
X172691323Y-89611286D01*
X172692584Y-89612530D01*
X175710373Y-92630319D01*
X175743858Y-92691642D01*
X175738874Y-92761334D01*
X175697002Y-92817267D01*
X175631538Y-92841684D01*
X175622692Y-92842000D01*
X174652129Y-92842000D01*
X174652123Y-92842001D01*
X174592516Y-92848408D01*
X174457671Y-92898702D01*
X174457664Y-92898706D01*
X174342455Y-92984952D01*
X174342452Y-92984955D01*
X174256206Y-93100164D01*
X174256202Y-93100171D01*
X174205908Y-93235017D01*
X174199501Y-93294616D01*
X174199500Y-93294635D01*
X174199500Y-94471691D01*
X174179815Y-94538730D01*
X174163181Y-94559372D01*
X172909373Y-95813181D01*
X172848050Y-95846666D01*
X172821692Y-95849500D01*
X168716683Y-95849500D01*
X168649644Y-95829815D01*
X168615108Y-95796623D01*
X168520045Y-95660858D01*
X168359141Y-95499954D01*
X168172734Y-95369432D01*
X168172732Y-95369431D01*
X167966497Y-95273261D01*
X167966488Y-95273258D01*
X167746697Y-95214366D01*
X167746693Y-95214365D01*
X167746692Y-95214365D01*
X167746691Y-95214364D01*
X167746686Y-95214364D01*
X167520002Y-95194532D01*
X167519998Y-95194532D01*
X167293313Y-95214364D01*
X167293302Y-95214366D01*
X167073511Y-95273258D01*
X167073502Y-95273261D01*
X166867267Y-95369431D01*
X166867265Y-95369432D01*
X166680858Y-95499954D01*
X166519954Y-95660858D01*
X166389432Y-95847265D01*
X166389431Y-95847267D01*
X166386882Y-95852735D01*
X166340709Y-95905174D01*
X166273516Y-95924326D01*
X166206635Y-95904110D01*
X166161300Y-95850944D01*
X166150500Y-95800330D01*
X166150500Y-93820808D01*
X166170185Y-93753769D01*
X166186819Y-93733127D01*
X166324139Y-93595807D01*
X166462700Y-93457245D01*
X166524021Y-93423762D01*
X166593712Y-93428746D01*
X166638060Y-93457247D01*
X166680858Y-93500045D01*
X166680861Y-93500047D01*
X166867266Y-93630568D01*
X167073504Y-93726739D01*
X167293308Y-93785635D01*
X167455230Y-93799801D01*
X167519998Y-93805468D01*
X167520000Y-93805468D01*
X167520002Y-93805468D01*
X167576673Y-93800509D01*
X167746692Y-93785635D01*
X167966496Y-93726739D01*
X168172734Y-93630568D01*
X168359139Y-93500047D01*
X168520047Y-93339139D01*
X168650568Y-93152734D01*
X168746739Y-92946496D01*
X168805635Y-92726692D01*
X168825468Y-92500000D01*
X168805635Y-92273308D01*
X168746739Y-92053504D01*
X168650568Y-91847266D01*
X168520047Y-91660861D01*
X168520045Y-91660858D01*
X168359141Y-91499954D01*
X168172734Y-91369432D01*
X168172732Y-91369431D01*
X167966497Y-91273261D01*
X167966488Y-91273258D01*
X167746697Y-91214366D01*
X167746693Y-91214365D01*
X167746692Y-91214365D01*
X167746691Y-91214364D01*
X167746686Y-91214364D01*
X167520002Y-91194532D01*
X167519998Y-91194532D01*
X167293313Y-91214364D01*
X167293302Y-91214366D01*
X167073511Y-91273258D01*
X167073502Y-91273261D01*
X166867267Y-91369431D01*
X166867265Y-91369432D01*
X166680858Y-91499954D01*
X166519953Y-91660859D01*
X166408645Y-91819825D01*
X166354068Y-91863450D01*
X166331266Y-91870318D01*
X166310265Y-91874496D01*
X166310253Y-91874499D01*
X166261220Y-91894810D01*
X166191881Y-91923530D01*
X166191863Y-91923540D01*
X166085332Y-91994721D01*
X166085325Y-91994727D01*
X164994726Y-93085326D01*
X164923534Y-93191874D01*
X164874499Y-93310255D01*
X164874497Y-93310261D01*
X164849500Y-93435928D01*
X164849500Y-98983316D01*
X164829815Y-99050355D01*
X164796623Y-99084891D01*
X164660859Y-99179953D01*
X164499954Y-99340858D01*
X164369432Y-99527265D01*
X164369431Y-99527267D01*
X164342382Y-99585275D01*
X164296209Y-99637714D01*
X164229016Y-99656866D01*
X164162135Y-99636650D01*
X164117618Y-99585275D01*
X164113337Y-99576095D01*
X164090568Y-99527266D01*
X163985088Y-99376623D01*
X163960045Y-99340858D01*
X163799140Y-99179953D01*
X163663377Y-99084891D01*
X163619752Y-99030314D01*
X163610500Y-98983316D01*
X163610500Y-97895928D01*
X163585502Y-97770261D01*
X163585501Y-97770260D01*
X163585501Y-97770256D01*
X163536465Y-97651873D01*
X163465277Y-97545331D01*
X163465275Y-97545329D01*
X163465273Y-97545326D01*
X161914673Y-95994726D01*
X161892911Y-95980185D01*
X161808127Y-95923535D01*
X161801053Y-95920605D01*
X161689744Y-95874499D01*
X161689738Y-95874497D01*
X161564071Y-95849500D01*
X161564069Y-95849500D01*
X161096683Y-95849500D01*
X161029644Y-95829815D01*
X160995108Y-95796623D01*
X160900045Y-95660858D01*
X160739140Y-95499953D01*
X160603377Y-95404891D01*
X160559752Y-95350314D01*
X160550500Y-95303316D01*
X160550500Y-93696682D01*
X160570185Y-93629643D01*
X160603371Y-93595111D01*
X160739139Y-93500047D01*
X160900047Y-93339139D01*
X161030568Y-93152734D01*
X161126739Y-92946496D01*
X161185635Y-92726692D01*
X161205468Y-92500000D01*
X161185635Y-92273308D01*
X161126739Y-92053504D01*
X161030568Y-91847266D01*
X160900047Y-91660861D01*
X160900045Y-91660858D01*
X160739141Y-91499954D01*
X160552734Y-91369432D01*
X160552732Y-91369431D01*
X160346497Y-91273261D01*
X160346488Y-91273258D01*
X160126697Y-91214366D01*
X160126693Y-91214365D01*
X160126692Y-91214365D01*
X160126691Y-91214364D01*
X160126686Y-91214364D01*
X159900002Y-91194532D01*
X159899998Y-91194532D01*
X159673313Y-91214364D01*
X159673302Y-91214366D01*
X159453511Y-91273258D01*
X159453502Y-91273261D01*
X159247267Y-91369431D01*
X159247265Y-91369432D01*
X159060858Y-91499954D01*
X158899954Y-91660858D01*
X158769432Y-91847265D01*
X158769431Y-91847267D01*
X158673261Y-92053502D01*
X158673258Y-92053511D01*
X158614366Y-92273302D01*
X158614364Y-92273313D01*
X158594532Y-92499998D01*
X158594532Y-92500001D01*
X158614364Y-92726686D01*
X158614366Y-92726697D01*
X158673258Y-92946488D01*
X158673261Y-92946497D01*
X158769431Y-93152732D01*
X158769432Y-93152734D01*
X158899954Y-93339141D01*
X159060855Y-93500042D01*
X159060858Y-93500044D01*
X159060861Y-93500047D01*
X159196626Y-93595109D01*
X159240248Y-93649683D01*
X159249500Y-93696682D01*
X159249500Y-95303316D01*
X159229815Y-95370355D01*
X159196623Y-95404891D01*
X159060859Y-95499953D01*
X158899954Y-95660858D01*
X158769432Y-95847265D01*
X158769431Y-95847267D01*
X158673261Y-96053502D01*
X158673258Y-96053511D01*
X158614366Y-96273302D01*
X158614364Y-96273313D01*
X158594532Y-96499998D01*
X158594532Y-96500001D01*
X158614260Y-96725500D01*
X158614365Y-96726692D01*
X158627848Y-96777011D01*
X158673258Y-96946488D01*
X158673261Y-96946497D01*
X158769431Y-97152732D01*
X158769432Y-97152734D01*
X158899954Y-97339141D01*
X159060858Y-97500045D01*
X159077229Y-97511508D01*
X159247266Y-97630568D01*
X159453504Y-97726739D01*
X159453509Y-97726740D01*
X159453511Y-97726741D01*
X159487126Y-97735748D01*
X159673308Y-97785635D01*
X159835230Y-97799801D01*
X159899998Y-97805468D01*
X159900000Y-97805468D01*
X159900002Y-97805468D01*
X159956673Y-97800509D01*
X160126692Y-97785635D01*
X160346496Y-97726739D01*
X160552734Y-97630568D01*
X160739139Y-97500047D01*
X160900047Y-97339139D01*
X160969037Y-97240610D01*
X160995108Y-97203377D01*
X161049685Y-97159752D01*
X161096683Y-97150500D01*
X161179192Y-97150500D01*
X161246231Y-97170185D01*
X161266873Y-97186819D01*
X162273181Y-98193127D01*
X162306666Y-98254450D01*
X162309500Y-98280808D01*
X162309500Y-98983316D01*
X162289815Y-99050355D01*
X162256623Y-99084891D01*
X162120859Y-99179953D01*
X161959954Y-99340858D01*
X161829432Y-99527265D01*
X161829431Y-99527267D01*
X161802382Y-99585275D01*
X161756209Y-99637714D01*
X161689016Y-99656866D01*
X161622135Y-99636650D01*
X161577618Y-99585275D01*
X161573337Y-99576095D01*
X161550568Y-99527266D01*
X161445088Y-99376623D01*
X161420045Y-99340858D01*
X161259141Y-99179954D01*
X161072734Y-99049432D01*
X161072732Y-99049431D01*
X160866497Y-98953261D01*
X160866488Y-98953258D01*
X160646697Y-98894366D01*
X160646693Y-98894365D01*
X160646692Y-98894365D01*
X160646691Y-98894364D01*
X160646686Y-98894364D01*
X160420002Y-98874532D01*
X160419998Y-98874532D01*
X160193313Y-98894364D01*
X160193302Y-98894366D01*
X159973511Y-98953258D01*
X159973502Y-98953261D01*
X159767267Y-99049431D01*
X159767265Y-99049432D01*
X159580858Y-99179954D01*
X159419954Y-99340858D01*
X159289432Y-99527265D01*
X159289431Y-99527267D01*
X159193261Y-99733502D01*
X159193258Y-99733511D01*
X159134366Y-99953302D01*
X159134364Y-99953313D01*
X159114532Y-100179998D01*
X159114532Y-100180001D01*
X159134364Y-100406686D01*
X159134366Y-100406697D01*
X159193258Y-100626488D01*
X159193261Y-100626497D01*
X159289431Y-100832732D01*
X159289432Y-100832734D01*
X159419954Y-101019141D01*
X159580858Y-101180045D01*
X159580861Y-101180047D01*
X159767266Y-101310568D01*
X159973504Y-101406739D01*
X160193308Y-101465635D01*
X160355230Y-101479801D01*
X160419998Y-101485468D01*
X160420000Y-101485468D01*
X160420002Y-101485468D01*
X160476673Y-101480509D01*
X160646692Y-101465635D01*
X160866496Y-101406739D01*
X161072734Y-101310568D01*
X161259139Y-101180047D01*
X161420047Y-101019139D01*
X161550568Y-100832734D01*
X161577618Y-100774724D01*
X161623790Y-100722285D01*
X161690983Y-100703133D01*
X161757865Y-100723348D01*
X161802381Y-100774724D01*
X161816517Y-100805038D01*
X161829429Y-100832728D01*
X161829432Y-100832734D01*
X161959954Y-101019141D01*
X162120858Y-101180045D01*
X162120861Y-101180047D01*
X162307266Y-101310568D01*
X162513504Y-101406739D01*
X162733308Y-101465635D01*
X162895230Y-101479801D01*
X162959998Y-101485468D01*
X162960000Y-101485468D01*
X162960002Y-101485468D01*
X163016673Y-101480509D01*
X163186692Y-101465635D01*
X163406496Y-101406739D01*
X163612734Y-101310568D01*
X163799139Y-101180047D01*
X163960047Y-101019139D01*
X164090568Y-100832734D01*
X164117618Y-100774724D01*
X164163790Y-100722285D01*
X164230983Y-100703133D01*
X164297865Y-100723348D01*
X164342381Y-100774724D01*
X164356517Y-100805038D01*
X164369429Y-100832728D01*
X164369432Y-100832734D01*
X164499954Y-101019141D01*
X164660858Y-101180045D01*
X164660861Y-101180047D01*
X164847266Y-101310568D01*
X165053504Y-101406739D01*
X165273308Y-101465635D01*
X165435230Y-101479801D01*
X165499998Y-101485468D01*
X165500000Y-101485468D01*
X165500002Y-101485468D01*
X165556673Y-101480509D01*
X165726692Y-101465635D01*
X165946496Y-101406739D01*
X166152734Y-101310568D01*
X166339139Y-101180047D01*
X166500047Y-101019139D01*
X166630568Y-100832734D01*
X166657618Y-100774724D01*
X166703790Y-100722285D01*
X166770983Y-100703133D01*
X166837865Y-100723348D01*
X166882381Y-100774724D01*
X166896517Y-100805038D01*
X166909429Y-100832728D01*
X166909432Y-100832734D01*
X167039954Y-101019141D01*
X167200855Y-101180042D01*
X167200858Y-101180044D01*
X167200861Y-101180047D01*
X167336626Y-101275109D01*
X167380248Y-101329683D01*
X167389500Y-101376682D01*
X167389500Y-101639191D01*
X167369815Y-101706230D01*
X167353181Y-101726873D01*
X167230143Y-101849910D01*
X167168820Y-101883394D01*
X167099128Y-101878410D01*
X167069576Y-101862546D01*
X166927593Y-101759388D01*
X166764267Y-101686671D01*
X166764265Y-101686670D01*
X166636594Y-101659533D01*
X166589391Y-101649500D01*
X166410609Y-101649500D01*
X166379954Y-101656015D01*
X166235733Y-101686670D01*
X166235728Y-101686672D01*
X166072408Y-101759388D01*
X166072403Y-101759390D01*
X165980974Y-101825818D01*
X165915168Y-101849298D01*
X165908089Y-101849500D01*
X143820807Y-101849500D01*
X143753768Y-101829815D01*
X143733126Y-101813181D01*
X143377106Y-101457160D01*
X143343621Y-101395837D01*
X143348605Y-101326145D01*
X143390477Y-101270212D01*
X143393621Y-101267934D01*
X143519139Y-101180047D01*
X143680047Y-101019139D01*
X143810568Y-100832734D01*
X143837618Y-100774724D01*
X143883790Y-100722285D01*
X143950983Y-100703133D01*
X144017865Y-100723348D01*
X144062381Y-100774724D01*
X144076517Y-100805038D01*
X144089429Y-100832728D01*
X144089432Y-100832734D01*
X144219954Y-101019141D01*
X144380858Y-101180045D01*
X144380861Y-101180047D01*
X144567266Y-101310568D01*
X144773504Y-101406739D01*
X144993308Y-101465635D01*
X145155230Y-101479801D01*
X145219998Y-101485468D01*
X145220000Y-101485468D01*
X145220002Y-101485468D01*
X145276673Y-101480509D01*
X145446692Y-101465635D01*
X145666496Y-101406739D01*
X145872734Y-101310568D01*
X146059139Y-101180047D01*
X146220047Y-101019139D01*
X146350568Y-100832734D01*
X146446739Y-100626496D01*
X146505635Y-100406692D01*
X146525468Y-100180000D01*
X146505635Y-99953308D01*
X146449420Y-99743511D01*
X146446741Y-99733511D01*
X146446738Y-99733502D01*
X146411002Y-99656866D01*
X146350568Y-99527266D01*
X146245088Y-99376623D01*
X146223382Y-99345623D01*
X146201055Y-99279416D01*
X146218066Y-99211649D01*
X146269014Y-99163837D01*
X146324957Y-99150500D01*
X148299192Y-99150500D01*
X148366231Y-99170185D01*
X148386873Y-99186819D01*
X148993115Y-99793061D01*
X149026600Y-99854384D01*
X149025209Y-99912834D01*
X149014367Y-99953299D01*
X149014364Y-99953313D01*
X148994532Y-100179998D01*
X148994532Y-100180001D01*
X149014364Y-100406686D01*
X149014366Y-100406697D01*
X149073258Y-100626488D01*
X149073261Y-100626497D01*
X149169431Y-100832732D01*
X149169432Y-100832734D01*
X149299954Y-101019141D01*
X149460858Y-101180045D01*
X149460861Y-101180047D01*
X149647266Y-101310568D01*
X149853504Y-101406739D01*
X150073308Y-101465635D01*
X150235230Y-101479801D01*
X150299998Y-101485468D01*
X150300000Y-101485468D01*
X150300002Y-101485468D01*
X150356673Y-101480509D01*
X150526692Y-101465635D01*
X150746496Y-101406739D01*
X150952734Y-101310568D01*
X151139139Y-101180047D01*
X151300047Y-101019139D01*
X151430568Y-100832734D01*
X151457618Y-100774724D01*
X151503790Y-100722285D01*
X151570983Y-100703133D01*
X151637865Y-100723348D01*
X151682381Y-100774724D01*
X151696517Y-100805038D01*
X151709429Y-100832728D01*
X151709432Y-100832734D01*
X151839954Y-101019141D01*
X152000858Y-101180045D01*
X152000861Y-101180047D01*
X152187266Y-101310568D01*
X152393504Y-101406739D01*
X152613308Y-101465635D01*
X152775230Y-101479801D01*
X152839998Y-101485468D01*
X152840000Y-101485468D01*
X152840002Y-101485468D01*
X152896673Y-101480509D01*
X153066692Y-101465635D01*
X153286496Y-101406739D01*
X153492734Y-101310568D01*
X153679139Y-101180047D01*
X153840047Y-101019139D01*
X153935108Y-100883377D01*
X153989685Y-100839752D01*
X154036683Y-100830500D01*
X154183317Y-100830500D01*
X154250356Y-100850185D01*
X154284892Y-100883377D01*
X154379954Y-101019141D01*
X154540858Y-101180045D01*
X154540861Y-101180047D01*
X154727266Y-101310568D01*
X154933504Y-101406739D01*
X155153308Y-101465635D01*
X155315230Y-101479801D01*
X155379998Y-101485468D01*
X155380000Y-101485468D01*
X155380002Y-101485468D01*
X155436673Y-101480509D01*
X155606692Y-101465635D01*
X155826496Y-101406739D01*
X156032734Y-101310568D01*
X156219139Y-101180047D01*
X156380047Y-101019139D01*
X156510568Y-100832734D01*
X156606739Y-100626496D01*
X156665635Y-100406692D01*
X156685468Y-100180000D01*
X156665635Y-99953308D01*
X156609420Y-99743511D01*
X156606741Y-99733511D01*
X156606738Y-99733502D01*
X156571002Y-99656866D01*
X156510568Y-99527266D01*
X156405088Y-99376623D01*
X156380045Y-99340858D01*
X156219141Y-99179954D01*
X156032734Y-99049432D01*
X156032732Y-99049431D01*
X155826497Y-98953261D01*
X155826488Y-98953258D01*
X155606697Y-98894366D01*
X155606693Y-98894365D01*
X155606692Y-98894365D01*
X155606691Y-98894364D01*
X155606686Y-98894364D01*
X155380002Y-98874532D01*
X155379998Y-98874532D01*
X155153313Y-98894364D01*
X155153302Y-98894366D01*
X154933511Y-98953258D01*
X154933502Y-98953261D01*
X154727267Y-99049431D01*
X154727265Y-99049432D01*
X154540858Y-99179954D01*
X154379954Y-99340858D01*
X154284892Y-99476623D01*
X154230315Y-99520248D01*
X154183317Y-99529500D01*
X154036683Y-99529500D01*
X153969644Y-99509815D01*
X153935108Y-99476623D01*
X153840045Y-99340858D01*
X153679140Y-99179953D01*
X153543377Y-99084891D01*
X153499752Y-99030314D01*
X153490500Y-98983316D01*
X153490500Y-98775928D01*
X153465502Y-98650261D01*
X153465501Y-98650260D01*
X153465501Y-98650256D01*
X153423714Y-98549373D01*
X153416466Y-98531874D01*
X153415969Y-98531130D01*
X153345278Y-98425332D01*
X153345272Y-98425325D01*
X152914673Y-97994726D01*
X152914669Y-97994723D01*
X152808127Y-97923535D01*
X152808123Y-97923533D01*
X152689742Y-97874498D01*
X152689739Y-97874497D01*
X152684748Y-97873505D01*
X152684742Y-97873504D01*
X152564071Y-97849500D01*
X152564069Y-97849500D01*
X151820808Y-97849500D01*
X151753769Y-97829815D01*
X151733127Y-97813181D01*
X150914674Y-96994727D01*
X150914673Y-96994726D01*
X150914669Y-96994723D01*
X150808127Y-96923535D01*
X150803390Y-96921573D01*
X150689744Y-96874499D01*
X150689738Y-96874497D01*
X150564071Y-96849500D01*
X150564069Y-96849500D01*
X148665067Y-96849500D01*
X148598028Y-96829815D01*
X148552273Y-96777011D01*
X148542329Y-96707853D01*
X148571354Y-96644297D01*
X148630132Y-96606523D01*
X148654260Y-96601972D01*
X148656241Y-96601798D01*
X148726692Y-96595635D01*
X148946496Y-96536739D01*
X149152734Y-96440568D01*
X149339139Y-96310047D01*
X149500047Y-96149139D01*
X149630568Y-95962734D01*
X149726739Y-95756496D01*
X149785635Y-95536692D01*
X149804705Y-95318721D01*
X149805468Y-95310001D01*
X149805468Y-95309999D01*
X149792709Y-95164170D01*
X149806475Y-95095670D01*
X149847345Y-95050260D01*
X149914669Y-95005277D01*
X152005276Y-92914669D01*
X152076465Y-92808127D01*
X152125501Y-92689744D01*
X152128677Y-92673776D01*
X152133506Y-92649502D01*
X152133506Y-92649499D01*
X152150500Y-92564069D01*
X152150500Y-86435931D01*
X152150500Y-86435928D01*
X152125502Y-86310261D01*
X152125501Y-86310260D01*
X152125501Y-86310256D01*
X152090293Y-86225256D01*
X152076466Y-86191874D01*
X152073088Y-86186819D01*
X152005278Y-86085332D01*
X152005272Y-86085325D01*
X150914673Y-84994726D01*
X150914669Y-84994723D01*
X150808127Y-84923535D01*
X150774067Y-84909427D01*
X150689744Y-84874499D01*
X150689738Y-84874497D01*
X150564071Y-84849500D01*
X150564069Y-84849500D01*
X146435931Y-84849500D01*
X146435929Y-84849500D01*
X146310261Y-84874497D01*
X146310255Y-84874499D01*
X146191874Y-84923534D01*
X146191858Y-84923543D01*
X146085332Y-84994721D01*
X146085325Y-84994727D01*
X144909724Y-86170329D01*
X144895329Y-86191874D01*
X144838534Y-86276874D01*
X144789499Y-86395255D01*
X144789497Y-86395261D01*
X144764500Y-86520928D01*
X144764500Y-86693316D01*
X144744815Y-86760355D01*
X144711623Y-86794891D01*
X144575859Y-86889953D01*
X144414954Y-87050858D01*
X144289346Y-87230248D01*
X144284432Y-87237266D01*
X144277380Y-87252387D01*
X144231209Y-87304825D01*
X144164015Y-87323976D01*
X144097134Y-87303760D01*
X144052619Y-87252387D01*
X144045568Y-87237266D01*
X143915047Y-87050861D01*
X143915045Y-87050858D01*
X143754141Y-86889954D01*
X143567734Y-86759432D01*
X143567732Y-86759431D01*
X143361497Y-86663261D01*
X143361488Y-86663258D01*
X143141697Y-86604366D01*
X143141693Y-86604365D01*
X143141692Y-86604365D01*
X143141691Y-86604364D01*
X143141686Y-86604364D01*
X142915002Y-86584532D01*
X142914998Y-86584532D01*
X142688313Y-86604364D01*
X142688302Y-86604366D01*
X142468511Y-86663258D01*
X142468502Y-86663261D01*
X142262267Y-86759431D01*
X142262265Y-86759432D01*
X142075858Y-86889954D01*
X141914954Y-87050858D01*
X141784432Y-87237265D01*
X141784431Y-87237267D01*
X141688261Y-87443502D01*
X141688258Y-87443511D01*
X141629366Y-87663302D01*
X141629364Y-87663313D01*
X141609532Y-87889998D01*
X141609532Y-87890001D01*
X141629364Y-88116686D01*
X141629366Y-88116697D01*
X141688258Y-88336488D01*
X141688261Y-88336497D01*
X141784431Y-88542732D01*
X141784432Y-88542734D01*
X141914954Y-88729141D01*
X142075858Y-88890045D01*
X142075861Y-88890047D01*
X142262266Y-89020568D01*
X142468504Y-89116739D01*
X142688308Y-89175635D01*
X142850230Y-89189801D01*
X142914998Y-89195468D01*
X142915000Y-89195468D01*
X142915002Y-89195468D01*
X142971673Y-89190509D01*
X143141692Y-89175635D01*
X143361496Y-89116739D01*
X143567734Y-89020568D01*
X143754139Y-88890047D01*
X143915047Y-88729139D01*
X144045568Y-88542734D01*
X144052618Y-88527614D01*
X144098789Y-88475176D01*
X144165982Y-88456023D01*
X144232864Y-88476238D01*
X144277381Y-88527614D01*
X144284432Y-88542733D01*
X144284432Y-88542734D01*
X144414954Y-88729141D01*
X144575858Y-88890045D01*
X144575861Y-88890047D01*
X144762266Y-89020568D01*
X144968504Y-89116739D01*
X145188308Y-89175635D01*
X145350230Y-89189801D01*
X145414998Y-89195468D01*
X145415000Y-89195468D01*
X145415002Y-89195468D01*
X145471673Y-89190509D01*
X145641692Y-89175635D01*
X145813124Y-89129700D01*
X145882971Y-89131363D01*
X145940834Y-89170525D01*
X145968338Y-89234754D01*
X145956752Y-89303656D01*
X145932896Y-89337156D01*
X142409724Y-92860328D01*
X142367491Y-92923536D01*
X142338535Y-92966872D01*
X142289499Y-93085255D01*
X142289497Y-93085261D01*
X142264500Y-93210928D01*
X142264500Y-93913316D01*
X142244815Y-93980355D01*
X142211623Y-94014891D01*
X142075859Y-94109953D01*
X141914954Y-94270858D01*
X141784432Y-94457265D01*
X141784431Y-94457267D01*
X141688261Y-94663502D01*
X141688258Y-94663511D01*
X141629366Y-94883302D01*
X141629364Y-94883313D01*
X141609532Y-95109998D01*
X141609532Y-95110001D01*
X141629364Y-95336686D01*
X141629366Y-95336697D01*
X141688258Y-95556488D01*
X141688261Y-95556497D01*
X141784431Y-95762732D01*
X141784432Y-95762734D01*
X141914954Y-95949141D01*
X142075858Y-96110045D01*
X142075861Y-96110047D01*
X142262266Y-96240568D01*
X142468504Y-96336739D01*
X142688308Y-96395635D01*
X142850230Y-96409801D01*
X142914998Y-96415468D01*
X142915000Y-96415468D01*
X142915002Y-96415468D01*
X142974585Y-96410255D01*
X143141692Y-96395635D01*
X143361496Y-96336739D01*
X143567734Y-96240568D01*
X143754139Y-96110047D01*
X143915047Y-95949139D01*
X144045568Y-95762734D01*
X144141739Y-95556496D01*
X144200635Y-95336692D01*
X144220468Y-95110000D01*
X144217321Y-95074035D01*
X144211306Y-95005277D01*
X144200635Y-94883308D01*
X144148691Y-94689450D01*
X144141741Y-94663511D01*
X144141738Y-94663502D01*
X144130939Y-94640344D01*
X144045568Y-94457266D01*
X143915047Y-94270861D01*
X143915045Y-94270858D01*
X143754140Y-94109953D01*
X143618377Y-94014891D01*
X143574752Y-93960314D01*
X143565500Y-93913316D01*
X143565500Y-93595807D01*
X143585185Y-93528768D01*
X143601814Y-93508131D01*
X148113062Y-88996882D01*
X148174383Y-88963399D01*
X148232834Y-88964790D01*
X148273308Y-88975635D01*
X148435230Y-88989801D01*
X148499998Y-88995468D01*
X148500000Y-88995468D01*
X148500002Y-88995468D01*
X148556673Y-88990509D01*
X148726692Y-88975635D01*
X148946496Y-88916739D01*
X149152734Y-88820568D01*
X149339139Y-88690047D01*
X149500047Y-88529139D01*
X149630568Y-88342734D01*
X149726739Y-88136496D01*
X149785635Y-87916692D01*
X149805468Y-87690000D01*
X149802611Y-87657350D01*
X149787379Y-87483241D01*
X149785635Y-87463308D01*
X149726739Y-87243504D01*
X149630568Y-87037266D01*
X149500047Y-86850861D01*
X149500045Y-86850858D01*
X149339141Y-86689954D01*
X149152734Y-86559432D01*
X149152732Y-86559431D01*
X148946497Y-86463261D01*
X148946488Y-86463258D01*
X148726697Y-86404366D01*
X148726693Y-86404365D01*
X148726692Y-86404365D01*
X148726691Y-86404364D01*
X148726686Y-86404364D01*
X148654260Y-86398028D01*
X148589191Y-86372576D01*
X148548212Y-86315985D01*
X148544334Y-86246223D01*
X148578788Y-86185439D01*
X148640635Y-86152931D01*
X148665067Y-86150500D01*
X150179192Y-86150500D01*
X150246231Y-86170185D01*
X150266873Y-86186819D01*
X150813181Y-86733127D01*
X150846666Y-86794450D01*
X150849500Y-86820808D01*
X150849500Y-92179191D01*
X150829815Y-92246230D01*
X150813181Y-92266872D01*
X149253332Y-93826720D01*
X149192009Y-93860205D01*
X149189843Y-93860656D01*
X149120261Y-93874497D01*
X149120257Y-93874498D01*
X149001874Y-93923534D01*
X148895330Y-93994723D01*
X148886935Y-94003119D01*
X148825610Y-94036601D01*
X148767165Y-94035209D01*
X148726700Y-94024367D01*
X148726697Y-94024366D01*
X148726692Y-94024365D01*
X148726689Y-94024364D01*
X148726686Y-94024364D01*
X148500002Y-94004532D01*
X148499998Y-94004532D01*
X148273313Y-94024364D01*
X148273302Y-94024366D01*
X148053511Y-94083258D01*
X148053502Y-94083261D01*
X147847267Y-94179431D01*
X147847265Y-94179432D01*
X147660858Y-94309954D01*
X147499954Y-94470858D01*
X147369432Y-94657265D01*
X147369431Y-94657267D01*
X147273261Y-94863502D01*
X147273258Y-94863511D01*
X147214366Y-95083302D01*
X147214364Y-95083313D01*
X147194532Y-95309998D01*
X147194532Y-95310001D01*
X147214364Y-95536686D01*
X147214366Y-95536697D01*
X147273258Y-95756488D01*
X147273261Y-95756497D01*
X147369431Y-95962732D01*
X147369432Y-95962734D01*
X147499954Y-96149141D01*
X147660858Y-96310045D01*
X147660861Y-96310047D01*
X147847266Y-96440568D01*
X148053504Y-96536739D01*
X148053509Y-96536740D01*
X148053511Y-96536741D01*
X148106415Y-96550916D01*
X148273308Y-96595635D01*
X148343374Y-96601765D01*
X148345740Y-96601972D01*
X148410809Y-96627424D01*
X148451788Y-96684015D01*
X148455666Y-96753777D01*
X148421212Y-96814561D01*
X148359365Y-96847069D01*
X148334933Y-96849500D01*
X141274500Y-96849500D01*
X141207461Y-96829815D01*
X141161706Y-96777011D01*
X141150500Y-96725500D01*
X141150500Y-95915928D01*
X141125502Y-95790261D01*
X141125501Y-95790260D01*
X141125501Y-95790256D01*
X141094362Y-95715082D01*
X141086894Y-95645614D01*
X141089145Y-95635550D01*
X141115635Y-95536692D01*
X141134705Y-95318721D01*
X141135468Y-95310001D01*
X141135468Y-95309998D01*
X141123236Y-95170185D01*
X141115635Y-95083308D01*
X141062047Y-94883313D01*
X141056741Y-94863511D01*
X141056738Y-94863502D01*
X140997755Y-94737014D01*
X140960568Y-94657266D01*
X140830047Y-94470861D01*
X140830045Y-94470858D01*
X140669141Y-94309954D01*
X140482734Y-94179432D01*
X140482732Y-94179431D01*
X140276497Y-94083261D01*
X140276488Y-94083258D01*
X140056697Y-94024366D01*
X140056693Y-94024365D01*
X140056692Y-94024365D01*
X140056691Y-94024364D01*
X140056686Y-94024364D01*
X139830002Y-94004532D01*
X139829998Y-94004532D01*
X139603313Y-94024364D01*
X139603299Y-94024367D01*
X139562834Y-94035209D01*
X139492984Y-94033545D01*
X139443061Y-94003115D01*
X139186819Y-93746873D01*
X139153334Y-93685550D01*
X139150500Y-93659192D01*
X139150500Y-89002728D01*
X139170185Y-88935689D01*
X139222989Y-88889934D01*
X139292147Y-88879990D01*
X139326903Y-88890345D01*
X139383504Y-88916739D01*
X139383509Y-88916740D01*
X139383511Y-88916741D01*
X139391621Y-88918914D01*
X139603308Y-88975635D01*
X139765230Y-88989801D01*
X139829998Y-88995468D01*
X139830000Y-88995468D01*
X139830002Y-88995468D01*
X139886673Y-88990509D01*
X140056692Y-88975635D01*
X140276496Y-88916739D01*
X140482734Y-88820568D01*
X140669139Y-88690047D01*
X140830047Y-88529139D01*
X140960568Y-88342734D01*
X141056739Y-88136496D01*
X141115635Y-87916692D01*
X141135468Y-87690000D01*
X141132611Y-87657350D01*
X141117379Y-87483241D01*
X141115635Y-87463308D01*
X141056739Y-87243504D01*
X140960568Y-87037266D01*
X140830047Y-86850861D01*
X140830045Y-86850858D01*
X140669141Y-86689954D01*
X140482734Y-86559432D01*
X140482732Y-86559431D01*
X140276497Y-86463261D01*
X140276488Y-86463258D01*
X140056697Y-86404366D01*
X140056693Y-86404365D01*
X140056692Y-86404365D01*
X140056691Y-86404364D01*
X140056686Y-86404364D01*
X139830002Y-86384532D01*
X139829998Y-86384532D01*
X139603313Y-86404364D01*
X139603302Y-86404366D01*
X139383511Y-86463258D01*
X139383502Y-86463261D01*
X139177267Y-86559431D01*
X139177265Y-86559432D01*
X138990858Y-86689954D01*
X138829954Y-86850858D01*
X138699430Y-87037268D01*
X138696721Y-87041961D01*
X138694580Y-87040724D01*
X138655062Y-87085306D01*
X138587805Y-87104233D01*
X138520992Y-87083794D01*
X138501522Y-87067922D01*
X136428328Y-84994727D01*
X136428327Y-84994726D01*
X136428323Y-84994723D01*
X136321781Y-84923535D01*
X136287721Y-84909427D01*
X136203398Y-84874499D01*
X136203392Y-84874497D01*
X136077725Y-84849500D01*
X136077723Y-84849500D01*
X132910931Y-84849500D01*
X132910929Y-84849500D01*
X132785261Y-84874497D01*
X132785255Y-84874499D01*
X132666870Y-84923535D01*
X132560331Y-84994722D01*
X132560324Y-84994728D01*
X130971937Y-86583115D01*
X130910614Y-86616600D01*
X130852163Y-86615209D01*
X130811697Y-86604366D01*
X130811693Y-86604365D01*
X130811692Y-86604365D01*
X130811691Y-86604364D01*
X130811686Y-86604364D01*
X130585002Y-86584532D01*
X130584998Y-86584532D01*
X130358313Y-86604364D01*
X130358302Y-86604366D01*
X130138511Y-86663258D01*
X130138502Y-86663261D01*
X129932267Y-86759431D01*
X129932265Y-86759432D01*
X129745858Y-86889954D01*
X129584954Y-87050858D01*
X129454432Y-87237265D01*
X129454431Y-87237267D01*
X129358261Y-87443502D01*
X129358258Y-87443511D01*
X129299366Y-87663302D01*
X129299364Y-87663313D01*
X129279532Y-87889998D01*
X129279532Y-87890001D01*
X129299364Y-88116686D01*
X129299366Y-88116697D01*
X129345299Y-88288123D01*
X129343636Y-88357973D01*
X129304473Y-88415835D01*
X129240245Y-88443339D01*
X129171342Y-88431752D01*
X129137843Y-88407897D01*
X128806884Y-88076938D01*
X128773399Y-88015615D01*
X128774791Y-87957162D01*
X128785633Y-87916699D01*
X128785632Y-87916699D01*
X128785635Y-87916692D01*
X128805468Y-87690000D01*
X128802611Y-87657350D01*
X128787379Y-87483241D01*
X128785635Y-87463308D01*
X128726739Y-87243504D01*
X128630568Y-87037266D01*
X128500047Y-86850861D01*
X128500045Y-86850858D01*
X128339141Y-86689954D01*
X128152734Y-86559432D01*
X128152732Y-86559431D01*
X127946497Y-86463261D01*
X127946488Y-86463258D01*
X127726697Y-86404366D01*
X127726693Y-86404365D01*
X127726692Y-86404365D01*
X127726691Y-86404364D01*
X127726686Y-86404364D01*
X127500002Y-86384532D01*
X127499998Y-86384532D01*
X127273313Y-86404364D01*
X127273302Y-86404366D01*
X127053511Y-86463258D01*
X127053502Y-86463261D01*
X126847267Y-86559431D01*
X126847265Y-86559432D01*
X126660858Y-86689954D01*
X126499954Y-86850858D01*
X126369432Y-87037265D01*
X126369431Y-87037267D01*
X126273261Y-87243502D01*
X126273258Y-87243511D01*
X126214366Y-87463302D01*
X126214364Y-87463313D01*
X126194532Y-87689998D01*
X126194532Y-87690001D01*
X126214364Y-87916686D01*
X126214366Y-87916697D01*
X126273258Y-88136488D01*
X126273261Y-88136497D01*
X126369431Y-88342732D01*
X126369432Y-88342734D01*
X126499954Y-88529141D01*
X126660858Y-88690045D01*
X126660861Y-88690047D01*
X126847266Y-88820568D01*
X127053504Y-88916739D01*
X127053509Y-88916740D01*
X127053511Y-88916741D01*
X127061621Y-88918914D01*
X127273308Y-88975635D01*
X127435230Y-88989801D01*
X127499998Y-88995468D01*
X127500000Y-88995468D01*
X127500002Y-88995468D01*
X127531421Y-88992719D01*
X127726692Y-88975635D01*
X127767162Y-88964791D01*
X127837012Y-88966452D01*
X127886938Y-88996884D01*
X128623181Y-89733127D01*
X128656666Y-89794450D01*
X128659500Y-89820808D01*
X128659500Y-94330951D01*
X128639815Y-94397990D01*
X128587011Y-94443745D01*
X128517853Y-94453689D01*
X128454297Y-94424664D01*
X128447819Y-94418632D01*
X128339141Y-94309954D01*
X128152734Y-94179432D01*
X128152732Y-94179431D01*
X127946497Y-94083261D01*
X127946488Y-94083258D01*
X127726697Y-94024366D01*
X127726693Y-94024365D01*
X127726692Y-94024365D01*
X127726691Y-94024364D01*
X127726686Y-94024364D01*
X127500002Y-94004532D01*
X127499998Y-94004532D01*
X127273313Y-94024364D01*
X127273302Y-94024366D01*
X127053511Y-94083258D01*
X127053502Y-94083261D01*
X126847267Y-94179431D01*
X126847265Y-94179432D01*
X126660858Y-94309954D01*
X126499954Y-94470858D01*
X126417234Y-94588997D01*
X126378935Y-94643695D01*
X126376075Y-94647779D01*
X126321499Y-94691404D01*
X126252000Y-94698598D01*
X126189645Y-94667076D01*
X126154231Y-94606846D01*
X126150500Y-94576656D01*
X126150500Y-92435928D01*
X126125502Y-92310261D01*
X126125501Y-92310260D01*
X126125501Y-92310256D01*
X126076465Y-92191873D01*
X126076464Y-92191872D01*
X126076461Y-92191866D01*
X126005277Y-92085332D01*
X125973447Y-92053502D01*
X125914669Y-91994724D01*
X125914668Y-91994723D01*
X124186819Y-90266873D01*
X124153334Y-90205550D01*
X124150500Y-90179192D01*
X124150500Y-88886682D01*
X124170185Y-88819643D01*
X124203371Y-88785111D01*
X124339139Y-88690047D01*
X124500047Y-88529139D01*
X124630568Y-88342734D01*
X124726739Y-88136496D01*
X124785635Y-87916692D01*
X124805468Y-87690000D01*
X124802611Y-87657350D01*
X124787379Y-87483241D01*
X124785635Y-87463308D01*
X124726739Y-87243504D01*
X124630568Y-87037266D01*
X124500047Y-86850861D01*
X124500045Y-86850858D01*
X124339141Y-86689954D01*
X124152734Y-86559432D01*
X124152732Y-86559431D01*
X123946497Y-86463261D01*
X123946488Y-86463258D01*
X123726697Y-86404366D01*
X123726693Y-86404365D01*
X123726692Y-86404365D01*
X123726691Y-86404364D01*
X123726686Y-86404364D01*
X123500002Y-86384532D01*
X123499998Y-86384532D01*
X123273313Y-86404364D01*
X123273302Y-86404366D01*
X123053511Y-86463258D01*
X123053502Y-86463261D01*
X122847267Y-86559431D01*
X122847265Y-86559432D01*
X122660858Y-86689954D01*
X122499954Y-86850858D01*
X122369432Y-87037265D01*
X122369431Y-87037267D01*
X122273261Y-87243502D01*
X122273258Y-87243511D01*
X122214366Y-87463302D01*
X122214364Y-87463313D01*
X122194532Y-87689998D01*
X122194532Y-87690001D01*
X122214364Y-87916686D01*
X122214366Y-87916697D01*
X122273258Y-88136488D01*
X122273261Y-88136497D01*
X122369431Y-88342732D01*
X122369432Y-88342734D01*
X122499954Y-88529141D01*
X122660855Y-88690042D01*
X122660858Y-88690044D01*
X122660861Y-88690047D01*
X122796626Y-88785109D01*
X122840248Y-88839683D01*
X122849500Y-88886682D01*
X122849500Y-90179192D01*
X122829815Y-90246231D01*
X122813181Y-90266873D01*
X121266873Y-91813181D01*
X121205550Y-91846666D01*
X121179192Y-91849500D01*
X120460929Y-91849500D01*
X120335261Y-91874497D01*
X120335255Y-91874499D01*
X120216870Y-91923535D01*
X120110331Y-91994722D01*
X120110324Y-91994728D01*
X118301937Y-93803115D01*
X118240614Y-93836600D01*
X118182163Y-93835209D01*
X118141697Y-93824366D01*
X118141693Y-93824365D01*
X118141692Y-93824365D01*
X118141691Y-93824364D01*
X118141686Y-93824364D01*
X117915002Y-93804532D01*
X117914998Y-93804532D01*
X117688313Y-93824364D01*
X117688302Y-93824366D01*
X117468511Y-93883258D01*
X117468502Y-93883261D01*
X117262267Y-93979431D01*
X117262265Y-93979432D01*
X117075858Y-94109954D01*
X116914954Y-94270858D01*
X116784430Y-94457268D01*
X116723513Y-94587905D01*
X116677340Y-94640344D01*
X116611131Y-94659500D01*
X116026683Y-94659500D01*
X115959644Y-94639815D01*
X115925108Y-94606623D01*
X115830045Y-94470858D01*
X115669141Y-94309954D01*
X115482734Y-94179432D01*
X115482732Y-94179431D01*
X115276497Y-94083261D01*
X115276488Y-94083258D01*
X115056697Y-94024366D01*
X115056693Y-94024365D01*
X115056692Y-94024365D01*
X115056691Y-94024364D01*
X115056686Y-94024364D01*
X114830002Y-94004532D01*
X114829998Y-94004532D01*
X114603313Y-94024364D01*
X114603302Y-94024366D01*
X114383511Y-94083258D01*
X114383502Y-94083261D01*
X114177267Y-94179431D01*
X114177265Y-94179432D01*
X113990858Y-94309954D01*
X113829954Y-94470858D01*
X113699432Y-94657265D01*
X113699431Y-94657267D01*
X113603261Y-94863502D01*
X113603258Y-94863511D01*
X113544366Y-95083302D01*
X113544364Y-95083313D01*
X113524532Y-95309998D01*
X113524532Y-95310001D01*
X113544364Y-95536686D01*
X113544366Y-95536697D01*
X113603258Y-95756488D01*
X113603261Y-95756497D01*
X113699431Y-95962732D01*
X113699432Y-95962734D01*
X113829954Y-96149141D01*
X113990858Y-96310045D01*
X113990861Y-96310047D01*
X114177266Y-96440568D01*
X114383504Y-96536739D01*
X114383509Y-96536740D01*
X114383511Y-96536741D01*
X114436415Y-96550916D01*
X114603308Y-96595635D01*
X114673374Y-96601765D01*
X114675740Y-96601972D01*
X114740809Y-96627424D01*
X114781788Y-96684015D01*
X114785666Y-96753777D01*
X114751212Y-96814561D01*
X114689365Y-96847069D01*
X114664933Y-96849500D01*
X113820808Y-96849500D01*
X113753769Y-96829815D01*
X113733127Y-96813181D01*
X113186819Y-96266873D01*
X113153334Y-96205550D01*
X113150500Y-96179192D01*
X113150500Y-86820808D01*
X113170185Y-86753769D01*
X113186819Y-86733127D01*
X113733127Y-86186819D01*
X113794450Y-86153334D01*
X113820808Y-86150500D01*
X114664933Y-86150500D01*
X114731972Y-86170185D01*
X114777727Y-86222989D01*
X114787671Y-86292147D01*
X114758646Y-86355703D01*
X114699868Y-86393477D01*
X114675740Y-86398028D01*
X114603313Y-86404364D01*
X114603302Y-86404366D01*
X114383511Y-86463258D01*
X114383502Y-86463261D01*
X114177267Y-86559431D01*
X114177265Y-86559432D01*
X113990858Y-86689954D01*
X113829954Y-86850858D01*
X113699432Y-87037265D01*
X113699431Y-87037267D01*
X113603261Y-87243502D01*
X113603258Y-87243511D01*
X113544366Y-87463302D01*
X113544364Y-87463313D01*
X113524532Y-87689998D01*
X113524532Y-87690001D01*
X113544364Y-87916686D01*
X113544366Y-87916697D01*
X113603258Y-88136488D01*
X113603261Y-88136497D01*
X113699431Y-88342732D01*
X113699432Y-88342734D01*
X113829954Y-88529141D01*
X113990858Y-88690045D01*
X113990861Y-88690047D01*
X114177266Y-88820568D01*
X114383504Y-88916739D01*
X114383509Y-88916740D01*
X114383511Y-88916741D01*
X114391621Y-88918914D01*
X114603308Y-88975635D01*
X114765230Y-88989801D01*
X114829998Y-88995468D01*
X114830000Y-88995468D01*
X114830002Y-88995468D01*
X114886673Y-88990509D01*
X115056692Y-88975635D01*
X115276496Y-88916739D01*
X115482734Y-88820568D01*
X115669139Y-88690047D01*
X115782368Y-88576817D01*
X115843689Y-88543334D01*
X115870048Y-88540500D01*
X116718317Y-88540500D01*
X116785356Y-88560185D01*
X116819892Y-88593377D01*
X116914954Y-88729141D01*
X117075858Y-88890045D01*
X117075861Y-88890047D01*
X117262266Y-89020568D01*
X117468504Y-89116739D01*
X117688308Y-89175635D01*
X117850230Y-89189801D01*
X117914998Y-89195468D01*
X117915000Y-89195468D01*
X117915002Y-89195468D01*
X117971673Y-89190509D01*
X118141692Y-89175635D01*
X118361496Y-89116739D01*
X118567734Y-89020568D01*
X118754139Y-88890047D01*
X118915047Y-88729139D01*
X119045568Y-88542734D01*
X119052618Y-88527614D01*
X119098789Y-88475176D01*
X119165982Y-88456023D01*
X119232864Y-88476238D01*
X119277381Y-88527614D01*
X119284432Y-88542733D01*
X119284432Y-88542734D01*
X119414954Y-88729141D01*
X119575858Y-88890045D01*
X119575861Y-88890047D01*
X119762266Y-89020568D01*
X119968504Y-89116739D01*
X120188308Y-89175635D01*
X120350230Y-89189801D01*
X120414998Y-89195468D01*
X120415000Y-89195468D01*
X120415002Y-89195468D01*
X120471673Y-89190509D01*
X120641692Y-89175635D01*
X120861496Y-89116739D01*
X121067734Y-89020568D01*
X121254139Y-88890047D01*
X121415047Y-88729139D01*
X121545568Y-88542734D01*
X121641739Y-88336496D01*
X121700635Y-88116692D01*
X121720468Y-87890000D01*
X121700635Y-87663308D01*
X121647047Y-87463313D01*
X121641741Y-87443511D01*
X121641738Y-87443502D01*
X121606005Y-87366873D01*
X121545568Y-87237266D01*
X121415047Y-87050861D01*
X121415045Y-87050858D01*
X121254140Y-86889953D01*
X121118377Y-86794891D01*
X121074752Y-86740314D01*
X121065500Y-86693316D01*
X121065500Y-86350928D01*
X121040501Y-86225256D01*
X120991465Y-86106873D01*
X120923581Y-86005277D01*
X120920276Y-86000330D01*
X120545160Y-85625214D01*
X119914674Y-84994727D01*
X119914673Y-84994726D01*
X119914669Y-84994723D01*
X119808127Y-84923535D01*
X119774067Y-84909427D01*
X119689744Y-84874499D01*
X119689738Y-84874497D01*
X119564071Y-84849500D01*
X119564069Y-84849500D01*
X117853344Y-84849500D01*
X117786305Y-84829815D01*
X117740550Y-84777011D01*
X117730606Y-84707853D01*
X117759631Y-84644297D01*
X117782221Y-84623925D01*
X117823379Y-84595106D01*
X117959139Y-84500047D01*
X118120047Y-84339139D01*
X118250568Y-84152734D01*
X118346739Y-83946496D01*
X118405635Y-83726692D01*
X118425468Y-83500000D01*
X118405635Y-83273308D01*
X118346739Y-83053504D01*
X118250568Y-82847266D01*
X118120047Y-82660861D01*
X118120045Y-82660858D01*
X117959140Y-82499953D01*
X117823377Y-82404891D01*
X117779752Y-82350314D01*
X117770500Y-82303316D01*
X117770500Y-80897648D01*
X122199500Y-80897648D01*
X122199500Y-81102351D01*
X122231522Y-81304534D01*
X122294781Y-81499223D01*
X122387715Y-81681613D01*
X122508028Y-81847213D01*
X122652786Y-81991971D01*
X122807749Y-82104556D01*
X122818390Y-82112287D01*
X122934607Y-82171503D01*
X123000776Y-82205218D01*
X123000778Y-82205218D01*
X123000781Y-82205220D01*
X123105137Y-82239127D01*
X123195465Y-82268477D01*
X123296557Y-82284488D01*
X123397648Y-82300500D01*
X123397649Y-82300500D01*
X123602351Y-82300500D01*
X123602352Y-82300500D01*
X123804534Y-82268477D01*
X123999219Y-82205220D01*
X124181610Y-82112287D01*
X124274590Y-82044732D01*
X124347213Y-81991971D01*
X124347215Y-81991968D01*
X124347219Y-81991966D01*
X124491966Y-81847219D01*
X124491968Y-81847215D01*
X124491971Y-81847213D01*
X124544732Y-81774590D01*
X124612287Y-81681610D01*
X124705220Y-81499219D01*
X124768477Y-81304534D01*
X124800500Y-81102352D01*
X124800500Y-80897648D01*
X155199500Y-80897648D01*
X155199500Y-81102351D01*
X155231522Y-81304534D01*
X155294781Y-81499223D01*
X155387715Y-81681613D01*
X155508028Y-81847213D01*
X155652786Y-81991971D01*
X155807749Y-82104556D01*
X155818390Y-82112287D01*
X155934607Y-82171503D01*
X156000776Y-82205218D01*
X156000778Y-82205218D01*
X156000781Y-82205220D01*
X156105137Y-82239127D01*
X156195465Y-82268477D01*
X156296557Y-82284488D01*
X156397648Y-82300500D01*
X156397649Y-82300500D01*
X156602351Y-82300500D01*
X156602352Y-82300500D01*
X156804534Y-82268477D01*
X156999219Y-82205220D01*
X157181610Y-82112287D01*
X157274590Y-82044732D01*
X157347213Y-81991971D01*
X157347215Y-81991968D01*
X157347219Y-81991966D01*
X157491966Y-81847219D01*
X157491968Y-81847215D01*
X157491971Y-81847213D01*
X157544732Y-81774590D01*
X157612287Y-81681610D01*
X157705220Y-81499219D01*
X157768477Y-81304534D01*
X157800500Y-81102352D01*
X157800500Y-80897648D01*
X157768477Y-80695466D01*
X157761757Y-80674785D01*
X157705218Y-80500776D01*
X157667097Y-80425961D01*
X157612287Y-80318390D01*
X157604556Y-80307749D01*
X157491971Y-80152786D01*
X157347213Y-80008028D01*
X157181613Y-79887715D01*
X157181612Y-79887714D01*
X157181610Y-79887713D01*
X157124653Y-79858691D01*
X156999223Y-79794781D01*
X156804534Y-79731522D01*
X156629995Y-79703878D01*
X156602352Y-79699500D01*
X156397648Y-79699500D01*
X156373329Y-79703351D01*
X156195465Y-79731522D01*
X156000776Y-79794781D01*
X155818386Y-79887715D01*
X155652786Y-80008028D01*
X155508028Y-80152786D01*
X155387715Y-80318386D01*
X155294781Y-80500776D01*
X155231522Y-80695465D01*
X155199500Y-80897648D01*
X124800500Y-80897648D01*
X124768477Y-80695466D01*
X124761757Y-80674785D01*
X124705218Y-80500776D01*
X124667097Y-80425961D01*
X124612287Y-80318390D01*
X124604556Y-80307749D01*
X124491971Y-80152786D01*
X124347213Y-80008028D01*
X124181613Y-79887715D01*
X124181612Y-79887714D01*
X124181610Y-79887713D01*
X124124653Y-79858691D01*
X123999223Y-79794781D01*
X123804534Y-79731522D01*
X123629995Y-79703878D01*
X123602352Y-79699500D01*
X123397648Y-79699500D01*
X123373329Y-79703351D01*
X123195465Y-79731522D01*
X123000776Y-79794781D01*
X122818386Y-79887715D01*
X122652786Y-80008028D01*
X122508028Y-80152786D01*
X122387715Y-80318386D01*
X122294781Y-80500776D01*
X122231522Y-80695465D01*
X122199500Y-80897648D01*
X117770500Y-80897648D01*
X117770500Y-80696682D01*
X117790185Y-80629643D01*
X117823371Y-80595111D01*
X117959139Y-80500047D01*
X118120047Y-80339139D01*
X118250568Y-80152734D01*
X118346739Y-79946496D01*
X118405635Y-79726692D01*
X118425468Y-79500000D01*
X118405635Y-79273308D01*
X118346739Y-79053504D01*
X118250568Y-78847266D01*
X118120047Y-78660861D01*
X118120045Y-78660858D01*
X117959141Y-78499954D01*
X117772734Y-78369432D01*
X117772732Y-78369431D01*
X117566497Y-78273261D01*
X117566488Y-78273258D01*
X117346697Y-78214366D01*
X117346693Y-78214365D01*
X117346692Y-78214365D01*
X117346691Y-78214364D01*
X117346686Y-78214364D01*
X117120002Y-78194532D01*
X117119998Y-78194532D01*
X116893313Y-78214364D01*
X116893302Y-78214366D01*
X116673511Y-78273258D01*
X116673502Y-78273261D01*
X116467267Y-78369431D01*
X116467265Y-78369432D01*
X116280858Y-78499954D01*
X116119954Y-78660858D01*
X115989432Y-78847265D01*
X115989431Y-78847267D01*
X115893261Y-79053502D01*
X115893258Y-79053511D01*
X115834366Y-79273302D01*
X115834364Y-79273313D01*
X115814532Y-79499998D01*
X115814532Y-79500001D01*
X115834364Y-79726686D01*
X115834366Y-79726697D01*
X115893258Y-79946488D01*
X115893261Y-79946497D01*
X115989431Y-80152732D01*
X115989432Y-80152734D01*
X116119954Y-80339141D01*
X116280855Y-80500042D01*
X116280858Y-80500044D01*
X116280861Y-80500047D01*
X116416626Y-80595109D01*
X116460248Y-80649683D01*
X116469500Y-80696682D01*
X116469500Y-82303316D01*
X116449815Y-82370355D01*
X116416623Y-82404891D01*
X116280859Y-82499953D01*
X116119954Y-82660858D01*
X116024892Y-82796623D01*
X115970315Y-82840248D01*
X115923317Y-82849500D01*
X113435929Y-82849500D01*
X113310261Y-82874497D01*
X113310255Y-82874499D01*
X113191875Y-82923533D01*
X113191866Y-82923538D01*
X113085331Y-82994723D01*
X113085327Y-82994726D01*
X110994727Y-85085325D01*
X110994721Y-85085332D01*
X110944059Y-85161154D01*
X110944060Y-85161155D01*
X110923534Y-85191874D01*
X110874499Y-85310255D01*
X110874497Y-85310261D01*
X110849500Y-85435928D01*
X110849500Y-93903802D01*
X110829815Y-93970841D01*
X110817651Y-93986773D01*
X110808140Y-93997336D01*
X110718750Y-94152164D01*
X110718747Y-94152170D01*
X110663504Y-94322192D01*
X110663503Y-94322194D01*
X110644815Y-94500000D01*
X110663503Y-94677805D01*
X110663504Y-94677807D01*
X110679936Y-94728379D01*
X110681931Y-94798220D01*
X110645850Y-94858053D01*
X110583149Y-94888881D01*
X110513735Y-94880916D01*
X110474324Y-94854378D01*
X110186819Y-94566873D01*
X110153334Y-94505550D01*
X110150500Y-94479192D01*
X110150500Y-84696682D01*
X110170185Y-84629643D01*
X110203371Y-84595111D01*
X110339139Y-84500047D01*
X110500047Y-84339139D01*
X110630568Y-84152734D01*
X110726739Y-83946496D01*
X110785635Y-83726692D01*
X110805468Y-83500000D01*
X110785635Y-83273308D01*
X110726739Y-83053504D01*
X110630568Y-82847266D01*
X110500047Y-82660861D01*
X110500045Y-82660858D01*
X110339140Y-82499953D01*
X110203377Y-82404891D01*
X110159752Y-82350314D01*
X110150500Y-82303316D01*
X110150500Y-80696682D01*
X110170185Y-80629643D01*
X110203371Y-80595111D01*
X110339139Y-80500047D01*
X110500047Y-80339139D01*
X110630568Y-80152734D01*
X110726739Y-79946496D01*
X110785635Y-79726692D01*
X110805468Y-79500000D01*
X110785635Y-79273308D01*
X110726739Y-79053504D01*
X110630568Y-78847266D01*
X110500047Y-78660861D01*
X110500045Y-78660858D01*
X110339141Y-78499954D01*
X110152734Y-78369432D01*
X110152732Y-78369431D01*
X109946497Y-78273261D01*
X109946488Y-78273258D01*
X109726697Y-78214366D01*
X109726693Y-78214365D01*
X109726692Y-78214365D01*
X109726691Y-78214364D01*
X109726686Y-78214364D01*
X109500002Y-78194532D01*
X109499998Y-78194532D01*
X109273313Y-78214364D01*
X109273302Y-78214366D01*
X109053511Y-78273258D01*
X109053502Y-78273261D01*
X108847267Y-78369431D01*
X108847265Y-78369432D01*
X108660858Y-78499954D01*
X108499954Y-78660858D01*
X108369432Y-78847265D01*
X108369431Y-78847267D01*
X108273261Y-79053502D01*
X108273258Y-79053511D01*
X108214366Y-79273302D01*
X108214364Y-79273313D01*
X108194532Y-79499998D01*
X108194532Y-79500001D01*
X108214364Y-79726686D01*
X108214366Y-79726697D01*
X108273258Y-79946488D01*
X108273261Y-79946497D01*
X108369431Y-80152732D01*
X108369432Y-80152734D01*
X108499954Y-80339141D01*
X108660855Y-80500042D01*
X108660858Y-80500044D01*
X108660861Y-80500047D01*
X108796626Y-80595109D01*
X108840248Y-80649683D01*
X108849500Y-80696682D01*
X108849500Y-82303316D01*
X108829815Y-82370355D01*
X108796623Y-82404891D01*
X108660859Y-82499953D01*
X108499954Y-82660858D01*
X108369432Y-82847265D01*
X108369431Y-82847267D01*
X108273261Y-83053502D01*
X108273258Y-83053511D01*
X108214366Y-83273302D01*
X108214364Y-83273313D01*
X108194532Y-83499998D01*
X108194532Y-83500001D01*
X108214364Y-83726686D01*
X108214366Y-83726697D01*
X108273258Y-83946488D01*
X108273261Y-83946497D01*
X108369431Y-84152732D01*
X108369432Y-84152734D01*
X108499954Y-84339141D01*
X108660855Y-84500042D01*
X108660858Y-84500044D01*
X108660861Y-84500047D01*
X108796626Y-84595109D01*
X108840248Y-84649683D01*
X108849500Y-84696682D01*
X108849500Y-91820192D01*
X108829815Y-91887231D01*
X108777011Y-91932986D01*
X108707853Y-91942930D01*
X108644297Y-91913905D01*
X108637819Y-91907873D01*
X107616884Y-90886938D01*
X107583399Y-90825615D01*
X107584791Y-90767162D01*
X107595633Y-90726699D01*
X107595632Y-90726699D01*
X107595635Y-90726692D01*
X107615468Y-90500000D01*
X107595635Y-90273308D01*
X107540856Y-90068870D01*
X107536741Y-90053511D01*
X107536738Y-90053502D01*
X107514248Y-90005272D01*
X107440568Y-89847266D01*
X107310047Y-89660861D01*
X107310045Y-89660858D01*
X107149141Y-89499954D01*
X106962734Y-89369432D01*
X106962732Y-89369431D01*
X106756497Y-89273261D01*
X106756488Y-89273258D01*
X106536697Y-89214366D01*
X106536693Y-89214365D01*
X106536692Y-89214365D01*
X106536691Y-89214364D01*
X106536686Y-89214364D01*
X106310002Y-89194532D01*
X106309998Y-89194532D01*
X106083313Y-89214364D01*
X106083302Y-89214366D01*
X105863511Y-89273258D01*
X105863502Y-89273261D01*
X105657267Y-89369431D01*
X105657265Y-89369432D01*
X105470858Y-89499954D01*
X105309954Y-89660858D01*
X105179432Y-89847265D01*
X105179431Y-89847267D01*
X105083261Y-90053502D01*
X105083258Y-90053511D01*
X105024366Y-90273302D01*
X105024364Y-90273313D01*
X105004532Y-90499998D01*
X105004532Y-90500001D01*
X105024364Y-90726686D01*
X105024366Y-90726697D01*
X105083258Y-90946488D01*
X105083261Y-90946497D01*
X105179431Y-91152732D01*
X105179432Y-91152734D01*
X105309954Y-91339141D01*
X105470858Y-91500045D01*
X105470861Y-91500047D01*
X105657266Y-91630568D01*
X105863504Y-91726739D01*
X106083308Y-91785635D01*
X106245230Y-91799801D01*
X106309998Y-91805468D01*
X106310000Y-91805468D01*
X106310002Y-91805468D01*
X106341421Y-91802719D01*
X106536692Y-91785635D01*
X106577162Y-91774791D01*
X106647012Y-91776452D01*
X106696938Y-91806884D01*
X107813181Y-92923127D01*
X107846666Y-92984450D01*
X107849500Y-93010808D01*
X107849500Y-94334933D01*
X107829815Y-94401972D01*
X107777011Y-94447727D01*
X107707853Y-94457671D01*
X107644297Y-94428646D01*
X107606523Y-94369868D01*
X107601972Y-94345740D01*
X107595635Y-94273313D01*
X107595635Y-94273308D01*
X107544712Y-94083258D01*
X107536741Y-94053511D01*
X107536738Y-94053502D01*
X107509328Y-93994722D01*
X107440568Y-93847266D01*
X107310047Y-93660861D01*
X107310045Y-93660858D01*
X107149141Y-93499954D01*
X106962734Y-93369432D01*
X106962732Y-93369431D01*
X106756497Y-93273261D01*
X106756488Y-93273258D01*
X106536697Y-93214366D01*
X106536693Y-93214365D01*
X106536692Y-93214365D01*
X106536691Y-93214364D01*
X106536686Y-93214364D01*
X106310002Y-93194532D01*
X106309998Y-93194532D01*
X106083313Y-93214364D01*
X106083302Y-93214366D01*
X105863511Y-93273258D01*
X105863502Y-93273261D01*
X105657267Y-93369431D01*
X105657265Y-93369432D01*
X105470858Y-93499954D01*
X105309954Y-93660858D01*
X105214892Y-93796623D01*
X105160315Y-93840248D01*
X105113317Y-93849500D01*
X104435929Y-93849500D01*
X104310261Y-93874497D01*
X104310255Y-93874499D01*
X104191870Y-93923535D01*
X104085331Y-93994722D01*
X104085324Y-93994728D01*
X101894724Y-96185328D01*
X101836177Y-96272952D01*
X101823535Y-96291871D01*
X101774499Y-96410255D01*
X101774497Y-96410261D01*
X101749500Y-96535928D01*
X101749500Y-97388770D01*
X101729815Y-97455809D01*
X101677011Y-97501564D01*
X101607853Y-97511508D01*
X101544297Y-97482483D01*
X101537819Y-97476451D01*
X99632957Y-95571590D01*
X99599472Y-95510267D01*
X99604456Y-95440575D01*
X99632954Y-95396231D01*
X99690047Y-95339139D01*
X99820568Y-95152734D01*
X99916739Y-94946496D01*
X99975635Y-94726692D01*
X99993451Y-94523053D01*
X99995468Y-94500001D01*
X99995468Y-94499998D01*
X99988349Y-94418632D01*
X99975635Y-94273308D01*
X99924712Y-94083258D01*
X99916741Y-94053511D01*
X99916738Y-94053502D01*
X99889328Y-93994722D01*
X99820568Y-93847266D01*
X99690047Y-93660861D01*
X99529139Y-93499953D01*
X99514589Y-93489765D01*
X99493375Y-93474910D01*
X99449751Y-93420332D01*
X99440500Y-93373336D01*
X99440500Y-91626662D01*
X99460185Y-91559623D01*
X99493379Y-91525086D01*
X99529140Y-91500046D01*
X99690045Y-91339141D01*
X99690047Y-91339139D01*
X99820568Y-91152734D01*
X99916739Y-90946496D01*
X99975635Y-90726692D01*
X99995468Y-90500000D01*
X99975635Y-90273308D01*
X99920856Y-90068870D01*
X99916741Y-90053511D01*
X99916738Y-90053502D01*
X99894248Y-90005272D01*
X99820568Y-89847266D01*
X99690047Y-89660861D01*
X99690045Y-89660858D01*
X99529141Y-89499954D01*
X99410112Y-89416610D01*
X99366674Y-89362488D01*
X99355084Y-89334505D01*
X99314162Y-89273261D01*
X99272952Y-89211584D01*
X98486820Y-88425452D01*
X98453335Y-88364129D01*
X98450501Y-88337771D01*
X98450501Y-83539574D01*
X98470186Y-83472535D01*
X98522990Y-83426780D01*
X98592148Y-83416836D01*
X98655704Y-83445861D01*
X98665722Y-83455583D01*
X98731667Y-83527219D01*
X98748213Y-83545193D01*
X98748222Y-83545201D01*
X98931365Y-83687747D01*
X98931371Y-83687751D01*
X98931374Y-83687753D01*
X99135497Y-83798219D01*
X99249487Y-83837351D01*
X99355015Y-83873580D01*
X99355017Y-83873580D01*
X99355019Y-83873581D01*
X99583951Y-83911783D01*
X99583952Y-83911783D01*
X99816048Y-83911783D01*
X99816049Y-83911783D01*
X100044981Y-83873581D01*
X100264503Y-83798219D01*
X100468626Y-83687753D01*
X100651784Y-83545196D01*
X100808979Y-83374436D01*
X100911209Y-83217961D01*
X100964354Y-83172605D01*
X101015017Y-83161783D01*
X104552788Y-83161783D01*
X104637332Y-83144965D01*
X104678461Y-83136784D01*
X104796844Y-83087748D01*
X104818237Y-83073454D01*
X104818238Y-83073454D01*
X104881954Y-83030880D01*
X104903386Y-83016560D01*
X106625277Y-81294669D01*
X106696466Y-81188126D01*
X106745501Y-81069743D01*
X106770500Y-80944069D01*
X106770500Y-80815931D01*
X106770500Y-80696682D01*
X106790185Y-80629643D01*
X106823371Y-80595111D01*
X106959139Y-80500047D01*
X107120047Y-80339139D01*
X107250568Y-80152734D01*
X107346739Y-79946496D01*
X107405635Y-79726692D01*
X107425468Y-79500000D01*
X107405635Y-79273308D01*
X107346739Y-79053504D01*
X107250568Y-78847266D01*
X107120047Y-78660861D01*
X107120045Y-78660858D01*
X106959141Y-78499954D01*
X106772734Y-78369432D01*
X106772732Y-78369431D01*
X106566497Y-78273261D01*
X106566488Y-78273258D01*
X106346697Y-78214366D01*
X106346693Y-78214365D01*
X106346692Y-78214365D01*
X106346691Y-78214364D01*
X106346686Y-78214364D01*
X106120002Y-78194532D01*
X106119998Y-78194532D01*
X105893313Y-78214364D01*
X105893302Y-78214366D01*
X105673511Y-78273258D01*
X105673502Y-78273261D01*
X105467267Y-78369431D01*
X105467265Y-78369432D01*
X105280858Y-78499954D01*
X105119954Y-78660858D01*
X104989432Y-78847265D01*
X104989431Y-78847267D01*
X104893261Y-79053502D01*
X104893258Y-79053511D01*
X104834366Y-79273302D01*
X104834364Y-79273313D01*
X104814532Y-79499998D01*
X104814532Y-79500001D01*
X104834364Y-79726686D01*
X104834366Y-79726697D01*
X104893258Y-79946488D01*
X104893261Y-79946497D01*
X104989431Y-80152732D01*
X104989432Y-80152734D01*
X105119954Y-80339141D01*
X105280858Y-80500045D01*
X105335755Y-80538484D01*
X105379380Y-80593060D01*
X105386574Y-80662559D01*
X105355052Y-80724914D01*
X105352313Y-80727740D01*
X104255590Y-81824464D01*
X104194267Y-81857949D01*
X104167909Y-81860783D01*
X101015017Y-81860783D01*
X100947978Y-81841098D01*
X100911208Y-81804604D01*
X100808983Y-81648135D01*
X100808980Y-81648132D01*
X100808979Y-81648130D01*
X100651784Y-81477370D01*
X100651779Y-81477366D01*
X100651777Y-81477364D01*
X100468634Y-81334818D01*
X100468628Y-81334814D01*
X100264504Y-81224347D01*
X100264495Y-81224344D01*
X100044984Y-81148985D01*
X99873282Y-81120333D01*
X99816049Y-81110783D01*
X99583951Y-81110783D01*
X99538164Y-81118423D01*
X99355015Y-81148985D01*
X99135504Y-81224344D01*
X99135495Y-81224347D01*
X98931371Y-81334814D01*
X98931365Y-81334818D01*
X98748222Y-81477364D01*
X98748219Y-81477367D01*
X98748216Y-81477369D01*
X98748216Y-81477370D01*
X98665728Y-81566975D01*
X98605844Y-81602964D01*
X98536006Y-81600864D01*
X98478390Y-81561340D01*
X98451288Y-81496941D01*
X98450501Y-81482991D01*
X98450501Y-80923423D01*
X98470186Y-80856384D01*
X98522990Y-80810629D01*
X98563691Y-80799895D01*
X98726692Y-80785635D01*
X98946496Y-80726739D01*
X99152734Y-80630568D01*
X99339139Y-80500047D01*
X99500047Y-80339139D01*
X99630568Y-80152734D01*
X99726739Y-79946496D01*
X99785635Y-79726692D01*
X99805468Y-79500000D01*
X99785635Y-79273308D01*
X99726739Y-79053504D01*
X99630568Y-78847266D01*
X99500047Y-78660861D01*
X99500045Y-78660858D01*
X99339141Y-78499954D01*
X99152734Y-78369432D01*
X99152732Y-78369431D01*
X98946497Y-78273261D01*
X98946488Y-78273258D01*
X98726697Y-78214366D01*
X98726693Y-78214365D01*
X98726692Y-78214365D01*
X98726691Y-78214364D01*
X98726686Y-78214364D01*
X98500002Y-78194532D01*
X98499998Y-78194532D01*
X98273313Y-78214364D01*
X98273302Y-78214366D01*
X98053511Y-78273258D01*
X98053502Y-78273261D01*
X97847267Y-78369431D01*
X97847265Y-78369432D01*
X97660858Y-78499954D01*
X97499954Y-78660858D01*
X97369432Y-78847265D01*
X97369431Y-78847267D01*
X97273261Y-79053502D01*
X97273258Y-79053511D01*
X97214366Y-79273302D01*
X97214364Y-79273313D01*
X97194532Y-79499998D01*
X97194532Y-79500003D01*
X97209129Y-79666861D01*
X97195362Y-79735360D01*
X97173284Y-79765347D01*
X97117044Y-79821588D01*
X97075348Y-79883994D01*
X97075347Y-79883996D01*
X97034915Y-79944506D01*
X96978344Y-80081081D01*
X96978341Y-80081091D01*
X96949501Y-80226078D01*
X96949501Y-80226081D01*
X96949501Y-88773919D01*
X96949501Y-88773921D01*
X96949500Y-88773921D01*
X96978341Y-88918908D01*
X96978344Y-88918918D01*
X97034914Y-89055491D01*
X97034915Y-89055492D01*
X97034917Y-89055496D01*
X97054009Y-89084069D01*
X97115189Y-89175634D01*
X97117052Y-89178421D01*
X97117053Y-89178422D01*
X97579125Y-89640493D01*
X97612610Y-89701816D01*
X97607626Y-89771507D01*
X97593019Y-89799297D01*
X97559434Y-89847262D01*
X97463261Y-90053502D01*
X97463258Y-90053511D01*
X97404366Y-90273302D01*
X97404364Y-90273313D01*
X97384532Y-90499998D01*
X97384532Y-90500001D01*
X97404364Y-90726686D01*
X97404366Y-90726697D01*
X97463258Y-90946488D01*
X97463261Y-90946497D01*
X97559431Y-91152732D01*
X97559432Y-91152734D01*
X97689954Y-91339141D01*
X97850859Y-91500046D01*
X97886621Y-91525086D01*
X97930247Y-91579662D01*
X97939500Y-91626662D01*
X97939500Y-93373336D01*
X97919815Y-93440375D01*
X97886625Y-93474910D01*
X97850863Y-93499951D01*
X97689951Y-93660862D01*
X97559432Y-93847265D01*
X97559431Y-93847267D01*
X97463261Y-94053502D01*
X97463258Y-94053511D01*
X97404366Y-94273302D01*
X97404364Y-94273313D01*
X97384532Y-94499998D01*
X97384532Y-94500001D01*
X97404364Y-94726686D01*
X97404366Y-94726697D01*
X97463258Y-94946488D01*
X97463261Y-94946497D01*
X97559431Y-95152732D01*
X97559432Y-95152734D01*
X97689954Y-95339141D01*
X97850859Y-95500046D01*
X97886621Y-95525086D01*
X97930247Y-95579662D01*
X97939500Y-95626662D01*
X97939500Y-95763918D01*
X97939500Y-95763920D01*
X97939499Y-95763920D01*
X97968340Y-95908907D01*
X97968343Y-95908917D01*
X98024913Y-96045490D01*
X98024915Y-96045493D01*
X98037329Y-96064073D01*
X98037328Y-96064073D01*
X98107046Y-96168414D01*
X98107052Y-96168421D01*
X100713181Y-98774548D01*
X100746666Y-98835871D01*
X100749500Y-98862229D01*
X100749500Y-105137770D01*
X100729815Y-105204809D01*
X100713181Y-105225451D01*
X100225451Y-105713181D01*
X100164128Y-105746666D01*
X100137770Y-105749500D01*
X99426082Y-105749500D01*
X99400096Y-105754669D01*
X99281094Y-105778339D01*
X99281087Y-105778341D01*
X99204039Y-105810256D01*
X99144507Y-105834914D01*
X99144498Y-105834919D01*
X99085266Y-105874498D01*
X99021582Y-105917049D01*
X97917048Y-107021583D01*
X97906537Y-107037315D01*
X97876045Y-107082951D01*
X97834919Y-107144499D01*
X97834912Y-107144511D01*
X97778343Y-107281082D01*
X97778340Y-107281092D01*
X97749500Y-107426079D01*
X97749500Y-107426082D01*
X97749500Y-112426082D01*
X97749500Y-112573918D01*
X97749500Y-112573920D01*
X97749499Y-112573920D01*
X97778340Y-112718907D01*
X97778343Y-112718917D01*
X97834912Y-112855488D01*
X97834919Y-112855501D01*
X97917048Y-112978415D01*
X97917051Y-112978419D01*
X98021580Y-113082948D01*
X98021584Y-113082951D01*
X98144498Y-113165080D01*
X98144511Y-113165087D01*
X98240306Y-113204766D01*
X98281087Y-113221658D01*
X98281091Y-113221658D01*
X98281092Y-113221659D01*
X98426079Y-113250500D01*
X98426082Y-113250500D01*
X100625500Y-113250500D01*
X100692539Y-113270185D01*
X100738294Y-113322989D01*
X100749500Y-113374500D01*
X100749500Y-115387769D01*
X100729815Y-115454808D01*
X100713181Y-115475450D01*
X99765348Y-116423282D01*
X99704025Y-116456767D01*
X99666861Y-116459129D01*
X99500003Y-116444532D01*
X99499998Y-116444532D01*
X99273313Y-116464364D01*
X99273302Y-116464366D01*
X99053511Y-116523258D01*
X99053502Y-116523261D01*
X98847267Y-116619431D01*
X98847265Y-116619432D01*
X98660858Y-116749954D01*
X98499954Y-116910858D01*
X98369432Y-117097265D01*
X98369432Y-117097266D01*
X98273261Y-117303502D01*
X98273258Y-117303511D01*
X98214366Y-117523302D01*
X98214364Y-117523313D01*
X98194532Y-117749998D01*
X98194532Y-117750001D01*
X98214364Y-117976686D01*
X98214366Y-117976697D01*
X98273258Y-118196488D01*
X98273261Y-118196497D01*
X98369431Y-118402732D01*
X98369432Y-118402734D01*
X98499954Y-118589141D01*
X98660858Y-118750045D01*
X98660861Y-118750047D01*
X98847266Y-118880568D01*
X99053504Y-118976739D01*
X99053509Y-118976740D01*
X99053511Y-118976741D01*
X99063554Y-118979432D01*
X99273308Y-119035635D01*
X99435230Y-119049801D01*
X99499998Y-119055468D01*
X99500000Y-119055468D01*
X99500002Y-119055468D01*
X99556673Y-119050509D01*
X99726692Y-119035635D01*
X99946496Y-118976739D01*
X100152734Y-118880568D01*
X100339139Y-118750047D01*
X100500047Y-118589139D01*
X100525088Y-118553377D01*
X100579665Y-118509752D01*
X100626663Y-118500500D01*
X105382474Y-118500500D01*
X105449513Y-118520185D01*
X105495268Y-118572989D01*
X105504065Y-118605058D01*
X105504124Y-118605045D01*
X105504509Y-118606674D01*
X105505764Y-118611249D01*
X105505908Y-118612596D01*
X105556202Y-118747441D01*
X105556206Y-118747448D01*
X105642452Y-118862657D01*
X105642455Y-118862660D01*
X105757664Y-118948906D01*
X105757671Y-118948910D01*
X105892517Y-118999204D01*
X105892516Y-118999204D01*
X105899444Y-118999948D01*
X105952127Y-119005613D01*
X106987769Y-119005612D01*
X107054808Y-119025296D01*
X107075450Y-119041931D01*
X110713181Y-122679662D01*
X110746666Y-122740985D01*
X110749500Y-122767343D01*
X110749500Y-123819629D01*
X110737882Y-123872034D01*
X110653262Y-124053502D01*
X110653258Y-124053511D01*
X110594366Y-124273302D01*
X110594364Y-124273313D01*
X110574532Y-124499998D01*
X110574532Y-124500003D01*
X110589129Y-124666861D01*
X110575362Y-124735360D01*
X110553282Y-124765348D01*
X108605451Y-126713181D01*
X108544128Y-126746666D01*
X108517770Y-126749500D01*
X108080301Y-126749500D01*
X108013262Y-126729815D01*
X107967507Y-126677011D01*
X107962595Y-126664504D01*
X107934814Y-126580666D01*
X107842712Y-126431344D01*
X107718656Y-126307288D01*
X107569334Y-126215186D01*
X107569333Y-126215185D01*
X107563878Y-126211821D01*
X107517154Y-126159873D01*
X107505931Y-126090910D01*
X107533775Y-126026828D01*
X107541272Y-126018623D01*
X107680104Y-125879792D01*
X107728460Y-125813236D01*
X107805048Y-125707820D01*
X107805047Y-125707820D01*
X107805051Y-125707816D01*
X107901557Y-125518412D01*
X107967246Y-125316243D01*
X108000500Y-125106287D01*
X108000500Y-124893713D01*
X107967246Y-124683757D01*
X107901557Y-124481588D01*
X107805051Y-124292184D01*
X107805049Y-124292181D01*
X107805048Y-124292179D01*
X107680109Y-124120213D01*
X107529786Y-123969890D01*
X107357820Y-123844951D01*
X107168414Y-123748444D01*
X107168413Y-123748443D01*
X107168412Y-123748443D01*
X106966243Y-123682754D01*
X106966241Y-123682753D01*
X106966240Y-123682753D01*
X106804957Y-123657208D01*
X106756287Y-123649500D01*
X106243713Y-123649500D01*
X106195042Y-123657208D01*
X106033760Y-123682753D01*
X106033757Y-123682754D01*
X105856810Y-123740248D01*
X105831585Y-123748444D01*
X105642179Y-123844951D01*
X105470213Y-123969890D01*
X105319892Y-124120211D01*
X105263097Y-124198385D01*
X105207767Y-124241051D01*
X105162779Y-124249500D01*
X103926080Y-124249500D01*
X103781092Y-124278340D01*
X103781082Y-124278343D01*
X103644509Y-124334913D01*
X103644507Y-124334914D01*
X103603645Y-124362218D01*
X103603643Y-124362219D01*
X103521589Y-124417043D01*
X103521584Y-124417047D01*
X101225451Y-126713181D01*
X101164128Y-126746666D01*
X101137770Y-126749500D01*
X100780301Y-126749500D01*
X100713262Y-126729815D01*
X100667507Y-126677011D01*
X100662595Y-126664504D01*
X100634814Y-126580666D01*
X100542712Y-126431344D01*
X100418656Y-126307288D01*
X100269334Y-126215186D01*
X100102797Y-126160001D01*
X100102795Y-126160000D01*
X100000010Y-126149500D01*
X98399998Y-126149500D01*
X98399981Y-126149501D01*
X98297203Y-126160000D01*
X98297200Y-126160001D01*
X98130668Y-126215185D01*
X98130663Y-126215187D01*
X97981342Y-126307289D01*
X97857289Y-126431342D01*
X97765187Y-126580663D01*
X97765186Y-126580666D01*
X97710001Y-126747203D01*
X97710001Y-126747204D01*
X97710000Y-126747204D01*
X97699500Y-126849983D01*
X97699500Y-128150001D01*
X97699501Y-128150018D01*
X97710000Y-128252796D01*
X97710001Y-128252799D01*
X97749367Y-128371595D01*
X97765186Y-128419334D01*
X97857288Y-128568656D01*
X97981344Y-128692712D01*
X98130666Y-128784814D01*
X98297203Y-128839999D01*
X98399991Y-128850500D01*
X100000008Y-128850499D01*
X100102797Y-128839999D01*
X100269334Y-128784814D01*
X100418656Y-128692712D01*
X100542712Y-128568656D01*
X100634814Y-128419334D01*
X100662595Y-128335495D01*
X100702368Y-128278051D01*
X100766884Y-128251228D01*
X100780301Y-128250500D01*
X101573920Y-128250500D01*
X101671462Y-128231096D01*
X101718913Y-128221658D01*
X101855495Y-128165084D01*
X101914735Y-128125501D01*
X101978416Y-128082952D01*
X104274549Y-125786819D01*
X104335872Y-125753334D01*
X104362230Y-125750500D01*
X105162779Y-125750500D01*
X105229818Y-125770185D01*
X105263097Y-125801615D01*
X105319892Y-125879788D01*
X105458705Y-126018601D01*
X105492190Y-126079924D01*
X105487206Y-126149616D01*
X105445334Y-126205549D01*
X105436121Y-126211821D01*
X105281342Y-126307289D01*
X105157289Y-126431342D01*
X105065187Y-126580663D01*
X105065186Y-126580666D01*
X105010001Y-126747203D01*
X105010001Y-126747204D01*
X105010000Y-126747204D01*
X104999500Y-126849983D01*
X104999500Y-128150001D01*
X104999501Y-128150018D01*
X105010000Y-128252796D01*
X105010001Y-128252799D01*
X105049367Y-128371595D01*
X105065186Y-128419334D01*
X105157288Y-128568656D01*
X105281344Y-128692712D01*
X105430666Y-128784814D01*
X105597203Y-128839999D01*
X105699991Y-128850500D01*
X107300008Y-128850499D01*
X107402797Y-128839999D01*
X107569334Y-128784814D01*
X107718656Y-128692712D01*
X107842712Y-128568656D01*
X107934814Y-128419334D01*
X107962595Y-128335495D01*
X108002368Y-128278051D01*
X108066884Y-128251228D01*
X108080301Y-128250500D01*
X108953920Y-128250500D01*
X109051462Y-128231096D01*
X109098913Y-128221658D01*
X109235495Y-128165084D01*
X109294735Y-128125501D01*
X109358416Y-128082952D01*
X111614652Y-125826714D01*
X111675973Y-125793231D01*
X111713135Y-125790869D01*
X111855128Y-125803292D01*
X111879999Y-125805468D01*
X111880000Y-125805468D01*
X111880002Y-125805468D01*
X111936673Y-125800509D01*
X112106692Y-125785635D01*
X112326496Y-125726739D01*
X112532734Y-125630568D01*
X112719139Y-125500047D01*
X112880047Y-125339139D01*
X113010568Y-125152734D01*
X113106739Y-124946496D01*
X113165635Y-124726692D01*
X113185468Y-124500000D01*
X113170869Y-124333137D01*
X113184635Y-124264639D01*
X113206713Y-124234653D01*
X114154548Y-123286819D01*
X114215871Y-123253334D01*
X114242229Y-123250500D01*
X118623839Y-123250500D01*
X118690878Y-123270185D01*
X118736633Y-123322989D01*
X118746577Y-123392147D01*
X118717552Y-123455703D01*
X118694962Y-123476075D01*
X118660858Y-123499954D01*
X118499954Y-123660858D01*
X118369432Y-123847265D01*
X118369431Y-123847267D01*
X118273261Y-124053502D01*
X118273258Y-124053511D01*
X118214366Y-124273302D01*
X118214364Y-124273313D01*
X118194532Y-124499998D01*
X118194532Y-124500001D01*
X118214364Y-124726686D01*
X118214366Y-124726697D01*
X118273258Y-124946488D01*
X118273261Y-124946497D01*
X118369431Y-125152732D01*
X118369432Y-125152734D01*
X118499954Y-125339141D01*
X118660859Y-125500046D01*
X118696621Y-125525086D01*
X118740247Y-125579662D01*
X118749500Y-125626662D01*
X118749500Y-127373336D01*
X118729815Y-127440375D01*
X118696625Y-127474910D01*
X118660863Y-127499951D01*
X118499951Y-127660862D01*
X118369432Y-127847265D01*
X118369431Y-127847267D01*
X118273261Y-128053502D01*
X118273258Y-128053511D01*
X118214366Y-128273302D01*
X118214364Y-128273313D01*
X118194532Y-128499998D01*
X118194532Y-128500001D01*
X118214364Y-128726686D01*
X118214366Y-128726697D01*
X118273258Y-128946488D01*
X118273261Y-128946497D01*
X118369431Y-129152732D01*
X118369432Y-129152734D01*
X118499954Y-129339141D01*
X118660858Y-129500045D01*
X118660861Y-129500047D01*
X118847266Y-129630568D01*
X119053504Y-129726739D01*
X119273308Y-129785635D01*
X119435230Y-129799801D01*
X119499998Y-129805468D01*
X119500000Y-129805468D01*
X119500002Y-129805468D01*
X119556673Y-129800509D01*
X119726692Y-129785635D01*
X119946496Y-129726739D01*
X120152734Y-129630568D01*
X120339139Y-129500047D01*
X120500047Y-129339139D01*
X120525088Y-129303377D01*
X120579665Y-129259752D01*
X120626663Y-129250500D01*
X120873337Y-129250500D01*
X120940376Y-129270185D01*
X120974912Y-129303377D01*
X120999954Y-129339141D01*
X121160858Y-129500045D01*
X121160861Y-129500047D01*
X121347266Y-129630568D01*
X121553504Y-129726739D01*
X121773308Y-129785635D01*
X121935230Y-129799801D01*
X121999998Y-129805468D01*
X122000000Y-129805468D01*
X122000002Y-129805468D01*
X122056673Y-129800509D01*
X122226692Y-129785635D01*
X122446496Y-129726739D01*
X122652734Y-129630568D01*
X122839139Y-129500047D01*
X123000047Y-129339139D01*
X123130568Y-129152734D01*
X123226739Y-128946496D01*
X123285635Y-128726692D01*
X123305468Y-128500000D01*
X123285635Y-128273308D01*
X123226739Y-128053504D01*
X123226736Y-128053497D01*
X123167705Y-127926904D01*
X123157213Y-127857827D01*
X123185733Y-127794043D01*
X123244210Y-127755804D01*
X123280087Y-127750500D01*
X126073920Y-127750500D01*
X126177906Y-127729815D01*
X126218913Y-127721658D01*
X126355495Y-127665084D01*
X126404729Y-127632186D01*
X126478416Y-127582952D01*
X127163720Y-126897648D01*
X133199500Y-126897648D01*
X133199500Y-127102351D01*
X133231522Y-127304534D01*
X133294781Y-127499223D01*
X133337443Y-127582950D01*
X133377141Y-127660862D01*
X133387715Y-127681613D01*
X133508028Y-127847213D01*
X133652786Y-127991971D01*
X133800790Y-128099500D01*
X133818390Y-128112287D01*
X133922008Y-128165083D01*
X134000776Y-128205218D01*
X134000778Y-128205218D01*
X134000781Y-128205220D01*
X134105137Y-128239127D01*
X134195465Y-128268477D01*
X134263199Y-128279205D01*
X134397648Y-128300500D01*
X134397649Y-128300500D01*
X134602351Y-128300500D01*
X134602352Y-128300500D01*
X134804534Y-128268477D01*
X134999219Y-128205220D01*
X135181610Y-128112287D01*
X135313093Y-128016760D01*
X135347213Y-127991971D01*
X135347215Y-127991968D01*
X135347219Y-127991966D01*
X135491966Y-127847219D01*
X135491968Y-127847215D01*
X135491971Y-127847213D01*
X135577264Y-127729815D01*
X135612287Y-127681610D01*
X135705220Y-127499219D01*
X135768477Y-127304534D01*
X135800500Y-127102352D01*
X135800500Y-126897648D01*
X155199500Y-126897648D01*
X155199500Y-127102351D01*
X155231522Y-127304534D01*
X155294781Y-127499223D01*
X155337443Y-127582950D01*
X155377141Y-127660862D01*
X155387715Y-127681613D01*
X155508028Y-127847213D01*
X155652786Y-127991971D01*
X155800790Y-128099500D01*
X155818390Y-128112287D01*
X155922008Y-128165083D01*
X156000776Y-128205218D01*
X156000778Y-128205218D01*
X156000781Y-128205220D01*
X156105137Y-128239127D01*
X156195465Y-128268477D01*
X156263199Y-128279205D01*
X156397648Y-128300500D01*
X156397649Y-128300500D01*
X156602351Y-128300500D01*
X156602352Y-128300500D01*
X156804534Y-128268477D01*
X156999219Y-128205220D01*
X157181610Y-128112287D01*
X157313093Y-128016760D01*
X157347213Y-127991971D01*
X157347215Y-127991968D01*
X157347219Y-127991966D01*
X157491966Y-127847219D01*
X157491968Y-127847215D01*
X157491971Y-127847213D01*
X157577264Y-127729815D01*
X157612287Y-127681610D01*
X157705220Y-127499219D01*
X157768477Y-127304534D01*
X157800500Y-127102352D01*
X157800500Y-126897648D01*
X157792952Y-126849991D01*
X157768477Y-126695465D01*
X157705218Y-126500776D01*
X157666717Y-126425214D01*
X157612287Y-126318390D01*
X157560177Y-126246666D01*
X157491971Y-126152786D01*
X157347213Y-126008028D01*
X157181613Y-125887715D01*
X157181612Y-125887714D01*
X157181610Y-125887713D01*
X157124653Y-125858691D01*
X156999223Y-125794781D01*
X156804534Y-125731522D01*
X156629995Y-125703878D01*
X156602352Y-125699500D01*
X156397648Y-125699500D01*
X156373329Y-125703351D01*
X156195465Y-125731522D01*
X156000776Y-125794781D01*
X155818386Y-125887715D01*
X155652786Y-126008028D01*
X155508028Y-126152786D01*
X155387715Y-126318386D01*
X155294781Y-126500776D01*
X155231522Y-126695465D01*
X155199500Y-126897648D01*
X135800500Y-126897648D01*
X135792952Y-126849991D01*
X135768477Y-126695465D01*
X135705218Y-126500776D01*
X135666717Y-126425214D01*
X135612287Y-126318390D01*
X135560177Y-126246666D01*
X135491971Y-126152786D01*
X135347213Y-126008028D01*
X135181613Y-125887715D01*
X135181612Y-125887714D01*
X135181610Y-125887713D01*
X135124653Y-125858691D01*
X134999223Y-125794781D01*
X134804534Y-125731522D01*
X134629995Y-125703878D01*
X134602352Y-125699500D01*
X134397648Y-125699500D01*
X134373329Y-125703351D01*
X134195465Y-125731522D01*
X134000776Y-125794781D01*
X133818386Y-125887715D01*
X133652786Y-126008028D01*
X133508028Y-126152786D01*
X133387715Y-126318386D01*
X133294781Y-126500776D01*
X133231522Y-126695465D01*
X133199500Y-126897648D01*
X127163720Y-126897648D01*
X129774548Y-124286818D01*
X129835871Y-124253334D01*
X129862229Y-124250500D01*
X152573920Y-124250500D01*
X152671462Y-124231096D01*
X152718913Y-124221658D01*
X152855495Y-124165084D01*
X152978416Y-124082951D01*
X153082951Y-123978416D01*
X153165084Y-123855495D01*
X153169452Y-123844951D01*
X153209426Y-123748443D01*
X153221658Y-123718913D01*
X153233206Y-123660858D01*
X153250500Y-123573920D01*
X153250500Y-110374500D01*
X153270185Y-110307461D01*
X153322989Y-110261706D01*
X153374500Y-110250500D01*
X163873920Y-110250500D01*
X163971462Y-110231096D01*
X164018913Y-110221658D01*
X164155495Y-110165084D01*
X164214735Y-110125501D01*
X164278416Y-110082952D01*
X165234652Y-109126714D01*
X165295973Y-109093231D01*
X165333135Y-109090869D01*
X165476366Y-109103400D01*
X165499999Y-109105468D01*
X165500000Y-109105468D01*
X165500002Y-109105468D01*
X165556807Y-109100498D01*
X165726692Y-109085635D01*
X165946496Y-109026739D01*
X166152734Y-108930568D01*
X166339139Y-108800047D01*
X166500047Y-108639139D01*
X166630568Y-108452734D01*
X166726739Y-108246496D01*
X166785635Y-108026692D01*
X166805468Y-107800000D01*
X166785635Y-107573308D01*
X166729420Y-107363511D01*
X166726741Y-107353511D01*
X166726738Y-107353502D01*
X166708861Y-107315164D01*
X166630568Y-107147266D01*
X166500047Y-106960861D01*
X166500045Y-106960858D01*
X166339141Y-106799954D01*
X166152734Y-106669432D01*
X166152732Y-106669431D01*
X165946497Y-106573261D01*
X165946488Y-106573258D01*
X165726697Y-106514366D01*
X165726693Y-106514365D01*
X165726692Y-106514365D01*
X165726691Y-106514364D01*
X165726686Y-106514364D01*
X165500002Y-106494532D01*
X165499998Y-106494532D01*
X165273313Y-106514364D01*
X165273302Y-106514366D01*
X165053511Y-106573258D01*
X165053502Y-106573261D01*
X164847267Y-106669431D01*
X164847265Y-106669432D01*
X164660858Y-106799954D01*
X164499954Y-106960858D01*
X164369432Y-107147265D01*
X164369431Y-107147267D01*
X164342382Y-107205275D01*
X164296209Y-107257714D01*
X164229016Y-107276866D01*
X164162135Y-107256650D01*
X164117618Y-107205275D01*
X164112909Y-107195176D01*
X164090568Y-107147266D01*
X163960047Y-106960861D01*
X163960045Y-106960858D01*
X163799140Y-106799953D01*
X163663377Y-106704891D01*
X163619752Y-106650314D01*
X163610500Y-106603316D01*
X163610500Y-106106193D01*
X163630185Y-106039154D01*
X163682989Y-105993399D01*
X163752147Y-105983455D01*
X163815703Y-106012480D01*
X163826650Y-106023221D01*
X163927764Y-106135521D01*
X163927767Y-106135523D01*
X163927770Y-106135526D01*
X164072407Y-106240612D01*
X164235733Y-106313329D01*
X164410609Y-106350500D01*
X164410610Y-106350500D01*
X164589389Y-106350500D01*
X164589391Y-106350500D01*
X164764267Y-106313329D01*
X164927593Y-106240612D01*
X165019025Y-106174182D01*
X165084831Y-106150702D01*
X165091911Y-106150500D01*
X170179192Y-106150500D01*
X170246231Y-106170185D01*
X170266873Y-106186819D01*
X170585325Y-106505272D01*
X170585328Y-106505275D01*
X170585331Y-106505277D01*
X170661550Y-106556204D01*
X170691873Y-106576465D01*
X170810256Y-106625501D01*
X170810260Y-106625501D01*
X170810261Y-106625502D01*
X170935928Y-106650500D01*
X170935931Y-106650500D01*
X171520951Y-106650500D01*
X171587990Y-106670185D01*
X171633745Y-106722989D01*
X171643689Y-106792147D01*
X171614664Y-106855703D01*
X171608632Y-106862181D01*
X171499954Y-106970858D01*
X171369432Y-107157265D01*
X171369431Y-107157267D01*
X171273261Y-107363502D01*
X171273258Y-107363511D01*
X171214366Y-107583302D01*
X171214364Y-107583313D01*
X171194532Y-107809998D01*
X171194532Y-107810001D01*
X171214364Y-108036686D01*
X171214366Y-108036697D01*
X171273258Y-108256488D01*
X171273261Y-108256497D01*
X171369431Y-108462732D01*
X171369432Y-108462734D01*
X171499954Y-108649141D01*
X171660858Y-108810045D01*
X171689093Y-108829815D01*
X171847266Y-108940568D01*
X172053504Y-109036739D01*
X172053509Y-109036740D01*
X172053511Y-109036741D01*
X172098718Y-109048854D01*
X172273308Y-109095635D01*
X172435230Y-109109801D01*
X172499998Y-109115468D01*
X172500000Y-109115468D01*
X172500002Y-109115468D01*
X172556673Y-109110509D01*
X172726692Y-109095635D01*
X172946496Y-109036739D01*
X173152734Y-108940568D01*
X173339139Y-108810047D01*
X173500047Y-108649139D01*
X173630568Y-108462734D01*
X173726739Y-108256496D01*
X173785635Y-108036692D01*
X173805468Y-107810000D01*
X173785635Y-107583308D01*
X173726739Y-107363504D01*
X173630568Y-107157266D01*
X173523781Y-107004757D01*
X173500045Y-106970858D01*
X173391368Y-106862181D01*
X173357883Y-106800858D01*
X173362867Y-106731166D01*
X173404739Y-106675233D01*
X173470203Y-106650816D01*
X173479049Y-106650500D01*
X175625501Y-106650500D01*
X175692540Y-106670185D01*
X175738295Y-106722989D01*
X175749501Y-106774500D01*
X175749501Y-106797876D01*
X175756669Y-106864555D01*
X175744262Y-106933314D01*
X175721061Y-106965488D01*
X175629205Y-107057345D01*
X175629201Y-107057350D01*
X175481132Y-107261151D01*
X175366760Y-107485616D01*
X175288910Y-107725214D01*
X175275481Y-107810000D01*
X175249500Y-107974038D01*
X175249500Y-108225962D01*
X175285417Y-108452732D01*
X175288910Y-108474785D01*
X175366760Y-108714383D01*
X175445413Y-108868747D01*
X175476912Y-108930567D01*
X175481132Y-108938848D01*
X175629201Y-109142649D01*
X175629205Y-109142654D01*
X175807345Y-109320794D01*
X175807350Y-109320798D01*
X175985117Y-109449952D01*
X176011155Y-109468870D01*
X176122298Y-109525500D01*
X176235616Y-109583239D01*
X176235618Y-109583239D01*
X176235621Y-109583241D01*
X176475215Y-109661090D01*
X176724038Y-109700500D01*
X176724039Y-109700500D01*
X178275961Y-109700500D01*
X178275962Y-109700500D01*
X178524785Y-109661090D01*
X178764379Y-109583241D01*
X178988845Y-109468870D01*
X179192656Y-109320793D01*
X179370793Y-109142656D01*
X179404957Y-109095633D01*
X179475182Y-108998977D01*
X179530511Y-108956311D01*
X179600125Y-108950332D01*
X179661920Y-108982937D01*
X179696277Y-109043776D01*
X179699500Y-109071862D01*
X179699500Y-109525500D01*
X179679815Y-109592539D01*
X179627011Y-109638294D01*
X179575500Y-109649500D01*
X179410609Y-109649500D01*
X179379954Y-109656015D01*
X179235733Y-109686670D01*
X179235728Y-109686672D01*
X179072408Y-109759387D01*
X178927768Y-109864475D01*
X178808140Y-109997336D01*
X178718750Y-110152164D01*
X178718747Y-110152170D01*
X178663504Y-110322192D01*
X178663503Y-110322194D01*
X178657011Y-110383963D01*
X178630425Y-110448577D01*
X178621371Y-110458681D01*
X178266873Y-110813181D01*
X178205550Y-110846666D01*
X178179192Y-110849500D01*
X173435929Y-110849500D01*
X173310261Y-110874497D01*
X173310251Y-110874500D01*
X173261220Y-110894810D01*
X173191881Y-110923530D01*
X173191863Y-110923540D01*
X173085332Y-110994721D01*
X173085325Y-110994727D01*
X171994726Y-112085326D01*
X171937529Y-112170930D01*
X171937527Y-112170933D01*
X171923536Y-112191870D01*
X171923533Y-112191875D01*
X171874499Y-112310255D01*
X171874497Y-112310261D01*
X171849500Y-112435928D01*
X171849500Y-116179192D01*
X171829815Y-116246231D01*
X171813181Y-116266873D01*
X171266873Y-116813181D01*
X171205550Y-116846666D01*
X171179192Y-116849500D01*
X168253344Y-116849500D01*
X168186305Y-116829815D01*
X168140550Y-116777011D01*
X168130606Y-116707853D01*
X168159631Y-116644297D01*
X168182221Y-116623925D01*
X168291271Y-116547568D01*
X168359139Y-116500047D01*
X168520047Y-116339139D01*
X168650568Y-116152734D01*
X168746739Y-115946496D01*
X168805635Y-115726692D01*
X168825468Y-115500000D01*
X168805635Y-115273308D01*
X168746739Y-115053504D01*
X168650568Y-114847266D01*
X168540268Y-114689740D01*
X168520045Y-114660858D01*
X168359140Y-114499953D01*
X168223377Y-114404891D01*
X168179752Y-114350314D01*
X168170500Y-114303316D01*
X168170500Y-112696682D01*
X168190185Y-112629643D01*
X168223371Y-112595111D01*
X168359139Y-112500047D01*
X168520047Y-112339139D01*
X168650568Y-112152734D01*
X168746739Y-111946496D01*
X168805635Y-111726692D01*
X168825468Y-111500000D01*
X168822253Y-111463258D01*
X168816600Y-111398642D01*
X168805635Y-111273308D01*
X168760867Y-111106230D01*
X168746741Y-111053511D01*
X168746738Y-111053502D01*
X168740108Y-111039284D01*
X168650568Y-110847266D01*
X168520047Y-110660861D01*
X168520045Y-110660858D01*
X168359141Y-110499954D01*
X168172734Y-110369432D01*
X168172732Y-110369431D01*
X167966497Y-110273261D01*
X167966488Y-110273258D01*
X167746697Y-110214366D01*
X167746693Y-110214365D01*
X167746692Y-110214365D01*
X167746691Y-110214364D01*
X167746686Y-110214364D01*
X167520002Y-110194532D01*
X167519998Y-110194532D01*
X167293313Y-110214364D01*
X167293302Y-110214366D01*
X167073511Y-110273258D01*
X167073502Y-110273261D01*
X166867267Y-110369431D01*
X166867265Y-110369432D01*
X166680858Y-110499954D01*
X166519954Y-110660858D01*
X166389432Y-110847265D01*
X166389431Y-110847267D01*
X166293261Y-111053502D01*
X166293258Y-111053511D01*
X166234366Y-111273302D01*
X166234364Y-111273313D01*
X166214532Y-111499998D01*
X166214532Y-111500000D01*
X166234364Y-111726686D01*
X166234366Y-111726697D01*
X166293258Y-111946488D01*
X166293261Y-111946497D01*
X166389431Y-112152732D01*
X166389432Y-112152734D01*
X166519954Y-112339141D01*
X166680855Y-112500042D01*
X166680858Y-112500044D01*
X166680861Y-112500047D01*
X166816626Y-112595109D01*
X166860248Y-112649683D01*
X166869500Y-112696682D01*
X166869500Y-114303316D01*
X166849815Y-114370355D01*
X166816623Y-114404891D01*
X166680859Y-114499953D01*
X166519954Y-114660858D01*
X166389432Y-114847265D01*
X166389431Y-114847267D01*
X166293261Y-115053502D01*
X166293258Y-115053511D01*
X166234366Y-115273302D01*
X166234364Y-115273313D01*
X166214532Y-115499998D01*
X166214532Y-115500001D01*
X166232423Y-115704501D01*
X166234365Y-115726692D01*
X166240974Y-115751357D01*
X166293258Y-115946488D01*
X166293261Y-115946497D01*
X166389431Y-116152732D01*
X166389432Y-116152734D01*
X166519954Y-116339141D01*
X166680858Y-116500045D01*
X166857779Y-116623925D01*
X166901404Y-116678501D01*
X166908598Y-116748000D01*
X166877076Y-116810355D01*
X166816846Y-116845769D01*
X166786656Y-116849500D01*
X162220807Y-116849500D01*
X162153768Y-116829815D01*
X162133126Y-116813181D01*
X161206884Y-115886938D01*
X161173399Y-115825615D01*
X161174791Y-115767162D01*
X161185635Y-115726694D01*
X161185634Y-115726693D01*
X161185635Y-115726692D01*
X161205468Y-115500000D01*
X161185635Y-115273308D01*
X161126739Y-115053504D01*
X161030568Y-114847266D01*
X160920268Y-114689740D01*
X160900045Y-114660858D01*
X160739141Y-114499954D01*
X160552734Y-114369432D01*
X160552732Y-114369431D01*
X160346497Y-114273261D01*
X160346488Y-114273258D01*
X160126697Y-114214366D01*
X160126693Y-114214365D01*
X160126692Y-114214365D01*
X160126691Y-114214364D01*
X160126686Y-114214364D01*
X159900002Y-114194532D01*
X159899998Y-114194532D01*
X159673313Y-114214364D01*
X159673302Y-114214366D01*
X159453511Y-114273258D01*
X159453502Y-114273261D01*
X159247267Y-114369431D01*
X159247265Y-114369432D01*
X159060858Y-114499954D01*
X158899954Y-114660858D01*
X158769432Y-114847265D01*
X158769431Y-114847267D01*
X158673261Y-115053502D01*
X158673258Y-115053511D01*
X158614366Y-115273302D01*
X158614364Y-115273313D01*
X158594532Y-115499998D01*
X158594532Y-115500001D01*
X158612423Y-115704501D01*
X158614365Y-115726692D01*
X158620974Y-115751357D01*
X158673258Y-115946488D01*
X158673261Y-115946497D01*
X158769431Y-116152732D01*
X158769432Y-116152734D01*
X158899954Y-116339141D01*
X159060858Y-116500045D01*
X159060861Y-116500047D01*
X159247266Y-116630568D01*
X159453504Y-116726739D01*
X159673308Y-116785635D01*
X159835230Y-116799801D01*
X159899998Y-116805468D01*
X159900000Y-116805468D01*
X159900002Y-116805468D01*
X159931421Y-116802719D01*
X160126692Y-116785635D01*
X160167162Y-116774791D01*
X160237012Y-116776452D01*
X160286938Y-116806884D01*
X161394724Y-117914669D01*
X161443710Y-117963655D01*
X161485332Y-118005277D01*
X161591866Y-118076461D01*
X161591875Y-118076466D01*
X161613277Y-118085331D01*
X161710256Y-118125501D01*
X161710260Y-118125501D01*
X161710261Y-118125502D01*
X161835928Y-118150500D01*
X161835931Y-118150500D01*
X165713470Y-118150500D01*
X165780509Y-118170185D01*
X165826264Y-118222989D01*
X165836208Y-118292147D01*
X165813788Y-118347385D01*
X165731132Y-118461151D01*
X165616760Y-118685616D01*
X165538910Y-118925214D01*
X165521421Y-119035633D01*
X165499500Y-119174038D01*
X165499500Y-121225962D01*
X165526374Y-121395634D01*
X165538910Y-121474785D01*
X165616760Y-121714383D01*
X165678177Y-121834919D01*
X165724940Y-121926697D01*
X165731132Y-121938848D01*
X165879201Y-122142649D01*
X165879205Y-122142654D01*
X166057345Y-122320794D01*
X166057350Y-122320798D01*
X166173628Y-122405278D01*
X166261155Y-122468870D01*
X166372300Y-122525501D01*
X166485616Y-122583239D01*
X166485618Y-122583239D01*
X166485621Y-122583241D01*
X166615681Y-122625500D01*
X166637437Y-122632569D01*
X166695112Y-122672007D01*
X166722310Y-122736366D01*
X166710395Y-122805212D01*
X166663151Y-122856688D01*
X166599118Y-122874500D01*
X161810453Y-122874500D01*
X161743414Y-122854815D01*
X161722772Y-122838181D01*
X156840237Y-117955647D01*
X156806752Y-117894324D01*
X156808143Y-117835872D01*
X156809766Y-117829815D01*
X156835063Y-117735408D01*
X156855659Y-117500000D01*
X156835063Y-117264592D01*
X156773903Y-117036337D01*
X156674035Y-116822171D01*
X156667741Y-116813181D01*
X156538494Y-116628597D01*
X156371402Y-116461506D01*
X156371396Y-116461501D01*
X156185842Y-116331575D01*
X156142217Y-116276998D01*
X156135023Y-116207500D01*
X156166546Y-116145145D01*
X156185842Y-116128425D01*
X156218599Y-116105488D01*
X156371401Y-115998495D01*
X156538495Y-115831401D01*
X156674035Y-115637830D01*
X156773903Y-115423663D01*
X156835063Y-115195408D01*
X156855659Y-114960000D01*
X156835063Y-114724592D01*
X156786552Y-114543543D01*
X156773905Y-114496344D01*
X156773904Y-114496343D01*
X156773903Y-114496337D01*
X156674035Y-114282171D01*
X156667797Y-114273261D01*
X156538494Y-114088597D01*
X156371402Y-113921506D01*
X156371395Y-113921501D01*
X156177834Y-113785967D01*
X156177830Y-113785965D01*
X156142877Y-113769666D01*
X155963663Y-113686097D01*
X155963659Y-113686096D01*
X155963655Y-113686094D01*
X155735413Y-113624938D01*
X155735403Y-113624936D01*
X155500001Y-113604341D01*
X155499999Y-113604341D01*
X155264596Y-113624936D01*
X155264586Y-113624938D01*
X155036344Y-113686094D01*
X155036335Y-113686098D01*
X154822171Y-113785964D01*
X154822169Y-113785965D01*
X154628597Y-113921505D01*
X154461505Y-114088597D01*
X154325965Y-114282169D01*
X154325964Y-114282171D01*
X154226098Y-114496335D01*
X154226094Y-114496344D01*
X154164938Y-114724586D01*
X154164936Y-114724596D01*
X154144341Y-114959999D01*
X154144341Y-114960000D01*
X154164936Y-115195403D01*
X154164938Y-115195413D01*
X154226094Y-115423655D01*
X154226096Y-115423659D01*
X154226097Y-115423663D01*
X154250246Y-115475450D01*
X154325965Y-115637830D01*
X154325967Y-115637834D01*
X154416524Y-115767162D01*
X154456265Y-115823918D01*
X154461501Y-115831395D01*
X154461506Y-115831402D01*
X154628597Y-115998493D01*
X154628603Y-115998498D01*
X154814158Y-116128425D01*
X154857783Y-116183002D01*
X154864977Y-116252500D01*
X154833454Y-116314855D01*
X154814158Y-116331575D01*
X154628597Y-116461505D01*
X154461505Y-116628597D01*
X154325965Y-116822169D01*
X154325964Y-116822171D01*
X154226098Y-117036335D01*
X154226094Y-117036344D01*
X154164938Y-117264586D01*
X154164936Y-117264596D01*
X154144341Y-117499999D01*
X154144341Y-117500000D01*
X154164936Y-117735403D01*
X154164938Y-117735413D01*
X154226094Y-117963655D01*
X154226096Y-117963659D01*
X154226097Y-117963663D01*
X154292427Y-118105908D01*
X154325965Y-118177830D01*
X154325967Y-118177834D01*
X154461501Y-118371395D01*
X154461506Y-118371402D01*
X154583430Y-118493326D01*
X154616915Y-118554649D01*
X154611931Y-118624341D01*
X154570059Y-118680274D01*
X154539083Y-118697189D01*
X154407669Y-118746203D01*
X154407664Y-118746206D01*
X154292455Y-118832452D01*
X154292452Y-118832455D01*
X154206206Y-118947664D01*
X154206202Y-118947671D01*
X154155908Y-119082517D01*
X154149501Y-119142116D01*
X154149500Y-119142135D01*
X154149500Y-120937870D01*
X154149501Y-120937876D01*
X154155908Y-120997483D01*
X154206202Y-121132328D01*
X154206206Y-121132335D01*
X154292452Y-121247544D01*
X154292455Y-121247547D01*
X154407664Y-121333793D01*
X154407671Y-121333797D01*
X154542517Y-121384091D01*
X154542516Y-121384091D01*
X154549028Y-121384791D01*
X154602127Y-121390500D01*
X156397872Y-121390499D01*
X156457483Y-121384091D01*
X156592331Y-121333796D01*
X156707546Y-121247546D01*
X156793796Y-121132331D01*
X156844091Y-120997483D01*
X156850500Y-120937873D01*
X156850499Y-120034450D01*
X156870183Y-119967412D01*
X156922987Y-119921657D01*
X156992146Y-119911713D01*
X157055702Y-119940738D01*
X157062179Y-119946769D01*
X161014141Y-123898732D01*
X161014142Y-123898733D01*
X161085299Y-123969890D01*
X161101268Y-123985859D01*
X161203707Y-124054307D01*
X161203713Y-124054310D01*
X161203714Y-124054311D01*
X161317548Y-124101463D01*
X161377400Y-124113368D01*
X161438391Y-124125499D01*
X161438392Y-124125500D01*
X161438393Y-124125500D01*
X170561607Y-124125500D01*
X170561608Y-124125499D01*
X170682452Y-124101463D01*
X170796286Y-124054311D01*
X170898733Y-123985858D01*
X170985858Y-123898733D01*
X171054311Y-123796286D01*
X171101463Y-123682452D01*
X171125500Y-123561606D01*
X171125500Y-121701961D01*
X171127883Y-121677769D01*
X171150500Y-121564071D01*
X171150500Y-119820807D01*
X171170185Y-119753768D01*
X171186815Y-119733130D01*
X171687819Y-119232125D01*
X171749142Y-119198641D01*
X171818834Y-119203625D01*
X171874767Y-119245497D01*
X171899184Y-119310961D01*
X171899500Y-119319807D01*
X171899500Y-120847870D01*
X171899501Y-120847876D01*
X171905908Y-120907483D01*
X171956202Y-121042328D01*
X171956206Y-121042335D01*
X172042452Y-121157544D01*
X172042455Y-121157547D01*
X172157664Y-121243793D01*
X172157671Y-121243797D01*
X172292517Y-121294091D01*
X172292516Y-121294091D01*
X172299444Y-121294835D01*
X172352127Y-121300500D01*
X173725500Y-121300499D01*
X173792539Y-121320184D01*
X173838294Y-121372987D01*
X173849500Y-121424499D01*
X173849500Y-125690498D01*
X173829815Y-125757537D01*
X173777011Y-125803292D01*
X173707853Y-125813236D01*
X173644297Y-125784211D01*
X173625184Y-125763386D01*
X173620798Y-125757349D01*
X173442654Y-125579205D01*
X173442649Y-125579201D01*
X173238848Y-125431132D01*
X173238847Y-125431131D01*
X173238845Y-125431130D01*
X173168747Y-125395413D01*
X173014383Y-125316760D01*
X172774785Y-125238910D01*
X172525962Y-125199500D01*
X170474038Y-125199500D01*
X170349626Y-125219205D01*
X170225214Y-125238910D01*
X169985616Y-125316760D01*
X169761151Y-125431132D01*
X169557350Y-125579201D01*
X169557345Y-125579205D01*
X169379205Y-125757345D01*
X169379201Y-125757350D01*
X169231132Y-125961151D01*
X169116760Y-126185616D01*
X169038910Y-126425214D01*
X169037939Y-126431344D01*
X168999500Y-126674038D01*
X168999500Y-126925962D01*
X169027438Y-127102352D01*
X169038910Y-127174785D01*
X169116760Y-127414383D01*
X169159987Y-127499219D01*
X169227737Y-127632186D01*
X169231132Y-127638848D01*
X169286453Y-127714992D01*
X169309933Y-127780798D01*
X169294107Y-127848852D01*
X169244001Y-127897547D01*
X169205533Y-127910350D01*
X169025214Y-127938909D01*
X168785616Y-128016760D01*
X168561151Y-128131132D01*
X168357350Y-128279201D01*
X168357345Y-128279205D01*
X168179205Y-128457345D01*
X168179201Y-128457350D01*
X168031132Y-128661151D01*
X167916760Y-128885616D01*
X167838910Y-129125214D01*
X167805027Y-129339141D01*
X167799500Y-129374038D01*
X167799500Y-129625962D01*
X167815462Y-129726739D01*
X167838910Y-129874785D01*
X167916760Y-130114383D01*
X168031132Y-130338848D01*
X168179201Y-130542649D01*
X168179205Y-130542654D01*
X168357345Y-130720794D01*
X168357350Y-130720798D01*
X168432203Y-130775182D01*
X168474869Y-130830512D01*
X168480848Y-130900125D01*
X168448243Y-130961920D01*
X168387404Y-130996277D01*
X168359318Y-130999500D01*
X155758676Y-130999500D01*
X155691637Y-130979815D01*
X155670995Y-130963181D01*
X152807316Y-128099502D01*
X152807314Y-128099500D01*
X152727647Y-128053504D01*
X152693187Y-128033608D01*
X152629539Y-128016554D01*
X152565892Y-127999500D01*
X138565893Y-127999500D01*
X138434108Y-127999500D01*
X138306812Y-128033608D01*
X138192686Y-128099500D01*
X138192683Y-128099502D01*
X135329005Y-130963181D01*
X135267682Y-130996666D01*
X135241324Y-130999500D01*
X96624500Y-130999500D01*
X96557461Y-130979815D01*
X96511706Y-130927011D01*
X96500500Y-130875500D01*
X96500500Y-77124500D01*
X96520185Y-77057461D01*
X96572989Y-77011706D01*
X96624500Y-77000500D01*
X123241324Y-77000500D01*
X123308363Y-77020185D01*
G37*
%TD.AperFunction*%
%TA.AperFunction,Conductor*%
G36*
X180418834Y-113453624D02*
G01*
X180474767Y-113495496D01*
X180499184Y-113560960D01*
X180499500Y-113569806D01*
X180499500Y-130875500D01*
X180479815Y-130942539D01*
X180427011Y-130988294D01*
X180375500Y-130999500D01*
X172240682Y-130999500D01*
X172173643Y-130979815D01*
X172127888Y-130927011D01*
X172117944Y-130857853D01*
X172146969Y-130794297D01*
X172167797Y-130775182D01*
X172242649Y-130720798D01*
X172242647Y-130720798D01*
X172242656Y-130720793D01*
X172420793Y-130542656D01*
X172530643Y-130391458D01*
X172543269Y-130376675D01*
X175005277Y-127914669D01*
X175076466Y-127808126D01*
X175100749Y-127749500D01*
X175113419Y-127718913D01*
X175113419Y-127718912D01*
X175115043Y-127714992D01*
X175125501Y-127689744D01*
X175136950Y-127632186D01*
X175150500Y-127564071D01*
X175150500Y-121424499D01*
X175170185Y-121357460D01*
X175222989Y-121311705D01*
X175274500Y-121300499D01*
X176447871Y-121300499D01*
X176447872Y-121300499D01*
X176507483Y-121294091D01*
X176642331Y-121243796D01*
X176757546Y-121157546D01*
X176843796Y-121042331D01*
X176894091Y-120907483D01*
X176900500Y-120847873D01*
X176900499Y-118552128D01*
X176894091Y-118492517D01*
X176882392Y-118461151D01*
X176843797Y-118357671D01*
X176843793Y-118357664D01*
X176757547Y-118242455D01*
X176757544Y-118242452D01*
X176642335Y-118156206D01*
X176642328Y-118156202D01*
X176507482Y-118105908D01*
X176507483Y-118105908D01*
X176447883Y-118099501D01*
X176447881Y-118099500D01*
X176447873Y-118099500D01*
X176447865Y-118099500D01*
X173119807Y-118099500D01*
X173052768Y-118079815D01*
X173007013Y-118027011D01*
X172997069Y-117957853D01*
X173026094Y-117894297D01*
X173032126Y-117887819D01*
X174396687Y-116523258D01*
X175804521Y-115115423D01*
X175852273Y-115087862D01*
X175851629Y-115086092D01*
X175856713Y-115084241D01*
X175856721Y-115084239D01*
X176062959Y-114988068D01*
X176249364Y-114857547D01*
X176406499Y-114700411D01*
X176467821Y-114666928D01*
X176537512Y-114671912D01*
X176593446Y-114713783D01*
X176614854Y-114759570D01*
X176616133Y-114764980D01*
X176666427Y-114899828D01*
X176666431Y-114899835D01*
X176752677Y-115015044D01*
X176752680Y-115015047D01*
X176867889Y-115101293D01*
X176867896Y-115101297D01*
X177002742Y-115151591D01*
X177002741Y-115151591D01*
X177009669Y-115152335D01*
X177062352Y-115158000D01*
X178758097Y-115157999D01*
X178817708Y-115151591D01*
X178952556Y-115101296D01*
X179067771Y-115015046D01*
X179154021Y-114899831D01*
X179204316Y-114764983D01*
X179210725Y-114705373D01*
X179210724Y-114610580D01*
X179230408Y-114543543D01*
X179247038Y-114522905D01*
X180287820Y-113482123D01*
X180349142Y-113448640D01*
X180418834Y-113453624D01*
G37*
%TD.AperFunction*%
%TA.AperFunction,Conductor*%
G36*
X136786834Y-105228217D02*
G01*
X136842012Y-105271079D01*
X136865257Y-105336969D01*
X136863052Y-105367799D01*
X136849500Y-105435928D01*
X136849500Y-111039191D01*
X136829815Y-111106230D01*
X136813181Y-111126872D01*
X136556937Y-111383115D01*
X136495614Y-111416600D01*
X136437163Y-111415209D01*
X136396697Y-111404366D01*
X136396693Y-111404365D01*
X136396692Y-111404365D01*
X136396691Y-111404364D01*
X136396686Y-111404364D01*
X136170002Y-111384532D01*
X136169998Y-111384532D01*
X135943313Y-111404364D01*
X135943302Y-111404366D01*
X135723511Y-111463258D01*
X135723502Y-111463261D01*
X135517267Y-111559431D01*
X135517265Y-111559432D01*
X135330858Y-111689954D01*
X135169954Y-111850858D01*
X135039432Y-112037265D01*
X135039431Y-112037267D01*
X134943261Y-112243502D01*
X134943258Y-112243511D01*
X134884366Y-112463302D01*
X134884364Y-112463313D01*
X134864532Y-112689998D01*
X134864532Y-112690001D01*
X134884364Y-112916686D01*
X134884366Y-112916697D01*
X134895209Y-112957163D01*
X134893546Y-113027013D01*
X134863115Y-113076937D01*
X134126873Y-113813181D01*
X134065550Y-113846666D01*
X134039192Y-113849500D01*
X132430808Y-113849500D01*
X132363769Y-113829815D01*
X132343127Y-113813181D01*
X131806884Y-113276938D01*
X131773399Y-113215615D01*
X131774791Y-113157162D01*
X131785633Y-113116699D01*
X131785632Y-113116699D01*
X131785635Y-113116692D01*
X131805468Y-112890000D01*
X131785635Y-112663308D01*
X131732047Y-112463313D01*
X131726741Y-112443511D01*
X131726738Y-112443502D01*
X131718615Y-112426082D01*
X131630568Y-112237266D01*
X131500047Y-112050861D01*
X131500045Y-112050858D01*
X131339141Y-111889954D01*
X131152734Y-111759432D01*
X131152732Y-111759431D01*
X130946497Y-111663261D01*
X130946488Y-111663258D01*
X130726697Y-111604366D01*
X130726693Y-111604365D01*
X130726692Y-111604365D01*
X130726691Y-111604364D01*
X130726686Y-111604364D01*
X130500002Y-111584532D01*
X130499998Y-111584532D01*
X130273313Y-111604364D01*
X130273302Y-111604366D01*
X130053511Y-111663258D01*
X130053502Y-111663261D01*
X129847267Y-111759431D01*
X129847265Y-111759432D01*
X129660858Y-111889954D01*
X129499954Y-112050858D01*
X129369432Y-112237265D01*
X129369431Y-112237267D01*
X129273261Y-112443502D01*
X129273258Y-112443511D01*
X129214366Y-112663302D01*
X129214364Y-112663313D01*
X129194532Y-112889998D01*
X129194532Y-112890001D01*
X129214364Y-113116686D01*
X129214366Y-113116697D01*
X129273258Y-113336488D01*
X129273261Y-113336497D01*
X129369431Y-113542732D01*
X129369432Y-113542734D01*
X129499954Y-113729141D01*
X129660858Y-113890045D01*
X129675867Y-113900554D01*
X129847266Y-114020568D01*
X130053504Y-114116739D01*
X130273308Y-114175635D01*
X130435230Y-114189801D01*
X130499998Y-114195468D01*
X130500000Y-114195468D01*
X130500002Y-114195468D01*
X130531421Y-114192719D01*
X130726692Y-114175635D01*
X130767162Y-114164791D01*
X130837012Y-114166452D01*
X130886938Y-114196884D01*
X131695325Y-115005272D01*
X131695326Y-115005273D01*
X131695329Y-115005275D01*
X131695331Y-115005277D01*
X131797365Y-115073453D01*
X131801873Y-115076465D01*
X131920256Y-115125501D01*
X131920260Y-115125501D01*
X131920261Y-115125502D01*
X132045928Y-115150500D01*
X132045931Y-115150500D01*
X134564071Y-115150500D01*
X134648615Y-115133682D01*
X134689744Y-115125501D01*
X134808127Y-115076465D01*
X134914669Y-115005276D01*
X135005276Y-114914669D01*
X135076465Y-114808127D01*
X135125501Y-114689744D01*
X135126927Y-114682573D01*
X135159310Y-114620662D01*
X135160808Y-114619136D01*
X135783062Y-113996882D01*
X135844383Y-113963399D01*
X135902834Y-113964790D01*
X135943308Y-113975635D01*
X136105230Y-113989801D01*
X136169998Y-113995468D01*
X136170000Y-113995468D01*
X136170002Y-113995468D01*
X136226673Y-113990509D01*
X136396692Y-113975635D01*
X136616496Y-113916739D01*
X136822734Y-113820568D01*
X137009139Y-113690047D01*
X137170047Y-113529139D01*
X137300568Y-113342734D01*
X137396739Y-113136496D01*
X137455635Y-112916692D01*
X137475468Y-112690000D01*
X137475099Y-112685787D01*
X137465285Y-112573609D01*
X137455635Y-112463308D01*
X137444790Y-112422834D01*
X137446453Y-112352984D01*
X137476882Y-112303062D01*
X138005277Y-111774669D01*
X138076465Y-111668127D01*
X138125501Y-111549744D01*
X138135396Y-111500000D01*
X138146238Y-111445497D01*
X138150500Y-111424071D01*
X138150500Y-106274500D01*
X138170185Y-106207461D01*
X138222989Y-106161706D01*
X138274500Y-106150500D01*
X142599192Y-106150500D01*
X142666231Y-106170185D01*
X142686873Y-106186819D01*
X142783845Y-106283791D01*
X142817330Y-106345114D01*
X142812346Y-106414806D01*
X142770474Y-106470739D01*
X142705010Y-106495156D01*
X142685362Y-106495001D01*
X142683238Y-106494815D01*
X142680000Y-106494532D01*
X142679999Y-106494532D01*
X142679998Y-106494532D01*
X142453313Y-106514364D01*
X142453302Y-106514366D01*
X142233511Y-106573258D01*
X142233502Y-106573261D01*
X142027267Y-106669431D01*
X142027265Y-106669432D01*
X141840858Y-106799954D01*
X141679954Y-106960858D01*
X141662725Y-106985464D01*
X141608147Y-107029088D01*
X141538648Y-107036280D01*
X141476294Y-107004757D01*
X141440882Y-106944526D01*
X141437861Y-106927591D01*
X141434091Y-106892516D01*
X141383797Y-106757671D01*
X141383793Y-106757664D01*
X141297547Y-106642455D01*
X141297544Y-106642452D01*
X141182335Y-106556206D01*
X141182328Y-106556202D01*
X141047482Y-106505908D01*
X141047483Y-106505908D01*
X140987883Y-106499501D01*
X140987881Y-106499500D01*
X140987873Y-106499500D01*
X140987864Y-106499500D01*
X139292129Y-106499500D01*
X139292123Y-106499501D01*
X139232516Y-106505908D01*
X139097671Y-106556202D01*
X139097664Y-106556206D01*
X138982455Y-106642452D01*
X138982452Y-106642455D01*
X138896206Y-106757664D01*
X138896202Y-106757671D01*
X138845908Y-106892517D01*
X138839501Y-106952116D01*
X138839500Y-106952135D01*
X138839500Y-108647870D01*
X138839501Y-108647876D01*
X138845908Y-108707483D01*
X138896202Y-108842328D01*
X138896206Y-108842335D01*
X138982452Y-108957544D01*
X138982455Y-108957547D01*
X139097666Y-109043794D01*
X139097664Y-109043794D01*
X139097668Y-109043795D01*
X139097669Y-109043796D01*
X139098832Y-109044229D01*
X139099827Y-109044974D01*
X139105452Y-109048046D01*
X139105010Y-109048854D01*
X139154765Y-109086099D01*
X139179184Y-109151563D01*
X139179500Y-109160412D01*
X139179500Y-111493316D01*
X139159815Y-111560355D01*
X139126623Y-111594891D01*
X138990859Y-111689953D01*
X138829954Y-111850858D01*
X138699432Y-112037265D01*
X138699431Y-112037267D01*
X138603261Y-112243502D01*
X138603258Y-112243511D01*
X138544366Y-112463302D01*
X138544364Y-112463313D01*
X138524532Y-112689998D01*
X138524532Y-112690001D01*
X138544364Y-112916686D01*
X138544366Y-112916697D01*
X138603258Y-113136488D01*
X138603261Y-113136497D01*
X138699431Y-113342732D01*
X138699432Y-113342734D01*
X138829954Y-113529141D01*
X138990857Y-113690044D01*
X138990860Y-113690046D01*
X138990861Y-113690047D01*
X139104572Y-113769667D01*
X139148197Y-113824243D01*
X139155391Y-113893741D01*
X139123869Y-113956096D01*
X139121130Y-113958923D01*
X137266873Y-115813181D01*
X137205550Y-115846666D01*
X137179192Y-115849500D01*
X134435929Y-115849500D01*
X134310261Y-115874497D01*
X134310255Y-115874499D01*
X134191870Y-115923535D01*
X134085331Y-115994722D01*
X134085324Y-115994728D01*
X132494726Y-117585326D01*
X132494723Y-117585331D01*
X132424964Y-117689736D01*
X132424959Y-117689743D01*
X132423534Y-117691873D01*
X132374499Y-117810255D01*
X132374497Y-117810261D01*
X132349500Y-117935928D01*
X132349500Y-118913316D01*
X132329815Y-118980355D01*
X132296623Y-119014891D01*
X132160859Y-119109953D01*
X131999954Y-119270858D01*
X131877755Y-119445379D01*
X131869432Y-119457266D01*
X131862380Y-119472387D01*
X131816209Y-119524825D01*
X131749015Y-119543976D01*
X131682134Y-119523760D01*
X131637619Y-119472387D01*
X131630568Y-119457266D01*
X131518798Y-119297640D01*
X131500045Y-119270858D01*
X131339141Y-119109954D01*
X131152734Y-118979432D01*
X131152732Y-118979431D01*
X130946497Y-118883261D01*
X130946488Y-118883258D01*
X130726697Y-118824366D01*
X130726693Y-118824365D01*
X130726692Y-118824365D01*
X130726691Y-118824364D01*
X130726686Y-118824364D01*
X130500002Y-118804532D01*
X130499998Y-118804532D01*
X130273313Y-118824364D01*
X130273302Y-118824366D01*
X130053511Y-118883258D01*
X130053502Y-118883261D01*
X129847267Y-118979431D01*
X129847265Y-118979432D01*
X129660858Y-119109954D01*
X129499954Y-119270858D01*
X129369430Y-119457268D01*
X129308513Y-119587905D01*
X129262340Y-119640344D01*
X129196131Y-119659500D01*
X128696683Y-119659500D01*
X128629644Y-119639815D01*
X128595108Y-119606623D01*
X128500045Y-119470858D01*
X128339141Y-119309954D01*
X128152734Y-119179432D01*
X128152732Y-119179431D01*
X127946497Y-119083261D01*
X127946488Y-119083258D01*
X127726697Y-119024366D01*
X127726693Y-119024365D01*
X127726692Y-119024365D01*
X127726691Y-119024364D01*
X127726686Y-119024364D01*
X127500002Y-119004532D01*
X127499998Y-119004532D01*
X127273313Y-119024364D01*
X127273302Y-119024366D01*
X127053511Y-119083258D01*
X127053502Y-119083261D01*
X126847267Y-119179431D01*
X126847265Y-119179432D01*
X126660858Y-119309954D01*
X126499954Y-119470858D01*
X126369432Y-119657265D01*
X126369431Y-119657267D01*
X126273261Y-119863502D01*
X126273258Y-119863511D01*
X126214366Y-120083302D01*
X126214364Y-120083313D01*
X126194532Y-120309998D01*
X126194532Y-120310001D01*
X126214364Y-120536686D01*
X126214366Y-120536697D01*
X126273258Y-120756488D01*
X126273261Y-120756497D01*
X126369431Y-120962732D01*
X126369432Y-120962734D01*
X126499954Y-121149141D01*
X126660858Y-121310045D01*
X126660861Y-121310047D01*
X126847266Y-121440568D01*
X127053504Y-121536739D01*
X127273308Y-121595635D01*
X127435230Y-121609801D01*
X127499998Y-121615468D01*
X127500000Y-121615468D01*
X127500002Y-121615468D01*
X127556673Y-121610509D01*
X127726692Y-121595635D01*
X127946496Y-121536739D01*
X128152734Y-121440568D01*
X128339139Y-121310047D01*
X128500047Y-121149139D01*
X128564255Y-121057438D01*
X128595108Y-121013377D01*
X128649685Y-120969752D01*
X128696683Y-120960500D01*
X129459952Y-120960500D01*
X129526991Y-120980185D01*
X129547628Y-120996814D01*
X129649956Y-121099142D01*
X129660862Y-121110048D01*
X129728694Y-121157544D01*
X129847266Y-121240568D01*
X130053504Y-121336739D01*
X130273308Y-121395635D01*
X130435230Y-121409801D01*
X130499998Y-121415468D01*
X130500000Y-121415468D01*
X130500002Y-121415468D01*
X130531421Y-121412719D01*
X130726692Y-121395635D01*
X130767162Y-121384791D01*
X130837012Y-121386452D01*
X130886938Y-121416884D01*
X131475325Y-122005272D01*
X131475332Y-122005278D01*
X131541695Y-122049620D01*
X131541696Y-122049620D01*
X131581866Y-122076461D01*
X131581872Y-122076464D01*
X131581873Y-122076465D01*
X131700256Y-122125501D01*
X131700260Y-122125501D01*
X131700261Y-122125502D01*
X131825928Y-122150500D01*
X131825931Y-122150500D01*
X135044071Y-122150500D01*
X135128615Y-122133682D01*
X135169744Y-122125501D01*
X135288127Y-122076465D01*
X135328304Y-122049620D01*
X135328305Y-122049620D01*
X135377965Y-122016438D01*
X135394669Y-122005277D01*
X135783061Y-121616883D01*
X135844384Y-121583399D01*
X135902834Y-121584789D01*
X135943308Y-121595635D01*
X136105230Y-121609801D01*
X136169998Y-121615468D01*
X136170000Y-121615468D01*
X136170002Y-121615468D01*
X136226673Y-121610509D01*
X136396692Y-121595635D01*
X136616496Y-121536739D01*
X136822734Y-121440568D01*
X137009139Y-121310047D01*
X137170047Y-121149139D01*
X137300568Y-120962734D01*
X137396739Y-120756496D01*
X137455635Y-120536692D01*
X137475468Y-120310000D01*
X137455635Y-120083308D01*
X137410916Y-119916415D01*
X137396741Y-119863511D01*
X137396738Y-119863502D01*
X137354855Y-119773684D01*
X137300568Y-119657266D01*
X137170047Y-119470861D01*
X137170045Y-119470858D01*
X137009141Y-119309954D01*
X136822734Y-119179432D01*
X136822732Y-119179431D01*
X136616497Y-119083261D01*
X136616488Y-119083258D01*
X136396697Y-119024366D01*
X136396693Y-119024365D01*
X136396692Y-119024365D01*
X136396691Y-119024364D01*
X136396686Y-119024364D01*
X136170002Y-119004532D01*
X136169998Y-119004532D01*
X135943313Y-119024364D01*
X135943302Y-119024366D01*
X135723511Y-119083258D01*
X135723502Y-119083261D01*
X135517267Y-119179431D01*
X135517265Y-119179432D01*
X135330858Y-119309954D01*
X135169954Y-119470858D01*
X135039432Y-119657265D01*
X135039431Y-119657267D01*
X134943261Y-119863502D01*
X134943258Y-119863511D01*
X134884366Y-120083302D01*
X134884364Y-120083313D01*
X134864532Y-120309998D01*
X134864532Y-120310001D01*
X134884364Y-120536686D01*
X134884366Y-120536697D01*
X134895209Y-120577163D01*
X134893546Y-120647013D01*
X134863116Y-120696936D01*
X134746874Y-120813180D01*
X134685551Y-120846666D01*
X134659192Y-120849500D01*
X134284750Y-120849500D01*
X134217711Y-120829815D01*
X134171956Y-120777011D01*
X134162012Y-120707853D01*
X134172368Y-120673095D01*
X134189845Y-120635615D01*
X134226739Y-120556496D01*
X134285635Y-120336692D01*
X134305468Y-120110000D01*
X134285635Y-119883308D01*
X134226739Y-119663504D01*
X134130568Y-119457266D01*
X134021051Y-119300858D01*
X134000045Y-119270858D01*
X133839140Y-119109953D01*
X133703377Y-119014891D01*
X133659752Y-118960314D01*
X133650500Y-118913316D01*
X133650500Y-118320808D01*
X133670185Y-118253769D01*
X133686819Y-118233127D01*
X134733127Y-117186819D01*
X134794450Y-117153334D01*
X134820808Y-117150500D01*
X137564071Y-117150500D01*
X137648615Y-117133682D01*
X137689744Y-117125501D01*
X137808127Y-117076465D01*
X137846933Y-117050536D01*
X137914669Y-117005277D01*
X140335277Y-114584669D01*
X140406466Y-114478126D01*
X140435189Y-114408779D01*
X140455501Y-114359744D01*
X140480500Y-114234069D01*
X140480500Y-113886682D01*
X140500185Y-113819643D01*
X140533371Y-113785111D01*
X140669139Y-113690047D01*
X140830047Y-113529139D01*
X140888925Y-113445050D01*
X140943501Y-113401426D01*
X141012999Y-113394232D01*
X141075354Y-113425754D01*
X141110769Y-113485983D01*
X141114500Y-113516174D01*
X141114500Y-119024070D01*
X141114559Y-119024365D01*
X141128273Y-119093310D01*
X141131584Y-119109952D01*
X141131584Y-119109954D01*
X141139497Y-119149737D01*
X141139499Y-119149744D01*
X141188535Y-119268127D01*
X141259723Y-119374669D01*
X141259726Y-119374673D01*
X141259727Y-119374674D01*
X141608115Y-119723061D01*
X141641600Y-119784384D01*
X141640209Y-119842834D01*
X141629367Y-119883299D01*
X141629364Y-119883313D01*
X141609532Y-120109998D01*
X141609532Y-120110001D01*
X141629364Y-120336686D01*
X141629366Y-120336697D01*
X141688258Y-120556488D01*
X141688261Y-120556497D01*
X141784431Y-120762732D01*
X141784432Y-120762734D01*
X141914954Y-120949141D01*
X142003632Y-121037819D01*
X142037117Y-121099142D01*
X142032133Y-121168834D01*
X141990261Y-121224767D01*
X141924797Y-121249184D01*
X141915951Y-121249500D01*
X141740808Y-121249500D01*
X141673769Y-121229815D01*
X141653127Y-121213181D01*
X141136884Y-120696938D01*
X141103399Y-120635615D01*
X141104791Y-120577162D01*
X141115633Y-120536699D01*
X141115632Y-120536699D01*
X141115635Y-120536692D01*
X141135468Y-120310000D01*
X141115635Y-120083308D01*
X141070916Y-119916415D01*
X141056741Y-119863511D01*
X141056738Y-119863502D01*
X141014855Y-119773684D01*
X140960568Y-119657266D01*
X140830047Y-119470861D01*
X140830045Y-119470858D01*
X140669141Y-119309954D01*
X140482734Y-119179432D01*
X140482732Y-119179431D01*
X140276497Y-119083261D01*
X140276488Y-119083258D01*
X140056697Y-119024366D01*
X140056693Y-119024365D01*
X140056692Y-119024365D01*
X140056691Y-119024364D01*
X140056686Y-119024364D01*
X139830002Y-119004532D01*
X139829998Y-119004532D01*
X139603313Y-119024364D01*
X139603302Y-119024366D01*
X139383511Y-119083258D01*
X139383502Y-119083261D01*
X139177267Y-119179431D01*
X139177265Y-119179432D01*
X138990858Y-119309954D01*
X138829954Y-119470858D01*
X138699432Y-119657265D01*
X138699431Y-119657267D01*
X138603261Y-119863502D01*
X138603258Y-119863511D01*
X138544366Y-120083302D01*
X138544364Y-120083313D01*
X138524532Y-120309998D01*
X138524532Y-120310001D01*
X138544364Y-120536686D01*
X138544366Y-120536697D01*
X138603258Y-120756488D01*
X138603261Y-120756497D01*
X138699431Y-120962732D01*
X138699432Y-120962734D01*
X138829954Y-121149141D01*
X138990858Y-121310045D01*
X138990861Y-121310047D01*
X139177266Y-121440568D01*
X139383504Y-121536739D01*
X139603308Y-121595635D01*
X139765230Y-121609801D01*
X139829998Y-121615468D01*
X139830000Y-121615468D01*
X139830002Y-121615468D01*
X139861421Y-121612719D01*
X140056692Y-121595635D01*
X140097162Y-121584791D01*
X140167012Y-121586452D01*
X140216938Y-121616884D01*
X141005325Y-122405272D01*
X141005331Y-122405277D01*
X141111874Y-122476466D01*
X141181221Y-122505189D01*
X141181222Y-122505189D01*
X141195110Y-122510942D01*
X141249510Y-122554787D01*
X141271570Y-122621083D01*
X141254286Y-122688781D01*
X141203146Y-122736388D01*
X141147649Y-122749500D01*
X129426080Y-122749500D01*
X129281092Y-122778340D01*
X129281082Y-122778343D01*
X129144511Y-122834912D01*
X129144498Y-122834919D01*
X129021584Y-122917048D01*
X129021580Y-122917051D01*
X125725451Y-126213181D01*
X125664128Y-126246666D01*
X125637770Y-126249500D01*
X122874500Y-126249500D01*
X122807461Y-126229815D01*
X122761706Y-126177011D01*
X122750500Y-126125500D01*
X122750500Y-125626662D01*
X122770185Y-125559623D01*
X122803379Y-125525086D01*
X122839140Y-125500046D01*
X123000045Y-125339141D01*
X123000047Y-125339139D01*
X123130568Y-125152734D01*
X123137618Y-125137614D01*
X123183789Y-125085176D01*
X123250982Y-125066023D01*
X123317864Y-125086238D01*
X123362381Y-125137614D01*
X123369432Y-125152733D01*
X123369432Y-125152734D01*
X123499954Y-125339141D01*
X123660858Y-125500045D01*
X123660861Y-125500047D01*
X123847266Y-125630568D01*
X124053504Y-125726739D01*
X124273308Y-125785635D01*
X124435230Y-125799801D01*
X124499998Y-125805468D01*
X124500000Y-125805468D01*
X124500002Y-125805468D01*
X124556673Y-125800509D01*
X124726692Y-125785635D01*
X124946496Y-125726739D01*
X125152734Y-125630568D01*
X125339139Y-125500047D01*
X125500047Y-125339139D01*
X125630568Y-125152734D01*
X125726739Y-124946496D01*
X125785635Y-124726692D01*
X125805468Y-124500000D01*
X125785635Y-124273308D01*
X125734629Y-124082951D01*
X125726741Y-124053511D01*
X125726738Y-124053502D01*
X125695195Y-123985858D01*
X125630568Y-123847266D01*
X125500047Y-123660861D01*
X125500045Y-123660858D01*
X125339141Y-123499954D01*
X125152734Y-123369432D01*
X125152732Y-123369431D01*
X124946497Y-123273261D01*
X124946488Y-123273258D01*
X124726697Y-123214366D01*
X124726693Y-123214365D01*
X124726692Y-123214365D01*
X124726691Y-123214364D01*
X124726686Y-123214364D01*
X124500002Y-123194532D01*
X124499997Y-123194532D01*
X124333137Y-123209129D01*
X124264637Y-123195362D01*
X124234650Y-123173282D01*
X122978421Y-121917052D01*
X122978414Y-121917046D01*
X122904729Y-121867812D01*
X122904729Y-121867813D01*
X122855491Y-121834913D01*
X122718917Y-121778343D01*
X122718907Y-121778340D01*
X122573920Y-121749500D01*
X122573918Y-121749500D01*
X115379556Y-121749500D01*
X115312517Y-121729815D01*
X115266762Y-121677011D01*
X115256818Y-121607853D01*
X115285843Y-121544297D01*
X115327151Y-121513118D01*
X115482734Y-121440568D01*
X115669139Y-121310047D01*
X115830047Y-121149139D01*
X115894255Y-121057438D01*
X115925108Y-121013377D01*
X115979685Y-120969752D01*
X116026683Y-120960500D01*
X116874952Y-120960500D01*
X116941991Y-120980185D01*
X116962628Y-120996814D01*
X117064956Y-121099142D01*
X117075862Y-121110048D01*
X117143694Y-121157544D01*
X117262266Y-121240568D01*
X117468504Y-121336739D01*
X117688308Y-121395635D01*
X117850230Y-121409801D01*
X117914998Y-121415468D01*
X117915000Y-121415468D01*
X117915002Y-121415468D01*
X117971673Y-121410509D01*
X118141692Y-121395635D01*
X118361496Y-121336739D01*
X118567734Y-121240568D01*
X118754139Y-121110047D01*
X118915047Y-120949139D01*
X119045568Y-120762734D01*
X119052618Y-120747614D01*
X119098789Y-120695176D01*
X119165982Y-120676023D01*
X119232864Y-120696238D01*
X119277381Y-120747614D01*
X119284432Y-120762733D01*
X119284432Y-120762734D01*
X119414954Y-120949141D01*
X119575858Y-121110045D01*
X119575861Y-121110047D01*
X119762266Y-121240568D01*
X119968504Y-121336739D01*
X120188308Y-121395635D01*
X120350230Y-121409801D01*
X120414998Y-121415468D01*
X120415000Y-121415468D01*
X120415002Y-121415468D01*
X120471673Y-121410509D01*
X120641692Y-121395635D01*
X120861496Y-121336739D01*
X121067734Y-121240568D01*
X121254139Y-121110047D01*
X121415047Y-120949139D01*
X121545568Y-120762734D01*
X121641739Y-120556496D01*
X121700635Y-120336692D01*
X121720468Y-120110000D01*
X121700635Y-119883308D01*
X121654700Y-119711875D01*
X121656363Y-119642027D01*
X121695526Y-119584164D01*
X121759754Y-119556660D01*
X121828656Y-119568246D01*
X121862156Y-119592102D01*
X122193115Y-119923061D01*
X122226600Y-119984384D01*
X122225209Y-120042834D01*
X122214367Y-120083299D01*
X122214364Y-120083313D01*
X122194532Y-120309998D01*
X122194532Y-120310001D01*
X122214364Y-120536686D01*
X122214366Y-120536697D01*
X122273258Y-120756488D01*
X122273261Y-120756497D01*
X122369431Y-120962732D01*
X122369432Y-120962734D01*
X122499954Y-121149141D01*
X122660858Y-121310045D01*
X122660861Y-121310047D01*
X122847266Y-121440568D01*
X123053504Y-121536739D01*
X123273308Y-121595635D01*
X123435230Y-121609801D01*
X123499998Y-121615468D01*
X123500000Y-121615468D01*
X123500002Y-121615468D01*
X123556673Y-121610509D01*
X123726692Y-121595635D01*
X123946496Y-121536739D01*
X124152734Y-121440568D01*
X124339139Y-121310047D01*
X124500047Y-121149139D01*
X124630568Y-120962734D01*
X124726739Y-120756496D01*
X124785635Y-120536692D01*
X124805468Y-120310000D01*
X124785635Y-120083308D01*
X124740916Y-119916415D01*
X124726741Y-119863511D01*
X124726738Y-119863502D01*
X124684855Y-119773684D01*
X124630568Y-119657266D01*
X124500047Y-119470861D01*
X124500045Y-119470858D01*
X124339141Y-119309954D01*
X124152734Y-119179432D01*
X124152732Y-119179431D01*
X123946497Y-119083261D01*
X123946488Y-119083258D01*
X123726697Y-119024366D01*
X123726693Y-119024365D01*
X123726692Y-119024365D01*
X123726691Y-119024364D01*
X123726686Y-119024364D01*
X123500002Y-119004532D01*
X123499998Y-119004532D01*
X123273313Y-119024364D01*
X123273299Y-119024367D01*
X123232834Y-119035209D01*
X123162984Y-119033545D01*
X123113061Y-119003115D01*
X118601819Y-114491873D01*
X118568334Y-114430550D01*
X118565500Y-114404192D01*
X118565500Y-114086682D01*
X118585185Y-114019643D01*
X118618371Y-113985111D01*
X118754139Y-113890047D01*
X118915047Y-113729139D01*
X119045568Y-113542734D01*
X119052618Y-113527614D01*
X119098789Y-113475176D01*
X119165982Y-113456023D01*
X119232864Y-113476238D01*
X119277381Y-113527614D01*
X119284432Y-113542733D01*
X119284432Y-113542734D01*
X119414954Y-113729141D01*
X119575858Y-113890045D01*
X119590867Y-113900554D01*
X119762266Y-114020568D01*
X119968504Y-114116739D01*
X120188308Y-114175635D01*
X120350230Y-114189801D01*
X120414998Y-114195468D01*
X120415000Y-114195468D01*
X120415002Y-114195468D01*
X120471673Y-114190509D01*
X120641692Y-114175635D01*
X120861496Y-114116739D01*
X121067734Y-114020568D01*
X121254139Y-113890047D01*
X121415047Y-113729139D01*
X121483895Y-113630813D01*
X121510108Y-113593377D01*
X121564685Y-113549752D01*
X121611683Y-113540500D01*
X122459952Y-113540500D01*
X122526991Y-113560185D01*
X122547628Y-113576814D01*
X122656908Y-113686094D01*
X122660862Y-113690048D01*
X122754063Y-113755307D01*
X122847266Y-113820568D01*
X123053504Y-113916739D01*
X123053509Y-113916740D01*
X123053511Y-113916741D01*
X123106415Y-113930916D01*
X123273308Y-113975635D01*
X123435230Y-113989801D01*
X123499998Y-113995468D01*
X123500000Y-113995468D01*
X123500002Y-113995468D01*
X123556673Y-113990509D01*
X123726692Y-113975635D01*
X123946496Y-113916739D01*
X124152734Y-113820568D01*
X124339139Y-113690047D01*
X124500047Y-113529139D01*
X124572437Y-113425754D01*
X124595108Y-113393377D01*
X124649685Y-113349752D01*
X124696683Y-113340500D01*
X126303317Y-113340500D01*
X126370356Y-113360185D01*
X126404892Y-113393377D01*
X126499954Y-113529141D01*
X126660858Y-113690045D01*
X126660861Y-113690047D01*
X126847266Y-113820568D01*
X127053504Y-113916739D01*
X127053509Y-113916740D01*
X127053511Y-113916741D01*
X127106415Y-113930916D01*
X127273308Y-113975635D01*
X127435230Y-113989801D01*
X127499998Y-113995468D01*
X127500000Y-113995468D01*
X127500002Y-113995468D01*
X127556673Y-113990509D01*
X127726692Y-113975635D01*
X127946496Y-113916739D01*
X128152734Y-113820568D01*
X128339139Y-113690047D01*
X128500047Y-113529139D01*
X128630568Y-113342734D01*
X128726739Y-113136496D01*
X128785635Y-112916692D01*
X128805468Y-112690000D01*
X128805099Y-112685787D01*
X128795285Y-112573609D01*
X128785635Y-112463308D01*
X128726739Y-112243504D01*
X128630568Y-112037266D01*
X128500047Y-111850861D01*
X128500045Y-111850858D01*
X128339141Y-111689954D01*
X128213377Y-111601894D01*
X128169752Y-111547317D01*
X128160500Y-111500319D01*
X128160500Y-109224499D01*
X128180185Y-109157460D01*
X128232989Y-109111705D01*
X128284500Y-109100499D01*
X128357871Y-109100499D01*
X128357872Y-109100499D01*
X128417483Y-109094091D01*
X128552331Y-109043796D01*
X128667546Y-108957546D01*
X128753796Y-108842331D01*
X128804091Y-108707483D01*
X128807862Y-108672401D01*
X128834599Y-108607855D01*
X128891990Y-108568006D01*
X128961816Y-108565511D01*
X129021905Y-108601163D01*
X129032726Y-108614536D01*
X129049956Y-108639143D01*
X129210858Y-108800045D01*
X129210861Y-108800047D01*
X129397266Y-108930568D01*
X129603504Y-109026739D01*
X129823308Y-109085635D01*
X129985230Y-109099801D01*
X130049998Y-109105468D01*
X130050000Y-109105468D01*
X130050002Y-109105468D01*
X130106807Y-109100498D01*
X130276692Y-109085635D01*
X130496496Y-109026739D01*
X130702734Y-108930568D01*
X130889139Y-108800047D01*
X131050047Y-108639139D01*
X131180568Y-108452734D01*
X131207618Y-108394724D01*
X131253790Y-108342285D01*
X131320983Y-108323133D01*
X131387865Y-108343348D01*
X131432382Y-108394725D01*
X131459429Y-108452728D01*
X131459432Y-108452734D01*
X131589954Y-108639141D01*
X131750858Y-108800045D01*
X131750861Y-108800047D01*
X131937266Y-108930568D01*
X132143504Y-109026739D01*
X132363308Y-109085635D01*
X132525230Y-109099801D01*
X132589998Y-109105468D01*
X132590000Y-109105468D01*
X132590002Y-109105468D01*
X132646807Y-109100498D01*
X132816692Y-109085635D01*
X133036496Y-109026739D01*
X133242734Y-108930568D01*
X133429139Y-108800047D01*
X133590047Y-108639139D01*
X133720568Y-108452734D01*
X133816739Y-108246496D01*
X133875635Y-108026692D01*
X133895468Y-107800000D01*
X133875635Y-107573308D01*
X133819420Y-107363511D01*
X133816741Y-107353511D01*
X133816738Y-107353502D01*
X133798861Y-107315164D01*
X133720568Y-107147266D01*
X133590047Y-106960861D01*
X133590045Y-106960858D01*
X133432958Y-106803771D01*
X133399473Y-106742448D01*
X133404457Y-106672756D01*
X133432956Y-106628411D01*
X134774549Y-105286819D01*
X134835872Y-105253334D01*
X134862230Y-105250500D01*
X136573919Y-105250500D01*
X136699598Y-105225500D01*
X136717243Y-105221990D01*
X136786834Y-105228217D01*
G37*
%TD.AperFunction*%
%TA.AperFunction,Conductor*%
G36*
X99823863Y-107340016D02*
G01*
X99879797Y-107381887D01*
X99904214Y-107447352D01*
X99903820Y-107469445D01*
X99899500Y-107509627D01*
X99899500Y-107509634D01*
X99899500Y-107509635D01*
X99899500Y-109805370D01*
X99899501Y-109805376D01*
X99905908Y-109864983D01*
X99956202Y-109999828D01*
X99956206Y-109999835D01*
X100042452Y-110115044D01*
X100042455Y-110115047D01*
X100157664Y-110201293D01*
X100157671Y-110201297D01*
X100292517Y-110251591D01*
X100292516Y-110251591D01*
X100299444Y-110252335D01*
X100352127Y-110258000D01*
X103286690Y-110257999D01*
X103353729Y-110277684D01*
X103374371Y-110294318D01*
X104085327Y-111005274D01*
X104136227Y-111039284D01*
X104191866Y-111076461D01*
X104191875Y-111076466D01*
X104209982Y-111083966D01*
X104310256Y-111125501D01*
X104310260Y-111125501D01*
X104310261Y-111125502D01*
X104435928Y-111150500D01*
X104435931Y-111150500D01*
X108985404Y-111150500D01*
X109009597Y-111152883D01*
X109035320Y-111158000D01*
X109035321Y-111158000D01*
X111556571Y-111158000D01*
X111641115Y-111141182D01*
X111682244Y-111133001D01*
X111800627Y-111083965D01*
X111813549Y-111075331D01*
X111907169Y-111012777D01*
X112733126Y-110186818D01*
X112794449Y-110153334D01*
X112820807Y-110150500D01*
X113630193Y-110150500D01*
X113697232Y-110170185D01*
X113742987Y-110222989D01*
X113752931Y-110292147D01*
X113723906Y-110355703D01*
X113717874Y-110362181D01*
X111994727Y-112085325D01*
X111994726Y-112085326D01*
X111937529Y-112170930D01*
X111937527Y-112170933D01*
X111923536Y-112191870D01*
X111923533Y-112191875D01*
X111874499Y-112310255D01*
X111874497Y-112310261D01*
X111849500Y-112435928D01*
X111849500Y-117564070D01*
X111862853Y-117631195D01*
X111862853Y-117631197D01*
X111874495Y-117689728D01*
X111874499Y-117689744D01*
X111923535Y-117808127D01*
X111994723Y-117914669D01*
X111994726Y-117914673D01*
X113085325Y-119005272D01*
X113085332Y-119005278D01*
X113191863Y-119076459D01*
X113191867Y-119076461D01*
X113191874Y-119076466D01*
X113241463Y-119097006D01*
X113310256Y-119125501D01*
X113310260Y-119125501D01*
X113310261Y-119125502D01*
X113435928Y-119150500D01*
X113435931Y-119150500D01*
X113850951Y-119150500D01*
X113917990Y-119170185D01*
X113963745Y-119222989D01*
X113973689Y-119292147D01*
X113944664Y-119355703D01*
X113938632Y-119362181D01*
X113829954Y-119470858D01*
X113699432Y-119657265D01*
X113699431Y-119657267D01*
X113603261Y-119863502D01*
X113603258Y-119863511D01*
X113544366Y-120083302D01*
X113544364Y-120083313D01*
X113524532Y-120309998D01*
X113524532Y-120310001D01*
X113544364Y-120536686D01*
X113544366Y-120536697D01*
X113603258Y-120756488D01*
X113603261Y-120756497D01*
X113699431Y-120962732D01*
X113699432Y-120962734D01*
X113829954Y-121149141D01*
X113990858Y-121310045D01*
X113990861Y-121310047D01*
X114177266Y-121440568D01*
X114332849Y-121513118D01*
X114385288Y-121559291D01*
X114404440Y-121626484D01*
X114384224Y-121693365D01*
X114331059Y-121738700D01*
X114280444Y-121749500D01*
X113806080Y-121749500D01*
X113661092Y-121778340D01*
X113661082Y-121778343D01*
X113524511Y-121834912D01*
X113524498Y-121834919D01*
X113405151Y-121914664D01*
X113405152Y-121914665D01*
X113401585Y-121917048D01*
X113401581Y-121917051D01*
X112462181Y-122856451D01*
X112400858Y-122889936D01*
X112331166Y-122884952D01*
X112275233Y-122843080D01*
X112250816Y-122777616D01*
X112250500Y-122768770D01*
X112250500Y-122331192D01*
X112238260Y-122269661D01*
X112226020Y-122208127D01*
X112221659Y-122186201D01*
X112167408Y-122055230D01*
X112165765Y-122050638D01*
X112165084Y-122049618D01*
X112132186Y-122000383D01*
X112091069Y-121938845D01*
X112082956Y-121926702D01*
X112082952Y-121926697D01*
X108136818Y-117980563D01*
X108103333Y-117919240D01*
X108100499Y-117892882D01*
X108100499Y-116857242D01*
X108100498Y-116857236D01*
X108100497Y-116857229D01*
X108094091Y-116797630D01*
X108089617Y-116785635D01*
X108043797Y-116662784D01*
X108043793Y-116662777D01*
X107957547Y-116547568D01*
X107957544Y-116547565D01*
X107842335Y-116461319D01*
X107842328Y-116461315D01*
X107707482Y-116411021D01*
X107707483Y-116411021D01*
X107647883Y-116404614D01*
X107647881Y-116404613D01*
X107647873Y-116404613D01*
X107647864Y-116404613D01*
X105952129Y-116404613D01*
X105952123Y-116404614D01*
X105892516Y-116411021D01*
X105757671Y-116461315D01*
X105757664Y-116461319D01*
X105642455Y-116547565D01*
X105642452Y-116547568D01*
X105556206Y-116662777D01*
X105556202Y-116662784D01*
X105505908Y-116797630D01*
X105500733Y-116845769D01*
X105499501Y-116857236D01*
X105499500Y-116857248D01*
X105499500Y-116875500D01*
X105479815Y-116942539D01*
X105427011Y-116988294D01*
X105375500Y-116999500D01*
X101611229Y-116999500D01*
X101544190Y-116979815D01*
X101498435Y-116927011D01*
X101488491Y-116857853D01*
X101517516Y-116794297D01*
X101523548Y-116787819D01*
X102082948Y-116228419D01*
X102082951Y-116228416D01*
X102165084Y-116105495D01*
X102221658Y-115968913D01*
X102240439Y-115874497D01*
X102250500Y-115823920D01*
X102250500Y-112426079D01*
X102221659Y-112281092D01*
X102221658Y-112281091D01*
X102221658Y-112281087D01*
X102203507Y-112237266D01*
X102165087Y-112144511D01*
X102165080Y-112144498D01*
X102082951Y-112021584D01*
X102082948Y-112021580D01*
X101978419Y-111917051D01*
X101978415Y-111917048D01*
X101855501Y-111834919D01*
X101855488Y-111834912D01*
X101718917Y-111778343D01*
X101718907Y-111778340D01*
X101573920Y-111749500D01*
X101573918Y-111749500D01*
X99374500Y-111749500D01*
X99307461Y-111729815D01*
X99261706Y-111677011D01*
X99250500Y-111625500D01*
X99250500Y-107862229D01*
X99270185Y-107795190D01*
X99286819Y-107774548D01*
X99488065Y-107573302D01*
X99692851Y-107368515D01*
X99754172Y-107335032D01*
X99823863Y-107340016D01*
G37*
%TD.AperFunction*%
%TA.AperFunction,Conductor*%
G36*
X149810354Y-113332923D02*
G01*
X149845769Y-113393153D01*
X149849500Y-113423343D01*
X149849500Y-117179192D01*
X149829815Y-117246231D01*
X149813181Y-117266873D01*
X147994725Y-119085328D01*
X147994722Y-119085332D01*
X147989391Y-119093310D01*
X147938700Y-119136793D01*
X147847268Y-119179430D01*
X147847264Y-119179432D01*
X147660858Y-119309954D01*
X147499954Y-119470858D01*
X147369432Y-119657265D01*
X147369431Y-119657267D01*
X147273261Y-119863502D01*
X147273258Y-119863511D01*
X147214366Y-120083302D01*
X147214364Y-120083313D01*
X147194532Y-120309998D01*
X147194532Y-120310001D01*
X147214364Y-120536686D01*
X147214366Y-120536697D01*
X147225209Y-120577163D01*
X147223546Y-120647013D01*
X147193115Y-120696937D01*
X146676873Y-121213181D01*
X146615550Y-121246666D01*
X146589192Y-121249500D01*
X143914049Y-121249500D01*
X143847010Y-121229815D01*
X143801255Y-121177011D01*
X143791311Y-121107853D01*
X143820336Y-121044297D01*
X143826368Y-121037819D01*
X143915045Y-120949141D01*
X143915047Y-120949139D01*
X144045568Y-120762734D01*
X144141739Y-120556496D01*
X144200635Y-120336692D01*
X144220468Y-120110000D01*
X144200635Y-119883308D01*
X144141739Y-119663504D01*
X144045568Y-119457266D01*
X143936051Y-119300858D01*
X143915045Y-119270858D01*
X143754140Y-119109953D01*
X143618377Y-119014891D01*
X143574752Y-118960314D01*
X143565500Y-118913316D01*
X143565500Y-115405808D01*
X143585185Y-115338769D01*
X143601819Y-115318127D01*
X143733127Y-115186819D01*
X143794450Y-115153334D01*
X143820808Y-115150500D01*
X146754071Y-115150500D01*
X146838615Y-115133682D01*
X146879744Y-115125501D01*
X146998127Y-115076465D01*
X147002635Y-115073453D01*
X147104669Y-115005277D01*
X148113062Y-113996882D01*
X148174383Y-113963399D01*
X148232834Y-113964790D01*
X148273308Y-113975635D01*
X148435230Y-113989801D01*
X148499998Y-113995468D01*
X148500000Y-113995468D01*
X148500002Y-113995468D01*
X148556673Y-113990509D01*
X148726692Y-113975635D01*
X148946496Y-113916739D01*
X149152734Y-113820568D01*
X149339139Y-113690047D01*
X149500047Y-113529139D01*
X149623927Y-113352218D01*
X149678501Y-113308595D01*
X149747999Y-113301401D01*
X149810354Y-113332923D01*
G37*
%TD.AperFunction*%
%TA.AperFunction,Conductor*%
G36*
X113355703Y-99576095D02*
G01*
X113362181Y-99582127D01*
X113573115Y-99793061D01*
X113606600Y-99854384D01*
X113605209Y-99912834D01*
X113594367Y-99953299D01*
X113594364Y-99953313D01*
X113574532Y-100179998D01*
X113574532Y-100180001D01*
X113594364Y-100406686D01*
X113594366Y-100406697D01*
X113653258Y-100626488D01*
X113653261Y-100626497D01*
X113749431Y-100832732D01*
X113749432Y-100832734D01*
X113879954Y-101019141D01*
X114040858Y-101180045D01*
X114040861Y-101180047D01*
X114227266Y-101310568D01*
X114433504Y-101406739D01*
X114653308Y-101465635D01*
X114815230Y-101479801D01*
X114879998Y-101485468D01*
X114880000Y-101485468D01*
X114880002Y-101485468D01*
X114936673Y-101480509D01*
X115106692Y-101465635D01*
X115326496Y-101406739D01*
X115532734Y-101310568D01*
X115719139Y-101180047D01*
X115880047Y-101019139D01*
X116010568Y-100832734D01*
X116037618Y-100774724D01*
X116083790Y-100722285D01*
X116150983Y-100703133D01*
X116217865Y-100723348D01*
X116262381Y-100774724D01*
X116276517Y-100805038D01*
X116289429Y-100832728D01*
X116289432Y-100832734D01*
X116419954Y-101019141D01*
X116580858Y-101180045D01*
X116580861Y-101180047D01*
X116767266Y-101310568D01*
X116973504Y-101406739D01*
X117193308Y-101465635D01*
X117355230Y-101479801D01*
X117419998Y-101485468D01*
X117420000Y-101485468D01*
X117420002Y-101485468D01*
X117476673Y-101480509D01*
X117646692Y-101465635D01*
X117866496Y-101406739D01*
X118072734Y-101310568D01*
X118259139Y-101180047D01*
X118420047Y-101019139D01*
X118550568Y-100832734D01*
X118577618Y-100774724D01*
X118623790Y-100722285D01*
X118690983Y-100703133D01*
X118757865Y-100723348D01*
X118802381Y-100774724D01*
X118816517Y-100805038D01*
X118829429Y-100832728D01*
X118829432Y-100832734D01*
X118959954Y-101019141D01*
X119120858Y-101180045D01*
X119120861Y-101180047D01*
X119307266Y-101310568D01*
X119513504Y-101406739D01*
X119733308Y-101465635D01*
X119895230Y-101479801D01*
X119959998Y-101485468D01*
X119960000Y-101485468D01*
X119960002Y-101485468D01*
X119991421Y-101482719D01*
X120186692Y-101465635D01*
X120206681Y-101460278D01*
X120227162Y-101454791D01*
X120297012Y-101456452D01*
X120346938Y-101486884D01*
X123813181Y-104953127D01*
X123846666Y-105014450D01*
X123849500Y-105040808D01*
X123849500Y-108725500D01*
X123829815Y-108792539D01*
X123777011Y-108838294D01*
X123725500Y-108849500D01*
X121049049Y-108849500D01*
X120982010Y-108829815D01*
X120936255Y-108777011D01*
X120926311Y-108707853D01*
X120955336Y-108644297D01*
X120959220Y-108640124D01*
X120960043Y-108639144D01*
X120969597Y-108625500D01*
X121090568Y-108452734D01*
X121186739Y-108246496D01*
X121245635Y-108026692D01*
X121265468Y-107800000D01*
X121245635Y-107573308D01*
X121189420Y-107363511D01*
X121186741Y-107353511D01*
X121186738Y-107353502D01*
X121168861Y-107315164D01*
X121090568Y-107147266D01*
X120960047Y-106960861D01*
X120960045Y-106960858D01*
X120799141Y-106799954D01*
X120612734Y-106669432D01*
X120612732Y-106669431D01*
X120406497Y-106573261D01*
X120406488Y-106573258D01*
X120186697Y-106514366D01*
X120186693Y-106514365D01*
X120186692Y-106514365D01*
X120186691Y-106514364D01*
X120186686Y-106514364D01*
X119960002Y-106494532D01*
X119959998Y-106494532D01*
X119733313Y-106514364D01*
X119733299Y-106514367D01*
X119692834Y-106525209D01*
X119622984Y-106523545D01*
X119573061Y-106493115D01*
X116074674Y-102994727D01*
X116074673Y-102994726D01*
X116074669Y-102994723D01*
X115968127Y-102923535D01*
X115941049Y-102912319D01*
X115849744Y-102874499D01*
X115849738Y-102874497D01*
X115724071Y-102849500D01*
X115724069Y-102849500D01*
X113274500Y-102849500D01*
X113207461Y-102829815D01*
X113161706Y-102777011D01*
X113150500Y-102725500D01*
X113150500Y-99669808D01*
X113170185Y-99602769D01*
X113222989Y-99557014D01*
X113292147Y-99547070D01*
X113355703Y-99576095D01*
G37*
%TD.AperFunction*%
%TA.AperFunction,Conductor*%
G36*
X135902834Y-88964790D02*
G01*
X135943308Y-88975635D01*
X136105230Y-88989801D01*
X136169998Y-88995468D01*
X136170000Y-88995468D01*
X136170002Y-88995468D01*
X136201421Y-88992719D01*
X136396692Y-88975635D01*
X136437162Y-88964791D01*
X136507012Y-88966452D01*
X136556938Y-88996884D01*
X136813181Y-89253127D01*
X136846666Y-89314450D01*
X136849500Y-89340808D01*
X136849500Y-93997271D01*
X136829815Y-94064310D01*
X136777011Y-94110065D01*
X136707853Y-94120009D01*
X136673096Y-94109654D01*
X136654872Y-94101156D01*
X136616496Y-94083261D01*
X136616493Y-94083260D01*
X136616488Y-94083258D01*
X136396697Y-94024366D01*
X136396693Y-94024365D01*
X136396692Y-94024365D01*
X136396691Y-94024364D01*
X136396686Y-94024364D01*
X136170002Y-94004532D01*
X136169998Y-94004532D01*
X135943313Y-94024364D01*
X135943302Y-94024366D01*
X135723511Y-94083258D01*
X135723502Y-94083261D01*
X135517267Y-94179431D01*
X135517265Y-94179432D01*
X135330858Y-94309954D01*
X135169954Y-94470858D01*
X135039432Y-94657265D01*
X135039431Y-94657267D01*
X134943261Y-94863502D01*
X134943258Y-94863511D01*
X134884366Y-95083302D01*
X134884364Y-95083313D01*
X134864532Y-95309998D01*
X134864532Y-95310001D01*
X134884364Y-95536686D01*
X134884366Y-95536697D01*
X134895209Y-95577163D01*
X134893546Y-95647013D01*
X134863116Y-95696936D01*
X134746874Y-95813180D01*
X134685551Y-95846666D01*
X134659192Y-95849500D01*
X131869750Y-95849500D01*
X131802711Y-95829815D01*
X131756956Y-95777011D01*
X131747012Y-95707853D01*
X131757368Y-95673095D01*
X131777199Y-95630567D01*
X131811739Y-95556496D01*
X131870635Y-95336692D01*
X131890468Y-95110000D01*
X131887321Y-95074035D01*
X131881306Y-95005277D01*
X131870635Y-94883308D01*
X131818691Y-94689450D01*
X131811741Y-94663511D01*
X131811738Y-94663502D01*
X131800939Y-94640344D01*
X131715568Y-94457266D01*
X131585047Y-94270861D01*
X131585045Y-94270858D01*
X131424140Y-94109953D01*
X131288377Y-94014891D01*
X131244752Y-93960314D01*
X131235500Y-93913316D01*
X131235500Y-93595807D01*
X131255185Y-93528768D01*
X131271814Y-93508131D01*
X135783062Y-88996882D01*
X135844383Y-88963399D01*
X135902834Y-88964790D01*
G37*
%TD.AperFunction*%
%TD*%
M02*
