%TF.GenerationSoftware,KiCad,Pcbnew,8.0.2*%
%TF.CreationDate,2025-06-13T16:45:19+05:30*%
%TF.ProjectId,final schematics,66696e61-6c20-4736-9368-656d61746963,1.0*%
%TF.SameCoordinates,Original*%
%TF.FileFunction,Soldermask,Top*%
%TF.FilePolarity,Negative*%
%FSLAX46Y46*%
G04 Gerber Fmt 4.6, Leading zero omitted, Abs format (unit mm)*
G04 Created by KiCad (PCBNEW 8.0.2) date 2025-06-13 16:45:19*
%MOMM*%
%LPD*%
G01*
G04 APERTURE LIST*
G04 Aperture macros list*
%AMRoundRect*
0 Rectangle with rounded corners*
0 $1 Rounding radius*
0 $2 $3 $4 $5 $6 $7 $8 $9 X,Y pos of 4 corners*
0 Add a 4 corners polygon primitive as box body*
4,1,4,$2,$3,$4,$5,$6,$7,$8,$9,$2,$3,0*
0 Add four circle primitives for the rounded corners*
1,1,$1+$1,$2,$3*
1,1,$1+$1,$4,$5*
1,1,$1+$1,$6,$7*
1,1,$1+$1,$8,$9*
0 Add four rect primitives between the rounded corners*
20,1,$1+$1,$2,$3,$4,$5,0*
20,1,$1+$1,$4,$5,$6,$7,0*
20,1,$1+$1,$6,$7,$8,$9,0*
20,1,$1+$1,$8,$9,$2,$3,0*%
G04 Aperture macros list end*
%ADD10C,1.600000*%
%ADD11O,1.600000X1.600000*%
%ADD12RoundRect,0.250000X0.750000X-0.600000X0.750000X0.600000X-0.750000X0.600000X-0.750000X-0.600000X0*%
%ADD13O,2.000000X1.700000*%
%ADD14R,1.600000X1.600000*%
%ADD15C,2.100000*%
%ADD16R,1.700000X1.700000*%
%ADD17O,1.700000X1.700000*%
%ADD18O,4.000000X2.200000*%
%ADD19O,2.200000X4.000000*%
%ADD20R,4.000000X2.200000*%
%ADD21O,3.500000X2.200000*%
%ADD22R,2.500000X1.500000*%
%ADD23O,2.500000X1.500000*%
%ADD24R,1.800000X1.800000*%
%ADD25C,1.800000*%
G04 APERTURE END LIST*
D10*
%TO.C,C7*%
X122000000Y-128500000D03*
X124500000Y-128500000D03*
%TD*%
%TO.C,R8*%
X159900000Y-115500000D03*
D11*
X167520000Y-115500000D03*
%TD*%
D12*
%TO.C,J6*%
X106500000Y-127500000D03*
D13*
X106500000Y-125000000D03*
%TD*%
D14*
%TO.C,U3*%
X127510000Y-107800000D03*
D11*
X130050000Y-107800000D03*
X132590000Y-107800000D03*
X135130000Y-107800000D03*
X135130000Y-100180000D03*
X132590000Y-100180000D03*
X130050000Y-100180000D03*
X127510000Y-100180000D03*
%TD*%
D10*
%TO.C,C16*%
X130585000Y-87890000D03*
X133085000Y-87890000D03*
%TD*%
D15*
%TO.C,H2*%
X156500000Y-81000000D03*
%TD*%
D10*
%TO.C,R2*%
X106310000Y-90500000D03*
D11*
X98690000Y-90500000D03*
%TD*%
D10*
%TO.C,R16*%
X119500000Y-128500000D03*
D11*
X111880000Y-128500000D03*
%TD*%
D10*
%TO.C,R22*%
X114830000Y-87690000D03*
D11*
X114830000Y-95310000D03*
%TD*%
D10*
%TO.C,R18*%
X127500000Y-95310000D03*
D11*
X127500000Y-87690000D03*
%TD*%
D10*
%TO.C,R6*%
X106310000Y-94500000D03*
D11*
X98690000Y-94500000D03*
%TD*%
D10*
%TO.C,R20*%
X139830000Y-95310000D03*
D11*
X139830000Y-87690000D03*
%TD*%
D10*
%TO.C,R17*%
X123500000Y-120310000D03*
D11*
X123500000Y-112690000D03*
%TD*%
D10*
%TO.C,R21*%
X148500000Y-95310000D03*
D11*
X148500000Y-87690000D03*
%TD*%
D10*
%TO.C,R5*%
X117120000Y-83500000D03*
D11*
X109500000Y-83500000D03*
%TD*%
D10*
%TO.C,C18*%
X117915000Y-95110000D03*
X120415000Y-95110000D03*
%TD*%
%TO.C,R1*%
X167520000Y-92500000D03*
D11*
X159900000Y-92500000D03*
%TD*%
D16*
%TO.C,J7*%
X155500000Y-120040000D03*
D17*
X155500000Y-117500000D03*
X155500000Y-114960000D03*
%TD*%
D14*
%TO.C,U2*%
X160420000Y-107800000D03*
D11*
X162960000Y-107800000D03*
X165500000Y-107800000D03*
X168040000Y-107800000D03*
X168040000Y-100180000D03*
X165500000Y-100180000D03*
X162960000Y-100180000D03*
X160420000Y-100180000D03*
%TD*%
D10*
%TO.C,R24*%
X98500000Y-79500000D03*
D11*
X106120000Y-79500000D03*
%TD*%
D10*
%TO.C,C4*%
X142915000Y-120110000D03*
X145415000Y-120110000D03*
%TD*%
%TO.C,R4*%
X117120000Y-79500000D03*
D11*
X109500000Y-79500000D03*
%TD*%
D10*
%TO.C,C13*%
X130585000Y-95110000D03*
X133085000Y-95110000D03*
%TD*%
D18*
%TO.C,J1*%
X170300000Y-88700000D03*
X171500000Y-86000000D03*
D19*
X178300000Y-83500000D03*
D20*
X174400000Y-78900000D03*
D19*
X167100000Y-79400000D03*
%TD*%
D15*
%TO.C,H1*%
X123500000Y-81000000D03*
%TD*%
D10*
%TO.C,C12*%
X99500000Y-117750000D03*
X99500000Y-115250000D03*
%TD*%
%TO.C,C10*%
X117915000Y-112890000D03*
X120415000Y-112890000D03*
%TD*%
D18*
%TO.C,J4*%
X170300000Y-129500000D03*
X171500000Y-126800000D03*
D19*
X178300000Y-124300000D03*
D20*
X174400000Y-119700000D03*
D19*
X167100000Y-120200000D03*
%TD*%
D10*
%TO.C,R14*%
X148500000Y-120310000D03*
D11*
X148500000Y-112690000D03*
%TD*%
D10*
%TO.C,R19*%
X136170000Y-95310000D03*
D11*
X136170000Y-87690000D03*
%TD*%
D10*
%TO.C,R10*%
X111880000Y-124500000D03*
D11*
X119500000Y-124500000D03*
%TD*%
D12*
%TO.C,J5*%
X99200000Y-127500000D03*
D13*
X99200000Y-125000000D03*
%TD*%
D10*
%TO.C,R23*%
X123500000Y-87690000D03*
D11*
X123500000Y-95310000D03*
%TD*%
D10*
%TO.C,C6*%
X120415000Y-120110000D03*
X117915000Y-120110000D03*
%TD*%
D14*
%TO.C,U1*%
X114880000Y-107800000D03*
D11*
X117420000Y-107800000D03*
X119960000Y-107800000D03*
X122500000Y-107800000D03*
X122500000Y-100180000D03*
X119960000Y-100180000D03*
X117420000Y-100180000D03*
X114880000Y-100180000D03*
%TD*%
D10*
%TO.C,C14*%
X142915000Y-95110000D03*
X145415000Y-95110000D03*
%TD*%
D14*
%TO.C,C1*%
X177910225Y-113857500D03*
D10*
X175410225Y-113857500D03*
%TD*%
%TO.C,C8*%
X133000000Y-120110000D03*
X130500000Y-120110000D03*
%TD*%
%TO.C,R13*%
X139830000Y-120310000D03*
D11*
X139830000Y-112690000D03*
%TD*%
D10*
%TO.C,R12*%
X136170000Y-120310000D03*
D11*
X136170000Y-112690000D03*
%TD*%
D18*
%TO.C,J3*%
X106500000Y-98857500D03*
X105300000Y-101557500D03*
D19*
X98500000Y-104057500D03*
D20*
X102400000Y-108657500D03*
D19*
X109700000Y-108157500D03*
%TD*%
D10*
%TO.C,R9*%
X167520000Y-111500000D03*
D11*
X159900000Y-111500000D03*
%TD*%
D21*
%TO.C,SW1*%
X177500000Y-108100000D03*
X177500000Y-99900000D03*
D22*
X177500000Y-106000000D03*
D23*
X177500000Y-104000000D03*
X177500000Y-102000000D03*
%TD*%
D10*
%TO.C,R7*%
X159900000Y-96500000D03*
D11*
X167520000Y-96500000D03*
%TD*%
D14*
%TO.C,C11*%
X106800000Y-117705113D03*
D10*
X106800000Y-115205113D03*
%TD*%
%TO.C,R3*%
X172500000Y-107810000D03*
D11*
X172500000Y-100190000D03*
%TD*%
D14*
%TO.C,U4*%
X140140000Y-107800000D03*
D11*
X142680000Y-107800000D03*
X145220000Y-107800000D03*
X147760000Y-107800000D03*
X150300000Y-107800000D03*
X152840000Y-107800000D03*
X155380000Y-107800000D03*
X155380000Y-100180000D03*
X152840000Y-100180000D03*
X150300000Y-100180000D03*
X147760000Y-100180000D03*
X145220000Y-100180000D03*
X142680000Y-100180000D03*
X140140000Y-100180000D03*
%TD*%
D14*
%TO.C,C2*%
X175500000Y-94142500D03*
D10*
X178000000Y-94142500D03*
%TD*%
D24*
%TO.C,D1*%
X99700000Y-85051283D03*
D25*
X99700000Y-82511283D03*
%TD*%
D10*
%TO.C,R15*%
X114830000Y-120310000D03*
D11*
X114830000Y-112690000D03*
%TD*%
D10*
%TO.C,C5*%
X124500000Y-124500000D03*
X122000000Y-124500000D03*
%TD*%
%TO.C,C15*%
X120415000Y-87890000D03*
X117915000Y-87890000D03*
%TD*%
%TO.C,C9*%
X142915000Y-112890000D03*
X145415000Y-112890000D03*
%TD*%
D15*
%TO.C,H4*%
X134500000Y-127000000D03*
%TD*%
%TO.C,H3*%
X156500000Y-127000000D03*
%TD*%
D10*
%TO.C,C17*%
X142915000Y-87890000D03*
X145415000Y-87890000D03*
%TD*%
%TO.C,R11*%
X127500000Y-112690000D03*
D11*
X127500000Y-120310000D03*
%TD*%
D10*
%TO.C,C3*%
X130500000Y-112890000D03*
X133000000Y-112890000D03*
%TD*%
M02*
