<?xml version="1.0" standalone="no"?>
 <!DOCTYPE svg PUBLIC "-//W3C//DTD SVG 1.1//EN" 
 "http://www.w3.org/Graphics/SVG/1.1/DTD/svg11.dtd"> 
<svg
  xmlns:svg="http://www.w3.org/2000/svg"
  xmlns="http://www.w3.org/2000/svg"
  xmlns:xlink="http://www.w3.org/1999/xlink"
  version="1.1"
  width="297.002200mm" height="210.007200mm" viewBox="0.000000 0.000000 297.002200 210.007200">
<title>SVG Image created as final schematics-B_Cu.svg date 2025/06/16 13:51:48 </title>
  <desc>Image generated by PCBNEW </desc>
<g style="fill:#000000; fill-opacity:1.000000;stroke:#000000; stroke-opacity:1.000000;
stroke-linecap:round; stroke-linejoin:round;"
 transform="translate(0 0) scale(1 1)">
</g>
<g style="fill:none; 
stroke:#4D7FC4; stroke-width:2.200000; stroke-opacity:1; 
stroke-linecap:round; stroke-linejoin:round;">
<path d="M136.100000 80.650000
L136.100000 79.350000
" />
<path d="M127.900000 80.650000
L127.900000 79.350000
" />
<path style="fill:#4D7FC4; fill-opacity:1.000000; stroke:none;fill-rule:evenodd;"
d="M 134.750000,78.750000
134.750000,81.250000
133.250000,81.250000
133.250000,78.750000
Z" /> 
</g>
<g style="fill:none; 
stroke:#4D7FC4; stroke-width:1.500000; stroke-opacity:1; 
stroke-linecap:round; stroke-linejoin:round;">
<path d="M132.000000 80.500000
L132.000000 79.500000
" />
<path d="M130.000000 80.500000
L130.000000 79.500000
" />
<path style="fill:#4D7FC4; fill-opacity:1.000000; stroke:none;fill-rule:evenodd;"
d="M 141.294205,81.150000
141.294205,82.850000
139.594205,82.850000
139.594205,81.150000
Z" /> 
</g>
<g style="fill:#4D7FC4; fill-opacity:1.000000; stroke:none;">
<circle cx="140.444205" cy="79.460000" r="0.850000" /> 
</g>
<g style="fill:none; 
stroke:#4D7FC4; stroke-width:2.200000; stroke-opacity:1; 
stroke-linecap:round; stroke-linejoin:round;">
<path d="M127.900000 113.350000
L127.900000 114.650000
" />
<path d="M136.100000 113.350000
L136.100000 114.650000
" />
<path style="fill:#4D7FC4; fill-opacity:1.000000; stroke:none;fill-rule:evenodd;"
d="M 129.250000,115.250000
129.250000,112.750000
130.750000,112.750000
130.750000,115.250000
Z" /> 
</g>
<g style="fill:none; 
stroke:#4D7FC4; stroke-width:1.500000; stroke-opacity:1; 
stroke-linecap:round; stroke-linejoin:round;">
<path d="M132.000000 113.500000
L132.000000 114.500000
" />
<path d="M134.000000 113.500000
L134.000000 114.500000
" />
</g>
<g style="fill:#4D7FC4; fill-opacity:1.000000; stroke:none;">
<circle cx="146.000000" cy="114.000000" r="0.720000" /> 
</g>
<g style="fill:#4D7FC4; fill-opacity:1.000000; stroke:none;">
<circle cx="143.460000" cy="114.000000" r="0.720000" /> 
</g>
<g style="fill:#4D7FC4; fill-opacity:1.000000; stroke:none;">
<circle cx="140.920000" cy="114.000000" r="0.720000" /> 
<path style="fill:#4D7FC4; fill-opacity:1.000000; stroke:none;fill-rule:evenodd;"
d="M 154.000000,94.500000
154.000000,97.000000
152.800000,97.000000
152.800000,94.500000
Z" /> 
<path style="fill:#4D7FC4; fill-opacity:1.000000; stroke:none;fill-rule:evenodd;"
d="M 157.000000,94.500000
157.000000,97.000000
155.800000,97.000000
155.800000,94.500000
Z" /> 
<path style="fill:#4D7FC4; fill-opacity:1.000000; stroke:none;fill-rule:evenodd;"
d="M 148.900000,101.000000
148.900000,103.500000
147.700000,103.500000
147.700000,101.000000
Z" /> 
<path style="fill:#4D7FC4; fill-opacity:1.000000; stroke:none;fill-rule:evenodd;"
d="M 150.000000,94.500000
150.000000,97.000000
148.800000,97.000000
148.800000,94.500000
Z" /> 
<path style="fill:#4D7FC4; fill-opacity:1.000000; stroke:none;fill-rule:evenodd;"
d="M 154.000000,105.550000
154.000000,108.050000
152.800000,108.050000
152.800000,105.550000
Z" /> 
<path style="fill:#4D7FC4; fill-opacity:1.000000; stroke:none;fill-rule:evenodd;"
d="M 157.000000,105.550000
157.000000,108.050000
155.800000,108.050000
155.800000,105.550000
Z" /> 
<path style="fill:#4D7FC4; fill-opacity:1.000000; stroke:none;fill-rule:evenodd;"
d="M 148.900000,112.050000
148.900000,114.550000
147.700000,114.550000
147.700000,112.050000
Z" /> 
<path style="fill:#4D7FC4; fill-opacity:1.000000; stroke:none;fill-rule:evenodd;"
d="M 150.000000,105.550000
150.000000,108.050000
148.800000,108.050000
148.800000,105.550000
Z" /> 
<path style="fill:#4D7FC4; fill-opacity:1.000000; stroke:none;fill-rule:evenodd;"
d="M 154.000000,80.500000
154.000000,83.000000
152.800000,83.000000
152.800000,80.500000
Z" /> 
<path style="fill:#4D7FC4; fill-opacity:1.000000; stroke:none;fill-rule:evenodd;"
d="M 157.000000,80.500000
157.000000,83.000000
155.800000,83.000000
155.800000,80.500000
Z" /> 
<path style="fill:#4D7FC4; fill-opacity:1.000000; stroke:none;fill-rule:evenodd;"
d="M 148.900000,87.000000
148.900000,89.500000
147.700000,89.500000
147.700000,87.000000
Z" /> 
<path style="fill:#4D7FC4; fill-opacity:1.000000; stroke:none;fill-rule:evenodd;"
d="M 150.000000,80.500000
150.000000,83.000000
148.800000,83.000000
148.800000,80.500000
Z" /> 
</g>
<g style="fill:#ECECEC; fill-opacity:1.000000; stroke:none;">
<circle cx="155.300000" cy="91.000000" r="0.350000" /> 
</g>
<g style="fill:#ECECEC; fill-opacity:1.000000; stroke:none;">
<circle cx="141.000000" cy="106.000000" r="0.350000" /> 
</g>
<g style="fill:#ECECEC; fill-opacity:1.000000; stroke:none;">
<circle cx="137.000000" cy="100.000000" r="0.350000" /> 
</g>
<g style="fill:#ECECEC; fill-opacity:1.000000; stroke:none;">
<circle cx="154.000000" cy="93.000000" r="0.350000" /> 
</g>
<g style="fill:#ECECEC; fill-opacity:1.000000; stroke:none;">
<circle cx="125.971020" cy="110.300000" r="0.350000" /> 
</g>
<g style="fill:#ECECEC; fill-opacity:1.000000; stroke:none;">
<circle cx="151.000000" cy="103.000000" r="0.350000" /> 
</g>
<g style="fill:#ECECEC; fill-opacity:1.000000; stroke:none;">
<circle cx="136.000000" cy="86.000000" r="0.350000" /> 
</g>
<g style="fill:#ECECEC; fill-opacity:1.000000; stroke:none;">
<circle cx="148.000000" cy="100.000000" r="0.350000" /> 
</g>
<g style="fill:#ECECEC; fill-opacity:1.000000; stroke:none;">
<circle cx="136.000000" cy="92.000000" r="0.350000" /> 
</g>
<g style="fill:#ECECEC; fill-opacity:1.000000; stroke:none;">
<circle cx="125.000000" cy="105.000000" r="0.350000" /> 
</g>
<g style="fill:#ECECEC; fill-opacity:1.000000; stroke:none;">
<circle cx="151.000000" cy="113.300000" r="0.350000" /> 
</g>
<g style="fill:#ECECEC; fill-opacity:1.000000; stroke:none;">
<circle cx="153.000000" cy="110.000000" r="0.350000" /> 
</g>
<g style="fill:#ECECEC; fill-opacity:1.000000; stroke:none;">
<circle cx="155.000000" cy="79.000000" r="0.350000" /> 
</g>
<g style="fill:#ECECEC; fill-opacity:1.000000; stroke:none;">
<circle cx="143.000000" cy="86.000000" r="0.350000" /> 
</g>
<g style="fill:#ECECEC; fill-opacity:1.000000; stroke:none;">
<circle cx="139.000000" cy="104.000000" r="0.350000" /> 
</g>
<g style="fill:#ECECEC; fill-opacity:1.000000; stroke:none;">
<circle cx="133.850000" cy="105.000000" r="0.350000" /> 
</g>
<g style="fill:#ECECEC; fill-opacity:1.000000; stroke:none;">
<circle cx="152.000000" cy="81.000000" r="0.350000" /> 
</g>
<g style="fill:#ECECEC; fill-opacity:1.000000; stroke:none;">
<circle cx="127.000000" cy="94.000000" r="0.350000" /> 
</g>
<g style="fill:#ECECEC; fill-opacity:1.000000; stroke:none;">
<circle cx="144.000000" cy="82.000000" r="0.350000" /> 
</g>
<g style="fill:#ECECEC; fill-opacity:1.000000; stroke:none;">
<circle cx="145.000000" cy="95.000000" r="0.350000" /> 
</g>
<g style="fill:#ECECEC; fill-opacity:1.000000; stroke:none;">
<circle cx="151.000000" cy="99.602500" r="0.350000" /> 
</g>
<g style="fill:#ECECEC; fill-opacity:1.000000; stroke:none;">
<circle cx="136.000000" cy="110.000000" r="0.350000" /> 
</g>
<g style="fill:#ECECEC; fill-opacity:1.000000; stroke:none;">
<circle cx="152.000000" cy="110.000000" r="0.350000" /> 
</g>
<g style="fill:#ECECEC; fill-opacity:1.000000; stroke:none;">
<circle cx="139.615921" cy="88.615919" r="0.350000" /> 
</g>
<g style="fill:#ECECEC; fill-opacity:1.000000; stroke:none;">
<circle cx="142.000000" cy="93.000000" r="0.350000" /> 
</g>
<g style="fill:#ECECEC; fill-opacity:1.000000; stroke:none;">
<circle cx="139.000000" cy="98.000000" r="0.350000" /> 
</g>
<g style="fill:#ECECEC; fill-opacity:1.000000; stroke:none;">
<circle cx="142.000000" cy="100.000000" r="0.350000" /> 
</g>
<g style="fill:#ECECEC; fill-opacity:1.000000; stroke:none;">
<circle cx="154.000000" cy="85.000000" r="0.350000" /> 
</g>
<g style="fill:#ECECEC; fill-opacity:1.000000; stroke:none;">
<circle cx="136.000000" cy="106.000000" r="0.350000" /> 
</g>
<g style="fill:#ECECEC; fill-opacity:1.000000; stroke:none;">
<circle cx="136.000000" cy="109.000000" r="0.350000" /> 
</g>
<g style="fill:#ECECEC; fill-opacity:1.000000; stroke:none;">
<circle cx="146.000000" cy="110.300000" r="0.350000" /> 
</g>
<g style="fill:#ECECEC; fill-opacity:1.000000; stroke:none;">
<circle cx="149.000000" cy="110.000000" r="0.350000" /> 
</g>
<g style="fill:#ECECEC; fill-opacity:1.000000; stroke:none;">
<circle cx="153.000000" cy="85.000000" r="0.350000" /> 
</g>
<g style="fill:#ECECEC; fill-opacity:1.000000; stroke:none;">
<circle cx="151.000000" cy="107.000000" r="0.350000" /> 
</g>
<g style="fill:#ECECEC; fill-opacity:1.000000; stroke:none;">
<circle cx="144.000000" cy="109.000000" r="0.350000" /> 
</g>
<g style="fill:#ECECEC; fill-opacity:1.000000; stroke:none;">
<circle cx="141.192749" cy="105.120883" r="0.350000" /> 
</g>
<g style="fill:#ECECEC; fill-opacity:1.000000; stroke:none;">
<circle cx="152.000000" cy="93.300000" r="0.350000" /> 
</g>
<g style="fill:#ECECEC; fill-opacity:1.000000; stroke:none;">
<circle cx="143.958716" cy="96.972117" r="0.350000" /> 
</g>
<g style="fill:#ECECEC; fill-opacity:1.000000; stroke:none;">
<circle cx="146.150000" cy="105.000000" r="0.350000" /> 
</g>
<g style="fill:#ECECEC; fill-opacity:1.000000; stroke:none;">
<circle cx="149.000000" cy="84.000000" r="0.350000" /> 
</g>
<g style="fill:#ECECEC; fill-opacity:1.000000; stroke:none;">
<circle cx="159.000000" cy="89.000000" r="0.350000" /> 
</g>
<g style="fill:#ECECEC; fill-opacity:1.000000; stroke:none;">
<circle cx="145.260200" cy="87.149702" r="0.350000" /> 
</g>
<g style="fill:#ECECEC; fill-opacity:1.000000; stroke:none;">
<circle cx="144.000000" cy="90.000000" r="0.350000" /> 
</g>
<g style="fill:none; 
stroke:#4D7FC4; stroke-width:0.300000; stroke-opacity:1; 
stroke-linecap:round; stroke-linejoin:round;">
<path d="M156.400000 92.100000
L156.400000 95.750000
" />
<path d="M156.400000 95.750000
L153.400000 95.750000
" />
<path d="M155.300000 91.000000
L156.400000 92.100000
" />
<path d="M148.300000 102.250000
L148.300000 100.300000
" />
<path d="M148.300000 100.300000
L148.000000 100.000000
" />
<path d="M151.000000 113.300000
L148.300000 113.300000
" />
</g>
<g style="fill:none; 
stroke:#4D7FC4; stroke-width:0.500000; stroke-opacity:1; 
stroke-linecap:round; stroke-linejoin:round;">
<path d="M143.000000 86.000000
L147.000000 82.000000
" />
<path d="M153.000000 79.000000
L155.000000 79.000000
" />
<path d="M149.400000 79.000000
L153.000000 79.000000
" />
<path d="M147.000000 81.400000
L149.400000 79.000000
" />
<path d="M147.000000 82.000000
L147.000000 81.400000
" />
</g>
<g style="fill:none; 
stroke:#4D7FC4; stroke-width:0.300000; stroke-opacity:1; 
stroke-linecap:round; stroke-linejoin:round;">
<path d="M135.000000 105.000000
L136.000000 104.000000
" />
<path d="M136.000000 104.000000
L139.000000 104.000000
" />
<path d="M133.850000 105.000000
L135.000000 105.000000
" />
<path d="M153.400000 81.750000
L152.750000 81.750000
" />
<path d="M144.000000 82.000000
L142.000000 84.000000
" />
<path d="M142.000000 84.000000
L131.000000 84.000000
" />
<path d="M131.000000 84.000000
L127.000000 88.000000
" />
<path d="M153.400000 81.750000
L156.400000 81.750000
" />
<path d="M127.000000 88.000000
L127.000000 94.000000
" />
<path d="M152.750000 81.750000
L152.000000 81.000000
" />
<path d="M145.000000 95.000000
L149.602500 99.602500
" />
<path d="M149.602500 99.602500
L151.000000 99.602500
" />
<path d="M130.000000 113.500000
L130.000000 114.000000
" />
<path d="M132.500000 111.000000
L130.000000 113.500000
" />
<path d="M136.000000 110.000000
L135.000000 111.000000
" />
<path d="M135.000000 111.000000
L132.500000 111.000000
" />
<path d="M136.000000 111.000000
L134.000000 113.000000
" />
<path d="M134.000000 113.000000
L134.000000 114.000000
" />
<path d="M150.000000 111.000000
L136.000000 111.000000
" />
<path d="M151.000000 110.000000
L150.000000 111.000000
" />
<path d="M152.000000 110.000000
L151.000000 110.000000
" />
</g>
<g style="fill:none; 
stroke:#4D7FC4; stroke-width:0.500000; stroke-opacity:1; 
stroke-linecap:round; stroke-linejoin:round;">
<path d="M140.000000 91.000000
L140.000000 89.000000
" />
<path d="M139.615921 88.615921
L139.615921 88.615919
" />
<path d="M139.000000 100.000000
L139.000000 98.000000
" />
<path d="M142.000000 100.000000
L139.000000 100.000000
" />
<path d="M140.000000 89.000000
L139.615921 88.615921
" />
<path d="M139.000000 96.000000
L142.000000 93.000000
" />
<path d="M142.000000 93.000000
L140.000000 91.000000
" />
<path d="M139.000000 98.000000
L139.000000 96.000000
" />
</g>
<g style="fill:none; 
stroke:#4D7FC4; stroke-width:0.300000; stroke-opacity:1; 
stroke-linecap:round; stroke-linejoin:round;">
<path d="M133.850000 116.350000
L136.000000 116.350000
" />
<path d="M159.000000 90.000000
L154.000000 85.000000
" />
<path d="M159.350000 111.000000
L159.350000 90.350000
" />
<path d="M154.000000 116.350000
L159.350000 111.000000
" />
<path d="M136.000000 116.350000
L154.000000 116.350000
" />
<path d="M159.350000 90.350000
L159.000000 90.000000
" />
<path d="M132.000000 114.000000
L132.000000 114.500000
" />
<path d="M132.000000 114.500000
L133.850000 116.350000
" />
<path d="M136.000000 109.000000
L136.000000 106.000000
" />
<path d="M149.000000 110.000000
L148.700000 110.300000
" />
<path d="M148.700000 110.300000
L146.000000 110.300000
" />
<path d="M143.000000 115.850000
L143.000000 114.460000
" />
<path d="M156.850000 99.850000
L158.850000 101.850000
" />
<path d="M158.000000 97.000000
L156.850000 98.150000
" />
<path d="M143.000000 114.460000
L143.460000 114.000000
" />
<path d="M153.792894 115.850000
L143.000000 115.850000
" />
<path d="M158.850000 97.000000
L158.000000 97.000000
" />
<path d="M156.850000 109.573654
L156.850000 110.850000
" />
<path d="M158.850000 90.850000
L158.850000 97.000000
" />
<path d="M156.850000 98.150000
L156.850000 99.850000
" />
<path d="M158.850000 107.573654
L156.850000 109.573654
" />
<path d="M157.821447 111.821447
L153.792894 115.850000
" />
<path d="M153.000000 85.000000
L158.850000 90.850000
" />
<path d="M156.850000 110.850000
L157.821447 111.821447
" />
<path d="M158.850000 101.850000
L158.850000 107.573654
" />
<path d="M144.000000 109.000000
L149.750000 109.000000
" />
<path d="M149.750000 109.000000
L151.000000 107.750000
" />
<path d="M141.192749 105.120883
L144.000000 107.928134
" />
<path d="M144.000000 107.928134
L144.000000 109.000000
" />
<path d="M151.000000 107.750000
L151.000000 107.000000
" />
<path d="M157.550000 106.800000
L156.400000 106.800000
" />
<path d="M152.000000 100.000000
L156.000000 100.000000
" />
<path d="M152.000000 93.300000
L152.000000 100.000000
" />
<path d="M156.400000 106.800000
L153.400000 106.800000
" />
<path d="M158.350000 102.350000
L158.350000 106.000000
" />
<path d="M156.000000 100.000000
L158.350000 102.350000
" />
<path d="M158.350000 106.000000
L157.550000 106.800000
" />
<path d="M143.958716 102.808716
L143.958716 96.972117
" />
<path d="M146.150000 105.000000
L143.958716 102.808716
" />
<path d="M145.110498 87.000000
L145.260200 87.149702
" />
<path d="M153.850000 83.850000
L159.000000 89.000000
" />
<path d="M149.150000 83.850000
L153.850000 83.850000
" />
<path d="M144.000000 87.000000
L145.110498 87.000000
" />
<path d="M144.000000 90.000000
L144.000000 87.000000
" />
<path d="M149.000000 84.000000
L149.150000 83.850000
" />
<path style="fill:#4D7FC4; fill-opacity:1.000000; stroke:none;fill-rule:evenodd;"
d="M 157.690614,77.520185
157.736369,77.572989
157.746313,77.642147
157.717288,77.705703
157.661894,77.742431
157.500776,77.794781
157.318386,77.887715
157.152786,78.008028
157.008028,78.152786
156.887715,78.318386
156.794781,78.500776
156.731522,78.695465
156.699500,78.897648
156.699500,79.102351
156.731522,79.304534
156.794781,79.499223
156.887712,79.681609
156.975627,79.802615
156.999106,79.868422
156.983280,79.936476
156.933174,79.985170
156.875308,79.999500
155.752129,79.999500
155.752123,79.999501
155.692516,80.005908
155.557671,80.056202
155.557664,80.056206
155.442455,80.142452
155.442452,80.142455
155.356206,80.257664
155.356202,80.257671
155.305908,80.392517
155.299501,80.452116
155.299501,80.452123
155.299500,80.452135
155.299500,80.975500
155.279815,81.042539
155.227011,81.088294
155.175500,81.099500
154.624499,81.099500
154.557460,81.079815
154.511705,81.027011
154.500499,80.975500
154.500499,80.452129
154.500498,80.452123
154.500497,80.452116
154.494091,80.392517
154.471177,80.331082
154.443797,80.257671
154.443793,80.257664
154.357547,80.142455
154.357544,80.142452
154.242335,80.056206
154.242328,80.056202
154.107482,80.005908
154.107483,80.005908
154.047883,79.999501
154.047881,79.999500
154.047873,79.999500
154.047864,79.999500
152.752129,79.999500
152.752123,79.999501
152.692516,80.005908
152.557671,80.056202
152.557664,80.056206
152.442457,80.142451
152.442449,80.142459
152.432384,80.155904
152.376449,80.197774
152.306757,80.202756
152.282686,80.194871
152.264267,80.186671
152.264265,80.186670
152.119519,80.155904
152.089391,80.149500
151.910609,80.149500
151.880481,80.155904
151.735733,80.186670
151.735728,80.186672
151.572408,80.259387
151.427768,80.364475
151.308140,80.497336
151.218750,80.652164
151.218747,80.652170
151.163504,80.822192
151.163503,80.822194
151.144815,81.000000
151.163503,81.177805
151.163504,81.177807
151.218747,81.347829
151.218750,81.347835
151.308141,81.502665
151.310820,81.505640
151.427764,81.635521
151.427767,81.635523
151.427770,81.635526
151.572407,81.740612
151.735733,81.813329
151.900012,81.848247
151.961493,81.881439
151.961911,81.881856
152.263181,82.183126
152.296666,82.244449
152.299500,82.270807
152.299500,83.047870
152.299501,83.047879
152.301046,83.062248
152.288639,83.131007
152.241027,83.182143
152.177756,83.199500
150.622244,83.199500
150.555205,83.179815
150.509450,83.127011
150.498954,83.062247
150.500500,83.047873
150.500499,80.452128
150.494091,80.392517
150.471177,80.331082
150.443797,80.257671
150.443793,80.257664
150.357547,80.142455
150.357544,80.142452
150.242335,80.056206
150.242328,80.056202
150.107482,80.005908
150.107483,80.005908
150.047883,79.999501
150.047881,79.999500
150.047873,79.999500
150.047865,79.999500
149.761229,79.999500
149.694190,79.979815
149.648435,79.927011
149.638491,79.857853
149.667516,79.794297
149.673548,79.787819
149.674548,79.786819
149.735871,79.753334
149.762229,79.750500
152.926082,79.750500
154.568259,79.750500
154.618693,79.761219
154.735733,79.813329
154.910609,79.850500
154.910610,79.850500
155.089389,79.850500
155.089391,79.850500
155.264267,79.813329
155.427593,79.740612
155.572230,79.635526
155.691859,79.502665
155.781250,79.347835
155.836497,79.177803
155.855185,79.000000
155.836497,78.822197
155.808365,78.735616
155.781252,78.652170
155.781249,78.652164
155.744739,78.588926
155.691859,78.497335
155.631659,78.430476
155.572235,78.364478
155.572232,78.364476
155.572231,78.364475
155.572230,78.364474
155.427593,78.259388
155.264267,78.186671
155.264265,78.186670
155.104850,78.152786
155.089391,78.149500
154.910609,78.149500
154.895150,78.152786
154.735733,78.186670
154.618694,78.238780
154.568259,78.249500
153.073918,78.249500
149.326082,78.249500
149.299770,78.254734
149.299769,78.254734
149.181094,78.278339
149.181087,78.278341
149.113822,78.306204
149.113821,78.306204
149.044511,78.334912
149.044498,78.334919
148.966102,78.387303
148.921582,78.417049
146.417047,80.921584
146.406252,80.937740
146.395504,80.953828
146.365106,80.999321
146.334914,81.044507
146.278343,81.181082
146.278340,81.181092
146.249500,81.326079
146.249500,81.637769
146.229815,81.704808
146.213181,81.725450
142.780820,85.157810
142.740894,85.182289
142.741669,85.184029
142.735736,85.186670
142.735733,85.186671
142.572408,85.259388
142.572406,85.259389
142.427768,85.364475
142.308140,85.497336
142.218750,85.652164
142.218747,85.652170
142.163504,85.822192
142.163503,85.822194
142.144815,86.000000
142.163503,86.177805
142.163504,86.177807
142.218747,86.347829
142.218750,86.347835
142.308141,86.502665
142.349812,86.548946
142.427764,86.635521
142.427767,86.635523
142.427770,86.635526
142.572407,86.740612
142.735733,86.813329
142.910609,86.850500
142.910610,86.850500
143.089389,86.850500
143.089391,86.850500
143.199719,86.827049
143.269386,86.832365
143.325120,86.874502
143.349225,86.940082
143.349500,86.948339
143.349500,89.403802
143.329815,89.470841
143.317651,89.486773
143.308140,89.497336
143.218750,89.652164
143.218747,89.652170
143.163504,89.822192
143.163503,89.822194
143.144815,90.000000
143.163503,90.177805
143.163504,90.177807
143.218747,90.347829
143.218750,90.347835
143.308141,90.502665
143.349812,90.548946
143.427764,90.635521
143.427767,90.635523
143.427770,90.635526
143.572407,90.740612
143.735733,90.813329
143.910609,90.850500
143.910610,90.850500
144.089389,90.850500
144.089391,90.850500
144.264267,90.813329
144.427593,90.740612
144.572230,90.635526
144.691859,90.502665
144.781250,90.347835
144.836497,90.177803
144.855185,90.000000
144.836497,89.822197
144.781250,89.652165
144.721020,89.547844
147.200000,89.547844
147.206401,89.607372
147.206403,89.607379
147.256645,89.742086
147.256649,89.742093
147.342809,89.857187
147.342812,89.857190
147.457906,89.943350
147.457913,89.943354
147.592620,89.993596
147.592627,89.993598
147.652155,89.999999
147.652172,90.000000
148.050000,90.000000
148.550000,90.000000
148.947828,90.000000
148.947844,89.999999
149.007372,89.993598
149.007379,89.993596
149.142086,89.943354
149.142093,89.943350
149.257187,89.857190
149.257190,89.857187
149.343350,89.742093
149.343354,89.742086
149.393596,89.607379
149.393598,89.607372
149.399999,89.547844
149.400000,89.547827
149.400000,88.500000
148.550000,88.500000
148.550000,90.000000
148.050000,90.000000
148.050000,88.500000
147.200000,88.500000
147.200000,89.547844
144.721020,89.547844
144.691859,89.497335
144.682349,89.486773
144.652120,89.423782
144.650500,89.403802
144.650500,87.999948
144.670185,87.932909
144.722989,87.887154
144.792147,87.877210
144.826094,87.888962
144.826670,87.887670
144.832604,87.890312
144.832607,87.890314
144.995933,87.963031
145.170809,88.000202
145.170810,88.000202
145.349589,88.000202
145.349591,88.000202
145.524467,87.963031
145.687793,87.890314
145.832430,87.785228
145.952059,87.652367
146.041450,87.497537
146.096697,87.327505
146.115385,87.149702
146.096697,86.971899
146.090282,86.952155
147.200000,86.952155
147.200000,88.000000
148.050000,88.000000
148.550000,88.000000
149.400000,88.000000
149.400000,86.952172
149.399999,86.952155
149.393598,86.892627
149.393596,86.892620
149.343354,86.757913
149.343350,86.757906
149.257190,86.642812
149.257187,86.642809
149.142093,86.556649
149.142086,86.556645
149.007379,86.506403
149.007372,86.506401
148.947844,86.500000
148.550000,86.500000
148.550000,88.000000
148.050000,88.000000
148.050000,86.500000
147.652155,86.500000
147.592627,86.506401
147.592620,86.506403
147.457913,86.556645
147.457906,86.556649
147.342812,86.642809
147.342809,86.642812
147.256649,86.757906
147.256645,86.757913
147.206403,86.892620
147.206401,86.892627
147.200000,86.952155
146.090282,86.952155
146.057252,86.850500
146.041452,86.801872
146.041449,86.801866
146.006083,86.740610
145.952059,86.647037
145.905203,86.594998
145.832435,86.514180
145.832432,86.514178
145.832431,86.514177
145.832430,86.514176
145.687793,86.409090
145.524467,86.336373
145.524465,86.336372
145.396794,86.309235
145.349591,86.299202
145.170809,86.299202
145.133639,86.307102
144.995934,86.336372
144.995925,86.336375
144.990525,86.338780
144.940092,86.349500
144.011229,86.349500
143.944190,86.329815
143.898435,86.277011
143.888491,86.207853
143.917516,86.144297
143.923548,86.137819
147.582948,82.478419
147.582951,82.478416
147.665084,82.355495
147.721658,82.218913
147.750500,82.073918
147.750500,81.926083
147.750500,81.762229
147.770185,81.695190
147.786819,81.674548
147.925807,81.535560
148.087821,81.373545
148.149142,81.340062
148.218833,81.345046
148.274767,81.386917
148.299184,81.452382
148.299500,81.461228
148.299500,83.047870
148.299501,83.047876
148.305908,83.107483
148.356202,83.242328
148.356206,83.242334
148.377559,83.270859
148.401976,83.336323
148.387124,83.404596
148.370443,83.428140
148.308140,83.497336
148.218750,83.652164
148.218747,83.652170
148.163504,83.822192
148.163503,83.822194
148.144815,84.000000
148.163503,84.177805
148.163504,84.177807
148.218747,84.347829
148.218750,84.347835
148.308141,84.502665
148.329235,84.526092
148.427764,84.635521
148.427767,84.635523
148.427770,84.635526
148.572407,84.740612
148.735733,84.813329
148.910609,84.850500
148.910610,84.850500
149.089389,84.850500
149.089391,84.850500
149.264267,84.813329
149.427593,84.740612
149.572230,84.635526
149.581257,84.625501
149.656867,84.541528
149.716354,84.504879
149.749017,84.500500
149.938387,84.500500
150.005426,84.520185
150.051181,84.572989
150.061125,84.642147
150.052949,84.671951
150.037949,84.708165
150.037947,84.708170
149.999500,84.901456
149.999500,84.901459
149.999500,85.098541
149.999500,85.098543
149.999499,85.098543
150.037947,85.291829
150.037950,85.291839
150.113364,85.473907
150.113371,85.473920
150.222860,85.637781
150.222863,85.637785
150.362214,85.777136
150.362218,85.777139
150.526079,85.886628
150.526092,85.886635
150.708160,85.962049
150.708165,85.962051
150.708169,85.962051
150.708170,85.962052
150.901456,86.000500
150.901459,86.000500
151.098543,86.000500
151.228582,85.974632
151.291835,85.962051
151.473914,85.886632
151.637782,85.777139
151.777139,85.637782
151.886632,85.473914
151.962051,85.291835
151.962053,85.291823
151.962608,85.289997
151.963164,85.289148
151.964382,85.286208
151.964939,85.286438
152.000904,85.231557
152.064715,85.203098
152.133782,85.213656
152.186177,85.259879
152.199201,85.287670
152.218747,85.347829
152.218750,85.347835
152.308141,85.502665
152.349812,85.548946
152.427764,85.635521
152.427767,85.635523
152.427770,85.635526
152.572407,85.740612
152.735733,85.813329
152.735735,85.813329
152.735736,85.813330
152.792275,85.825347
152.900010,85.848247
152.961490,85.881438
152.961909,85.881855
158.163181,91.083127
158.196666,91.144450
158.199500,91.170808
158.199500,96.225500
158.179815,96.292539
158.127011,96.338294
158.075500,96.349500
157.935929,96.349500
157.810261,96.374497
157.810251,96.374500
157.761220,96.394810
157.691881,96.423530
157.686500,96.426407
157.685708,96.424926
157.626711,96.443399
157.559331,96.424914
157.512642,96.372935
157.500499,96.319419
157.500499,94.452129
157.500498,94.452123
157.500497,94.452116
157.494091,94.392517
157.483632,94.364476
157.443797,94.257671
157.443793,94.257664
157.357547,94.142455
157.357544,94.142452
157.242335,94.056206
157.242329,94.056203
157.131166,94.014741
157.075233,93.972869
157.050816,93.907405
157.050500,93.898559
157.050500,92.035928
157.025502,91.910261
157.025501,91.910260
157.025501,91.910256
156.976465,91.791873
156.905277,91.685331
156.905275,91.685329
156.905273,91.685326
156.905272,91.685325
156.178628,90.958682
156.145143,90.897359
156.142988,90.883961
156.139471,90.850500
156.136497,90.822197
156.105062,90.725451
156.081252,90.652170
156.081249,90.652164
156.071643,90.635526
155.991859,90.497335
155.945003,90.445296
155.872235,90.364478
155.872232,90.364476
155.872231,90.364475
155.872230,90.364474
155.727593,90.259388
155.564267,90.186671
155.564265,90.186670
155.436594,90.159533
155.389391,90.149500
155.210609,90.149500
155.179954,90.156015
155.035733,90.186670
155.035728,90.186672
154.872408,90.259387
154.727768,90.364475
154.608140,90.497336
154.518750,90.652164
154.518747,90.652170
154.463504,90.822192
154.463503,90.822194
154.444815,91.000000
154.463503,91.177805
154.463504,91.177807
154.518747,91.347829
154.518750,91.347835
154.608141,91.502665
154.649812,91.548946
154.727764,91.635521
154.727767,91.635523
154.727770,91.635526
154.872407,91.740612
155.035733,91.813329
155.035735,91.813329
155.035736,91.813330
155.092275,91.825347
155.200010,91.848247
155.261490,91.881438
155.261909,91.881855
155.713181,92.333127
155.746666,92.394450
155.749500,92.420808
155.749500,93.898560
155.729815,93.965599
155.677011,94.011354
155.668833,94.014742
155.557671,94.056202
155.557664,94.056206
155.442455,94.142452
155.442452,94.142455
155.356206,94.257664
155.356202,94.257671
155.305908,94.392517
155.299501,94.452116
155.299501,94.452123
155.299500,94.452135
155.299500,94.975500
155.279815,95.042539
155.227011,95.088294
155.175500,95.099500
154.624499,95.099500
154.557460,95.079815
154.511705,95.027011
154.500499,94.975500
154.500499,94.452129
154.500498,94.452123
154.500497,94.452116
154.494091,94.392517
154.483632,94.364476
154.443797,94.257671
154.443793,94.257664
154.357547,94.142455
154.357544,94.142452
154.242335,94.056206
154.242328,94.056202
154.107482,94.005908
154.107483,94.005908
154.047883,93.999501
154.047881,93.999500
154.047873,93.999500
154.047865,93.999500
152.792212,93.999500
152.725173,93.979815
152.679418,93.927011
152.669474,93.857853
152.689408,93.808754
152.688610,93.808293
152.727686,93.740610
152.781250,93.647835
152.836497,93.477803
152.855185,93.300000
152.836497,93.122197
152.796793,93.000000
152.781252,92.952170
152.781249,92.952164
152.691859,92.797335
152.645003,92.745296
152.572235,92.664478
152.572232,92.664476
152.572231,92.664475
152.572230,92.664474
152.427593,92.559388
152.264267,92.486671
152.264265,92.486670
152.136594,92.459533
152.089391,92.449500
151.910609,92.449500
151.879954,92.456015
151.735733,92.486670
151.735728,92.486672
151.572408,92.559387
151.427768,92.664475
151.308140,92.797336
151.218750,92.952164
151.218747,92.952170
151.163504,93.122192
151.163503,93.122194
151.144815,93.300000
151.163503,93.477805
151.163504,93.477807
151.218747,93.647829
151.218750,93.647835
151.308141,93.802665
151.313209,93.808293
151.317648,93.813223
151.347879,93.876213
151.349500,93.896197
151.349500,98.654160
151.329815,98.721199
151.277011,98.766954
151.207853,98.776898
151.199720,98.775451
151.185395,98.772406
151.089391,98.752000
150.910609,98.752000
150.879954,98.758515
150.735733,98.789170
150.735728,98.789172
150.572408,98.861888
150.572403,98.861890
150.480974,98.928318
150.415168,98.951798
150.408089,98.952000
149.923308,98.952000
149.856269,98.932315
149.835627,98.915681
148.629033,97.709087
148.595548,97.647764
148.600532,97.578072
148.642404,97.522139
148.707868,97.497722
148.729960,97.498116
148.752127,97.500500
150.047872,97.500499
150.107483,97.494091
150.242331,97.443796
150.357546,97.357546
150.443796,97.242331
150.494091,97.107483
150.500500,97.047873
150.500499,94.452128
150.494091,94.392517
150.483632,94.364476
150.443797,94.257671
150.443793,94.257664
150.357547,94.142455
150.357544,94.142452
150.242335,94.056206
150.242328,94.056202
150.107482,94.005908
150.107483,94.005908
150.047883,93.999501
150.047881,93.999500
150.047873,93.999500
150.047864,93.999500
148.752129,93.999500
148.752123,93.999501
148.692516,94.005908
148.557671,94.056202
148.557664,94.056206
148.442455,94.142452
148.442452,94.142455
148.356206,94.257664
148.356202,94.257671
148.305908,94.392517
148.299501,94.452116
148.299501,94.452123
148.299500,94.452135
148.299500,97.047870
148.299501,97.047886
148.301882,97.070035
148.289473,97.138794
148.241860,97.189929
148.174160,97.207205
148.107867,97.185137
148.090911,97.170965
145.878628,94.958682
145.845143,94.897359
145.842988,94.883961
145.839471,94.850500
145.836497,94.822197
145.781250,94.652165
145.691859,94.497335
145.645003,94.445296
145.572235,94.364478
145.572232,94.364476
145.572231,94.364475
145.572230,94.364474
145.427593,94.259388
145.264267,94.186671
145.264265,94.186670
145.136594,94.159533
145.089391,94.149500
144.910609,94.149500
144.879954,94.156015
144.735733,94.186670
144.735728,94.186672
144.572408,94.259387
144.427768,94.364475
144.308140,94.497336
144.218750,94.652164
144.218747,94.652170
144.163504,94.822192
144.163503,94.822194
144.144815,95.000000
144.163503,95.177805
144.163504,95.177807
144.218747,95.347829
144.218750,95.347835
144.308141,95.502665
144.325176,95.521584
144.427764,95.635521
144.427767,95.635523
144.427770,95.635526
144.572407,95.740612
144.735733,95.813329
144.735735,95.813329
144.735736,95.813330
144.792275,95.825347
144.900010,95.848247
144.961490,95.881438
144.961909,95.881855
149.187825,100.107772
149.187832,100.107778
149.292634,100.177804
149.292633,100.177805
149.292642,100.177808
149.294373,100.178965
149.412756,100.228001
149.412760,100.228001
149.412761,100.228002
149.538428,100.253000
149.538431,100.253000
150.408089,100.253000
150.475128,100.272685
150.480976,100.276682
150.572407,100.343112
150.735733,100.415829
150.910609,100.453000
150.910610,100.453000
151.089389,100.453000
151.089391,100.453000
151.264267,100.415829
151.347416,100.378808
151.416663,100.369525
151.479940,100.399153
151.493705,100.413427
151.494729,100.414675
151.585327,100.505273
151.585331,100.505276
151.691866,100.576461
151.691875,100.576466
151.718692,100.587574
151.810256,100.625501
151.810260,100.625501
151.810261,100.625502
151.935928,100.650500
151.935931,100.650500
152.064069,100.650500
155.679192,100.650500
155.746231,100.670185
155.766873,100.686819
157.663181,102.583127
157.696666,102.644450
157.699500,102.670808
157.699500,105.305951
157.679815,105.372990
157.627011,105.418745
157.557853,105.428689
157.494297,105.399664
157.459318,105.349284
157.443797,105.307671
157.443793,105.307664
157.357547,105.192455
157.357544,105.192452
157.242335,105.106206
157.242328,105.106202
157.107482,105.055908
157.107483,105.055908
157.047883,105.049501
157.047881,105.049500
157.047873,105.049500
157.047864,105.049500
155.752129,105.049500
155.752123,105.049501
155.692516,105.055908
155.557671,105.106202
155.557664,105.106206
155.442455,105.192452
155.442452,105.192455
155.356206,105.307664
155.356202,105.307671
155.305908,105.442517
155.300015,105.497335
155.299501,105.502123
155.299500,105.502135
155.299500,106.025500
155.279815,106.092539
155.227011,106.138294
155.175500,106.149500
154.624499,106.149500
154.557460,106.129815
154.511705,106.077011
154.500499,106.025500
154.500499,105.502129
154.500498,105.502123
154.500497,105.502116
154.494091,105.442517
154.488933,105.428689
154.443797,105.307671
154.443793,105.307664
154.357547,105.192455
154.357544,105.192452
154.242335,105.106206
154.242328,105.106202
154.107482,105.055908
154.107483,105.055908
154.047883,105.049501
154.047881,105.049500
154.047873,105.049500
154.047864,105.049500
152.752129,105.049500
152.752123,105.049501
152.692516,105.055908
152.557671,105.106202
152.557664,105.106206
152.442455,105.192452
152.442452,105.192455
152.356206,105.307664
152.356202,105.307671
152.305908,105.442517
152.300015,105.497335
152.299501,105.502123
152.299500,105.502135
152.299500,108.097870
152.299501,108.097876
152.305908,108.157483
152.356202,108.292328
152.356206,108.292335
152.442452,108.407544
152.442455,108.407547
152.557664,108.493793
152.557671,108.493797
152.692517,108.544091
152.692516,108.544091
152.699444,108.544835
152.752127,108.550500
154.047872,108.550499
154.107483,108.544091
154.242331,108.493796
154.357546,108.407546
154.443796,108.292331
154.494091,108.157483
154.500500,108.097873
154.500500,107.574500
154.520185,107.507461
154.572989,107.461706
154.624500,107.450500
155.175501,107.450500
155.242540,107.470185
155.288295,107.522989
155.299501,107.574500
155.299501,108.097876
155.305908,108.157483
155.356202,108.292328
155.356206,108.292335
155.442452,108.407544
155.442455,108.407547
155.557664,108.493793
155.557671,108.493797
155.692517,108.544091
155.692516,108.544091
155.699444,108.544835
155.752127,108.550500
156.653846,108.550499
156.720885,108.570183
156.766640,108.622987
156.776584,108.692146
156.747559,108.755702
156.741527,108.762180
156.344727,109.158979
156.344726,109.158980
156.344723,109.158985
156.277639,109.259386
156.277638,109.259387
156.277637,109.259386
156.273535,109.265526
156.273534,109.265528
156.224499,109.383909
156.224499,109.383910
156.199500,109.509582
156.199500,109.509585
156.199500,110.914069
156.199500,110.914071
156.199499,110.914071
156.224497,111.039738
156.224499,111.039744
156.273534,111.158125
156.344726,111.264673
156.813819,111.733766
156.847304,111.795089
156.842320,111.864781
156.813819,111.909128
153.559767,115.163181
153.498444,115.196666
153.472086,115.199500
149.239269,115.199500
149.172230,115.179815
149.126475,115.127011
149.116531,115.057853
149.145556,114.994297
149.164958,114.976234
149.257187,114.907190
149.257190,114.907187
149.343350,114.792093
149.343354,114.792086
149.393596,114.657379
149.393598,114.657372
149.399999,114.597844
149.400000,114.597827
149.400000,113.550000
148.174000,113.550000
148.106961,113.530315
148.061206,113.477511
148.050000,113.426000
148.050000,113.174000
148.069685,113.106961
148.122489,113.061206
148.174000,113.050000
149.400000,113.050000
149.400000,112.002172
149.399999,112.002155
149.393598,111.942627
149.393596,111.942620
149.347054,111.817833
149.342070,111.748142
149.375555,111.686818
149.436878,111.653334
149.463236,111.650500
150.064071,111.650500
150.148615,111.633682
150.189744,111.625501
150.308127,111.576465
150.414669,111.505277
151.233127,110.686819
151.294450,110.653334
151.320808,110.650500
151.408089,110.650500
151.475128,110.670185
151.480976,110.674182
151.572407,110.740612
151.735733,110.813329
151.910609,110.850500
151.910610,110.850500
152.089389,110.850500
152.089391,110.850500
152.264267,110.813329
152.427593,110.740612
152.572230,110.635526
152.691859,110.502665
152.781250,110.347835
152.836497,110.177803
152.855185,110.000000
152.836497,109.822197
152.787105,109.670185
152.781252,109.652170
152.781249,109.652164
152.691859,109.497335
152.638433,109.438000
152.572235,109.364478
152.572232,109.364476
152.572231,109.364475
152.572230,109.364474
152.427593,109.259388
152.264267,109.186671
152.264265,109.186670
152.133986,109.158979
152.089391,109.149500
151.910609,109.149500
151.879954,109.156015
151.735733,109.186670
151.735728,109.186672
151.572410,109.259387
151.572403,109.259390
151.480974,109.325818
151.415168,109.349298
151.408089,109.349500
150.935929,109.349500
150.810261,109.374497
150.810251,109.374500
150.787535,109.383910
150.691881,109.423530
150.691863,109.423540
150.585332,109.494721
150.585325,109.494727
150.060398,110.019654
149.999075,110.053139
149.929383,110.048155
149.873450,110.006283
149.849397,109.944938
149.836497,109.822197
149.825855,109.789444
149.823860,109.719603
149.859941,109.659770
149.919595,109.629508
149.939744,109.625501
150.058127,109.576465
150.070906,109.567926
150.083684,109.559389
150.110679,109.541351
150.164669,109.505277
151.505277,108.164669
151.576465,108.058127
151.625501,107.939744
151.650500,107.814069
151.650500,107.596197
151.670185,107.529158
151.682352,107.513223
151.691859,107.502665
151.781250,107.347835
151.836497,107.177803
151.855185,107.000000
151.836497,106.822197
151.781250,106.652165
151.691859,106.497335
151.645003,106.445296
151.572235,106.364478
151.572232,106.364476
151.572231,106.364475
151.572230,106.364474
151.427593,106.259388
151.264267,106.186671
151.264265,106.186670
151.136594,106.159533
151.089391,106.149500
150.910609,106.149500
150.879954,106.156015
150.735733,106.186670
150.735732,106.186670
150.674934,106.213740
150.605684,106.223024
150.542407,106.193395
150.505195,106.134260
150.500499,106.100460
150.500499,105.502129
150.500498,105.502123
150.500497,105.502116
150.494091,105.442517
150.488933,105.428689
150.443797,105.307671
150.443793,105.307664
150.357547,105.192455
150.357544,105.192452
150.242335,105.106206
150.242328,105.106202
150.107482,105.055908
150.107483,105.055908
150.047883,105.049501
150.047881,105.049500
150.047873,105.049500
150.047864,105.049500
148.752129,105.049500
148.752123,105.049501
148.692516,105.055908
148.557671,105.106202
148.557664,105.106206
148.442455,105.192452
148.442452,105.192455
148.356206,105.307664
148.356202,105.307671
148.305908,105.442517
148.300015,105.497335
148.299501,105.502123
148.299500,105.502135
148.299500,108.097870
148.299501,108.097876
148.305909,108.157485
148.315115,108.182168
148.320099,108.251860
148.286613,108.313182
148.225289,108.346667
148.198933,108.349500
144.774500,108.349500
144.707461,108.329815
144.661706,108.277011
144.650500,108.225500
144.650500,107.864062
144.625502,107.738395
144.625501,107.738394
144.625501,107.738390
144.576465,107.620007
144.536541,107.560256
144.536541,107.560255
144.505274,107.513461
144.505271,107.513458
142.071377,105.079565
142.037892,105.018242
142.035737,105.004844
142.029246,104.943081
142.027536,104.937819
141.973999,104.773048
141.884608,104.618218
141.837752,104.566179
141.764984,104.485361
141.764981,104.485359
141.764980,104.485358
141.764979,104.485357
141.620342,104.380271
141.457016,104.307554
141.457014,104.307553
141.329343,104.280416
141.282140,104.270383
141.103358,104.270383
141.072703,104.276898
140.928482,104.307553
140.928477,104.307555
140.765157,104.380270
140.620517,104.485358
140.500889,104.618219
140.411499,104.773047
140.411496,104.773053
140.356253,104.943075
140.356252,104.943077
140.337564,105.120883
140.356252,105.298688
140.356253,105.298690
140.411496,105.468712
140.411499,105.468718
140.500890,105.623548
140.542561,105.669829
140.620513,105.756404
140.620516,105.756406
140.620519,105.756409
140.765156,105.861495
140.928482,105.934212
140.928484,105.934212
140.928485,105.934213
140.985024,105.946230
141.092759,105.969130
141.154239,106.002321
141.154658,106.002738
143.313181,108.161261
143.346666,108.222584
143.349500,108.248942
143.349500,108.403802
143.329815,108.470841
143.317651,108.486773
143.308140,108.497336
143.218750,108.652164
143.218747,108.652170
143.163504,108.822192
143.163503,108.822194
143.144815,109.000000
143.163503,109.177805
143.163504,109.177807
143.218747,109.347829
143.218748,109.347830
143.218750,109.347835
143.308141,109.502665
143.314372,109.509585
143.427764,109.635521
143.427767,109.635523
143.427770,109.635526
143.572407,109.740612
143.735733,109.813329
143.910609,109.850500
143.910610,109.850500
144.089389,109.850500
144.089391,109.850500
144.264267,109.813329
144.427593,109.740612
144.519025,109.674182
144.584831,109.650702
144.591911,109.650500
145.178142,109.650500
145.245181,109.670185
145.290936,109.722989
145.300880,109.792147
145.285529,109.836500
145.218750,109.952164
145.218747,109.952170
145.163504,110.122192
145.163503,110.122195
145.151283,110.238462
145.124698,110.303077
145.067400,110.343061
145.027962,110.349500
136.951381,110.349500
136.884342,110.329815
136.838587,110.277011
136.828643,110.207853
136.833449,110.187185
136.836495,110.177808
136.836496,110.177807
136.836497,110.177803
136.855185,110.000000
136.836497,109.822197
136.787105,109.670185
136.781252,109.652170
136.781251,109.652169
136.781250,109.652165
136.729190,109.561996
136.712719,109.494101
136.729190,109.438004
136.781250,109.347835
136.836497,109.177803
136.855185,109.000000
136.836497,108.822197
136.781250,108.652165
136.691859,108.497335
136.682349,108.486773
136.652120,108.423782
136.650500,108.403802
136.650500,106.596197
136.670185,106.529158
136.682352,106.513223
136.691859,106.502665
136.781250,106.347835
136.836497,106.177803
136.855185,106.000000
136.836497,105.822197
136.781250,105.652165
136.691859,105.497335
136.645003,105.445296
136.572235,105.364478
136.572232,105.364476
136.572231,105.364475
136.572230,105.364474
136.427593,105.259388
136.264267,105.186671
136.264265,105.186670
136.136594,105.159533
136.089391,105.149500
136.069807,105.149500
136.002768,105.129815
135.957013,105.077011
135.947069,105.007853
135.976094,104.944297
135.982126,104.937819
136.069446,104.850500
136.233127,104.686819
136.294450,104.653334
136.320808,104.650500
138.408089,104.650500
138.475128,104.670185
138.480976,104.674182
138.572407,104.740612
138.735733,104.813329
138.910609,104.850500
138.910610,104.850500
139.089389,104.850500
139.089391,104.850500
139.264267,104.813329
139.427593,104.740612
139.572230,104.635526
139.587814,104.618219
139.598148,104.606741
139.691859,104.502665
139.781250,104.347835
139.836497,104.177803
139.855185,104.000000
139.836497,103.822197
139.781250,103.652165
139.691859,103.497335
139.645003,103.445296
139.572235,103.364478
139.572232,103.364476
139.572231,103.364475
139.572230,103.364474
139.427593,103.259388
139.264267,103.186671
139.264265,103.186670
139.136594,103.159533
139.089391,103.149500
138.910609,103.149500
138.879954,103.156015
138.735733,103.186670
138.735728,103.186672
138.572408,103.259388
138.572403,103.259390
138.480974,103.325818
138.415168,103.349298
138.408089,103.349500
135.935929,103.349500
135.810261,103.374497
135.810251,103.374500
135.779341,103.387303
135.779342,103.387304
135.691877,103.423532
135.691863,103.423540
135.585332,103.494721
135.585325,103.494727
134.766873,104.313181
134.705550,104.346666
134.679192,104.349500
134.441911,104.349500
134.374872,104.329815
134.369025,104.325818
134.277594,104.259389
134.277593,104.259388
134.114267,104.186671
134.114265,104.186670
133.986594,104.159533
133.939391,104.149500
133.760609,104.149500
133.729954,104.156015
133.585733,104.186670
133.585728,104.186672
133.422408,104.259387
133.277768,104.364475
133.158140,104.497336
133.068750,104.652164
133.068747,104.652170
133.013504,104.822192
133.013503,104.822194
132.994815,105.000000
133.013503,105.177805
133.013504,105.177807
133.068747,105.347829
133.068750,105.347835
133.158141,105.502665
133.199812,105.548946
133.277764,105.635521
133.277767,105.635523
133.277770,105.635526
133.422407,105.740612
133.585733,105.813329
133.760609,105.850500
133.760610,105.850500
133.939389,105.850500
133.939391,105.850500
134.114267,105.813329
134.277593,105.740612
134.369025,105.674182
134.434831,105.650702
134.441911,105.650500
135.048619,105.650500
135.115658,105.670185
135.161413,105.722989
135.171357,105.792147
135.166551,105.812815
135.163504,105.822191
135.163503,105.822194
135.144815,106.000000
135.163503,106.177805
135.163504,106.177807
135.218747,106.347829
135.218750,106.347835
135.308141,106.502665
135.317648,106.513223
135.347879,106.576213
135.349500,106.596197
135.349500,108.403802
135.329815,108.470841
135.317651,108.486773
135.308140,108.497336
135.218750,108.652164
135.218747,108.652170
135.163504,108.822192
135.163503,108.822194
135.144815,109.000000
135.163503,109.177805
135.163504,109.177807
135.218750,109.347836
135.270806,109.438000
135.287279,109.505900
135.270806,109.562000
135.218750,109.652163
135.163504,109.822192
135.163503,109.822194
135.157011,109.883963
135.130425,109.948577
135.121371,109.958681
134.766873,110.313181
134.705550,110.346666
134.679192,110.349500
132.435929,110.349500
132.310261,110.374497
132.310255,110.374499
132.191874,110.423534
132.085326,110.494726
130.366871,112.213181
130.305548,112.246666
130.279190,112.249500
129.202129,112.249500
129.202123,112.249501
129.135443,112.256669
129.066683,112.244262
129.034509,112.221060
128.942654,112.129205
128.942649,112.129201
128.738848,111.981132
128.738847,111.981131
128.738845,111.981130
128.663265,111.942620
128.514383,111.866760
128.274785,111.788910
128.025962,111.749500
127.774038,111.749500
127.649728,111.769189
127.525214,111.788910
127.285616,111.866760
127.061151,111.981132
126.857350,112.129201
126.857345,112.129205
126.679205,112.307345
126.679201,112.307350
126.531132,112.511151
126.416760,112.735616
126.338910,112.975214
126.338910,112.975215
126.299500,113.224038
126.299500,114.775962
126.316896,114.885797
126.338910,115.024785
126.416760,115.264383
126.531132,115.488848
126.679201,115.692649
126.679205,115.692654
126.857345,115.870794
126.857350,115.870798
126.997797,115.972838
127.061155,116.018870
127.204184,116.091747
127.285616,116.133239
127.285618,116.133239
127.285621,116.133241
127.525215,116.211090
127.774038,116.250500
127.774039,116.250500
128.025961,116.250500
128.025962,116.250500
128.274785,116.211090
128.514379,116.133241
128.738845,116.018870
128.942656,115.870793
129.034511,115.778937
129.095831,115.745454
129.135445,115.743330
129.142514,115.744089
129.142517,115.744091
129.202127,115.750500
130.797872,115.750499
130.857483,115.744091
130.992331,115.693796
131.107546,115.607546
131.136236,115.569220
131.192166,115.527353
131.261857,115.522368
131.308386,115.543217
131.344590,115.569521
131.344592,115.569522
131.344595,115.569524
131.356324,115.575500
131.519970,115.658882
131.519972,115.658882
131.519975,115.658884
131.610489,115.688294
131.707173,115.719709
131.901578,115.750500
131.901583,115.750500
132.098421,115.750500
132.190884,115.735854
132.236411,115.728644
132.305704,115.737598
132.343490,115.763436
132.867873,116.287819
132.901358,116.349142
132.896374,116.418834
132.854502,116.474767
132.789038,116.499184
132.780192,116.499500
122.376425,116.499500
122.309386,116.479815
122.263631,116.427011
122.253687,116.357853
122.282712,116.294297
122.338106,116.257569
122.374669,116.245688
122.499219,116.205220
122.681610,116.112287
122.810193,116.018867
122.847213,115.991971
122.847215,115.991968
122.847219,115.991966
122.991966,115.847219
122.991968,115.847215
122.991971,115.847213
123.062236,115.750500
123.112287,115.681610
123.205220,115.499219
123.268477,115.304534
123.300500,115.102352
123.300500,114.897648
123.294150,114.857557
123.268477,114.695465
123.205218,114.500776
123.160276,114.412574
123.112287,114.318390
123.104556,114.307749
122.991971,114.152786
122.847213,114.008028
122.681613,113.887715
122.681612,113.887714
122.681610,113.887713
122.624653,113.858691
122.499223,113.794781
122.304534,113.731522
122.129995,113.703878
122.102352,113.699500
121.897648,113.699500
121.873329,113.703351
121.695465,113.731522
121.500776,113.794781
121.318386,113.887715
121.152786,114.008028
121.008028,114.152786
120.887715,114.318386
120.794781,114.500776
120.742431,114.661894
120.702993,114.719569
120.638634,114.746767
120.569788,114.734852
120.518312,114.687608
120.500500,114.623575
120.500500,98.000000
138.144815,98.000000
138.163503,98.177805
138.163504,98.177807
138.218747,98.347829
138.218748,98.347830
138.218750,98.347835
138.232887,98.372322
138.249500,98.434320
138.249500,99.926082
138.249500,100.073918
138.249500,100.073920
138.249499,100.073920
138.278340,100.218907
138.278343,100.218917
138.334912,100.355488
138.334919,100.355501
138.417048,100.478415
138.417051,100.478419
138.521580,100.582948
138.521584,100.582951
138.644498,100.665080
138.644511,100.665087
138.781082,100.721656
138.781087,100.721658
138.781091,100.721658
138.781092,100.721659
138.926079,100.750500
138.926082,100.750500
141.568259,100.750500
141.618693,100.761219
141.735733,100.813329
141.910609,100.850500
141.910610,100.850500
142.089389,100.850500
142.089391,100.850500
142.264267,100.813329
142.427593,100.740612
142.572230,100.635526
142.581258,100.625500
142.610533,100.592986
142.691859,100.502665
142.781250,100.347835
142.836497,100.177803
142.855185,100.000000
142.836497,99.822197
142.781250,99.652165
142.691859,99.497335
142.645003,99.445296
142.572235,99.364478
142.572232,99.364476
142.572231,99.364475
142.572230,99.364474
142.427593,99.259388
142.264267,99.186671
142.264265,99.186670
142.136594,99.159533
142.089391,99.149500
141.910609,99.149500
141.879954,99.156015
141.735733,99.186670
141.618694,99.238780
141.568259,99.249500
139.874500,99.249500
139.807461,99.229815
139.761706,99.177011
139.750500,99.125500
139.750500,98.434320
139.767112,98.372322
139.781250,98.347835
139.836497,98.177803
139.855185,98.000000
139.836497,97.822197
139.781250,97.652165
139.767113,97.627678
139.750500,97.565678
139.750500,96.972117
143.103531,96.972117
143.122219,97.149922
143.122220,97.149924
143.177463,97.319946
143.177466,97.319952
143.266857,97.474782
143.270132,97.478419
143.276364,97.485340
143.306595,97.548330
143.308216,97.568314
143.308216,102.872785
143.318894,102.926465
143.333215,102.998460
143.382251,103.116843
143.428908,103.186671
143.453442,103.223389
143.453443,103.223390
145.271371,105.041317
145.304856,105.102640
145.307010,105.116031
145.313503,105.177803
145.313504,105.177805
145.313504,105.177807
145.368747,105.347829
145.368750,105.347835
145.458141,105.502665
145.499812,105.548946
145.577764,105.635521
145.577767,105.635523
145.577770,105.635526
145.722407,105.740612
145.885733,105.813329
146.060609,105.850500
146.060610,105.850500
146.239389,105.850500
146.239391,105.850500
146.414267,105.813329
146.577593,105.740612
146.722230,105.635526
146.841859,105.502665
146.931250,105.347835
146.986497,105.177803
147.005185,105.000000
146.986497,104.822197
146.931250,104.652165
146.841859,104.497335
146.795003,104.445296
146.722235,104.364478
146.722232,104.364476
146.722231,104.364475
146.722230,104.364474
146.577593,104.259388
146.414267,104.186671
146.414265,104.186670
146.277473,104.157594
146.249989,104.151752
146.188508,104.118561
146.188090,104.118144
145.617790,103.547844
147.200000,103.547844
147.206401,103.607372
147.206403,103.607379
147.256645,103.742086
147.256649,103.742093
147.342809,103.857187
147.342812,103.857190
147.457906,103.943350
147.457913,103.943354
147.592620,103.993596
147.592627,103.993598
147.652155,103.999999
147.652172,104.000000
148.050000,104.000000
148.550000,104.000000
148.947828,104.000000
148.947844,103.999999
149.007372,103.993598
149.007379,103.993596
149.142086,103.943354
149.142093,103.943350
149.257187,103.857190
149.257190,103.857187
149.343350,103.742093
149.343354,103.742086
149.393596,103.607379
149.393598,103.607372
149.399999,103.547844
149.400000,103.547827
149.400000,102.500000
148.550000,102.500000
148.550000,104.000000
148.050000,104.000000
148.050000,102.500000
147.200000,102.500000
147.200000,103.547844
145.617790,103.547844
144.645535,102.575589
144.612050,102.514266
144.609216,102.487908
144.609216,100.952155
147.200000,100.952155
147.200000,102.000000
148.050000,102.000000
148.550000,102.000000
149.400000,102.000000
149.400000,100.952172
149.399999,100.952155
149.393598,100.892627
149.393596,100.892620
149.343354,100.757913
149.343350,100.757906
149.257190,100.642812
149.257187,100.642809
149.142093,100.556649
149.142086,100.556645
149.007379,100.506403
149.007372,100.506401
148.947844,100.500000
148.550000,100.500000
148.550000,102.000000
148.050000,102.000000
148.050000,100.500000
147.652155,100.500000
147.592627,100.506401
147.592620,100.506403
147.457913,100.556645
147.457906,100.556649
147.342812,100.642809
147.342809,100.642812
147.256649,100.757906
147.256645,100.757913
147.206403,100.892620
147.206401,100.892627
147.200000,100.952155
144.609216,100.952155
144.609216,97.568314
144.628901,97.501275
144.641068,97.485340
144.650575,97.474782
144.739966,97.319952
144.795213,97.149920
144.813901,96.972117
144.795213,96.794314
144.739966,96.624282
144.650575,96.469452
144.565079,96.374499
144.530951,96.336595
144.530948,96.336593
144.530947,96.336592
144.530946,96.336591
144.386309,96.231505
144.222983,96.158788
144.222981,96.158787
144.095310,96.131650
144.048107,96.121617
143.869325,96.121617
143.838670,96.128132
143.694449,96.158787
143.694444,96.158789
143.531124,96.231504
143.386484,96.336592
143.266856,96.469453
143.177466,96.624281
143.177463,96.624287
143.122220,96.794309
143.122219,96.794311
143.103531,96.972117
139.750500,96.972117
139.750500,96.362228
139.770185,96.295189
139.786814,96.274552
142.219177,93.842188
142.259111,93.817729
142.258329,93.815972
142.264263,93.813329
142.264267,93.813329
142.427593,93.740612
142.572230,93.635526
142.691859,93.502665
142.781250,93.347835
142.836497,93.177803
142.855185,93.000000
142.836497,92.822197
142.785250,92.664475
142.781252,92.652170
142.781249,92.652164
142.691859,92.497335
142.599221,92.394450
142.572235,92.364478
142.572232,92.364476
142.572231,92.364475
142.572230,92.364474
142.427593,92.259388
142.264267,92.186671
142.264265,92.186670
142.258330,92.184028
142.259106,92.182284
142.219175,92.157808
140.786819,90.725451
140.753334,90.664128
140.750500,90.637770
140.750500,88.926079
140.734010,88.843183
140.734010,88.843182
140.721659,88.781088
140.683862,88.689839
140.683862,88.689838
140.665086,88.644508
140.612275,88.565470
140.612275,88.565469
140.597613,88.543527
140.582952,88.521584
140.450814,88.389446
140.420564,88.340082
140.397171,88.268084
140.397169,88.268080
140.330007,88.151753
140.307780,88.113254
140.296260,88.100460
140.188156,87.980397
140.188153,87.980395
140.188152,87.980394
140.188151,87.980393
140.043514,87.875307
139.880188,87.802590
139.880186,87.802589
139.752515,87.775452
139.705312,87.765419
139.526530,87.765419
139.495875,87.771934
139.351654,87.802589
139.351649,87.802591
139.188329,87.875306
139.043689,87.980394
138.924061,88.113255
138.834671,88.268083
138.834668,88.268089
138.779425,88.438111
138.779424,88.438113
138.760736,88.615919
138.779424,88.793724
138.779425,88.793726
138.834668,88.963748
138.834671,88.963754
138.924062,89.118584
138.965733,89.164865
139.043685,89.251440
139.043688,89.251442
139.043691,89.251445
139.188328,89.356531
139.193586,89.360351
139.192725,89.361535
139.235713,89.406615
139.249500,89.463440
139.249500,91.073918
139.249500,91.073920
139.249499,91.073920
139.278340,91.218907
139.278343,91.218917
139.334914,91.355492
139.367812,91.404727
139.367813,91.404730
139.417046,91.478414
139.417052,91.478421
140.850950,92.912319
140.884435,92.973642
140.879451,93.043334
140.850950,93.087681
138.417047,95.521584
138.404100,95.540961
138.391209,95.560256
138.362965,95.602525
138.334914,95.644507
138.278343,95.781082
138.278340,95.781092
138.249500,95.926079
138.249500,97.565678
138.232887,97.627678
138.218750,97.652163
138.163504,97.822192
138.163503,97.822194
138.144815,98.000000
120.500500,98.000000
120.500500,94.000000
126.144815,94.000000
126.163503,94.177805
126.163504,94.177807
126.218747,94.347829
126.218750,94.347835
126.308141,94.502665
126.349812,94.548946
126.427764,94.635521
126.427767,94.635523
126.427770,94.635526
126.572407,94.740612
126.735733,94.813329
126.910609,94.850500
126.910610,94.850500
127.089389,94.850500
127.089391,94.850500
127.264267,94.813329
127.427593,94.740612
127.572230,94.635526
127.691859,94.502665
127.781250,94.347835
127.836497,94.177803
127.855185,94.000000
127.836497,93.822197
127.781250,93.652165
127.691859,93.497335
127.682349,93.486773
127.652120,93.423782
127.650500,93.403802
127.650500,88.320808
127.670185,88.253769
127.686819,88.233127
131.233127,84.686819
131.294450,84.653334
131.320808,84.650500
142.064071,84.650500
142.148615,84.633682
142.189744,84.625501
142.308127,84.576465
142.317991,84.569873
142.324583,84.565470
142.392357,84.520185
142.414669,84.505277
144.038090,82.881854
144.099411,82.848371
144.099757,82.848296
144.264267,82.813329
144.427593,82.740612
144.572230,82.635526
144.691859,82.502665
144.781250,82.347835
144.836497,82.177803
144.855185,82.000000
144.836497,81.822197
144.804661,81.724217
144.781252,81.652170
144.781249,81.652164
144.771643,81.635526
144.691859,81.497335
144.645003,81.445296
144.572235,81.364478
144.572232,81.364476
144.572231,81.364475
144.572230,81.364474
144.427593,81.259388
144.264267,81.186671
144.264265,81.186670
144.136594,81.159533
144.089391,81.149500
143.910609,81.149500
143.879954,81.156015
143.735733,81.186670
143.735728,81.186672
143.572408,81.259387
143.427768,81.364475
143.308140,81.497336
143.218750,81.652164
143.218747,81.652170
143.163504,81.822192
143.163503,81.822194
143.163503,81.822197
143.157233,81.881856
143.157011,81.883964
143.130426,81.948578
143.121371,81.958682
141.992517,83.087536
141.931194,83.121021
141.861502,83.116037
141.805569,83.074165
141.781152,83.008701
141.787401,82.965245
141.786512,82.965035
141.788296,82.957483
141.794705,82.897873
141.794704,81.102128
141.788296,81.042517
141.781682,81.024785
141.738002,80.907671
141.737998,80.907664
141.651752,80.792455
141.651749,80.792452
141.536540,80.706206
141.536533,80.706202
141.404606,80.656997
141.348672,80.615126
141.324255,80.549662
141.339107,80.481389
141.360258,80.453133
141.482313,80.331078
141.617805,80.137578
141.717634,79.923492
141.717637,79.923486
141.774841,79.710000
140.877217,79.710000
140.910130,79.652993
140.944205,79.525826
140.944205,79.394174
140.910130,79.267007
140.877217,79.210000
141.774841,79.210000
141.774840,79.209999
141.717637,78.996513
141.717634,78.996507
141.617805,78.782422
141.617804,78.782420
141.482318,78.588926
141.482313,78.588920
141.315287,78.421894
141.121783,78.286399
140.907697,78.186570
140.907691,78.186567
140.694205,78.129364
140.694205,79.026988
140.637198,78.994075
140.510031,78.960000
140.378379,78.960000
140.251212,78.994075
140.194205,79.026988
140.194205,78.129364
140.194204,78.129364
139.980718,78.186567
139.980712,78.186570
139.766627,78.286399
139.766625,78.286400
139.573131,78.421886
139.573125,78.421891
139.406096,78.588920
139.406091,78.588926
139.270605,78.782420
139.270604,78.782422
139.170775,78.996507
139.170772,78.996513
139.113569,79.209999
139.113569,79.210000
140.011193,79.210000
139.978280,79.267007
139.944205,79.394174
139.944205,79.525826
139.978280,79.652993
140.011193,79.710000
139.113569,79.710000
139.170772,79.923486
139.170775,79.923492
139.270604,80.137578
139.406099,80.331082
139.528151,80.453134
139.561636,80.514457
139.556652,80.584149
139.514780,80.640082
139.483803,80.656997
139.351876,80.706202
139.351869,80.706206
139.236660,80.792452
139.236657,80.792455
139.150411,80.907664
139.150407,80.907671
139.100113,81.042517
139.095192,81.088294
139.093706,81.102123
139.093705,81.102135
139.093705,82.897870
139.093706,82.897876
139.100113,82.957483
139.150407,83.092328
139.150409,83.092331
139.194470,83.151189
139.218888,83.216652
139.204037,83.284925
139.154632,83.334331
139.095204,83.349500
130.935929,83.349500
130.810261,83.374497
130.810255,83.374499
130.691870,83.423535
130.585331,83.494722
130.585324,83.494728
126.494726,87.585326
126.425465,87.688985
126.425464,87.688986
126.423538,87.691867
126.423532,87.691878
126.374499,87.810255
126.374497,87.810261
126.349500,87.935928
126.349500,93.403802
126.329815,93.470841
126.317651,93.486773
126.308140,93.497336
126.218750,93.652164
126.218747,93.652170
126.163504,93.822192
126.163503,93.822194
126.144815,94.000000
120.500500,94.000000
120.500500,79.376424
120.520185,79.309385
120.572989,79.263630
120.642147,79.253686
120.705703,79.282711
120.742431,79.338106
120.794780,79.499219
120.887712,79.681609
120.887715,79.681613
121.008028,79.847213
121.152786,79.991971
121.241200,80.056206
121.318390,80.112287
121.434607,80.171503
121.500776,80.205218
121.500778,80.205218
121.500781,80.205220
121.592801,80.235119
121.695465,80.268477
121.796557,80.284488
121.897648,80.300500
121.897649,80.300500
122.102351,80.300500
122.102352,80.300500
122.304534,80.268477
122.499219,80.205220
122.681610,80.112287
122.774590,80.044732
122.847213,79.991971
122.847215,79.991968
122.847219,79.991966
122.991966,79.847219
122.991968,79.847215
122.991971,79.847213
123.069421,79.740610
123.112287,79.681610
123.205220,79.499219
123.268477,79.304534
123.281227,79.224038
126.299500,79.224038
126.299500,80.775962
126.327671,80.953825
126.338910,81.024785
126.416760,81.264383
126.463521,81.356155
126.517058,81.461228
126.531132,81.488848
126.679201,81.692649
126.679205,81.692654
126.857345,81.870794
126.857350,81.870798
126.964406,81.948578
127.061155,82.018870
127.169193,82.073918
127.285616,82.133239
127.285618,82.133239
127.285621,82.133241
127.525215,82.211090
127.774038,82.250500
127.774039,82.250500
128.025961,82.250500
128.025962,82.250500
128.274785,82.211090
128.514379,82.133241
128.738845,82.018870
128.942656,81.870793
129.120793,81.692656
129.184298,81.605247
129.239628,81.562581
129.309241,81.556602
129.340912,81.567647
129.344593,81.569522
129.344595,81.569524
129.414708,81.605248
129.519970,81.658882
129.519972,81.658882
129.519975,81.658884
129.568184,81.674548
129.707173,81.719709
129.901578,81.750500
129.901583,81.750500
130.098422,81.750500
130.292826,81.719709
130.480025,81.658884
130.655405,81.569524
130.814646,81.453828
130.912319,81.356155
130.973642,81.322670
131.043334,81.327654
131.087681,81.356155
131.185354,81.453828
131.344595,81.569524
131.414708,81.605248
131.519970,81.658882
131.519972,81.658882
131.519975,81.658884
131.568184,81.674548
131.707173,81.719709
131.901578,81.750500
131.901583,81.750500
132.098422,81.750500
132.292826,81.719709
132.480025,81.658884
132.655405,81.569524
132.691614,81.543215
132.757417,81.519736
132.825471,81.535560
132.863763,81.569220
132.892454,81.607546
132.892455,81.607546
132.892456,81.607548
133.007664,81.693793
133.007671,81.693797
133.142517,81.744091
133.142516,81.744091
133.149444,81.744835
133.202127,81.750500
134.797872,81.750499
134.857483,81.744091
134.857486,81.744089
134.864554,81.743330
134.933314,81.755736
134.965490,81.778939
135.057345,81.870794
135.057350,81.870798
135.164406,81.948578
135.261155,82.018870
135.369193,82.073918
135.485616,82.133239
135.485618,82.133239
135.485621,82.133241
135.725215,82.211090
135.974038,82.250500
135.974039,82.250500
136.225961,82.250500
136.225962,82.250500
136.474785,82.211090
136.714379,82.133241
136.938845,82.018870
137.142656,81.870793
137.320793,81.692656
137.468870,81.488845
137.583241,81.264379
137.661090,81.024785
137.700500,80.775962
137.700500,79.224038
137.661090,78.975215
137.583241,78.735621
137.583239,78.735618
137.583239,78.735616
137.508493,78.588920
137.468870,78.511155
137.420986,78.445248
137.320798,78.307350
137.320794,78.307345
137.142654,78.129205
137.142649,78.129201
136.938848,77.981132
136.938847,77.981131
136.938845,77.981130
136.868747,77.945413
136.714383,77.866760
136.474785,77.788910
136.225962,77.749500
135.974038,77.749500
135.849626,77.769205
135.725214,77.788910
135.485616,77.866760
135.261151,77.981132
135.057350,78.129200
134.965487,78.221062
134.904163,78.254546
134.864553,78.256669
134.855522,78.255698
134.797873,78.249500
134.797865,78.249500
133.202129,78.249500
133.202123,78.249501
133.142516,78.255908
133.007671,78.306202
133.007664,78.306206
132.892455,78.392452
132.863765,78.430777
132.807830,78.472648
132.738139,78.477631
132.691613,78.456783
132.655405,78.430476
132.480029,78.341117
132.292826,78.280290
132.098422,78.249500
132.098417,78.249500
131.901583,78.249500
131.901578,78.249500
131.707173,78.280290
131.519970,78.341117
131.344594,78.430476
131.279692,78.477631
131.185354,78.546172
131.185352,78.546174
131.185351,78.546174
131.087681,78.643845
131.026358,78.677330
130.956666,78.672346
130.912319,78.643845
130.814648,78.546174
130.814646,78.546172
130.655405,78.430476
130.629051,78.417048
130.480029,78.341117
130.292826,78.280290
130.098422,78.249500
130.098417,78.249500
129.901583,78.249500
129.901578,78.249500
129.707173,78.280290
129.519967,78.341118
129.340911,78.432352
129.272242,78.445248
129.207502,78.418971
129.184299,78.394752
129.120798,78.307349
128.942654,78.129205
128.942649,78.129201
128.738848,77.981132
128.738847,77.981131
128.738845,77.981130
128.668747,77.945413
128.514383,77.866760
128.274785,77.788910
128.025962,77.749500
127.774038,77.749500
127.649626,77.769205
127.525214,77.788910
127.285616,77.866760
127.061151,77.981132
126.857350,78.129201
126.857345,78.129205
126.679205,78.307345
126.679201,78.307350
126.531132,78.511151
126.416760,78.735616
126.338910,78.975214
126.306823,79.177803
126.299500,79.224038
123.281227,79.224038
123.300500,79.102352
123.300500,78.897648
123.268477,78.695466
123.265191,78.685354
123.215733,78.533137
123.205220,78.500781
123.205218,78.500778
123.205218,78.500776
123.151195,78.394752
123.112287,78.318390
123.089045,78.286400
122.991971,78.152786
122.847213,78.008028
122.681613,77.887715
122.681612,77.887714
122.681610,77.887713
122.624653,77.858691
122.499223,77.794781
122.338106,77.742431
122.280431,77.702993
122.253233,77.638634
122.265148,77.569788
122.312392,77.518312
122.376425,77.500500
157.623575,77.500500
Z" /> 
</g>
<g style="fill:#FFFFFF; fill-opacity:1.000000; stroke:none;">
<circle cx="155.300000" cy="91.000000" r="0.150000" /> 
</g>
<g style="fill:#FFFFFF; fill-opacity:1.000000; stroke:none;">
<circle cx="141.000000" cy="106.000000" r="0.150000" /> 
</g>
<g style="fill:#FFFFFF; fill-opacity:1.000000; stroke:none;">
<circle cx="137.000000" cy="100.000000" r="0.150000" /> 
</g>
<g style="fill:#FFFFFF; fill-opacity:1.000000; stroke:none;">
<circle cx="154.000000" cy="93.000000" r="0.150000" /> 
</g>
<g style="fill:#FFFFFF; fill-opacity:1.000000; stroke:none;">
<circle cx="125.971020" cy="110.300000" r="0.150000" /> 
</g>
<g style="fill:#FFFFFF; fill-opacity:1.000000; stroke:none;">
<circle cx="151.000000" cy="103.000000" r="0.150000" /> 
</g>
<g style="fill:#FFFFFF; fill-opacity:1.000000; stroke:none;">
<circle cx="136.000000" cy="86.000000" r="0.150000" /> 
</g>
<g style="fill:#FFFFFF; fill-opacity:1.000000; stroke:none;">
<circle cx="148.000000" cy="100.000000" r="0.150000" /> 
</g>
<g style="fill:#FFFFFF; fill-opacity:1.000000; stroke:none;">
<circle cx="136.000000" cy="92.000000" r="0.150000" /> 
</g>
<g style="fill:#FFFFFF; fill-opacity:1.000000; stroke:none;">
<circle cx="125.000000" cy="105.000000" r="0.150000" /> 
</g>
<g style="fill:#FFFFFF; fill-opacity:1.000000; stroke:none;">
<circle cx="151.000000" cy="113.300000" r="0.150000" /> 
</g>
<g style="fill:#FFFFFF; fill-opacity:1.000000; stroke:none;">
<circle cx="153.000000" cy="110.000000" r="0.150000" /> 
</g>
<g style="fill:#FFFFFF; fill-opacity:1.000000; stroke:none;">
<circle cx="155.000000" cy="79.000000" r="0.150000" /> 
</g>
<g style="fill:#FFFFFF; fill-opacity:1.000000; stroke:none;">
<circle cx="143.000000" cy="86.000000" r="0.150000" /> 
</g>
<g style="fill:#FFFFFF; fill-opacity:1.000000; stroke:none;">
<circle cx="139.000000" cy="104.000000" r="0.150000" /> 
</g>
<g style="fill:#FFFFFF; fill-opacity:1.000000; stroke:none;">
<circle cx="133.850000" cy="105.000000" r="0.150000" /> 
</g>
<g style="fill:#FFFFFF; fill-opacity:1.000000; stroke:none;">
<circle cx="152.000000" cy="81.000000" r="0.150000" /> 
</g>
<g style="fill:#FFFFFF; fill-opacity:1.000000; stroke:none;">
<circle cx="127.000000" cy="94.000000" r="0.150000" /> 
</g>
<g style="fill:#FFFFFF; fill-opacity:1.000000; stroke:none;">
<circle cx="144.000000" cy="82.000000" r="0.150000" /> 
</g>
<g style="fill:#FFFFFF; fill-opacity:1.000000; stroke:none;">
<circle cx="145.000000" cy="95.000000" r="0.150000" /> 
</g>
<g style="fill:#FFFFFF; fill-opacity:1.000000; stroke:none;">
<circle cx="151.000000" cy="99.602500" r="0.150000" /> 
</g>
<g style="fill:#FFFFFF; fill-opacity:1.000000; stroke:none;">
<circle cx="136.000000" cy="110.000000" r="0.150000" /> 
</g>
<g style="fill:#FFFFFF; fill-opacity:1.000000; stroke:none;">
<circle cx="152.000000" cy="110.000000" r="0.150000" /> 
</g>
<g style="fill:#FFFFFF; fill-opacity:1.000000; stroke:none;">
<circle cx="139.615921" cy="88.615919" r="0.150000" /> 
</g>
<g style="fill:#FFFFFF; fill-opacity:1.000000; stroke:none;">
<circle cx="142.000000" cy="93.000000" r="0.150000" /> 
</g>
<g style="fill:#FFFFFF; fill-opacity:1.000000; stroke:none;">
<circle cx="139.000000" cy="98.000000" r="0.150000" /> 
</g>
<g style="fill:#FFFFFF; fill-opacity:1.000000; stroke:none;">
<circle cx="142.000000" cy="100.000000" r="0.150000" /> 
</g>
<g style="fill:#FFFFFF; fill-opacity:1.000000; stroke:none;">
<circle cx="154.000000" cy="85.000000" r="0.150000" /> 
</g>
<g style="fill:#FFFFFF; fill-opacity:1.000000; stroke:none;">
<circle cx="136.000000" cy="106.000000" r="0.150000" /> 
</g>
<g style="fill:#FFFFFF; fill-opacity:1.000000; stroke:none;">
<circle cx="136.000000" cy="109.000000" r="0.150000" /> 
</g>
<g style="fill:#FFFFFF; fill-opacity:1.000000; stroke:none;">
<circle cx="146.000000" cy="110.300000" r="0.150000" /> 
</g>
<g style="fill:#FFFFFF; fill-opacity:1.000000; stroke:none;">
<circle cx="149.000000" cy="110.000000" r="0.150000" /> 
</g>
<g style="fill:#FFFFFF; fill-opacity:1.000000; stroke:none;">
<circle cx="153.000000" cy="85.000000" r="0.150000" /> 
</g>
<g style="fill:#FFFFFF; fill-opacity:1.000000; stroke:none;">
<circle cx="151.000000" cy="107.000000" r="0.150000" /> 
</g>
<g style="fill:#FFFFFF; fill-opacity:1.000000; stroke:none;">
<circle cx="144.000000" cy="109.000000" r="0.150000" /> 
</g>
<g style="fill:#FFFFFF; fill-opacity:1.000000; stroke:none;">
<circle cx="141.192749" cy="105.120883" r="0.150000" /> 
</g>
<g style="fill:#FFFFFF; fill-opacity:1.000000; stroke:none;">
<circle cx="152.000000" cy="93.300000" r="0.150000" /> 
</g>
<g style="fill:#FFFFFF; fill-opacity:1.000000; stroke:none;">
<circle cx="143.958716" cy="96.972117" r="0.150000" /> 
</g>
<g style="fill:#FFFFFF; fill-opacity:1.000000; stroke:none;">
<circle cx="146.150000" cy="105.000000" r="0.150000" /> 
</g>
<g style="fill:#FFFFFF; fill-opacity:1.000000; stroke:none;">
<circle cx="149.000000" cy="84.000000" r="0.150000" /> 
</g>
<g style="fill:#FFFFFF; fill-opacity:1.000000; stroke:none;">
<circle cx="159.000000" cy="89.000000" r="0.150000" /> 
</g>
<g style="fill:#FFFFFF; fill-opacity:1.000000; stroke:none;">
<circle cx="145.260200" cy="87.149702" r="0.150000" /> 
</g>
<g style="fill:#FFFFFF; fill-opacity:1.000000; stroke:none;">
<circle cx="144.000000" cy="90.000000" r="0.150000" /> 
</g>
<g style="fill:#FFFFFF; fill-opacity:1.000000; stroke:none;">
<circle cx="136.100000" cy="80.000000" r="0.175000" /> 
</g>
<g style="fill:#FFFFFF; fill-opacity:1.000000; stroke:none;">
<circle cx="127.900000" cy="80.000000" r="0.175000" /> 
</g>
<g style="fill:#FFFFFF; fill-opacity:1.000000; stroke:none;">
<circle cx="134.000000" cy="80.000000" r="0.175000" /> 
</g>
<g style="fill:#FFFFFF; fill-opacity:1.000000; stroke:none;">
<circle cx="132.000000" cy="80.000000" r="0.175000" /> 
</g>
<g style="fill:#FFFFFF; fill-opacity:1.000000; stroke:none;">
<circle cx="130.000000" cy="80.000000" r="0.175000" /> 
</g>
<g style="fill:#FFFFFF; fill-opacity:1.000000; stroke:none;">
<circle cx="140.444205" cy="82.000000" r="0.175000" /> 
</g>
<g style="fill:#FFFFFF; fill-opacity:1.000000; stroke:none;">
<circle cx="140.444205" cy="79.460000" r="0.175000" /> 
</g>
<g style="fill:#FFFFFF; fill-opacity:1.000000; stroke:none;">
<circle cx="127.900000" cy="114.000000" r="0.175000" /> 
</g>
<g style="fill:#FFFFFF; fill-opacity:1.000000; stroke:none;">
<circle cx="136.100000" cy="114.000000" r="0.175000" /> 
</g>
<g style="fill:#FFFFFF; fill-opacity:1.000000; stroke:none;">
<circle cx="130.000000" cy="114.000000" r="0.175000" /> 
</g>
<g style="fill:#FFFFFF; fill-opacity:1.000000; stroke:none;">
<circle cx="132.000000" cy="114.000000" r="0.175000" /> 
</g>
<g style="fill:#FFFFFF; fill-opacity:1.000000; stroke:none;">
<circle cx="134.000000" cy="114.000000" r="0.175000" /> 
</g>
<g style="fill:#FFFFFF; fill-opacity:1.000000; stroke:none;">
<circle cx="146.000000" cy="114.000000" r="0.175000" /> 
</g>
<g style="fill:#FFFFFF; fill-opacity:1.000000; stroke:none;">
<circle cx="143.460000" cy="114.000000" r="0.175000" /> 
</g>
<g style="fill:#FFFFFF; fill-opacity:1.000000; stroke:none;">
<circle cx="140.920000" cy="114.000000" r="0.175000" /> 
</g>
<g style="fill:#FFFFFF; fill-opacity:1.000000; stroke:none;">
<circle cx="122.000000" cy="115.000000" r="0.175000" /> 
</g>
<g style="fill:#FFFFFF; fill-opacity:1.000000; stroke:none;">
<circle cx="122.000000" cy="79.000000" r="0.175000" /> 
</g>
<g style="fill:#FFFFFF; fill-opacity:1.000000; stroke:none;">
<circle cx="158.000000" cy="79.000000" r="0.175000" /> 
</g>
<g style="fill:#FFFFFF; fill-opacity:1.000000; stroke:none;">
<circle cx="158.000000" cy="115.000000" r="0.175000" /> 
</g>
<g style="fill:#FFFFFF; fill-opacity:1.000000; stroke:none;">
<circle cx="158.000000" cy="99.000000" r="0.175000" /> 
</g>
<g style="fill:#FFFFFF; fill-opacity:1.000000; stroke:none;">
<circle cx="158.000000" cy="110.050000" r="0.175000" /> 
</g>
<g style="fill:#FFFFFF; fill-opacity:1.000000; stroke:none;">
<circle cx="158.000000" cy="85.000000" r="0.175000" /> 
</g>
<g style="fill:#FFFFFF; fill-opacity:1.000000; stroke:none;">
<circle cx="151.000000" cy="85.000000" r="0.175000" /> 
</g> 
</svg>
