%TF.GenerationSoftware,KiCad,Pcbnew,9.0.3*%
%TF.CreationDate,2026-03-11T10:28:53+05:30*%
%TF.ProjectId,final schematics,66696e61-6c20-4736-9368-656d61746963,1.0*%
%TF.SameCoordinates,Original*%
%TF.FileFunction,Copper,L2,Bot*%
%TF.FilePolarity,Positive*%
%FSLAX46Y46*%
G04 Gerber Fmt 4.6, Leading zero omitted, Abs format (unit mm)*
G04 Created by KiCad (PCBNEW 9.0.3) date 2026-03-11 10:28:53*
%MOMM*%
%LPD*%
G01*
G04 APERTURE LIST*
%TA.AperFunction,ComponentPad*%
%ADD10O,2.200000X3.500000*%
%TD*%
%TA.AperFunction,ComponentPad*%
%ADD11R,1.500000X2.500000*%
%TD*%
%TA.AperFunction,ComponentPad*%
%ADD12O,1.500000X2.500000*%
%TD*%
%TA.AperFunction,ComponentPad*%
%ADD13R,1.700000X1.700000*%
%TD*%
%TA.AperFunction,ComponentPad*%
%ADD14O,1.700000X1.700000*%
%TD*%
%TA.AperFunction,ComponentPad*%
%ADD15C,1.440000*%
%TD*%
%TA.AperFunction,SMDPad,CuDef*%
%ADD16R,1.200000X2.500000*%
%TD*%
%TA.AperFunction,ViaPad*%
%ADD17C,0.700000*%
%TD*%
%TA.AperFunction,Conductor*%
%ADD18C,0.300000*%
%TD*%
%TA.AperFunction,Conductor*%
%ADD19C,0.500000*%
%TD*%
G04 APERTURE END LIST*
D10*
%TO.P,PSWT,*%
%TO.N,*%
X136100000Y-80000000D03*
X127900000Y-80000000D03*
D11*
%TO.P,PSWT,1,C*%
%TO.N,unconnected-(PSWT1-C-Pad1)*%
X134000000Y-80000000D03*
D12*
%TO.P,PSWT,2,B*%
%TO.N,switch*%
X132000000Y-80000000D03*
%TO.P,PSWT,3,A*%
%TO.N,+5V*%
X130000000Y-80000000D03*
%TD*%
D13*
%TO.P,BAT,1,Pin_1*%
%TO.N,switch*%
X140444205Y-82000000D03*
D14*
%TO.P,BAT,2,Pin_2*%
%TO.N,GND*%
X140444205Y-79460000D03*
%TD*%
D10*
%TO.P,MSWT,*%
%TO.N,*%
X127900000Y-114000000D03*
X136100000Y-114000000D03*
D11*
%TO.P,MSWT,1,C*%
%TO.N,Heart*%
X130000000Y-114000000D03*
D12*
%TO.P,MSWT,2,B*%
%TO.N,Net-(SW1-B)*%
X132000000Y-114000000D03*
%TO.P,MSWT,3,A*%
%TO.N,Lungs*%
X134000000Y-114000000D03*
%TD*%
D15*
%TO.P,POT,1,1*%
%TO.N,unconnected-(RV1-Pad1)*%
X146000000Y-114000000D03*
%TO.P,POT,2,2*%
%TO.N,Net-(C13-Pad2)*%
X143460000Y-114000000D03*
%TO.P,POT,3,3*%
%TO.N,Net-(U1B--)*%
X140920000Y-114000000D03*
%TD*%
D16*
%TO.P,Listen,R1*%
%TO.N,FSignal*%
X153400000Y-95750000D03*
%TO.P,Listen,R2*%
X156400000Y-95750000D03*
%TO.P,Listen,S*%
%TO.N,GND*%
X148300000Y-102250000D03*
%TO.P,Listen,T*%
%TO.N,unconnected-(J4-PadT)*%
X149400000Y-95750000D03*
%TD*%
%TO.P,Record,R1*%
%TO.N,Net-(J5-PadR1)*%
X153400000Y-106800000D03*
%TO.P,Record,R2*%
X156400000Y-106800000D03*
%TO.P,Record,S*%
%TO.N,GND*%
X148300000Y-113300000D03*
%TO.P,Record,T*%
%TO.N,unconnected-(J5-PadT)*%
X149400000Y-106800000D03*
%TD*%
%TO.P,AFE in,R1*%
%TO.N,Signal*%
X153400000Y-81750000D03*
%TO.P,AFE in,R2*%
X156400000Y-81750000D03*
%TO.P,AFE in,S*%
%TO.N,GND*%
X148300000Y-88250000D03*
%TO.P,AFE in,T*%
%TO.N,unconnected-(J3-PadT)*%
X149400000Y-81750000D03*
%TD*%
D17*
%TO.N,FSignal*%
X155300000Y-91000000D03*
%TO.N,GND*%
X141000000Y-106000000D03*
X137000000Y-100000000D03*
X154000000Y-93000000D03*
X125971020Y-110300000D03*
X151000000Y-103000000D03*
X136000000Y-86000000D03*
X148000000Y-100000000D03*
X136000000Y-92000000D03*
X125000000Y-105000000D03*
X151000000Y-113300000D03*
X153000000Y-110000000D03*
%TO.N,+5V*%
X155000000Y-79000000D03*
X143000000Y-86000000D03*
%TO.N,Net-(U2A-+)*%
X139000000Y-104000000D03*
X133850000Y-105000000D03*
%TO.N,Signal*%
X152000000Y-81000000D03*
X127000000Y-94000000D03*
X144000000Y-82000000D03*
%TO.N,Net-(C6-Pad2)*%
X145000000Y-95000000D03*
X151000000Y-99602500D03*
%TO.N,Heart*%
X136000000Y-110000000D03*
%TO.N,Lungs*%
X152000000Y-110000000D03*
%TO.N,2.5V*%
X139615921Y-88615919D03*
X142000000Y-93000000D03*
X139000000Y-98000000D03*
X142000000Y-100000000D03*
%TO.N,Net-(SW1-B)*%
X154000000Y-85000000D03*
%TO.N,Net-(U2A--)*%
X136000000Y-106000000D03*
X136000000Y-109000000D03*
%TO.N,Net-(U2C--)*%
X146000000Y-110300000D03*
X149000000Y-110000000D03*
%TO.N,Net-(C13-Pad2)*%
X153000000Y-85000000D03*
%TO.N,Net-(U2D-+)*%
X151000000Y-107000000D03*
X144000000Y-109000000D03*
X141192749Y-105120883D03*
%TO.N,Net-(J5-PadR1)*%
X152000000Y-93300000D03*
%TO.N,Net-(R10-Pad1)*%
X143958716Y-96972117D03*
X146150000Y-105000000D03*
%TO.N,Net-(U1B--)*%
X149000000Y-84000000D03*
X159000000Y-89000000D03*
X145260200Y-87149702D03*
X144000000Y-90000000D03*
%TD*%
D18*
%TO.N,FSignal*%
X156400000Y-92100000D02*
X156400000Y-95750000D01*
X156400000Y-95750000D02*
X153400000Y-95750000D01*
X155300000Y-91000000D02*
X156400000Y-92100000D01*
%TO.N,GND*%
X148300000Y-102250000D02*
X148300000Y-100300000D01*
X148300000Y-100300000D02*
X148000000Y-100000000D01*
X151000000Y-113300000D02*
X148300000Y-113300000D01*
D19*
%TO.N,+5V*%
X143000000Y-86000000D02*
X147000000Y-82000000D01*
X153000000Y-79000000D02*
X155000000Y-79000000D01*
X149400000Y-79000000D02*
X153000000Y-79000000D01*
X147000000Y-81400000D02*
X149400000Y-79000000D01*
X147000000Y-82000000D02*
X147000000Y-81400000D01*
D18*
%TO.N,Net-(U2A-+)*%
X135000000Y-105000000D02*
X136000000Y-104000000D01*
X136000000Y-104000000D02*
X139000000Y-104000000D01*
X133850000Y-105000000D02*
X135000000Y-105000000D01*
%TO.N,Signal*%
X153400000Y-81750000D02*
X152750000Y-81750000D01*
X144000000Y-82000000D02*
X142000000Y-84000000D01*
X142000000Y-84000000D02*
X131000000Y-84000000D01*
X131000000Y-84000000D02*
X127000000Y-88000000D01*
X153400000Y-81750000D02*
X156400000Y-81750000D01*
X127000000Y-88000000D02*
X127000000Y-94000000D01*
X152750000Y-81750000D02*
X152000000Y-81000000D01*
%TO.N,Net-(C6-Pad2)*%
X145000000Y-95000000D02*
X149602500Y-99602500D01*
X149602500Y-99602500D02*
X151000000Y-99602500D01*
%TO.N,Heart*%
X130000000Y-113500000D02*
X130000000Y-114000000D01*
X132500000Y-111000000D02*
X130000000Y-113500000D01*
X136000000Y-110000000D02*
X135000000Y-111000000D01*
X135000000Y-111000000D02*
X132500000Y-111000000D01*
%TO.N,Lungs*%
X136000000Y-111000000D02*
X134000000Y-113000000D01*
X134000000Y-113000000D02*
X134000000Y-114000000D01*
X150000000Y-111000000D02*
X136000000Y-111000000D01*
X151000000Y-110000000D02*
X150000000Y-111000000D01*
X152000000Y-110000000D02*
X151000000Y-110000000D01*
D19*
%TO.N,2.5V*%
X140000000Y-91000000D02*
X140000000Y-89000000D01*
X139615921Y-88615921D02*
X139615921Y-88615919D01*
X139000000Y-100000000D02*
X139000000Y-98000000D01*
X142000000Y-100000000D02*
X139000000Y-100000000D01*
X140000000Y-89000000D02*
X139615921Y-88615921D01*
X139000000Y-96000000D02*
X142000000Y-93000000D01*
X142000000Y-93000000D02*
X140000000Y-91000000D01*
X139000000Y-98000000D02*
X139000000Y-96000000D01*
D18*
%TO.N,Net-(SW1-B)*%
X133850000Y-116350000D02*
X136000000Y-116350000D01*
X159000000Y-90000000D02*
X154000000Y-85000000D01*
X159350000Y-111000000D02*
X159350000Y-90350000D01*
X154000000Y-116350000D02*
X159350000Y-111000000D01*
X136000000Y-116350000D02*
X154000000Y-116350000D01*
X159350000Y-90350000D02*
X159000000Y-90000000D01*
X132000000Y-114000000D02*
X132000000Y-114500000D01*
X132000000Y-114500000D02*
X133850000Y-116350000D01*
%TO.N,Net-(U2A--)*%
X136000000Y-109000000D02*
X136000000Y-106000000D01*
%TO.N,Net-(U2C--)*%
X149000000Y-110000000D02*
X148700000Y-110300000D01*
X148700000Y-110300000D02*
X146000000Y-110300000D01*
%TO.N,Net-(C13-Pad2)*%
X143000000Y-115850000D02*
X143000000Y-114460000D01*
X156850000Y-99850000D02*
X158850000Y-101850000D01*
X158000000Y-97000000D02*
X156850000Y-98150000D01*
X143000000Y-114460000D02*
X143460000Y-114000000D01*
X153792894Y-115850000D02*
X143000000Y-115850000D01*
X158850000Y-97000000D02*
X158000000Y-97000000D01*
X156850000Y-109573654D02*
X156850000Y-110850000D01*
X158850000Y-90850000D02*
X158850000Y-97000000D01*
X156850000Y-98150000D02*
X156850000Y-99850000D01*
X158850000Y-107573654D02*
X156850000Y-109573654D01*
X157821447Y-111821447D02*
X153792894Y-115850000D01*
X153000000Y-85000000D02*
X158850000Y-90850000D01*
X156850000Y-110850000D02*
X157821447Y-111821447D01*
X158850000Y-101850000D02*
X158850000Y-107573654D01*
%TO.N,Net-(U2D-+)*%
X144000000Y-109000000D02*
X149750000Y-109000000D01*
X149750000Y-109000000D02*
X151000000Y-107750000D01*
X141192749Y-105120883D02*
X144000000Y-107928134D01*
X144000000Y-107928134D02*
X144000000Y-109000000D01*
X151000000Y-107750000D02*
X151000000Y-107000000D01*
%TO.N,Net-(J5-PadR1)*%
X157550000Y-106800000D02*
X156400000Y-106800000D01*
X152000000Y-100000000D02*
X156000000Y-100000000D01*
X152000000Y-93300000D02*
X152000000Y-100000000D01*
X156400000Y-106800000D02*
X153400000Y-106800000D01*
X158350000Y-102350000D02*
X158350000Y-106000000D01*
X156000000Y-100000000D02*
X158350000Y-102350000D01*
X158350000Y-106000000D02*
X157550000Y-106800000D01*
%TO.N,Net-(R10-Pad1)*%
X143958716Y-102808716D02*
X143958716Y-96972117D01*
X146150000Y-105000000D02*
X143958716Y-102808716D01*
%TO.N,Net-(U1B--)*%
X145110498Y-87000000D02*
X145260200Y-87149702D01*
X153850000Y-83850000D02*
X159000000Y-89000000D01*
X149150000Y-83850000D02*
X153850000Y-83850000D01*
X144000000Y-87000000D02*
X145110498Y-87000000D01*
X144000000Y-90000000D02*
X144000000Y-87000000D01*
X149000000Y-84000000D02*
X149150000Y-83850000D01*
%TD*%
%TA.AperFunction,Conductor*%
%TO.N,GND*%
G36*
X157690614Y-77520185D02*
G01*
X157736369Y-77572989D01*
X157746313Y-77642147D01*
X157717288Y-77705703D01*
X157661894Y-77742431D01*
X157500776Y-77794781D01*
X157318386Y-77887715D01*
X157152786Y-78008028D01*
X157008028Y-78152786D01*
X156887715Y-78318386D01*
X156794781Y-78500776D01*
X156731522Y-78695465D01*
X156699500Y-78897648D01*
X156699500Y-79102351D01*
X156731522Y-79304534D01*
X156794781Y-79499223D01*
X156887712Y-79681609D01*
X156975627Y-79802615D01*
X156999106Y-79868422D01*
X156983280Y-79936476D01*
X156933174Y-79985170D01*
X156875308Y-79999500D01*
X155752129Y-79999500D01*
X155752123Y-79999501D01*
X155692516Y-80005908D01*
X155557671Y-80056202D01*
X155557664Y-80056206D01*
X155442455Y-80142452D01*
X155442452Y-80142455D01*
X155356206Y-80257664D01*
X155356202Y-80257671D01*
X155305908Y-80392517D01*
X155299501Y-80452116D01*
X155299501Y-80452123D01*
X155299500Y-80452135D01*
X155299500Y-80975500D01*
X155279815Y-81042539D01*
X155227011Y-81088294D01*
X155175500Y-81099500D01*
X154624499Y-81099500D01*
X154557460Y-81079815D01*
X154511705Y-81027011D01*
X154500499Y-80975500D01*
X154500499Y-80452129D01*
X154500498Y-80452123D01*
X154500497Y-80452116D01*
X154494091Y-80392517D01*
X154474301Y-80339458D01*
X154443797Y-80257671D01*
X154443793Y-80257664D01*
X154357547Y-80142455D01*
X154357544Y-80142452D01*
X154242335Y-80056206D01*
X154242328Y-80056202D01*
X154107482Y-80005908D01*
X154107483Y-80005908D01*
X154047883Y-79999501D01*
X154047881Y-79999500D01*
X154047873Y-79999500D01*
X154047864Y-79999500D01*
X152752129Y-79999500D01*
X152752123Y-79999501D01*
X152692516Y-80005908D01*
X152557671Y-80056202D01*
X152557664Y-80056206D01*
X152442457Y-80142451D01*
X152442449Y-80142459D01*
X152431470Y-80157125D01*
X152375535Y-80198995D01*
X152305844Y-80203977D01*
X152284753Y-80197373D01*
X152248086Y-80182185D01*
X152248074Y-80182182D01*
X152083771Y-80149500D01*
X152083767Y-80149500D01*
X151916233Y-80149500D01*
X151916228Y-80149500D01*
X151751925Y-80182182D01*
X151751917Y-80182184D01*
X151597139Y-80246295D01*
X151457837Y-80339373D01*
X151339373Y-80457837D01*
X151246295Y-80597139D01*
X151182184Y-80751917D01*
X151182182Y-80751925D01*
X151149500Y-80916228D01*
X151149500Y-81083771D01*
X151182182Y-81248074D01*
X151182184Y-81248082D01*
X151246295Y-81402860D01*
X151339373Y-81542162D01*
X151457837Y-81660626D01*
X151546262Y-81719709D01*
X151597137Y-81753703D01*
X151751918Y-81817816D01*
X151870924Y-81841487D01*
X151897219Y-81846718D01*
X151959130Y-81879102D01*
X151960709Y-81880654D01*
X152263181Y-82183126D01*
X152296666Y-82244449D01*
X152299500Y-82270807D01*
X152299500Y-83047870D01*
X152299501Y-83047879D01*
X152301046Y-83062248D01*
X152288639Y-83131007D01*
X152241027Y-83182143D01*
X152177756Y-83199500D01*
X150622244Y-83199500D01*
X150555205Y-83179815D01*
X150509450Y-83127011D01*
X150498954Y-83062247D01*
X150500500Y-83047873D01*
X150500499Y-80452128D01*
X150494091Y-80392517D01*
X150474301Y-80339458D01*
X150443797Y-80257671D01*
X150443793Y-80257664D01*
X150357547Y-80142455D01*
X150357544Y-80142452D01*
X150242335Y-80056206D01*
X150242328Y-80056202D01*
X150107482Y-80005908D01*
X150107483Y-80005908D01*
X150047883Y-79999501D01*
X150047881Y-79999500D01*
X150047873Y-79999500D01*
X150047865Y-79999500D01*
X149761229Y-79999500D01*
X149739983Y-79993261D01*
X149717895Y-79991682D01*
X149707111Y-79983609D01*
X149694190Y-79979815D01*
X149679690Y-79963081D01*
X149661962Y-79949810D01*
X149657254Y-79937189D01*
X149648435Y-79927011D01*
X149645283Y-79905093D01*
X149637545Y-79884346D01*
X149640407Y-79871185D01*
X149638491Y-79857853D01*
X149647690Y-79837709D01*
X149652397Y-79816073D01*
X149665665Y-79798347D01*
X149667516Y-79794297D01*
X149673548Y-79787819D01*
X149674548Y-79786819D01*
X149735871Y-79753334D01*
X149762229Y-79750500D01*
X152926082Y-79750500D01*
X154564739Y-79750500D01*
X154612191Y-79759938D01*
X154751918Y-79817816D01*
X154899708Y-79847213D01*
X154916228Y-79850499D01*
X154916232Y-79850500D01*
X154916233Y-79850500D01*
X155083768Y-79850500D01*
X155083769Y-79850499D01*
X155248082Y-79817816D01*
X155402863Y-79753703D01*
X155542162Y-79660626D01*
X155660626Y-79542162D01*
X155753703Y-79402863D01*
X155817816Y-79248082D01*
X155850500Y-79083767D01*
X155850500Y-78916233D01*
X155817816Y-78751918D01*
X155753703Y-78597137D01*
X155721171Y-78548449D01*
X155660626Y-78457837D01*
X155542162Y-78339373D01*
X155402860Y-78246295D01*
X155248082Y-78182184D01*
X155248074Y-78182182D01*
X155083771Y-78149500D01*
X155083767Y-78149500D01*
X154916233Y-78149500D01*
X154916228Y-78149500D01*
X154751925Y-78182182D01*
X154751917Y-78182184D01*
X154612192Y-78240061D01*
X154564739Y-78249500D01*
X149326082Y-78249500D01*
X149304412Y-78253810D01*
X149304404Y-78253812D01*
X149299770Y-78254734D01*
X149181088Y-78278341D01*
X149113822Y-78306204D01*
X149106951Y-78309050D01*
X149106944Y-78309052D01*
X149044508Y-78334913D01*
X148962372Y-78389795D01*
X148921585Y-78417047D01*
X148921581Y-78417050D01*
X146417047Y-80921584D01*
X146406252Y-80937740D01*
X146395504Y-80953828D01*
X146365106Y-80999321D01*
X146334914Y-81044507D01*
X146278343Y-81181082D01*
X146278340Y-81181092D01*
X146249500Y-81326079D01*
X146249500Y-81637769D01*
X146229815Y-81704808D01*
X146213181Y-81725450D01*
X142777090Y-85161540D01*
X142736862Y-85188420D01*
X142597139Y-85246295D01*
X142457837Y-85339373D01*
X142339373Y-85457837D01*
X142246295Y-85597139D01*
X142182184Y-85751917D01*
X142182182Y-85751925D01*
X142149500Y-85916228D01*
X142149500Y-86083771D01*
X142182182Y-86248074D01*
X142182184Y-86248082D01*
X142246295Y-86402860D01*
X142339373Y-86542162D01*
X142457837Y-86660626D01*
X142550494Y-86722537D01*
X142597137Y-86753703D01*
X142597138Y-86753703D01*
X142597139Y-86753704D01*
X142632201Y-86768227D01*
X142751918Y-86817816D01*
X142916228Y-86850499D01*
X142916232Y-86850500D01*
X142916233Y-86850500D01*
X143083768Y-86850500D01*
X143083769Y-86850499D01*
X143126855Y-86841929D01*
X143201309Y-86827120D01*
X143270900Y-86833347D01*
X143326078Y-86876210D01*
X143349322Y-86942100D01*
X143349500Y-86948737D01*
X143349500Y-89405068D01*
X143329815Y-89472107D01*
X143328602Y-89473959D01*
X143246295Y-89597139D01*
X143182184Y-89751917D01*
X143182182Y-89751925D01*
X143149500Y-89916228D01*
X143149500Y-90083771D01*
X143182182Y-90248074D01*
X143182184Y-90248082D01*
X143246295Y-90402860D01*
X143339373Y-90542162D01*
X143457837Y-90660626D01*
X143500500Y-90689132D01*
X143597137Y-90753703D01*
X143751918Y-90817816D01*
X143916228Y-90850499D01*
X143916232Y-90850500D01*
X143916233Y-90850500D01*
X144083768Y-90850500D01*
X144083769Y-90850499D01*
X144248082Y-90817816D01*
X144402863Y-90753703D01*
X144542162Y-90660626D01*
X144660626Y-90542162D01*
X144753703Y-90402863D01*
X144817816Y-90248082D01*
X144850500Y-90083767D01*
X144850500Y-89916233D01*
X144817816Y-89751918D01*
X144768227Y-89632201D01*
X144753704Y-89597139D01*
X144720766Y-89547844D01*
X147200000Y-89547844D01*
X147206401Y-89607372D01*
X147206403Y-89607379D01*
X147256645Y-89742086D01*
X147256649Y-89742093D01*
X147342809Y-89857187D01*
X147342812Y-89857190D01*
X147457906Y-89943350D01*
X147457913Y-89943354D01*
X147592620Y-89993596D01*
X147592627Y-89993598D01*
X147652155Y-89999999D01*
X147652172Y-90000000D01*
X148050000Y-90000000D01*
X148550000Y-90000000D01*
X148947828Y-90000000D01*
X148947844Y-89999999D01*
X149007372Y-89993598D01*
X149007379Y-89993596D01*
X149142086Y-89943354D01*
X149142093Y-89943350D01*
X149257187Y-89857190D01*
X149257190Y-89857187D01*
X149343350Y-89742093D01*
X149343354Y-89742086D01*
X149393596Y-89607379D01*
X149393598Y-89607372D01*
X149399999Y-89547844D01*
X149400000Y-89547827D01*
X149400000Y-88500000D01*
X148550000Y-88500000D01*
X148550000Y-90000000D01*
X148050000Y-90000000D01*
X148050000Y-88500000D01*
X147200000Y-88500000D01*
X147200000Y-89547844D01*
X144720766Y-89547844D01*
X144671398Y-89473959D01*
X144650520Y-89407281D01*
X144650500Y-89405068D01*
X144650500Y-87997188D01*
X144670185Y-87930149D01*
X144722989Y-87884394D01*
X144792147Y-87874450D01*
X144843387Y-87894084D01*
X144857337Y-87903405D01*
X144857339Y-87903406D01*
X144857341Y-87903407D01*
X144914513Y-87927088D01*
X145012118Y-87967518D01*
X145176428Y-88000201D01*
X145176432Y-88000202D01*
X145176433Y-88000202D01*
X145343968Y-88000202D01*
X145343969Y-88000201D01*
X145508282Y-87967518D01*
X145663063Y-87903405D01*
X145802362Y-87810328D01*
X145920826Y-87691864D01*
X146013903Y-87552565D01*
X146078016Y-87397784D01*
X146110700Y-87233469D01*
X146110700Y-87065935D01*
X146088071Y-86952172D01*
X146088068Y-86952155D01*
X147200000Y-86952155D01*
X147200000Y-88000000D01*
X148050000Y-88000000D01*
X148550000Y-88000000D01*
X149400000Y-88000000D01*
X149400000Y-86952172D01*
X149399999Y-86952155D01*
X149393598Y-86892627D01*
X149393596Y-86892620D01*
X149343354Y-86757913D01*
X149343350Y-86757906D01*
X149257190Y-86642812D01*
X149257187Y-86642809D01*
X149142093Y-86556649D01*
X149142086Y-86556645D01*
X149007379Y-86506403D01*
X149007372Y-86506401D01*
X148947844Y-86500000D01*
X148550000Y-86500000D01*
X148550000Y-88000000D01*
X148050000Y-88000000D01*
X148050000Y-86500000D01*
X147652155Y-86500000D01*
X147592627Y-86506401D01*
X147592620Y-86506403D01*
X147457913Y-86556645D01*
X147457906Y-86556649D01*
X147342812Y-86642809D01*
X147342809Y-86642812D01*
X147256649Y-86757906D01*
X147256645Y-86757913D01*
X147206403Y-86892620D01*
X147206401Y-86892627D01*
X147200000Y-86952155D01*
X146088068Y-86952155D01*
X146078017Y-86901627D01*
X146078016Y-86901620D01*
X146013903Y-86746839D01*
X145956297Y-86660626D01*
X145920826Y-86607539D01*
X145802362Y-86489075D01*
X145663060Y-86395997D01*
X145508282Y-86331886D01*
X145508274Y-86331884D01*
X145343971Y-86299202D01*
X145343967Y-86299202D01*
X145176433Y-86299202D01*
X145176428Y-86299202D01*
X145012125Y-86331884D01*
X145012113Y-86331887D01*
X144992381Y-86340061D01*
X144944929Y-86349500D01*
X144011229Y-86349500D01*
X143944190Y-86329815D01*
X143898435Y-86277011D01*
X143888491Y-86207853D01*
X143917516Y-86144297D01*
X143923548Y-86137819D01*
X147582948Y-82478419D01*
X147582951Y-82478416D01*
X147665084Y-82355495D01*
X147721658Y-82218913D01*
X147750500Y-82073918D01*
X147750500Y-81926083D01*
X147750500Y-81762229D01*
X147770185Y-81695190D01*
X147786819Y-81674548D01*
X147925807Y-81535560D01*
X148087821Y-81373545D01*
X148149142Y-81340062D01*
X148218833Y-81345046D01*
X148274767Y-81386917D01*
X148299184Y-81452382D01*
X148299500Y-81461228D01*
X148299500Y-83047870D01*
X148299501Y-83047876D01*
X148305908Y-83107483D01*
X148356202Y-83242328D01*
X148356204Y-83242331D01*
X148376869Y-83269936D01*
X148401286Y-83335401D01*
X148386434Y-83403674D01*
X148365285Y-83431927D01*
X148339371Y-83457841D01*
X148246295Y-83597139D01*
X148182184Y-83751917D01*
X148182182Y-83751925D01*
X148149500Y-83916228D01*
X148149500Y-84083771D01*
X148182182Y-84248074D01*
X148182184Y-84248082D01*
X148246295Y-84402860D01*
X148339373Y-84542162D01*
X148457837Y-84660626D01*
X148497038Y-84686819D01*
X148597137Y-84753703D01*
X148751918Y-84817816D01*
X148916228Y-84850499D01*
X148916232Y-84850500D01*
X148916233Y-84850500D01*
X149083768Y-84850500D01*
X149083769Y-84850499D01*
X149248082Y-84817816D01*
X149402863Y-84753703D01*
X149542162Y-84660626D01*
X149577288Y-84625500D01*
X149664934Y-84537855D01*
X149666219Y-84539140D01*
X149687808Y-84525266D01*
X149715342Y-84506506D01*
X149717538Y-84506159D01*
X149718530Y-84505523D01*
X149753465Y-84500500D01*
X149938387Y-84500500D01*
X150005426Y-84520185D01*
X150051181Y-84572989D01*
X150061125Y-84642147D01*
X150052949Y-84671951D01*
X150037949Y-84708165D01*
X150037947Y-84708170D01*
X149999500Y-84901456D01*
X149999500Y-84901459D01*
X149999500Y-85098541D01*
X149999500Y-85098543D01*
X149999499Y-85098543D01*
X150037947Y-85291829D01*
X150037950Y-85291839D01*
X150113364Y-85473907D01*
X150113371Y-85473920D01*
X150222860Y-85637781D01*
X150222863Y-85637785D01*
X150362214Y-85777136D01*
X150362218Y-85777139D01*
X150526079Y-85886628D01*
X150526092Y-85886635D01*
X150708160Y-85962049D01*
X150708165Y-85962051D01*
X150708169Y-85962051D01*
X150708170Y-85962052D01*
X150901456Y-86000500D01*
X150901459Y-86000500D01*
X151098543Y-86000500D01*
X151228582Y-85974632D01*
X151291835Y-85962051D01*
X151473914Y-85886632D01*
X151637782Y-85777139D01*
X151777139Y-85637782D01*
X151886632Y-85473914D01*
X151962051Y-85291835D01*
X151962054Y-85291815D01*
X151962168Y-85291445D01*
X151962289Y-85291259D01*
X151964382Y-85286208D01*
X151965339Y-85286604D01*
X152000459Y-85233002D01*
X152064268Y-85204538D01*
X152133337Y-85215091D01*
X152185735Y-85261309D01*
X152195394Y-85279974D01*
X152246295Y-85402860D01*
X152339373Y-85542162D01*
X152457837Y-85660626D01*
X152550494Y-85722537D01*
X152597137Y-85753703D01*
X152751918Y-85817816D01*
X152836011Y-85834543D01*
X152897218Y-85846718D01*
X152959129Y-85879102D01*
X152960708Y-85880654D01*
X158163181Y-91083127D01*
X158196666Y-91144450D01*
X158199500Y-91170808D01*
X158199500Y-96225500D01*
X158179815Y-96292539D01*
X158127011Y-96338294D01*
X158075500Y-96349500D01*
X157935929Y-96349500D01*
X157810261Y-96374497D01*
X157810251Y-96374500D01*
X157762432Y-96394307D01*
X157762375Y-96394331D01*
X157761221Y-96394810D01*
X157691874Y-96423534D01*
X157684315Y-96428584D01*
X157674323Y-96432969D01*
X157650057Y-96436089D01*
X157626711Y-96443399D01*
X157616020Y-96440466D01*
X157605024Y-96441880D01*
X157582924Y-96431386D01*
X157559331Y-96424914D01*
X157551922Y-96416666D01*
X157541908Y-96411911D01*
X157528989Y-96391134D01*
X157512642Y-96372935D01*
X157509751Y-96360194D01*
X157505014Y-96352576D01*
X157505199Y-96340135D01*
X157500499Y-96319419D01*
X157500499Y-94452129D01*
X157500498Y-94452123D01*
X157500497Y-94452116D01*
X157494091Y-94392517D01*
X157443796Y-94257669D01*
X157443795Y-94257668D01*
X157443793Y-94257664D01*
X157357547Y-94142455D01*
X157357544Y-94142452D01*
X157242335Y-94056206D01*
X157242329Y-94056203D01*
X157131166Y-94014741D01*
X157075233Y-93972869D01*
X157050816Y-93907405D01*
X157050500Y-93898559D01*
X157050500Y-92035928D01*
X157025502Y-91910261D01*
X157025501Y-91910260D01*
X157025501Y-91910256D01*
X156976465Y-91791873D01*
X156950961Y-91753703D01*
X156950961Y-91753702D01*
X156905275Y-91685328D01*
X156905272Y-91685325D01*
X156180654Y-90960708D01*
X156147169Y-90899385D01*
X156146718Y-90897218D01*
X156117817Y-90751925D01*
X156117816Y-90751918D01*
X156053703Y-90597137D01*
X156016970Y-90542162D01*
X155960626Y-90457837D01*
X155842162Y-90339373D01*
X155702860Y-90246295D01*
X155548082Y-90182184D01*
X155548074Y-90182182D01*
X155383771Y-90149500D01*
X155383767Y-90149500D01*
X155216233Y-90149500D01*
X155216228Y-90149500D01*
X155051925Y-90182182D01*
X155051917Y-90182184D01*
X154897139Y-90246295D01*
X154757837Y-90339373D01*
X154639373Y-90457837D01*
X154546295Y-90597139D01*
X154482184Y-90751917D01*
X154482182Y-90751925D01*
X154449500Y-90916228D01*
X154449500Y-91083771D01*
X154482182Y-91248074D01*
X154482184Y-91248082D01*
X154546295Y-91402860D01*
X154639373Y-91542162D01*
X154757837Y-91660626D01*
X154794811Y-91685331D01*
X154897137Y-91753703D01*
X155051918Y-91817816D01*
X155136011Y-91834543D01*
X155197218Y-91846718D01*
X155259129Y-91879102D01*
X155260708Y-91880654D01*
X155713181Y-92333127D01*
X155746666Y-92394450D01*
X155749500Y-92420808D01*
X155749500Y-93898560D01*
X155729815Y-93965599D01*
X155677011Y-94011354D01*
X155668833Y-94014742D01*
X155557671Y-94056202D01*
X155557664Y-94056206D01*
X155442455Y-94142452D01*
X155442452Y-94142455D01*
X155356206Y-94257664D01*
X155356202Y-94257671D01*
X155305908Y-94392517D01*
X155299501Y-94452116D01*
X155299501Y-94452123D01*
X155299500Y-94452135D01*
X155299500Y-94975500D01*
X155279815Y-95042539D01*
X155227011Y-95088294D01*
X155175500Y-95099500D01*
X154624499Y-95099500D01*
X154557460Y-95079815D01*
X154511705Y-95027011D01*
X154500499Y-94975500D01*
X154500499Y-94452129D01*
X154500498Y-94452123D01*
X154500497Y-94452116D01*
X154494091Y-94392517D01*
X154443796Y-94257669D01*
X154443795Y-94257668D01*
X154443793Y-94257664D01*
X154357547Y-94142455D01*
X154357544Y-94142452D01*
X154242335Y-94056206D01*
X154242328Y-94056202D01*
X154107482Y-94005908D01*
X154107483Y-94005908D01*
X154047883Y-93999501D01*
X154047881Y-93999500D01*
X154047873Y-93999500D01*
X154047865Y-93999500D01*
X152787483Y-93999500D01*
X152720444Y-93979815D01*
X152674689Y-93927011D01*
X152664745Y-93857853D01*
X152684379Y-93806611D01*
X152753703Y-93702863D01*
X152817816Y-93548082D01*
X152850500Y-93383767D01*
X152850500Y-93216233D01*
X152817816Y-93051918D01*
X152761613Y-92916233D01*
X152753704Y-92897139D01*
X152660626Y-92757837D01*
X152542162Y-92639373D01*
X152402860Y-92546295D01*
X152248082Y-92482184D01*
X152248074Y-92482182D01*
X152083771Y-92449500D01*
X152083767Y-92449500D01*
X151916233Y-92449500D01*
X151916228Y-92449500D01*
X151751925Y-92482182D01*
X151751917Y-92482184D01*
X151597139Y-92546295D01*
X151457837Y-92639373D01*
X151339373Y-92757837D01*
X151246295Y-92897139D01*
X151182184Y-93051917D01*
X151182182Y-93051925D01*
X151149500Y-93216228D01*
X151149500Y-93383771D01*
X151182182Y-93548074D01*
X151182184Y-93548082D01*
X151246295Y-93702860D01*
X151246296Y-93702862D01*
X151246297Y-93702863D01*
X151323858Y-93818941D01*
X151328602Y-93826040D01*
X151349480Y-93892717D01*
X151349500Y-93894931D01*
X151349500Y-98653762D01*
X151329815Y-98720801D01*
X151277011Y-98766556D01*
X151207853Y-98776500D01*
X151201310Y-98775380D01*
X151114899Y-98758192D01*
X151083767Y-98752000D01*
X150916233Y-98752000D01*
X150916228Y-98752000D01*
X150751925Y-98784682D01*
X150751917Y-98784684D01*
X150597139Y-98848795D01*
X150473959Y-98931102D01*
X150407281Y-98951980D01*
X150405068Y-98952000D01*
X149923308Y-98952000D01*
X149856269Y-98932315D01*
X149835627Y-98915681D01*
X148629033Y-97709087D01*
X148595548Y-97647764D01*
X148600532Y-97578072D01*
X148642404Y-97522139D01*
X148707868Y-97497722D01*
X148729960Y-97498116D01*
X148752127Y-97500500D01*
X150047872Y-97500499D01*
X150107483Y-97494091D01*
X150242331Y-97443796D01*
X150357546Y-97357546D01*
X150443796Y-97242331D01*
X150494091Y-97107483D01*
X150500500Y-97047873D01*
X150500499Y-94452128D01*
X150494091Y-94392517D01*
X150443796Y-94257669D01*
X150443795Y-94257668D01*
X150443793Y-94257664D01*
X150357547Y-94142455D01*
X150357544Y-94142452D01*
X150242335Y-94056206D01*
X150242328Y-94056202D01*
X150107482Y-94005908D01*
X150107483Y-94005908D01*
X150047883Y-93999501D01*
X150047881Y-93999500D01*
X150047873Y-93999500D01*
X150047864Y-93999500D01*
X148752129Y-93999500D01*
X148752123Y-93999501D01*
X148692516Y-94005908D01*
X148557671Y-94056202D01*
X148557664Y-94056206D01*
X148442455Y-94142452D01*
X148442452Y-94142455D01*
X148356206Y-94257664D01*
X148356202Y-94257671D01*
X148305908Y-94392517D01*
X148299501Y-94452116D01*
X148299501Y-94452123D01*
X148299500Y-94452135D01*
X148299500Y-97047870D01*
X148299501Y-97047886D01*
X148301882Y-97070035D01*
X148289473Y-97138794D01*
X148241860Y-97189929D01*
X148174160Y-97207205D01*
X148107867Y-97185137D01*
X148090911Y-97170965D01*
X145880654Y-94960708D01*
X145847169Y-94899385D01*
X145846718Y-94897218D01*
X145817817Y-94751925D01*
X145817816Y-94751918D01*
X145753703Y-94597137D01*
X145716970Y-94542162D01*
X145660626Y-94457837D01*
X145542162Y-94339373D01*
X145402860Y-94246295D01*
X145248082Y-94182184D01*
X145248074Y-94182182D01*
X145083771Y-94149500D01*
X145083767Y-94149500D01*
X144916233Y-94149500D01*
X144916228Y-94149500D01*
X144751925Y-94182182D01*
X144751917Y-94182184D01*
X144597139Y-94246295D01*
X144457837Y-94339373D01*
X144339373Y-94457837D01*
X144246295Y-94597139D01*
X144182184Y-94751917D01*
X144182182Y-94751925D01*
X144149500Y-94916228D01*
X144149500Y-95083771D01*
X144182182Y-95248074D01*
X144182184Y-95248082D01*
X144246295Y-95402860D01*
X144339373Y-95542162D01*
X144457837Y-95660626D01*
X144550494Y-95722537D01*
X144597137Y-95753703D01*
X144751918Y-95817816D01*
X144836011Y-95834543D01*
X144897218Y-95846718D01*
X144959129Y-95879102D01*
X144960708Y-95880654D01*
X149187825Y-100107772D01*
X149187826Y-100107773D01*
X149187829Y-100107775D01*
X149187831Y-100107777D01*
X149294373Y-100178965D01*
X149412756Y-100228001D01*
X149412760Y-100228001D01*
X149412761Y-100228002D01*
X149538428Y-100253000D01*
X149538431Y-100253000D01*
X150405068Y-100253000D01*
X150472107Y-100272685D01*
X150473959Y-100273898D01*
X150597137Y-100356203D01*
X150751918Y-100420316D01*
X150916228Y-100452999D01*
X150916232Y-100453000D01*
X150916233Y-100453000D01*
X151083768Y-100453000D01*
X151083769Y-100452999D01*
X151248082Y-100420316D01*
X151350646Y-100377831D01*
X151420114Y-100370363D01*
X151482593Y-100401638D01*
X151493950Y-100413727D01*
X151494723Y-100414669D01*
X151585327Y-100505273D01*
X151585331Y-100505276D01*
X151691866Y-100576461D01*
X151691875Y-100576466D01*
X151718692Y-100587574D01*
X151810256Y-100625501D01*
X151810260Y-100625501D01*
X151810261Y-100625502D01*
X151935928Y-100650500D01*
X151935931Y-100650500D01*
X152064069Y-100650500D01*
X155679192Y-100650500D01*
X155746231Y-100670185D01*
X155766873Y-100686819D01*
X157663181Y-102583127D01*
X157696666Y-102644450D01*
X157699500Y-102670808D01*
X157699500Y-105305951D01*
X157679815Y-105372990D01*
X157627011Y-105418745D01*
X157557853Y-105428689D01*
X157494297Y-105399664D01*
X157459318Y-105349284D01*
X157443797Y-105307671D01*
X157443793Y-105307664D01*
X157357547Y-105192455D01*
X157357544Y-105192452D01*
X157242335Y-105106206D01*
X157242328Y-105106202D01*
X157107482Y-105055908D01*
X157107483Y-105055908D01*
X157047883Y-105049501D01*
X157047881Y-105049500D01*
X157047873Y-105049500D01*
X157047864Y-105049500D01*
X155752129Y-105049500D01*
X155752123Y-105049501D01*
X155692516Y-105055908D01*
X155557671Y-105106202D01*
X155557664Y-105106206D01*
X155442455Y-105192452D01*
X155442452Y-105192455D01*
X155356206Y-105307664D01*
X155356202Y-105307671D01*
X155305908Y-105442517D01*
X155299501Y-105502116D01*
X155299501Y-105502123D01*
X155299500Y-105502135D01*
X155299500Y-106025500D01*
X155279815Y-106092539D01*
X155227011Y-106138294D01*
X155175500Y-106149500D01*
X154624499Y-106149500D01*
X154557460Y-106129815D01*
X154511705Y-106077011D01*
X154500499Y-106025500D01*
X154500499Y-105502129D01*
X154500498Y-105502123D01*
X154500497Y-105502116D01*
X154494091Y-105442517D01*
X154488933Y-105428689D01*
X154443797Y-105307671D01*
X154443793Y-105307664D01*
X154357547Y-105192455D01*
X154357544Y-105192452D01*
X154242335Y-105106206D01*
X154242328Y-105106202D01*
X154107482Y-105055908D01*
X154107483Y-105055908D01*
X154047883Y-105049501D01*
X154047881Y-105049500D01*
X154047873Y-105049500D01*
X154047864Y-105049500D01*
X152752129Y-105049500D01*
X152752123Y-105049501D01*
X152692516Y-105055908D01*
X152557671Y-105106202D01*
X152557664Y-105106206D01*
X152442455Y-105192452D01*
X152442452Y-105192455D01*
X152356206Y-105307664D01*
X152356202Y-105307671D01*
X152305908Y-105442517D01*
X152299501Y-105502116D01*
X152299501Y-105502123D01*
X152299500Y-105502135D01*
X152299500Y-108097870D01*
X152299501Y-108097876D01*
X152305908Y-108157483D01*
X152356202Y-108292328D01*
X152356206Y-108292335D01*
X152442452Y-108407544D01*
X152442455Y-108407547D01*
X152557664Y-108493793D01*
X152557671Y-108493797D01*
X152692517Y-108544091D01*
X152692516Y-108544091D01*
X152699444Y-108544835D01*
X152752127Y-108550500D01*
X154047872Y-108550499D01*
X154107483Y-108544091D01*
X154242331Y-108493796D01*
X154357546Y-108407546D01*
X154443796Y-108292331D01*
X154494091Y-108157483D01*
X154500500Y-108097873D01*
X154500500Y-107574500D01*
X154520185Y-107507461D01*
X154572989Y-107461706D01*
X154624500Y-107450500D01*
X155175501Y-107450500D01*
X155242540Y-107470185D01*
X155288295Y-107522989D01*
X155299501Y-107574500D01*
X155299501Y-108097876D01*
X155305908Y-108157483D01*
X155356202Y-108292328D01*
X155356206Y-108292335D01*
X155442452Y-108407544D01*
X155442455Y-108407547D01*
X155557664Y-108493793D01*
X155557671Y-108493797D01*
X155692517Y-108544091D01*
X155692516Y-108544091D01*
X155699444Y-108544835D01*
X155752127Y-108550500D01*
X156653846Y-108550499D01*
X156720885Y-108570183D01*
X156766640Y-108622987D01*
X156776584Y-108692146D01*
X156747559Y-108755702D01*
X156741527Y-108762180D01*
X156344727Y-109158979D01*
X156344721Y-109158986D01*
X156286383Y-109246296D01*
X156286384Y-109246297D01*
X156273534Y-109265528D01*
X156224499Y-109383909D01*
X156224499Y-109383910D01*
X156199500Y-109509582D01*
X156199500Y-109509585D01*
X156199500Y-110914069D01*
X156199500Y-110914071D01*
X156199499Y-110914071D01*
X156224497Y-111039738D01*
X156224499Y-111039744D01*
X156273534Y-111158125D01*
X156344726Y-111264673D01*
X156813819Y-111733766D01*
X156847304Y-111795089D01*
X156842320Y-111864781D01*
X156813819Y-111909128D01*
X153559767Y-115163181D01*
X153498444Y-115196666D01*
X153472086Y-115199500D01*
X149239269Y-115199500D01*
X149172230Y-115179815D01*
X149126475Y-115127011D01*
X149116531Y-115057853D01*
X149145556Y-114994297D01*
X149164958Y-114976234D01*
X149257187Y-114907190D01*
X149257190Y-114907187D01*
X149343350Y-114792093D01*
X149343354Y-114792086D01*
X149393596Y-114657379D01*
X149393598Y-114657372D01*
X149399999Y-114597844D01*
X149400000Y-114597827D01*
X149400000Y-113550000D01*
X147216500Y-113550000D01*
X147149461Y-113530315D01*
X147106015Y-113482295D01*
X147043864Y-113360318D01*
X146930945Y-113204898D01*
X146795102Y-113069055D01*
X146639681Y-112956135D01*
X146468506Y-112868916D01*
X146285802Y-112809553D01*
X146190928Y-112794526D01*
X146096055Y-112779500D01*
X145903945Y-112779500D01*
X145840696Y-112789517D01*
X145714197Y-112809553D01*
X145531493Y-112868916D01*
X145360318Y-112956135D01*
X145271645Y-113020560D01*
X145204898Y-113069055D01*
X145204896Y-113069057D01*
X145204895Y-113069057D01*
X145069057Y-113204895D01*
X145069057Y-113204896D01*
X145069055Y-113204898D01*
X145055149Y-113224038D01*
X144956135Y-113360318D01*
X144868916Y-113531493D01*
X144847931Y-113596081D01*
X144808494Y-113653756D01*
X144744135Y-113680955D01*
X144675289Y-113669041D01*
X144623813Y-113621797D01*
X144612069Y-113596081D01*
X144591083Y-113531493D01*
X144503864Y-113360318D01*
X144390945Y-113204898D01*
X144255102Y-113069055D01*
X144099681Y-112956135D01*
X143928506Y-112868916D01*
X143745802Y-112809553D01*
X143650928Y-112794526D01*
X143556055Y-112779500D01*
X143363945Y-112779500D01*
X143300696Y-112789517D01*
X143174197Y-112809553D01*
X142991493Y-112868916D01*
X142820318Y-112956135D01*
X142731645Y-113020560D01*
X142664898Y-113069055D01*
X142664896Y-113069057D01*
X142664895Y-113069057D01*
X142529057Y-113204895D01*
X142529057Y-113204896D01*
X142529055Y-113204898D01*
X142515149Y-113224038D01*
X142416135Y-113360318D01*
X142328916Y-113531493D01*
X142307931Y-113596081D01*
X142268494Y-113653756D01*
X142204135Y-113680955D01*
X142135289Y-113669041D01*
X142083813Y-113621797D01*
X142072069Y-113596081D01*
X142051083Y-113531493D01*
X141963864Y-113360318D01*
X141850945Y-113204898D01*
X141715102Y-113069055D01*
X141559681Y-112956135D01*
X141388506Y-112868916D01*
X141205802Y-112809553D01*
X141110928Y-112794526D01*
X141016055Y-112779500D01*
X140823945Y-112779500D01*
X140760696Y-112789517D01*
X140634197Y-112809553D01*
X140451493Y-112868916D01*
X140280318Y-112956135D01*
X140191645Y-113020560D01*
X140124898Y-113069055D01*
X140124896Y-113069057D01*
X140124895Y-113069057D01*
X139989057Y-113204895D01*
X139989057Y-113204896D01*
X139989055Y-113204898D01*
X139975149Y-113224038D01*
X139876135Y-113360318D01*
X139788916Y-113531493D01*
X139729553Y-113714197D01*
X139699500Y-113903945D01*
X139699500Y-114096054D01*
X139729553Y-114285802D01*
X139788916Y-114468506D01*
X139874307Y-114636093D01*
X139876135Y-114639681D01*
X139989055Y-114795102D01*
X140124898Y-114930945D01*
X140280319Y-115043865D01*
X140390735Y-115100125D01*
X140451493Y-115131083D01*
X140513568Y-115151252D01*
X140634199Y-115190447D01*
X140823945Y-115220500D01*
X140823946Y-115220500D01*
X141016054Y-115220500D01*
X141016055Y-115220500D01*
X141205801Y-115190447D01*
X141388509Y-115131082D01*
X141559681Y-115043865D01*
X141715102Y-114930945D01*
X141850945Y-114795102D01*
X141963865Y-114639681D01*
X142051082Y-114468509D01*
X142051084Y-114468504D01*
X142072069Y-114403919D01*
X142088570Y-114379785D01*
X142102694Y-114354181D01*
X142108062Y-114351279D01*
X142111506Y-114346243D01*
X142138438Y-114334860D01*
X142164160Y-114320958D01*
X142170243Y-114321419D01*
X142175864Y-114319044D01*
X142204679Y-114324030D01*
X142233830Y-114326241D01*
X142238697Y-114329917D01*
X142244711Y-114330958D01*
X142266256Y-114350732D01*
X142289584Y-114368351D01*
X142293297Y-114375550D01*
X142296187Y-114378202D01*
X142306366Y-114399399D01*
X142307192Y-114401643D01*
X142328918Y-114468509D01*
X142339326Y-114488937D01*
X142341866Y-114495835D01*
X142342896Y-114511166D01*
X142349500Y-114538672D01*
X142349500Y-115575500D01*
X142329815Y-115642539D01*
X142277011Y-115688294D01*
X142225500Y-115699500D01*
X137559184Y-115699500D01*
X137492145Y-115679815D01*
X137446390Y-115627011D01*
X137436446Y-115557853D01*
X137458866Y-115502614D01*
X137461330Y-115499223D01*
X137468870Y-115488845D01*
X137583241Y-115264379D01*
X137661090Y-115024785D01*
X137700500Y-114775962D01*
X137700500Y-113224038D01*
X137661090Y-112975215D01*
X137583241Y-112735621D01*
X137583239Y-112735618D01*
X137583239Y-112735616D01*
X137536479Y-112643845D01*
X137468870Y-112511155D01*
X137449952Y-112485117D01*
X137320798Y-112307350D01*
X137320794Y-112307345D01*
X137142654Y-112129205D01*
X137142649Y-112129201D01*
X136938848Y-111981132D01*
X136938847Y-111981131D01*
X136938845Y-111981130D01*
X136750150Y-111884985D01*
X136699354Y-111837010D01*
X136682559Y-111769189D01*
X136705096Y-111703054D01*
X136759812Y-111659603D01*
X136806445Y-111650500D01*
X147136764Y-111650500D01*
X147203803Y-111670185D01*
X147249558Y-111722989D01*
X147259502Y-111792147D01*
X147252946Y-111817833D01*
X147206403Y-111942620D01*
X147206401Y-111942627D01*
X147200000Y-112002155D01*
X147200000Y-113050000D01*
X149400000Y-113050000D01*
X149400000Y-112002172D01*
X149399999Y-112002155D01*
X149393598Y-111942627D01*
X149393596Y-111942620D01*
X149347054Y-111817833D01*
X149342070Y-111748142D01*
X149375555Y-111686818D01*
X149436878Y-111653334D01*
X149463236Y-111650500D01*
X150064071Y-111650500D01*
X150148615Y-111633682D01*
X150189744Y-111625501D01*
X150308127Y-111576465D01*
X150414669Y-111505277D01*
X151233127Y-110686819D01*
X151260054Y-110672115D01*
X151285873Y-110655523D01*
X151292073Y-110654631D01*
X151294450Y-110653334D01*
X151320808Y-110650500D01*
X151405068Y-110650500D01*
X151472107Y-110670185D01*
X151473959Y-110671398D01*
X151597137Y-110753703D01*
X151751918Y-110817816D01*
X151916228Y-110850499D01*
X151916232Y-110850500D01*
X151916233Y-110850500D01*
X152083768Y-110850500D01*
X152083769Y-110850499D01*
X152248082Y-110817816D01*
X152402863Y-110753703D01*
X152542162Y-110660626D01*
X152660626Y-110542162D01*
X152753703Y-110402863D01*
X152817816Y-110248082D01*
X152850500Y-110083767D01*
X152850500Y-109916233D01*
X152817816Y-109751918D01*
X152753703Y-109597137D01*
X152716970Y-109542162D01*
X152660626Y-109457837D01*
X152542162Y-109339373D01*
X152402860Y-109246295D01*
X152248082Y-109182184D01*
X152248074Y-109182182D01*
X152083771Y-109149500D01*
X152083767Y-109149500D01*
X151916233Y-109149500D01*
X151916228Y-109149500D01*
X151751925Y-109182182D01*
X151751917Y-109182184D01*
X151597139Y-109246295D01*
X151473959Y-109328602D01*
X151407281Y-109349480D01*
X151405068Y-109349500D01*
X150935929Y-109349500D01*
X150810261Y-109374497D01*
X150810251Y-109374500D01*
X150787535Y-109383910D01*
X150691881Y-109423530D01*
X150691863Y-109423540D01*
X150585332Y-109494721D01*
X150585325Y-109494727D01*
X150062181Y-110017872D01*
X150000858Y-110051357D01*
X149931166Y-110046373D01*
X149875233Y-110004501D01*
X149852251Y-109950955D01*
X149850500Y-109940645D01*
X149850500Y-109916233D01*
X149822118Y-109773548D01*
X149821827Y-109771832D01*
X149825720Y-109738804D01*
X149828686Y-109705668D01*
X149829796Y-109704238D01*
X149830008Y-109702443D01*
X149851137Y-109676766D01*
X149871549Y-109650490D01*
X149873435Y-109649668D01*
X149874404Y-109648492D01*
X149881042Y-109646357D01*
X149919884Y-109629451D01*
X149939744Y-109625501D01*
X150058127Y-109576465D01*
X150103277Y-109546297D01*
X150164669Y-109505277D01*
X151505277Y-108164669D01*
X151576465Y-108058127D01*
X151625501Y-107939744D01*
X151650500Y-107814069D01*
X151650500Y-107594931D01*
X151670185Y-107527892D01*
X151671398Y-107526040D01*
X151679805Y-107513458D01*
X151753703Y-107402863D01*
X151817816Y-107248082D01*
X151850500Y-107083767D01*
X151850500Y-106916233D01*
X151817816Y-106751918D01*
X151753703Y-106597137D01*
X151706197Y-106526040D01*
X151660626Y-106457837D01*
X151542162Y-106339373D01*
X151402860Y-106246295D01*
X151248082Y-106182184D01*
X151248074Y-106182182D01*
X151083771Y-106149500D01*
X151083767Y-106149500D01*
X150916233Y-106149500D01*
X150916228Y-106149500D01*
X150751925Y-106182182D01*
X150751917Y-106182184D01*
X150671952Y-106215307D01*
X150602482Y-106222776D01*
X150540003Y-106191501D01*
X150504351Y-106131412D01*
X150500499Y-106100746D01*
X150500499Y-105502129D01*
X150500498Y-105502123D01*
X150500497Y-105502116D01*
X150494091Y-105442517D01*
X150488933Y-105428689D01*
X150443797Y-105307671D01*
X150443793Y-105307664D01*
X150357547Y-105192455D01*
X150357544Y-105192452D01*
X150242335Y-105106206D01*
X150242328Y-105106202D01*
X150107482Y-105055908D01*
X150107483Y-105055908D01*
X150047883Y-105049501D01*
X150047881Y-105049500D01*
X150047873Y-105049500D01*
X150047864Y-105049500D01*
X148752129Y-105049500D01*
X148752123Y-105049501D01*
X148692516Y-105055908D01*
X148557671Y-105106202D01*
X148557664Y-105106206D01*
X148442455Y-105192452D01*
X148442452Y-105192455D01*
X148356206Y-105307664D01*
X148356202Y-105307671D01*
X148305908Y-105442517D01*
X148299501Y-105502116D01*
X148299501Y-105502123D01*
X148299500Y-105502135D01*
X148299500Y-108097870D01*
X148299501Y-108097876D01*
X148305909Y-108157485D01*
X148315115Y-108182168D01*
X148320099Y-108251860D01*
X148286613Y-108313182D01*
X148225289Y-108346667D01*
X148198933Y-108349500D01*
X144774500Y-108349500D01*
X144707461Y-108329815D01*
X144661706Y-108277011D01*
X144650500Y-108225500D01*
X144650500Y-107864062D01*
X144625502Y-107738395D01*
X144625501Y-107738394D01*
X144625501Y-107738390D01*
X144576465Y-107620007D01*
X144524451Y-107542162D01*
X144505276Y-107513464D01*
X144505274Y-107513461D01*
X144505271Y-107513458D01*
X142073403Y-105081591D01*
X142039918Y-105020268D01*
X142039467Y-105018101D01*
X142010566Y-104872808D01*
X142010565Y-104872801D01*
X141946452Y-104718020D01*
X141903230Y-104653334D01*
X141853375Y-104578720D01*
X141734911Y-104460256D01*
X141595609Y-104367178D01*
X141440831Y-104303067D01*
X141440823Y-104303065D01*
X141276520Y-104270383D01*
X141276516Y-104270383D01*
X141108982Y-104270383D01*
X141108977Y-104270383D01*
X140944674Y-104303065D01*
X140944666Y-104303067D01*
X140789888Y-104367178D01*
X140650586Y-104460256D01*
X140532122Y-104578720D01*
X140439044Y-104718022D01*
X140374933Y-104872800D01*
X140374931Y-104872808D01*
X140342249Y-105037111D01*
X140342249Y-105204654D01*
X140374931Y-105368957D01*
X140374933Y-105368965D01*
X140439044Y-105523743D01*
X140532122Y-105663045D01*
X140650586Y-105781509D01*
X140743243Y-105843420D01*
X140789886Y-105874586D01*
X140944667Y-105938699D01*
X141028760Y-105955426D01*
X141089967Y-105967601D01*
X141151878Y-105999985D01*
X141153457Y-106001537D01*
X143313181Y-108161261D01*
X143327884Y-108188188D01*
X143344477Y-108214007D01*
X143345368Y-108220207D01*
X143346666Y-108222584D01*
X143349500Y-108248942D01*
X143349500Y-108405068D01*
X143329815Y-108472107D01*
X143328602Y-108473959D01*
X143246295Y-108597139D01*
X143182184Y-108751917D01*
X143182182Y-108751925D01*
X143149500Y-108916228D01*
X143149500Y-109083771D01*
X143182182Y-109248074D01*
X143182184Y-109248082D01*
X143246295Y-109402860D01*
X143339373Y-109542162D01*
X143457837Y-109660626D01*
X143525248Y-109705668D01*
X143597137Y-109753703D01*
X143597138Y-109753703D01*
X143597139Y-109753704D01*
X143632201Y-109768227D01*
X143751918Y-109817816D01*
X143916228Y-109850499D01*
X143916232Y-109850500D01*
X143916233Y-109850500D01*
X144083768Y-109850500D01*
X144083769Y-109850499D01*
X144248082Y-109817816D01*
X144402863Y-109753703D01*
X144526041Y-109671398D01*
X144592719Y-109650520D01*
X144594932Y-109650500D01*
X145179107Y-109650500D01*
X145246146Y-109670185D01*
X145291901Y-109722989D01*
X145301845Y-109792147D01*
X145282209Y-109843390D01*
X145246298Y-109897134D01*
X145246296Y-109897138D01*
X145182184Y-110051917D01*
X145182182Y-110051925D01*
X145149500Y-110216228D01*
X145149500Y-110225500D01*
X145129815Y-110292539D01*
X145077011Y-110338294D01*
X145025500Y-110349500D01*
X136948737Y-110349500D01*
X136881698Y-110329815D01*
X136835943Y-110277011D01*
X136825999Y-110207853D01*
X136827120Y-110201309D01*
X136850499Y-110083771D01*
X136850500Y-110083768D01*
X136850500Y-109916232D01*
X136850499Y-109916228D01*
X136830924Y-109817816D01*
X136817816Y-109751918D01*
X136753703Y-109597137D01*
X136734828Y-109568889D01*
X136713951Y-109502214D01*
X136732435Y-109434834D01*
X136734829Y-109431109D01*
X136753703Y-109402863D01*
X136817816Y-109248082D01*
X136850500Y-109083767D01*
X136850500Y-108916233D01*
X136817816Y-108751918D01*
X136753703Y-108597137D01*
X136684653Y-108493797D01*
X136671398Y-108473959D01*
X136650520Y-108407281D01*
X136650500Y-108405068D01*
X136650500Y-106594931D01*
X136670185Y-106527892D01*
X136671398Y-106526040D01*
X136753703Y-106402863D01*
X136817816Y-106248082D01*
X136850500Y-106083767D01*
X136850500Y-105916233D01*
X136817816Y-105751918D01*
X136753703Y-105597137D01*
X136716970Y-105542162D01*
X136660626Y-105457837D01*
X136542162Y-105339373D01*
X136402860Y-105246295D01*
X136248082Y-105182184D01*
X136248074Y-105182182D01*
X136083771Y-105149500D01*
X136083767Y-105149500D01*
X136069807Y-105149500D01*
X136002768Y-105129815D01*
X135957013Y-105077011D01*
X135947069Y-105007853D01*
X135976094Y-104944297D01*
X135982126Y-104937819D01*
X136003713Y-104916233D01*
X136233127Y-104686819D01*
X136294450Y-104653334D01*
X136320808Y-104650500D01*
X138405068Y-104650500D01*
X138472107Y-104670185D01*
X138473959Y-104671398D01*
X138597137Y-104753703D01*
X138751918Y-104817816D01*
X138916228Y-104850499D01*
X138916232Y-104850500D01*
X138916233Y-104850500D01*
X139083768Y-104850500D01*
X139083769Y-104850499D01*
X139248082Y-104817816D01*
X139402863Y-104753703D01*
X139542162Y-104660626D01*
X139660626Y-104542162D01*
X139753703Y-104402863D01*
X139817816Y-104248082D01*
X139850500Y-104083767D01*
X139850500Y-103916233D01*
X139817816Y-103751918D01*
X139768227Y-103632201D01*
X139753704Y-103597139D01*
X139660626Y-103457837D01*
X139542162Y-103339373D01*
X139402860Y-103246295D01*
X139248082Y-103182184D01*
X139248074Y-103182182D01*
X139083771Y-103149500D01*
X139083767Y-103149500D01*
X138916233Y-103149500D01*
X138916228Y-103149500D01*
X138751925Y-103182182D01*
X138751917Y-103182184D01*
X138597139Y-103246295D01*
X138473959Y-103328602D01*
X138407281Y-103349480D01*
X138405068Y-103349500D01*
X135935929Y-103349500D01*
X135810261Y-103374497D01*
X135810251Y-103374500D01*
X135761220Y-103394810D01*
X135691881Y-103423530D01*
X135691863Y-103423540D01*
X135585332Y-103494721D01*
X135585325Y-103494727D01*
X134766873Y-104313181D01*
X134739945Y-104327884D01*
X134714127Y-104344477D01*
X134707926Y-104345368D01*
X134705550Y-104346666D01*
X134679192Y-104349500D01*
X134444932Y-104349500D01*
X134377893Y-104329815D01*
X134376041Y-104328602D01*
X134252860Y-104246295D01*
X134098082Y-104182184D01*
X134098074Y-104182182D01*
X133933771Y-104149500D01*
X133933767Y-104149500D01*
X133766233Y-104149500D01*
X133766228Y-104149500D01*
X133601925Y-104182182D01*
X133601917Y-104182184D01*
X133447139Y-104246295D01*
X133307837Y-104339373D01*
X133189373Y-104457837D01*
X133096295Y-104597139D01*
X133032184Y-104751917D01*
X133032182Y-104751925D01*
X132999500Y-104916228D01*
X132999500Y-105083771D01*
X133032182Y-105248074D01*
X133032184Y-105248082D01*
X133096295Y-105402860D01*
X133189373Y-105542162D01*
X133307837Y-105660626D01*
X133323959Y-105671398D01*
X133447137Y-105753703D01*
X133601918Y-105817816D01*
X133766228Y-105850499D01*
X133766232Y-105850500D01*
X133766233Y-105850500D01*
X133933768Y-105850500D01*
X133933769Y-105850499D01*
X134098082Y-105817816D01*
X134252863Y-105753703D01*
X134376041Y-105671398D01*
X134442719Y-105650520D01*
X134444932Y-105650500D01*
X135051263Y-105650500D01*
X135118302Y-105670185D01*
X135164057Y-105722989D01*
X135174001Y-105792147D01*
X135172880Y-105798691D01*
X135149500Y-105916228D01*
X135149500Y-106083771D01*
X135182182Y-106248074D01*
X135182184Y-106248082D01*
X135246295Y-106402860D01*
X135328602Y-106526040D01*
X135349480Y-106592717D01*
X135349500Y-106594931D01*
X135349500Y-108405068D01*
X135329815Y-108472107D01*
X135328602Y-108473959D01*
X135246295Y-108597139D01*
X135182184Y-108751917D01*
X135182182Y-108751925D01*
X135149500Y-108916228D01*
X135149500Y-109083771D01*
X135182182Y-109248074D01*
X135182184Y-109248082D01*
X135246295Y-109402859D01*
X135246302Y-109402872D01*
X135265170Y-109431111D01*
X135286047Y-109497789D01*
X135267561Y-109565168D01*
X135265170Y-109568889D01*
X135246302Y-109597127D01*
X135246295Y-109597140D01*
X135182184Y-109751917D01*
X135182182Y-109751923D01*
X135153281Y-109897219D01*
X135120896Y-109959130D01*
X135119345Y-109960708D01*
X134766873Y-110313181D01*
X134705550Y-110346666D01*
X134679192Y-110349500D01*
X132435929Y-110349500D01*
X132310261Y-110374497D01*
X132310255Y-110374499D01*
X132191874Y-110423534D01*
X132085326Y-110494726D01*
X130366871Y-112213181D01*
X130305548Y-112246666D01*
X130279190Y-112249500D01*
X129202129Y-112249500D01*
X129202123Y-112249501D01*
X129135443Y-112256669D01*
X129066683Y-112244262D01*
X129034509Y-112221060D01*
X128942654Y-112129205D01*
X128942649Y-112129201D01*
X128738848Y-111981132D01*
X128738847Y-111981131D01*
X128738845Y-111981130D01*
X128663265Y-111942620D01*
X128514383Y-111866760D01*
X128274785Y-111788910D01*
X128025962Y-111749500D01*
X127774038Y-111749500D01*
X127649728Y-111769189D01*
X127525214Y-111788910D01*
X127285616Y-111866760D01*
X127061151Y-111981132D01*
X126857350Y-112129201D01*
X126857345Y-112129205D01*
X126679205Y-112307345D01*
X126679201Y-112307350D01*
X126531132Y-112511151D01*
X126416760Y-112735616D01*
X126338910Y-112975214D01*
X126299500Y-113224038D01*
X126299500Y-114775962D01*
X126316896Y-114885797D01*
X126338910Y-115024785D01*
X126416760Y-115264383D01*
X126531132Y-115488848D01*
X126679201Y-115692649D01*
X126679205Y-115692654D01*
X126857345Y-115870794D01*
X126857350Y-115870798D01*
X126997797Y-115972838D01*
X127061155Y-116018870D01*
X127204184Y-116091747D01*
X127285616Y-116133239D01*
X127285618Y-116133239D01*
X127285621Y-116133241D01*
X127525215Y-116211090D01*
X127774038Y-116250500D01*
X127774039Y-116250500D01*
X128025961Y-116250500D01*
X128025962Y-116250500D01*
X128274785Y-116211090D01*
X128514379Y-116133241D01*
X128738845Y-116018870D01*
X128942656Y-115870793D01*
X129034511Y-115778937D01*
X129095831Y-115745454D01*
X129135445Y-115743330D01*
X129142514Y-115744089D01*
X129142517Y-115744091D01*
X129202127Y-115750500D01*
X130797872Y-115750499D01*
X130857483Y-115744091D01*
X130992331Y-115693796D01*
X131107546Y-115607546D01*
X131136236Y-115569220D01*
X131192166Y-115527353D01*
X131261857Y-115522368D01*
X131308386Y-115543217D01*
X131344590Y-115569521D01*
X131344592Y-115569522D01*
X131344595Y-115569524D01*
X131356324Y-115575500D01*
X131519970Y-115658882D01*
X131519972Y-115658882D01*
X131519975Y-115658884D01*
X131610489Y-115688294D01*
X131707173Y-115719709D01*
X131901578Y-115750500D01*
X131901583Y-115750500D01*
X132098421Y-115750500D01*
X132190884Y-115735854D01*
X132236411Y-115728644D01*
X132305704Y-115737598D01*
X132343490Y-115763436D01*
X132867873Y-116287819D01*
X132901358Y-116349142D01*
X132896374Y-116418834D01*
X132854502Y-116474767D01*
X132789038Y-116499184D01*
X132780192Y-116499500D01*
X122376425Y-116499500D01*
X122309386Y-116479815D01*
X122263631Y-116427011D01*
X122253687Y-116357853D01*
X122282712Y-116294297D01*
X122338106Y-116257569D01*
X122374669Y-116245688D01*
X122499219Y-116205220D01*
X122681610Y-116112287D01*
X122810193Y-116018867D01*
X122847213Y-115991971D01*
X122847215Y-115991968D01*
X122847219Y-115991966D01*
X122991966Y-115847219D01*
X122991968Y-115847215D01*
X122991971Y-115847213D01*
X123062236Y-115750500D01*
X123112287Y-115681610D01*
X123205220Y-115499219D01*
X123268477Y-115304534D01*
X123300500Y-115102352D01*
X123300500Y-114897648D01*
X123293820Y-114855471D01*
X123268477Y-114695465D01*
X123236752Y-114597827D01*
X123205220Y-114500781D01*
X123205218Y-114500778D01*
X123205218Y-114500776D01*
X123143569Y-114379785D01*
X123112287Y-114318390D01*
X123088610Y-114285801D01*
X122991971Y-114152786D01*
X122847213Y-114008028D01*
X122681613Y-113887715D01*
X122681612Y-113887714D01*
X122681610Y-113887713D01*
X122624653Y-113858691D01*
X122499223Y-113794781D01*
X122304534Y-113731522D01*
X122129995Y-113703878D01*
X122102352Y-113699500D01*
X121897648Y-113699500D01*
X121873329Y-113703351D01*
X121695465Y-113731522D01*
X121500776Y-113794781D01*
X121318386Y-113887715D01*
X121152786Y-114008028D01*
X121008028Y-114152786D01*
X120887715Y-114318386D01*
X120794781Y-114500776D01*
X120742431Y-114661894D01*
X120702993Y-114719569D01*
X120638634Y-114746767D01*
X120569788Y-114734852D01*
X120518312Y-114687608D01*
X120500500Y-114623575D01*
X120500500Y-97916228D01*
X138149500Y-97916228D01*
X138149500Y-98083771D01*
X138182182Y-98248074D01*
X138182184Y-98248082D01*
X138240061Y-98387808D01*
X138249500Y-98435261D01*
X138249500Y-99926082D01*
X138249500Y-100073918D01*
X138249500Y-100073920D01*
X138249499Y-100073920D01*
X138278340Y-100218907D01*
X138278343Y-100218917D01*
X138334912Y-100355488D01*
X138334919Y-100355501D01*
X138417048Y-100478415D01*
X138417051Y-100478419D01*
X138521580Y-100582948D01*
X138521584Y-100582951D01*
X138644498Y-100665080D01*
X138644511Y-100665087D01*
X138781082Y-100721656D01*
X138781087Y-100721658D01*
X138781091Y-100721658D01*
X138781092Y-100721659D01*
X138926079Y-100750500D01*
X138926082Y-100750500D01*
X141564739Y-100750500D01*
X141612191Y-100759938D01*
X141751918Y-100817816D01*
X141916228Y-100850499D01*
X141916232Y-100850500D01*
X141916233Y-100850500D01*
X142083768Y-100850500D01*
X142083769Y-100850499D01*
X142248082Y-100817816D01*
X142402863Y-100753703D01*
X142542162Y-100660626D01*
X142660626Y-100542162D01*
X142753703Y-100402863D01*
X142817816Y-100248082D01*
X142850500Y-100083767D01*
X142850500Y-99916233D01*
X142817816Y-99751918D01*
X142753703Y-99597137D01*
X142722537Y-99550494D01*
X142660626Y-99457837D01*
X142542162Y-99339373D01*
X142402860Y-99246295D01*
X142248082Y-99182184D01*
X142248074Y-99182182D01*
X142083771Y-99149500D01*
X142083767Y-99149500D01*
X141916233Y-99149500D01*
X141916228Y-99149500D01*
X141751925Y-99182182D01*
X141751917Y-99182184D01*
X141612192Y-99240061D01*
X141564739Y-99249500D01*
X139874500Y-99249500D01*
X139807461Y-99229815D01*
X139761706Y-99177011D01*
X139750500Y-99125500D01*
X139750500Y-98435261D01*
X139759939Y-98387808D01*
X139802698Y-98284579D01*
X139817816Y-98248082D01*
X139850500Y-98083767D01*
X139850500Y-97916233D01*
X139817816Y-97751918D01*
X139759938Y-97612191D01*
X139750500Y-97564739D01*
X139750500Y-96888345D01*
X143108216Y-96888345D01*
X143108216Y-97055888D01*
X143140898Y-97220191D01*
X143140900Y-97220199D01*
X143205011Y-97374977D01*
X143287318Y-97498157D01*
X143308196Y-97564834D01*
X143308216Y-97567048D01*
X143308216Y-102872785D01*
X143318894Y-102926465D01*
X143333215Y-102998460D01*
X143382251Y-103116843D01*
X143425910Y-103182184D01*
X143453442Y-103223389D01*
X143453443Y-103223390D01*
X145269345Y-105039291D01*
X145302830Y-105100614D01*
X145303281Y-105102781D01*
X145332182Y-105248074D01*
X145332184Y-105248082D01*
X145396295Y-105402860D01*
X145489373Y-105542162D01*
X145607837Y-105660626D01*
X145623959Y-105671398D01*
X145747137Y-105753703D01*
X145901918Y-105817816D01*
X146066228Y-105850499D01*
X146066232Y-105850500D01*
X146066233Y-105850500D01*
X146233768Y-105850500D01*
X146233769Y-105850499D01*
X146398082Y-105817816D01*
X146552863Y-105753703D01*
X146692162Y-105660626D01*
X146810626Y-105542162D01*
X146903703Y-105402863D01*
X146967816Y-105248082D01*
X147000500Y-105083767D01*
X147000500Y-104916233D01*
X146967816Y-104751918D01*
X146903703Y-104597137D01*
X146866970Y-104542162D01*
X146810626Y-104457837D01*
X146692162Y-104339373D01*
X146552860Y-104246295D01*
X146398082Y-104182184D01*
X146398074Y-104182182D01*
X146252781Y-104153281D01*
X146190870Y-104120896D01*
X146189291Y-104119345D01*
X145617790Y-103547844D01*
X147200000Y-103547844D01*
X147206401Y-103607372D01*
X147206403Y-103607379D01*
X147256645Y-103742086D01*
X147256649Y-103742093D01*
X147342809Y-103857187D01*
X147342812Y-103857190D01*
X147457906Y-103943350D01*
X147457913Y-103943354D01*
X147592620Y-103993596D01*
X147592627Y-103993598D01*
X147652155Y-103999999D01*
X147652172Y-104000000D01*
X148050000Y-104000000D01*
X148550000Y-104000000D01*
X148947828Y-104000000D01*
X148947844Y-103999999D01*
X149007372Y-103993598D01*
X149007379Y-103993596D01*
X149142086Y-103943354D01*
X149142093Y-103943350D01*
X149257187Y-103857190D01*
X149257190Y-103857187D01*
X149343350Y-103742093D01*
X149343354Y-103742086D01*
X149393596Y-103607379D01*
X149393598Y-103607372D01*
X149399999Y-103547844D01*
X149400000Y-103547827D01*
X149400000Y-102500000D01*
X148550000Y-102500000D01*
X148550000Y-104000000D01*
X148050000Y-104000000D01*
X148050000Y-102500000D01*
X147200000Y-102500000D01*
X147200000Y-103547844D01*
X145617790Y-103547844D01*
X144645535Y-102575589D01*
X144630831Y-102548661D01*
X144614239Y-102522843D01*
X144613347Y-102516642D01*
X144612050Y-102514266D01*
X144609216Y-102487908D01*
X144609216Y-100952155D01*
X147200000Y-100952155D01*
X147200000Y-102000000D01*
X148050000Y-102000000D01*
X148550000Y-102000000D01*
X149400000Y-102000000D01*
X149400000Y-100952172D01*
X149399999Y-100952155D01*
X149393598Y-100892627D01*
X149393596Y-100892620D01*
X149343354Y-100757913D01*
X149343350Y-100757906D01*
X149257190Y-100642812D01*
X149257187Y-100642809D01*
X149142093Y-100556649D01*
X149142086Y-100556645D01*
X149007379Y-100506403D01*
X149007372Y-100506401D01*
X148947844Y-100500000D01*
X148550000Y-100500000D01*
X148550000Y-102000000D01*
X148050000Y-102000000D01*
X148050000Y-100500000D01*
X147652155Y-100500000D01*
X147592627Y-100506401D01*
X147592620Y-100506403D01*
X147457913Y-100556645D01*
X147457906Y-100556649D01*
X147342812Y-100642809D01*
X147342809Y-100642812D01*
X147256649Y-100757906D01*
X147256645Y-100757913D01*
X147206403Y-100892620D01*
X147206401Y-100892627D01*
X147200000Y-100952155D01*
X144609216Y-100952155D01*
X144609216Y-97567048D01*
X144628901Y-97500009D01*
X144630114Y-97498157D01*
X144632831Y-97494091D01*
X144712419Y-97374980D01*
X144776532Y-97220199D01*
X144809216Y-97055884D01*
X144809216Y-96888350D01*
X144776532Y-96724035D01*
X144726943Y-96604318D01*
X144712420Y-96569256D01*
X144619342Y-96429954D01*
X144500878Y-96311490D01*
X144361576Y-96218412D01*
X144206798Y-96154301D01*
X144206790Y-96154299D01*
X144042487Y-96121617D01*
X144042483Y-96121617D01*
X143874949Y-96121617D01*
X143874944Y-96121617D01*
X143710641Y-96154299D01*
X143710633Y-96154301D01*
X143555855Y-96218412D01*
X143416553Y-96311490D01*
X143298089Y-96429954D01*
X143205011Y-96569256D01*
X143140900Y-96724034D01*
X143140898Y-96724042D01*
X143108216Y-96888345D01*
X139750500Y-96888345D01*
X139750500Y-96362229D01*
X139770185Y-96295190D01*
X139786819Y-96274548D01*
X140981552Y-95079815D01*
X142222908Y-93838458D01*
X142263130Y-93811582D01*
X142402863Y-93753703D01*
X142542162Y-93660626D01*
X142660626Y-93542162D01*
X142753703Y-93402863D01*
X142817816Y-93248082D01*
X142850500Y-93083767D01*
X142850500Y-92916233D01*
X142817816Y-92751918D01*
X142753703Y-92597137D01*
X142676894Y-92482184D01*
X142660626Y-92457837D01*
X142542162Y-92339373D01*
X142402860Y-92246295D01*
X142263135Y-92188419D01*
X142222907Y-92161539D01*
X140786819Y-90725451D01*
X140753334Y-90664128D01*
X140750500Y-90637770D01*
X140750500Y-88926080D01*
X140739421Y-88870386D01*
X140738151Y-88864001D01*
X140721659Y-88781088D01*
X140683862Y-88689839D01*
X140681691Y-88684599D01*
X140681690Y-88684594D01*
X140665087Y-88644511D01*
X140665085Y-88644507D01*
X140665084Y-88644505D01*
X140619621Y-88576465D01*
X140619619Y-88576462D01*
X140582954Y-88521586D01*
X140454383Y-88393015D01*
X140427503Y-88352787D01*
X140369625Y-88213058D01*
X140348996Y-88182185D01*
X140338458Y-88166413D01*
X140276547Y-88073756D01*
X140158083Y-87955292D01*
X140018781Y-87862214D01*
X139864003Y-87798103D01*
X139863995Y-87798101D01*
X139699692Y-87765419D01*
X139699688Y-87765419D01*
X139532154Y-87765419D01*
X139532149Y-87765419D01*
X139367846Y-87798101D01*
X139367838Y-87798103D01*
X139213060Y-87862214D01*
X139073758Y-87955292D01*
X138955294Y-88073756D01*
X138862216Y-88213058D01*
X138798105Y-88367836D01*
X138798103Y-88367844D01*
X138765421Y-88532147D01*
X138765421Y-88699690D01*
X138798103Y-88863993D01*
X138798105Y-88864001D01*
X138862216Y-89018779D01*
X138955294Y-89158081D01*
X139073755Y-89276542D01*
X139073759Y-89276545D01*
X139194391Y-89357149D01*
X139239196Y-89410761D01*
X139249500Y-89460251D01*
X139249500Y-91073918D01*
X139249500Y-91073920D01*
X139249499Y-91073920D01*
X139278340Y-91218907D01*
X139278343Y-91218917D01*
X139290424Y-91248082D01*
X139334916Y-91355495D01*
X139356109Y-91387213D01*
X139366565Y-91402862D01*
X139417049Y-91478418D01*
X140850950Y-92912319D01*
X140884435Y-92973642D01*
X140879451Y-93043334D01*
X140850950Y-93087681D01*
X138417050Y-95521581D01*
X138417048Y-95521584D01*
X138403299Y-95542162D01*
X138403297Y-95542163D01*
X138403297Y-95542164D01*
X138334916Y-95644503D01*
X138334914Y-95644506D01*
X138278343Y-95781082D01*
X138278340Y-95781092D01*
X138249500Y-95926079D01*
X138249500Y-97564739D01*
X138240061Y-97612192D01*
X138182184Y-97751917D01*
X138182182Y-97751925D01*
X138149500Y-97916228D01*
X120500500Y-97916228D01*
X120500500Y-93916228D01*
X126149500Y-93916228D01*
X126149500Y-94083771D01*
X126182182Y-94248074D01*
X126182184Y-94248082D01*
X126246295Y-94402860D01*
X126339373Y-94542162D01*
X126457837Y-94660626D01*
X126550494Y-94722537D01*
X126597137Y-94753703D01*
X126751918Y-94817816D01*
X126916228Y-94850499D01*
X126916232Y-94850500D01*
X126916233Y-94850500D01*
X127083768Y-94850500D01*
X127083769Y-94850499D01*
X127248082Y-94817816D01*
X127402863Y-94753703D01*
X127542162Y-94660626D01*
X127660626Y-94542162D01*
X127753703Y-94402863D01*
X127817816Y-94248082D01*
X127850500Y-94083767D01*
X127850500Y-93916233D01*
X127817816Y-93751918D01*
X127753703Y-93597137D01*
X127671398Y-93473959D01*
X127650520Y-93407281D01*
X127650500Y-93405068D01*
X127650500Y-88320808D01*
X127670185Y-88253769D01*
X127686819Y-88233127D01*
X131233127Y-84686819D01*
X131294450Y-84653334D01*
X131320808Y-84650500D01*
X142064071Y-84650500D01*
X142148615Y-84633682D01*
X142189744Y-84625501D01*
X142308127Y-84576465D01*
X142414669Y-84505277D01*
X144039292Y-82880652D01*
X144100613Y-82847169D01*
X144102665Y-82846740D01*
X144248082Y-82817816D01*
X144402863Y-82753703D01*
X144542162Y-82660626D01*
X144660626Y-82542162D01*
X144753703Y-82402863D01*
X144817816Y-82248082D01*
X144850500Y-82083767D01*
X144850500Y-81916233D01*
X144817816Y-81751918D01*
X144768227Y-81632201D01*
X144753704Y-81597139D01*
X144735254Y-81569527D01*
X144716970Y-81542162D01*
X144660626Y-81457837D01*
X144542162Y-81339373D01*
X144402860Y-81246295D01*
X144248082Y-81182184D01*
X144248074Y-81182182D01*
X144083771Y-81149500D01*
X144083767Y-81149500D01*
X143916233Y-81149500D01*
X143916228Y-81149500D01*
X143751925Y-81182182D01*
X143751917Y-81182184D01*
X143597139Y-81246295D01*
X143457837Y-81339373D01*
X143339373Y-81457837D01*
X143246295Y-81597139D01*
X143182184Y-81751917D01*
X143182182Y-81751923D01*
X143153281Y-81897219D01*
X143120896Y-81959130D01*
X143119345Y-81960708D01*
X141992517Y-83087536D01*
X141931194Y-83121021D01*
X141861502Y-83116037D01*
X141805569Y-83074165D01*
X141781152Y-83008701D01*
X141787401Y-82965245D01*
X141786512Y-82965035D01*
X141788296Y-82957483D01*
X141794705Y-82897873D01*
X141794704Y-81102128D01*
X141788296Y-81042517D01*
X141781682Y-81024785D01*
X141738002Y-80907671D01*
X141737998Y-80907664D01*
X141651752Y-80792455D01*
X141651749Y-80792452D01*
X141536540Y-80706206D01*
X141536533Y-80706202D01*
X141404606Y-80656997D01*
X141348672Y-80615126D01*
X141324255Y-80549662D01*
X141339107Y-80481389D01*
X141360258Y-80453133D01*
X141473933Y-80339458D01*
X141598825Y-80167557D01*
X141695300Y-79978217D01*
X141760962Y-79776129D01*
X141760962Y-79776126D01*
X141771436Y-79710000D01*
X140877217Y-79710000D01*
X140910130Y-79652993D01*
X140944205Y-79525826D01*
X140944205Y-79394174D01*
X140910130Y-79267007D01*
X140877217Y-79210000D01*
X141771436Y-79210000D01*
X141760962Y-79143873D01*
X141760962Y-79143870D01*
X141695300Y-78941782D01*
X141598825Y-78752442D01*
X141473932Y-78580540D01*
X141473928Y-78580535D01*
X141323669Y-78430276D01*
X141323664Y-78430272D01*
X141151762Y-78305379D01*
X140962420Y-78208903D01*
X140760329Y-78143241D01*
X140694205Y-78132768D01*
X140694205Y-79026988D01*
X140637198Y-78994075D01*
X140510031Y-78960000D01*
X140378379Y-78960000D01*
X140251212Y-78994075D01*
X140194205Y-79026988D01*
X140194205Y-78132768D01*
X140194204Y-78132768D01*
X140128080Y-78143241D01*
X139925989Y-78208903D01*
X139736647Y-78305379D01*
X139564745Y-78430272D01*
X139564740Y-78430276D01*
X139414481Y-78580535D01*
X139414477Y-78580540D01*
X139289584Y-78752442D01*
X139193109Y-78941782D01*
X139127447Y-79143870D01*
X139127447Y-79143873D01*
X139116974Y-79210000D01*
X140011193Y-79210000D01*
X139978280Y-79267007D01*
X139944205Y-79394174D01*
X139944205Y-79525826D01*
X139978280Y-79652993D01*
X140011193Y-79710000D01*
X139116974Y-79710000D01*
X139127447Y-79776126D01*
X139127447Y-79776129D01*
X139193109Y-79978217D01*
X139289584Y-80167557D01*
X139414477Y-80339459D01*
X139414481Y-80339464D01*
X139528151Y-80453134D01*
X139561636Y-80514457D01*
X139556652Y-80584149D01*
X139514780Y-80640082D01*
X139483803Y-80656997D01*
X139351876Y-80706202D01*
X139351869Y-80706206D01*
X139236660Y-80792452D01*
X139236657Y-80792455D01*
X139150411Y-80907664D01*
X139150407Y-80907671D01*
X139100113Y-81042517D01*
X139095192Y-81088294D01*
X139093706Y-81102123D01*
X139093705Y-81102135D01*
X139093705Y-82897870D01*
X139093706Y-82897876D01*
X139100113Y-82957483D01*
X139150407Y-83092328D01*
X139150409Y-83092331D01*
X139194470Y-83151189D01*
X139218888Y-83216652D01*
X139204037Y-83284925D01*
X139154632Y-83334331D01*
X139095204Y-83349500D01*
X130935929Y-83349500D01*
X130810261Y-83374497D01*
X130810255Y-83374499D01*
X130691870Y-83423535D01*
X130585331Y-83494722D01*
X130585324Y-83494728D01*
X126494727Y-87585325D01*
X126494721Y-87585332D01*
X126423541Y-87691861D01*
X126423534Y-87691875D01*
X126374499Y-87810255D01*
X126374497Y-87810261D01*
X126349500Y-87935928D01*
X126349500Y-93405068D01*
X126329815Y-93472107D01*
X126328602Y-93473959D01*
X126246295Y-93597139D01*
X126182184Y-93751917D01*
X126182182Y-93751925D01*
X126149500Y-93916228D01*
X120500500Y-93916228D01*
X120500500Y-79376424D01*
X120520185Y-79309385D01*
X120572989Y-79263630D01*
X120642147Y-79253686D01*
X120705703Y-79282711D01*
X120742431Y-79338106D01*
X120794780Y-79499219D01*
X120887712Y-79681609D01*
X120887715Y-79681613D01*
X121008028Y-79847213D01*
X121152786Y-79991971D01*
X121241200Y-80056206D01*
X121318390Y-80112287D01*
X121426863Y-80167557D01*
X121500776Y-80205218D01*
X121500778Y-80205218D01*
X121500781Y-80205220D01*
X121590083Y-80234236D01*
X121695465Y-80268477D01*
X121796557Y-80284488D01*
X121897648Y-80300500D01*
X121897649Y-80300500D01*
X122102351Y-80300500D01*
X122102352Y-80300500D01*
X122304534Y-80268477D01*
X122499219Y-80205220D01*
X122681610Y-80112287D01*
X122774590Y-80044732D01*
X122847213Y-79991971D01*
X122847215Y-79991968D01*
X122847219Y-79991966D01*
X122991966Y-79847219D01*
X122991968Y-79847215D01*
X122991971Y-79847213D01*
X123062236Y-79750500D01*
X123112287Y-79681610D01*
X123205220Y-79499219D01*
X123268477Y-79304534D01*
X123281227Y-79224038D01*
X126299500Y-79224038D01*
X126299500Y-80775962D01*
X126327671Y-80953825D01*
X126338910Y-81024785D01*
X126416760Y-81264383D01*
X126487320Y-81402863D01*
X126517058Y-81461228D01*
X126531132Y-81488848D01*
X126679201Y-81692649D01*
X126679205Y-81692654D01*
X126857345Y-81870794D01*
X126857350Y-81870798D01*
X127035117Y-81999952D01*
X127061155Y-82018870D01*
X127169193Y-82073918D01*
X127285616Y-82133239D01*
X127285618Y-82133239D01*
X127285621Y-82133241D01*
X127525215Y-82211090D01*
X127774038Y-82250500D01*
X127774039Y-82250500D01*
X128025961Y-82250500D01*
X128025962Y-82250500D01*
X128274785Y-82211090D01*
X128514379Y-82133241D01*
X128738845Y-82018870D01*
X128942656Y-81870793D01*
X129120793Y-81692656D01*
X129184298Y-81605247D01*
X129239628Y-81562581D01*
X129309241Y-81556602D01*
X129340912Y-81567647D01*
X129344593Y-81569522D01*
X129344595Y-81569524D01*
X129398789Y-81597137D01*
X129519970Y-81658882D01*
X129519972Y-81658882D01*
X129519975Y-81658884D01*
X129568184Y-81674548D01*
X129707173Y-81719709D01*
X129901578Y-81750500D01*
X129901583Y-81750500D01*
X130098422Y-81750500D01*
X130292826Y-81719709D01*
X130480025Y-81658884D01*
X130655405Y-81569524D01*
X130814646Y-81453828D01*
X130912319Y-81356155D01*
X130973642Y-81322670D01*
X131043334Y-81327654D01*
X131087681Y-81356155D01*
X131185354Y-81453828D01*
X131344595Y-81569524D01*
X131398789Y-81597137D01*
X131519970Y-81658882D01*
X131519972Y-81658882D01*
X131519975Y-81658884D01*
X131568184Y-81674548D01*
X131707173Y-81719709D01*
X131901578Y-81750500D01*
X131901583Y-81750500D01*
X132098422Y-81750500D01*
X132292826Y-81719709D01*
X132480025Y-81658884D01*
X132655405Y-81569524D01*
X132691614Y-81543215D01*
X132757417Y-81519736D01*
X132825471Y-81535560D01*
X132863763Y-81569220D01*
X132892454Y-81607546D01*
X132892455Y-81607546D01*
X132892456Y-81607548D01*
X133007664Y-81693793D01*
X133007671Y-81693797D01*
X133142517Y-81744091D01*
X133142516Y-81744091D01*
X133149444Y-81744835D01*
X133202127Y-81750500D01*
X134797872Y-81750499D01*
X134857483Y-81744091D01*
X134857486Y-81744089D01*
X134864554Y-81743330D01*
X134933314Y-81755736D01*
X134965490Y-81778939D01*
X135057345Y-81870794D01*
X135057350Y-81870798D01*
X135235117Y-81999952D01*
X135261155Y-82018870D01*
X135369193Y-82073918D01*
X135485616Y-82133239D01*
X135485618Y-82133239D01*
X135485621Y-82133241D01*
X135725215Y-82211090D01*
X135974038Y-82250500D01*
X135974039Y-82250500D01*
X136225961Y-82250500D01*
X136225962Y-82250500D01*
X136474785Y-82211090D01*
X136714379Y-82133241D01*
X136938845Y-82018870D01*
X137142656Y-81870793D01*
X137320793Y-81692656D01*
X137468870Y-81488845D01*
X137583241Y-81264379D01*
X137661090Y-81024785D01*
X137700500Y-80775962D01*
X137700500Y-79224038D01*
X137661090Y-78975215D01*
X137583241Y-78735621D01*
X137583239Y-78735618D01*
X137583239Y-78735616D01*
X137504223Y-78580540D01*
X137468870Y-78511155D01*
X137420986Y-78445248D01*
X137320798Y-78307350D01*
X137320794Y-78307345D01*
X137142654Y-78129205D01*
X137142649Y-78129201D01*
X136938848Y-77981132D01*
X136938847Y-77981131D01*
X136938845Y-77981130D01*
X136868747Y-77945413D01*
X136714383Y-77866760D01*
X136474785Y-77788910D01*
X136225962Y-77749500D01*
X135974038Y-77749500D01*
X135849626Y-77769205D01*
X135725214Y-77788910D01*
X135485616Y-77866760D01*
X135261151Y-77981132D01*
X135057350Y-78129200D01*
X134965487Y-78221062D01*
X134904163Y-78254546D01*
X134864553Y-78256669D01*
X134855522Y-78255698D01*
X134797873Y-78249500D01*
X134797865Y-78249500D01*
X133202129Y-78249500D01*
X133202123Y-78249501D01*
X133142516Y-78255908D01*
X133007671Y-78306202D01*
X133007664Y-78306206D01*
X132892455Y-78392452D01*
X132863765Y-78430777D01*
X132807830Y-78472648D01*
X132738139Y-78477631D01*
X132691613Y-78456783D01*
X132655405Y-78430476D01*
X132480029Y-78341117D01*
X132292826Y-78280290D01*
X132098422Y-78249500D01*
X132098417Y-78249500D01*
X131901583Y-78249500D01*
X131901578Y-78249500D01*
X131707173Y-78280290D01*
X131519970Y-78341117D01*
X131344594Y-78430476D01*
X131279692Y-78477631D01*
X131185354Y-78546172D01*
X131185352Y-78546174D01*
X131185351Y-78546174D01*
X131087681Y-78643845D01*
X131026358Y-78677330D01*
X130956666Y-78672346D01*
X130912319Y-78643845D01*
X130814648Y-78546174D01*
X130814646Y-78546172D01*
X130655405Y-78430476D01*
X130629049Y-78417047D01*
X130480029Y-78341117D01*
X130292826Y-78280290D01*
X130098422Y-78249500D01*
X130098417Y-78249500D01*
X129901583Y-78249500D01*
X129901578Y-78249500D01*
X129707173Y-78280290D01*
X129519967Y-78341118D01*
X129340911Y-78432352D01*
X129272242Y-78445248D01*
X129207502Y-78418971D01*
X129184299Y-78394752D01*
X129120798Y-78307349D01*
X128942654Y-78129205D01*
X128942649Y-78129201D01*
X128738848Y-77981132D01*
X128738847Y-77981131D01*
X128738845Y-77981130D01*
X128668747Y-77945413D01*
X128514383Y-77866760D01*
X128274785Y-77788910D01*
X128025962Y-77749500D01*
X127774038Y-77749500D01*
X127649626Y-77769205D01*
X127525214Y-77788910D01*
X127285616Y-77866760D01*
X127061151Y-77981132D01*
X126857350Y-78129201D01*
X126857345Y-78129205D01*
X126679205Y-78307345D01*
X126679201Y-78307350D01*
X126531132Y-78511151D01*
X126416760Y-78735616D01*
X126338910Y-78975214D01*
X126303344Y-79199767D01*
X126299500Y-79224038D01*
X123281227Y-79224038D01*
X123285071Y-79199768D01*
X123285071Y-79199767D01*
X123300500Y-79102352D01*
X123300500Y-78897648D01*
X123268477Y-78695465D01*
X123215733Y-78533137D01*
X123205220Y-78500781D01*
X123205218Y-78500778D01*
X123205218Y-78500776D01*
X123151195Y-78394752D01*
X123112287Y-78318390D01*
X123081331Y-78275782D01*
X122991971Y-78152786D01*
X122847213Y-78008028D01*
X122681613Y-77887715D01*
X122681612Y-77887714D01*
X122681610Y-77887713D01*
X122624653Y-77858691D01*
X122499223Y-77794781D01*
X122338106Y-77742431D01*
X122280431Y-77702993D01*
X122253233Y-77638634D01*
X122265148Y-77569788D01*
X122312392Y-77518312D01*
X122376425Y-77500500D01*
X157623575Y-77500500D01*
X157690614Y-77520185D01*
G37*
%TD.AperFunction*%
%TD*%
M02*
