M48
; DRILL file {KiCad 9.0.3} date 2026-03-11T10:29:05+0530
; FORMAT={-:-/ absolute / metric / decimal}
; #@! TF.CreationDate,2026-03-11T10:29:05+05:30
; #@! TF.GenerationSoftware,Kicad,Pcbnew,9.0.3
; #@! TF.FileFunction,MixedPlating,1,2
FMAT,2
METRIC
; #@! TA.AperFunction,Plated,PTH,ViaDrill
T1C0.300
; #@! TA.AperFunction,Plated,PTH,ComponentDrill
T2C0.800
; #@! TA.AperFunction,Plated,PTH,ComponentDrill
T3C0.900
; #@! TA.AperFunction,Plated,PTH,ComponentDrill
T4C1.000
; #@! TA.AperFunction,Plated,PTH,ComponentDrill
T5C1.500
; #@! TA.AperFunction,NonPlated,NPTH,ComponentDrill
T6C1.500
; #@! TA.AperFunction,NonPlated,NPTH,ComponentDrill
T7C2.100
%
G90
G05
T1
X125.0Y-105.0
X125.971Y-110.3
X127.0Y-94.0
X133.85Y-105.0
X136.0Y-86.0
X136.0Y-92.0
X136.0Y-106.0
X136.0Y-109.0
X136.0Y-110.0
X137.0Y-100.0
X139.0Y-98.0
X139.0Y-104.0
X139.616Y-88.616
X141.0Y-106.0
X141.193Y-105.121
X142.0Y-93.0
X142.0Y-100.0
X143.0Y-86.0
X143.959Y-96.972
X144.0Y-82.0
X144.0Y-90.0
X144.0Y-109.0
X145.0Y-95.0
X145.26Y-87.15
X146.0Y-110.3
X146.15Y-105.0
X148.0Y-100.0
X149.0Y-84.0
X149.0Y-110.0
X151.0Y-99.602
X151.0Y-103.0
X151.0Y-107.0
X151.0Y-113.3
X152.0Y-81.0
X152.0Y-93.3
X152.0Y-110.0
X153.0Y-85.0
X153.0Y-110.0
X154.0Y-85.0
X154.0Y-93.0
X155.0Y-79.0
X155.3Y-91.0
X159.0Y-89.0
T2
X140.92Y-114.0
X143.46Y-114.0
X146.0Y-114.0
T3
X130.0Y-80.0
X130.0Y-114.0
X132.0Y-80.0
X132.0Y-114.0
X134.0Y-80.0
X134.0Y-114.0
T4
X140.444Y-79.46
X140.444Y-82.0
T5
X127.9Y-80.0
X127.9Y-114.0
X136.1Y-80.0
X136.1Y-114.0
T6
X151.0Y-85.0
X158.0Y-85.0
X158.0Y-99.0
X158.0Y-110.05
T7
X122.0Y-79.0
X122.0Y-115.0
X158.0Y-79.0
X158.0Y-115.0
M30
