<?xml version="1.0" standalone="no"?>
 <!DOCTYPE svg PUBLIC "-//W3C//DTD SVG 1.1//EN" 
 "http://www.w3.org/Graphics/SVG/1.1/DTD/svg11.dtd"> 
<svg
  xmlns:svg="http://www.w3.org/2000/svg"
  xmlns="http://www.w3.org/2000/svg"
  xmlns:xlink="http://www.w3.org/1999/xlink"
  version="1.1"
  width="297.002200mm" height="210.007200mm" viewBox="0.000000 0.000000 297.002200 210.007200">
<title>SVG Image created as final schematics-F_Mask.svg date 2025/06/16 13:51:48 </title>
  <desc>Image generated by PCBNEW </desc>
<g style="fill:#000000; fill-opacity:1.000000;stroke:#000000; stroke-opacity:1.000000;
stroke-linecap:round; stroke-linejoin:round;"
 transform="translate(0 0) scale(1 1)">
<path style="fill:#D864FF; fill-opacity:0.400000; stroke:none;fill-rule:evenodd;"
d="M 136.575000,94.828750
136.586418,94.771347
136.618934,94.722684
136.667597,94.690168
136.725000,94.678750
138.375000,94.678750
138.432403,94.690168
138.481066,94.722684
138.513582,94.771347
138.525000,94.828750
138.525000,95.128750
138.513582,95.186153
138.481066,95.234816
138.432403,95.267332
138.375000,95.278750
136.725000,95.278750
136.667597,95.267332
136.618934,95.234816
136.586418,95.186153
136.575000,95.128750
Z" /> 
<path style="fill:#D864FF; fill-opacity:0.400000; stroke:none;fill-rule:evenodd;"
d="M 136.575000,96.098750
136.586418,96.041347
136.618934,95.992684
136.667597,95.960168
136.725000,95.948750
138.375000,95.948750
138.432403,95.960168
138.481066,95.992684
138.513582,96.041347
138.525000,96.098750
138.525000,96.398750
138.513582,96.456153
138.481066,96.504816
138.432403,96.537332
138.375000,96.548750
136.725000,96.548750
136.667597,96.537332
136.618934,96.504816
136.586418,96.456153
136.575000,96.398750
Z" /> 
<path style="fill:#D864FF; fill-opacity:0.400000; stroke:none;fill-rule:evenodd;"
d="M 136.575000,97.368750
136.586418,97.311347
136.618934,97.262684
136.667597,97.230168
136.725000,97.218750
138.375000,97.218750
138.432403,97.230168
138.481066,97.262684
138.513582,97.311347
138.525000,97.368750
138.525000,97.668750
138.513582,97.726153
138.481066,97.774816
138.432403,97.807332
138.375000,97.818750
136.725000,97.818750
136.667597,97.807332
136.618934,97.774816
136.586418,97.726153
136.575000,97.668750
Z" /> 
<path style="fill:#D864FF; fill-opacity:0.400000; stroke:none;fill-rule:evenodd;"
d="M 136.575000,98.638750
136.586418,98.581347
136.618934,98.532684
136.667597,98.500168
136.725000,98.488750
138.375000,98.488750
138.432403,98.500168
138.481066,98.532684
138.513582,98.581347
138.525000,98.638750
138.525000,98.938750
138.513582,98.996153
138.481066,99.044816
138.432403,99.077332
138.375000,99.088750
136.725000,99.088750
136.667597,99.077332
136.618934,99.044816
136.586418,98.996153
136.575000,98.938750
Z" /> 
<path style="fill:#D864FF; fill-opacity:0.400000; stroke:none;fill-rule:evenodd;"
d="M 141.525000,98.638750
141.536418,98.581347
141.568934,98.532684
141.617597,98.500168
141.675000,98.488750
143.325000,98.488750
143.382403,98.500168
143.431066,98.532684
143.463582,98.581347
143.475000,98.638750
143.475000,98.938750
143.463582,98.996153
143.431066,99.044816
143.382403,99.077332
143.325000,99.088750
141.675000,99.088750
141.617597,99.077332
141.568934,99.044816
141.536418,98.996153
141.525000,98.938750
Z" /> 
<path style="fill:#D864FF; fill-opacity:0.400000; stroke:none;fill-rule:evenodd;"
d="M 141.525000,97.368750
141.536418,97.311347
141.568934,97.262684
141.617597,97.230168
141.675000,97.218750
143.325000,97.218750
143.382403,97.230168
143.431066,97.262684
143.463582,97.311347
143.475000,97.368750
143.475000,97.668750
143.463582,97.726153
143.431066,97.774816
143.382403,97.807332
143.325000,97.818750
141.675000,97.818750
141.617597,97.807332
141.568934,97.774816
141.536418,97.726153
141.525000,97.668750
Z" /> 
<path style="fill:#D864FF; fill-opacity:0.400000; stroke:none;fill-rule:evenodd;"
d="M 141.525000,96.098750
141.536418,96.041347
141.568934,95.992684
141.617597,95.960168
141.675000,95.948750
143.325000,95.948750
143.382403,95.960168
143.431066,95.992684
143.463582,96.041347
143.475000,96.098750
143.475000,96.398750
143.463582,96.456153
143.431066,96.504816
143.382403,96.537332
143.325000,96.548750
141.675000,96.548750
141.617597,96.537332
141.568934,96.504816
141.536418,96.456153
141.525000,96.398750
Z" /> 
<path style="fill:#D864FF; fill-opacity:0.400000; stroke:none;fill-rule:evenodd;"
d="M 141.525000,94.828750
141.536418,94.771347
141.568934,94.722684
141.617597,94.690168
141.675000,94.678750
143.325000,94.678750
143.382403,94.690168
143.431066,94.722684
143.463582,94.771347
143.475000,94.828750
143.475000,95.128750
143.463582,95.186153
143.431066,95.234816
143.382403,95.267332
143.325000,95.278750
141.675000,95.278750
141.617597,95.267332
141.568934,95.234816
141.536418,95.186153
141.525000,95.128750
Z" /> 
<path style="fill:#D864FF; fill-opacity:0.400000; stroke:none;fill-rule:evenodd;"
d="M 153.600000,79.450000
153.580970,79.545671
153.526777,79.626777
153.445671,79.680970
153.350000,79.700000
152.650000,79.700000
152.554329,79.680970
152.473223,79.626777
152.419030,79.545671
152.400000,79.450000
152.400000,78.550000
152.419030,78.454329
152.473223,78.373223
152.554329,78.319030
152.650000,78.300000
153.350000,78.300000
153.445671,78.319030
153.526777,78.373223
153.580970,78.454329
153.600000,78.550000
Z" /> 
<path style="fill:#D864FF; fill-opacity:0.400000; stroke:none;fill-rule:evenodd;"
d="M 151.600000,79.450000
151.580970,79.545671
151.526777,79.626777
151.445671,79.680970
151.350000,79.700000
150.650000,79.700000
150.554329,79.680970
150.473223,79.626777
150.419030,79.545671
150.400000,79.450000
150.400000,78.550000
150.419030,78.454329
150.473223,78.373223
150.554329,78.319030
150.650000,78.300000
151.350000,78.300000
151.445671,78.319030
151.526777,78.373223
151.580970,78.454329
151.600000,78.550000
Z" /> 
<path style="fill:#D864FF; fill-opacity:0.400000; stroke:none;fill-rule:evenodd;"
d="M 154.801708,87.654702
154.782678,87.750373
154.728485,87.831479
154.647379,87.885672
154.551708,87.904702
153.876708,87.904702
153.781037,87.885672
153.699931,87.831479
153.645738,87.750373
153.626708,87.654702
153.626708,86.704702
153.645738,86.609031
153.699931,86.527925
153.781037,86.473732
153.876708,86.454702
154.551708,86.454702
154.647379,86.473732
154.728485,86.527925
154.782678,86.609031
154.801708,86.704702
Z" /> 
<path style="fill:#D864FF; fill-opacity:0.400000; stroke:none;fill-rule:evenodd;"
d="M 152.726708,87.654702
152.707678,87.750373
152.653485,87.831479
152.572379,87.885672
152.476708,87.904702
151.801708,87.904702
151.706037,87.885672
151.624931,87.831479
151.570738,87.750373
151.551708,87.654702
151.551708,86.704702
151.570738,86.609031
151.624931,86.527925
151.706037,86.473732
151.801708,86.454702
152.476708,86.454702
152.572379,86.473732
152.653485,86.527925
152.707678,86.609031
152.726708,86.704702
Z" /> 
</g>
<g style="fill:none; 
stroke:#D864FF; stroke-width:2.200000; stroke-opacity:1; 
stroke-linecap:round; stroke-linejoin:round;">
<path d="M136.100000 80.650000
L136.100000 79.350000
" />
<path d="M127.900000 80.650000
L127.900000 79.350000
" />
<path style="fill:#D864FF; fill-opacity:0.400000; stroke:none;fill-rule:evenodd;"
d="M 134.750000,78.750000
134.750000,81.250000
133.250000,81.250000
133.250000,78.750000
Z" /> 
</g>
<g style="fill:none; 
stroke:#D864FF; stroke-width:1.500000; stroke-opacity:1; 
stroke-linecap:round; stroke-linejoin:round;">
<path d="M132.000000 80.500000
L132.000000 79.500000
" />
<path d="M130.000000 80.500000
L130.000000 79.500000
" />
<path style="fill:#D864FF; fill-opacity:0.400000; stroke:none;fill-rule:evenodd;"
d="M 150.400000,81.550000
150.419030,81.454329
150.473223,81.373223
150.554329,81.319030
150.650000,81.300000
151.350000,81.300000
151.445671,81.319030
151.526777,81.373223
151.580970,81.454329
151.600000,81.550000
151.600000,82.450000
151.580970,82.545671
151.526777,82.626777
151.445671,82.680970
151.350000,82.700000
150.650000,82.700000
150.554329,82.680970
150.473223,82.626777
150.419030,82.545671
150.400000,82.450000
Z" /> 
<path style="fill:#D864FF; fill-opacity:0.400000; stroke:none;fill-rule:evenodd;"
d="M 152.400000,81.550000
152.419030,81.454329
152.473223,81.373223
152.554329,81.319030
152.650000,81.300000
153.350000,81.300000
153.445671,81.319030
153.526777,81.373223
153.580970,81.454329
153.600000,81.550000
153.600000,82.450000
153.580970,82.545671
153.526777,82.626777
153.445671,82.680970
153.350000,82.700000
152.650000,82.700000
152.554329,82.680970
152.473223,82.626777
152.419030,82.545671
152.400000,82.450000
Z" /> 
<path style="fill:#D864FF; fill-opacity:0.400000; stroke:none;fill-rule:evenodd;"
d="M 151.576708,91.550000
151.595738,91.454329
151.649931,91.373223
151.731037,91.319030
151.826708,91.300000
152.526708,91.300000
152.622379,91.319030
152.703485,91.373223
152.757678,91.454329
152.776708,91.550000
152.776708,92.450000
152.757678,92.545671
152.703485,92.626777
152.622379,92.680970
152.526708,92.700000
151.826708,92.700000
151.731037,92.680970
151.649931,92.626777
151.595738,92.545671
151.576708,92.450000
Z" /> 
<path style="fill:#D864FF; fill-opacity:0.400000; stroke:none;fill-rule:evenodd;"
d="M 153.576708,91.550000
153.595738,91.454329
153.649931,91.373223
153.731037,91.319030
153.826708,91.300000
154.526708,91.300000
154.622379,91.319030
154.703485,91.373223
154.757678,91.454329
154.776708,91.550000
154.776708,92.450000
154.757678,92.545671
154.703485,92.626777
154.622379,92.680970
154.526708,92.700000
153.826708,92.700000
153.731037,92.680970
153.649931,92.626777
153.595738,92.545671
153.576708,92.450000
Z" /> 
<path style="fill:#D864FF; fill-opacity:0.400000; stroke:none;fill-rule:evenodd;"
d="M 144.660200,91.550000
144.679230,91.454329
144.733423,91.373223
144.814529,91.319030
144.910200,91.300000
145.610200,91.300000
145.705871,91.319030
145.786977,91.373223
145.841170,91.454329
145.860200,91.550000
145.860200,92.450000
145.841170,92.545671
145.786977,92.626777
145.705871,92.680970
145.610200,92.700000
144.910200,92.700000
144.814529,92.680970
144.733423,92.626777
144.679230,92.545671
144.660200,92.450000
Z" /> 
<path style="fill:#D864FF; fill-opacity:0.400000; stroke:none;fill-rule:evenodd;"
d="M 146.660200,91.550000
146.679230,91.454329
146.733423,91.373223
146.814529,91.319030
146.910200,91.300000
147.610200,91.300000
147.705871,91.319030
147.786977,91.373223
147.841170,91.454329
147.860200,91.550000
147.860200,92.450000
147.841170,92.545671
147.786977,92.626777
147.705871,92.680970
147.610200,92.700000
146.910200,92.700000
146.814529,92.680970
146.733423,92.626777
146.679230,92.545671
146.660200,92.450000
Z" /> 
<path style="fill:#D864FF; fill-opacity:0.400000; stroke:none;fill-rule:evenodd;"
d="M 129.391705,89.375000
129.487376,89.394030
129.568482,89.448223
129.622675,89.529329
129.641705,89.625000
129.641705,90.300000
129.622675,90.395671
129.568482,90.476777
129.487376,90.530970
129.391705,90.550000
128.441705,90.550000
128.346034,90.530970
128.264928,90.476777
128.210735,90.395671
128.191705,90.300000
128.191705,89.625000
128.210735,89.529329
128.264928,89.448223
128.346034,89.394030
128.441705,89.375000
Z" /> 
<path style="fill:#D864FF; fill-opacity:0.400000; stroke:none;fill-rule:evenodd;"
d="M 129.391705,91.450000
129.487376,91.469030
129.568482,91.523223
129.622675,91.604329
129.641705,91.700000
129.641705,92.375000
129.622675,92.470671
129.568482,92.551777
129.487376,92.605970
129.391705,92.625000
128.441705,92.625000
128.346034,92.605970
128.264928,92.551777
128.210735,92.470671
128.191705,92.375000
128.191705,91.700000
128.210735,91.604329
128.264928,91.523223
128.346034,91.469030
128.441705,91.450000
Z" /> 
<path style="fill:#D864FF; fill-opacity:0.400000; stroke:none;fill-rule:evenodd;"
d="M 132.400000,106.550000
132.419030,106.454329
132.473223,106.373223
132.554329,106.319030
132.650000,106.300000
133.350000,106.300000
133.445671,106.319030
133.526777,106.373223
133.580970,106.454329
133.600000,106.550000
133.600000,107.450000
133.580970,107.545671
133.526777,107.626777
133.445671,107.680970
133.350000,107.700000
132.650000,107.700000
132.554329,107.680970
132.473223,107.626777
132.419030,107.545671
132.400000,107.450000
Z" /> 
<path style="fill:#D864FF; fill-opacity:0.400000; stroke:none;fill-rule:evenodd;"
d="M 134.400000,106.550000
134.419030,106.454329
134.473223,106.373223
134.554329,106.319030
134.650000,106.300000
135.350000,106.300000
135.445671,106.319030
135.526777,106.373223
135.580970,106.454329
135.600000,106.550000
135.600000,107.450000
135.580970,107.545671
135.526777,107.626777
135.445671,107.680970
135.350000,107.700000
134.650000,107.700000
134.554329,107.680970
134.473223,107.626777
134.419030,107.545671
134.400000,107.450000
Z" /> 
<path style="fill:#D864FF; fill-opacity:0.400000; stroke:none;fill-rule:evenodd;"
d="M 147.600000,109.450000
147.580970,109.545671
147.526777,109.626777
147.445671,109.680970
147.350000,109.700000
146.650000,109.700000
146.554329,109.680970
146.473223,109.626777
146.419030,109.545671
146.400000,109.450000
146.400000,108.550000
146.419030,108.454329
146.473223,108.373223
146.554329,108.319030
146.650000,108.300000
147.350000,108.300000
147.445671,108.319030
147.526777,108.373223
147.580970,108.454329
147.600000,108.550000
Z" /> 
<path style="fill:#D864FF; fill-opacity:0.400000; stroke:none;fill-rule:evenodd;"
d="M 145.600000,109.450000
145.580970,109.545671
145.526777,109.626777
145.445671,109.680970
145.350000,109.700000
144.650000,109.700000
144.554329,109.680970
144.473223,109.626777
144.419030,109.545671
144.400000,109.450000
144.400000,108.550000
144.419030,108.454329
144.473223,108.373223
144.554329,108.319030
144.650000,108.300000
145.350000,108.300000
145.445671,108.319030
145.526777,108.373223
145.580970,108.454329
145.600000,108.550000
Z" /> 
<path style="fill:#D864FF; fill-opacity:0.400000; stroke:none;fill-rule:evenodd;"
d="M 141.294205,81.150000
141.294205,82.850000
139.594205,82.850000
139.594205,81.150000
Z" /> 
</g>
<g style="fill:#D864FF; fill-opacity:0.400000; stroke:none;">
<circle cx="140.444205" cy="79.460000" r="0.850000" /> 
<path style="fill:#D864FF; fill-opacity:0.400000; stroke:none;fill-rule:evenodd;"
d="M 126.337500,95.382500
126.356530,95.286829
126.410723,95.205723
126.491829,95.151530
126.587500,95.132500
127.262500,95.132500
127.358171,95.151530
127.439277,95.205723
127.493470,95.286829
127.512500,95.382500
127.512500,96.332500
127.493470,96.428171
127.439277,96.509277
127.358171,96.563470
127.262500,96.582500
126.587500,96.582500
126.491829,96.563470
126.410723,96.509277
126.356530,96.428171
126.337500,96.332500
Z" /> 
<path style="fill:#D864FF; fill-opacity:0.400000; stroke:none;fill-rule:evenodd;"
d="M 128.412500,95.382500
128.431530,95.286829
128.485723,95.205723
128.566829,95.151530
128.662500,95.132500
129.337500,95.132500
129.433171,95.151530
129.514277,95.205723
129.568470,95.286829
129.587500,95.382500
129.587500,96.332500
129.568470,96.428171
129.514277,96.509277
129.433171,96.563470
129.337500,96.582500
128.662500,96.582500
128.566829,96.563470
128.485723,96.509277
128.431530,96.428171
128.412500,96.332500
Z" /> 
<path style="fill:#D864FF; fill-opacity:0.400000; stroke:none;fill-rule:evenodd;"
d="M 129.584904,98.372058
129.565874,98.467729
129.511681,98.548835
129.430575,98.603028
129.334904,98.622058
128.659904,98.622058
128.564233,98.603028
128.483127,98.548835
128.428934,98.467729
128.409904,98.372058
128.409904,97.422058
128.428934,97.326387
128.483127,97.245281
128.564233,97.191088
128.659904,97.172058
129.334904,97.172058
129.430575,97.191088
129.511681,97.245281
129.565874,97.326387
129.584904,97.422058
Z" /> 
<path style="fill:#D864FF; fill-opacity:0.400000; stroke:none;fill-rule:evenodd;"
d="M 127.509904,98.372058
127.490874,98.467729
127.436681,98.548835
127.355575,98.603028
127.259904,98.622058
126.584904,98.622058
126.489233,98.603028
126.408127,98.548835
126.353934,98.467729
126.334904,98.372058
126.334904,97.422058
126.353934,97.326387
126.408127,97.245281
126.489233,97.191088
126.584904,97.172058
127.259904,97.172058
127.355575,97.191088
127.436681,97.245281
127.490874,97.326387
127.509904,97.422058
Z" /> 
</g>
<g style="fill:none; 
stroke:#D864FF; stroke-width:2.200000; stroke-opacity:1; 
stroke-linecap:round; stroke-linejoin:round;">
<path d="M127.900000 113.350000
L127.900000 114.650000
" />
<path d="M136.100000 113.350000
L136.100000 114.650000
" />
<path style="fill:#D864FF; fill-opacity:0.400000; stroke:none;fill-rule:evenodd;"
d="M 129.250000,115.250000
129.250000,112.750000
130.750000,112.750000
130.750000,115.250000
Z" /> 
</g>
<g style="fill:none; 
stroke:#D864FF; stroke-width:1.500000; stroke-opacity:1; 
stroke-linecap:round; stroke-linejoin:round;">
<path d="M132.000000 113.500000
L132.000000 114.500000
" />
<path d="M134.000000 113.500000
L134.000000 114.500000
" />
<path style="fill:#D864FF; fill-opacity:0.400000; stroke:none;fill-rule:evenodd;"
d="M 131.214494,92.608425
131.118823,92.589395
131.037717,92.535202
130.983524,92.454096
130.964494,92.358425
130.964494,91.683425
130.983524,91.587754
131.037717,91.506648
131.118823,91.452455
131.214494,91.433425
132.164494,91.433425
132.260165,91.452455
132.341271,91.506648
132.395464,91.587754
132.414494,91.683425
132.414494,92.358425
132.395464,92.454096
132.341271,92.535202
132.260165,92.589395
132.164494,92.608425
Z" /> 
<path style="fill:#D864FF; fill-opacity:0.400000; stroke:none;fill-rule:evenodd;"
d="M 131.214494,90.533425
131.118823,90.514395
131.037717,90.460202
130.983524,90.379096
130.964494,90.283425
130.964494,89.608425
130.983524,89.512754
131.037717,89.431648
131.118823,89.377455
131.214494,89.358425
132.164494,89.358425
132.260165,89.377455
132.341271,89.431648
132.395464,89.512754
132.414494,89.608425
132.414494,90.283425
132.395464,90.379096
132.341271,90.460202
132.260165,90.514395
132.164494,90.533425
Z" /> 
<path style="fill:#D864FF; fill-opacity:0.400000; stroke:none;fill-rule:evenodd;"
d="M 135.600000,103.450000
135.580970,103.545671
135.526777,103.626777
135.445671,103.680970
135.350000,103.700000
134.650000,103.700000
134.554329,103.680970
134.473223,103.626777
134.419030,103.545671
134.400000,103.450000
134.400000,102.550000
134.419030,102.454329
134.473223,102.373223
134.554329,102.319030
134.650000,102.300000
135.350000,102.300000
135.445671,102.319030
135.526777,102.373223
135.580970,102.454329
135.600000,102.550000
Z" /> 
<path style="fill:#D864FF; fill-opacity:0.400000; stroke:none;fill-rule:evenodd;"
d="M 133.600000,103.450000
133.580970,103.545671
133.526777,103.626777
133.445671,103.680970
133.350000,103.700000
132.650000,103.700000
132.554329,103.680970
132.473223,103.626777
132.419030,103.545671
132.400000,103.450000
132.400000,102.550000
132.419030,102.454329
132.473223,102.373223
132.554329,102.319030
132.650000,102.300000
133.350000,102.300000
133.445671,102.319030
133.526777,102.373223
133.580970,102.454329
133.600000,102.550000
Z" /> 
<path style="fill:#D864FF; fill-opacity:0.400000; stroke:none;fill-rule:evenodd;"
d="M 147.600000,103.450000
147.580970,103.545671
147.526777,103.626777
147.445671,103.680970
147.350000,103.700000
146.650000,103.700000
146.554329,103.680970
146.473223,103.626777
146.419030,103.545671
146.400000,103.450000
146.400000,102.550000
146.419030,102.454329
146.473223,102.373223
146.554329,102.319030
146.650000,102.300000
147.350000,102.300000
147.445671,102.319030
147.526777,102.373223
147.580970,102.454329
147.600000,102.550000
Z" /> 
<path style="fill:#D864FF; fill-opacity:0.400000; stroke:none;fill-rule:evenodd;"
d="M 145.600000,103.450000
145.580970,103.545671
145.526777,103.626777
145.445671,103.680970
145.350000,103.700000
144.650000,103.700000
144.554329,103.680970
144.473223,103.626777
144.419030,103.545671
144.400000,103.450000
144.400000,102.550000
144.419030,102.454329
144.473223,102.373223
144.554329,102.319030
144.650000,102.300000
145.350000,102.300000
145.445671,102.319030
145.526777,102.373223
145.580970,102.454329
145.600000,102.550000
Z" /> 
<path style="fill:#D864FF; fill-opacity:0.400000; stroke:none;fill-rule:evenodd;"
d="M 132.400000,97.377500
132.419030,97.281829
132.473223,97.200723
132.554329,97.146530
132.650000,97.127500
133.350000,97.127500
133.445671,97.146530
133.526777,97.200723
133.580970,97.281829
133.600000,97.377500
133.600000,98.277500
133.580970,98.373171
133.526777,98.454277
133.445671,98.508470
133.350000,98.527500
132.650000,98.527500
132.554329,98.508470
132.473223,98.454277
132.419030,98.373171
132.400000,98.277500
Z" /> 
<path style="fill:#D864FF; fill-opacity:0.400000; stroke:none;fill-rule:evenodd;"
d="M 134.400000,97.377500
134.419030,97.281829
134.473223,97.200723
134.554329,97.146530
134.650000,97.127500
135.350000,97.127500
135.445671,97.146530
135.526777,97.200723
135.580970,97.281829
135.600000,97.377500
135.600000,98.277500
135.580970,98.373171
135.526777,98.454277
135.445671,98.508470
135.350000,98.527500
134.650000,98.527500
134.554329,98.508470
134.473223,98.454277
134.419030,98.373171
134.400000,98.277500
Z" /> 
<path style="fill:#D864FF; fill-opacity:0.400000; stroke:none;fill-rule:evenodd;"
d="M 135.600000,105.450000
135.580970,105.545671
135.526777,105.626777
135.445671,105.680970
135.350000,105.700000
134.650000,105.700000
134.554329,105.680970
134.473223,105.626777
134.419030,105.545671
134.400000,105.450000
134.400000,104.550000
134.419030,104.454329
134.473223,104.373223
134.554329,104.319030
134.650000,104.300000
135.350000,104.300000
135.445671,104.319030
135.526777,104.373223
135.580970,104.454329
135.600000,104.550000
Z" /> 
<path style="fill:#D864FF; fill-opacity:0.400000; stroke:none;fill-rule:evenodd;"
d="M 133.600000,105.450000
133.580970,105.545671
133.526777,105.626777
133.445671,105.680970
133.350000,105.700000
132.650000,105.700000
132.554329,105.680970
132.473223,105.626777
132.419030,105.545671
132.400000,105.450000
132.400000,104.550000
132.419030,104.454329
132.473223,104.373223
132.554329,104.319030
132.650000,104.300000
133.350000,104.300000
133.445671,104.319030
133.526777,104.373223
133.580970,104.454329
133.600000,104.550000
Z" /> 
</g>
<g style="fill:#D864FF; fill-opacity:0.400000; stroke:none;">
<circle cx="146.000000" cy="114.000000" r="0.720000" /> 
</g>
<g style="fill:#D864FF; fill-opacity:0.400000; stroke:none;">
<circle cx="143.460000" cy="114.000000" r="0.720000" /> 
</g>
<g style="fill:#D864FF; fill-opacity:0.400000; stroke:none;">
<circle cx="140.920000" cy="114.000000" r="0.720000" /> 
<path style="fill:#D864FF; fill-opacity:0.400000; stroke:none;fill-rule:evenodd;"
d="M 131.214494,88.608425
131.118823,88.589395
131.037717,88.535202
130.983524,88.454096
130.964494,88.358425
130.964494,87.683425
130.983524,87.587754
131.037717,87.506648
131.118823,87.452455
131.214494,87.433425
132.164494,87.433425
132.260165,87.452455
132.341271,87.506648
132.395464,87.587754
132.414494,87.683425
132.414494,88.358425
132.395464,88.454096
132.341271,88.535202
132.260165,88.589395
132.164494,88.608425
Z" /> 
<path style="fill:#D864FF; fill-opacity:0.400000; stroke:none;fill-rule:evenodd;"
d="M 131.214494,86.533425
131.118823,86.514395
131.037717,86.460202
130.983524,86.379096
130.964494,86.283425
130.964494,85.608425
130.983524,85.512754
131.037717,85.431648
131.118823,85.377455
131.214494,85.358425
132.164494,85.358425
132.260165,85.377455
132.341271,85.431648
132.395464,85.512754
132.414494,85.608425
132.414494,86.283425
132.395464,86.379096
132.341271,86.460202
132.260165,86.514395
132.164494,86.533425
Z" /> 
<path style="fill:#D864FF; fill-opacity:0.400000; stroke:none;fill-rule:evenodd;"
d="M 136.550000,102.040000
136.561418,101.982597
136.593934,101.933934
136.642597,101.901418
136.700000,101.890000
138.350000,101.890000
138.407403,101.901418
138.456066,101.933934
138.488582,101.982597
138.500000,102.040000
138.500000,102.340000
138.488582,102.397403
138.456066,102.446066
138.407403,102.478582
138.350000,102.490000
136.700000,102.490000
136.642597,102.478582
136.593934,102.446066
136.561418,102.397403
136.550000,102.340000
Z" /> 
<path style="fill:#D864FF; fill-opacity:0.400000; stroke:none;fill-rule:evenodd;"
d="M 136.550000,103.310000
136.561418,103.252597
136.593934,103.203934
136.642597,103.171418
136.700000,103.160000
138.350000,103.160000
138.407403,103.171418
138.456066,103.203934
138.488582,103.252597
138.500000,103.310000
138.500000,103.610000
138.488582,103.667403
138.456066,103.716066
138.407403,103.748582
138.350000,103.760000
136.700000,103.760000
136.642597,103.748582
136.593934,103.716066
136.561418,103.667403
136.550000,103.610000
Z" /> 
<path style="fill:#D864FF; fill-opacity:0.400000; stroke:none;fill-rule:evenodd;"
d="M 136.550000,104.580000
136.561418,104.522597
136.593934,104.473934
136.642597,104.441418
136.700000,104.430000
138.350000,104.430000
138.407403,104.441418
138.456066,104.473934
138.488582,104.522597
138.500000,104.580000
138.500000,104.880000
138.488582,104.937403
138.456066,104.986066
138.407403,105.018582
138.350000,105.030000
136.700000,105.030000
136.642597,105.018582
136.593934,104.986066
136.561418,104.937403
136.550000,104.880000
Z" /> 
<path style="fill:#D864FF; fill-opacity:0.400000; stroke:none;fill-rule:evenodd;"
d="M 136.550000,105.850000
136.561418,105.792597
136.593934,105.743934
136.642597,105.711418
136.700000,105.700000
138.350000,105.700000
138.407403,105.711418
138.456066,105.743934
138.488582,105.792597
138.500000,105.850000
138.500000,106.150000
138.488582,106.207403
138.456066,106.256066
138.407403,106.288582
138.350000,106.300000
136.700000,106.300000
136.642597,106.288582
136.593934,106.256066
136.561418,106.207403
136.550000,106.150000
Z" /> 
<path style="fill:#D864FF; fill-opacity:0.400000; stroke:none;fill-rule:evenodd;"
d="M 136.550000,107.120000
136.561418,107.062597
136.593934,107.013934
136.642597,106.981418
136.700000,106.970000
138.350000,106.970000
138.407403,106.981418
138.456066,107.013934
138.488582,107.062597
138.500000,107.120000
138.500000,107.420000
138.488582,107.477403
138.456066,107.526066
138.407403,107.558582
138.350000,107.570000
136.700000,107.570000
136.642597,107.558582
136.593934,107.526066
136.561418,107.477403
136.550000,107.420000
Z" /> 
<path style="fill:#D864FF; fill-opacity:0.400000; stroke:none;fill-rule:evenodd;"
d="M 136.550000,108.390000
136.561418,108.332597
136.593934,108.283934
136.642597,108.251418
136.700000,108.240000
138.350000,108.240000
138.407403,108.251418
138.456066,108.283934
138.488582,108.332597
138.500000,108.390000
138.500000,108.690000
138.488582,108.747403
138.456066,108.796066
138.407403,108.828582
138.350000,108.840000
136.700000,108.840000
136.642597,108.828582
136.593934,108.796066
136.561418,108.747403
136.550000,108.690000
Z" /> 
<path style="fill:#D864FF; fill-opacity:0.400000; stroke:none;fill-rule:evenodd;"
d="M 136.550000,109.660000
136.561418,109.602597
136.593934,109.553934
136.642597,109.521418
136.700000,109.510000
138.350000,109.510000
138.407403,109.521418
138.456066,109.553934
138.488582,109.602597
138.500000,109.660000
138.500000,109.960000
138.488582,110.017403
138.456066,110.066066
138.407403,110.098582
138.350000,110.110000
136.700000,110.110000
136.642597,110.098582
136.593934,110.066066
136.561418,110.017403
136.550000,109.960000
Z" /> 
<path style="fill:#D864FF; fill-opacity:0.400000; stroke:none;fill-rule:evenodd;"
d="M 141.500000,109.660000
141.511418,109.602597
141.543934,109.553934
141.592597,109.521418
141.650000,109.510000
143.300000,109.510000
143.357403,109.521418
143.406066,109.553934
143.438582,109.602597
143.450000,109.660000
143.450000,109.960000
143.438582,110.017403
143.406066,110.066066
143.357403,110.098582
143.300000,110.110000
141.650000,110.110000
141.592597,110.098582
141.543934,110.066066
141.511418,110.017403
141.500000,109.960000
Z" /> 
<path style="fill:#D864FF; fill-opacity:0.400000; stroke:none;fill-rule:evenodd;"
d="M 141.500000,108.390000
141.511418,108.332597
141.543934,108.283934
141.592597,108.251418
141.650000,108.240000
143.300000,108.240000
143.357403,108.251418
143.406066,108.283934
143.438582,108.332597
143.450000,108.390000
143.450000,108.690000
143.438582,108.747403
143.406066,108.796066
143.357403,108.828582
143.300000,108.840000
141.650000,108.840000
141.592597,108.828582
141.543934,108.796066
141.511418,108.747403
141.500000,108.690000
Z" /> 
<path style="fill:#D864FF; fill-opacity:0.400000; stroke:none;fill-rule:evenodd;"
d="M 141.500000,107.120000
141.511418,107.062597
141.543934,107.013934
141.592597,106.981418
141.650000,106.970000
143.300000,106.970000
143.357403,106.981418
143.406066,107.013934
143.438582,107.062597
143.450000,107.120000
143.450000,107.420000
143.438582,107.477403
143.406066,107.526066
143.357403,107.558582
143.300000,107.570000
141.650000,107.570000
141.592597,107.558582
141.543934,107.526066
141.511418,107.477403
141.500000,107.420000
Z" /> 
<path style="fill:#D864FF; fill-opacity:0.400000; stroke:none;fill-rule:evenodd;"
d="M 141.500000,105.850000
141.511418,105.792597
141.543934,105.743934
141.592597,105.711418
141.650000,105.700000
143.300000,105.700000
143.357403,105.711418
143.406066,105.743934
143.438582,105.792597
143.450000,105.850000
143.450000,106.150000
143.438582,106.207403
143.406066,106.256066
143.357403,106.288582
143.300000,106.300000
141.650000,106.300000
141.592597,106.288582
141.543934,106.256066
141.511418,106.207403
141.500000,106.150000
Z" /> 
<path style="fill:#D864FF; fill-opacity:0.400000; stroke:none;fill-rule:evenodd;"
d="M 141.500000,104.580000
141.511418,104.522597
141.543934,104.473934
141.592597,104.441418
141.650000,104.430000
143.300000,104.430000
143.357403,104.441418
143.406066,104.473934
143.438582,104.522597
143.450000,104.580000
143.450000,104.880000
143.438582,104.937403
143.406066,104.986066
143.357403,105.018582
143.300000,105.030000
141.650000,105.030000
141.592597,105.018582
141.543934,104.986066
141.511418,104.937403
141.500000,104.880000
Z" /> 
<path style="fill:#D864FF; fill-opacity:0.400000; stroke:none;fill-rule:evenodd;"
d="M 141.500000,103.310000
141.511418,103.252597
141.543934,103.203934
141.592597,103.171418
141.650000,103.160000
143.300000,103.160000
143.357403,103.171418
143.406066,103.203934
143.438582,103.252597
143.450000,103.310000
143.450000,103.610000
143.438582,103.667403
143.406066,103.716066
143.357403,103.748582
143.300000,103.760000
141.650000,103.760000
141.592597,103.748582
141.543934,103.716066
141.511418,103.667403
141.500000,103.610000
Z" /> 
<path style="fill:#D864FF; fill-opacity:0.400000; stroke:none;fill-rule:evenodd;"
d="M 141.500000,102.040000
141.511418,101.982597
141.543934,101.933934
141.592597,101.901418
141.650000,101.890000
143.300000,101.890000
143.357403,101.901418
143.406066,101.933934
143.438582,101.982597
143.450000,102.040000
143.450000,102.340000
143.438582,102.397403
143.406066,102.446066
143.357403,102.478582
143.300000,102.490000
141.650000,102.490000
141.592597,102.478582
141.543934,102.446066
141.511418,102.397403
141.500000,102.340000
Z" /> 
<path style="fill:#D864FF; fill-opacity:0.400000; stroke:none;fill-rule:evenodd;"
d="M 132.400000,95.377500
132.419030,95.281829
132.473223,95.200723
132.554329,95.146530
132.650000,95.127500
133.350000,95.127500
133.445671,95.146530
133.526777,95.200723
133.580970,95.281829
133.600000,95.377500
133.600000,96.277500
133.580970,96.373171
133.526777,96.454277
133.445671,96.508470
133.350000,96.527500
132.650000,96.527500
132.554329,96.508470
132.473223,96.454277
132.419030,96.373171
132.400000,96.277500
Z" /> 
<path style="fill:#D864FF; fill-opacity:0.400000; stroke:none;fill-rule:evenodd;"
d="M 134.400000,95.377500
134.419030,95.281829
134.473223,95.200723
134.554329,95.146530
134.650000,95.127500
135.350000,95.127500
135.445671,95.146530
135.526777,95.200723
135.580970,95.281829
135.600000,95.377500
135.600000,96.277500
135.580970,96.373171
135.526777,96.454277
135.445671,96.508470
135.350000,96.527500
134.650000,96.527500
134.554329,96.508470
134.473223,96.454277
134.419030,96.373171
134.400000,96.277500
Z" /> 
</g>
<g style="fill:#D864FF; fill-opacity:0.400000; stroke:none;">
<circle cx="122.000000" cy="115.000000" r="1.050000" /> 
<path style="fill:#D864FF; fill-opacity:0.400000; stroke:none;fill-rule:evenodd;"
d="M 128.625000,105.475000
128.605970,105.570671
128.551777,105.651777
128.470671,105.705970
128.375000,105.725000
127.700000,105.725000
127.604329,105.705970
127.523223,105.651777
127.469030,105.570671
127.450000,105.475000
127.450000,104.525000
127.469030,104.429329
127.523223,104.348223
127.604329,104.294030
127.700000,104.275000
128.375000,104.275000
128.470671,104.294030
128.551777,104.348223
128.605970,104.429329
128.625000,104.525000
Z" /> 
<path style="fill:#D864FF; fill-opacity:0.400000; stroke:none;fill-rule:evenodd;"
d="M 126.550000,105.475000
126.530970,105.570671
126.476777,105.651777
126.395671,105.705970
126.300000,105.725000
125.625000,105.725000
125.529329,105.705970
125.448223,105.651777
125.394030,105.570671
125.375000,105.475000
125.375000,104.525000
125.394030,104.429329
125.448223,104.348223
125.529329,104.294030
125.625000,104.275000
126.300000,104.275000
126.395671,104.294030
126.476777,104.348223
126.530970,104.429329
126.550000,104.525000
Z" /> 
<path style="fill:#D864FF; fill-opacity:0.400000; stroke:none;fill-rule:evenodd;"
d="M 144.681109,84.537783
144.700139,84.442112
144.754332,84.361006
144.835438,84.306813
144.931109,84.287783
145.631109,84.287783
145.726780,84.306813
145.807886,84.361006
145.862079,84.442112
145.881109,84.537783
145.881109,85.437783
145.862079,85.533454
145.807886,85.614560
145.726780,85.668753
145.631109,85.687783
144.931109,85.687783
144.835438,85.668753
144.754332,85.614560
144.700139,85.533454
144.681109,85.437783
Z" /> 
<path style="fill:#D864FF; fill-opacity:0.400000; stroke:none;fill-rule:evenodd;"
d="M 146.681109,84.537783
146.700139,84.442112
146.754332,84.361006
146.835438,84.306813
146.931109,84.287783
147.631109,84.287783
147.726780,84.306813
147.807886,84.361006
147.862079,84.442112
147.881109,84.537783
147.881109,85.437783
147.862079,85.533454
147.807886,85.614560
147.726780,85.668753
147.631109,85.687783
146.931109,85.687783
146.835438,85.668753
146.754332,85.614560
146.700139,85.533454
146.681109,85.437783
Z" /> 
<path style="fill:#D864FF; fill-opacity:0.400000; stroke:none;fill-rule:evenodd;"
d="M 144.400000,97.377500
144.419030,97.281829
144.473223,97.200723
144.554329,97.146530
144.650000,97.127500
145.350000,97.127500
145.445671,97.146530
145.526777,97.200723
145.580970,97.281829
145.600000,97.377500
145.600000,98.277500
145.580970,98.373171
145.526777,98.454277
145.445671,98.508470
145.350000,98.527500
144.650000,98.527500
144.554329,98.508470
144.473223,98.454277
144.419030,98.373171
144.400000,98.277500
Z" /> 
<path style="fill:#D864FF; fill-opacity:0.400000; stroke:none;fill-rule:evenodd;"
d="M 146.400000,97.377500
146.419030,97.281829
146.473223,97.200723
146.554329,97.146530
146.650000,97.127500
147.350000,97.127500
147.445671,97.146530
147.526777,97.200723
147.580970,97.281829
147.600000,97.377500
147.600000,98.277500
147.580970,98.373171
147.526777,98.454277
147.445671,98.508470
147.350000,98.527500
146.650000,98.527500
146.554329,98.508470
146.473223,98.454277
146.419030,98.373171
146.400000,98.277500
Z" /> 
<path style="fill:#D864FF; fill-opacity:0.400000; stroke:none;fill-rule:evenodd;"
d="M 151.337500,106.525000
151.356530,106.429329
151.410723,106.348223
151.491829,106.294030
151.587500,106.275000
152.262500,106.275000
152.358171,106.294030
152.439277,106.348223
152.493470,106.429329
152.512500,106.525000
152.512500,107.475000
152.493470,107.570671
152.439277,107.651777
152.358171,107.705970
152.262500,107.725000
151.587500,107.725000
151.491829,107.705970
151.410723,107.651777
151.356530,107.570671
151.337500,107.475000
Z" /> 
<path style="fill:#D864FF; fill-opacity:0.400000; stroke:none;fill-rule:evenodd;"
d="M 153.412500,106.525000
153.431530,106.429329
153.485723,106.348223
153.566829,106.294030
153.662500,106.275000
154.337500,106.275000
154.433171,106.294030
154.514277,106.348223
154.568470,106.429329
154.587500,106.525000
154.587500,107.475000
154.568470,107.570671
154.514277,107.651777
154.433171,107.705970
154.337500,107.725000
153.662500,107.725000
153.566829,107.705970
153.485723,107.651777
153.431530,107.570671
153.412500,107.475000
Z" /> 
</g>
<g style="fill:#D864FF; fill-opacity:0.400000; stroke:none;">
<circle cx="122.000000" cy="79.000000" r="1.050000" /> 
<path style="fill:#D864FF; fill-opacity:0.400000; stroke:none;fill-rule:evenodd;"
d="M 125.375000,102.525000
125.394030,102.429329
125.448223,102.348223
125.529329,102.294030
125.625000,102.275000
126.300000,102.275000
126.395671,102.294030
126.476777,102.348223
126.530970,102.429329
126.550000,102.525000
126.550000,103.475000
126.530970,103.570671
126.476777,103.651777
126.395671,103.705970
126.300000,103.725000
125.625000,103.725000
125.529329,103.705970
125.448223,103.651777
125.394030,103.570671
125.375000,103.475000
Z" /> 
<path style="fill:#D864FF; fill-opacity:0.400000; stroke:none;fill-rule:evenodd;"
d="M 127.450000,102.525000
127.469030,102.429329
127.523223,102.348223
127.604329,102.294030
127.700000,102.275000
128.375000,102.275000
128.470671,102.294030
128.551777,102.348223
128.605970,102.429329
128.625000,102.525000
128.625000,103.475000
128.605970,103.570671
128.551777,103.651777
128.470671,103.705970
128.375000,103.725000
127.700000,103.725000
127.604329,103.705970
127.523223,103.651777
127.469030,103.570671
127.450000,103.475000
Z" /> 
<path style="fill:#D864FF; fill-opacity:0.400000; stroke:none;fill-rule:evenodd;"
d="M 153.625000,98.302500
153.605970,98.398171
153.551777,98.479277
153.470671,98.533470
153.375000,98.552500
152.700000,98.552500
152.604329,98.533470
152.523223,98.479277
152.469030,98.398171
152.450000,98.302500
152.450000,97.352500
152.469030,97.256829
152.523223,97.175723
152.604329,97.121530
152.700000,97.102500
153.375000,97.102500
153.470671,97.121530
153.551777,97.175723
153.605970,97.256829
153.625000,97.352500
Z" /> 
<path style="fill:#D864FF; fill-opacity:0.400000; stroke:none;fill-rule:evenodd;"
d="M 151.550000,98.302500
151.530970,98.398171
151.476777,98.479277
151.395671,98.533470
151.300000,98.552500
150.625000,98.552500
150.529329,98.533470
150.448223,98.479277
150.394030,98.398171
150.375000,98.302500
150.375000,97.352500
150.394030,97.256829
150.448223,97.175723
150.529329,97.121530
150.625000,97.102500
151.300000,97.102500
151.395671,97.121530
151.476777,97.175723
151.530970,97.256829
151.550000,97.352500
Z" /> 
<path style="fill:#D864FF; fill-opacity:0.400000; stroke:none;fill-rule:evenodd;"
d="M 151.551708,89.129851
151.570738,89.034180
151.624931,88.953074
151.706037,88.898881
151.801708,88.879851
152.476708,88.879851
152.572379,88.898881
152.653485,88.953074
152.707678,89.034180
152.726708,89.129851
152.726708,90.079851
152.707678,90.175522
152.653485,90.256628
152.572379,90.310821
152.476708,90.329851
151.801708,90.329851
151.706037,90.310821
151.624931,90.256628
151.570738,90.175522
151.551708,90.079851
Z" /> 
<path style="fill:#D864FF; fill-opacity:0.400000; stroke:none;fill-rule:evenodd;"
d="M 153.626708,89.129851
153.645738,89.034180
153.699931,88.953074
153.781037,88.898881
153.876708,88.879851
154.551708,88.879851
154.647379,88.898881
154.728485,88.953074
154.782678,89.034180
154.801708,89.129851
154.801708,90.079851
154.782678,90.175522
154.728485,90.256628
154.647379,90.310821
154.551708,90.329851
153.876708,90.329851
153.781037,90.310821
153.699931,90.256628
153.645738,90.175522
153.626708,90.079851
Z" /> 
</g>
<g style="fill:#D864FF; fill-opacity:0.400000; stroke:none;">
<circle cx="158.000000" cy="79.000000" r="1.050000" /> 
<path style="fill:#D864FF; fill-opacity:0.400000; stroke:none;fill-rule:evenodd;"
d="M 144.400000,95.377500
144.419030,95.281829
144.473223,95.200723
144.554329,95.146530
144.650000,95.127500
145.350000,95.127500
145.445671,95.146530
145.526777,95.200723
145.580970,95.281829
145.600000,95.377500
145.600000,96.277500
145.580970,96.373171
145.526777,96.454277
145.445671,96.508470
145.350000,96.527500
144.650000,96.527500
144.554329,96.508470
144.473223,96.454277
144.419030,96.373171
144.400000,96.277500
Z" /> 
<path style="fill:#D864FF; fill-opacity:0.400000; stroke:none;fill-rule:evenodd;"
d="M 146.400000,95.377500
146.419030,95.281829
146.473223,95.200723
146.554329,95.146530
146.650000,95.127500
147.350000,95.127500
147.445671,95.146530
147.526777,95.200723
147.580970,95.281829
147.600000,95.377500
147.600000,96.277500
147.580970,96.373171
147.526777,96.454277
147.445671,96.508470
147.350000,96.527500
146.650000,96.527500
146.554329,96.508470
146.473223,96.454277
146.419030,96.373171
146.400000,96.277500
Z" /> 
<path style="fill:#D864FF; fill-opacity:0.400000; stroke:none;fill-rule:evenodd;"
d="M 134.239494,92.583425
134.143823,92.564395
134.062717,92.510202
134.008524,92.429096
133.989494,92.333425
133.989494,91.633425
134.008524,91.537754
134.062717,91.456648
134.143823,91.402455
134.239494,91.383425
135.139494,91.383425
135.235165,91.402455
135.316271,91.456648
135.370464,91.537754
135.389494,91.633425
135.389494,92.333425
135.370464,92.429096
135.316271,92.510202
135.235165,92.564395
135.139494,92.583425
Z" /> 
<path style="fill:#D864FF; fill-opacity:0.400000; stroke:none;fill-rule:evenodd;"
d="M 134.239494,90.583425
134.143823,90.564395
134.062717,90.510202
134.008524,90.429096
133.989494,90.333425
133.989494,89.633425
134.008524,89.537754
134.062717,89.456648
134.143823,89.402455
134.239494,89.383425
135.139494,89.383425
135.235165,89.402455
135.316271,89.456648
135.370464,89.537754
135.389494,89.633425
135.389494,90.333425
135.370464,90.429096
135.316271,90.510202
135.235165,90.564395
135.139494,90.583425
Z" /> 
<path style="fill:#D864FF; fill-opacity:0.400000; stroke:none;fill-rule:evenodd;"
d="M 154.587500,103.475000
154.568470,103.570671
154.514277,103.651777
154.433171,103.705970
154.337500,103.725000
153.662500,103.725000
153.566829,103.705970
153.485723,103.651777
153.431530,103.570671
153.412500,103.475000
153.412500,102.525000
153.431530,102.429329
153.485723,102.348223
153.566829,102.294030
153.662500,102.275000
154.337500,102.275000
154.433171,102.294030
154.514277,102.348223
154.568470,102.429329
154.587500,102.525000
Z" /> 
<path style="fill:#D864FF; fill-opacity:0.400000; stroke:none;fill-rule:evenodd;"
d="M 152.512500,103.475000
152.493470,103.570671
152.439277,103.651777
152.358171,103.705970
152.262500,103.725000
151.587500,103.725000
151.491829,103.705970
151.410723,103.651777
151.356530,103.570671
151.337500,103.475000
151.337500,102.525000
151.356530,102.429329
151.410723,102.348223
151.491829,102.294030
151.587500,102.275000
152.262500,102.275000
152.358171,102.294030
152.439277,102.348223
152.493470,102.429329
152.512500,102.525000
Z" /> 
<path style="fill:#D864FF; fill-opacity:0.400000; stroke:none;fill-rule:evenodd;"
d="M 144.660200,89.124851
144.679230,89.029180
144.733423,88.948074
144.814529,88.893881
144.910200,88.874851
145.610200,88.874851
145.705871,88.893881
145.786977,88.948074
145.841170,89.029180
145.860200,89.124851
145.860200,90.024851
145.841170,90.120522
145.786977,90.201628
145.705871,90.255821
145.610200,90.274851
144.910200,90.274851
144.814529,90.255821
144.733423,90.201628
144.679230,90.120522
144.660200,90.024851
Z" /> 
<path style="fill:#D864FF; fill-opacity:0.400000; stroke:none;fill-rule:evenodd;"
d="M 146.660200,89.124851
146.679230,89.029180
146.733423,88.948074
146.814529,88.893881
146.910200,88.874851
147.610200,88.874851
147.705871,88.893881
147.786977,88.948074
147.841170,89.029180
147.860200,89.124851
147.860200,90.024851
147.841170,90.120522
147.786977,90.201628
147.705871,90.255821
147.610200,90.274851
146.910200,90.274851
146.814529,90.255821
146.733423,90.201628
146.679230,90.120522
146.660200,90.024851
Z" /> 
<path style="fill:#D864FF; fill-opacity:0.400000; stroke:none;fill-rule:evenodd;"
d="M 136.575000,87.617500
136.586418,87.560097
136.618934,87.511434
136.667597,87.478918
136.725000,87.467500
138.375000,87.467500
138.432403,87.478918
138.481066,87.511434
138.513582,87.560097
138.525000,87.617500
138.525000,87.917500
138.513582,87.974903
138.481066,88.023566
138.432403,88.056082
138.375000,88.067500
136.725000,88.067500
136.667597,88.056082
136.618934,88.023566
136.586418,87.974903
136.575000,87.917500
Z" /> 
<path style="fill:#D864FF; fill-opacity:0.400000; stroke:none;fill-rule:evenodd;"
d="M 136.575000,88.887500
136.586418,88.830097
136.618934,88.781434
136.667597,88.748918
136.725000,88.737500
138.375000,88.737500
138.432403,88.748918
138.481066,88.781434
138.513582,88.830097
138.525000,88.887500
138.525000,89.187500
138.513582,89.244903
138.481066,89.293566
138.432403,89.326082
138.375000,89.337500
136.725000,89.337500
136.667597,89.326082
136.618934,89.293566
136.586418,89.244903
136.575000,89.187500
Z" /> 
<path style="fill:#D864FF; fill-opacity:0.400000; stroke:none;fill-rule:evenodd;"
d="M 136.575000,90.157500
136.586418,90.100097
136.618934,90.051434
136.667597,90.018918
136.725000,90.007500
138.375000,90.007500
138.432403,90.018918
138.481066,90.051434
138.513582,90.100097
138.525000,90.157500
138.525000,90.457500
138.513582,90.514903
138.481066,90.563566
138.432403,90.596082
138.375000,90.607500
136.725000,90.607500
136.667597,90.596082
136.618934,90.563566
136.586418,90.514903
136.575000,90.457500
Z" /> 
<path style="fill:#D864FF; fill-opacity:0.400000; stroke:none;fill-rule:evenodd;"
d="M 136.575000,91.427500
136.586418,91.370097
136.618934,91.321434
136.667597,91.288918
136.725000,91.277500
138.375000,91.277500
138.432403,91.288918
138.481066,91.321434
138.513582,91.370097
138.525000,91.427500
138.525000,91.727500
138.513582,91.784903
138.481066,91.833566
138.432403,91.866082
138.375000,91.877500
136.725000,91.877500
136.667597,91.866082
136.618934,91.833566
136.586418,91.784903
136.575000,91.727500
Z" /> 
<path style="fill:#D864FF; fill-opacity:0.400000; stroke:none;fill-rule:evenodd;"
d="M 141.525000,91.427500
141.536418,91.370097
141.568934,91.321434
141.617597,91.288918
141.675000,91.277500
143.325000,91.277500
143.382403,91.288918
143.431066,91.321434
143.463582,91.370097
143.475000,91.427500
143.475000,91.727500
143.463582,91.784903
143.431066,91.833566
143.382403,91.866082
143.325000,91.877500
141.675000,91.877500
141.617597,91.866082
141.568934,91.833566
141.536418,91.784903
141.525000,91.727500
Z" /> 
<path style="fill:#D864FF; fill-opacity:0.400000; stroke:none;fill-rule:evenodd;"
d="M 141.525000,90.157500
141.536418,90.100097
141.568934,90.051434
141.617597,90.018918
141.675000,90.007500
143.325000,90.007500
143.382403,90.018918
143.431066,90.051434
143.463582,90.100097
143.475000,90.157500
143.475000,90.457500
143.463582,90.514903
143.431066,90.563566
143.382403,90.596082
143.325000,90.607500
141.675000,90.607500
141.617597,90.596082
141.568934,90.563566
141.536418,90.514903
141.525000,90.457500
Z" /> 
<path style="fill:#D864FF; fill-opacity:0.400000; stroke:none;fill-rule:evenodd;"
d="M 141.525000,88.887500
141.536418,88.830097
141.568934,88.781434
141.617597,88.748918
141.675000,88.737500
143.325000,88.737500
143.382403,88.748918
143.431066,88.781434
143.463582,88.830097
143.475000,88.887500
143.475000,89.187500
143.463582,89.244903
143.431066,89.293566
143.382403,89.326082
143.325000,89.337500
141.675000,89.337500
141.617597,89.326082
141.568934,89.293566
141.536418,89.244903
141.525000,89.187500
Z" /> 
<path style="fill:#D864FF; fill-opacity:0.400000; stroke:none;fill-rule:evenodd;"
d="M 141.525000,87.617500
141.536418,87.560097
141.568934,87.511434
141.617597,87.478918
141.675000,87.467500
143.325000,87.467500
143.382403,87.478918
143.431066,87.511434
143.463582,87.560097
143.475000,87.617500
143.475000,87.917500
143.463582,87.974903
143.431066,88.023566
143.382403,88.056082
143.325000,88.067500
141.675000,88.067500
141.617597,88.056082
141.568934,88.023566
141.536418,87.974903
141.525000,87.917500
Z" /> 
<path style="fill:#D864FF; fill-opacity:0.400000; stroke:none;fill-rule:evenodd;"
d="M 147.600000,105.450000
147.580970,105.545671
147.526777,105.626777
147.445671,105.680970
147.350000,105.700000
146.650000,105.700000
146.554329,105.680970
146.473223,105.626777
146.419030,105.545671
146.400000,105.450000
146.400000,104.550000
146.419030,104.454329
146.473223,104.373223
146.554329,104.319030
146.650000,104.300000
147.350000,104.300000
147.445671,104.319030
147.526777,104.373223
147.580970,104.454329
147.600000,104.550000
Z" /> 
<path style="fill:#D864FF; fill-opacity:0.400000; stroke:none;fill-rule:evenodd;"
d="M 145.600000,105.450000
145.580970,105.545671
145.526777,105.626777
145.445671,105.680970
145.350000,105.700000
144.650000,105.700000
144.554329,105.680970
144.473223,105.626777
144.419030,105.545671
144.400000,105.450000
144.400000,104.550000
144.419030,104.454329
144.473223,104.373223
144.554329,104.319030
144.650000,104.300000
145.350000,104.300000
145.445671,104.319030
145.526777,104.373223
145.580970,104.454329
145.600000,104.550000
Z" /> 
<path style="fill:#D864FF; fill-opacity:0.400000; stroke:none;fill-rule:evenodd;"
d="M 143.800000,78.375001
143.819030,78.279330
143.873224,78.198224
143.954330,78.144030
144.050002,78.125001
144.974999,78.125000
145.070670,78.144030
145.151776,78.198224
145.205970,78.279330
145.224999,78.375002
145.225000,79.624999
145.205970,79.720670
145.151776,79.801776
145.070670,79.855970
144.974998,79.874999
144.050001,79.875000
143.954330,79.855970
143.873224,79.801776
143.819030,79.720670
143.800001,79.624998
Z" /> 
<path style="fill:#D864FF; fill-opacity:0.400000; stroke:none;fill-rule:evenodd;"
d="M 146.775000,78.375001
146.794030,78.279330
146.848224,78.198224
146.929330,78.144030
147.025002,78.125001
147.949999,78.125000
148.045670,78.144030
148.126776,78.198224
148.180970,78.279330
148.199999,78.375002
148.200000,79.624999
148.180970,79.720670
148.126776,79.801776
148.045670,79.855970
147.949998,79.874999
147.025001,79.875000
146.929330,79.855970
146.848224,79.801776
146.794030,79.720670
146.775001,79.624998
Z" /> 
<path style="fill:#D864FF; fill-opacity:0.400000; stroke:none;fill-rule:evenodd;"
d="M 147.600000,107.450000
147.580970,107.545671
147.526777,107.626777
147.445671,107.680970
147.350000,107.700000
146.650000,107.700000
146.554329,107.680970
146.473223,107.626777
146.419030,107.545671
146.400000,107.450000
146.400000,106.550000
146.419030,106.454329
146.473223,106.373223
146.554329,106.319030
146.650000,106.300000
147.350000,106.300000
147.445671,106.319030
147.526777,106.373223
147.580970,106.454329
147.600000,106.550000
Z" /> 
<path style="fill:#D864FF; fill-opacity:0.400000; stroke:none;fill-rule:evenodd;"
d="M 145.600000,107.450000
145.580970,107.545671
145.526777,107.626777
145.445671,107.680970
145.350000,107.700000
144.650000,107.700000
144.554329,107.680970
144.473223,107.626777
144.419030,107.545671
144.400000,107.450000
144.400000,106.550000
144.419030,106.454329
144.473223,106.373223
144.554329,106.319030
144.650000,106.300000
145.350000,106.300000
145.445671,106.319030
145.526777,106.373223
145.580970,106.454329
145.600000,106.550000
Z" /> 
<path style="fill:#D864FF; fill-opacity:0.400000; stroke:none;fill-rule:evenodd;"
d="M 154.587500,105.475000
154.568470,105.570671
154.514277,105.651777
154.433171,105.705970
154.337500,105.725000
153.662500,105.725000
153.566829,105.705970
153.485723,105.651777
153.431530,105.570671
153.412500,105.475000
153.412500,104.525000
153.431530,104.429329
153.485723,104.348223
153.566829,104.294030
153.662500,104.275000
154.337500,104.275000
154.433171,104.294030
154.514277,104.348223
154.568470,104.429329
154.587500,104.525000
Z" /> 
<path style="fill:#D864FF; fill-opacity:0.400000; stroke:none;fill-rule:evenodd;"
d="M 152.512500,105.475000
152.493470,105.570671
152.439277,105.651777
152.358171,105.705970
152.262500,105.725000
151.587500,105.725000
151.491829,105.705970
151.410723,105.651777
151.356530,105.570671
151.337500,105.475000
151.337500,104.525000
151.356530,104.429329
151.410723,104.348223
151.491829,104.294030
151.587500,104.275000
152.262500,104.275000
152.358171,104.294030
152.439277,104.348223
152.493470,104.429329
152.512500,104.525000
Z" /> 
<path style="fill:#D864FF; fill-opacity:0.400000; stroke:none;fill-rule:evenodd;"
d="M 132.400000,108.550000
132.419030,108.454329
132.473223,108.373223
132.554329,108.319030
132.650000,108.300000
133.350000,108.300000
133.445671,108.319030
133.526777,108.373223
133.580970,108.454329
133.600000,108.550000
133.600000,109.450000
133.580970,109.545671
133.526777,109.626777
133.445671,109.680970
133.350000,109.700000
132.650000,109.700000
132.554329,109.680970
132.473223,109.626777
132.419030,109.545671
132.400000,109.450000
Z" /> 
<path style="fill:#D864FF; fill-opacity:0.400000; stroke:none;fill-rule:evenodd;"
d="M 134.400000,108.550000
134.419030,108.454329
134.473223,108.373223
134.554329,108.319030
134.650000,108.300000
135.350000,108.300000
135.445671,108.319030
135.526777,108.373223
135.580970,108.454329
135.600000,108.550000
135.600000,109.450000
135.580970,109.545671
135.526777,109.626777
135.445671,109.680970
135.350000,109.700000
134.650000,109.700000
134.554329,109.680970
134.473223,109.626777
134.419030,109.545671
134.400000,109.450000
Z" /> 
<path style="fill:#D864FF; fill-opacity:0.400000; stroke:none;fill-rule:evenodd;"
d="M 151.337500,108.525000
151.356530,108.429329
151.410723,108.348223
151.491829,108.294030
151.587500,108.275000
152.262500,108.275000
152.358171,108.294030
152.439277,108.348223
152.493470,108.429329
152.512500,108.525000
152.512500,109.475000
152.493470,109.570671
152.439277,109.651777
152.358171,109.705970
152.262500,109.725000
151.587500,109.725000
151.491829,109.705970
151.410723,109.651777
151.356530,109.570671
151.337500,109.475000
Z" /> 
<path style="fill:#D864FF; fill-opacity:0.400000; stroke:none;fill-rule:evenodd;"
d="M 153.412500,108.525000
153.431530,108.429329
153.485723,108.348223
153.566829,108.294030
153.662500,108.275000
154.337500,108.275000
154.433171,108.294030
154.514277,108.348223
154.568470,108.429329
154.587500,108.525000
154.587500,109.475000
154.568470,109.570671
154.514277,109.651777
154.433171,109.705970
154.337500,109.725000
153.662500,109.725000
153.566829,109.705970
153.485723,109.651777
153.431530,109.570671
153.412500,109.475000
Z" /> 
<path style="fill:#D864FF; fill-opacity:0.400000; stroke:none;fill-rule:evenodd;"
d="M 124.550000,84.808818
124.645671,84.827848
124.726777,84.882041
124.780970,84.963147
124.800000,85.058818
124.800000,88.058818
124.780970,88.154489
124.726777,88.235595
124.645671,88.289788
124.550000,88.308818
123.450000,88.308818
123.354329,88.289788
123.273223,88.235595
123.219030,88.154489
123.200000,88.058818
123.200000,85.058818
123.219030,84.963147
123.273223,84.882041
123.354329,84.827848
123.450000,84.808818
Z" /> 
<path style="fill:#D864FF; fill-opacity:0.400000; stroke:none;fill-rule:evenodd;"
d="M 124.550000,90.408818
124.645671,90.427848
124.726777,90.482041
124.780970,90.563147
124.800000,90.658818
124.800000,93.658818
124.780970,93.754489
124.726777,93.835595
124.645671,93.889788
124.550000,93.908818
123.450000,93.908818
123.354329,93.889788
123.273223,93.835595
123.219030,93.754489
123.200000,93.658818
123.200000,90.658818
123.219030,90.563147
123.273223,90.482041
123.354329,90.427848
123.450000,90.408818
Z" /> 
<path style="fill:#D864FF; fill-opacity:0.400000; stroke:none;fill-rule:evenodd;"
d="M 134.239494,88.583425
134.143823,88.564395
134.062717,88.510202
134.008524,88.429096
133.989494,88.333425
133.989494,87.633425
134.008524,87.537754
134.062717,87.456648
134.143823,87.402455
134.239494,87.383425
135.139494,87.383425
135.235165,87.402455
135.316271,87.456648
135.370464,87.537754
135.389494,87.633425
135.389494,88.333425
135.370464,88.429096
135.316271,88.510202
135.235165,88.564395
135.139494,88.583425
Z" /> 
<path style="fill:#D864FF; fill-opacity:0.400000; stroke:none;fill-rule:evenodd;"
d="M 134.239494,86.583425
134.143823,86.564395
134.062717,86.510202
134.008524,86.429096
133.989494,86.333425
133.989494,85.633425
134.008524,85.537754
134.062717,85.456648
134.143823,85.402455
134.239494,85.383425
135.139494,85.383425
135.235165,85.402455
135.316271,85.456648
135.370464,85.537754
135.389494,85.633425
135.389494,86.333425
135.370464,86.429096
135.316271,86.510202
135.235165,86.564395
135.139494,86.583425
Z" /> 
<path style="fill:#D864FF; fill-opacity:0.400000; stroke:none;fill-rule:evenodd;"
d="M 150.337500,95.352500
150.356530,95.256829
150.410723,95.175723
150.491829,95.121530
150.587500,95.102500
151.262500,95.102500
151.358171,95.121530
151.439277,95.175723
151.493470,95.256829
151.512500,95.352500
151.512500,96.302500
151.493470,96.398171
151.439277,96.479277
151.358171,96.533470
151.262500,96.552500
150.587500,96.552500
150.491829,96.533470
150.410723,96.479277
150.356530,96.398171
150.337500,96.302500
Z" /> 
<path style="fill:#D864FF; fill-opacity:0.400000; stroke:none;fill-rule:evenodd;"
d="M 152.412500,95.352500
152.431530,95.256829
152.485723,95.175723
152.566829,95.121530
152.662500,95.102500
153.337500,95.102500
153.433171,95.121530
153.514277,95.175723
153.568470,95.256829
153.587500,95.352500
153.587500,96.302500
153.568470,96.398171
153.514277,96.479277
153.433171,96.533470
153.337500,96.552500
152.662500,96.552500
152.566829,96.533470
152.485723,96.479277
152.431530,96.398171
152.412500,96.302500
Z" /> 
<path style="fill:#D864FF; fill-opacity:0.400000; stroke:none;fill-rule:evenodd;"
d="M 125.375000,106.525000
125.394030,106.429329
125.448223,106.348223
125.529329,106.294030
125.625000,106.275000
126.300000,106.275000
126.395671,106.294030
126.476777,106.348223
126.530970,106.429329
126.550000,106.525000
126.550000,107.475000
126.530970,107.570671
126.476777,107.651777
126.395671,107.705970
126.300000,107.725000
125.625000,107.725000
125.529329,107.705970
125.448223,107.651777
125.394030,107.570671
125.375000,107.475000
Z" /> 
<path style="fill:#D864FF; fill-opacity:0.400000; stroke:none;fill-rule:evenodd;"
d="M 127.450000,106.525000
127.469030,106.429329
127.523223,106.348223
127.604329,106.294030
127.700000,106.275000
128.375000,106.275000
128.470671,106.294030
128.551777,106.348223
128.605970,106.429329
128.625000,106.525000
128.625000,107.475000
128.605970,107.570671
128.551777,107.651777
128.470671,107.705970
128.375000,107.725000
127.700000,107.725000
127.604329,107.705970
127.523223,107.651777
127.469030,107.570671
127.450000,107.475000
Z" /> 
</g>
<g style="fill:#D864FF; fill-opacity:0.400000; stroke:none;">
<circle cx="158.000000" cy="115.000000" r="1.050000" /> 
<path style="fill:#D864FF; fill-opacity:0.400000; stroke:none;fill-rule:evenodd;"
d="M 128.625000,109.475000
128.605970,109.570671
128.551777,109.651777
128.470671,109.705970
128.375000,109.725000
127.700000,109.725000
127.604329,109.705970
127.523223,109.651777
127.469030,109.570671
127.450000,109.475000
127.450000,108.525000
127.469030,108.429329
127.523223,108.348223
127.604329,108.294030
127.700000,108.275000
128.375000,108.275000
128.470671,108.294030
128.551777,108.348223
128.605970,108.429329
128.625000,108.525000
Z" /> 
<path style="fill:#D864FF; fill-opacity:0.400000; stroke:none;fill-rule:evenodd;"
d="M 126.550000,109.475000
126.530970,109.570671
126.476777,109.651777
126.395671,109.705970
126.300000,109.725000
125.625000,109.725000
125.529329,109.705970
125.448223,109.651777
125.394030,109.570671
125.375000,109.475000
125.375000,108.525000
125.394030,108.429329
125.448223,108.348223
125.529329,108.294030
125.625000,108.275000
126.300000,108.275000
126.395671,108.294030
126.476777,108.348223
126.530970,108.429329
126.550000,108.525000
Z" /> 
<path style="fill:#D864FF; fill-opacity:0.400000; stroke:none;fill-rule:evenodd;"
d="M 147.860200,87.599702
147.841170,87.695373
147.786977,87.776479
147.705871,87.830672
147.610200,87.849702
146.910200,87.849702
146.814529,87.830672
146.733423,87.776479
146.679230,87.695373
146.660200,87.599702
146.660200,86.699702
146.679230,86.604031
146.733423,86.522925
146.814529,86.468732
146.910200,86.449702
147.610200,86.449702
147.705871,86.468732
147.786977,86.522925
147.841170,86.604031
147.860200,86.699702
Z" /> 
<path style="fill:#D864FF; fill-opacity:0.400000; stroke:none;fill-rule:evenodd;"
d="M 145.860200,87.599702
145.841170,87.695373
145.786977,87.776479
145.705871,87.830672
145.610200,87.849702
144.910200,87.849702
144.814529,87.830672
144.733423,87.776479
144.679230,87.695373
144.660200,87.599702
144.660200,86.699702
144.679230,86.604031
144.733423,86.522925
144.814529,86.468732
144.910200,86.449702
145.610200,86.449702
145.705871,86.468732
145.786977,86.522925
145.841170,86.604031
145.860200,86.699702
Z" /> 
</g>
<g style="fill:#D864FF; fill-opacity:0.400000; stroke:none;">
<circle cx="158.000000" cy="99.000000" r="0.750000" /> 
</g>
<g style="fill:#D864FF; fill-opacity:0.400000; stroke:none;">
<circle cx="158.000000" cy="110.050000" r="0.750000" /> 
</g>
<g style="fill:#D864FF; fill-opacity:0.400000; stroke:none;">
<circle cx="158.000000" cy="85.000000" r="0.750000" /> 
</g>
<g style="fill:#D864FF; fill-opacity:0.400000; stroke:none;">
<circle cx="151.000000" cy="85.000000" r="0.750000" /> 
</g> 
</svg>
