%TF.GenerationSoftware,KiCad,Pcbnew,8.0.2*%
%TF.CreationDate,2025-06-15T12:49:30+05:30*%
%TF.ProjectId,final schematics,66696e61-6c20-4736-9368-656d61746963,1.0*%
%TF.SameCoordinates,Original*%
%TF.FileFunction,Legend,Top*%
%TF.FilePolarity,Positive*%
%FSLAX46Y46*%
G04 Gerber Fmt 4.6, Leading zero omitted, Abs format (unit mm)*
G04 Created by KiCad (PCBNEW 8.0.2) date 2025-06-15 12:49:30*
%MOMM*%
%LPD*%
G01*
G04 APERTURE LIST*
%ADD10C,0.100000*%
%ADD11C,0.150000*%
%ADD12C,0.120000*%
G04 APERTURE END LIST*
D10*
X125000000Y-99000000D02*
X135000000Y-99000000D01*
X135000000Y-102000000D01*
X125000000Y-102000000D01*
X125000000Y-99000000D01*
D11*
G36*
X147206873Y-101130000D02*
G01*
X147398115Y-100210181D01*
X147363189Y-100222882D01*
X147314569Y-100237040D01*
X147307013Y-100239002D01*
X147259383Y-100251431D01*
X147251325Y-100253656D01*
X147215422Y-100264891D01*
X147245464Y-100120544D01*
X147291676Y-100103334D01*
X147297487Y-100101004D01*
X147342657Y-100082040D01*
X147364410Y-100072428D01*
X147409420Y-100049798D01*
X147431821Y-100036769D01*
X147472993Y-100007699D01*
X147486287Y-99995980D01*
X147631612Y-99995980D01*
X147395917Y-101130000D01*
X147206873Y-101130000D01*
G37*
G36*
X147871946Y-101146852D02*
G01*
X147820167Y-101144227D01*
X147770673Y-101134996D01*
X147722775Y-101114689D01*
X147708792Y-101104842D01*
X147675911Y-101068424D01*
X147655669Y-101022182D01*
X147649197Y-100985896D01*
X147647456Y-100935082D01*
X147650742Y-100884945D01*
X147658627Y-100830634D01*
X147663607Y-100805157D01*
X147848499Y-100805157D01*
X147839533Y-100856068D01*
X147834822Y-100906762D01*
X147840998Y-100956154D01*
X147850697Y-100975394D01*
X147894275Y-100997755D01*
X147912247Y-100998353D01*
X147961721Y-100987245D01*
X147986741Y-100966845D01*
X148013479Y-100923440D01*
X148030216Y-100878674D01*
X148044064Y-100829490D01*
X148056417Y-100778508D01*
X148063433Y-100746294D01*
X148072692Y-100695693D01*
X148078767Y-100644220D01*
X148079553Y-100631744D01*
X148076027Y-100581110D01*
X148065875Y-100555296D01*
X148022203Y-100529250D01*
X148003349Y-100527941D01*
X147954568Y-100539722D01*
X147931786Y-100555296D01*
X147897815Y-100593894D01*
X147878541Y-100627348D01*
X147715631Y-100627348D01*
X147857780Y-99995980D01*
X148356036Y-99995980D01*
X148319888Y-100169637D01*
X147980390Y-100169637D01*
X147912735Y-100442700D01*
X147953873Y-100413674D01*
X147980879Y-100401912D01*
X148030347Y-100388619D01*
X148071493Y-100383838D01*
X148122731Y-100385751D01*
X148173198Y-100399947D01*
X148206071Y-100421695D01*
X148237490Y-100462076D01*
X148255688Y-100510442D01*
X148261514Y-100543572D01*
X148264166Y-100596366D01*
X148261169Y-100649060D01*
X148254224Y-100700019D01*
X148247836Y-100733838D01*
X148236699Y-100783157D01*
X148222694Y-100835374D01*
X148206970Y-100884871D01*
X148201919Y-100899190D01*
X148183295Y-100944404D01*
X148159283Y-100989620D01*
X148131577Y-101030104D01*
X148096520Y-101068069D01*
X148055831Y-101099164D01*
X148025575Y-101116078D01*
X147978991Y-101133599D01*
X147930982Y-101143216D01*
X147877583Y-101146822D01*
X147871946Y-101146852D01*
G37*
G36*
X148881038Y-99985381D02*
G01*
X148931184Y-99996868D01*
X148976207Y-100018981D01*
X148983251Y-100024068D01*
X149019018Y-100060212D01*
X149043518Y-100105630D01*
X149053593Y-100141060D01*
X149059575Y-100190181D01*
X149058593Y-100244119D01*
X149051753Y-100296783D01*
X149048220Y-100315205D01*
X148943684Y-100817857D01*
X148930216Y-100870367D01*
X148912343Y-100919360D01*
X148890065Y-100964837D01*
X148875785Y-100988583D01*
X148843608Y-101031841D01*
X148806614Y-101068801D01*
X148764802Y-101099465D01*
X148755861Y-101104842D01*
X148708244Y-101126996D01*
X148655760Y-101140945D01*
X148604364Y-101146483D01*
X148586357Y-101146852D01*
X148534901Y-101143529D01*
X148485614Y-101132042D01*
X148440985Y-101109930D01*
X148433949Y-101104842D01*
X148398126Y-101068801D01*
X148373087Y-101023693D01*
X148362386Y-100988583D01*
X148355584Y-100940006D01*
X148355923Y-100889176D01*
X148549965Y-100889176D01*
X148557535Y-100937792D01*
X148564619Y-100953656D01*
X148606244Y-100979343D01*
X148620795Y-100980279D01*
X148669526Y-100968813D01*
X148689427Y-100953656D01*
X148718784Y-100913876D01*
X148730216Y-100889176D01*
X148745767Y-100842426D01*
X148752442Y-100814926D01*
X148855757Y-100317892D01*
X148863561Y-100269330D01*
X148865771Y-100240467D01*
X148859747Y-100191176D01*
X148852581Y-100175254D01*
X148809184Y-100149568D01*
X148793719Y-100148632D01*
X148745939Y-100159031D01*
X148723866Y-100175254D01*
X148694719Y-100215350D01*
X148683565Y-100240467D01*
X148668148Y-100288686D01*
X148661095Y-100317892D01*
X148557780Y-100814926D01*
X148550998Y-100863322D01*
X148549965Y-100889176D01*
X148355923Y-100889176D01*
X148355937Y-100887089D01*
X148362372Y-100835751D01*
X148365806Y-100817857D01*
X148470341Y-100315205D01*
X148482218Y-100267044D01*
X148499447Y-100216548D01*
X148520772Y-100169954D01*
X148537264Y-100141060D01*
X148568796Y-100097416D01*
X148605385Y-100060212D01*
X148647030Y-100029448D01*
X148655966Y-100024068D01*
X148703975Y-100001914D01*
X148751751Y-99988991D01*
X148803855Y-99982715D01*
X148828401Y-99982058D01*
X148881038Y-99985381D01*
G37*
G36*
X149625579Y-99985888D02*
G01*
X149674514Y-99994904D01*
X149722090Y-100014224D01*
X149725505Y-100016252D01*
X149763192Y-100048001D01*
X149789532Y-100093281D01*
X149795359Y-100112240D01*
X149802171Y-100163622D01*
X149800344Y-100212738D01*
X149792867Y-100261836D01*
X149791695Y-100267578D01*
X149790474Y-100276615D01*
X149789253Y-100285896D01*
X149607292Y-100285896D01*
X149615409Y-100234468D01*
X149615413Y-100185252D01*
X149612909Y-100172568D01*
X149576052Y-100138407D01*
X149544033Y-100134710D01*
X149495627Y-100147349D01*
X149481751Y-100157180D01*
X149450877Y-100196221D01*
X149434368Y-100230453D01*
X149417984Y-100277612D01*
X149404876Y-100326395D01*
X149395778Y-100366985D01*
X149367690Y-100502784D01*
X149404257Y-100469235D01*
X149436322Y-100451737D01*
X149484736Y-100436872D01*
X149531577Y-100432686D01*
X149583583Y-100436145D01*
X149633775Y-100451440D01*
X149665422Y-100473475D01*
X149694581Y-100512929D01*
X149711809Y-100563024D01*
X149715736Y-100589734D01*
X149717570Y-100643124D01*
X149713677Y-100696018D01*
X149705646Y-100747171D01*
X149703279Y-100758995D01*
X149690380Y-100812865D01*
X149674642Y-100863836D01*
X149656064Y-100911906D01*
X149634647Y-100957076D01*
X149606871Y-101003343D01*
X149574652Y-101043775D01*
X149537989Y-101078373D01*
X149515701Y-101095073D01*
X149471604Y-101119394D01*
X149422020Y-101135756D01*
X149373340Y-101143618D01*
X149333984Y-101145387D01*
X149280107Y-101141523D01*
X149229217Y-101128166D01*
X149184147Y-101102453D01*
X149177180Y-101096538D01*
X149144896Y-101058573D01*
X149122597Y-101012181D01*
X149110990Y-100962693D01*
X149107043Y-100913416D01*
X149107232Y-100906029D01*
X149292707Y-100906029D01*
X149301344Y-100954273D01*
X149310537Y-100971242D01*
X149354818Y-100995070D01*
X149366224Y-100995666D01*
X149414269Y-100983775D01*
X149431681Y-100970509D01*
X149460800Y-100931220D01*
X149475157Y-100900411D01*
X149491521Y-100851807D01*
X149503836Y-100802867D01*
X149505443Y-100795387D01*
X149515106Y-100744056D01*
X149522244Y-100694661D01*
X149523272Y-100685478D01*
X149522593Y-100635024D01*
X149513991Y-100608541D01*
X149470819Y-100581099D01*
X149451465Y-100579720D01*
X149406524Y-100589002D01*
X149367445Y-100611960D01*
X149339113Y-100640048D01*
X149302233Y-100817857D01*
X149294557Y-100866462D01*
X149292707Y-100906029D01*
X149107232Y-100906029D01*
X149108389Y-100860933D01*
X149114029Y-100811588D01*
X149121004Y-100772916D01*
X149203558Y-100375289D01*
X149216305Y-100321434D01*
X149231585Y-100270265D01*
X149249400Y-100221782D01*
X149269748Y-100175987D01*
X149296579Y-100128915D01*
X149328163Y-100087716D01*
X149364500Y-100052391D01*
X149386741Y-100035303D01*
X149431400Y-100010155D01*
X149482396Y-99993237D01*
X149533046Y-99985108D01*
X149574319Y-99983279D01*
X149625579Y-99985888D01*
G37*
G36*
X149748709Y-101130000D02*
G01*
X149777285Y-100992735D01*
X150140963Y-100560181D01*
X150172900Y-100522209D01*
X150205491Y-100482940D01*
X150216678Y-100469323D01*
X150248177Y-100427813D01*
X150275811Y-100384801D01*
X150279204Y-100378953D01*
X150301064Y-100332950D01*
X150316270Y-100282868D01*
X150317794Y-100275882D01*
X150323792Y-100226521D01*
X150315840Y-100179406D01*
X150275861Y-100147807D01*
X150254535Y-100145701D01*
X150205229Y-100155623D01*
X150180774Y-100171102D01*
X150148393Y-100208559D01*
X150133635Y-100236803D01*
X150116367Y-100285121D01*
X150106036Y-100326441D01*
X150096022Y-100374068D01*
X149909665Y-100374068D01*
X149920167Y-100323510D01*
X149932196Y-100274722D01*
X149949378Y-100223485D01*
X149970424Y-100176113D01*
X149986601Y-100146678D01*
X150014357Y-100106284D01*
X150050364Y-100067520D01*
X150091809Y-100035196D01*
X150105303Y-100026755D01*
X150154128Y-100003828D01*
X150203250Y-99990454D01*
X150257279Y-99983959D01*
X150282868Y-99983279D01*
X150333191Y-99986036D01*
X150384132Y-99996219D01*
X150432102Y-100017044D01*
X150473005Y-100052187D01*
X150480216Y-100061681D01*
X150504462Y-100110670D01*
X150514824Y-100162423D01*
X150515249Y-100214043D01*
X150509196Y-100262996D01*
X150505861Y-100280279D01*
X150492718Y-100330848D01*
X150474904Y-100377777D01*
X150460432Y-100407041D01*
X150433375Y-100452274D01*
X150405108Y-100492597D01*
X150387159Y-100515484D01*
X150354610Y-100554697D01*
X150320344Y-100594665D01*
X150296545Y-100621730D01*
X149995882Y-100974661D01*
X150332693Y-100974661D01*
X150300453Y-101130000D01*
X149748709Y-101130000D01*
G37*
G36*
X151045029Y-99985381D02*
G01*
X151095175Y-99996868D01*
X151140198Y-100018981D01*
X151147243Y-100024068D01*
X151183009Y-100060212D01*
X151207510Y-100105630D01*
X151217585Y-100141060D01*
X151223567Y-100190181D01*
X151222584Y-100244119D01*
X151215745Y-100296783D01*
X151212212Y-100315205D01*
X151107676Y-100817857D01*
X151094208Y-100870367D01*
X151076334Y-100919360D01*
X151054056Y-100964837D01*
X151039776Y-100988583D01*
X151007600Y-101031841D01*
X150970606Y-101068801D01*
X150928794Y-101099465D01*
X150919853Y-101104842D01*
X150872235Y-101126996D01*
X150819752Y-101140945D01*
X150768356Y-101146483D01*
X150750348Y-101146852D01*
X150698893Y-101143529D01*
X150649605Y-101132042D01*
X150604976Y-101109930D01*
X150597941Y-101104842D01*
X150562117Y-101068801D01*
X150537079Y-101023693D01*
X150526378Y-100988583D01*
X150519575Y-100940006D01*
X150519914Y-100889176D01*
X150713956Y-100889176D01*
X150721527Y-100937792D01*
X150728611Y-100953656D01*
X150770235Y-100979343D01*
X150784787Y-100980279D01*
X150833518Y-100968813D01*
X150853419Y-100953656D01*
X150882776Y-100913876D01*
X150894207Y-100889176D01*
X150909759Y-100842426D01*
X150916434Y-100814926D01*
X151019748Y-100317892D01*
X151027553Y-100269330D01*
X151029762Y-100240467D01*
X151023739Y-100191176D01*
X151016573Y-100175254D01*
X150973175Y-100149568D01*
X150957711Y-100148632D01*
X150909931Y-100159031D01*
X150887857Y-100175254D01*
X150858710Y-100215350D01*
X150847557Y-100240467D01*
X150832139Y-100288686D01*
X150825087Y-100317892D01*
X150721772Y-100814926D01*
X150714990Y-100863322D01*
X150713956Y-100889176D01*
X150519914Y-100889176D01*
X150519928Y-100887089D01*
X150526364Y-100835751D01*
X150529797Y-100817857D01*
X150634333Y-100315205D01*
X150646209Y-100267044D01*
X150663439Y-100216548D01*
X150684763Y-100169954D01*
X150701256Y-100141060D01*
X150732788Y-100097416D01*
X150769376Y-100060212D01*
X150811022Y-100029448D01*
X150819958Y-100024068D01*
X150867967Y-100001914D01*
X150915743Y-99988991D01*
X150967847Y-99982715D01*
X150992393Y-99982058D01*
X151045029Y-99985381D01*
G37*
G36*
X151191695Y-101130000D02*
G01*
X151220272Y-100992735D01*
X151583949Y-100560181D01*
X151615887Y-100522209D01*
X151648478Y-100482940D01*
X151659665Y-100469323D01*
X151691163Y-100427813D01*
X151718798Y-100384801D01*
X151722191Y-100378953D01*
X151744051Y-100332950D01*
X151759256Y-100282868D01*
X151760781Y-100275882D01*
X151766778Y-100226521D01*
X151758827Y-100179406D01*
X151718848Y-100147807D01*
X151697522Y-100145701D01*
X151648216Y-100155623D01*
X151623761Y-100171102D01*
X151591380Y-100208559D01*
X151576622Y-100236803D01*
X151559354Y-100285121D01*
X151549023Y-100326441D01*
X151539009Y-100374068D01*
X151352651Y-100374068D01*
X151363154Y-100323510D01*
X151375183Y-100274722D01*
X151392365Y-100223485D01*
X151413411Y-100176113D01*
X151429588Y-100146678D01*
X151457344Y-100106284D01*
X151493351Y-100067520D01*
X151534796Y-100035196D01*
X151548290Y-100026755D01*
X151597115Y-100003828D01*
X151646237Y-99990454D01*
X151700266Y-99983959D01*
X151725854Y-99983279D01*
X151776178Y-99986036D01*
X151827118Y-99996219D01*
X151875089Y-100017044D01*
X151915992Y-100052187D01*
X151923203Y-100061681D01*
X151947449Y-100110670D01*
X151957810Y-100162423D01*
X151958236Y-100214043D01*
X151952183Y-100262996D01*
X151948848Y-100280279D01*
X151935705Y-100330848D01*
X151917890Y-100377777D01*
X151903419Y-100407041D01*
X151876362Y-100452274D01*
X151848095Y-100492597D01*
X151830146Y-100515484D01*
X151797597Y-100554697D01*
X151763330Y-100594665D01*
X151739532Y-100621730D01*
X151438869Y-100974661D01*
X151775680Y-100974661D01*
X151743440Y-101130000D01*
X151191695Y-101130000D01*
G37*
G36*
X152168667Y-101146852D02*
G01*
X152116887Y-101144227D01*
X152067394Y-101134996D01*
X152019495Y-101114689D01*
X152005512Y-101104842D01*
X151972631Y-101068424D01*
X151952390Y-101022182D01*
X151945917Y-100985896D01*
X151944176Y-100935082D01*
X151947463Y-100884945D01*
X151955347Y-100830634D01*
X151960327Y-100805157D01*
X152145219Y-100805157D01*
X152136253Y-100856068D01*
X152131542Y-100906762D01*
X152137718Y-100956154D01*
X152147418Y-100975394D01*
X152190995Y-100997755D01*
X152208967Y-100998353D01*
X152258441Y-100987245D01*
X152283461Y-100966845D01*
X152310200Y-100923440D01*
X152326936Y-100878674D01*
X152340784Y-100829490D01*
X152353137Y-100778508D01*
X152360153Y-100746294D01*
X152369412Y-100695693D01*
X152375487Y-100644220D01*
X152376273Y-100631744D01*
X152372747Y-100581110D01*
X152362595Y-100555296D01*
X152318923Y-100529250D01*
X152300069Y-100527941D01*
X152251288Y-100539722D01*
X152228506Y-100555296D01*
X152194535Y-100593894D01*
X152175261Y-100627348D01*
X152012351Y-100627348D01*
X152154501Y-99995980D01*
X152652756Y-99995980D01*
X152616608Y-100169637D01*
X152277110Y-100169637D01*
X152209455Y-100442700D01*
X152250593Y-100413674D01*
X152277599Y-100401912D01*
X152327067Y-100388619D01*
X152368213Y-100383838D01*
X152419452Y-100385751D01*
X152469918Y-100399947D01*
X152502791Y-100421695D01*
X152534211Y-100462076D01*
X152552409Y-100510442D01*
X152558234Y-100543572D01*
X152560886Y-100596366D01*
X152557890Y-100649060D01*
X152550944Y-100700019D01*
X152544556Y-100733838D01*
X152533419Y-100783157D01*
X152519414Y-100835374D01*
X152503691Y-100884871D01*
X152498639Y-100899190D01*
X152480015Y-100944404D01*
X152456003Y-100989620D01*
X152428297Y-101030104D01*
X152393240Y-101068069D01*
X152352551Y-101099164D01*
X152322295Y-101116078D01*
X152275712Y-101133599D01*
X152227703Y-101143216D01*
X152174303Y-101146822D01*
X152168667Y-101146852D01*
G37*
G36*
X153311258Y-115704260D02*
G01*
X151707512Y-114100514D01*
X151996276Y-113811750D01*
X153600022Y-115415496D01*
X153311258Y-115704260D01*
G37*
G36*
X153847682Y-115167836D02*
G01*
X152243936Y-113564090D01*
X152447729Y-113360297D01*
X153752348Y-113884977D01*
X152837698Y-112970327D01*
X153079487Y-112728539D01*
X154683232Y-114332285D01*
X154489111Y-114526406D01*
X153138897Y-113960277D01*
X154097069Y-114918448D01*
X153847682Y-115167836D01*
G37*
G36*
X154262386Y-111831360D02*
G01*
X154361631Y-111855033D01*
X154381343Y-111862592D01*
X154470952Y-111907119D01*
X154562583Y-111968422D01*
X154645730Y-112036997D01*
X154709138Y-112097127D01*
X155294956Y-112682945D01*
X155366229Y-112758681D01*
X155435339Y-112843819D01*
X155491279Y-112927447D01*
X155538471Y-113019721D01*
X155569875Y-113121422D01*
X155577735Y-113223595D01*
X155562050Y-113326240D01*
X155556087Y-113346826D01*
X155516345Y-113441001D01*
X155462898Y-113527877D01*
X155402142Y-113606338D01*
X155328328Y-113687080D01*
X155316717Y-113698800D01*
X154926748Y-114088770D01*
X153323002Y-112485024D01*
X153407973Y-112400053D01*
X153823848Y-112400053D01*
X155015864Y-113592068D01*
X155104980Y-113502952D01*
X155171594Y-113424594D01*
X155212428Y-113332965D01*
X155213785Y-113322992D01*
X155197647Y-113224226D01*
X155163354Y-113165485D01*
X155099673Y-113087423D01*
X155029993Y-113012403D01*
X155005847Y-112987943D01*
X154392050Y-112374147D01*
X154317122Y-112303779D01*
X154235702Y-112240493D01*
X154221763Y-112231492D01*
X154126396Y-112198277D01*
X154077035Y-112202132D01*
X153988789Y-112245690D01*
X153908820Y-112315082D01*
X153823848Y-112400053D01*
X153407973Y-112400053D01*
X153700882Y-112107144D01*
X153773301Y-112038489D01*
X153854874Y-111970824D01*
X153944254Y-111909886D01*
X154039905Y-111862232D01*
X154060455Y-111854648D01*
X154161994Y-111831232D01*
X154262386Y-111831360D01*
G37*
G36*
X156037246Y-112978272D02*
G01*
X154433500Y-111374526D01*
X154722264Y-111085762D01*
X156326010Y-112689508D01*
X156037246Y-112978272D01*
G37*
G36*
X157446525Y-111568993D02*
G01*
X157175377Y-111840141D01*
X156741885Y-111533070D01*
X156462793Y-111812162D01*
X156767446Y-112248072D01*
X156492498Y-112523019D01*
X155353023Y-110814268D01*
X155741919Y-110814268D01*
X156306321Y-111596280D01*
X156523930Y-111378671D01*
X155741919Y-110814268D01*
X155353023Y-110814268D01*
X155209294Y-110598732D01*
X155522237Y-110285789D01*
X157446525Y-111568993D01*
G37*
G36*
X126710175Y-101264999D02*
G01*
X126707837Y-101316925D01*
X126699441Y-101369971D01*
X126682697Y-101421620D01*
X126661326Y-101460393D01*
X126627161Y-101500360D01*
X126586031Y-101532025D01*
X126537936Y-101555391D01*
X126527481Y-101559068D01*
X126477760Y-101572527D01*
X126423943Y-101581582D01*
X126372667Y-101585932D01*
X126332087Y-101586911D01*
X125927621Y-101586911D01*
X125878241Y-101585579D01*
X125825443Y-101580793D01*
X125776522Y-101572527D01*
X125726120Y-101559068D01*
X125681146Y-101539906D01*
X125638470Y-101510731D01*
X125603474Y-101473255D01*
X125594473Y-101460393D01*
X125572041Y-101416301D01*
X125556950Y-101363708D01*
X125549699Y-101309822D01*
X125548067Y-101264999D01*
X125549984Y-101215949D01*
X125556869Y-101165902D01*
X125570599Y-101117263D01*
X125588123Y-101080840D01*
X125619563Y-101039698D01*
X125659142Y-101007618D01*
X125702185Y-100986318D01*
X125750904Y-100971506D01*
X125804251Y-100962180D01*
X125856220Y-100958477D01*
X125874376Y-100958230D01*
X125969630Y-100958230D01*
X125969630Y-101157044D01*
X125871689Y-101157044D01*
X125820813Y-101158667D01*
X125784983Y-101162173D01*
X125736910Y-101177901D01*
X125722701Y-101188795D01*
X125701764Y-101233356D01*
X125699498Y-101263534D01*
X125706391Y-101311973D01*
X125723922Y-101341203D01*
X125767738Y-101367354D01*
X125789624Y-101372710D01*
X125839383Y-101378438D01*
X125882680Y-101379793D01*
X126375562Y-101379793D01*
X126425304Y-101377923D01*
X126474643Y-101370625D01*
X126477167Y-101370024D01*
X126522673Y-101348971D01*
X126537251Y-101334364D01*
X126555919Y-101287207D01*
X126557523Y-101263534D01*
X126549795Y-101214787D01*
X126533099Y-101190017D01*
X126489661Y-101167096D01*
X126468130Y-101162661D01*
X126419229Y-101158119D01*
X126377028Y-101157044D01*
X126274690Y-101157044D01*
X126274690Y-100958230D01*
X126365792Y-100958230D01*
X126414778Y-100959894D01*
X126466421Y-100965744D01*
X126514392Y-100975805D01*
X126544334Y-100984853D01*
X126589609Y-101005403D01*
X126631864Y-101037045D01*
X126666211Y-101078153D01*
X126689395Y-101124946D01*
X126702919Y-101176073D01*
X126709101Y-101228688D01*
X126710175Y-101264999D01*
G37*
G36*
X126694788Y-100817791D02*
G01*
X125560768Y-100798251D01*
X125560768Y-100584050D01*
X126346253Y-100422850D01*
X125560768Y-100255055D01*
X125560768Y-100047693D01*
X126694788Y-100026688D01*
X126694788Y-100180805D01*
X125906616Y-100197658D01*
X126694788Y-100358614D01*
X126694788Y-100483178D01*
X125903685Y-100647065D01*
X126694788Y-100662452D01*
X126694788Y-100817791D01*
G37*
G36*
X126710175Y-99554322D02*
G01*
X126707837Y-99606248D01*
X126699441Y-99659294D01*
X126682697Y-99710943D01*
X126661326Y-99749717D01*
X126627161Y-99789683D01*
X126586031Y-99821348D01*
X126537936Y-99844714D01*
X126527481Y-99848391D01*
X126477760Y-99861850D01*
X126423943Y-99870905D01*
X126372667Y-99875255D01*
X126332087Y-99876234D01*
X125927621Y-99876234D01*
X125878241Y-99874902D01*
X125825443Y-99870116D01*
X125776522Y-99861850D01*
X125726120Y-99848391D01*
X125681146Y-99829230D01*
X125638470Y-99800054D01*
X125603474Y-99762578D01*
X125594473Y-99749717D01*
X125572041Y-99705624D01*
X125556950Y-99653031D01*
X125549699Y-99599145D01*
X125548067Y-99554322D01*
X125549984Y-99505272D01*
X125556869Y-99455225D01*
X125570599Y-99406586D01*
X125588123Y-99370163D01*
X125619563Y-99329021D01*
X125659142Y-99296941D01*
X125702185Y-99275641D01*
X125750904Y-99260829D01*
X125804251Y-99251503D01*
X125856220Y-99247800D01*
X125874376Y-99247553D01*
X125969630Y-99247553D01*
X125969630Y-99446367D01*
X125871689Y-99446367D01*
X125820813Y-99447990D01*
X125784983Y-99451496D01*
X125736910Y-99467224D01*
X125722701Y-99478119D01*
X125701764Y-99522679D01*
X125699498Y-99552857D01*
X125706391Y-99601296D01*
X125723922Y-99630526D01*
X125767738Y-99656677D01*
X125789624Y-99662033D01*
X125839383Y-99667761D01*
X125882680Y-99669116D01*
X126375562Y-99669116D01*
X126425304Y-99667246D01*
X126474643Y-99659948D01*
X126477167Y-99659347D01*
X126522673Y-99638294D01*
X126537251Y-99623687D01*
X126555919Y-99576530D01*
X126557523Y-99552857D01*
X126549795Y-99504110D01*
X126533099Y-99479340D01*
X126489661Y-99456420D01*
X126468130Y-99451985D01*
X126419229Y-99447442D01*
X126377028Y-99446367D01*
X126274690Y-99446367D01*
X126274690Y-99247553D01*
X126365792Y-99247553D01*
X126414778Y-99249217D01*
X126466421Y-99255067D01*
X126514392Y-99265128D01*
X126544334Y-99274176D01*
X126589609Y-99294726D01*
X126631864Y-99326368D01*
X126666211Y-99367477D01*
X126689395Y-99414269D01*
X126702919Y-99465396D01*
X126709101Y-99518011D01*
X126710175Y-99554322D01*
G37*
G36*
X152054766Y-113502870D02*
G01*
X151482591Y-112930696D01*
X151612293Y-112800994D01*
X151661860Y-112850560D01*
X151664311Y-112799176D01*
X151676401Y-112749476D01*
X151679994Y-112740201D01*
X151704216Y-112694477D01*
X151736124Y-112655403D01*
X151776549Y-112625688D01*
X151811769Y-112613608D01*
X151861198Y-112614440D01*
X151902439Y-112629670D01*
X151902253Y-112579404D01*
X151910109Y-112530486D01*
X151917810Y-112506530D01*
X151940776Y-112460011D01*
X151971787Y-112419867D01*
X151976530Y-112414996D01*
X152018195Y-112385340D01*
X152046303Y-112375965D01*
X152097197Y-112375101D01*
X152129547Y-112383909D01*
X152173976Y-112407354D01*
X152213488Y-112439981D01*
X152219182Y-112445565D01*
X152665626Y-112892010D01*
X152536960Y-113020676D01*
X152102432Y-112586148D01*
X152063455Y-112556690D01*
X152046303Y-112552125D01*
X152003299Y-112570259D01*
X151977701Y-112612713D01*
X151977048Y-112614472D01*
X151967050Y-112662445D01*
X151966686Y-112674228D01*
X151972212Y-112679754D01*
X151978602Y-112686144D01*
X152425047Y-113132589D01*
X152297245Y-113260391D01*
X151862717Y-112825863D01*
X151823590Y-112796555D01*
X151806242Y-112792186D01*
X151762720Y-112810838D01*
X151737608Y-112852806D01*
X151736987Y-112854533D01*
X151726752Y-112902742D01*
X151726107Y-112914807D01*
X152184468Y-113373168D01*
X152054766Y-113502870D01*
G37*
G36*
X152573625Y-111975794D02*
G01*
X152621249Y-111997583D01*
X152662780Y-112026700D01*
X152693432Y-112054559D01*
X152957671Y-112318799D01*
X152993680Y-112353834D01*
X153016564Y-112374929D01*
X153055164Y-112407894D01*
X153066994Y-112417414D01*
X153105853Y-112447773D01*
X153108098Y-112449538D01*
X152986341Y-112571295D01*
X152946820Y-112542214D01*
X152934356Y-112533127D01*
X152894078Y-112503844D01*
X152891352Y-112501867D01*
X152910005Y-112549448D01*
X152916511Y-112599231D01*
X152916567Y-112602728D01*
X152906504Y-112653203D01*
X152878075Y-112697028D01*
X152869592Y-112706006D01*
X152828574Y-112736920D01*
X152782548Y-112752636D01*
X152731667Y-112754070D01*
X152687905Y-112744001D01*
X152642469Y-112721743D01*
X152608288Y-112694089D01*
X152575806Y-112656954D01*
X152548575Y-112612226D01*
X152537824Y-112584248D01*
X152527992Y-112534568D01*
X152527812Y-112484359D01*
X152529534Y-112469917D01*
X152539308Y-112420182D01*
X152658075Y-112420182D01*
X152658372Y-112431231D01*
X152667402Y-112479626D01*
X152669771Y-112486151D01*
X152696219Y-112528100D01*
X152703276Y-112535545D01*
X152742526Y-112565215D01*
X152765623Y-112573368D01*
X152813338Y-112561694D01*
X152819161Y-112556442D01*
X152836432Y-112526392D01*
X152840922Y-112491160D01*
X152838850Y-112461454D01*
X152679442Y-112302047D01*
X152667235Y-112351494D01*
X152663381Y-112369920D01*
X152658075Y-112420182D01*
X152539308Y-112420182D01*
X152539564Y-112418877D01*
X152553851Y-112371009D01*
X152560621Y-112352477D01*
X152580113Y-112304377D01*
X152601543Y-112256618D01*
X152612087Y-112234692D01*
X152562693Y-112185298D01*
X152525359Y-112152523D01*
X152517617Y-112147130D01*
X152478586Y-112134695D01*
X152440936Y-112154383D01*
X152420556Y-112190652D01*
X152427983Y-112227783D01*
X152456825Y-112265260D01*
X152489466Y-112302047D01*
X152355792Y-112425704D01*
X152323456Y-112387475D01*
X152294034Y-112343810D01*
X152271358Y-112295142D01*
X152259809Y-112241965D01*
X152259249Y-112230374D01*
X152265943Y-112178097D01*
X152284601Y-112131445D01*
X152315218Y-112084620D01*
X152351820Y-112043506D01*
X152389506Y-112010382D01*
X152432717Y-111983556D01*
X152481511Y-111967440D01*
X152525043Y-111965616D01*
X152573625Y-111975794D01*
G37*
G36*
X153562314Y-111995321D02*
G01*
X153427604Y-112130032D01*
X153387018Y-112089446D01*
X153383223Y-112138633D01*
X153374756Y-112174245D01*
X153352871Y-112218986D01*
X153333652Y-112241945D01*
X153294049Y-112273870D01*
X153247162Y-112294217D01*
X153197240Y-112298643D01*
X153181671Y-112296866D01*
X153132807Y-112281897D01*
X153086277Y-112256183D01*
X153043172Y-112224103D01*
X153004448Y-112189488D01*
X152991176Y-112176490D01*
X152815880Y-112001193D01*
X152781211Y-111963927D01*
X152748763Y-111922622D01*
X152722273Y-111880990D01*
X152701735Y-111835728D01*
X152690722Y-111787735D01*
X152689632Y-111762341D01*
X152694189Y-111741183D01*
X152865370Y-111741183D01*
X152870282Y-111761650D01*
X152895957Y-111806360D01*
X152922785Y-111836950D01*
X153136595Y-112050760D01*
X153173405Y-112084149D01*
X153192033Y-112098254D01*
X153237425Y-112118371D01*
X153243672Y-112119151D01*
X153290130Y-112099290D01*
X153309819Y-112069585D01*
X153324671Y-112027099D01*
X152957326Y-111659754D01*
X152918295Y-111672189D01*
X152884099Y-111695331D01*
X152865370Y-111741183D01*
X152694189Y-111741183D01*
X152700262Y-111712987D01*
X152727005Y-111669704D01*
X152741617Y-111653709D01*
X152780779Y-111623315D01*
X152810872Y-111609324D01*
X152860309Y-111596641D01*
X152891007Y-111593435D01*
X152625731Y-111328159D01*
X152760441Y-111193448D01*
X153562314Y-111995321D01*
G37*
G36*
X153488570Y-111067099D02*
G01*
X153517065Y-111079290D01*
X153562638Y-111106180D01*
X153605058Y-111138346D01*
X153644045Y-111173583D01*
X153652812Y-111182223D01*
X153733984Y-111263394D01*
X153506358Y-111491020D01*
X153619135Y-111603797D01*
X153656696Y-111635827D01*
X153670083Y-111644038D01*
X153713087Y-111652500D01*
X153749873Y-111631603D01*
X153770079Y-111594471D01*
X153761099Y-111554058D01*
X153730970Y-111514069D01*
X153725003Y-111507946D01*
X153677509Y-111460452D01*
X153803239Y-111334722D01*
X153841752Y-111373235D01*
X153875885Y-111411533D01*
X153905037Y-111455646D01*
X153925266Y-111505711D01*
X153932077Y-111550604D01*
X153926447Y-111601149D01*
X153906255Y-111651558D01*
X153876080Y-111696251D01*
X153845897Y-111729700D01*
X153805693Y-111765182D01*
X153761351Y-111793421D01*
X153716886Y-111810353D01*
X153667989Y-111816360D01*
X153618703Y-111810030D01*
X153585630Y-111798955D01*
X153539937Y-111775288D01*
X153498434Y-111745874D01*
X153461109Y-111712970D01*
X153452819Y-111704830D01*
X153280631Y-111532643D01*
X153245426Y-111494377D01*
X153213968Y-111452341D01*
X153188676Y-111406685D01*
X153185125Y-111398450D01*
X153170925Y-111349164D01*
X153169258Y-111300267D01*
X153173766Y-111275311D01*
X153332098Y-111275311D01*
X153345914Y-111320905D01*
X153376586Y-111360106D01*
X153400489Y-111385152D01*
X153440039Y-111424701D01*
X153540899Y-111323841D01*
X153486497Y-111269439D01*
X153448672Y-111236349D01*
X153433476Y-111226435D01*
X153390990Y-111215382D01*
X153351786Y-111237661D01*
X153332098Y-111275311D01*
X153173766Y-111275311D01*
X153175108Y-111267885D01*
X153194546Y-111219400D01*
X153223756Y-111175340D01*
X153255762Y-111139564D01*
X153293863Y-111105534D01*
X153335333Y-111078137D01*
X153383894Y-111059732D01*
X153387882Y-111058911D01*
X153440029Y-111056275D01*
X153488570Y-111067099D01*
G37*
G36*
X154349507Y-111208128D02*
G01*
X153777333Y-110635954D01*
X153912044Y-110501244D01*
X154484218Y-111073418D01*
X154349507Y-111208128D01*
G37*
G36*
X153686317Y-110544938D02*
G01*
X153574404Y-110433025D01*
X153709114Y-110298314D01*
X153821028Y-110410228D01*
X153686317Y-110544938D01*
G37*
G36*
X154590777Y-110966858D02*
G01*
X154018603Y-110394684D01*
X154153314Y-110259974D01*
X154210652Y-110317312D01*
X154214283Y-110266060D01*
X154223667Y-110217782D01*
X154227404Y-110204535D01*
X154247499Y-110158160D01*
X154277992Y-110117477D01*
X154282843Y-110112483D01*
X154323687Y-110082677D01*
X154356588Y-110073624D01*
X154406832Y-110078533D01*
X154433270Y-110088822D01*
X154475207Y-110114560D01*
X154505633Y-110141152D01*
X154961058Y-110596577D01*
X154826348Y-110731288D01*
X154397692Y-110302632D01*
X154357095Y-110273347D01*
X154350198Y-110271027D01*
X154305813Y-110287779D01*
X154283361Y-110326120D01*
X154271592Y-110374319D01*
X154271099Y-110377759D01*
X154725488Y-110832148D01*
X154590777Y-110966858D01*
G37*
G36*
X127035987Y-101560243D02*
G01*
X127035987Y-99292203D01*
X127988046Y-99292203D01*
X127988046Y-99583341D01*
X127450223Y-99583341D01*
X127450223Y-100235958D01*
X127873252Y-100235958D01*
X127873252Y-100524164D01*
X127450223Y-100524164D01*
X127450223Y-101274478D01*
X127993419Y-101274478D01*
X127993419Y-101560243D01*
X127035987Y-101560243D01*
G37*
G36*
X128233754Y-101560243D02*
G01*
X128233754Y-99292203D01*
X128647990Y-99292203D01*
X128647990Y-100289203D01*
X129095932Y-99292203D01*
X129490628Y-99292203D01*
X129056853Y-100305811D01*
X129535569Y-101560243D01*
X129123775Y-101560243D01*
X128743245Y-100527095D01*
X128647990Y-100700508D01*
X128647990Y-101560243D01*
X128233754Y-101560243D01*
G37*
G36*
X130382707Y-99270963D02*
G01*
X130487754Y-99285907D01*
X130590240Y-99315712D01*
X130667390Y-99353753D01*
X130748248Y-99415634D01*
X130813745Y-99492589D01*
X130863882Y-99584619D01*
X130872066Y-99604834D01*
X130902527Y-99702100D01*
X130923019Y-99809798D01*
X130932865Y-99914288D01*
X130935080Y-99998065D01*
X130935080Y-100849007D01*
X130931142Y-100958581D01*
X130919327Y-101060644D01*
X130896619Y-101166487D01*
X130872066Y-101242238D01*
X130825001Y-101339000D01*
X130762576Y-101421070D01*
X130684791Y-101488447D01*
X130667390Y-101500159D01*
X130579673Y-101544080D01*
X130475341Y-101573626D01*
X130368653Y-101587823D01*
X130280021Y-101591017D01*
X130179336Y-101586740D01*
X130075716Y-101571375D01*
X129973740Y-101540734D01*
X129896071Y-101501624D01*
X129814841Y-101437816D01*
X129749449Y-101358742D01*
X129699895Y-101264403D01*
X129691884Y-101243704D01*
X129662131Y-101144313D01*
X129643859Y-101047791D01*
X129633280Y-100943576D01*
X129630335Y-100846076D01*
X129630335Y-99998065D01*
X129633646Y-99902811D01*
X130047502Y-99902811D01*
X130047502Y-100947193D01*
X130052293Y-101046730D01*
X130062645Y-101118163D01*
X130100531Y-101209930D01*
X130128590Y-101241261D01*
X130221784Y-101281373D01*
X130280021Y-101285714D01*
X130379214Y-101271649D01*
X130432429Y-101241261D01*
X130485993Y-101159499D01*
X130497886Y-101118163D01*
X130512161Y-101019949D01*
X130514983Y-100947193D01*
X130514983Y-99902811D01*
X130509573Y-99801831D01*
X130497886Y-99731841D01*
X130457356Y-99639907D01*
X130432429Y-99613139D01*
X130339403Y-99573909D01*
X130280021Y-99569663D01*
X130180302Y-99584990D01*
X130131521Y-99613139D01*
X130074735Y-99696028D01*
X130064110Y-99731841D01*
X130050243Y-99828641D01*
X130047502Y-99902811D01*
X129633646Y-99902811D01*
X129634182Y-99887393D01*
X129645722Y-99784963D01*
X129667902Y-99679584D01*
X129691884Y-99604834D01*
X129738271Y-99509789D01*
X129800496Y-99429819D01*
X129878558Y-99364923D01*
X129896071Y-99353753D01*
X129984308Y-99311721D01*
X130088000Y-99283445D01*
X130193147Y-99269859D01*
X130280021Y-99266802D01*
X130382707Y-99270963D01*
G37*
G36*
X131896380Y-99295551D02*
G01*
X131998080Y-99306840D01*
X132068856Y-99320536D01*
X132162436Y-99349447D01*
X132250592Y-99394647D01*
X132278904Y-99414325D01*
X132352778Y-99485995D01*
X132405459Y-99571480D01*
X132414703Y-99592134D01*
X132445698Y-99692697D01*
X132459583Y-99792901D01*
X132462575Y-99874478D01*
X132456287Y-99979556D01*
X132435450Y-100078291D01*
X132424473Y-100109928D01*
X132378067Y-100197612D01*
X132314075Y-100265267D01*
X132226402Y-100315514D01*
X132131870Y-100342448D01*
X132233357Y-100368531D01*
X132325521Y-100415014D01*
X132354131Y-100436237D01*
X132422893Y-100506962D01*
X132474451Y-100594331D01*
X132486022Y-100622350D01*
X132514171Y-100723440D01*
X132526780Y-100821194D01*
X132529498Y-100899321D01*
X132525538Y-100997267D01*
X132512037Y-101096411D01*
X132488953Y-101186551D01*
X132449481Y-101280826D01*
X132392366Y-101366845D01*
X132368297Y-101393669D01*
X132291054Y-101458143D01*
X132198663Y-101507097D01*
X132169484Y-101518233D01*
X132074687Y-101543832D01*
X131977652Y-101556919D01*
X131891047Y-101560243D01*
X131238918Y-101560243D01*
X131238918Y-101269105D01*
X131653154Y-101269105D01*
X131809958Y-101269105D01*
X131915412Y-101260232D01*
X132010850Y-101226160D01*
X132064459Y-101178247D01*
X132108105Y-101087742D01*
X132127657Y-100985722D01*
X132131870Y-100896879D01*
X132126549Y-100793897D01*
X132107186Y-100696310D01*
X132099630Y-100674129D01*
X132046535Y-100587943D01*
X131993140Y-100546635D01*
X131900707Y-100513856D01*
X131795792Y-100504625D01*
X131653154Y-100504625D01*
X131653154Y-101269105D01*
X131238918Y-101269105D01*
X131238918Y-100218861D01*
X131653154Y-100218861D01*
X131793350Y-100218861D01*
X131896411Y-100210918D01*
X131983371Y-100182713D01*
X132056666Y-100114098D01*
X132077160Y-100070850D01*
X132098884Y-99973305D01*
X132104027Y-99880340D01*
X132095118Y-99779354D01*
X132063482Y-99694227D01*
X131992596Y-99625766D01*
X131941361Y-99604346D01*
X131842521Y-99585669D01*
X131742076Y-99580433D01*
X131734243Y-99580410D01*
X131653154Y-99580410D01*
X131653154Y-100218861D01*
X131238918Y-100218861D01*
X131238918Y-99292203D01*
X131795792Y-99292203D01*
X131896380Y-99295551D01*
G37*
G36*
X132809400Y-101560243D02*
G01*
X132809400Y-99292203D01*
X133217774Y-99292203D01*
X133217774Y-101560243D01*
X132809400Y-101560243D01*
G37*
G36*
X133794676Y-101560243D02*
G01*
X133794676Y-99597507D01*
X133433685Y-99597507D01*
X133433685Y-99292203D01*
X134564529Y-99292203D01*
X134564529Y-99597507D01*
X134208911Y-99597507D01*
X134208911Y-101560243D01*
X133794676Y-101560243D01*
G37*
G36*
X138730757Y-101130000D02*
G01*
X138539027Y-101130000D01*
X138494330Y-100868171D01*
X138296982Y-100868171D01*
X138250576Y-101130000D01*
X138056158Y-101130000D01*
X138134803Y-100736524D01*
X138317987Y-100736524D01*
X138471860Y-100736524D01*
X138394923Y-100260495D01*
X138317987Y-100736524D01*
X138134803Y-100736524D01*
X138282816Y-99995980D01*
X138504100Y-99995980D01*
X138730757Y-101130000D01*
G37*
G36*
X138844330Y-101130000D02*
G01*
X138844330Y-99995980D01*
X139310345Y-99995980D01*
X139310345Y-100138862D01*
X139051448Y-100138862D01*
X139051448Y-100469078D01*
X139262962Y-100469078D01*
X139262962Y-100613426D01*
X139051448Y-100613426D01*
X139051448Y-101130000D01*
X138844330Y-101130000D01*
G37*
G36*
X139421720Y-101130000D02*
G01*
X139421720Y-99995980D01*
X139897749Y-99995980D01*
X139897749Y-100141549D01*
X139628838Y-100141549D01*
X139628838Y-100467857D01*
X139840352Y-100467857D01*
X139840352Y-100611960D01*
X139628838Y-100611960D01*
X139628838Y-100987117D01*
X139900436Y-100987117D01*
X139900436Y-101130000D01*
X139421720Y-101130000D01*
G37*
G36*
X140332502Y-101130000D02*
G01*
X140332502Y-100992735D01*
X140612404Y-100560181D01*
X140640626Y-100516496D01*
X140667130Y-100474744D01*
X140670534Y-100469323D01*
X140695386Y-100424993D01*
X140715230Y-100378953D01*
X140728419Y-100329738D01*
X140732799Y-100279384D01*
X140732816Y-100275882D01*
X140728515Y-100226521D01*
X140710345Y-100179406D01*
X140670234Y-100149684D01*
X140640492Y-100145701D01*
X140592159Y-100155623D01*
X140570394Y-100171102D01*
X140543423Y-100212966D01*
X140536200Y-100236803D01*
X140528893Y-100285121D01*
X140527163Y-100326441D01*
X140527163Y-100374068D01*
X140336654Y-100374068D01*
X140336654Y-100323510D01*
X140339030Y-100268838D01*
X140346159Y-100218031D01*
X140359655Y-100166110D01*
X140366696Y-100146678D01*
X140389083Y-100102118D01*
X140421698Y-100060540D01*
X140462683Y-100026755D01*
X140507730Y-100003828D01*
X140555083Y-99990454D01*
X140608889Y-99983959D01*
X140634874Y-99983279D01*
X140686904Y-99986036D01*
X140741137Y-99996219D01*
X140788404Y-100013905D01*
X140833894Y-100043306D01*
X140853228Y-100061681D01*
X140885071Y-100104744D01*
X140907816Y-100155532D01*
X140920255Y-100206307D01*
X140925728Y-100262996D01*
X140926012Y-100280279D01*
X140923264Y-100330848D01*
X140914086Y-100381524D01*
X140906472Y-100407041D01*
X140886944Y-100455687D01*
X140864458Y-100499184D01*
X140854693Y-100515484D01*
X140827571Y-100557999D01*
X140798594Y-100601400D01*
X140784595Y-100621730D01*
X140552320Y-100974661D01*
X140896703Y-100974661D01*
X140896703Y-101130000D01*
X140332502Y-101130000D01*
G37*
G36*
X141036410Y-101130000D02*
G01*
X141036410Y-100938269D01*
X141221301Y-100938269D01*
X141221301Y-101130000D01*
X141036410Y-101130000D01*
G37*
G36*
X141697071Y-99984684D02*
G01*
X141746425Y-99993914D01*
X141794329Y-100011965D01*
X141815544Y-100024068D01*
X141856395Y-100056846D01*
X141889281Y-100097416D01*
X141912264Y-100141060D01*
X141928880Y-100190181D01*
X141938572Y-100238509D01*
X141943280Y-100290739D01*
X141943772Y-100315205D01*
X141943772Y-100817857D01*
X141941164Y-100870367D01*
X141933339Y-100919360D01*
X141918527Y-100969673D01*
X141910799Y-100988583D01*
X141887043Y-101031841D01*
X141853638Y-101072151D01*
X141812613Y-101104842D01*
X141768645Y-101126996D01*
X141717950Y-101140945D01*
X141666574Y-101146483D01*
X141648238Y-101146852D01*
X141595026Y-101143529D01*
X141542247Y-101132042D01*
X141496146Y-101112350D01*
X141483618Y-101104842D01*
X141442733Y-101072151D01*
X141409410Y-101031841D01*
X141385677Y-100988583D01*
X141368418Y-100940006D01*
X141357551Y-100887089D01*
X141353236Y-100835751D01*
X141352948Y-100817857D01*
X141352948Y-100317892D01*
X141548831Y-100317892D01*
X141548831Y-100814926D01*
X141552525Y-100865658D01*
X141556647Y-100889176D01*
X141573512Y-100935920D01*
X141585223Y-100953656D01*
X141628546Y-100978615D01*
X141648238Y-100980279D01*
X141697396Y-100967695D01*
X141712718Y-100953656D01*
X141735594Y-100909582D01*
X141740562Y-100889176D01*
X141746808Y-100840119D01*
X141747645Y-100814926D01*
X141747645Y-100317892D01*
X141744910Y-100266917D01*
X141741295Y-100240467D01*
X141725857Y-100193062D01*
X141714184Y-100175254D01*
X141671624Y-100150738D01*
X141648238Y-100148632D01*
X141599777Y-100160097D01*
X141582537Y-100175254D01*
X141559913Y-100219707D01*
X141555181Y-100240467D01*
X141549582Y-100291112D01*
X141548831Y-100317892D01*
X141352948Y-100317892D01*
X141352948Y-100315205D01*
X141355441Y-100261240D01*
X141362917Y-100211178D01*
X141377071Y-100160130D01*
X141384456Y-100141060D01*
X141407415Y-100097416D01*
X141440220Y-100056846D01*
X141480932Y-100024068D01*
X141525291Y-100001914D01*
X141576854Y-99987966D01*
X141629420Y-99982427D01*
X141648238Y-99982058D01*
X141697071Y-99984684D01*
G37*
X139479819Y-97645654D02*
X140289342Y-97645654D01*
X140289342Y-97645654D02*
X140384580Y-97598035D01*
X140384580Y-97598035D02*
X140432200Y-97550416D01*
X140432200Y-97550416D02*
X140479819Y-97455178D01*
X140479819Y-97455178D02*
X140479819Y-97264702D01*
X140479819Y-97264702D02*
X140432200Y-97169464D01*
X140432200Y-97169464D02*
X140384580Y-97121845D01*
X140384580Y-97121845D02*
X140289342Y-97074226D01*
X140289342Y-97074226D02*
X139479819Y-97074226D01*
X139479819Y-96693273D02*
X139479819Y-96074226D01*
X139479819Y-96074226D02*
X139860771Y-96407559D01*
X139860771Y-96407559D02*
X139860771Y-96264702D01*
X139860771Y-96264702D02*
X139908390Y-96169464D01*
X139908390Y-96169464D02*
X139956009Y-96121845D01*
X139956009Y-96121845D02*
X140051247Y-96074226D01*
X140051247Y-96074226D02*
X140289342Y-96074226D01*
X140289342Y-96074226D02*
X140384580Y-96121845D01*
X140384580Y-96121845D02*
X140432200Y-96169464D01*
X140432200Y-96169464D02*
X140479819Y-96264702D01*
X140479819Y-96264702D02*
X140479819Y-96550416D01*
X140479819Y-96550416D02*
X140432200Y-96645654D01*
X140432200Y-96645654D02*
X140384580Y-96693273D01*
X155454819Y-79166666D02*
X154978628Y-79499999D01*
X155454819Y-79738094D02*
X154454819Y-79738094D01*
X154454819Y-79738094D02*
X154454819Y-79357142D01*
X154454819Y-79357142D02*
X154502438Y-79261904D01*
X154502438Y-79261904D02*
X154550057Y-79214285D01*
X154550057Y-79214285D02*
X154645295Y-79166666D01*
X154645295Y-79166666D02*
X154788152Y-79166666D01*
X154788152Y-79166666D02*
X154883390Y-79214285D01*
X154883390Y-79214285D02*
X154931009Y-79261904D01*
X154931009Y-79261904D02*
X154978628Y-79357142D01*
X154978628Y-79357142D02*
X154978628Y-79738094D01*
X154454819Y-78833332D02*
X154454819Y-78214285D01*
X154454819Y-78214285D02*
X154835771Y-78547618D01*
X154835771Y-78547618D02*
X154835771Y-78404761D01*
X154835771Y-78404761D02*
X154883390Y-78309523D01*
X154883390Y-78309523D02*
X154931009Y-78261904D01*
X154931009Y-78261904D02*
X155026247Y-78214285D01*
X155026247Y-78214285D02*
X155264342Y-78214285D01*
X155264342Y-78214285D02*
X155359580Y-78261904D01*
X155359580Y-78261904D02*
X155407200Y-78309523D01*
X155407200Y-78309523D02*
X155454819Y-78404761D01*
X155454819Y-78404761D02*
X155454819Y-78690475D01*
X155454819Y-78690475D02*
X155407200Y-78785713D01*
X155407200Y-78785713D02*
X155359580Y-78833332D01*
X156007344Y-87547839D02*
X155959725Y-87595459D01*
X155959725Y-87595459D02*
X155816868Y-87643078D01*
X155816868Y-87643078D02*
X155721630Y-87643078D01*
X155721630Y-87643078D02*
X155578773Y-87595459D01*
X155578773Y-87595459D02*
X155483535Y-87500220D01*
X155483535Y-87500220D02*
X155435916Y-87404982D01*
X155435916Y-87404982D02*
X155388297Y-87214506D01*
X155388297Y-87214506D02*
X155388297Y-87071649D01*
X155388297Y-87071649D02*
X155435916Y-86881173D01*
X155435916Y-86881173D02*
X155483535Y-86785935D01*
X155483535Y-86785935D02*
X155578773Y-86690697D01*
X155578773Y-86690697D02*
X155721630Y-86643078D01*
X155721630Y-86643078D02*
X155816868Y-86643078D01*
X155816868Y-86643078D02*
X155959725Y-86690697D01*
X155959725Y-86690697D02*
X156007344Y-86738316D01*
X156959725Y-87643078D02*
X156388297Y-87643078D01*
X156674011Y-87643078D02*
X156674011Y-86643078D01*
X156674011Y-86643078D02*
X156578773Y-86785935D01*
X156578773Y-86785935D02*
X156483535Y-86881173D01*
X156483535Y-86881173D02*
X156388297Y-86928792D01*
X157293059Y-86643078D02*
X157912106Y-86643078D01*
X157912106Y-86643078D02*
X157578773Y-87024030D01*
X157578773Y-87024030D02*
X157721630Y-87024030D01*
X157721630Y-87024030D02*
X157816868Y-87071649D01*
X157816868Y-87071649D02*
X157864487Y-87119268D01*
X157864487Y-87119268D02*
X157912106Y-87214506D01*
X157912106Y-87214506D02*
X157912106Y-87452601D01*
X157912106Y-87452601D02*
X157864487Y-87547839D01*
X157864487Y-87547839D02*
X157816868Y-87595459D01*
X157816868Y-87595459D02*
X157721630Y-87643078D01*
X157721630Y-87643078D02*
X157435916Y-87643078D01*
X157435916Y-87643078D02*
X157340678Y-87595459D01*
X157340678Y-87595459D02*
X157293059Y-87547839D01*
G36*
X125050527Y-81205223D02*
G01*
X125129793Y-81217701D01*
X125205971Y-81242101D01*
X125239365Y-81258461D01*
X125302806Y-81302617D01*
X125353086Y-81357511D01*
X125387376Y-81416730D01*
X125413657Y-81491080D01*
X125428083Y-81566185D01*
X125433357Y-81639897D01*
X125433538Y-81657065D01*
X125433538Y-81825226D01*
X126189714Y-81825226D01*
X126189714Y-82135903D01*
X124488684Y-82135903D01*
X124488684Y-81707623D01*
X124707037Y-81707623D01*
X124707037Y-81825226D01*
X125215185Y-81825226D01*
X125215185Y-81707623D01*
X125209231Y-81632885D01*
X125191371Y-81576465D01*
X125138614Y-81522060D01*
X125113702Y-81511252D01*
X125041638Y-81496736D01*
X124969720Y-81493300D01*
X124895529Y-81495965D01*
X124819511Y-81507222D01*
X124752199Y-81542985D01*
X124734515Y-81565840D01*
X124711572Y-81637564D01*
X124707037Y-81707623D01*
X124488684Y-81707623D01*
X124488684Y-81636182D01*
X124493176Y-81554591D01*
X124506652Y-81482099D01*
X124532161Y-81412225D01*
X124545471Y-81387421D01*
X124590572Y-81327655D01*
X124647795Y-81279839D01*
X124710335Y-81246737D01*
X124782284Y-81222973D01*
X124854563Y-81209111D01*
X124933971Y-81202378D01*
X124971552Y-81201674D01*
X125050527Y-81205223D01*
G37*
G36*
X126212794Y-80614392D02*
G01*
X126209062Y-80687825D01*
X126195941Y-80762938D01*
X126170281Y-80837084D01*
X126153077Y-80870481D01*
X126110122Y-80929922D01*
X126050392Y-80983985D01*
X125984747Y-81022839D01*
X125977589Y-81026186D01*
X125908500Y-81052004D01*
X125831066Y-81070519D01*
X125755228Y-81080845D01*
X125694023Y-81084804D01*
X125641633Y-80818091D01*
X125717957Y-80812216D01*
X125791768Y-80800075D01*
X125816022Y-80794277D01*
X125886491Y-80766974D01*
X125932526Y-80733094D01*
X125968710Y-80668036D01*
X125973559Y-80625017D01*
X125957672Y-80550588D01*
X125928496Y-80517672D01*
X125858614Y-80489888D01*
X125813824Y-80486165D01*
X125735908Y-80493274D01*
X125664174Y-80517023D01*
X125631008Y-80536723D01*
X125573023Y-80583304D01*
X125519605Y-80636069D01*
X125488492Y-80671179D01*
X125299448Y-80885135D01*
X125243929Y-80942976D01*
X125184168Y-80992072D01*
X125126158Y-81029117D01*
X125055094Y-81059570D01*
X124981248Y-81076285D01*
X124907263Y-81082397D01*
X124889853Y-81082606D01*
X124806115Y-81076978D01*
X124731212Y-81060096D01*
X124656428Y-81027020D01*
X124593184Y-80979244D01*
X124579176Y-80965003D01*
X124531251Y-80900820D01*
X124497019Y-80825876D01*
X124478298Y-80751471D01*
X124470061Y-80668827D01*
X124469633Y-80643701D01*
X124474006Y-80566265D01*
X124488749Y-80492454D01*
X124506636Y-80444399D01*
X124544163Y-80380756D01*
X124596509Y-80326419D01*
X124608485Y-80317271D01*
X124673304Y-80278277D01*
X124746172Y-80249908D01*
X124756496Y-80246929D01*
X124830838Y-80229959D01*
X124908967Y-80219440D01*
X124931985Y-80217620D01*
X124978147Y-80482135D01*
X124902493Y-80488638D01*
X124835265Y-80500087D01*
X124764392Y-80527029D01*
X124736713Y-80548447D01*
X124703649Y-80614796D01*
X124700809Y-80649930D01*
X124718412Y-80724061D01*
X124745872Y-80756175D01*
X124814641Y-80788482D01*
X124858346Y-80792812D01*
X124932379Y-80785003D01*
X125000129Y-80757274D01*
X125060124Y-80710338D01*
X125114434Y-80654326D01*
X125301280Y-80442201D01*
X125353351Y-80385490D01*
X125410232Y-80333648D01*
X125471924Y-80286675D01*
X125508276Y-80262682D01*
X125578929Y-80226554D01*
X125657349Y-80202250D01*
X125733576Y-80190572D01*
X125794773Y-80187944D01*
X125868339Y-80193204D01*
X125943063Y-80211138D01*
X126011294Y-80241800D01*
X126076415Y-80287841D01*
X126129996Y-80345733D01*
X126159305Y-80390910D01*
X126189759Y-80460294D01*
X126207571Y-80537470D01*
X126212794Y-80614392D01*
G37*
G36*
X126189714Y-79826709D02*
G01*
X124488684Y-80068143D01*
X124488684Y-79808024D01*
X125591074Y-79666974D01*
X124493081Y-79490753D01*
X124493081Y-79278628D01*
X125591074Y-79098010D01*
X124488684Y-78959525D01*
X124488684Y-78703436D01*
X126189714Y-78940474D01*
X126189714Y-79192532D01*
X125049588Y-79381576D01*
X126189714Y-79568422D01*
X126189714Y-79826709D01*
G37*
G36*
X126189714Y-78340369D02*
G01*
X124717662Y-78340369D01*
X124717662Y-78611112D01*
X124488684Y-78611112D01*
X124488684Y-77762979D01*
X124717662Y-77762979D01*
X124717662Y-78029692D01*
X126189714Y-78029692D01*
X126189714Y-78340369D01*
G37*
X155454819Y-82166666D02*
X154978628Y-82499999D01*
X155454819Y-82738094D02*
X154454819Y-82738094D01*
X154454819Y-82738094D02*
X154454819Y-82357142D01*
X154454819Y-82357142D02*
X154502438Y-82261904D01*
X154502438Y-82261904D02*
X154550057Y-82214285D01*
X154550057Y-82214285D02*
X154645295Y-82166666D01*
X154645295Y-82166666D02*
X154788152Y-82166666D01*
X154788152Y-82166666D02*
X154883390Y-82214285D01*
X154883390Y-82214285D02*
X154931009Y-82261904D01*
X154931009Y-82261904D02*
X154978628Y-82357142D01*
X154978628Y-82357142D02*
X154978628Y-82738094D01*
X154788152Y-81309523D02*
X155454819Y-81309523D01*
X154407200Y-81547618D02*
X155121485Y-81785713D01*
X155121485Y-81785713D02*
X155121485Y-81166666D01*
X156059913Y-92461788D02*
X155726580Y-91985597D01*
X155488485Y-92461788D02*
X155488485Y-91461788D01*
X155488485Y-91461788D02*
X155869437Y-91461788D01*
X155869437Y-91461788D02*
X155964675Y-91509407D01*
X155964675Y-91509407D02*
X156012294Y-91557026D01*
X156012294Y-91557026D02*
X156059913Y-91652264D01*
X156059913Y-91652264D02*
X156059913Y-91795121D01*
X156059913Y-91795121D02*
X156012294Y-91890359D01*
X156012294Y-91890359D02*
X155964675Y-91937978D01*
X155964675Y-91937978D02*
X155869437Y-91985597D01*
X155869437Y-91985597D02*
X155488485Y-91985597D01*
X156440866Y-91557026D02*
X156488485Y-91509407D01*
X156488485Y-91509407D02*
X156583723Y-91461788D01*
X156583723Y-91461788D02*
X156821818Y-91461788D01*
X156821818Y-91461788D02*
X156917056Y-91509407D01*
X156917056Y-91509407D02*
X156964675Y-91557026D01*
X156964675Y-91557026D02*
X157012294Y-91652264D01*
X157012294Y-91652264D02*
X157012294Y-91747502D01*
X157012294Y-91747502D02*
X156964675Y-91890359D01*
X156964675Y-91890359D02*
X156393247Y-92461788D01*
X156393247Y-92461788D02*
X157012294Y-92461788D01*
X157964675Y-92461788D02*
X157393247Y-92461788D01*
X157678961Y-92461788D02*
X157678961Y-91461788D01*
X157678961Y-91461788D02*
X157583723Y-91604645D01*
X157583723Y-91604645D02*
X157488485Y-91699883D01*
X157488485Y-91699883D02*
X157393247Y-91747502D01*
X149111460Y-92472097D02*
X148778127Y-91995906D01*
X148540032Y-92472097D02*
X148540032Y-91472097D01*
X148540032Y-91472097D02*
X148920984Y-91472097D01*
X148920984Y-91472097D02*
X149016222Y-91519716D01*
X149016222Y-91519716D02*
X149063841Y-91567335D01*
X149063841Y-91567335D02*
X149111460Y-91662573D01*
X149111460Y-91662573D02*
X149111460Y-91805430D01*
X149111460Y-91805430D02*
X149063841Y-91900668D01*
X149063841Y-91900668D02*
X149016222Y-91948287D01*
X149016222Y-91948287D02*
X148920984Y-91995906D01*
X148920984Y-91995906D02*
X148540032Y-91995906D01*
X149492413Y-91567335D02*
X149540032Y-91519716D01*
X149540032Y-91519716D02*
X149635270Y-91472097D01*
X149635270Y-91472097D02*
X149873365Y-91472097D01*
X149873365Y-91472097D02*
X149968603Y-91519716D01*
X149968603Y-91519716D02*
X150016222Y-91567335D01*
X150016222Y-91567335D02*
X150063841Y-91662573D01*
X150063841Y-91662573D02*
X150063841Y-91757811D01*
X150063841Y-91757811D02*
X150016222Y-91900668D01*
X150016222Y-91900668D02*
X149444794Y-92472097D01*
X149444794Y-92472097D02*
X150063841Y-92472097D01*
X150682889Y-91472097D02*
X150778127Y-91472097D01*
X150778127Y-91472097D02*
X150873365Y-91519716D01*
X150873365Y-91519716D02*
X150920984Y-91567335D01*
X150920984Y-91567335D02*
X150968603Y-91662573D01*
X150968603Y-91662573D02*
X151016222Y-91853049D01*
X151016222Y-91853049D02*
X151016222Y-92091144D01*
X151016222Y-92091144D02*
X150968603Y-92281620D01*
X150968603Y-92281620D02*
X150920984Y-92376858D01*
X150920984Y-92376858D02*
X150873365Y-92424478D01*
X150873365Y-92424478D02*
X150778127Y-92472097D01*
X150778127Y-92472097D02*
X150682889Y-92472097D01*
X150682889Y-92472097D02*
X150587651Y-92424478D01*
X150587651Y-92424478D02*
X150540032Y-92376858D01*
X150540032Y-92376858D02*
X150492413Y-92281620D01*
X150492413Y-92281620D02*
X150444794Y-92091144D01*
X150444794Y-92091144D02*
X150444794Y-91853049D01*
X150444794Y-91853049D02*
X150492413Y-91662573D01*
X150492413Y-91662573D02*
X150540032Y-91567335D01*
X150540032Y-91567335D02*
X150587651Y-91519716D01*
X150587651Y-91519716D02*
X150682889Y-91472097D01*
X128731602Y-94343005D02*
X128683983Y-94390625D01*
X128683983Y-94390625D02*
X128541126Y-94438244D01*
X128541126Y-94438244D02*
X128445888Y-94438244D01*
X128445888Y-94438244D02*
X128303031Y-94390625D01*
X128303031Y-94390625D02*
X128207793Y-94295386D01*
X128207793Y-94295386D02*
X128160174Y-94200148D01*
X128160174Y-94200148D02*
X128112555Y-94009672D01*
X128112555Y-94009672D02*
X128112555Y-93866815D01*
X128112555Y-93866815D02*
X128160174Y-93676339D01*
X128160174Y-93676339D02*
X128207793Y-93581101D01*
X128207793Y-93581101D02*
X128303031Y-93485863D01*
X128303031Y-93485863D02*
X128445888Y-93438244D01*
X128445888Y-93438244D02*
X128541126Y-93438244D01*
X128541126Y-93438244D02*
X128683983Y-93485863D01*
X128683983Y-93485863D02*
X128731602Y-93533482D01*
X129588745Y-93771577D02*
X129588745Y-94438244D01*
X129350650Y-93390625D02*
X129112555Y-94104910D01*
X129112555Y-94104910D02*
X129731602Y-94104910D01*
X129832628Y-107461901D02*
X129499295Y-106985710D01*
X129261200Y-107461901D02*
X129261200Y-106461901D01*
X129261200Y-106461901D02*
X129642152Y-106461901D01*
X129642152Y-106461901D02*
X129737390Y-106509520D01*
X129737390Y-106509520D02*
X129785009Y-106557139D01*
X129785009Y-106557139D02*
X129832628Y-106652377D01*
X129832628Y-106652377D02*
X129832628Y-106795234D01*
X129832628Y-106795234D02*
X129785009Y-106890472D01*
X129785009Y-106890472D02*
X129737390Y-106938091D01*
X129737390Y-106938091D02*
X129642152Y-106985710D01*
X129642152Y-106985710D02*
X129261200Y-106985710D01*
X130785009Y-107461901D02*
X130213581Y-107461901D01*
X130499295Y-107461901D02*
X130499295Y-106461901D01*
X130499295Y-106461901D02*
X130404057Y-106604758D01*
X130404057Y-106604758D02*
X130308819Y-106699996D01*
X130308819Y-106699996D02*
X130213581Y-106747615D01*
X131118343Y-106461901D02*
X131785009Y-106461901D01*
X131785009Y-106461901D02*
X131356438Y-107461901D01*
X148855801Y-109500904D02*
X148522468Y-109024713D01*
X148284373Y-109500904D02*
X148284373Y-108500904D01*
X148284373Y-108500904D02*
X148665325Y-108500904D01*
X148665325Y-108500904D02*
X148760563Y-108548523D01*
X148760563Y-108548523D02*
X148808182Y-108596142D01*
X148808182Y-108596142D02*
X148855801Y-108691380D01*
X148855801Y-108691380D02*
X148855801Y-108834237D01*
X148855801Y-108834237D02*
X148808182Y-108929475D01*
X148808182Y-108929475D02*
X148760563Y-108977094D01*
X148760563Y-108977094D02*
X148665325Y-109024713D01*
X148665325Y-109024713D02*
X148284373Y-109024713D01*
X149808182Y-109500904D02*
X149236754Y-109500904D01*
X149522468Y-109500904D02*
X149522468Y-108500904D01*
X149522468Y-108500904D02*
X149427230Y-108643761D01*
X149427230Y-108643761D02*
X149331992Y-108738999D01*
X149331992Y-108738999D02*
X149236754Y-108786618D01*
X150379611Y-108929475D02*
X150284373Y-108881856D01*
X150284373Y-108881856D02*
X150236754Y-108834237D01*
X150236754Y-108834237D02*
X150189135Y-108738999D01*
X150189135Y-108738999D02*
X150189135Y-108691380D01*
X150189135Y-108691380D02*
X150236754Y-108596142D01*
X150236754Y-108596142D02*
X150284373Y-108548523D01*
X150284373Y-108548523D02*
X150379611Y-108500904D01*
X150379611Y-108500904D02*
X150570087Y-108500904D01*
X150570087Y-108500904D02*
X150665325Y-108548523D01*
X150665325Y-108548523D02*
X150712944Y-108596142D01*
X150712944Y-108596142D02*
X150760563Y-108691380D01*
X150760563Y-108691380D02*
X150760563Y-108738999D01*
X150760563Y-108738999D02*
X150712944Y-108834237D01*
X150712944Y-108834237D02*
X150665325Y-108881856D01*
X150665325Y-108881856D02*
X150570087Y-108929475D01*
X150570087Y-108929475D02*
X150379611Y-108929475D01*
X150379611Y-108929475D02*
X150284373Y-108977094D01*
X150284373Y-108977094D02*
X150236754Y-109024713D01*
X150236754Y-109024713D02*
X150189135Y-109119951D01*
X150189135Y-109119951D02*
X150189135Y-109310427D01*
X150189135Y-109310427D02*
X150236754Y-109405665D01*
X150236754Y-109405665D02*
X150284373Y-109453285D01*
X150284373Y-109453285D02*
X150379611Y-109500904D01*
X150379611Y-109500904D02*
X150570087Y-109500904D01*
X150570087Y-109500904D02*
X150665325Y-109453285D01*
X150665325Y-109453285D02*
X150712944Y-109405665D01*
X150712944Y-109405665D02*
X150760563Y-109310427D01*
X150760563Y-109310427D02*
X150760563Y-109119951D01*
X150760563Y-109119951D02*
X150712944Y-109024713D01*
X150712944Y-109024713D02*
X150665325Y-108977094D01*
X150665325Y-108977094D02*
X150570087Y-108929475D01*
G36*
X139834321Y-84282654D02*
G01*
X139885171Y-84288298D01*
X139920559Y-84295146D01*
X139967349Y-84309602D01*
X140011427Y-84332202D01*
X140025584Y-84342041D01*
X140062520Y-84377876D01*
X140088861Y-84420618D01*
X140093483Y-84430945D01*
X140108981Y-84481227D01*
X140115923Y-84531329D01*
X140117419Y-84572117D01*
X140114275Y-84624656D01*
X140103856Y-84674024D01*
X140098368Y-84689842D01*
X140075165Y-84733684D01*
X140043169Y-84767512D01*
X139999332Y-84792635D01*
X139952066Y-84806102D01*
X140002810Y-84819144D01*
X140048892Y-84842385D01*
X140063197Y-84852997D01*
X140097578Y-84888359D01*
X140123357Y-84932044D01*
X140129142Y-84946053D01*
X140143217Y-84996598D01*
X140149521Y-85045475D01*
X140150880Y-85084539D01*
X140148900Y-85133512D01*
X140142150Y-85183084D01*
X140130608Y-85228154D01*
X140110872Y-85275291D01*
X140082314Y-85318301D01*
X140070280Y-85331713D01*
X140031658Y-85363950D01*
X139985463Y-85388427D01*
X139970873Y-85393995D01*
X139923475Y-85406794D01*
X139874957Y-85413338D01*
X139831655Y-85415000D01*
X139505590Y-85415000D01*
X139505590Y-85269431D01*
X139712708Y-85269431D01*
X139791110Y-85269431D01*
X139843837Y-85264994D01*
X139891556Y-85247958D01*
X139918361Y-85224002D01*
X139940184Y-85178749D01*
X139949960Y-85127739D01*
X139952066Y-85083318D01*
X139949406Y-85031827D01*
X139939725Y-84983033D01*
X139935946Y-84971943D01*
X139909399Y-84928850D01*
X139882701Y-84908196D01*
X139836485Y-84891806D01*
X139784027Y-84887191D01*
X139712708Y-84887191D01*
X139712708Y-85269431D01*
X139505590Y-85269431D01*
X139505590Y-84744309D01*
X139712708Y-84744309D01*
X139782806Y-84744309D01*
X139834337Y-84740337D01*
X139877817Y-84726235D01*
X139914464Y-84691927D01*
X139924711Y-84670303D01*
X139935573Y-84621531D01*
X139938145Y-84575048D01*
X139933690Y-84524555D01*
X139917872Y-84481992D01*
X139882430Y-84447761D01*
X139856812Y-84437051D01*
X139807392Y-84427713D01*
X139757169Y-84425095D01*
X139753253Y-84425083D01*
X139712708Y-84425083D01*
X139712708Y-84744309D01*
X139505590Y-84744309D01*
X139505590Y-84280980D01*
X139784027Y-84280980D01*
X139834321Y-84282654D01*
G37*
G36*
X140899484Y-85415000D02*
G01*
X140707754Y-85415000D01*
X140663057Y-85153171D01*
X140465709Y-85153171D01*
X140419303Y-85415000D01*
X140224886Y-85415000D01*
X140303530Y-85021524D01*
X140486714Y-85021524D01*
X140640587Y-85021524D01*
X140563651Y-84545495D01*
X140486714Y-85021524D01*
X140303530Y-85021524D01*
X140451543Y-84280980D01*
X140672827Y-84280980D01*
X140899484Y-85415000D01*
G37*
G36*
X141065814Y-85415000D02*
G01*
X141065814Y-84433632D01*
X140885318Y-84433632D01*
X140885318Y-84280980D01*
X141450741Y-84280980D01*
X141450741Y-84433632D01*
X141272932Y-84433632D01*
X141272932Y-85415000D01*
X141065814Y-85415000D01*
G37*
X124731982Y-96211844D02*
X124684363Y-96259464D01*
X124684363Y-96259464D02*
X124541506Y-96307083D01*
X124541506Y-96307083D02*
X124446268Y-96307083D01*
X124446268Y-96307083D02*
X124303411Y-96259464D01*
X124303411Y-96259464D02*
X124208173Y-96164225D01*
X124208173Y-96164225D02*
X124160554Y-96068987D01*
X124160554Y-96068987D02*
X124112935Y-95878511D01*
X124112935Y-95878511D02*
X124112935Y-95735654D01*
X124112935Y-95735654D02*
X124160554Y-95545178D01*
X124160554Y-95545178D02*
X124208173Y-95449940D01*
X124208173Y-95449940D02*
X124303411Y-95354702D01*
X124303411Y-95354702D02*
X124446268Y-95307083D01*
X124446268Y-95307083D02*
X124541506Y-95307083D01*
X124541506Y-95307083D02*
X124684363Y-95354702D01*
X124684363Y-95354702D02*
X124731982Y-95402321D01*
X125636744Y-95307083D02*
X125160554Y-95307083D01*
X125160554Y-95307083D02*
X125112935Y-95783273D01*
X125112935Y-95783273D02*
X125160554Y-95735654D01*
X125160554Y-95735654D02*
X125255792Y-95688035D01*
X125255792Y-95688035D02*
X125493887Y-95688035D01*
X125493887Y-95688035D02*
X125589125Y-95735654D01*
X125589125Y-95735654D02*
X125636744Y-95783273D01*
X125636744Y-95783273D02*
X125684363Y-95878511D01*
X125684363Y-95878511D02*
X125684363Y-96116606D01*
X125684363Y-96116606D02*
X125636744Y-96211844D01*
X125636744Y-96211844D02*
X125589125Y-96259464D01*
X125589125Y-96259464D02*
X125493887Y-96307083D01*
X125493887Y-96307083D02*
X125255792Y-96307083D01*
X125255792Y-96307083D02*
X125160554Y-96259464D01*
X125160554Y-96259464D02*
X125112935Y-96211844D01*
X124830737Y-98256638D02*
X124783118Y-98304258D01*
X124783118Y-98304258D02*
X124640261Y-98351877D01*
X124640261Y-98351877D02*
X124545023Y-98351877D01*
X124545023Y-98351877D02*
X124402166Y-98304258D01*
X124402166Y-98304258D02*
X124306928Y-98209019D01*
X124306928Y-98209019D02*
X124259309Y-98113781D01*
X124259309Y-98113781D02*
X124211690Y-97923305D01*
X124211690Y-97923305D02*
X124211690Y-97780448D01*
X124211690Y-97780448D02*
X124259309Y-97589972D01*
X124259309Y-97589972D02*
X124306928Y-97494734D01*
X124306928Y-97494734D02*
X124402166Y-97399496D01*
X124402166Y-97399496D02*
X124545023Y-97351877D01*
X124545023Y-97351877D02*
X124640261Y-97351877D01*
X124640261Y-97351877D02*
X124783118Y-97399496D01*
X124783118Y-97399496D02*
X124830737Y-97447115D01*
X125164071Y-97351877D02*
X125830737Y-97351877D01*
X125830737Y-97351877D02*
X125402166Y-98351877D01*
G36*
X126124383Y-116300765D02*
G01*
X124423353Y-116271456D01*
X124423353Y-115950155D01*
X125601581Y-115708354D01*
X124423353Y-115456662D01*
X124423353Y-115145619D01*
X126124383Y-115114112D01*
X126124383Y-115345287D01*
X124942125Y-115370566D01*
X126124383Y-115612001D01*
X126124383Y-115798846D01*
X124937729Y-116044677D01*
X126124383Y-116067758D01*
X126124383Y-116300765D01*
G37*
G36*
X126147463Y-114453923D02*
G01*
X126143731Y-114527356D01*
X126130610Y-114602469D01*
X126104950Y-114676615D01*
X126087746Y-114710012D01*
X126044791Y-114769453D01*
X125985061Y-114823516D01*
X125919416Y-114862370D01*
X125912258Y-114865717D01*
X125843169Y-114891534D01*
X125765735Y-114910049D01*
X125689897Y-114920376D01*
X125628692Y-114924335D01*
X125576302Y-114657622D01*
X125652626Y-114651747D01*
X125726437Y-114639606D01*
X125750691Y-114633808D01*
X125821160Y-114606505D01*
X125867195Y-114572625D01*
X125903379Y-114507567D01*
X125908228Y-114464548D01*
X125892341Y-114390119D01*
X125863165Y-114357203D01*
X125793283Y-114329419D01*
X125748493Y-114325696D01*
X125670577Y-114332805D01*
X125598843Y-114356554D01*
X125565677Y-114376254D01*
X125507692Y-114422835D01*
X125454274Y-114475600D01*
X125423161Y-114510710D01*
X125234117Y-114724666D01*
X125178598Y-114782507D01*
X125118837Y-114831603D01*
X125060827Y-114868647D01*
X124989763Y-114899101D01*
X124915917Y-114915816D01*
X124841932Y-114921928D01*
X124824522Y-114922137D01*
X124740784Y-114916509D01*
X124665881Y-114899627D01*
X124591097Y-114866551D01*
X124527853Y-114818775D01*
X124513845Y-114804534D01*
X124465920Y-114740351D01*
X124431688Y-114665407D01*
X124412967Y-114591002D01*
X124404730Y-114508358D01*
X124404302Y-114483232D01*
X124408675Y-114405796D01*
X124423418Y-114331985D01*
X124441305Y-114283930D01*
X124478832Y-114220287D01*
X124531178Y-114165950D01*
X124543154Y-114156802D01*
X124607973Y-114117807D01*
X124680841Y-114089439D01*
X124691165Y-114086460D01*
X124765507Y-114069490D01*
X124843636Y-114058971D01*
X124866654Y-114057151D01*
X124912816Y-114321666D01*
X124837162Y-114328169D01*
X124769934Y-114339617D01*
X124699061Y-114366560D01*
X124671382Y-114387978D01*
X124638318Y-114454327D01*
X124635478Y-114489460D01*
X124653081Y-114563592D01*
X124680541Y-114595706D01*
X124749310Y-114628013D01*
X124793015Y-114632342D01*
X124867048Y-114624534D01*
X124934798Y-114596805D01*
X124994793Y-114549869D01*
X125049103Y-114493857D01*
X125235949Y-114281732D01*
X125288020Y-114225021D01*
X125344901Y-114173179D01*
X125406593Y-114126206D01*
X125442945Y-114102213D01*
X125513598Y-114066085D01*
X125592018Y-114041780D01*
X125668245Y-114030103D01*
X125729442Y-114027475D01*
X125803008Y-114032734D01*
X125877732Y-114050669D01*
X125945963Y-114081331D01*
X126011084Y-114127372D01*
X126064665Y-114185264D01*
X126093974Y-114230441D01*
X126124428Y-114299825D01*
X126142240Y-114377001D01*
X126147463Y-114453923D01*
G37*
G36*
X126124383Y-113666240D02*
G01*
X124423353Y-113907674D01*
X124423353Y-113647555D01*
X125525743Y-113506505D01*
X124427750Y-113330284D01*
X124427750Y-113118159D01*
X125525743Y-112937541D01*
X124423353Y-112799056D01*
X124423353Y-112542967D01*
X126124383Y-112780005D01*
X126124383Y-113032063D01*
X124984257Y-113221107D01*
X126124383Y-113407953D01*
X126124383Y-113666240D01*
G37*
G36*
X126124383Y-112179900D02*
G01*
X124652331Y-112179900D01*
X124652331Y-112450643D01*
X124423353Y-112450643D01*
X124423353Y-111602510D01*
X124652331Y-111602510D01*
X124652331Y-111869223D01*
X126124383Y-111869223D01*
X126124383Y-112179900D01*
G37*
X131522827Y-94343005D02*
X131475208Y-94390625D01*
X131475208Y-94390625D02*
X131332351Y-94438244D01*
X131332351Y-94438244D02*
X131237113Y-94438244D01*
X131237113Y-94438244D02*
X131094256Y-94390625D01*
X131094256Y-94390625D02*
X130999018Y-94295386D01*
X130999018Y-94295386D02*
X130951399Y-94200148D01*
X130951399Y-94200148D02*
X130903780Y-94009672D01*
X130903780Y-94009672D02*
X130903780Y-93866815D01*
X130903780Y-93866815D02*
X130951399Y-93676339D01*
X130951399Y-93676339D02*
X130999018Y-93581101D01*
X130999018Y-93581101D02*
X131094256Y-93485863D01*
X131094256Y-93485863D02*
X131237113Y-93438244D01*
X131237113Y-93438244D02*
X131332351Y-93438244D01*
X131332351Y-93438244D02*
X131475208Y-93485863D01*
X131475208Y-93485863D02*
X131522827Y-93533482D01*
X131903780Y-93533482D02*
X131951399Y-93485863D01*
X131951399Y-93485863D02*
X132046637Y-93438244D01*
X132046637Y-93438244D02*
X132284732Y-93438244D01*
X132284732Y-93438244D02*
X132379970Y-93485863D01*
X132379970Y-93485863D02*
X132427589Y-93533482D01*
X132427589Y-93533482D02*
X132475208Y-93628720D01*
X132475208Y-93628720D02*
X132475208Y-93723958D01*
X132475208Y-93723958D02*
X132427589Y-93866815D01*
X132427589Y-93866815D02*
X131856161Y-94438244D01*
X131856161Y-94438244D02*
X132475208Y-94438244D01*
X130308819Y-103454819D02*
X129975486Y-102978628D01*
X129737391Y-103454819D02*
X129737391Y-102454819D01*
X129737391Y-102454819D02*
X130118343Y-102454819D01*
X130118343Y-102454819D02*
X130213581Y-102502438D01*
X130213581Y-102502438D02*
X130261200Y-102550057D01*
X130261200Y-102550057D02*
X130308819Y-102645295D01*
X130308819Y-102645295D02*
X130308819Y-102788152D01*
X130308819Y-102788152D02*
X130261200Y-102883390D01*
X130261200Y-102883390D02*
X130213581Y-102931009D01*
X130213581Y-102931009D02*
X130118343Y-102978628D01*
X130118343Y-102978628D02*
X129737391Y-102978628D01*
X130785010Y-103454819D02*
X130975486Y-103454819D01*
X130975486Y-103454819D02*
X131070724Y-103407200D01*
X131070724Y-103407200D02*
X131118343Y-103359580D01*
X131118343Y-103359580D02*
X131213581Y-103216723D01*
X131213581Y-103216723D02*
X131261200Y-103026247D01*
X131261200Y-103026247D02*
X131261200Y-102645295D01*
X131261200Y-102645295D02*
X131213581Y-102550057D01*
X131213581Y-102550057D02*
X131165962Y-102502438D01*
X131165962Y-102502438D02*
X131070724Y-102454819D01*
X131070724Y-102454819D02*
X130880248Y-102454819D01*
X130880248Y-102454819D02*
X130785010Y-102502438D01*
X130785010Y-102502438D02*
X130737391Y-102550057D01*
X130737391Y-102550057D02*
X130689772Y-102645295D01*
X130689772Y-102645295D02*
X130689772Y-102883390D01*
X130689772Y-102883390D02*
X130737391Y-102978628D01*
X130737391Y-102978628D02*
X130785010Y-103026247D01*
X130785010Y-103026247D02*
X130880248Y-103073866D01*
X130880248Y-103073866D02*
X131070724Y-103073866D01*
X131070724Y-103073866D02*
X131165962Y-103026247D01*
X131165962Y-103026247D02*
X131213581Y-102978628D01*
X131213581Y-102978628D02*
X131261200Y-102883390D01*
X148855801Y-103476012D02*
X148522468Y-102999821D01*
X148284373Y-103476012D02*
X148284373Y-102476012D01*
X148284373Y-102476012D02*
X148665325Y-102476012D01*
X148665325Y-102476012D02*
X148760563Y-102523631D01*
X148760563Y-102523631D02*
X148808182Y-102571250D01*
X148808182Y-102571250D02*
X148855801Y-102666488D01*
X148855801Y-102666488D02*
X148855801Y-102809345D01*
X148855801Y-102809345D02*
X148808182Y-102904583D01*
X148808182Y-102904583D02*
X148760563Y-102952202D01*
X148760563Y-102952202D02*
X148665325Y-102999821D01*
X148665325Y-102999821D02*
X148284373Y-102999821D01*
X149808182Y-103476012D02*
X149236754Y-103476012D01*
X149522468Y-103476012D02*
X149522468Y-102476012D01*
X149522468Y-102476012D02*
X149427230Y-102618869D01*
X149427230Y-102618869D02*
X149331992Y-102714107D01*
X149331992Y-102714107D02*
X149236754Y-102761726D01*
X150189135Y-102571250D02*
X150236754Y-102523631D01*
X150236754Y-102523631D02*
X150331992Y-102476012D01*
X150331992Y-102476012D02*
X150570087Y-102476012D01*
X150570087Y-102476012D02*
X150665325Y-102523631D01*
X150665325Y-102523631D02*
X150712944Y-102571250D01*
X150712944Y-102571250D02*
X150760563Y-102666488D01*
X150760563Y-102666488D02*
X150760563Y-102761726D01*
X150760563Y-102761726D02*
X150712944Y-102904583D01*
X150712944Y-102904583D02*
X150141516Y-103476012D01*
X150141516Y-103476012D02*
X150760563Y-103476012D01*
X130782657Y-98275261D02*
X130449324Y-97799070D01*
X130211229Y-98275261D02*
X130211229Y-97275261D01*
X130211229Y-97275261D02*
X130592181Y-97275261D01*
X130592181Y-97275261D02*
X130687419Y-97322880D01*
X130687419Y-97322880D02*
X130735038Y-97370499D01*
X130735038Y-97370499D02*
X130782657Y-97465737D01*
X130782657Y-97465737D02*
X130782657Y-97608594D01*
X130782657Y-97608594D02*
X130735038Y-97703832D01*
X130735038Y-97703832D02*
X130687419Y-97751451D01*
X130687419Y-97751451D02*
X130592181Y-97799070D01*
X130592181Y-97799070D02*
X130211229Y-97799070D01*
X131115991Y-97275261D02*
X131782657Y-97275261D01*
X131782657Y-97275261D02*
X131354086Y-98275261D01*
X129832628Y-105454819D02*
X129499295Y-104978628D01*
X129261200Y-105454819D02*
X129261200Y-104454819D01*
X129261200Y-104454819D02*
X129642152Y-104454819D01*
X129642152Y-104454819D02*
X129737390Y-104502438D01*
X129737390Y-104502438D02*
X129785009Y-104550057D01*
X129785009Y-104550057D02*
X129832628Y-104645295D01*
X129832628Y-104645295D02*
X129832628Y-104788152D01*
X129832628Y-104788152D02*
X129785009Y-104883390D01*
X129785009Y-104883390D02*
X129737390Y-104931009D01*
X129737390Y-104931009D02*
X129642152Y-104978628D01*
X129642152Y-104978628D02*
X129261200Y-104978628D01*
X130785009Y-105454819D02*
X130213581Y-105454819D01*
X130499295Y-105454819D02*
X130499295Y-104454819D01*
X130499295Y-104454819D02*
X130404057Y-104597676D01*
X130404057Y-104597676D02*
X130308819Y-104692914D01*
X130308819Y-104692914D02*
X130213581Y-104740533D01*
X131737390Y-105454819D02*
X131165962Y-105454819D01*
X131451676Y-105454819D02*
X131451676Y-104454819D01*
X131451676Y-104454819D02*
X131356438Y-104597676D01*
X131356438Y-104597676D02*
X131261200Y-104692914D01*
X131261200Y-104692914D02*
X131165962Y-104740533D01*
G36*
X149483313Y-114530380D02*
G01*
X149562579Y-114542858D01*
X149638757Y-114567258D01*
X149672151Y-114583618D01*
X149735592Y-114627774D01*
X149785872Y-114682668D01*
X149820162Y-114741887D01*
X149846443Y-114816237D01*
X149860869Y-114891342D01*
X149866143Y-114965054D01*
X149866324Y-114982222D01*
X149866324Y-115150383D01*
X150622500Y-115150383D01*
X150622500Y-115461060D01*
X148921470Y-115461060D01*
X148921470Y-115032780D01*
X149139823Y-115032780D01*
X149139823Y-115150383D01*
X149647971Y-115150383D01*
X149647971Y-115032780D01*
X149642017Y-114958042D01*
X149624157Y-114901622D01*
X149571400Y-114847217D01*
X149546488Y-114836409D01*
X149474424Y-114821893D01*
X149402506Y-114818457D01*
X149328315Y-114821122D01*
X149252297Y-114832379D01*
X149184985Y-114868142D01*
X149167301Y-114890997D01*
X149144358Y-114962721D01*
X149139823Y-115032780D01*
X148921470Y-115032780D01*
X148921470Y-114961339D01*
X148925962Y-114879748D01*
X148939438Y-114807256D01*
X148964947Y-114737382D01*
X148978257Y-114712578D01*
X149023358Y-114652812D01*
X149080581Y-114604996D01*
X149143121Y-114571894D01*
X149215070Y-114548130D01*
X149287349Y-114534268D01*
X149366757Y-114527535D01*
X149404338Y-114526831D01*
X149483313Y-114530380D01*
G37*
G36*
X150171253Y-113404314D02*
G01*
X150247800Y-113413175D01*
X150327183Y-113430206D01*
X150383996Y-113448621D01*
X150456568Y-113483919D01*
X150518120Y-113530738D01*
X150568653Y-113589077D01*
X150577437Y-113602128D01*
X150610377Y-113667915D01*
X150632537Y-113746165D01*
X150643185Y-113826181D01*
X150645580Y-113892655D01*
X150642372Y-113968169D01*
X150630849Y-114045884D01*
X150607868Y-114122365D01*
X150578536Y-114180617D01*
X150530679Y-114241539D01*
X150471374Y-114290583D01*
X150400620Y-114327749D01*
X150385095Y-114333757D01*
X150310552Y-114356072D01*
X150238161Y-114369776D01*
X150160000Y-114377710D01*
X150086875Y-114379919D01*
X149450867Y-114379919D01*
X149367862Y-114377034D01*
X149291040Y-114368379D01*
X149212005Y-114351744D01*
X149155943Y-114333757D01*
X149084660Y-114298967D01*
X149024682Y-114252298D01*
X148976010Y-114193752D01*
X148967632Y-114180617D01*
X148936108Y-114114439D01*
X148914901Y-114036670D01*
X148904712Y-113957810D01*
X148902419Y-113892655D01*
X149129565Y-113892655D01*
X149141060Y-113967444D01*
X149162172Y-114004029D01*
X149224339Y-114046619D01*
X149251198Y-114054588D01*
X149323798Y-114064988D01*
X149379426Y-114067044D01*
X150162712Y-114067044D01*
X150237365Y-114063450D01*
X150290940Y-114055687D01*
X150359765Y-114027272D01*
X150383264Y-114006227D01*
X150413347Y-113936332D01*
X150416603Y-113892655D01*
X150406054Y-113818260D01*
X150383264Y-113778349D01*
X150321942Y-113738175D01*
X150290940Y-113729256D01*
X150217279Y-113718550D01*
X150162712Y-113716433D01*
X149379426Y-113716433D01*
X149303691Y-113720491D01*
X149251198Y-113729256D01*
X149182248Y-113759654D01*
X149162172Y-113778349D01*
X149132749Y-113848118D01*
X149129565Y-113892655D01*
X148902419Y-113892655D01*
X148905540Y-113815640D01*
X148916748Y-113736855D01*
X148939101Y-113659990D01*
X148967632Y-113602128D01*
X149014043Y-113541484D01*
X149071760Y-113492362D01*
X149140782Y-113454759D01*
X149155943Y-113448621D01*
X149228892Y-113425775D01*
X149309666Y-113410406D01*
X149388034Y-113403022D01*
X149450867Y-113401360D01*
X150089073Y-113401360D01*
X150171253Y-113404314D01*
G37*
G36*
X150622500Y-113015212D02*
G01*
X149150448Y-113015212D01*
X149150448Y-113285955D01*
X148921470Y-113285955D01*
X148921470Y-112437822D01*
X149150448Y-112437822D01*
X149150448Y-112704535D01*
X150622500Y-112704535D01*
X150622500Y-113015212D01*
G37*
X131522827Y-84343005D02*
X131475208Y-84390625D01*
X131475208Y-84390625D02*
X131332351Y-84438244D01*
X131332351Y-84438244D02*
X131237113Y-84438244D01*
X131237113Y-84438244D02*
X131094256Y-84390625D01*
X131094256Y-84390625D02*
X130999018Y-84295386D01*
X130999018Y-84295386D02*
X130951399Y-84200148D01*
X130951399Y-84200148D02*
X130903780Y-84009672D01*
X130903780Y-84009672D02*
X130903780Y-83866815D01*
X130903780Y-83866815D02*
X130951399Y-83676339D01*
X130951399Y-83676339D02*
X130999018Y-83581101D01*
X130999018Y-83581101D02*
X131094256Y-83485863D01*
X131094256Y-83485863D02*
X131237113Y-83438244D01*
X131237113Y-83438244D02*
X131332351Y-83438244D01*
X131332351Y-83438244D02*
X131475208Y-83485863D01*
X131475208Y-83485863D02*
X131522827Y-83533482D01*
X131856161Y-83438244D02*
X132475208Y-83438244D01*
X132475208Y-83438244D02*
X132141875Y-83819196D01*
X132141875Y-83819196D02*
X132284732Y-83819196D01*
X132284732Y-83819196D02*
X132379970Y-83866815D01*
X132379970Y-83866815D02*
X132427589Y-83914434D01*
X132427589Y-83914434D02*
X132475208Y-84009672D01*
X132475208Y-84009672D02*
X132475208Y-84247767D01*
X132475208Y-84247767D02*
X132427589Y-84343005D01*
X132427589Y-84343005D02*
X132379970Y-84390625D01*
X132379970Y-84390625D02*
X132284732Y-84438244D01*
X132284732Y-84438244D02*
X131999018Y-84438244D01*
X131999018Y-84438244D02*
X131903780Y-84390625D01*
X131903780Y-84390625D02*
X131856161Y-84343005D01*
X139454819Y-106761904D02*
X140264342Y-106761904D01*
X140264342Y-106761904D02*
X140359580Y-106714285D01*
X140359580Y-106714285D02*
X140407200Y-106666666D01*
X140407200Y-106666666D02*
X140454819Y-106571428D01*
X140454819Y-106571428D02*
X140454819Y-106380952D01*
X140454819Y-106380952D02*
X140407200Y-106285714D01*
X140407200Y-106285714D02*
X140359580Y-106238095D01*
X140359580Y-106238095D02*
X140264342Y-106190476D01*
X140264342Y-106190476D02*
X139454819Y-106190476D01*
X139550057Y-105761904D02*
X139502438Y-105714285D01*
X139502438Y-105714285D02*
X139454819Y-105619047D01*
X139454819Y-105619047D02*
X139454819Y-105380952D01*
X139454819Y-105380952D02*
X139502438Y-105285714D01*
X139502438Y-105285714D02*
X139550057Y-105238095D01*
X139550057Y-105238095D02*
X139645295Y-105190476D01*
X139645295Y-105190476D02*
X139740533Y-105190476D01*
X139740533Y-105190476D02*
X139883390Y-105238095D01*
X139883390Y-105238095D02*
X140454819Y-105809523D01*
X140454819Y-105809523D02*
X140454819Y-105190476D01*
X130719930Y-96296192D02*
X130386597Y-95820001D01*
X130148502Y-96296192D02*
X130148502Y-95296192D01*
X130148502Y-95296192D02*
X130529454Y-95296192D01*
X130529454Y-95296192D02*
X130624692Y-95343811D01*
X130624692Y-95343811D02*
X130672311Y-95391430D01*
X130672311Y-95391430D02*
X130719930Y-95486668D01*
X130719930Y-95486668D02*
X130719930Y-95629525D01*
X130719930Y-95629525D02*
X130672311Y-95724763D01*
X130672311Y-95724763D02*
X130624692Y-95772382D01*
X130624692Y-95772382D02*
X130529454Y-95820001D01*
X130529454Y-95820001D02*
X130148502Y-95820001D01*
X131624692Y-95296192D02*
X131148502Y-95296192D01*
X131148502Y-95296192D02*
X131100883Y-95772382D01*
X131100883Y-95772382D02*
X131148502Y-95724763D01*
X131148502Y-95724763D02*
X131243740Y-95677144D01*
X131243740Y-95677144D02*
X131481835Y-95677144D01*
X131481835Y-95677144D02*
X131577073Y-95724763D01*
X131577073Y-95724763D02*
X131624692Y-95772382D01*
X131624692Y-95772382D02*
X131672311Y-95867620D01*
X131672311Y-95867620D02*
X131672311Y-96105715D01*
X131672311Y-96105715D02*
X131624692Y-96200953D01*
X131624692Y-96200953D02*
X131577073Y-96248573D01*
X131577073Y-96248573D02*
X131481835Y-96296192D01*
X131481835Y-96296192D02*
X131243740Y-96296192D01*
X131243740Y-96296192D02*
X131148502Y-96248573D01*
X131148502Y-96248573D02*
X131100883Y-96200953D01*
X122842652Y-105335835D02*
X122795033Y-105383455D01*
X122795033Y-105383455D02*
X122652176Y-105431074D01*
X122652176Y-105431074D02*
X122556938Y-105431074D01*
X122556938Y-105431074D02*
X122414081Y-105383455D01*
X122414081Y-105383455D02*
X122318843Y-105288216D01*
X122318843Y-105288216D02*
X122271224Y-105192978D01*
X122271224Y-105192978D02*
X122223605Y-105002502D01*
X122223605Y-105002502D02*
X122223605Y-104859645D01*
X122223605Y-104859645D02*
X122271224Y-104669169D01*
X122271224Y-104669169D02*
X122318843Y-104573931D01*
X122318843Y-104573931D02*
X122414081Y-104478693D01*
X122414081Y-104478693D02*
X122556938Y-104431074D01*
X122556938Y-104431074D02*
X122652176Y-104431074D01*
X122652176Y-104431074D02*
X122795033Y-104478693D01*
X122795033Y-104478693D02*
X122842652Y-104526312D01*
X123795033Y-105431074D02*
X123223605Y-105431074D01*
X123509319Y-105431074D02*
X123509319Y-104431074D01*
X123509319Y-104431074D02*
X123414081Y-104573931D01*
X123414081Y-104573931D02*
X123318843Y-104669169D01*
X123318843Y-104669169D02*
X123223605Y-104716788D01*
X124747414Y-105431074D02*
X124175986Y-105431074D01*
X124461700Y-105431074D02*
X124461700Y-104431074D01*
X124461700Y-104431074D02*
X124366462Y-104573931D01*
X124366462Y-104573931D02*
X124271224Y-104669169D01*
X124271224Y-104669169D02*
X124175986Y-104716788D01*
X145638251Y-83454819D02*
X145304918Y-82978628D01*
X145066823Y-83454819D02*
X145066823Y-82454819D01*
X145066823Y-82454819D02*
X145447775Y-82454819D01*
X145447775Y-82454819D02*
X145543013Y-82502438D01*
X145543013Y-82502438D02*
X145590632Y-82550057D01*
X145590632Y-82550057D02*
X145638251Y-82645295D01*
X145638251Y-82645295D02*
X145638251Y-82788152D01*
X145638251Y-82788152D02*
X145590632Y-82883390D01*
X145590632Y-82883390D02*
X145543013Y-82931009D01*
X145543013Y-82931009D02*
X145447775Y-82978628D01*
X145447775Y-82978628D02*
X145066823Y-82978628D01*
X146590632Y-83454819D02*
X146019204Y-83454819D01*
X146304918Y-83454819D02*
X146304918Y-82454819D01*
X146304918Y-82454819D02*
X146209680Y-82597676D01*
X146209680Y-82597676D02*
X146114442Y-82692914D01*
X146114442Y-82692914D02*
X146019204Y-82740533D01*
X147447775Y-82454819D02*
X147257299Y-82454819D01*
X147257299Y-82454819D02*
X147162061Y-82502438D01*
X147162061Y-82502438D02*
X147114442Y-82550057D01*
X147114442Y-82550057D02*
X147019204Y-82692914D01*
X147019204Y-82692914D02*
X146971585Y-82883390D01*
X146971585Y-82883390D02*
X146971585Y-83264342D01*
X146971585Y-83264342D02*
X147019204Y-83359580D01*
X147019204Y-83359580D02*
X147066823Y-83407200D01*
X147066823Y-83407200D02*
X147162061Y-83454819D01*
X147162061Y-83454819D02*
X147352537Y-83454819D01*
X147352537Y-83454819D02*
X147447775Y-83407200D01*
X147447775Y-83407200D02*
X147495394Y-83359580D01*
X147495394Y-83359580D02*
X147543013Y-83264342D01*
X147543013Y-83264342D02*
X147543013Y-83026247D01*
X147543013Y-83026247D02*
X147495394Y-82931009D01*
X147495394Y-82931009D02*
X147447775Y-82883390D01*
X147447775Y-82883390D02*
X147352537Y-82835771D01*
X147352537Y-82835771D02*
X147162061Y-82835771D01*
X147162061Y-82835771D02*
X147066823Y-82883390D01*
X147066823Y-82883390D02*
X147019204Y-82931009D01*
X147019204Y-82931009D02*
X146971585Y-83026247D01*
X148833333Y-98282319D02*
X148500000Y-97806128D01*
X148261905Y-98282319D02*
X148261905Y-97282319D01*
X148261905Y-97282319D02*
X148642857Y-97282319D01*
X148642857Y-97282319D02*
X148738095Y-97329938D01*
X148738095Y-97329938D02*
X148785714Y-97377557D01*
X148785714Y-97377557D02*
X148833333Y-97472795D01*
X148833333Y-97472795D02*
X148833333Y-97615652D01*
X148833333Y-97615652D02*
X148785714Y-97710890D01*
X148785714Y-97710890D02*
X148738095Y-97758509D01*
X148738095Y-97758509D02*
X148642857Y-97806128D01*
X148642857Y-97806128D02*
X148261905Y-97806128D01*
X149404762Y-97710890D02*
X149309524Y-97663271D01*
X149309524Y-97663271D02*
X149261905Y-97615652D01*
X149261905Y-97615652D02*
X149214286Y-97520414D01*
X149214286Y-97520414D02*
X149214286Y-97472795D01*
X149214286Y-97472795D02*
X149261905Y-97377557D01*
X149261905Y-97377557D02*
X149309524Y-97329938D01*
X149309524Y-97329938D02*
X149404762Y-97282319D01*
X149404762Y-97282319D02*
X149595238Y-97282319D01*
X149595238Y-97282319D02*
X149690476Y-97329938D01*
X149690476Y-97329938D02*
X149738095Y-97377557D01*
X149738095Y-97377557D02*
X149785714Y-97472795D01*
X149785714Y-97472795D02*
X149785714Y-97520414D01*
X149785714Y-97520414D02*
X149738095Y-97615652D01*
X149738095Y-97615652D02*
X149690476Y-97663271D01*
X149690476Y-97663271D02*
X149595238Y-97710890D01*
X149595238Y-97710890D02*
X149404762Y-97710890D01*
X149404762Y-97710890D02*
X149309524Y-97758509D01*
X149309524Y-97758509D02*
X149261905Y-97806128D01*
X149261905Y-97806128D02*
X149214286Y-97901366D01*
X149214286Y-97901366D02*
X149214286Y-98091842D01*
X149214286Y-98091842D02*
X149261905Y-98187080D01*
X149261905Y-98187080D02*
X149309524Y-98234700D01*
X149309524Y-98234700D02*
X149404762Y-98282319D01*
X149404762Y-98282319D02*
X149595238Y-98282319D01*
X149595238Y-98282319D02*
X149690476Y-98234700D01*
X149690476Y-98234700D02*
X149738095Y-98187080D01*
X149738095Y-98187080D02*
X149785714Y-98091842D01*
X149785714Y-98091842D02*
X149785714Y-97901366D01*
X149785714Y-97901366D02*
X149738095Y-97806128D01*
X149738095Y-97806128D02*
X149690476Y-97758509D01*
X149690476Y-97758509D02*
X149595238Y-97710890D01*
X155788164Y-107341770D02*
X155740545Y-107389390D01*
X155740545Y-107389390D02*
X155597688Y-107437009D01*
X155597688Y-107437009D02*
X155502450Y-107437009D01*
X155502450Y-107437009D02*
X155359593Y-107389390D01*
X155359593Y-107389390D02*
X155264355Y-107294151D01*
X155264355Y-107294151D02*
X155216736Y-107198913D01*
X155216736Y-107198913D02*
X155169117Y-107008437D01*
X155169117Y-107008437D02*
X155169117Y-106865580D01*
X155169117Y-106865580D02*
X155216736Y-106675104D01*
X155216736Y-106675104D02*
X155264355Y-106579866D01*
X155264355Y-106579866D02*
X155359593Y-106484628D01*
X155359593Y-106484628D02*
X155502450Y-106437009D01*
X155502450Y-106437009D02*
X155597688Y-106437009D01*
X155597688Y-106437009D02*
X155740545Y-106484628D01*
X155740545Y-106484628D02*
X155788164Y-106532247D01*
X156740545Y-107437009D02*
X156169117Y-107437009D01*
X156454831Y-107437009D02*
X156454831Y-106437009D01*
X156454831Y-106437009D02*
X156359593Y-106579866D01*
X156359593Y-106579866D02*
X156264355Y-106675104D01*
X156264355Y-106675104D02*
X156169117Y-106722723D01*
X157073879Y-106437009D02*
X157740545Y-106437009D01*
X157740545Y-106437009D02*
X157311974Y-107437009D01*
X124359580Y-103190411D02*
X124407200Y-103238030D01*
X124407200Y-103238030D02*
X124454819Y-103380887D01*
X124454819Y-103380887D02*
X124454819Y-103476125D01*
X124454819Y-103476125D02*
X124407200Y-103618982D01*
X124407200Y-103618982D02*
X124311961Y-103714220D01*
X124311961Y-103714220D02*
X124216723Y-103761839D01*
X124216723Y-103761839D02*
X124026247Y-103809458D01*
X124026247Y-103809458D02*
X123883390Y-103809458D01*
X123883390Y-103809458D02*
X123692914Y-103761839D01*
X123692914Y-103761839D02*
X123597676Y-103714220D01*
X123597676Y-103714220D02*
X123502438Y-103618982D01*
X123502438Y-103618982D02*
X123454819Y-103476125D01*
X123454819Y-103476125D02*
X123454819Y-103380887D01*
X123454819Y-103380887D02*
X123502438Y-103238030D01*
X123502438Y-103238030D02*
X123550057Y-103190411D01*
X124454819Y-102714220D02*
X124454819Y-102523744D01*
X124454819Y-102523744D02*
X124407200Y-102428506D01*
X124407200Y-102428506D02*
X124359580Y-102380887D01*
X124359580Y-102380887D02*
X124216723Y-102285649D01*
X124216723Y-102285649D02*
X124026247Y-102238030D01*
X124026247Y-102238030D02*
X123645295Y-102238030D01*
X123645295Y-102238030D02*
X123550057Y-102285649D01*
X123550057Y-102285649D02*
X123502438Y-102333268D01*
X123502438Y-102333268D02*
X123454819Y-102428506D01*
X123454819Y-102428506D02*
X123454819Y-102618982D01*
X123454819Y-102618982D02*
X123502438Y-102714220D01*
X123502438Y-102714220D02*
X123550057Y-102761839D01*
X123550057Y-102761839D02*
X123645295Y-102809458D01*
X123645295Y-102809458D02*
X123883390Y-102809458D01*
X123883390Y-102809458D02*
X123978628Y-102761839D01*
X123978628Y-102761839D02*
X124026247Y-102714220D01*
X124026247Y-102714220D02*
X124073866Y-102618982D01*
X124073866Y-102618982D02*
X124073866Y-102428506D01*
X124073866Y-102428506D02*
X124026247Y-102333268D01*
X124026247Y-102333268D02*
X123978628Y-102285649D01*
X123978628Y-102285649D02*
X123883390Y-102238030D01*
X154833333Y-98187080D02*
X154785714Y-98234700D01*
X154785714Y-98234700D02*
X154642857Y-98282319D01*
X154642857Y-98282319D02*
X154547619Y-98282319D01*
X154547619Y-98282319D02*
X154404762Y-98234700D01*
X154404762Y-98234700D02*
X154309524Y-98139461D01*
X154309524Y-98139461D02*
X154261905Y-98044223D01*
X154261905Y-98044223D02*
X154214286Y-97853747D01*
X154214286Y-97853747D02*
X154214286Y-97710890D01*
X154214286Y-97710890D02*
X154261905Y-97520414D01*
X154261905Y-97520414D02*
X154309524Y-97425176D01*
X154309524Y-97425176D02*
X154404762Y-97329938D01*
X154404762Y-97329938D02*
X154547619Y-97282319D01*
X154547619Y-97282319D02*
X154642857Y-97282319D01*
X154642857Y-97282319D02*
X154785714Y-97329938D01*
X154785714Y-97329938D02*
X154833333Y-97377557D01*
X155404762Y-97710890D02*
X155309524Y-97663271D01*
X155309524Y-97663271D02*
X155261905Y-97615652D01*
X155261905Y-97615652D02*
X155214286Y-97520414D01*
X155214286Y-97520414D02*
X155214286Y-97472795D01*
X155214286Y-97472795D02*
X155261905Y-97377557D01*
X155261905Y-97377557D02*
X155309524Y-97329938D01*
X155309524Y-97329938D02*
X155404762Y-97282319D01*
X155404762Y-97282319D02*
X155595238Y-97282319D01*
X155595238Y-97282319D02*
X155690476Y-97329938D01*
X155690476Y-97329938D02*
X155738095Y-97377557D01*
X155738095Y-97377557D02*
X155785714Y-97472795D01*
X155785714Y-97472795D02*
X155785714Y-97520414D01*
X155785714Y-97520414D02*
X155738095Y-97615652D01*
X155738095Y-97615652D02*
X155690476Y-97663271D01*
X155690476Y-97663271D02*
X155595238Y-97710890D01*
X155595238Y-97710890D02*
X155404762Y-97710890D01*
X155404762Y-97710890D02*
X155309524Y-97758509D01*
X155309524Y-97758509D02*
X155261905Y-97806128D01*
X155261905Y-97806128D02*
X155214286Y-97901366D01*
X155214286Y-97901366D02*
X155214286Y-98091842D01*
X155214286Y-98091842D02*
X155261905Y-98187080D01*
X155261905Y-98187080D02*
X155309524Y-98234700D01*
X155309524Y-98234700D02*
X155404762Y-98282319D01*
X155404762Y-98282319D02*
X155595238Y-98282319D01*
X155595238Y-98282319D02*
X155690476Y-98234700D01*
X155690476Y-98234700D02*
X155738095Y-98187080D01*
X155738095Y-98187080D02*
X155785714Y-98091842D01*
X155785714Y-98091842D02*
X155785714Y-97901366D01*
X155785714Y-97901366D02*
X155738095Y-97806128D01*
X155738095Y-97806128D02*
X155690476Y-97758509D01*
X155690476Y-97758509D02*
X155595238Y-97710890D01*
X156007344Y-89972988D02*
X155959725Y-90020608D01*
X155959725Y-90020608D02*
X155816868Y-90068227D01*
X155816868Y-90068227D02*
X155721630Y-90068227D01*
X155721630Y-90068227D02*
X155578773Y-90020608D01*
X155578773Y-90020608D02*
X155483535Y-89925369D01*
X155483535Y-89925369D02*
X155435916Y-89830131D01*
X155435916Y-89830131D02*
X155388297Y-89639655D01*
X155388297Y-89639655D02*
X155388297Y-89496798D01*
X155388297Y-89496798D02*
X155435916Y-89306322D01*
X155435916Y-89306322D02*
X155483535Y-89211084D01*
X155483535Y-89211084D02*
X155578773Y-89115846D01*
X155578773Y-89115846D02*
X155721630Y-89068227D01*
X155721630Y-89068227D02*
X155816868Y-89068227D01*
X155816868Y-89068227D02*
X155959725Y-89115846D01*
X155959725Y-89115846D02*
X156007344Y-89163465D01*
X156959725Y-90068227D02*
X156388297Y-90068227D01*
X156674011Y-90068227D02*
X156674011Y-89068227D01*
X156674011Y-89068227D02*
X156578773Y-89211084D01*
X156578773Y-89211084D02*
X156483535Y-89306322D01*
X156483535Y-89306322D02*
X156388297Y-89353941D01*
X157531154Y-89496798D02*
X157435916Y-89449179D01*
X157435916Y-89449179D02*
X157388297Y-89401560D01*
X157388297Y-89401560D02*
X157340678Y-89306322D01*
X157340678Y-89306322D02*
X157340678Y-89258703D01*
X157340678Y-89258703D02*
X157388297Y-89163465D01*
X157388297Y-89163465D02*
X157435916Y-89115846D01*
X157435916Y-89115846D02*
X157531154Y-89068227D01*
X157531154Y-89068227D02*
X157721630Y-89068227D01*
X157721630Y-89068227D02*
X157816868Y-89115846D01*
X157816868Y-89115846D02*
X157864487Y-89163465D01*
X157864487Y-89163465D02*
X157912106Y-89258703D01*
X157912106Y-89258703D02*
X157912106Y-89306322D01*
X157912106Y-89306322D02*
X157864487Y-89401560D01*
X157864487Y-89401560D02*
X157816868Y-89449179D01*
X157816868Y-89449179D02*
X157721630Y-89496798D01*
X157721630Y-89496798D02*
X157531154Y-89496798D01*
X157531154Y-89496798D02*
X157435916Y-89544417D01*
X157435916Y-89544417D02*
X157388297Y-89592036D01*
X157388297Y-89592036D02*
X157340678Y-89687274D01*
X157340678Y-89687274D02*
X157340678Y-89877750D01*
X157340678Y-89877750D02*
X157388297Y-89972988D01*
X157388297Y-89972988D02*
X157435916Y-90020608D01*
X157435916Y-90020608D02*
X157531154Y-90068227D01*
X157531154Y-90068227D02*
X157721630Y-90068227D01*
X157721630Y-90068227D02*
X157816868Y-90020608D01*
X157816868Y-90020608D02*
X157864487Y-89972988D01*
X157864487Y-89972988D02*
X157912106Y-89877750D01*
X157912106Y-89877750D02*
X157912106Y-89687274D01*
X157912106Y-89687274D02*
X157864487Y-89592036D01*
X157864487Y-89592036D02*
X157816868Y-89544417D01*
X157816868Y-89544417D02*
X157721630Y-89496798D01*
X148833333Y-96282319D02*
X148500000Y-95806128D01*
X148261905Y-96282319D02*
X148261905Y-95282319D01*
X148261905Y-95282319D02*
X148642857Y-95282319D01*
X148642857Y-95282319D02*
X148738095Y-95329938D01*
X148738095Y-95329938D02*
X148785714Y-95377557D01*
X148785714Y-95377557D02*
X148833333Y-95472795D01*
X148833333Y-95472795D02*
X148833333Y-95615652D01*
X148833333Y-95615652D02*
X148785714Y-95710890D01*
X148785714Y-95710890D02*
X148738095Y-95758509D01*
X148738095Y-95758509D02*
X148642857Y-95806128D01*
X148642857Y-95806128D02*
X148261905Y-95806128D01*
X149690476Y-95282319D02*
X149500000Y-95282319D01*
X149500000Y-95282319D02*
X149404762Y-95329938D01*
X149404762Y-95329938D02*
X149357143Y-95377557D01*
X149357143Y-95377557D02*
X149261905Y-95520414D01*
X149261905Y-95520414D02*
X149214286Y-95710890D01*
X149214286Y-95710890D02*
X149214286Y-96091842D01*
X149214286Y-96091842D02*
X149261905Y-96187080D01*
X149261905Y-96187080D02*
X149309524Y-96234700D01*
X149309524Y-96234700D02*
X149404762Y-96282319D01*
X149404762Y-96282319D02*
X149595238Y-96282319D01*
X149595238Y-96282319D02*
X149690476Y-96234700D01*
X149690476Y-96234700D02*
X149738095Y-96187080D01*
X149738095Y-96187080D02*
X149785714Y-96091842D01*
X149785714Y-96091842D02*
X149785714Y-95853747D01*
X149785714Y-95853747D02*
X149738095Y-95758509D01*
X149738095Y-95758509D02*
X149690476Y-95710890D01*
X149690476Y-95710890D02*
X149595238Y-95663271D01*
X149595238Y-95663271D02*
X149404762Y-95663271D01*
X149404762Y-95663271D02*
X149309524Y-95710890D01*
X149309524Y-95710890D02*
X149261905Y-95758509D01*
X149261905Y-95758509D02*
X149214286Y-95853747D01*
X134522827Y-94438244D02*
X134189494Y-93962053D01*
X133951399Y-94438244D02*
X133951399Y-93438244D01*
X133951399Y-93438244D02*
X134332351Y-93438244D01*
X134332351Y-93438244D02*
X134427589Y-93485863D01*
X134427589Y-93485863D02*
X134475208Y-93533482D01*
X134475208Y-93533482D02*
X134522827Y-93628720D01*
X134522827Y-93628720D02*
X134522827Y-93771577D01*
X134522827Y-93771577D02*
X134475208Y-93866815D01*
X134475208Y-93866815D02*
X134427589Y-93914434D01*
X134427589Y-93914434D02*
X134332351Y-93962053D01*
X134332351Y-93962053D02*
X133951399Y-93962053D01*
X135475208Y-94438244D02*
X134903780Y-94438244D01*
X135189494Y-94438244D02*
X135189494Y-93438244D01*
X135189494Y-93438244D02*
X135094256Y-93581101D01*
X135094256Y-93581101D02*
X134999018Y-93676339D01*
X134999018Y-93676339D02*
X134903780Y-93723958D01*
X155750664Y-103341770D02*
X155703045Y-103389390D01*
X155703045Y-103389390D02*
X155560188Y-103437009D01*
X155560188Y-103437009D02*
X155464950Y-103437009D01*
X155464950Y-103437009D02*
X155322093Y-103389390D01*
X155322093Y-103389390D02*
X155226855Y-103294151D01*
X155226855Y-103294151D02*
X155179236Y-103198913D01*
X155179236Y-103198913D02*
X155131617Y-103008437D01*
X155131617Y-103008437D02*
X155131617Y-102865580D01*
X155131617Y-102865580D02*
X155179236Y-102675104D01*
X155179236Y-102675104D02*
X155226855Y-102579866D01*
X155226855Y-102579866D02*
X155322093Y-102484628D01*
X155322093Y-102484628D02*
X155464950Y-102437009D01*
X155464950Y-102437009D02*
X155560188Y-102437009D01*
X155560188Y-102437009D02*
X155703045Y-102484628D01*
X155703045Y-102484628D02*
X155750664Y-102532247D01*
X156703045Y-103437009D02*
X156131617Y-103437009D01*
X156417331Y-103437009D02*
X156417331Y-102437009D01*
X156417331Y-102437009D02*
X156322093Y-102579866D01*
X156322093Y-102579866D02*
X156226855Y-102675104D01*
X156226855Y-102675104D02*
X156131617Y-102722723D01*
X157083998Y-102532247D02*
X157131617Y-102484628D01*
X157131617Y-102484628D02*
X157226855Y-102437009D01*
X157226855Y-102437009D02*
X157464950Y-102437009D01*
X157464950Y-102437009D02*
X157560188Y-102484628D01*
X157560188Y-102484628D02*
X157607807Y-102532247D01*
X157607807Y-102532247D02*
X157655426Y-102627485D01*
X157655426Y-102627485D02*
X157655426Y-102722723D01*
X157655426Y-102722723D02*
X157607807Y-102865580D01*
X157607807Y-102865580D02*
X157036379Y-103437009D01*
X157036379Y-103437009D02*
X157655426Y-103437009D01*
X149082279Y-90026925D02*
X148748946Y-89550734D01*
X148510851Y-90026925D02*
X148510851Y-89026925D01*
X148510851Y-89026925D02*
X148891803Y-89026925D01*
X148891803Y-89026925D02*
X148987041Y-89074544D01*
X148987041Y-89074544D02*
X149034660Y-89122163D01*
X149034660Y-89122163D02*
X149082279Y-89217401D01*
X149082279Y-89217401D02*
X149082279Y-89360258D01*
X149082279Y-89360258D02*
X149034660Y-89455496D01*
X149034660Y-89455496D02*
X148987041Y-89503115D01*
X148987041Y-89503115D02*
X148891803Y-89550734D01*
X148891803Y-89550734D02*
X148510851Y-89550734D01*
X150034660Y-90026925D02*
X149463232Y-90026925D01*
X149748946Y-90026925D02*
X149748946Y-89026925D01*
X149748946Y-89026925D02*
X149653708Y-89169782D01*
X149653708Y-89169782D02*
X149558470Y-89265020D01*
X149558470Y-89265020D02*
X149463232Y-89312639D01*
X150510851Y-90026925D02*
X150701327Y-90026925D01*
X150701327Y-90026925D02*
X150796565Y-89979306D01*
X150796565Y-89979306D02*
X150844184Y-89931686D01*
X150844184Y-89931686D02*
X150939422Y-89788829D01*
X150939422Y-89788829D02*
X150987041Y-89598353D01*
X150987041Y-89598353D02*
X150987041Y-89217401D01*
X150987041Y-89217401D02*
X150939422Y-89122163D01*
X150939422Y-89122163D02*
X150891803Y-89074544D01*
X150891803Y-89074544D02*
X150796565Y-89026925D01*
X150796565Y-89026925D02*
X150606089Y-89026925D01*
X150606089Y-89026925D02*
X150510851Y-89074544D01*
X150510851Y-89074544D02*
X150463232Y-89122163D01*
X150463232Y-89122163D02*
X150415613Y-89217401D01*
X150415613Y-89217401D02*
X150415613Y-89455496D01*
X150415613Y-89455496D02*
X150463232Y-89550734D01*
X150463232Y-89550734D02*
X150510851Y-89598353D01*
X150510851Y-89598353D02*
X150606089Y-89645972D01*
X150606089Y-89645972D02*
X150796565Y-89645972D01*
X150796565Y-89645972D02*
X150891803Y-89598353D01*
X150891803Y-89598353D02*
X150939422Y-89550734D01*
X150939422Y-89550734D02*
X150987041Y-89455496D01*
X139479819Y-90434404D02*
X140289342Y-90434404D01*
X140289342Y-90434404D02*
X140384580Y-90386785D01*
X140384580Y-90386785D02*
X140432200Y-90339166D01*
X140432200Y-90339166D02*
X140479819Y-90243928D01*
X140479819Y-90243928D02*
X140479819Y-90053452D01*
X140479819Y-90053452D02*
X140432200Y-89958214D01*
X140432200Y-89958214D02*
X140384580Y-89910595D01*
X140384580Y-89910595D02*
X140289342Y-89862976D01*
X140289342Y-89862976D02*
X139479819Y-89862976D01*
X140479819Y-88862976D02*
X140479819Y-89434404D01*
X140479819Y-89148690D02*
X139479819Y-89148690D01*
X139479819Y-89148690D02*
X139622676Y-89243928D01*
X139622676Y-89243928D02*
X139717914Y-89339166D01*
X139717914Y-89339166D02*
X139765533Y-89434404D01*
X148855801Y-105476012D02*
X148522468Y-104999821D01*
X148284373Y-105476012D02*
X148284373Y-104476012D01*
X148284373Y-104476012D02*
X148665325Y-104476012D01*
X148665325Y-104476012D02*
X148760563Y-104523631D01*
X148760563Y-104523631D02*
X148808182Y-104571250D01*
X148808182Y-104571250D02*
X148855801Y-104666488D01*
X148855801Y-104666488D02*
X148855801Y-104809345D01*
X148855801Y-104809345D02*
X148808182Y-104904583D01*
X148808182Y-104904583D02*
X148760563Y-104952202D01*
X148760563Y-104952202D02*
X148665325Y-104999821D01*
X148665325Y-104999821D02*
X148284373Y-104999821D01*
X149808182Y-105476012D02*
X149236754Y-105476012D01*
X149522468Y-105476012D02*
X149522468Y-104476012D01*
X149522468Y-104476012D02*
X149427230Y-104618869D01*
X149427230Y-104618869D02*
X149331992Y-104714107D01*
X149331992Y-104714107D02*
X149236754Y-104761726D01*
X150427230Y-104476012D02*
X150522468Y-104476012D01*
X150522468Y-104476012D02*
X150617706Y-104523631D01*
X150617706Y-104523631D02*
X150665325Y-104571250D01*
X150665325Y-104571250D02*
X150712944Y-104666488D01*
X150712944Y-104666488D02*
X150760563Y-104856964D01*
X150760563Y-104856964D02*
X150760563Y-105095059D01*
X150760563Y-105095059D02*
X150712944Y-105285535D01*
X150712944Y-105285535D02*
X150665325Y-105380773D01*
X150665325Y-105380773D02*
X150617706Y-105428393D01*
X150617706Y-105428393D02*
X150522468Y-105476012D01*
X150522468Y-105476012D02*
X150427230Y-105476012D01*
X150427230Y-105476012D02*
X150331992Y-105428393D01*
X150331992Y-105428393D02*
X150284373Y-105380773D01*
X150284373Y-105380773D02*
X150236754Y-105285535D01*
X150236754Y-105285535D02*
X150189135Y-105095059D01*
X150189135Y-105095059D02*
X150189135Y-104856964D01*
X150189135Y-104856964D02*
X150236754Y-104666488D01*
X150236754Y-104666488D02*
X150284373Y-104571250D01*
X150284373Y-104571250D02*
X150331992Y-104523631D01*
X150331992Y-104523631D02*
X150427230Y-104476012D01*
X149790714Y-79738094D02*
X148790714Y-79738094D01*
X148790714Y-79738094D02*
X148790714Y-79499999D01*
X148790714Y-79499999D02*
X148838333Y-79357142D01*
X148838333Y-79357142D02*
X148933571Y-79261904D01*
X148933571Y-79261904D02*
X149028809Y-79214285D01*
X149028809Y-79214285D02*
X149219285Y-79166666D01*
X149219285Y-79166666D02*
X149362142Y-79166666D01*
X149362142Y-79166666D02*
X149552618Y-79214285D01*
X149552618Y-79214285D02*
X149647856Y-79261904D01*
X149647856Y-79261904D02*
X149743095Y-79357142D01*
X149743095Y-79357142D02*
X149790714Y-79499999D01*
X149790714Y-79499999D02*
X149790714Y-79738094D01*
X149790714Y-78214285D02*
X149790714Y-78785713D01*
X149790714Y-78499999D02*
X148790714Y-78499999D01*
X148790714Y-78499999D02*
X148933571Y-78595237D01*
X148933571Y-78595237D02*
X149028809Y-78690475D01*
X149028809Y-78690475D02*
X149076428Y-78785713D01*
X148855801Y-107500904D02*
X148522468Y-107024713D01*
X148284373Y-107500904D02*
X148284373Y-106500904D01*
X148284373Y-106500904D02*
X148665325Y-106500904D01*
X148665325Y-106500904D02*
X148760563Y-106548523D01*
X148760563Y-106548523D02*
X148808182Y-106596142D01*
X148808182Y-106596142D02*
X148855801Y-106691380D01*
X148855801Y-106691380D02*
X148855801Y-106834237D01*
X148855801Y-106834237D02*
X148808182Y-106929475D01*
X148808182Y-106929475D02*
X148760563Y-106977094D01*
X148760563Y-106977094D02*
X148665325Y-107024713D01*
X148665325Y-107024713D02*
X148284373Y-107024713D01*
X149808182Y-107500904D02*
X149236754Y-107500904D01*
X149522468Y-107500904D02*
X149522468Y-106500904D01*
X149522468Y-106500904D02*
X149427230Y-106643761D01*
X149427230Y-106643761D02*
X149331992Y-106738999D01*
X149331992Y-106738999D02*
X149236754Y-106786618D01*
X150712944Y-106500904D02*
X150236754Y-106500904D01*
X150236754Y-106500904D02*
X150189135Y-106977094D01*
X150189135Y-106977094D02*
X150236754Y-106929475D01*
X150236754Y-106929475D02*
X150331992Y-106881856D01*
X150331992Y-106881856D02*
X150570087Y-106881856D01*
X150570087Y-106881856D02*
X150665325Y-106929475D01*
X150665325Y-106929475D02*
X150712944Y-106977094D01*
X150712944Y-106977094D02*
X150760563Y-107072332D01*
X150760563Y-107072332D02*
X150760563Y-107310427D01*
X150760563Y-107310427D02*
X150712944Y-107405665D01*
X150712944Y-107405665D02*
X150665325Y-107453285D01*
X150665325Y-107453285D02*
X150570087Y-107500904D01*
X150570087Y-107500904D02*
X150331992Y-107500904D01*
X150331992Y-107500904D02*
X150236754Y-107453285D01*
X150236754Y-107453285D02*
X150189135Y-107405665D01*
X155713164Y-105341770D02*
X155665545Y-105389390D01*
X155665545Y-105389390D02*
X155522688Y-105437009D01*
X155522688Y-105437009D02*
X155427450Y-105437009D01*
X155427450Y-105437009D02*
X155284593Y-105389390D01*
X155284593Y-105389390D02*
X155189355Y-105294151D01*
X155189355Y-105294151D02*
X155141736Y-105198913D01*
X155141736Y-105198913D02*
X155094117Y-105008437D01*
X155094117Y-105008437D02*
X155094117Y-104865580D01*
X155094117Y-104865580D02*
X155141736Y-104675104D01*
X155141736Y-104675104D02*
X155189355Y-104579866D01*
X155189355Y-104579866D02*
X155284593Y-104484628D01*
X155284593Y-104484628D02*
X155427450Y-104437009D01*
X155427450Y-104437009D02*
X155522688Y-104437009D01*
X155522688Y-104437009D02*
X155665545Y-104484628D01*
X155665545Y-104484628D02*
X155713164Y-104532247D01*
X156665545Y-105437009D02*
X156094117Y-105437009D01*
X156379831Y-105437009D02*
X156379831Y-104437009D01*
X156379831Y-104437009D02*
X156284593Y-104579866D01*
X156284593Y-104579866D02*
X156189355Y-104675104D01*
X156189355Y-104675104D02*
X156094117Y-104722723D01*
X157284593Y-104437009D02*
X157379831Y-104437009D01*
X157379831Y-104437009D02*
X157475069Y-104484628D01*
X157475069Y-104484628D02*
X157522688Y-104532247D01*
X157522688Y-104532247D02*
X157570307Y-104627485D01*
X157570307Y-104627485D02*
X157617926Y-104817961D01*
X157617926Y-104817961D02*
X157617926Y-105056056D01*
X157617926Y-105056056D02*
X157570307Y-105246532D01*
X157570307Y-105246532D02*
X157522688Y-105341770D01*
X157522688Y-105341770D02*
X157475069Y-105389390D01*
X157475069Y-105389390D02*
X157379831Y-105437009D01*
X157379831Y-105437009D02*
X157284593Y-105437009D01*
X157284593Y-105437009D02*
X157189355Y-105389390D01*
X157189355Y-105389390D02*
X157141736Y-105341770D01*
X157141736Y-105341770D02*
X157094117Y-105246532D01*
X157094117Y-105246532D02*
X157046498Y-105056056D01*
X157046498Y-105056056D02*
X157046498Y-104817961D01*
X157046498Y-104817961D02*
X157094117Y-104627485D01*
X157094117Y-104627485D02*
X157141736Y-104532247D01*
X157141736Y-104532247D02*
X157189355Y-104484628D01*
X157189355Y-104484628D02*
X157284593Y-104437009D01*
X129832628Y-109461901D02*
X129499295Y-108985710D01*
X129261200Y-109461901D02*
X129261200Y-108461901D01*
X129261200Y-108461901D02*
X129642152Y-108461901D01*
X129642152Y-108461901D02*
X129737390Y-108509520D01*
X129737390Y-108509520D02*
X129785009Y-108557139D01*
X129785009Y-108557139D02*
X129832628Y-108652377D01*
X129832628Y-108652377D02*
X129832628Y-108795234D01*
X129832628Y-108795234D02*
X129785009Y-108890472D01*
X129785009Y-108890472D02*
X129737390Y-108938091D01*
X129737390Y-108938091D02*
X129642152Y-108985710D01*
X129642152Y-108985710D02*
X129261200Y-108985710D01*
X130785009Y-109461901D02*
X130213581Y-109461901D01*
X130499295Y-109461901D02*
X130499295Y-108461901D01*
X130499295Y-108461901D02*
X130404057Y-108604758D01*
X130404057Y-108604758D02*
X130308819Y-108699996D01*
X130308819Y-108699996D02*
X130213581Y-108747615D01*
X131642152Y-108795234D02*
X131642152Y-109461901D01*
X131404057Y-108414282D02*
X131165962Y-109128567D01*
X131165962Y-109128567D02*
X131785009Y-109128567D01*
X155884593Y-109286664D02*
X155844117Y-109327141D01*
X155844117Y-109327141D02*
X155722688Y-109367617D01*
X155722688Y-109367617D02*
X155641736Y-109367617D01*
X155641736Y-109367617D02*
X155520307Y-109327141D01*
X155520307Y-109327141D02*
X155439355Y-109246188D01*
X155439355Y-109246188D02*
X155398878Y-109165236D01*
X155398878Y-109165236D02*
X155358402Y-109003331D01*
X155358402Y-109003331D02*
X155358402Y-108881902D01*
X155358402Y-108881902D02*
X155398878Y-108719998D01*
X155398878Y-108719998D02*
X155439355Y-108639045D01*
X155439355Y-108639045D02*
X155520307Y-108558093D01*
X155520307Y-108558093D02*
X155641736Y-108517617D01*
X155641736Y-108517617D02*
X155722688Y-108517617D01*
X155722688Y-108517617D02*
X155844117Y-108558093D01*
X155844117Y-108558093D02*
X155884593Y-108598569D01*
X156694117Y-109367617D02*
X156208402Y-109367617D01*
X156451259Y-109367617D02*
X156451259Y-108517617D01*
X156451259Y-108517617D02*
X156370307Y-108639045D01*
X156370307Y-108639045D02*
X156289355Y-108719998D01*
X156289355Y-108719998D02*
X156208402Y-108760474D01*
X157463164Y-108517617D02*
X157058402Y-108517617D01*
X157058402Y-108517617D02*
X157017926Y-108922379D01*
X157017926Y-108922379D02*
X157058402Y-108881902D01*
X157058402Y-108881902D02*
X157139355Y-108841426D01*
X157139355Y-108841426D02*
X157341736Y-108841426D01*
X157341736Y-108841426D02*
X157422688Y-108881902D01*
X157422688Y-108881902D02*
X157463164Y-108922379D01*
X157463164Y-108922379D02*
X157503641Y-109003331D01*
X157503641Y-109003331D02*
X157503641Y-109205712D01*
X157503641Y-109205712D02*
X157463164Y-109286664D01*
X157463164Y-109286664D02*
X157422688Y-109327141D01*
X157422688Y-109327141D02*
X157341736Y-109367617D01*
X157341736Y-109367617D02*
X157139355Y-109367617D01*
X157139355Y-109367617D02*
X157058402Y-109327141D01*
X157058402Y-109327141D02*
X157017926Y-109286664D01*
X125833333Y-94343005D02*
X125785714Y-94390625D01*
X125785714Y-94390625D02*
X125642857Y-94438244D01*
X125642857Y-94438244D02*
X125547619Y-94438244D01*
X125547619Y-94438244D02*
X125404762Y-94390625D01*
X125404762Y-94390625D02*
X125309524Y-94295386D01*
X125309524Y-94295386D02*
X125261905Y-94200148D01*
X125261905Y-94200148D02*
X125214286Y-94009672D01*
X125214286Y-94009672D02*
X125214286Y-93866815D01*
X125214286Y-93866815D02*
X125261905Y-93676339D01*
X125261905Y-93676339D02*
X125309524Y-93581101D01*
X125309524Y-93581101D02*
X125404762Y-93485863D01*
X125404762Y-93485863D02*
X125547619Y-93438244D01*
X125547619Y-93438244D02*
X125642857Y-93438244D01*
X125642857Y-93438244D02*
X125785714Y-93485863D01*
X125785714Y-93485863D02*
X125833333Y-93533482D01*
X126785714Y-94438244D02*
X126214286Y-94438244D01*
X126500000Y-94438244D02*
X126500000Y-93438244D01*
X126500000Y-93438244D02*
X126404762Y-93581101D01*
X126404762Y-93581101D02*
X126309524Y-93676339D01*
X126309524Y-93676339D02*
X126214286Y-93723958D01*
X134522827Y-84438244D02*
X134189494Y-83962053D01*
X133951399Y-84438244D02*
X133951399Y-83438244D01*
X133951399Y-83438244D02*
X134332351Y-83438244D01*
X134332351Y-83438244D02*
X134427589Y-83485863D01*
X134427589Y-83485863D02*
X134475208Y-83533482D01*
X134475208Y-83533482D02*
X134522827Y-83628720D01*
X134522827Y-83628720D02*
X134522827Y-83771577D01*
X134522827Y-83771577D02*
X134475208Y-83866815D01*
X134475208Y-83866815D02*
X134427589Y-83914434D01*
X134427589Y-83914434D02*
X134332351Y-83962053D01*
X134332351Y-83962053D02*
X133951399Y-83962053D01*
X134903780Y-83533482D02*
X134951399Y-83485863D01*
X134951399Y-83485863D02*
X135046637Y-83438244D01*
X135046637Y-83438244D02*
X135284732Y-83438244D01*
X135284732Y-83438244D02*
X135379970Y-83485863D01*
X135379970Y-83485863D02*
X135427589Y-83533482D01*
X135427589Y-83533482D02*
X135475208Y-83628720D01*
X135475208Y-83628720D02*
X135475208Y-83723958D01*
X135475208Y-83723958D02*
X135427589Y-83866815D01*
X135427589Y-83866815D02*
X134856161Y-84438244D01*
X134856161Y-84438244D02*
X135475208Y-84438244D01*
X154833333Y-96187080D02*
X154785714Y-96234700D01*
X154785714Y-96234700D02*
X154642857Y-96282319D01*
X154642857Y-96282319D02*
X154547619Y-96282319D01*
X154547619Y-96282319D02*
X154404762Y-96234700D01*
X154404762Y-96234700D02*
X154309524Y-96139461D01*
X154309524Y-96139461D02*
X154261905Y-96044223D01*
X154261905Y-96044223D02*
X154214286Y-95853747D01*
X154214286Y-95853747D02*
X154214286Y-95710890D01*
X154214286Y-95710890D02*
X154261905Y-95520414D01*
X154261905Y-95520414D02*
X154309524Y-95425176D01*
X154309524Y-95425176D02*
X154404762Y-95329938D01*
X154404762Y-95329938D02*
X154547619Y-95282319D01*
X154547619Y-95282319D02*
X154642857Y-95282319D01*
X154642857Y-95282319D02*
X154785714Y-95329938D01*
X154785714Y-95329938D02*
X154833333Y-95377557D01*
X155690476Y-95282319D02*
X155500000Y-95282319D01*
X155500000Y-95282319D02*
X155404762Y-95329938D01*
X155404762Y-95329938D02*
X155357143Y-95377557D01*
X155357143Y-95377557D02*
X155261905Y-95520414D01*
X155261905Y-95520414D02*
X155214286Y-95710890D01*
X155214286Y-95710890D02*
X155214286Y-96091842D01*
X155214286Y-96091842D02*
X155261905Y-96187080D01*
X155261905Y-96187080D02*
X155309524Y-96234700D01*
X155309524Y-96234700D02*
X155404762Y-96282319D01*
X155404762Y-96282319D02*
X155595238Y-96282319D01*
X155595238Y-96282319D02*
X155690476Y-96234700D01*
X155690476Y-96234700D02*
X155738095Y-96187080D01*
X155738095Y-96187080D02*
X155785714Y-96091842D01*
X155785714Y-96091842D02*
X155785714Y-95853747D01*
X155785714Y-95853747D02*
X155738095Y-95758509D01*
X155738095Y-95758509D02*
X155690476Y-95710890D01*
X155690476Y-95710890D02*
X155595238Y-95663271D01*
X155595238Y-95663271D02*
X155404762Y-95663271D01*
X155404762Y-95663271D02*
X155309524Y-95710890D01*
X155309524Y-95710890D02*
X155261905Y-95758509D01*
X155261905Y-95758509D02*
X155214286Y-95853747D01*
X122842652Y-107383325D02*
X122795033Y-107430945D01*
X122795033Y-107430945D02*
X122652176Y-107478564D01*
X122652176Y-107478564D02*
X122556938Y-107478564D01*
X122556938Y-107478564D02*
X122414081Y-107430945D01*
X122414081Y-107430945D02*
X122318843Y-107335706D01*
X122318843Y-107335706D02*
X122271224Y-107240468D01*
X122271224Y-107240468D02*
X122223605Y-107049992D01*
X122223605Y-107049992D02*
X122223605Y-106907135D01*
X122223605Y-106907135D02*
X122271224Y-106716659D01*
X122271224Y-106716659D02*
X122318843Y-106621421D01*
X122318843Y-106621421D02*
X122414081Y-106526183D01*
X122414081Y-106526183D02*
X122556938Y-106478564D01*
X122556938Y-106478564D02*
X122652176Y-106478564D01*
X122652176Y-106478564D02*
X122795033Y-106526183D01*
X122795033Y-106526183D02*
X122842652Y-106573802D01*
X123795033Y-107478564D02*
X123223605Y-107478564D01*
X123509319Y-107478564D02*
X123509319Y-106478564D01*
X123509319Y-106478564D02*
X123414081Y-106621421D01*
X123414081Y-106621421D02*
X123318843Y-106716659D01*
X123318843Y-106716659D02*
X123223605Y-106764278D01*
X124652176Y-106811897D02*
X124652176Y-107478564D01*
X124414081Y-106430945D02*
X124175986Y-107145230D01*
X124175986Y-107145230D02*
X124795033Y-107145230D01*
X122842652Y-109335835D02*
X122795033Y-109383455D01*
X122795033Y-109383455D02*
X122652176Y-109431074D01*
X122652176Y-109431074D02*
X122556938Y-109431074D01*
X122556938Y-109431074D02*
X122414081Y-109383455D01*
X122414081Y-109383455D02*
X122318843Y-109288216D01*
X122318843Y-109288216D02*
X122271224Y-109192978D01*
X122271224Y-109192978D02*
X122223605Y-109002502D01*
X122223605Y-109002502D02*
X122223605Y-108859645D01*
X122223605Y-108859645D02*
X122271224Y-108669169D01*
X122271224Y-108669169D02*
X122318843Y-108573931D01*
X122318843Y-108573931D02*
X122414081Y-108478693D01*
X122414081Y-108478693D02*
X122556938Y-108431074D01*
X122556938Y-108431074D02*
X122652176Y-108431074D01*
X122652176Y-108431074D02*
X122795033Y-108478693D01*
X122795033Y-108478693D02*
X122842652Y-108526312D01*
X123795033Y-109431074D02*
X123223605Y-109431074D01*
X123509319Y-109431074D02*
X123509319Y-108431074D01*
X123509319Y-108431074D02*
X123414081Y-108573931D01*
X123414081Y-108573931D02*
X123318843Y-108669169D01*
X123318843Y-108669169D02*
X123223605Y-108716788D01*
X124652176Y-108431074D02*
X124461700Y-108431074D01*
X124461700Y-108431074D02*
X124366462Y-108478693D01*
X124366462Y-108478693D02*
X124318843Y-108526312D01*
X124318843Y-108526312D02*
X124223605Y-108669169D01*
X124223605Y-108669169D02*
X124175986Y-108859645D01*
X124175986Y-108859645D02*
X124175986Y-109240597D01*
X124175986Y-109240597D02*
X124223605Y-109335835D01*
X124223605Y-109335835D02*
X124271224Y-109383455D01*
X124271224Y-109383455D02*
X124366462Y-109431074D01*
X124366462Y-109431074D02*
X124556938Y-109431074D01*
X124556938Y-109431074D02*
X124652176Y-109383455D01*
X124652176Y-109383455D02*
X124699795Y-109335835D01*
X124699795Y-109335835D02*
X124747414Y-109240597D01*
X124747414Y-109240597D02*
X124747414Y-109002502D01*
X124747414Y-109002502D02*
X124699795Y-108907264D01*
X124699795Y-108907264D02*
X124652176Y-108859645D01*
X124652176Y-108859645D02*
X124556938Y-108812026D01*
X124556938Y-108812026D02*
X124366462Y-108812026D01*
X124366462Y-108812026D02*
X124271224Y-108859645D01*
X124271224Y-108859645D02*
X124223605Y-108907264D01*
X124223605Y-108907264D02*
X124175986Y-109002502D01*
X149098317Y-87597040D02*
X148764984Y-87120849D01*
X148526889Y-87597040D02*
X148526889Y-86597040D01*
X148526889Y-86597040D02*
X148907841Y-86597040D01*
X148907841Y-86597040D02*
X149003079Y-86644659D01*
X149003079Y-86644659D02*
X149050698Y-86692278D01*
X149050698Y-86692278D02*
X149098317Y-86787516D01*
X149098317Y-86787516D02*
X149098317Y-86930373D01*
X149098317Y-86930373D02*
X149050698Y-87025611D01*
X149050698Y-87025611D02*
X149003079Y-87073230D01*
X149003079Y-87073230D02*
X148907841Y-87120849D01*
X148907841Y-87120849D02*
X148526889Y-87120849D01*
X150050698Y-87597040D02*
X149479270Y-87597040D01*
X149764984Y-87597040D02*
X149764984Y-86597040D01*
X149764984Y-86597040D02*
X149669746Y-86739897D01*
X149669746Y-86739897D02*
X149574508Y-86835135D01*
X149574508Y-86835135D02*
X149479270Y-86882754D01*
X150384032Y-86597040D02*
X151003079Y-86597040D01*
X151003079Y-86597040D02*
X150669746Y-86977992D01*
X150669746Y-86977992D02*
X150812603Y-86977992D01*
X150812603Y-86977992D02*
X150907841Y-87025611D01*
X150907841Y-87025611D02*
X150955460Y-87073230D01*
X150955460Y-87073230D02*
X151003079Y-87168468D01*
X151003079Y-87168468D02*
X151003079Y-87406563D01*
X151003079Y-87406563D02*
X150955460Y-87501801D01*
X150955460Y-87501801D02*
X150907841Y-87549421D01*
X150907841Y-87549421D02*
X150812603Y-87597040D01*
X150812603Y-87597040D02*
X150526889Y-87597040D01*
X150526889Y-87597040D02*
X150431651Y-87549421D01*
X150431651Y-87549421D02*
X150384032Y-87501801D01*
D12*
%TO.C,U3*%
X140025000Y-94323750D02*
X138075000Y-94323750D01*
X140025000Y-94323750D02*
X141975000Y-94323750D01*
X140025000Y-99443750D02*
X138075000Y-99443750D01*
X140025000Y-99443750D02*
X141975000Y-99443750D01*
X137325000Y-94418750D02*
X137085000Y-94088750D01*
X137565000Y-94088750D01*
X137325000Y-94418750D01*
G36*
X137325000Y-94418750D02*
G01*
X137085000Y-94088750D01*
X137565000Y-94088750D01*
X137325000Y-94418750D01*
G37*
%TO.C,R3*%
X152227064Y-78265000D02*
X151772936Y-78265000D01*
X152227064Y-79735000D02*
X151772936Y-79735000D01*
%TO.C,C13*%
X153437960Y-86444702D02*
X152915456Y-86444702D01*
X153437960Y-87914702D02*
X152915456Y-87914702D01*
%TO.C,PSWT*%
X130000000Y-77700000D02*
X127700000Y-77700000D01*
X136300000Y-77700000D02*
X134100000Y-77700000D01*
X136300000Y-82300000D02*
X127700000Y-82300000D01*
%TO.C,R4*%
X151772936Y-81265000D02*
X152227064Y-81265000D01*
X151772936Y-82735000D02*
X152227064Y-82735000D01*
%TO.C,R21*%
X152949644Y-91265000D02*
X153403772Y-91265000D01*
X152949644Y-92735000D02*
X153403772Y-92735000D01*
%TO.C,R20*%
X146033136Y-91265000D02*
X146487264Y-91265000D01*
X146033136Y-92735000D02*
X146487264Y-92735000D01*
%TO.C,C4*%
X128181705Y-90738748D02*
X128181705Y-91261252D01*
X129651705Y-90738748D02*
X129651705Y-91261252D01*
%TO.C,R17*%
X133772936Y-106265000D02*
X134227064Y-106265000D01*
X133772936Y-107735000D02*
X134227064Y-107735000D01*
%TO.C,R18*%
X146227064Y-108265000D02*
X145772936Y-108265000D01*
X146227064Y-109735000D02*
X145772936Y-109735000D01*
%TO.C,BAT*%
X139114205Y-80730000D02*
X139114205Y-78130000D01*
X139114205Y-83330000D02*
X139114205Y-82000000D01*
X140444205Y-83330000D02*
X139114205Y-83330000D01*
X141774205Y-78130000D02*
X139114205Y-78130000D01*
X141774205Y-80730000D02*
X139114205Y-80730000D01*
X141774205Y-80730000D02*
X141774205Y-78130000D01*
%TO.C,C5*%
X127701248Y-95122500D02*
X128223752Y-95122500D01*
X127701248Y-96592500D02*
X128223752Y-96592500D01*
%TO.C,C7*%
X128221156Y-97162058D02*
X127698652Y-97162058D01*
X128221156Y-98632058D02*
X127698652Y-98632058D01*
%TO.C,MSWT*%
X127700000Y-111700000D02*
X136300000Y-111700000D01*
X127700000Y-116300000D02*
X129900000Y-116300000D01*
X134000000Y-116300000D02*
X136300000Y-116300000D01*
%TO.C,C2*%
X130954494Y-91244677D02*
X130954494Y-90722173D01*
X132424494Y-91244677D02*
X132424494Y-90722173D01*
%TO.C,R9*%
X134227064Y-102265000D02*
X133772936Y-102265000D01*
X134227064Y-103735000D02*
X133772936Y-103735000D01*
%TO.C,R12*%
X146227064Y-102265000D02*
X145772936Y-102265000D01*
X146227064Y-103735000D02*
X145772936Y-103735000D01*
%TO.C,R7*%
X133772936Y-97092500D02*
X134227064Y-97092500D01*
X133772936Y-98562500D02*
X134227064Y-98562500D01*
%TO.C,R11*%
X134227064Y-104265000D02*
X133772936Y-104265000D01*
X134227064Y-105735000D02*
X133772936Y-105735000D01*
%TO.C,POT*%
X138575000Y-111470000D02*
X138575000Y-116540000D01*
X138575000Y-111470000D02*
X148345000Y-111470000D01*
X138575000Y-116540000D02*
X148345000Y-116540000D01*
X148345000Y-111470000D02*
X148345000Y-116540000D01*
%TO.C,C3*%
X130954494Y-87244677D02*
X130954494Y-86722173D01*
X132424494Y-87244677D02*
X132424494Y-86722173D01*
%TO.C,U2*%
X140000000Y-101565000D02*
X138050000Y-101565000D01*
X140000000Y-101565000D02*
X141950000Y-101565000D01*
X140000000Y-110435000D02*
X138050000Y-110435000D01*
X140000000Y-110435000D02*
X141950000Y-110435000D01*
X137300000Y-101630000D02*
X137060000Y-101300000D01*
X137540000Y-101300000D01*
X137300000Y-101630000D01*
G36*
X137300000Y-101630000D02*
G01*
X137060000Y-101300000D01*
X137540000Y-101300000D01*
X137300000Y-101630000D01*
G37*
%TO.C,R5*%
X133772936Y-95092500D02*
X134227064Y-95092500D01*
X133772936Y-96562500D02*
X134227064Y-96562500D01*
%TO.C,C11*%
X127261252Y-104265000D02*
X126738748Y-104265000D01*
X127261252Y-105735000D02*
X126738748Y-105735000D01*
%TO.C,R16*%
X146054045Y-84252783D02*
X146508173Y-84252783D01*
X146054045Y-85722783D02*
X146508173Y-85722783D01*
%TO.C,R8*%
X145772936Y-97092500D02*
X146227064Y-97092500D01*
X145772936Y-98562500D02*
X146227064Y-98562500D01*
%TO.C,C17*%
X152701248Y-106265000D02*
X153223752Y-106265000D01*
X152701248Y-107735000D02*
X153223752Y-107735000D01*
%TO.C,C9*%
X126738748Y-102265000D02*
X127261252Y-102265000D01*
X126738748Y-103735000D02*
X127261252Y-103735000D01*
%TO.C,C8*%
X152261252Y-97092500D02*
X151738748Y-97092500D01*
X152261252Y-98562500D02*
X151738748Y-98562500D01*
%TO.C,C18*%
X152915456Y-88869851D02*
X153437960Y-88869851D01*
X152915456Y-90339851D02*
X153437960Y-90339851D01*
%TO.C,R6*%
X145772936Y-95092500D02*
X146227064Y-95092500D01*
X145772936Y-96562500D02*
X146227064Y-96562500D01*
%TO.C,R1*%
X133954494Y-91210489D02*
X133954494Y-90756361D01*
X135424494Y-91210489D02*
X135424494Y-90756361D01*
%TO.C,C12*%
X153223752Y-102265000D02*
X152701248Y-102265000D01*
X153223752Y-103735000D02*
X152701248Y-103735000D01*
%TO.C,R19*%
X146033136Y-88839851D02*
X146487264Y-88839851D01*
X146033136Y-90309851D02*
X146487264Y-90309851D01*
%TO.C,U1*%
X140025000Y-87112500D02*
X138075000Y-87112500D01*
X140025000Y-87112500D02*
X141975000Y-87112500D01*
X140025000Y-92232500D02*
X138075000Y-92232500D01*
X140025000Y-92232500D02*
X141975000Y-92232500D01*
X137325000Y-87207500D02*
X137085000Y-86877500D01*
X137565000Y-86877500D01*
X137325000Y-87207500D01*
G36*
X137325000Y-87207500D02*
G01*
X137085000Y-86877500D01*
X137565000Y-86877500D01*
X137325000Y-87207500D01*
G37*
%TO.C,R10*%
X146227064Y-104265000D02*
X145772936Y-104265000D01*
X146227064Y-105735000D02*
X145772936Y-105735000D01*
%TO.C,D1*%
X143540000Y-77865000D02*
X143540000Y-80135000D01*
X143540000Y-80135000D02*
X147600000Y-80135000D01*
X147600000Y-77865000D02*
X143540000Y-77865000D01*
%TO.C,R15*%
X146227064Y-106265000D02*
X145772936Y-106265000D01*
X146227064Y-107735000D02*
X145772936Y-107735000D01*
%TO.C,C10*%
X153223752Y-104265000D02*
X152701248Y-104265000D01*
X153223752Y-105735000D02*
X152701248Y-105735000D01*
%TO.C,R14*%
X133772936Y-108265000D02*
X134227064Y-108265000D01*
X133772936Y-109735000D02*
X134227064Y-109735000D01*
%TO.C,C15*%
X152701248Y-108265000D02*
X153223752Y-108265000D01*
X152701248Y-109735000D02*
X153223752Y-109735000D01*
%TO.C,C1*%
X120590000Y-87013255D02*
X120590000Y-92768818D01*
X120590000Y-92768818D02*
X122940000Y-92768818D01*
X121654437Y-85948818D02*
X120590000Y-87013255D01*
X121654437Y-85948818D02*
X122940000Y-85948818D01*
X125847500Y-84921318D02*
X125847500Y-85708818D01*
X126241250Y-85315068D02*
X125453750Y-85315068D01*
X126345563Y-85948818D02*
X125060000Y-85948818D01*
X126345563Y-85948818D02*
X127410000Y-87013255D01*
X127410000Y-87013255D02*
X127410000Y-92768818D01*
X127410000Y-92768818D02*
X125060000Y-92768818D01*
%TO.C,R2*%
X133954494Y-87210489D02*
X133954494Y-86756361D01*
X135424494Y-87210489D02*
X135424494Y-86756361D01*
%TO.C,C6*%
X151701248Y-95092500D02*
X152223752Y-95092500D01*
X151701248Y-96562500D02*
X152223752Y-96562500D01*
%TO.C,C14*%
X126738748Y-106265000D02*
X127261252Y-106265000D01*
X126738748Y-107735000D02*
X127261252Y-107735000D01*
%TO.C,C16*%
X127261252Y-108265000D02*
X126738748Y-108265000D01*
X127261252Y-109735000D02*
X126738748Y-109735000D01*
%TO.C,R13*%
X146487264Y-86414702D02*
X146033136Y-86414702D01*
X146487264Y-87884702D02*
X146033136Y-87884702D01*
%TD*%
M02*
