%TF.GenerationSoftware,KiCad,Pcbnew,8.0.2*%
%TF.CreationDate,2025-06-15T12:49:30+05:30*%
%TF.ProjectId,final schematics,66696e61-6c20-4736-9368-656d61746963,1.0*%
%TF.SameCoordinates,Original*%
%TF.FileFunction,Paste,Top*%
%TF.FilePolarity,Positive*%
%FSLAX46Y46*%
G04 Gerber Fmt 4.6, Leading zero omitted, Abs format (unit mm)*
G04 Created by KiCad (PCBNEW 8.0.2) date 2025-06-15 12:49:30*
%MOMM*%
%LPD*%
G01*
G04 APERTURE LIST*
G04 Aperture macros list*
%AMRoundRect*
0 Rectangle with rounded corners*
0 $1 Rounding radius*
0 $2 $3 $4 $5 $6 $7 $8 $9 X,Y pos of 4 corners*
0 Add a 4 corners polygon primitive as box body*
4,1,4,$2,$3,$4,$5,$6,$7,$8,$9,$2,$3,0*
0 Add four circle primitives for the rounded corners*
1,1,$1+$1,$2,$3*
1,1,$1+$1,$4,$5*
1,1,$1+$1,$6,$7*
1,1,$1+$1,$8,$9*
0 Add four rect primitives between the rounded corners*
20,1,$1+$1,$2,$3,$4,$5,0*
20,1,$1+$1,$4,$5,$6,$7,0*
20,1,$1+$1,$6,$7,$8,$9,0*
20,1,$1+$1,$8,$9,$2,$3,0*%
G04 Aperture macros list end*
%ADD10RoundRect,0.150000X-0.825000X-0.150000X0.825000X-0.150000X0.825000X0.150000X-0.825000X0.150000X0*%
%ADD11RoundRect,0.250000X0.350000X0.450000X-0.350000X0.450000X-0.350000X-0.450000X0.350000X-0.450000X0*%
%ADD12RoundRect,0.250000X0.337500X0.475000X-0.337500X0.475000X-0.337500X-0.475000X0.337500X-0.475000X0*%
%ADD13RoundRect,0.250000X-0.350000X-0.450000X0.350000X-0.450000X0.350000X0.450000X-0.350000X0.450000X0*%
%ADD14RoundRect,0.250000X-0.475000X0.337500X-0.475000X-0.337500X0.475000X-0.337500X0.475000X0.337500X0*%
%ADD15RoundRect,0.250000X-0.337500X-0.475000X0.337500X-0.475000X0.337500X0.475000X-0.337500X0.475000X0*%
%ADD16RoundRect,0.250000X0.475000X-0.337500X0.475000X0.337500X-0.475000X0.337500X-0.475000X-0.337500X0*%
%ADD17RoundRect,0.250000X0.450000X-0.350000X0.450000X0.350000X-0.450000X0.350000X-0.450000X-0.350000X0*%
%ADD18RoundRect,0.250001X-0.462499X-0.624999X0.462499X-0.624999X0.462499X0.624999X-0.462499X0.624999X0*%
%ADD19RoundRect,0.250000X-0.550000X1.500000X-0.550000X-1.500000X0.550000X-1.500000X0.550000X1.500000X0*%
G04 APERTURE END LIST*
D10*
%TO.C,U3*%
X137550000Y-94978750D03*
X137550000Y-96248750D03*
X137550000Y-97518750D03*
X137550000Y-98788750D03*
X142500000Y-98788750D03*
X142500000Y-97518750D03*
X142500000Y-96248750D03*
X142500000Y-94978750D03*
%TD*%
D11*
%TO.C,R3*%
X153000000Y-79000000D03*
X151000000Y-79000000D03*
%TD*%
D12*
%TO.C,C13*%
X154214208Y-87179702D03*
X152139208Y-87179702D03*
%TD*%
D13*
%TO.C,R4*%
X151000000Y-82000000D03*
X153000000Y-82000000D03*
%TD*%
%TO.C,R21*%
X152176708Y-92000000D03*
X154176708Y-92000000D03*
%TD*%
%TO.C,R20*%
X145260200Y-92000000D03*
X147260200Y-92000000D03*
%TD*%
D14*
%TO.C,C4*%
X128916705Y-89962500D03*
X128916705Y-92037500D03*
%TD*%
D13*
%TO.C,R17*%
X133000000Y-107000000D03*
X135000000Y-107000000D03*
%TD*%
D11*
%TO.C,R18*%
X147000000Y-109000000D03*
X145000000Y-109000000D03*
%TD*%
D15*
%TO.C,C5*%
X126925000Y-95857500D03*
X129000000Y-95857500D03*
%TD*%
D12*
%TO.C,C7*%
X128997404Y-97897058D03*
X126922404Y-97897058D03*
%TD*%
D16*
%TO.C,C2*%
X131689494Y-92020925D03*
X131689494Y-89945925D03*
%TD*%
D11*
%TO.C,R9*%
X135000000Y-103000000D03*
X133000000Y-103000000D03*
%TD*%
%TO.C,R12*%
X147000000Y-103000000D03*
X145000000Y-103000000D03*
%TD*%
D13*
%TO.C,R7*%
X133000000Y-97827500D03*
X135000000Y-97827500D03*
%TD*%
D11*
%TO.C,R11*%
X135000000Y-105000000D03*
X133000000Y-105000000D03*
%TD*%
D16*
%TO.C,C3*%
X131689494Y-88020925D03*
X131689494Y-85945925D03*
%TD*%
D10*
%TO.C,U2*%
X137525000Y-102190000D03*
X137525000Y-103460000D03*
X137525000Y-104730000D03*
X137525000Y-106000000D03*
X137525000Y-107270000D03*
X137525000Y-108540000D03*
X137525000Y-109810000D03*
X142475000Y-109810000D03*
X142475000Y-108540000D03*
X142475000Y-107270000D03*
X142475000Y-106000000D03*
X142475000Y-104730000D03*
X142475000Y-103460000D03*
X142475000Y-102190000D03*
%TD*%
D13*
%TO.C,R5*%
X133000000Y-95827500D03*
X135000000Y-95827500D03*
%TD*%
D12*
%TO.C,C11*%
X128037500Y-105000000D03*
X125962500Y-105000000D03*
%TD*%
D13*
%TO.C,R16*%
X145281109Y-84987783D03*
X147281109Y-84987783D03*
%TD*%
%TO.C,R8*%
X145000000Y-97827500D03*
X147000000Y-97827500D03*
%TD*%
D15*
%TO.C,C17*%
X151925000Y-107000000D03*
X154000000Y-107000000D03*
%TD*%
%TO.C,C9*%
X125962500Y-103000000D03*
X128037500Y-103000000D03*
%TD*%
D12*
%TO.C,C8*%
X153037500Y-97827500D03*
X150962500Y-97827500D03*
%TD*%
D15*
%TO.C,C18*%
X152139208Y-89604851D03*
X154214208Y-89604851D03*
%TD*%
D13*
%TO.C,R6*%
X145000000Y-95827500D03*
X147000000Y-95827500D03*
%TD*%
D17*
%TO.C,R1*%
X134689494Y-91983425D03*
X134689494Y-89983425D03*
%TD*%
D12*
%TO.C,C12*%
X154000000Y-103000000D03*
X151925000Y-103000000D03*
%TD*%
D13*
%TO.C,R19*%
X145260200Y-89574851D03*
X147260200Y-89574851D03*
%TD*%
D10*
%TO.C,U1*%
X137550000Y-87767500D03*
X137550000Y-89037500D03*
X137550000Y-90307500D03*
X137550000Y-91577500D03*
X142500000Y-91577500D03*
X142500000Y-90307500D03*
X142500000Y-89037500D03*
X142500000Y-87767500D03*
%TD*%
D11*
%TO.C,R10*%
X147000000Y-105000000D03*
X145000000Y-105000000D03*
%TD*%
D18*
%TO.C,D1*%
X144512500Y-79000000D03*
X147487500Y-79000000D03*
%TD*%
D11*
%TO.C,R15*%
X147000000Y-107000000D03*
X145000000Y-107000000D03*
%TD*%
D12*
%TO.C,C10*%
X154000000Y-105000000D03*
X151925000Y-105000000D03*
%TD*%
D13*
%TO.C,R14*%
X133000000Y-109000000D03*
X135000000Y-109000000D03*
%TD*%
D15*
%TO.C,C15*%
X151925000Y-109000000D03*
X154000000Y-109000000D03*
%TD*%
D19*
%TO.C,C1*%
X124000000Y-86558818D03*
X124000000Y-92158818D03*
%TD*%
D17*
%TO.C,R2*%
X134689494Y-87983425D03*
X134689494Y-85983425D03*
%TD*%
D15*
%TO.C,C6*%
X150925000Y-95827500D03*
X153000000Y-95827500D03*
%TD*%
%TO.C,C14*%
X125962500Y-107000000D03*
X128037500Y-107000000D03*
%TD*%
D12*
%TO.C,C16*%
X128037500Y-109000000D03*
X125962500Y-109000000D03*
%TD*%
D11*
%TO.C,R13*%
X147260200Y-87149702D03*
X145260200Y-87149702D03*
%TD*%
M02*
