<?xml version="1.0" standalone="no"?>
 <!DOCTYPE svg PUBLIC "-//W3C//DTD SVG 1.1//EN" 
 "http://www.w3.org/Graphics/SVG/1.1/DTD/svg11.dtd"> 
<svg
  xmlns:svg="http://www.w3.org/2000/svg"
  xmlns="http://www.w3.org/2000/svg"
  xmlns:xlink="http://www.w3.org/1999/xlink"
  version="1.1"
  width="297.002200mm" height="210.007200mm" viewBox="0.000000 0.000000 297.002200 210.007200">
<title>SVG Image created as final schematics-B_Silkscreen.svg date 2025/06/16 13:51:48 </title>
  <desc>Image generated by PCBNEW </desc>
<g style="fill:#000000; fill-opacity:1.000000;stroke:#000000; stroke-opacity:1.000000;
stroke-linecap:round; stroke-linejoin:round;"
 transform="translate(0 0) scale(1 1)">
<path style="fill:none; 
stroke:#E8B2A7; stroke-width:0.100000; stroke-opacity:1; 
stroke-linecap:round; stroke-linejoin:round;fill:none"
d="M 124.649999,85.041413
132.149999,85.041413
132.149999,109.041413
124.649999,109.041413
Z" /> 
</g>
<g style="fill:none; 
stroke:#E8B2A7; stroke-width:0.150000; stroke-opacity:1; 
stroke-linecap:round; stroke-linejoin:round;">
<text x="131.482344" y="89.041413"
transform="scale(-1 1) translate(-262.964688 0)"
textLength="6.164689" font-size="3.333333" lengthAdjust="spacingAndGlyphs"
text-anchor="start" opacity="0">CMC</text>
<g class="stroked-text"><desc>CMC</desc>
<path style="fill:#E8B2A7; fill-opacity:1.000000; stroke:none;fill-rule:evenodd;"
d="M 130.505983,88.654881
130.635796,88.649037
130.768413,88.628047
130.897535,88.586187
130.994468,88.532759
131.094384,88.447346
131.173548,88.344521
131.231961,88.224283
131.241154,88.198147
131.274803,88.073844
131.297439,87.939302
131.308316,87.811112
131.310763,87.709661
131.310763,86.698496
131.307432,86.575047
131.295468,86.443051
131.274803,86.320749
131.241154,86.194745
131.193251,86.082308
131.120312,85.975618
131.026622,85.888130
130.994468,85.865627
130.884237,85.809546
130.752754,85.771818
130.618039,85.753691
130.505983,85.749612
130.383357,85.754404
130.258240,85.771615
130.136642,85.805941
130.045585,85.849752
129.942729,85.928351
129.862529,86.027298
129.809280,86.134905
129.772250,86.256705
129.748935,86.390072
129.739677,86.519994
129.739060,86.565383
129.739060,86.803520
130.236094,86.803520
130.236094,86.558667
130.240152,86.431477
130.248917,86.341901
130.288237,86.221718
130.315473,86.186196
130.426876,86.133853
130.502319,86.128188
130.623416,86.145421
130.696492,86.189249
130.761871,86.298789
130.775260,86.353503
130.789579,86.477902
130.792968,86.586144
130.792968,87.818349
130.788293,87.942703
130.770046,88.066050
130.768544,88.072362
130.715912,88.186125
130.679395,88.222571
130.561503,88.269242
130.502319,88.273251
130.380453,88.253931
130.318526,88.212191
130.261226,88.103597
130.250138,88.049769
130.238782,87.927516
130.236094,87.822013
130.236094,87.566168
129.739060,87.566168
129.739060,87.793925
129.743220,87.916390
129.757844,88.045495
129.782998,88.165424
129.805616,88.240279
129.856993,88.353467
129.936098,88.459104
130.038868,88.544971
130.155850,88.602931
130.283667,88.636741
130.415206,88.652197
Z" /> 
<path style="fill:#E8B2A7; fill-opacity:1.000000; stroke:none;fill-rule:evenodd;"
d="M 129.387961,88.616413
129.339113,85.781364
128.803610,85.781364
128.400609,87.745076
127.981122,85.781364
127.462717,85.781364
127.410205,88.616413
127.795498,88.616413
127.837630,86.645983
128.240020,88.616413
128.551429,88.616413
128.961147,86.638656
128.999615,88.616413
Z" /> 
<path style="fill:#E8B2A7; fill-opacity:1.000000; stroke:none;fill-rule:evenodd;"
d="M 126.229290,88.654881
126.359104,88.649037
126.491720,88.628047
126.620842,88.586187
126.717776,88.532759
126.817692,88.447346
126.896856,88.344521
126.955269,88.224283
126.964461,88.198147
126.998110,88.073844
127.020747,87.939302
127.031623,87.811112
127.034071,87.709661
127.034071,86.698496
127.030740,86.575047
127.018776,86.443051
126.998110,86.320749
126.964461,86.194745
126.916559,86.082308
126.843620,85.975618
126.749930,85.888130
126.717776,85.865627
126.607545,85.809546
126.476062,85.771818
126.341346,85.753691
126.229290,85.749612
126.106665,85.754404
125.981547,85.771615
125.859949,85.805941
125.768893,85.849752
125.666037,85.928351
125.585837,86.027298
125.532588,86.134905
125.495558,86.256705
125.472243,86.390072
125.462985,86.519994
125.462368,86.565383
125.462368,86.803520
125.959402,86.803520
125.959402,86.558667
125.963459,86.431477
125.972225,86.341901
126.011545,86.221718
126.038781,86.186196
126.150183,86.133853
126.225627,86.128188
126.346724,86.145421
126.419800,86.189249
126.485178,86.298789
126.498568,86.353503
126.512886,86.477902
126.516276,86.586144
126.516276,87.818349
126.511601,87.942703
126.493354,88.066050
126.491852,88.072362
126.439220,88.186125
126.402703,88.222571
126.284810,88.269242
126.225627,88.273251
126.103761,88.253931
126.041834,88.212191
125.984534,88.103597
125.973446,88.049769
125.962090,87.927516
125.959402,87.822013
125.959402,87.566168
125.462368,87.566168
125.462368,87.793925
125.466528,87.916390
125.481152,88.045495
125.506305,88.165424
125.528924,88.240279
125.580301,88.353467
125.659406,88.459104
125.762176,88.544971
125.879157,88.602931
126.006975,88.636741
126.138513,88.652197
Z" /> 
</g></g>
<g style="fill:none; 
stroke:#E8B2A7; stroke-width:0.150000; stroke-opacity:1; 
stroke-linecap:round; stroke-linejoin:round;">
<g transform="rotate(-90.000000 132.091606 88.885394)">
<text x="132.091606" y="88.885394"
transform="scale(-1 1) translate(-264.183212 0)"
textLength="19.339148" font-size="6.666666" lengthAdjust="spacingAndGlyphs"
text-anchor="start" opacity="0">EKOBIT</text>
</g>
<g class="stroked-text"><desc>EKOBIT</desc>
<path style="fill:#E8B2A7; fill-opacity:1.000000; stroke:none;fill-rule:evenodd;"
d="M 131.241606,89.312818
125.571508,89.312818
125.571508,91.692965
126.299351,91.692965
126.299351,90.348408
127.930894,90.348408
127.930894,91.405980
128.651410,91.405980
128.651410,90.348408
130.527195,90.348408
130.527195,91.706398
131.241606,91.706398
Z" /> 
<path style="fill:#E8B2A7; fill-opacity:1.000000; stroke:none;fill-rule:evenodd;"
d="M 131.241606,92.307236
125.571508,92.307236
125.571508,93.342825
128.064006,93.342825
125.571508,94.462679
125.571508,95.449420
128.105527,94.364982
131.241606,95.561772
131.241606,94.532288
128.658737,93.580962
129.092268,93.342825
131.241606,93.342825
Z" /> 
<path style="fill:#E8B2A7; fill-opacity:1.000000; stroke:none;fill-rule:evenodd;"
d="M 129.699939,95.806050
129.960478,95.832497
130.201782,95.878178
130.450259,95.952560
130.502008,95.972586
130.737855,96.096473
130.935539,96.259953
131.095060,96.463028
131.192833,96.657201
131.269437,96.912139
131.307848,97.171189
131.318542,97.422902
131.310556,97.644481
131.275065,97.911202
131.201198,98.172032
131.091396,98.391325
131.062116,98.434826
130.893674,98.629290
130.688500,98.785353
130.446595,98.903014
130.257217,98.964398
129.992609,99.021166
129.737451,99.050704
129.463518,99.060551
127.336162,99.060551
127.126719,99.055012
126.865494,99.030397
126.596248,98.979167
126.353085,98.903014
126.302548,98.882554
126.072473,98.757212
125.880084,98.593469
125.725381,98.391325
125.630279,98.198450
125.555768,97.942234
125.518406,97.679616
125.508005,97.422902
126.265157,97.422902
126.275772,97.571356
126.373846,97.803921
126.440768,97.866239
126.670601,97.967564
126.845578,97.996782
127.098026,98.010306
129.708982,98.010306
129.890871,98.003252
130.136407,97.967564
130.239747,97.937832
130.444153,97.803921
130.520121,97.670885
130.555283,97.422902
130.544431,97.277311
130.444153,97.044326
130.365823,96.974178
130.136407,96.879462
129.957823,96.853583
129.708982,96.841604
127.098026,96.841604
126.912601,96.848457
126.670601,96.883126
126.581070,96.909687
126.373846,97.051653
126.303474,97.173605
126.265157,97.422902
125.508005,97.422902
125.515647,97.205717
125.549612,96.942851
125.620302,96.683619
125.725381,96.463028
125.753307,96.419245
125.915547,96.224090
126.115473,96.068528
126.353085,95.952560
126.539958,95.892604
126.803408,95.837156
127.059481,95.808304
127.336162,95.798687
129.456190,95.798687
Z" /> 
<path style="fill:#E8B2A7; fill-opacity:1.000000; stroke:none;fill-rule:evenodd;"
d="M 131.241606,101.450467
131.233298,101.666979
131.200580,101.909567
131.136581,102.146559
131.108741,102.219507
130.986357,102.450484
130.825171,102.643593
130.758112,102.703765
130.543064,102.846552
130.307377,102.945233
130.082027,103.002941
129.834166,103.036695
129.589303,103.046594
129.393985,103.039801
129.149600,103.008277
128.896874,102.937906
128.826826,102.908978
128.608405,102.780083
128.431592,102.608178
128.378533,102.536652
128.262327,102.306243
128.197118,102.052525
128.129785,102.288855
128.004167,102.508038
127.835028,102.668017
127.615820,102.784033
127.536728,102.811474
127.289890,102.863567
127.027195,102.879287
126.823252,102.871807
126.572741,102.837096
126.321333,102.759608
126.269699,102.736496
126.055986,102.604796
125.876811,102.420111
125.827617,102.349331
125.714616,102.128940
125.642338,101.894989
125.608099,101.718050
125.579877,101.463799
125.571508,101.212330
125.571508,101.058457
126.292024,101.058457
126.292083,101.078039
126.305173,101.329152
126.351864,101.576252
126.405413,101.704341
126.576567,101.881555
126.789384,101.960645
127.041850,101.982916
127.274262,101.970060
127.518123,101.915749
127.626244,101.864516
127.797781,101.681276
127.868295,101.463877
127.887680,101.212330
128.602562,101.212330
128.625638,101.474617
128.707586,101.705701
128.810856,101.839187
129.026323,101.971925
129.081774,101.990816
129.325742,102.039223
129.583197,102.052525
129.805305,102.041992
130.060355,101.993113
130.286616,101.883998
130.406400,101.749974
130.491580,101.511380
130.513762,101.247745
130.513762,100.855735
128.602562,100.855735
128.602562,101.212330
127.887680,101.212330
127.888151,101.206224
127.888151,100.855735
126.292024,100.855735
126.292024,101.058457
125.571508,101.058457
125.571508,99.820146
131.241606,99.820146
Z" /> 
<path style="fill:#E8B2A7; fill-opacity:1.000000; stroke:none;fill-rule:evenodd;"
d="M 131.241606,103.746350
125.571508,103.746350
125.571508,104.767285
131.241606,104.767285
Z" /> 
<path style="fill:#E8B2A7; fill-opacity:1.000000; stroke:none;fill-rule:evenodd;"
d="M 131.241606,106.209539
126.334767,106.209539
126.334767,105.307061
125.571508,105.307061
125.571508,108.134172
126.334767,108.134172
126.334767,107.245128
131.241606,107.245128
Z" /> 
</g></g>
<g style="fill:none; 
stroke:#E8B2A7; stroke-width:0.150000; stroke-opacity:1; 
stroke-linecap:round; stroke-linejoin:round;">
<g transform="rotate(-90.000000 146.000000 99.050000)">
<text x="146.000000" y="99.800000"
transform="scale(-1 1) translate(-292.000000 0)"
textLength="4.868248" font-size="2.000000" lengthAdjust="spacingAndGlyphs"
text-anchor="middle" opacity="0">Listen</text>
</g>
<g class="stroked-text"><desc>Listen</desc>
<path style="fill:#E8B2A7; fill-opacity:1.000000; stroke:none;fill-rule:evenodd;"
d="M 146.622500,96.744103
144.921470,96.744103
144.921470,97.054780
146.408176,97.054780
146.408176,97.466207
146.622500,97.466207
Z" /> 
<path style="fill:#E8B2A7; fill-opacity:1.000000; stroke:none;fill-rule:evenodd;"
d="M 146.622500,97.617149
145.408735,97.617149
145.408735,97.902913
146.622500,97.902913
Z" /> 
<path style="fill:#E8B2A7; fill-opacity:1.000000; stroke:none;fill-rule:evenodd;"
d="M 145.215661,97.617149
144.978257,97.617149
144.978257,97.902913
145.215661,97.902913
Z" /> 
<path style="fill:#E8B2A7; fill-opacity:1.000000; stroke:none;fill-rule:evenodd;"
d="M 146.641550,98.458688
146.636421,98.385507
146.618389,98.311279
146.583127,98.238865
146.559485,98.206629
146.500859,98.150544
146.435555,98.109489
146.367531,98.080489
146.320249,98.065945
146.238183,98.278070
146.310699,98.301330
146.379197,98.337429
146.389492,98.345115
146.433236,98.404058
146.441882,98.454658
146.421120,98.525170
146.416603,98.530129
146.347360,98.555408
146.274525,98.536625
146.256135,98.524633
146.200434,98.473412
146.154286,98.420952
146.030455,98.274040
145.977887,98.218416
145.920125,98.167807
145.888672,98.144714
145.818187,98.110904
145.740178,98.096462
145.706955,98.095254
145.631300,98.102692
145.560374,98.127335
145.537695,98.140317
145.478672,98.190233
145.436077,98.250039
145.428518,98.264515
145.401971,98.336803
145.390632,98.409956
145.389684,98.439637
145.396581,98.519908
145.417273,98.590500
145.456442,98.657584
145.476878,98.681071
145.536599,98.731475
145.606766,98.769571
145.678849,98.793334
145.704757,98.799040
145.784624,98.605600
145.713115,98.584648
145.691202,98.575192
145.629725,98.533460
145.620860,98.523901
145.593490,98.453554
145.593382,98.448063
145.619169,98.379387
145.620860,98.377721
145.690102,98.351709
145.758989,98.378435
145.763742,98.382118
145.817845,98.433389
145.849837,98.469312
145.983927,98.618423
146.036154,98.673994
146.074419,98.710380
146.132533,98.755499
146.182862,98.784019
146.255725,98.808015
146.320249,98.813695
146.394146,98.807049
146.468508,98.782495
146.496470,98.766434
146.552389,98.718629
146.595125,98.657921
146.604914,98.638206
146.629958,98.563995
146.640656,98.489056
Z" /> 
<path style="fill:#E8B2A7; fill-opacity:1.000000; stroke:none;fill-rule:evenodd;"
d="M 146.637154,99.321476
146.632695,99.247936
146.615928,99.175983
146.599419,99.139759
146.549812,99.080549
146.490242,99.046336
146.417309,99.026877
146.338489,99.019463
146.320249,99.019225
145.597779,99.019225
145.597779,98.897226
145.408735,98.897226
145.408735,99.019225
145.045301,99.019225
145.045301,99.306821
145.408735,99.306821
145.408735,99.491469
145.597779,99.491469
145.597779,99.306821
146.294970,99.306821
146.368884,99.322071
146.384363,99.333932
146.409968,99.402774
146.410375,99.415998
146.408543,99.461060
146.404146,99.504291
146.622500,99.504291
146.630707,99.429888
146.631659,99.421127
146.636811,99.347350
Z" /> 
<path style="fill:#E8B2A7; fill-opacity:1.000000; stroke:none;fill-rule:evenodd;"
d="M 146.215676,99.638907
146.290165,99.643596
146.365384,99.656418
146.438951,99.679780
146.485777,99.703113
146.544767,99.748674
146.590259,99.806908
146.619461,99.872030
146.636542,99.949013
146.641550,100.029291
146.638086,100.096783
146.622687,100.176192
146.590638,100.251076
146.542998,100.310659
146.488158,100.351051
146.413599,100.382697
146.335890,100.398565
146.259066,100.402983
146.177367,100.402983
146.177367,100.136270
146.278117,100.136270
146.290940,100.136104
146.365312,100.125645
146.417702,100.092306
146.435654,100.031490
146.418801,99.970307
146.364213,99.933670
146.341306,99.928180
146.267493,99.922313
146.028257,99.922313
146.028257,100.405181
145.856065,100.405181
145.837603,100.405045
145.758877,100.401068
145.679765,100.390192
145.602908,100.370377
145.559754,100.353083
145.496788,100.313078
145.444272,100.254972
145.440914,100.249871
145.408928,100.178842
145.394002,100.105799
145.389684,100.029291
145.389806,100.027093
145.595580,100.027093
145.613532,100.092306
145.670319,100.125645
145.696952,100.131248
145.772168,100.136270
145.887573,100.136270
145.887573,99.922313
145.803675,99.922313
145.751758,99.923525
145.677646,99.932571
145.614631,99.966277
145.595580,100.027093
145.389806,100.027093
145.393683,99.957399
145.409433,99.879683
145.440242,99.807641
145.468383,99.767089
145.522016,99.716994
145.589352,99.679780
145.601853,99.674811
145.677105,99.653213
145.755057,99.641993
145.832984,99.638747
146.198250,99.638747
Z" /> 
<path style="fill:#E8B2A7; fill-opacity:1.000000; stroke:none;fill-rule:evenodd;"
d="M 146.622500,100.598255
145.408735,100.598255
145.408735,100.884019
145.530368,100.884019
145.479858,100.942233
145.438605,101.003391
145.428518,101.021406
145.400644,101.091908
145.389835,101.167401
145.389684,101.177843
145.401392,101.252779
145.426687,101.297278
145.485185,101.345363
145.524139,101.362491
145.595920,101.379673
145.656397,101.383740
146.622500,101.383740
146.622500,101.097976
145.713183,101.097976
145.639062,101.085978
145.629286,101.081123
145.599977,101.016277
145.616830,100.951797
145.655470,100.888191
145.658595,100.884019
146.622500,100.884019
Z" /> 
</g></g>
<g style="fill:none; 
stroke:#E8B2A7; stroke-width:0.150000; stroke-opacity:1; 
stroke-linecap:round; stroke-linejoin:round;">
<g transform="rotate(-90.000000 146.000000 110.050000)">
<text x="146.000000" y="110.800000"
transform="scale(-1 1) translate(-292.000000 0)"
textLength="5.685973" font-size="2.000000" lengthAdjust="spacingAndGlyphs"
text-anchor="middle" opacity="0">Record</text>
</g>
<g class="stroked-text"><desc>Record</desc>
<path style="fill:#E8B2A7; fill-opacity:1.000000; stroke:none;fill-rule:evenodd;"
d="M 146.622500,107.645918
145.843243,107.645918
145.843243,107.788800
146.622500,107.994330
146.622500,108.305374
145.784624,108.067970
145.782630,108.072927
145.746614,108.139136
145.695598,108.192900
145.691957,108.195691
145.627374,108.233438
145.556013,108.257014
145.519110,108.264437
145.445274,108.273385
145.370999,108.276064
145.319515,108.274544
145.244433,108.265785
145.170695,108.246627
145.102088,108.213783
145.041130,108.164505
144.993766,108.101808
144.962503,108.033165
144.946515,107.978816
144.931728,107.901365
144.924035,107.825368
144.921993,107.759491
145.133595,107.759491
145.135160,107.798746
145.151690,107.876026
145.197709,107.939009
145.244005,107.963932
145.315996,107.981655
145.389684,107.986270
145.462623,107.981782
145.538061,107.962823
145.573926,107.943362
145.621959,107.886253
145.642255,107.819081
145.647971,107.742638
145.647971,107.645918
145.133595,107.645918
145.133595,107.759491
144.921993,107.759491
144.921470,107.742638
144.921470,107.335241
146.622500,107.335241
Z" /> 
<path style="fill:#E8B2A7; fill-opacity:1.000000; stroke:none;fill-rule:evenodd;"
d="M 146.215676,108.439257
146.290165,108.443945
146.365384,108.456768
146.438951,108.480129
146.485777,108.503462
146.544767,108.549023
146.590259,108.607258
146.619461,108.672379
146.636542,108.749363
146.641550,108.829641
146.638086,108.897132
146.622687,108.976541
146.590638,109.051426
146.542998,109.111009
146.488158,109.151400
146.413599,109.183046
146.335890,109.198915
146.259066,109.203332
146.177367,109.203332
146.177367,108.936619
146.278117,108.936619
146.290940,108.936453
146.365312,108.925995
146.417702,108.892656
146.435654,108.831839
146.418801,108.770656
146.364213,108.734020
146.341306,108.728530
146.267493,108.722662
146.028257,108.722662
146.028257,109.205531
145.856065,109.205531
145.837603,109.205395
145.758877,109.201418
145.679765,109.190542
145.602908,109.170726
145.559754,109.153433
145.496788,109.113428
145.444272,109.055321
145.440914,109.050221
145.408928,108.979192
145.394002,108.906148
145.389684,108.829641
145.389806,108.827443
145.595580,108.827443
145.613532,108.892656
145.670319,108.925995
145.696952,108.931597
145.772168,108.936619
145.887573,108.936619
145.887573,108.722662
145.803675,108.722662
145.751758,108.723875
145.677646,108.732921
145.614631,108.766626
145.595580,108.827443
145.389806,108.827443
145.393683,108.757748
145.409433,108.680033
145.440242,108.607990
145.468383,108.567439
145.522016,108.517344
145.589352,108.480129
145.601853,108.475161
145.677105,108.453562
145.755057,108.442342
145.832984,108.439097
146.198250,108.439097
Z" /> 
<path style="fill:#E8B2A7; fill-opacity:1.000000; stroke:none;fill-rule:evenodd;"
d="M 146.641550,109.763870
146.637319,109.689140
146.622693,109.616440
146.591352,109.543556
146.588061,109.538189
146.541230,109.480933
146.481518,109.436661
146.434555,109.414358
146.361672,109.392248
146.287827,109.380112
146.206754,109.375562
146.198250,109.375524
145.832984,109.375524
145.757183,109.378595
145.680776,109.389214
145.606232,109.409656
145.593749,109.414358
145.526103,109.450130
145.471543,109.499194
145.442440,109.539288
145.410292,109.611228
145.393857,109.690116
145.389684,109.763870
145.393691,109.840735
145.407355,109.914542
145.430717,109.977094
145.474685,110.041167
145.534781,110.087850
145.554914,110.097994
145.629322,110.122426
145.703429,110.133371
145.763742,110.135729
145.864492,110.135729
145.864492,109.866818
145.757147,109.866818
145.682970,109.862316
145.657496,109.857293
145.605106,109.825053
145.589352,109.763870
145.609502,109.703053
145.673616,109.670447
145.749997,109.662182
145.795249,109.661288
146.240382,109.661288
146.317816,109.664791
146.390651,109.681748
146.399017,109.686201
146.438691,109.749725
146.439684,109.766068
146.420999,109.830182
146.365312,109.859491
146.292012,109.866639
146.275919,109.866818
146.145860,109.866818
146.145860,110.135729
146.261264,110.135729
146.340896,110.131141
146.418090,110.115667
146.469359,110.096895
146.532238,110.058026
146.584130,109.999802
146.598686,109.974896
146.624806,109.906408
146.638160,109.832404
Z" /> 
<path style="fill:#E8B2A7; fill-opacity:1.000000; stroke:none;fill-rule:evenodd;"
d="M 146.299267,110.298551
146.378408,110.312825
146.448110,110.337230
146.481972,110.354948
146.544469,110.403678
146.592091,110.466556
146.620250,110.531202
146.636720,110.606757
146.641550,110.684910
146.637638,110.755740
146.622230,110.832629
146.592091,110.904362
146.568297,110.940388
146.512665,110.996039
146.448110,111.034421
146.442163,111.037081
146.371603,111.060765
146.299267,111.073430
146.219132,111.077652
145.811735,111.077652
145.731794,111.073430
145.652783,111.059034
145.583124,111.034421
145.543927,111.013547
145.482574,110.963524
145.439143,110.904362
145.410984,110.839091
145.394514,110.763170
145.389820,110.687108
145.587154,110.687108
145.587182,110.690106
145.615730,110.758549
145.621178,110.762728
145.690102,110.787858
145.716909,110.790869
145.793051,110.794086
146.238183,110.794086
146.265981,110.793697
146.342231,110.787858
146.348061,110.787014
146.416969,110.758549
146.418637,110.757081
146.444080,110.687108
146.444054,110.684110
146.416969,110.615667
146.411643,110.611477
146.342231,110.585258
146.311762,110.581394
146.238183,110.577931
145.793051,110.577931
145.765322,110.578389
145.690102,110.585258
145.684402,110.586236
145.615730,110.615667
145.613972,110.617134
145.587154,110.687108
145.389820,110.687108
145.389684,110.684910
145.393596,110.614166
145.409004,110.537620
145.439143,110.466556
145.462938,110.430941
145.518570,110.375681
145.583124,110.337230
145.589070,110.334593
145.659580,110.311109
145.731794,110.298551
145.811735,110.294365
146.219132,110.294365
Z" /> 
<path style="fill:#E8B2A7; fill-opacity:1.000000; stroke:none;fill-rule:evenodd;"
d="M 146.622500,111.279152
145.408735,111.279152
145.408735,111.564917
145.595580,111.564917
145.529089,111.608239
145.472649,111.655500
145.441341,111.690946
145.405895,111.757075
145.394080,111.829432
145.395179,111.851413
145.398110,111.873395
145.694132,111.873395
145.676547,111.817708
145.669220,111.755792
145.682207,111.682890
145.696697,111.652844
145.744611,111.596859
145.786823,111.564917
146.622500,111.564917
Z" /> 
<path style="fill:#E8B2A7; fill-opacity:1.000000; stroke:none;fill-rule:evenodd;"
d="M 146.236738,111.989457
146.314525,111.993815
146.394271,112.005508
146.470898,112.027587
146.538602,112.063538
146.557000,112.078167
146.605257,112.135812
146.633407,112.207124
146.641550,112.282990
146.637583,112.327727
146.613340,112.398395
146.584549,112.445148
146.536404,112.501344
146.622500,112.501344
146.622500,112.787108
144.921470,112.787108
144.921470,112.501344
145.484206,112.501344
145.455045,112.465383
145.416062,112.399494
145.411111,112.385939
145.584956,112.385939
145.596680,112.446755
145.624890,112.501344
146.404146,112.501344
146.433456,112.440527
146.444080,112.388137
146.415870,112.317795
146.408417,112.311996
146.338934,112.285189
146.304214,112.280391
146.229757,112.276762
145.776198,112.276762
145.715296,112.280753
145.640643,112.300942
145.613724,112.317442
145.584956,112.385939
145.411111,112.385939
145.398983,112.352737
145.389684,112.278960
145.391151,112.246498
145.408695,112.172224
145.449767,112.108601
145.477857,112.082823
145.540443,112.043600
145.610235,112.017376
145.682488,112.001315
145.760715,111.991921
145.837015,111.989166
146.208874,111.989166
Z" /> 
</g></g>
<g style="fill:none; 
stroke:#E8B2A7; stroke-width:0.150000; stroke-opacity:1; 
stroke-linecap:round; stroke-linejoin:round;">
<g transform="rotate(-90.000000 146.000000 85.000000)">
<text x="146.000000" y="85.750000"
transform="scale(-1 1) translate(-292.000000 0)"
textLength="4.885833" font-size="2.000000" lengthAdjust="spacingAndGlyphs"
text-anchor="middle" opacity="0">AFE in</text>
</g>
<g class="stroked-text"><desc>AFE in</desc>
<path style="fill:#E8B2A7; fill-opacity:1.000000; stroke:none;fill-rule:evenodd;"
d="M 146.622500,82.890841
146.229757,82.960451
146.229757,83.256473
146.622500,83.323518
146.622500,83.611114
144.921470,83.271127
144.921470,83.107363
145.318243,83.107363
146.032287,83.222767
146.032287,82.991958
145.318243,83.107363
144.921470,83.107363
144.921470,82.939201
146.622500,82.599215
Z" /> 
<path style="fill:#E8B2A7; fill-opacity:1.000000; stroke:none;fill-rule:evenodd;"
d="M 146.622500,83.781473
144.921470,83.781473
144.921470,84.480496
145.135793,84.480496
145.135793,84.092150
145.631118,84.092150
145.631118,84.409421
145.847639,84.409421
145.847639,84.092150
146.622500,84.092150
Z" /> 
<path style="fill:#E8B2A7; fill-opacity:1.000000; stroke:none;fill-rule:evenodd;"
d="M 146.622500,84.647558
144.921470,84.647558
144.921470,85.361602
145.139823,85.361602
145.139823,84.958235
145.629286,84.958235
145.629286,85.275506
145.845441,85.275506
145.845441,84.958235
146.408176,84.958235
146.408176,85.365632
146.622500,85.365632
Z" /> 
<path style="fill:#E8B2A7; fill-opacity:1.000000; stroke:none;fill-rule:evenodd;"
d="M 146.622500,86.045238
145.408735,86.045238
145.408735,86.331002
146.622500,86.331002
Z" /> 
<path style="fill:#E8B2A7; fill-opacity:1.000000; stroke:none;fill-rule:evenodd;"
d="M 145.215661,86.045238
144.978257,86.045238
144.978257,86.331002
145.215661,86.331002
Z" /> 
<path style="fill:#E8B2A7; fill-opacity:1.000000; stroke:none;fill-rule:evenodd;"
d="M 146.622500,86.557049
145.408735,86.557049
145.408735,86.842813
145.530368,86.842813
145.479858,86.901026
145.438605,86.962185
145.428518,86.980199
145.400644,87.050701
145.389835,87.126194
145.389684,87.136637
145.401392,87.211573
145.426687,87.256072
145.485185,87.304157
145.524139,87.321284
145.595920,87.338466
145.656397,87.342534
146.622500,87.342534
146.622500,87.056769
145.713183,87.056769
145.639062,87.044772
145.629286,87.039917
145.599977,86.975070
145.616830,86.910590
145.655470,86.846984
145.658595,86.842813
146.622500,86.842813
Z" /> 
</g></g>
<g style="fill:none; 
stroke:#E8B2A7; stroke-width:0.120000; stroke-opacity:1; 
stroke-linecap:round; stroke-linejoin:round;">
<path d="M147.500000 95.900000
L147.500000 102.100000
" />
<path d="M147.500000 95.900000
L148.625000 95.900000
" />
<path d="M148.625000 94.500000
L148.625000 95.900000
" />
<path d="M150.175000 94.500000
L150.175000 95.900000
" />
<path d="M150.175000 95.900000
L152.575000 95.900000
" />
<path d="M154.225000 95.900000
L155.575000 95.900000
" />
<path d="M157.225000 95.900000
L159.600000 95.900000
" />
<path d="M159.600000 96.500000
L159.600000 95.900000
" />
<path d="M159.600000 102.100000
L149.075000 102.100000
" />
<path d="M159.600000 102.100000
L159.600000 101.500000
" />
<path d="M161.600000 96.500000
L159.600000 96.500000
" />
<path d="M161.600000 101.500000
L159.600000 101.500000
" />
<path d="M161.600000 101.500000
L161.600000 96.500000
" />
<path d="M147.500000 106.950000
L147.500000 113.150000
" />
<path d="M147.500000 106.950000
L148.625000 106.950000
" />
<path d="M148.625000 105.550000
L148.625000 106.950000
" />
<path d="M150.175000 105.550000
L150.175000 106.950000
" />
<path d="M150.175000 106.950000
L152.575000 106.950000
" />
<path d="M154.225000 106.950000
L155.575000 106.950000
" />
<path d="M157.225000 106.950000
L159.600000 106.950000
" />
<path d="M159.600000 107.550000
L159.600000 106.950000
" />
<path d="M159.600000 113.150000
L149.075000 113.150000
" />
<path d="M159.600000 113.150000
L159.600000 112.550000
" />
<path d="M161.600000 107.550000
L159.600000 107.550000
" />
<path d="M161.600000 112.550000
L159.600000 112.550000
" />
<path d="M161.600000 112.550000
L161.600000 107.550000
" />
<path d="M147.500000 81.900000
L147.500000 88.100000
" />
<path d="M147.500000 81.900000
L148.625000 81.900000
" />
<path d="M148.625000 80.500000
L148.625000 81.900000
" />
<path d="M150.175000 80.500000
L150.175000 81.900000
" />
<path d="M150.175000 81.900000
L152.575000 81.900000
" />
<path d="M154.225000 81.900000
L155.575000 81.900000
" />
<path d="M157.225000 81.900000
L159.600000 81.900000
" />
<path d="M159.600000 82.500000
L159.600000 81.900000
" />
<path d="M159.600000 88.100000
L149.075000 88.100000
" />
<path d="M159.600000 88.100000
L159.600000 87.500000
" />
<path d="M161.600000 82.500000
L159.600000 82.500000
" />
<path d="M161.600000 87.500000
L159.600000 87.500000
" />
<path d="M161.600000 87.500000
L161.600000 82.500000
" />
</g>
<g style="fill:#FFFFFF; fill-opacity:1.000000; stroke:none;">
<circle cx="136.100000" cy="80.000000" r="0.175000" /> 
</g>
<g style="fill:#FFFFFF; fill-opacity:1.000000; stroke:none;">
<circle cx="127.900000" cy="80.000000" r="0.175000" /> 
</g>
<g style="fill:#FFFFFF; fill-opacity:1.000000; stroke:none;">
<circle cx="134.000000" cy="80.000000" r="0.175000" /> 
</g>
<g style="fill:#FFFFFF; fill-opacity:1.000000; stroke:none;">
<circle cx="132.000000" cy="80.000000" r="0.175000" /> 
</g>
<g style="fill:#FFFFFF; fill-opacity:1.000000; stroke:none;">
<circle cx="130.000000" cy="80.000000" r="0.175000" /> 
</g>
<g style="fill:#FFFFFF; fill-opacity:1.000000; stroke:none;">
<circle cx="140.444205" cy="82.000000" r="0.175000" /> 
</g>
<g style="fill:#FFFFFF; fill-opacity:1.000000; stroke:none;">
<circle cx="140.444205" cy="79.460000" r="0.175000" /> 
</g>
<g style="fill:#FFFFFF; fill-opacity:1.000000; stroke:none;">
<circle cx="127.900000" cy="114.000000" r="0.175000" /> 
</g>
<g style="fill:#FFFFFF; fill-opacity:1.000000; stroke:none;">
<circle cx="136.100000" cy="114.000000" r="0.175000" /> 
</g>
<g style="fill:#FFFFFF; fill-opacity:1.000000; stroke:none;">
<circle cx="130.000000" cy="114.000000" r="0.175000" /> 
</g>
<g style="fill:#FFFFFF; fill-opacity:1.000000; stroke:none;">
<circle cx="132.000000" cy="114.000000" r="0.175000" /> 
</g>
<g style="fill:#FFFFFF; fill-opacity:1.000000; stroke:none;">
<circle cx="134.000000" cy="114.000000" r="0.175000" /> 
</g>
<g style="fill:#FFFFFF; fill-opacity:1.000000; stroke:none;">
<circle cx="146.000000" cy="114.000000" r="0.175000" /> 
</g>
<g style="fill:#FFFFFF; fill-opacity:1.000000; stroke:none;">
<circle cx="143.460000" cy="114.000000" r="0.175000" /> 
</g>
<g style="fill:#FFFFFF; fill-opacity:1.000000; stroke:none;">
<circle cx="140.920000" cy="114.000000" r="0.175000" /> 
</g>
<g style="fill:#FFFFFF; fill-opacity:1.000000; stroke:none;">
<circle cx="122.000000" cy="115.000000" r="0.175000" /> 
</g>
<g style="fill:#FFFFFF; fill-opacity:1.000000; stroke:none;">
<circle cx="122.000000" cy="79.000000" r="0.175000" /> 
</g>
<g style="fill:#FFFFFF; fill-opacity:1.000000; stroke:none;">
<circle cx="158.000000" cy="79.000000" r="0.175000" /> 
</g>
<g style="fill:#FFFFFF; fill-opacity:1.000000; stroke:none;">
<circle cx="158.000000" cy="115.000000" r="0.175000" /> 
</g>
<g style="fill:#FFFFFF; fill-opacity:1.000000; stroke:none;">
<circle cx="158.000000" cy="99.000000" r="0.175000" /> 
</g>
<g style="fill:#FFFFFF; fill-opacity:1.000000; stroke:none;">
<circle cx="158.000000" cy="110.050000" r="0.175000" /> 
</g>
<g style="fill:#FFFFFF; fill-opacity:1.000000; stroke:none;">
<circle cx="158.000000" cy="85.000000" r="0.175000" /> 
</g>
<g style="fill:#FFFFFF; fill-opacity:1.000000; stroke:none;">
<circle cx="151.000000" cy="85.000000" r="0.175000" /> 
</g> 
</svg>
