%TF.GenerationSoftware,KiCad,Pcbnew,8.0.2*%
%TF.CreationDate,2025-06-15T12:49:30+05:30*%
%TF.ProjectId,final schematics,66696e61-6c20-4736-9368-656d61746963,1.0*%
%TF.SameCoordinates,Original*%
%TF.FileFunction,Legend,Bot*%
%TF.FilePolarity,Positive*%
%FSLAX46Y46*%
G04 Gerber Fmt 4.6, Leading zero omitted, Abs format (unit mm)*
G04 Created by KiCad (PCBNEW 8.0.2) date 2025-06-15 12:49:30*
%MOMM*%
%LPD*%
G01*
G04 APERTURE LIST*
%ADD10C,0.100000*%
%ADD11C,0.150000*%
%ADD12C,0.120000*%
G04 APERTURE END LIST*
D10*
X124649999Y-85041413D02*
X132149999Y-85041413D01*
X132149999Y-109041413D01*
X124649999Y-109041413D01*
X124649999Y-85041413D01*
D11*
G36*
X130505983Y-88654881D02*
G01*
X130635796Y-88649037D01*
X130768413Y-88628047D01*
X130897535Y-88586187D01*
X130994468Y-88532759D01*
X131094384Y-88447346D01*
X131173548Y-88344521D01*
X131231961Y-88224283D01*
X131241154Y-88198147D01*
X131274803Y-88073844D01*
X131297439Y-87939302D01*
X131308316Y-87811112D01*
X131310763Y-87709661D01*
X131310763Y-86698496D01*
X131307432Y-86575047D01*
X131295468Y-86443051D01*
X131274803Y-86320749D01*
X131241154Y-86194745D01*
X131193251Y-86082308D01*
X131120312Y-85975618D01*
X131026622Y-85888130D01*
X130994468Y-85865627D01*
X130884237Y-85809546D01*
X130752754Y-85771818D01*
X130618039Y-85753691D01*
X130505983Y-85749612D01*
X130383357Y-85754404D01*
X130258240Y-85771615D01*
X130136642Y-85805941D01*
X130045585Y-85849752D01*
X129942729Y-85928351D01*
X129862529Y-86027298D01*
X129809280Y-86134905D01*
X129772250Y-86256705D01*
X129748935Y-86390072D01*
X129739677Y-86519994D01*
X129739060Y-86565383D01*
X129739060Y-86803520D01*
X130236094Y-86803520D01*
X130236094Y-86558667D01*
X130240152Y-86431477D01*
X130248917Y-86341901D01*
X130288237Y-86221718D01*
X130315473Y-86186196D01*
X130426876Y-86133853D01*
X130502319Y-86128188D01*
X130623416Y-86145421D01*
X130696492Y-86189249D01*
X130761871Y-86298789D01*
X130775260Y-86353503D01*
X130789579Y-86477902D01*
X130792968Y-86586144D01*
X130792968Y-87818349D01*
X130788293Y-87942703D01*
X130770046Y-88066050D01*
X130768544Y-88072362D01*
X130715912Y-88186125D01*
X130679395Y-88222571D01*
X130561503Y-88269242D01*
X130502319Y-88273251D01*
X130380453Y-88253931D01*
X130318526Y-88212191D01*
X130261226Y-88103597D01*
X130250138Y-88049769D01*
X130238782Y-87927516D01*
X130236094Y-87822013D01*
X130236094Y-87566168D01*
X129739060Y-87566168D01*
X129739060Y-87793925D01*
X129743220Y-87916390D01*
X129757844Y-88045495D01*
X129782998Y-88165424D01*
X129805616Y-88240279D01*
X129856993Y-88353467D01*
X129936098Y-88459104D01*
X130038868Y-88544971D01*
X130155850Y-88602931D01*
X130283667Y-88636741D01*
X130415206Y-88652197D01*
X130505983Y-88654881D01*
G37*
G36*
X129387961Y-88616413D02*
G01*
X129339113Y-85781364D01*
X128803610Y-85781364D01*
X128400609Y-87745076D01*
X127981122Y-85781364D01*
X127462717Y-85781364D01*
X127410205Y-88616413D01*
X127795498Y-88616413D01*
X127837630Y-86645983D01*
X128240020Y-88616413D01*
X128551429Y-88616413D01*
X128961147Y-86638656D01*
X128999615Y-88616413D01*
X129387961Y-88616413D01*
G37*
G36*
X126229290Y-88654881D02*
G01*
X126359104Y-88649037D01*
X126491720Y-88628047D01*
X126620842Y-88586187D01*
X126717776Y-88532759D01*
X126817692Y-88447346D01*
X126896856Y-88344521D01*
X126955269Y-88224283D01*
X126964461Y-88198147D01*
X126998110Y-88073844D01*
X127020747Y-87939302D01*
X127031623Y-87811112D01*
X127034071Y-87709661D01*
X127034071Y-86698496D01*
X127030740Y-86575047D01*
X127018776Y-86443051D01*
X126998110Y-86320749D01*
X126964461Y-86194745D01*
X126916559Y-86082308D01*
X126843620Y-85975618D01*
X126749930Y-85888130D01*
X126717776Y-85865627D01*
X126607545Y-85809546D01*
X126476062Y-85771818D01*
X126341346Y-85753691D01*
X126229290Y-85749612D01*
X126106665Y-85754404D01*
X125981547Y-85771615D01*
X125859949Y-85805941D01*
X125768893Y-85849752D01*
X125666037Y-85928351D01*
X125585837Y-86027298D01*
X125532588Y-86134905D01*
X125495558Y-86256705D01*
X125472243Y-86390072D01*
X125462985Y-86519994D01*
X125462368Y-86565383D01*
X125462368Y-86803520D01*
X125959402Y-86803520D01*
X125959402Y-86558667D01*
X125963459Y-86431477D01*
X125972225Y-86341901D01*
X126011545Y-86221718D01*
X126038781Y-86186196D01*
X126150183Y-86133853D01*
X126225627Y-86128188D01*
X126346724Y-86145421D01*
X126419800Y-86189249D01*
X126485178Y-86298789D01*
X126498568Y-86353503D01*
X126512886Y-86477902D01*
X126516276Y-86586144D01*
X126516276Y-87818349D01*
X126511601Y-87942703D01*
X126493354Y-88066050D01*
X126491852Y-88072362D01*
X126439220Y-88186125D01*
X126402703Y-88222571D01*
X126284810Y-88269242D01*
X126225627Y-88273251D01*
X126103761Y-88253931D01*
X126041834Y-88212191D01*
X125984534Y-88103597D01*
X125973446Y-88049769D01*
X125962090Y-87927516D01*
X125959402Y-87822013D01*
X125959402Y-87566168D01*
X125462368Y-87566168D01*
X125462368Y-87793925D01*
X125466528Y-87916390D01*
X125481152Y-88045495D01*
X125506305Y-88165424D01*
X125528924Y-88240279D01*
X125580301Y-88353467D01*
X125659406Y-88459104D01*
X125762176Y-88544971D01*
X125879157Y-88602931D01*
X126006975Y-88636741D01*
X126138513Y-88652197D01*
X126229290Y-88654881D01*
G37*
G36*
X131241606Y-89312818D02*
G01*
X125571508Y-89312818D01*
X125571508Y-91692965D01*
X126299351Y-91692965D01*
X126299351Y-90348408D01*
X127930894Y-90348408D01*
X127930894Y-91405980D01*
X128651410Y-91405980D01*
X128651410Y-90348408D01*
X130527195Y-90348408D01*
X130527195Y-91706398D01*
X131241606Y-91706398D01*
X131241606Y-89312818D01*
G37*
G36*
X131241606Y-92307236D02*
G01*
X125571508Y-92307236D01*
X125571508Y-93342825D01*
X128064006Y-93342825D01*
X125571508Y-94462679D01*
X125571508Y-95449420D01*
X128105527Y-94364982D01*
X131241606Y-95561772D01*
X131241606Y-94532288D01*
X128658737Y-93580962D01*
X129092268Y-93342825D01*
X131241606Y-93342825D01*
X131241606Y-92307236D01*
G37*
G36*
X129699939Y-95806050D02*
G01*
X129960478Y-95832497D01*
X130201782Y-95878178D01*
X130450259Y-95952560D01*
X130502008Y-95972586D01*
X130737855Y-96096473D01*
X130935539Y-96259953D01*
X131095060Y-96463028D01*
X131192833Y-96657201D01*
X131269437Y-96912139D01*
X131307848Y-97171189D01*
X131318542Y-97422902D01*
X131310556Y-97644481D01*
X131275065Y-97911202D01*
X131201198Y-98172032D01*
X131091396Y-98391325D01*
X131062116Y-98434826D01*
X130893674Y-98629290D01*
X130688500Y-98785353D01*
X130446595Y-98903014D01*
X130257217Y-98964398D01*
X129992609Y-99021166D01*
X129737451Y-99050704D01*
X129463518Y-99060551D01*
X127336162Y-99060551D01*
X127126719Y-99055012D01*
X126865494Y-99030397D01*
X126596248Y-98979167D01*
X126353085Y-98903014D01*
X126302548Y-98882554D01*
X126072473Y-98757212D01*
X125880084Y-98593469D01*
X125725381Y-98391325D01*
X125630279Y-98198450D01*
X125555768Y-97942234D01*
X125518406Y-97679616D01*
X125508005Y-97422902D01*
X126265157Y-97422902D01*
X126275772Y-97571356D01*
X126373846Y-97803921D01*
X126440768Y-97866239D01*
X126670601Y-97967564D01*
X126845578Y-97996782D01*
X127098026Y-98010306D01*
X129708982Y-98010306D01*
X129890871Y-98003252D01*
X130136407Y-97967564D01*
X130239747Y-97937832D01*
X130444153Y-97803921D01*
X130520121Y-97670885D01*
X130555283Y-97422902D01*
X130544431Y-97277311D01*
X130444153Y-97044326D01*
X130365823Y-96974178D01*
X130136407Y-96879462D01*
X129957823Y-96853583D01*
X129708982Y-96841604D01*
X127098026Y-96841604D01*
X126912601Y-96848457D01*
X126670601Y-96883126D01*
X126581070Y-96909687D01*
X126373846Y-97051653D01*
X126303474Y-97173605D01*
X126265157Y-97422902D01*
X125508005Y-97422902D01*
X125515647Y-97205717D01*
X125549612Y-96942851D01*
X125620302Y-96683619D01*
X125725381Y-96463028D01*
X125753307Y-96419245D01*
X125915547Y-96224090D01*
X126115473Y-96068528D01*
X126353085Y-95952560D01*
X126539958Y-95892604D01*
X126803408Y-95837156D01*
X127059481Y-95808304D01*
X127336162Y-95798687D01*
X129456190Y-95798687D01*
X129699939Y-95806050D01*
G37*
G36*
X131241606Y-101450467D02*
G01*
X131233298Y-101666979D01*
X131200580Y-101909567D01*
X131136581Y-102146559D01*
X131108741Y-102219507D01*
X130986357Y-102450484D01*
X130825171Y-102643593D01*
X130758112Y-102703765D01*
X130543064Y-102846552D01*
X130307377Y-102945233D01*
X130082027Y-103002941D01*
X129834166Y-103036695D01*
X129589303Y-103046594D01*
X129393985Y-103039801D01*
X129149600Y-103008277D01*
X128896874Y-102937906D01*
X128826826Y-102908978D01*
X128608405Y-102780083D01*
X128431592Y-102608178D01*
X128378533Y-102536652D01*
X128262327Y-102306243D01*
X128197118Y-102052525D01*
X128129785Y-102288855D01*
X128004167Y-102508038D01*
X127835028Y-102668017D01*
X127615820Y-102784033D01*
X127536728Y-102811474D01*
X127289890Y-102863567D01*
X127027195Y-102879287D01*
X126823252Y-102871807D01*
X126572741Y-102837096D01*
X126321333Y-102759608D01*
X126269699Y-102736496D01*
X126055986Y-102604796D01*
X125876811Y-102420111D01*
X125827617Y-102349331D01*
X125714616Y-102128940D01*
X125642338Y-101894989D01*
X125608099Y-101718050D01*
X125579877Y-101463799D01*
X125571508Y-101212330D01*
X125571508Y-101058457D01*
X126292024Y-101058457D01*
X126292083Y-101078039D01*
X126305173Y-101329152D01*
X126351864Y-101576252D01*
X126405413Y-101704341D01*
X126576567Y-101881555D01*
X126789384Y-101960645D01*
X127041850Y-101982916D01*
X127274262Y-101970060D01*
X127518123Y-101915749D01*
X127626244Y-101864516D01*
X127797781Y-101681276D01*
X127868295Y-101463877D01*
X127887680Y-101212330D01*
X128602562Y-101212330D01*
X128625638Y-101474617D01*
X128707586Y-101705701D01*
X128810856Y-101839187D01*
X129026323Y-101971925D01*
X129081774Y-101990816D01*
X129325742Y-102039223D01*
X129583197Y-102052525D01*
X129805305Y-102041992D01*
X130060355Y-101993113D01*
X130286616Y-101883998D01*
X130406400Y-101749974D01*
X130491580Y-101511380D01*
X130513762Y-101247745D01*
X130513762Y-100855735D01*
X128602562Y-100855735D01*
X128602562Y-101212330D01*
X127887680Y-101212330D01*
X127888151Y-101206224D01*
X127888151Y-100855735D01*
X126292024Y-100855735D01*
X126292024Y-101058457D01*
X125571508Y-101058457D01*
X125571508Y-99820146D01*
X131241606Y-99820146D01*
X131241606Y-101450467D01*
G37*
G36*
X131241606Y-103746350D02*
G01*
X125571508Y-103746350D01*
X125571508Y-104767285D01*
X131241606Y-104767285D01*
X131241606Y-103746350D01*
G37*
G36*
X131241606Y-106209539D02*
G01*
X126334767Y-106209539D01*
X126334767Y-105307061D01*
X125571508Y-105307061D01*
X125571508Y-108134172D01*
X126334767Y-108134172D01*
X126334767Y-107245128D01*
X131241606Y-107245128D01*
X131241606Y-106209539D01*
G37*
G36*
X146622500Y-96744103D02*
G01*
X144921470Y-96744103D01*
X144921470Y-97054780D01*
X146408176Y-97054780D01*
X146408176Y-97466207D01*
X146622500Y-97466207D01*
X146622500Y-96744103D01*
G37*
G36*
X146622500Y-97617149D02*
G01*
X145408735Y-97617149D01*
X145408735Y-97902913D01*
X146622500Y-97902913D01*
X146622500Y-97617149D01*
G37*
G36*
X145215661Y-97617149D02*
G01*
X144978257Y-97617149D01*
X144978257Y-97902913D01*
X145215661Y-97902913D01*
X145215661Y-97617149D01*
G37*
G36*
X146641550Y-98458688D02*
G01*
X146636421Y-98385507D01*
X146618389Y-98311279D01*
X146583127Y-98238865D01*
X146559485Y-98206629D01*
X146500859Y-98150544D01*
X146435555Y-98109489D01*
X146367531Y-98080489D01*
X146320249Y-98065945D01*
X146238183Y-98278070D01*
X146310699Y-98301330D01*
X146379197Y-98337429D01*
X146389492Y-98345115D01*
X146433236Y-98404058D01*
X146441882Y-98454658D01*
X146421120Y-98525170D01*
X146416603Y-98530129D01*
X146347360Y-98555408D01*
X146274525Y-98536625D01*
X146256135Y-98524633D01*
X146200434Y-98473412D01*
X146154286Y-98420952D01*
X146030455Y-98274040D01*
X145977887Y-98218416D01*
X145920125Y-98167807D01*
X145888672Y-98144714D01*
X145818187Y-98110904D01*
X145740178Y-98096462D01*
X145706955Y-98095254D01*
X145631300Y-98102692D01*
X145560374Y-98127335D01*
X145537695Y-98140317D01*
X145478672Y-98190233D01*
X145436077Y-98250039D01*
X145428518Y-98264515D01*
X145401971Y-98336803D01*
X145390632Y-98409956D01*
X145389684Y-98439637D01*
X145396581Y-98519908D01*
X145417273Y-98590500D01*
X145456442Y-98657584D01*
X145476878Y-98681071D01*
X145536599Y-98731475D01*
X145606766Y-98769571D01*
X145678849Y-98793334D01*
X145704757Y-98799040D01*
X145784624Y-98605600D01*
X145713115Y-98584648D01*
X145691202Y-98575192D01*
X145629725Y-98533460D01*
X145620860Y-98523901D01*
X145593490Y-98453554D01*
X145593382Y-98448063D01*
X145619169Y-98379387D01*
X145620860Y-98377721D01*
X145690102Y-98351709D01*
X145758989Y-98378435D01*
X145763742Y-98382118D01*
X145817845Y-98433389D01*
X145849837Y-98469312D01*
X145983927Y-98618423D01*
X146036154Y-98673994D01*
X146074419Y-98710380D01*
X146132533Y-98755499D01*
X146182862Y-98784019D01*
X146255725Y-98808015D01*
X146320249Y-98813695D01*
X146394146Y-98807049D01*
X146468508Y-98782495D01*
X146496470Y-98766434D01*
X146552389Y-98718629D01*
X146595125Y-98657921D01*
X146604914Y-98638206D01*
X146629958Y-98563995D01*
X146640656Y-98489056D01*
X146641550Y-98458688D01*
G37*
G36*
X146637154Y-99321476D02*
G01*
X146632695Y-99247936D01*
X146615928Y-99175983D01*
X146599419Y-99139759D01*
X146549812Y-99080549D01*
X146490242Y-99046336D01*
X146417309Y-99026877D01*
X146338489Y-99019463D01*
X146320249Y-99019225D01*
X145597779Y-99019225D01*
X145597779Y-98897226D01*
X145408735Y-98897226D01*
X145408735Y-99019225D01*
X145045301Y-99019225D01*
X145045301Y-99306821D01*
X145408735Y-99306821D01*
X145408735Y-99491469D01*
X145597779Y-99491469D01*
X145597779Y-99306821D01*
X146294970Y-99306821D01*
X146368884Y-99322071D01*
X146384363Y-99333932D01*
X146409968Y-99402774D01*
X146410375Y-99415998D01*
X146408543Y-99461060D01*
X146404146Y-99504291D01*
X146622500Y-99504291D01*
X146630707Y-99429888D01*
X146631659Y-99421127D01*
X146636811Y-99347350D01*
X146637154Y-99321476D01*
G37*
G36*
X146215676Y-99638907D02*
G01*
X146290165Y-99643596D01*
X146365384Y-99656418D01*
X146438951Y-99679780D01*
X146485777Y-99703113D01*
X146544767Y-99748674D01*
X146590259Y-99806908D01*
X146619461Y-99872030D01*
X146636542Y-99949013D01*
X146641550Y-100029291D01*
X146638086Y-100096783D01*
X146622687Y-100176192D01*
X146590638Y-100251076D01*
X146542998Y-100310659D01*
X146488158Y-100351051D01*
X146413599Y-100382697D01*
X146335890Y-100398565D01*
X146259066Y-100402983D01*
X146177367Y-100402983D01*
X146177367Y-100136270D01*
X146278117Y-100136270D01*
X146290940Y-100136104D01*
X146365312Y-100125645D01*
X146417702Y-100092306D01*
X146435654Y-100031490D01*
X146418801Y-99970307D01*
X146364213Y-99933670D01*
X146341306Y-99928180D01*
X146267493Y-99922313D01*
X146028257Y-99922313D01*
X146028257Y-100405181D01*
X145856065Y-100405181D01*
X145837603Y-100405045D01*
X145758877Y-100401068D01*
X145679765Y-100390192D01*
X145602908Y-100370377D01*
X145559754Y-100353083D01*
X145496788Y-100313078D01*
X145444272Y-100254972D01*
X145440914Y-100249871D01*
X145408928Y-100178842D01*
X145394002Y-100105799D01*
X145389684Y-100029291D01*
X145389806Y-100027093D01*
X145595580Y-100027093D01*
X145613532Y-100092306D01*
X145670319Y-100125645D01*
X145696952Y-100131248D01*
X145772168Y-100136270D01*
X145887573Y-100136270D01*
X145887573Y-99922313D01*
X145803675Y-99922313D01*
X145751758Y-99923525D01*
X145677646Y-99932571D01*
X145614631Y-99966277D01*
X145595580Y-100027093D01*
X145389806Y-100027093D01*
X145393683Y-99957399D01*
X145409433Y-99879683D01*
X145440242Y-99807641D01*
X145468383Y-99767089D01*
X145522016Y-99716994D01*
X145589352Y-99679780D01*
X145601853Y-99674811D01*
X145677105Y-99653213D01*
X145755057Y-99641993D01*
X145832984Y-99638747D01*
X146198250Y-99638747D01*
X146215676Y-99638907D01*
G37*
G36*
X146622500Y-100598255D02*
G01*
X145408735Y-100598255D01*
X145408735Y-100884019D01*
X145530368Y-100884019D01*
X145479858Y-100942233D01*
X145438605Y-101003391D01*
X145428518Y-101021406D01*
X145400644Y-101091908D01*
X145389835Y-101167401D01*
X145389684Y-101177843D01*
X145401392Y-101252779D01*
X145426687Y-101297278D01*
X145485185Y-101345363D01*
X145524139Y-101362491D01*
X145595920Y-101379673D01*
X145656397Y-101383740D01*
X146622500Y-101383740D01*
X146622500Y-101097976D01*
X145713183Y-101097976D01*
X145639062Y-101085978D01*
X145629286Y-101081123D01*
X145599977Y-101016277D01*
X145616830Y-100951797D01*
X145655470Y-100888191D01*
X145658595Y-100884019D01*
X146622500Y-100884019D01*
X146622500Y-100598255D01*
G37*
G36*
X146622500Y-107645918D02*
G01*
X145843243Y-107645918D01*
X145843243Y-107788800D01*
X146622500Y-107994330D01*
X146622500Y-108305374D01*
X145784624Y-108067970D01*
X145782630Y-108072927D01*
X145746614Y-108139136D01*
X145695598Y-108192900D01*
X145691957Y-108195691D01*
X145627374Y-108233438D01*
X145556013Y-108257014D01*
X145519110Y-108264437D01*
X145445274Y-108273385D01*
X145370999Y-108276064D01*
X145319515Y-108274544D01*
X145244433Y-108265785D01*
X145170695Y-108246627D01*
X145102088Y-108213783D01*
X145041130Y-108164505D01*
X144993766Y-108101808D01*
X144962503Y-108033165D01*
X144946515Y-107978816D01*
X144931728Y-107901365D01*
X144924035Y-107825368D01*
X144921993Y-107759491D01*
X145133595Y-107759491D01*
X145135160Y-107798746D01*
X145151690Y-107876026D01*
X145197709Y-107939009D01*
X145244005Y-107963932D01*
X145315996Y-107981655D01*
X145389684Y-107986270D01*
X145462623Y-107981782D01*
X145538061Y-107962823D01*
X145573926Y-107943362D01*
X145621959Y-107886253D01*
X145642255Y-107819081D01*
X145647971Y-107742638D01*
X145647971Y-107645918D01*
X145133595Y-107645918D01*
X145133595Y-107759491D01*
X144921993Y-107759491D01*
X144921470Y-107742638D01*
X144921470Y-107335241D01*
X146622500Y-107335241D01*
X146622500Y-107645918D01*
G37*
G36*
X146215676Y-108439257D02*
G01*
X146290165Y-108443945D01*
X146365384Y-108456768D01*
X146438951Y-108480129D01*
X146485777Y-108503462D01*
X146544767Y-108549023D01*
X146590259Y-108607258D01*
X146619461Y-108672379D01*
X146636542Y-108749363D01*
X146641550Y-108829641D01*
X146638086Y-108897132D01*
X146622687Y-108976541D01*
X146590638Y-109051426D01*
X146542998Y-109111009D01*
X146488158Y-109151400D01*
X146413599Y-109183046D01*
X146335890Y-109198915D01*
X146259066Y-109203332D01*
X146177367Y-109203332D01*
X146177367Y-108936619D01*
X146278117Y-108936619D01*
X146290940Y-108936453D01*
X146365312Y-108925995D01*
X146417702Y-108892656D01*
X146435654Y-108831839D01*
X146418801Y-108770656D01*
X146364213Y-108734020D01*
X146341306Y-108728530D01*
X146267493Y-108722662D01*
X146028257Y-108722662D01*
X146028257Y-109205531D01*
X145856065Y-109205531D01*
X145837603Y-109205395D01*
X145758877Y-109201418D01*
X145679765Y-109190542D01*
X145602908Y-109170726D01*
X145559754Y-109153433D01*
X145496788Y-109113428D01*
X145444272Y-109055321D01*
X145440914Y-109050221D01*
X145408928Y-108979192D01*
X145394002Y-108906148D01*
X145389684Y-108829641D01*
X145389806Y-108827443D01*
X145595580Y-108827443D01*
X145613532Y-108892656D01*
X145670319Y-108925995D01*
X145696952Y-108931597D01*
X145772168Y-108936619D01*
X145887573Y-108936619D01*
X145887573Y-108722662D01*
X145803675Y-108722662D01*
X145751758Y-108723875D01*
X145677646Y-108732921D01*
X145614631Y-108766626D01*
X145595580Y-108827443D01*
X145389806Y-108827443D01*
X145393683Y-108757748D01*
X145409433Y-108680033D01*
X145440242Y-108607990D01*
X145468383Y-108567439D01*
X145522016Y-108517344D01*
X145589352Y-108480129D01*
X145601853Y-108475161D01*
X145677105Y-108453562D01*
X145755057Y-108442342D01*
X145832984Y-108439097D01*
X146198250Y-108439097D01*
X146215676Y-108439257D01*
G37*
G36*
X146641550Y-109763870D02*
G01*
X146637319Y-109689140D01*
X146622693Y-109616440D01*
X146591352Y-109543556D01*
X146588061Y-109538189D01*
X146541230Y-109480933D01*
X146481518Y-109436661D01*
X146434555Y-109414358D01*
X146361672Y-109392248D01*
X146287827Y-109380112D01*
X146206754Y-109375562D01*
X146198250Y-109375524D01*
X145832984Y-109375524D01*
X145757183Y-109378595D01*
X145680776Y-109389214D01*
X145606232Y-109409656D01*
X145593749Y-109414358D01*
X145526103Y-109450130D01*
X145471543Y-109499194D01*
X145442440Y-109539288D01*
X145410292Y-109611228D01*
X145393857Y-109690116D01*
X145389684Y-109763870D01*
X145393691Y-109840735D01*
X145407355Y-109914542D01*
X145430717Y-109977094D01*
X145474685Y-110041167D01*
X145534781Y-110087850D01*
X145554914Y-110097994D01*
X145629322Y-110122426D01*
X145703429Y-110133371D01*
X145763742Y-110135729D01*
X145864492Y-110135729D01*
X145864492Y-109866818D01*
X145757147Y-109866818D01*
X145682970Y-109862316D01*
X145657496Y-109857293D01*
X145605106Y-109825053D01*
X145589352Y-109763870D01*
X145609502Y-109703053D01*
X145673616Y-109670447D01*
X145749997Y-109662182D01*
X145795249Y-109661288D01*
X146240382Y-109661288D01*
X146317816Y-109664791D01*
X146390651Y-109681748D01*
X146399017Y-109686201D01*
X146438691Y-109749725D01*
X146439684Y-109766068D01*
X146420999Y-109830182D01*
X146365312Y-109859491D01*
X146292012Y-109866639D01*
X146275919Y-109866818D01*
X146145860Y-109866818D01*
X146145860Y-110135729D01*
X146261264Y-110135729D01*
X146340896Y-110131141D01*
X146418090Y-110115667D01*
X146469359Y-110096895D01*
X146532238Y-110058026D01*
X146584130Y-109999802D01*
X146598686Y-109974896D01*
X146624806Y-109906408D01*
X146638160Y-109832404D01*
X146641550Y-109763870D01*
G37*
G36*
X146299267Y-110298551D02*
G01*
X146378408Y-110312825D01*
X146448110Y-110337230D01*
X146481972Y-110354948D01*
X146544469Y-110403678D01*
X146592091Y-110466556D01*
X146620250Y-110531202D01*
X146636720Y-110606757D01*
X146641550Y-110684910D01*
X146637638Y-110755740D01*
X146622230Y-110832629D01*
X146592091Y-110904362D01*
X146568297Y-110940388D01*
X146512665Y-110996039D01*
X146448110Y-111034421D01*
X146442163Y-111037081D01*
X146371603Y-111060765D01*
X146299267Y-111073430D01*
X146219132Y-111077652D01*
X145811735Y-111077652D01*
X145731794Y-111073430D01*
X145652783Y-111059034D01*
X145583124Y-111034421D01*
X145543927Y-111013547D01*
X145482574Y-110963524D01*
X145439143Y-110904362D01*
X145410984Y-110839091D01*
X145394514Y-110763170D01*
X145389820Y-110687108D01*
X145587154Y-110687108D01*
X145587182Y-110690106D01*
X145615730Y-110758549D01*
X145621178Y-110762728D01*
X145690102Y-110787858D01*
X145716909Y-110790869D01*
X145793051Y-110794086D01*
X146238183Y-110794086D01*
X146265981Y-110793697D01*
X146342231Y-110787858D01*
X146348061Y-110787014D01*
X146416969Y-110758549D01*
X146418637Y-110757081D01*
X146444080Y-110687108D01*
X146444054Y-110684110D01*
X146416969Y-110615667D01*
X146411643Y-110611477D01*
X146342231Y-110585258D01*
X146311762Y-110581394D01*
X146238183Y-110577931D01*
X145793051Y-110577931D01*
X145765322Y-110578389D01*
X145690102Y-110585258D01*
X145684402Y-110586236D01*
X145615730Y-110615667D01*
X145613972Y-110617134D01*
X145587154Y-110687108D01*
X145389820Y-110687108D01*
X145389684Y-110684910D01*
X145393596Y-110614166D01*
X145409004Y-110537620D01*
X145439143Y-110466556D01*
X145462938Y-110430941D01*
X145518570Y-110375681D01*
X145583124Y-110337230D01*
X145589070Y-110334593D01*
X145659580Y-110311109D01*
X145731794Y-110298551D01*
X145811735Y-110294365D01*
X146219132Y-110294365D01*
X146299267Y-110298551D01*
G37*
G36*
X146622500Y-111279152D02*
G01*
X145408735Y-111279152D01*
X145408735Y-111564917D01*
X145595580Y-111564917D01*
X145529089Y-111608239D01*
X145472649Y-111655500D01*
X145441341Y-111690946D01*
X145405895Y-111757075D01*
X145394080Y-111829432D01*
X145395179Y-111851413D01*
X145398110Y-111873395D01*
X145694132Y-111873395D01*
X145676547Y-111817708D01*
X145669220Y-111755792D01*
X145682207Y-111682890D01*
X145696697Y-111652844D01*
X145744611Y-111596859D01*
X145786823Y-111564917D01*
X146622500Y-111564917D01*
X146622500Y-111279152D01*
G37*
G36*
X146236738Y-111989457D02*
G01*
X146314525Y-111993815D01*
X146394271Y-112005508D01*
X146470898Y-112027587D01*
X146538602Y-112063538D01*
X146557000Y-112078167D01*
X146605257Y-112135812D01*
X146633407Y-112207124D01*
X146641550Y-112282990D01*
X146637583Y-112327727D01*
X146613340Y-112398395D01*
X146584549Y-112445148D01*
X146536404Y-112501344D01*
X146622500Y-112501344D01*
X146622500Y-112787108D01*
X144921470Y-112787108D01*
X144921470Y-112501344D01*
X145484206Y-112501344D01*
X145455045Y-112465383D01*
X145416062Y-112399494D01*
X145411111Y-112385939D01*
X145584956Y-112385939D01*
X145596680Y-112446755D01*
X145624890Y-112501344D01*
X146404146Y-112501344D01*
X146433456Y-112440527D01*
X146444080Y-112388137D01*
X146415870Y-112317795D01*
X146408417Y-112311996D01*
X146338934Y-112285189D01*
X146304214Y-112280391D01*
X146229757Y-112276762D01*
X145776198Y-112276762D01*
X145715296Y-112280753D01*
X145640643Y-112300942D01*
X145613724Y-112317442D01*
X145584956Y-112385939D01*
X145411111Y-112385939D01*
X145398983Y-112352737D01*
X145389684Y-112278960D01*
X145391151Y-112246498D01*
X145408695Y-112172224D01*
X145449767Y-112108601D01*
X145477857Y-112082823D01*
X145540443Y-112043600D01*
X145610235Y-112017376D01*
X145682488Y-112001315D01*
X145760715Y-111991921D01*
X145837015Y-111989166D01*
X146208874Y-111989166D01*
X146236738Y-111989457D01*
G37*
G36*
X146622500Y-82890841D02*
G01*
X146229757Y-82960451D01*
X146229757Y-83256473D01*
X146622500Y-83323518D01*
X146622500Y-83611114D01*
X144921470Y-83271127D01*
X144921470Y-83107363D01*
X145318243Y-83107363D01*
X146032287Y-83222767D01*
X146032287Y-82991958D01*
X145318243Y-83107363D01*
X144921470Y-83107363D01*
X144921470Y-82939201D01*
X146622500Y-82599215D01*
X146622500Y-82890841D01*
G37*
G36*
X146622500Y-83781473D02*
G01*
X144921470Y-83781473D01*
X144921470Y-84480496D01*
X145135793Y-84480496D01*
X145135793Y-84092150D01*
X145631118Y-84092150D01*
X145631118Y-84409421D01*
X145847639Y-84409421D01*
X145847639Y-84092150D01*
X146622500Y-84092150D01*
X146622500Y-83781473D01*
G37*
G36*
X146622500Y-84647558D02*
G01*
X144921470Y-84647558D01*
X144921470Y-85361602D01*
X145139823Y-85361602D01*
X145139823Y-84958235D01*
X145629286Y-84958235D01*
X145629286Y-85275506D01*
X145845441Y-85275506D01*
X145845441Y-84958235D01*
X146408176Y-84958235D01*
X146408176Y-85365632D01*
X146622500Y-85365632D01*
X146622500Y-84647558D01*
G37*
G36*
X146622500Y-86045238D02*
G01*
X145408735Y-86045238D01*
X145408735Y-86331002D01*
X146622500Y-86331002D01*
X146622500Y-86045238D01*
G37*
G36*
X145215661Y-86045238D02*
G01*
X144978257Y-86045238D01*
X144978257Y-86331002D01*
X145215661Y-86331002D01*
X145215661Y-86045238D01*
G37*
G36*
X146622500Y-86557049D02*
G01*
X145408735Y-86557049D01*
X145408735Y-86842813D01*
X145530368Y-86842813D01*
X145479858Y-86901026D01*
X145438605Y-86962185D01*
X145428518Y-86980199D01*
X145400644Y-87050701D01*
X145389835Y-87126194D01*
X145389684Y-87136637D01*
X145401392Y-87211573D01*
X145426687Y-87256072D01*
X145485185Y-87304157D01*
X145524139Y-87321284D01*
X145595920Y-87338466D01*
X145656397Y-87342534D01*
X146622500Y-87342534D01*
X146622500Y-87056769D01*
X145713183Y-87056769D01*
X145639062Y-87044772D01*
X145629286Y-87039917D01*
X145599977Y-86975070D01*
X145616830Y-86910590D01*
X145655470Y-86846984D01*
X145658595Y-86842813D01*
X146622500Y-86842813D01*
X146622500Y-86557049D01*
G37*
D12*
%TO.C,Listen*%
X147500000Y-95900000D02*
X147500000Y-102100000D01*
X147500000Y-95900000D02*
X148625000Y-95900000D01*
X148625000Y-94500000D02*
X148625000Y-95900000D01*
X150175000Y-94500000D02*
X150175000Y-95900000D01*
X150175000Y-95900000D02*
X152575000Y-95900000D01*
X154225000Y-95900000D02*
X155575000Y-95900000D01*
X157225000Y-95900000D02*
X159600000Y-95900000D01*
X159600000Y-96500000D02*
X159600000Y-95900000D01*
X159600000Y-102100000D02*
X149075000Y-102100000D01*
X159600000Y-102100000D02*
X159600000Y-101500000D01*
X161600000Y-96500000D02*
X159600000Y-96500000D01*
X161600000Y-101500000D02*
X159600000Y-101500000D01*
X161600000Y-101500000D02*
X161600000Y-96500000D01*
%TO.C,Record*%
X147500000Y-106950000D02*
X147500000Y-113150000D01*
X147500000Y-106950000D02*
X148625000Y-106950000D01*
X148625000Y-105550000D02*
X148625000Y-106950000D01*
X150175000Y-105550000D02*
X150175000Y-106950000D01*
X150175000Y-106950000D02*
X152575000Y-106950000D01*
X154225000Y-106950000D02*
X155575000Y-106950000D01*
X157225000Y-106950000D02*
X159600000Y-106950000D01*
X159600000Y-107550000D02*
X159600000Y-106950000D01*
X159600000Y-113150000D02*
X149075000Y-113150000D01*
X159600000Y-113150000D02*
X159600000Y-112550000D01*
X161600000Y-107550000D02*
X159600000Y-107550000D01*
X161600000Y-112550000D02*
X159600000Y-112550000D01*
X161600000Y-112550000D02*
X161600000Y-107550000D01*
%TO.C,AFE in*%
X147500000Y-81900000D02*
X147500000Y-88100000D01*
X147500000Y-81900000D02*
X148625000Y-81900000D01*
X148625000Y-80500000D02*
X148625000Y-81900000D01*
X150175000Y-80500000D02*
X150175000Y-81900000D01*
X150175000Y-81900000D02*
X152575000Y-81900000D01*
X154225000Y-81900000D02*
X155575000Y-81900000D01*
X157225000Y-81900000D02*
X159600000Y-81900000D01*
X159600000Y-82500000D02*
X159600000Y-81900000D01*
X159600000Y-88100000D02*
X149075000Y-88100000D01*
X159600000Y-88100000D02*
X159600000Y-87500000D01*
X161600000Y-82500000D02*
X159600000Y-82500000D01*
X161600000Y-87500000D02*
X159600000Y-87500000D01*
X161600000Y-87500000D02*
X161600000Y-82500000D01*
%TD*%
M02*
