M48
; DRILL file {KiCad 8.0.2} date 2025-06-15T12:49:38+0530
; FORMAT={-:-/ absolute / inch / decimal}
; #@! TF.CreationDate,2025-06-15T12:49:38+05:30
; #@! TF.GenerationSoftware,Kicad,Pcbnew,8.0.2
; #@! TF.FileFunction,MixedPlating,1,2
FMAT,2
INCH
; #@! TA.AperFunction,Plated,PTH,ViaDrill
T1C0.0118
; #@! TA.AperFunction,Plated,PTH,ComponentDrill
T2C0.0315
; #@! TA.AperFunction,Plated,PTH,ComponentDrill
T3C0.0354
; #@! TA.AperFunction,Plated,PTH,ComponentDrill
T4C0.0394
; #@! TA.AperFunction,Plated,PTH,ComponentDrill
T5C0.0591
; #@! TA.AperFunction,NonPlated,NPTH,ComponentDrill
T6C0.0591
; #@! TA.AperFunction,NonPlated,NPTH,ComponentDrill
T7C0.0827
%
G90
G05
T1
X4.9213Y-4.1339
X4.9595Y-4.3425
X5.0Y-3.7008
X5.2697Y-4.1339
X5.3543Y-3.3858
X5.3543Y-3.622
X5.3543Y-4.1732
X5.3543Y-4.2913
X5.3543Y-4.3307
X5.3937Y-3.937
X5.4724Y-3.8583
X5.4724Y-4.0945
X5.4967Y-3.4888
X5.5512Y-4.1732
X5.5588Y-4.1386
X5.5906Y-3.6614
X5.5906Y-3.937
X5.6299Y-3.3858
X5.6677Y-3.8178
X5.6693Y-3.2283
X5.6693Y-3.5433
X5.6693Y-4.2913
X5.7087Y-3.7402
X5.7189Y-3.4311
X5.748Y-4.3425
X5.7539Y-4.1339
X5.8268Y-3.937
X5.8661Y-3.3071
X5.8661Y-4.3307
X5.9449Y-3.9214
X5.9449Y-4.0551
X5.9449Y-4.2126
X5.9449Y-4.4606
X5.9843Y-3.189
X5.9843Y-3.6732
X5.9843Y-4.3307
X6.0236Y-3.3465
X6.0236Y-4.3307
X6.063Y-3.3465
X6.063Y-3.6614
X6.1024Y-3.1102
X6.1142Y-3.5827
X6.2598Y-3.5039
T2
X5.548Y-4.4882
X5.648Y-4.4882
X5.748Y-4.4882
T3
X5.1181Y-3.1496
X5.1181Y-4.4882
X5.1969Y-3.1496
X5.1969Y-4.4882
X5.2756Y-3.1496
X5.2756Y-4.4882
T4
X5.5293Y-3.1283
X5.5293Y-3.2283
T5
X5.0354Y-3.1496
X5.0354Y-4.4882
X5.3583Y-3.1496
X5.3583Y-4.4882
T6
X5.9449Y-3.3465
X6.2205Y-3.3465
X6.2205Y-3.8976
X6.2205Y-4.3327
T7
X4.8031Y-3.1102
X4.8031Y-4.5276
X6.2205Y-3.1102
X6.2205Y-4.5276
M30
