<?xml version="1.0" standalone="no"?>
 <!DOCTYPE svg PUBLIC "-//W3C//DTD SVG 1.1//EN" 
 "http://www.w3.org/Graphics/SVG/1.1/DTD/svg11.dtd"> 
<svg
  xmlns:svg="http://www.w3.org/2000/svg"
  xmlns="http://www.w3.org/2000/svg"
  xmlns:xlink="http://www.w3.org/1999/xlink"
  version="1.1"
  width="297.002200mm" height="210.007200mm" viewBox="0.000000 0.000000 297.002200 210.007200">
<title>SVG Image created as final schematics-B_Mask.svg date 2025/06/16 13:51:48 </title>
  <desc>Image generated by PCBNEW </desc>
<g style="fill:#000000; fill-opacity:1.000000;stroke:#000000; stroke-opacity:1.000000;
stroke-linecap:round; stroke-linejoin:round;"
 transform="translate(0 0) scale(1 1)">
</g>
<g style="fill:none; 
stroke:#02FFEE; stroke-width:2.200000; stroke-opacity:1; 
stroke-linecap:round; stroke-linejoin:round;">
<path d="M136.100000 80.650000
L136.100000 79.350000
" />
<path d="M127.900000 80.650000
L127.900000 79.350000
" />
<path style="fill:#02FFEE; fill-opacity:0.400000; stroke:none;fill-rule:evenodd;"
d="M 134.750000,78.750000
134.750000,81.250000
133.250000,81.250000
133.250000,78.750000
Z" /> 
</g>
<g style="fill:none; 
stroke:#02FFEE; stroke-width:1.500000; stroke-opacity:1; 
stroke-linecap:round; stroke-linejoin:round;">
<path d="M132.000000 80.500000
L132.000000 79.500000
" />
<path d="M130.000000 80.500000
L130.000000 79.500000
" />
<path style="fill:#02FFEE; fill-opacity:0.400000; stroke:none;fill-rule:evenodd;"
d="M 141.294205,81.150000
141.294205,82.850000
139.594205,82.850000
139.594205,81.150000
Z" /> 
</g>
<g style="fill:#02FFEE; fill-opacity:0.400000; stroke:none;">
<circle cx="140.444205" cy="79.460000" r="0.850000" /> 
</g>
<g style="fill:none; 
stroke:#02FFEE; stroke-width:2.200000; stroke-opacity:1; 
stroke-linecap:round; stroke-linejoin:round;">
<path d="M127.900000 113.350000
L127.900000 114.650000
" />
<path d="M136.100000 113.350000
L136.100000 114.650000
" />
<path style="fill:#02FFEE; fill-opacity:0.400000; stroke:none;fill-rule:evenodd;"
d="M 129.250000,115.250000
129.250000,112.750000
130.750000,112.750000
130.750000,115.250000
Z" /> 
</g>
<g style="fill:none; 
stroke:#02FFEE; stroke-width:1.500000; stroke-opacity:1; 
stroke-linecap:round; stroke-linejoin:round;">
<path d="M132.000000 113.500000
L132.000000 114.500000
" />
<path d="M134.000000 113.500000
L134.000000 114.500000
" />
</g>
<g style="fill:#02FFEE; fill-opacity:0.400000; stroke:none;">
<circle cx="146.000000" cy="114.000000" r="0.720000" /> 
</g>
<g style="fill:#02FFEE; fill-opacity:0.400000; stroke:none;">
<circle cx="143.460000" cy="114.000000" r="0.720000" /> 
</g>
<g style="fill:#02FFEE; fill-opacity:0.400000; stroke:none;">
<circle cx="140.920000" cy="114.000000" r="0.720000" /> 
</g>
<g style="fill:#02FFEE; fill-opacity:0.400000; stroke:none;">
<circle cx="122.000000" cy="115.000000" r="1.050000" /> 
</g>
<g style="fill:#02FFEE; fill-opacity:0.400000; stroke:none;">
<circle cx="122.000000" cy="79.000000" r="1.050000" /> 
</g>
<g style="fill:#02FFEE; fill-opacity:0.400000; stroke:none;">
<circle cx="158.000000" cy="79.000000" r="1.050000" /> 
</g>
<g style="fill:#02FFEE; fill-opacity:0.400000; stroke:none;">
<circle cx="158.000000" cy="115.000000" r="1.050000" /> 
</g>
<g style="fill:#02FFEE; fill-opacity:0.400000; stroke:none;">
<circle cx="158.000000" cy="99.000000" r="0.750000" /> 
<path style="fill:#02FFEE; fill-opacity:0.400000; stroke:none;fill-rule:evenodd;"
d="M 154.000000,94.500000
154.000000,97.000000
152.800000,97.000000
152.800000,94.500000
Z" /> 
<path style="fill:#02FFEE; fill-opacity:0.400000; stroke:none;fill-rule:evenodd;"
d="M 157.000000,94.500000
157.000000,97.000000
155.800000,97.000000
155.800000,94.500000
Z" /> 
<path style="fill:#02FFEE; fill-opacity:0.400000; stroke:none;fill-rule:evenodd;"
d="M 148.900000,101.000000
148.900000,103.500000
147.700000,103.500000
147.700000,101.000000
Z" /> 
<path style="fill:#02FFEE; fill-opacity:0.400000; stroke:none;fill-rule:evenodd;"
d="M 150.000000,94.500000
150.000000,97.000000
148.800000,97.000000
148.800000,94.500000
Z" /> 
</g>
<g style="fill:#02FFEE; fill-opacity:0.400000; stroke:none;">
<circle cx="158.000000" cy="110.050000" r="0.750000" /> 
<path style="fill:#02FFEE; fill-opacity:0.400000; stroke:none;fill-rule:evenodd;"
d="M 154.000000,105.550000
154.000000,108.050000
152.800000,108.050000
152.800000,105.550000
Z" /> 
<path style="fill:#02FFEE; fill-opacity:0.400000; stroke:none;fill-rule:evenodd;"
d="M 157.000000,105.550000
157.000000,108.050000
155.800000,108.050000
155.800000,105.550000
Z" /> 
<path style="fill:#02FFEE; fill-opacity:0.400000; stroke:none;fill-rule:evenodd;"
d="M 148.900000,112.050000
148.900000,114.550000
147.700000,114.550000
147.700000,112.050000
Z" /> 
<path style="fill:#02FFEE; fill-opacity:0.400000; stroke:none;fill-rule:evenodd;"
d="M 150.000000,105.550000
150.000000,108.050000
148.800000,108.050000
148.800000,105.550000
Z" /> 
</g>
<g style="fill:#02FFEE; fill-opacity:0.400000; stroke:none;">
<circle cx="158.000000" cy="85.000000" r="0.750000" /> 
</g>
<g style="fill:#02FFEE; fill-opacity:0.400000; stroke:none;">
<circle cx="151.000000" cy="85.000000" r="0.750000" /> 
<path style="fill:#02FFEE; fill-opacity:0.400000; stroke:none;fill-rule:evenodd;"
d="M 154.000000,80.500000
154.000000,83.000000
152.800000,83.000000
152.800000,80.500000
Z" /> 
<path style="fill:#02FFEE; fill-opacity:0.400000; stroke:none;fill-rule:evenodd;"
d="M 157.000000,80.500000
157.000000,83.000000
155.800000,83.000000
155.800000,80.500000
Z" /> 
<path style="fill:#02FFEE; fill-opacity:0.400000; stroke:none;fill-rule:evenodd;"
d="M 148.900000,87.000000
148.900000,89.500000
147.700000,89.500000
147.700000,87.000000
Z" /> 
<path style="fill:#02FFEE; fill-opacity:0.400000; stroke:none;fill-rule:evenodd;"
d="M 150.000000,80.500000
150.000000,83.000000
148.800000,83.000000
148.800000,80.500000
Z" /> 
</g> 
</svg>
