%TF.GenerationSoftware,KiCad,Pcbnew,9.0.3*%
%TF.CreationDate,2026-03-11T10:28:54+05:30*%
%TF.ProjectId,final schematics,66696e61-6c20-4736-9368-656d61746963,1.0*%
%TF.SameCoordinates,Original*%
%TF.FileFunction,Legend,Bot*%
%TF.FilePolarity,Positive*%
%FSLAX46Y46*%
G04 Gerber Fmt 4.6, Leading zero omitted, Abs format (unit mm)*
G04 Created by KiCad (PCBNEW 9.0.3) date 2026-03-11 10:28:54*
%MOMM*%
%LPD*%
G01*
G04 APERTURE LIST*
%ADD10C,0.100000*%
%ADD11C,0.150000*%
%ADD12C,0.120000*%
G04 APERTURE END LIST*
D10*
X124649999Y-85041413D02*
X132149999Y-85041413D01*
X132149999Y-109041413D01*
X124649999Y-109041413D01*
X124649999Y-85041413D01*
D11*
G36*
X130505830Y-88654881D02*
G01*
X130710611Y-88639360D01*
X130870291Y-88597102D01*
X130994163Y-88532454D01*
X131099850Y-88441066D01*
X131181598Y-88330597D01*
X131240848Y-88198147D01*
X131278656Y-88055334D01*
X131302533Y-87893464D01*
X131310916Y-87709966D01*
X131310916Y-86698343D01*
X131302406Y-86505229D01*
X131278407Y-86338366D01*
X131240848Y-86194439D01*
X131181252Y-86061187D01*
X131099462Y-85952681D01*
X130994163Y-85865475D01*
X130870813Y-85804643D01*
X130711139Y-85764650D01*
X130505830Y-85749917D01*
X130311387Y-85762757D01*
X130160933Y-85797448D01*
X130045585Y-85849752D01*
X129945429Y-85925770D01*
X129867280Y-86019968D01*
X129809433Y-86134905D01*
X129771593Y-86260443D01*
X129747740Y-86403096D01*
X129739365Y-86565383D01*
X129739365Y-86803367D01*
X130236400Y-86803367D01*
X130236400Y-86558361D01*
X130248612Y-86341443D01*
X130272301Y-86251335D01*
X130315168Y-86185738D01*
X130355485Y-86155863D01*
X130415440Y-86135654D01*
X130502319Y-86127883D01*
X130588900Y-86135863D01*
X130651700Y-86157091D01*
X130696645Y-86189249D01*
X130745987Y-86258981D01*
X130775413Y-86353655D01*
X130788215Y-86460164D01*
X130792815Y-86586449D01*
X130792815Y-87818349D01*
X130786040Y-87965567D01*
X130768391Y-88072209D01*
X130732503Y-88161803D01*
X130679090Y-88222724D01*
X130606075Y-88259693D01*
X130502319Y-88273404D01*
X130418223Y-88265331D01*
X130359231Y-88244108D01*
X130318679Y-88212191D01*
X130275432Y-88143222D01*
X130250444Y-88049464D01*
X130236400Y-87821860D01*
X130236400Y-87566474D01*
X129739365Y-87566474D01*
X129739365Y-87793925D01*
X129747299Y-87961077D01*
X129769949Y-88109098D01*
X129805922Y-88240279D01*
X129861862Y-88361362D01*
X129938904Y-88461937D01*
X130038563Y-88544666D01*
X130154770Y-88602476D01*
X130307318Y-88640716D01*
X130505830Y-88654881D01*
G37*
G36*
X129387808Y-88616413D02*
G01*
X129338807Y-85781364D01*
X128803305Y-85781364D01*
X128400915Y-87744923D01*
X127980817Y-85781364D01*
X127462869Y-85781364D01*
X127410357Y-88616413D01*
X127795345Y-88616413D01*
X127837324Y-86645983D01*
X128239867Y-88616413D01*
X128551277Y-88616413D01*
X128960841Y-86638961D01*
X128999310Y-88616413D01*
X129387808Y-88616413D01*
G37*
G36*
X126229138Y-88654881D02*
G01*
X126433919Y-88639360D01*
X126593599Y-88597102D01*
X126717471Y-88532454D01*
X126823158Y-88441066D01*
X126904906Y-88330597D01*
X126964156Y-88198147D01*
X127001963Y-88055334D01*
X127025841Y-87893464D01*
X127034223Y-87709966D01*
X127034223Y-86698343D01*
X127025713Y-86505229D01*
X127001714Y-86338366D01*
X126964156Y-86194439D01*
X126904559Y-86061187D01*
X126822770Y-85952681D01*
X126717471Y-85865475D01*
X126594121Y-85804643D01*
X126434447Y-85764650D01*
X126229138Y-85749917D01*
X126034695Y-85762757D01*
X125884240Y-85797448D01*
X125768893Y-85849752D01*
X125668737Y-85925770D01*
X125590588Y-86019968D01*
X125532740Y-86134905D01*
X125494900Y-86260443D01*
X125471047Y-86403096D01*
X125462673Y-86565383D01*
X125462673Y-86803367D01*
X125959707Y-86803367D01*
X125959707Y-86558361D01*
X125971920Y-86341443D01*
X125995608Y-86251335D01*
X126038476Y-86185738D01*
X126078793Y-86155863D01*
X126138748Y-86135654D01*
X126225627Y-86127883D01*
X126312208Y-86135863D01*
X126375008Y-86157091D01*
X126419953Y-86189249D01*
X126469295Y-86258981D01*
X126498721Y-86353655D01*
X126511523Y-86460164D01*
X126516123Y-86586449D01*
X126516123Y-87818349D01*
X126509348Y-87965567D01*
X126491699Y-88072209D01*
X126455810Y-88161803D01*
X126402398Y-88222724D01*
X126329383Y-88259693D01*
X126225627Y-88273404D01*
X126141531Y-88265331D01*
X126082539Y-88244108D01*
X126041987Y-88212191D01*
X125998740Y-88143222D01*
X125973751Y-88049464D01*
X125959707Y-87821860D01*
X125959707Y-87566474D01*
X125462673Y-87566474D01*
X125462673Y-87793925D01*
X125470607Y-87961077D01*
X125493257Y-88109098D01*
X125529229Y-88240279D01*
X125585170Y-88361362D01*
X125662212Y-88461937D01*
X125761871Y-88544666D01*
X125878078Y-88602476D01*
X126030625Y-88640716D01*
X126229138Y-88654881D01*
G37*
G36*
X131241606Y-89312513D02*
G01*
X125571508Y-89312513D01*
X125571508Y-91692354D01*
X126299657Y-91692354D01*
X126299657Y-90348408D01*
X127930588Y-90348408D01*
X127930588Y-91405369D01*
X128651715Y-91405369D01*
X128651715Y-90348408D01*
X130527500Y-90348408D01*
X130527500Y-91706398D01*
X131241606Y-91706398D01*
X131241606Y-89312513D01*
G37*
G36*
X131241606Y-92306930D02*
G01*
X125571508Y-92306930D01*
X125571508Y-93342825D01*
X128063701Y-93342825D01*
X125571508Y-94462679D01*
X125571508Y-95449725D01*
X128105527Y-94364676D01*
X131241606Y-95561772D01*
X131241606Y-94532899D01*
X128658737Y-93580962D01*
X129092574Y-93342825D01*
X131241606Y-93342825D01*
X131241606Y-92306930D01*
G37*
G36*
X129837343Y-95817016D02*
G01*
X130166421Y-95869639D01*
X130450564Y-95952255D01*
X130712168Y-96079645D01*
X130924755Y-96249100D01*
X131094754Y-96463333D01*
X131213149Y-96711575D01*
X131290340Y-97026001D01*
X131318542Y-97422597D01*
X131289619Y-97828429D01*
X131210953Y-98145591D01*
X131091091Y-98391936D01*
X130919596Y-98604722D01*
X130706963Y-98774229D01*
X130447206Y-98903014D01*
X130165082Y-98987712D01*
X129839411Y-99041527D01*
X129463518Y-99060551D01*
X127335552Y-99060551D01*
X126954741Y-99041339D01*
X126629525Y-98987353D01*
X126352169Y-98903014D01*
X126097552Y-98774238D01*
X125890752Y-98604806D01*
X125725686Y-98391936D01*
X125611559Y-98146364D01*
X125536333Y-97829206D01*
X125508615Y-97422597D01*
X126264547Y-97422597D01*
X126295140Y-97658895D01*
X126373235Y-97803921D01*
X126498623Y-97904673D01*
X126670601Y-97968480D01*
X126866111Y-97999502D01*
X127097720Y-98010612D01*
X129708676Y-98010612D01*
X129934604Y-97999698D01*
X130135491Y-97968480D01*
X130314158Y-97904458D01*
X130443542Y-97803921D01*
X130524159Y-97658554D01*
X130555588Y-97422597D01*
X130524514Y-97191956D01*
X130443542Y-97044326D01*
X130313833Y-96942159D01*
X130135491Y-96880072D01*
X129934736Y-96851581D01*
X129708676Y-96841604D01*
X127097720Y-96841604D01*
X126866099Y-96852635D01*
X126670601Y-96883431D01*
X126498880Y-96948119D01*
X126373235Y-97051348D01*
X126294567Y-97197798D01*
X126264547Y-97422597D01*
X125508615Y-97422597D01*
X125536043Y-97025515D01*
X125611013Y-96711086D01*
X125725686Y-96463333D01*
X125891077Y-96248639D01*
X126097887Y-96079312D01*
X126352169Y-95952255D01*
X126629325Y-95869923D01*
X126954553Y-95817167D01*
X127335552Y-95798382D01*
X129456496Y-95798382D01*
X129837343Y-95817016D01*
G37*
G36*
X131241606Y-101450772D02*
G01*
X131213738Y-101834890D01*
X131136581Y-102147169D01*
X131004385Y-102423178D01*
X130825171Y-102644204D01*
X130596488Y-102816852D01*
X130307071Y-102945233D01*
X129981866Y-103019838D01*
X129589608Y-103046594D01*
X129200755Y-103017491D01*
X128896569Y-102938211D01*
X128634512Y-102800149D01*
X128431286Y-102609094D01*
X128328409Y-102454151D01*
X128249713Y-102270434D01*
X128196508Y-102052831D01*
X128121820Y-102308138D01*
X128004167Y-102507733D01*
X127838334Y-102665644D01*
X127615820Y-102784033D01*
X127356270Y-102853357D01*
X127027500Y-102878677D01*
X126621819Y-102846215D01*
X126320723Y-102759608D01*
X126066873Y-102613254D01*
X125876201Y-102420111D01*
X125737163Y-102182762D01*
X125641728Y-101894989D01*
X125589940Y-101580618D01*
X125571508Y-101212635D01*
X125571508Y-101058762D01*
X126292635Y-101058762D01*
X126309137Y-101359383D01*
X126352169Y-101576557D01*
X126439260Y-101755926D01*
X126576262Y-101880945D01*
X126761192Y-101954128D01*
X127041544Y-101982611D01*
X127315263Y-101964356D01*
X127517513Y-101916055D01*
X127682818Y-101823620D01*
X127797476Y-101681582D01*
X127862735Y-101493583D01*
X127887830Y-101212635D01*
X128602562Y-101212635D01*
X128631411Y-101501829D01*
X128707586Y-101706006D01*
X128838398Y-101864215D01*
X129026323Y-101972231D01*
X129257179Y-102030447D01*
X129582586Y-102052831D01*
X129897283Y-102030364D01*
X130124797Y-101971322D01*
X130286005Y-101884608D01*
X130403739Y-101753935D01*
X130482830Y-101551371D01*
X130513457Y-101247745D01*
X130513457Y-100855735D01*
X128602562Y-100855735D01*
X128602562Y-101212635D01*
X127887830Y-101212635D01*
X127888457Y-101205613D01*
X127888457Y-100855735D01*
X126292635Y-100855735D01*
X126292635Y-101058762D01*
X125571508Y-101058762D01*
X125571508Y-99819840D01*
X131241606Y-99819840D01*
X131241606Y-101450772D01*
G37*
G36*
X131241606Y-103745739D02*
G01*
X125571508Y-103745739D01*
X125571508Y-104767895D01*
X131241606Y-104767895D01*
X131241606Y-103745739D01*
G37*
G36*
X131241606Y-106209539D02*
G01*
X126334461Y-106209539D01*
X126334461Y-105306451D01*
X125571508Y-105306451D01*
X125571508Y-108134478D01*
X126334461Y-108134478D01*
X126334461Y-107245434D01*
X131241606Y-107245434D01*
X131241606Y-106209539D01*
G37*
G36*
X146622500Y-96744744D02*
G01*
X144921470Y-96744744D01*
X144921470Y-97055513D01*
X146408268Y-97055513D01*
X146408268Y-97467123D01*
X146622500Y-97467123D01*
X146622500Y-96744744D01*
G37*
G36*
X146622500Y-97617882D02*
G01*
X145408735Y-97617882D01*
X145408735Y-97903463D01*
X146622500Y-97903463D01*
X146622500Y-97617882D01*
G37*
G36*
X145215478Y-97617882D02*
G01*
X144978165Y-97617882D01*
X144978165Y-97903463D01*
X145215478Y-97903463D01*
X145215478Y-97617882D01*
G37*
G36*
X146641367Y-98459421D02*
G01*
X146631623Y-98360135D01*
X146604027Y-98277236D01*
X146559485Y-98207362D01*
X146499146Y-98149884D01*
X146420602Y-98102818D01*
X146320066Y-98066678D01*
X146238183Y-98278803D01*
X146329481Y-98310041D01*
X146389400Y-98345939D01*
X146418735Y-98377022D01*
X146435962Y-98412891D01*
X146441882Y-98455208D01*
X146434994Y-98501007D01*
X146416694Y-98530770D01*
X146387726Y-98549374D01*
X146347360Y-98556049D01*
X146299420Y-98548450D01*
X146256044Y-98525550D01*
X146214171Y-98488464D01*
X146154194Y-98421594D01*
X146030272Y-98274590D01*
X145958533Y-98200877D01*
X145888580Y-98145447D01*
X145838103Y-98118772D01*
X145778245Y-98102020D01*
X145706864Y-98096079D01*
X145642418Y-98101410D01*
X145586605Y-98116647D01*
X145537878Y-98141233D01*
X145475747Y-98194413D01*
X145428702Y-98265156D01*
X145399736Y-98347363D01*
X145389775Y-98440553D01*
X145400205Y-98537814D01*
X145429560Y-98616968D01*
X145476970Y-98681987D01*
X145539678Y-98734320D01*
X145614818Y-98773559D01*
X145704757Y-98799590D01*
X145784624Y-98606424D01*
X145691110Y-98575925D01*
X145651441Y-98552731D01*
X145620768Y-98524542D01*
X145600397Y-98490151D01*
X145593474Y-98448888D01*
X145600568Y-98408586D01*
X145620768Y-98378546D01*
X145651278Y-98359079D01*
X145690102Y-98352351D01*
X145724884Y-98359359D01*
X145763650Y-98382759D01*
X145801639Y-98417407D01*
X145849654Y-98469954D01*
X145984110Y-98618972D01*
X146074419Y-98711388D01*
X146125466Y-98751760D01*
X146182588Y-98784935D01*
X146245552Y-98806703D01*
X146320066Y-98814336D01*
X146388721Y-98808682D01*
X146446918Y-98792670D01*
X146496562Y-98767075D01*
X146540150Y-98731961D01*
X146576018Y-98689537D01*
X146604639Y-98638939D01*
X146631942Y-98554846D01*
X146641367Y-98459421D01*
G37*
G36*
X146637154Y-99322209D02*
G01*
X146632302Y-99245726D01*
X146619182Y-99186309D01*
X146599419Y-99140584D01*
X146570350Y-99100676D01*
X146534275Y-99069800D01*
X146490242Y-99047161D01*
X146414770Y-99027146D01*
X146320066Y-99019867D01*
X145597687Y-99019867D01*
X145597687Y-98898050D01*
X145408735Y-98898050D01*
X145408735Y-99019867D01*
X145045393Y-99019867D01*
X145045393Y-99307554D01*
X145408735Y-99307554D01*
X145408735Y-99492293D01*
X145597687Y-99492293D01*
X145597687Y-99307554D01*
X146294878Y-99307554D01*
X146351731Y-99315346D01*
X146384180Y-99334848D01*
X146403174Y-99366994D01*
X146410375Y-99416731D01*
X146408268Y-99461885D01*
X146404055Y-99504933D01*
X146622500Y-99504933D01*
X146631933Y-99421951D01*
X146637154Y-99322209D01*
G37*
G36*
X146291567Y-99643003D02*
G01*
X146371052Y-99657023D01*
X146438768Y-99678956D01*
X146500783Y-99711861D01*
X146550679Y-99754006D01*
X146589985Y-99805993D01*
X146617367Y-99865558D01*
X146635001Y-99938764D01*
X146641367Y-100028651D01*
X146634214Y-100123417D01*
X146614462Y-100199683D01*
X146583815Y-100260982D01*
X146542724Y-100310018D01*
X146491083Y-100348635D01*
X146428246Y-100377395D01*
X146351909Y-100395817D01*
X146259158Y-100402434D01*
X146177275Y-100402434D01*
X146177275Y-100135721D01*
X146278117Y-100135721D01*
X146328279Y-100132823D01*
X146365312Y-100125188D01*
X146396449Y-100111107D01*
X146417793Y-100091574D01*
X146430818Y-100065840D01*
X146435562Y-100030757D01*
X146431194Y-99997033D01*
X146418801Y-99969849D01*
X146397716Y-99948695D01*
X146364213Y-99933029D01*
X146323668Y-99924686D01*
X146267584Y-99921489D01*
X146028165Y-99921489D01*
X146028165Y-100404540D01*
X145855974Y-100404540D01*
X145713070Y-100395145D01*
X145602999Y-100369827D01*
X145537814Y-100340821D01*
X145485598Y-100302429D01*
X145444455Y-100254331D01*
X145415698Y-100197789D01*
X145396766Y-100124070D01*
X145389775Y-100028651D01*
X145389923Y-100026544D01*
X145595580Y-100026544D01*
X145600480Y-100065311D01*
X145613441Y-100091574D01*
X145635381Y-100110863D01*
X145670136Y-100125188D01*
X145712022Y-100132766D01*
X145771985Y-100135721D01*
X145887481Y-100135721D01*
X145887481Y-99921489D01*
X145803492Y-99921489D01*
X145726330Y-99924538D01*
X145677554Y-99932022D01*
X145637999Y-99946634D01*
X145614540Y-99965636D01*
X145600613Y-99991479D01*
X145595580Y-100026544D01*
X145389923Y-100026544D01*
X145395983Y-99940153D01*
X145413266Y-99867183D01*
X145440242Y-99807000D01*
X145478924Y-99754357D01*
X145528130Y-99711907D01*
X145589352Y-99678956D01*
X145656369Y-99657156D01*
X145736753Y-99643072D01*
X145832893Y-99638015D01*
X146198341Y-99638015D01*
X146291567Y-99643003D01*
G37*
G36*
X146622500Y-100597523D02*
G01*
X145408735Y-100597523D01*
X145408735Y-100883104D01*
X145530459Y-100883104D01*
X145472955Y-100950874D01*
X145428702Y-101020673D01*
X145399557Y-101095806D01*
X145389775Y-101177111D01*
X145399651Y-101246998D01*
X145426595Y-101296820D01*
X145468671Y-101334707D01*
X145524231Y-101361942D01*
X145586921Y-101377540D01*
X145656489Y-101382916D01*
X146622500Y-101382916D01*
X146622500Y-101097335D01*
X145713183Y-101097335D01*
X145662262Y-101092572D01*
X145629194Y-101080482D01*
X145607889Y-101057434D01*
X145599794Y-101015453D01*
X145603718Y-100985842D01*
X145616646Y-100951339D01*
X145658595Y-100883104D01*
X146622500Y-100883104D01*
X146622500Y-100597523D01*
G37*
G36*
X146622500Y-107645918D02*
G01*
X145843426Y-107645918D01*
X145843426Y-107788708D01*
X146622500Y-107994514D01*
X146622500Y-108305282D01*
X145784624Y-108067970D01*
X145745680Y-108140397D01*
X145695415Y-108192991D01*
X145632775Y-108231032D01*
X145555738Y-108257014D01*
X145470958Y-108270914D01*
X145370908Y-108275881D01*
X145258755Y-108268018D01*
X145170780Y-108246607D01*
X145102179Y-108213966D01*
X145043218Y-108166827D01*
X144996895Y-108107288D01*
X144962503Y-108033348D01*
X144940708Y-107953231D01*
X144926559Y-107857176D01*
X144922214Y-107759308D01*
X145133595Y-107759308D01*
X145142236Y-107845004D01*
X145164536Y-107902083D01*
X145197709Y-107938826D01*
X145242997Y-107963368D01*
X145305317Y-107979870D01*
X145389775Y-107986087D01*
X145475570Y-107979737D01*
X145537878Y-107963006D01*
X145587943Y-107932102D01*
X145621867Y-107886344D01*
X145640774Y-107827572D01*
X145648062Y-107742546D01*
X145648062Y-107645918D01*
X145133595Y-107645918D01*
X145133595Y-107759308D01*
X144922214Y-107759308D01*
X144921470Y-107742546D01*
X144921470Y-107335149D01*
X146622500Y-107335149D01*
X146622500Y-107645918D01*
G37*
G36*
X146291567Y-108444085D02*
G01*
X146371052Y-108458105D01*
X146438768Y-108480038D01*
X146500783Y-108512942D01*
X146550679Y-108555088D01*
X146589985Y-108607075D01*
X146617367Y-108666640D01*
X146635001Y-108739846D01*
X146641367Y-108829732D01*
X146634214Y-108924499D01*
X146614462Y-109000765D01*
X146583815Y-109062064D01*
X146542724Y-109111100D01*
X146491083Y-109149717D01*
X146428246Y-109178477D01*
X146351909Y-109196899D01*
X146259158Y-109203516D01*
X146177275Y-109203516D01*
X146177275Y-108936802D01*
X146278117Y-108936802D01*
X146328279Y-108933905D01*
X146365312Y-108926269D01*
X146396449Y-108912189D01*
X146417793Y-108892656D01*
X146430818Y-108866922D01*
X146435562Y-108831839D01*
X146431194Y-108798115D01*
X146418801Y-108770931D01*
X146397716Y-108749777D01*
X146364213Y-108734111D01*
X146323668Y-108725767D01*
X146267584Y-108722571D01*
X146028165Y-108722571D01*
X146028165Y-109205622D01*
X145855974Y-109205622D01*
X145713070Y-109196227D01*
X145602999Y-109170909D01*
X145537814Y-109141903D01*
X145485598Y-109103511D01*
X145444455Y-109055413D01*
X145415698Y-108998871D01*
X145396766Y-108925151D01*
X145389775Y-108829732D01*
X145389923Y-108827626D01*
X145595580Y-108827626D01*
X145600480Y-108866393D01*
X145613441Y-108892656D01*
X145635381Y-108911944D01*
X145670136Y-108926269D01*
X145712022Y-108933848D01*
X145771985Y-108936802D01*
X145887481Y-108936802D01*
X145887481Y-108722571D01*
X145803492Y-108722571D01*
X145726330Y-108725620D01*
X145677554Y-108733104D01*
X145637999Y-108747716D01*
X145614540Y-108766718D01*
X145600613Y-108792561D01*
X145595580Y-108827626D01*
X145389923Y-108827626D01*
X145395983Y-108741235D01*
X145413266Y-108668265D01*
X145440242Y-108608082D01*
X145478924Y-108555439D01*
X145528130Y-108512989D01*
X145589352Y-108480038D01*
X145656369Y-108458238D01*
X145736753Y-108444154D01*
X145832893Y-108439097D01*
X146198341Y-108439097D01*
X146291567Y-108444085D01*
G37*
G36*
X146641367Y-109764053D02*
G01*
X146634673Y-109671475D01*
X146616267Y-109597398D01*
X146587878Y-109538281D01*
X146547337Y-109487007D01*
X146496716Y-109445901D01*
X146434555Y-109414358D01*
X146329301Y-109385847D01*
X146198341Y-109375524D01*
X145832893Y-109375524D01*
X145739541Y-109380283D01*
X145660447Y-109393612D01*
X145593565Y-109414358D01*
X145532195Y-109445950D01*
X145482265Y-109487362D01*
X145442349Y-109539288D01*
X145414369Y-109598958D01*
X145396311Y-109672801D01*
X145389775Y-109764053D01*
X145394899Y-109850238D01*
X145409025Y-109920364D01*
X145430717Y-109977185D01*
X145462932Y-110027788D01*
X145503907Y-110067655D01*
X145554639Y-110097902D01*
X145611238Y-110117996D01*
X145680089Y-110131027D01*
X145763558Y-110135729D01*
X145864400Y-110135729D01*
X145864400Y-109866910D01*
X145757330Y-109866910D01*
X145697605Y-109864228D01*
X145657588Y-109857476D01*
X145624995Y-109843952D01*
X145605014Y-109824869D01*
X145593511Y-109799300D01*
X145589261Y-109764053D01*
X145594533Y-109729072D01*
X145609228Y-109703145D01*
X145633604Y-109684302D01*
X145673341Y-109670538D01*
X145721586Y-109663804D01*
X145795066Y-109661105D01*
X146240290Y-109661105D01*
X146347833Y-109668979D01*
X146398834Y-109686292D01*
X146421345Y-109706103D01*
X146434922Y-109732043D01*
X146439775Y-109766160D01*
X146434591Y-109804678D01*
X146420908Y-109830182D01*
X146398482Y-109848082D01*
X146365312Y-109859582D01*
X146276010Y-109866910D01*
X146145768Y-109866910D01*
X146145768Y-110135729D01*
X146261264Y-110135729D01*
X146341807Y-110131016D01*
X146410523Y-110117744D01*
X146469176Y-110096895D01*
X146522068Y-110065892D01*
X146564747Y-110025602D01*
X146598319Y-109975079D01*
X146621227Y-109918134D01*
X146636028Y-109848653D01*
X146641367Y-109764053D01*
G37*
G36*
X146308148Y-110299596D02*
G01*
X146383781Y-110314312D01*
X146448202Y-110337413D01*
X146506787Y-110371321D01*
X146554336Y-110414136D01*
X146592091Y-110466556D01*
X146618431Y-110525940D01*
X146635308Y-110597865D01*
X146641367Y-110685001D01*
X146635328Y-110772070D01*
X146618468Y-110844337D01*
X146592091Y-110904362D01*
X146554265Y-110957471D01*
X146506707Y-111000631D01*
X146448202Y-111034604D01*
X146383781Y-111057705D01*
X146308148Y-111072421D01*
X146219316Y-111077652D01*
X145811919Y-111077652D01*
X145723023Y-111072419D01*
X145647394Y-111057700D01*
X145583032Y-111034604D01*
X145524528Y-111000631D01*
X145476970Y-110957471D01*
X145439143Y-110904362D01*
X145412715Y-110844331D01*
X145395825Y-110772064D01*
X145389921Y-110687108D01*
X145587154Y-110687108D01*
X145594788Y-110730393D01*
X145615547Y-110758457D01*
X145647238Y-110776891D01*
X145690102Y-110787858D01*
X145792959Y-110794178D01*
X146238183Y-110794178D01*
X146342139Y-110787858D01*
X146385785Y-110776796D01*
X146416694Y-110758457D01*
X146436606Y-110730501D01*
X146443989Y-110687108D01*
X146436603Y-110643635D01*
X146416694Y-110615667D01*
X146385801Y-110597079D01*
X146342139Y-110585167D01*
X146238183Y-110577840D01*
X145792959Y-110577840D01*
X145690102Y-110585167D01*
X145647222Y-110596982D01*
X145615547Y-110615667D01*
X145594792Y-110643743D01*
X145587154Y-110687108D01*
X145389921Y-110687108D01*
X145389775Y-110685001D01*
X145395845Y-110597871D01*
X145412752Y-110525946D01*
X145439143Y-110466556D01*
X145476899Y-110414136D01*
X145524447Y-110371321D01*
X145583032Y-110337413D01*
X145647394Y-110314318D01*
X145723023Y-110299599D01*
X145811919Y-110294365D01*
X146219316Y-110294365D01*
X146308148Y-110299596D01*
G37*
G36*
X146622500Y-111279244D02*
G01*
X145408735Y-111279244D01*
X145408735Y-111564825D01*
X145595580Y-111564825D01*
X145498852Y-111631650D01*
X145441250Y-111690854D01*
X145414769Y-111734739D01*
X145399207Y-111780601D01*
X145393989Y-111829432D01*
X145395088Y-111851505D01*
X145398202Y-111873578D01*
X145694316Y-111873578D01*
X145676455Y-111817891D01*
X145669128Y-111755975D01*
X145676043Y-111701547D01*
X145696422Y-111653027D01*
X145730629Y-111609886D01*
X145786731Y-111564825D01*
X146622500Y-111564825D01*
X146622500Y-111279244D01*
G37*
G36*
X146326291Y-111994944D02*
G01*
X146417195Y-112010714D01*
X146486502Y-112034115D01*
X146538510Y-112063630D01*
X146583053Y-112104759D01*
X146614737Y-112153839D01*
X146634406Y-112212454D01*
X146641367Y-112283082D01*
X146634308Y-112342343D01*
X146613066Y-112398578D01*
X146580191Y-112450931D01*
X146536404Y-112501435D01*
X146622500Y-112501435D01*
X146622500Y-112787108D01*
X144921470Y-112787108D01*
X144921470Y-112501435D01*
X145484297Y-112501435D01*
X145446159Y-112452804D01*
X145416062Y-112399586D01*
X145411409Y-112385939D01*
X145585139Y-112385939D01*
X145596680Y-112446847D01*
X145624981Y-112501435D01*
X146404055Y-112501435D01*
X146433547Y-112440527D01*
X146443989Y-112388045D01*
X146436504Y-112346381D01*
X146415687Y-112317703D01*
X146383669Y-112298108D01*
X146339025Y-112285189D01*
X146229757Y-112276762D01*
X145776198Y-112276762D01*
X145700075Y-112283219D01*
X145640826Y-112300851D01*
X145609572Y-112321364D01*
X145591502Y-112348958D01*
X145585139Y-112385939D01*
X145411409Y-112385939D01*
X145396439Y-112342031D01*
X145389775Y-112278869D01*
X145396994Y-112209841D01*
X145417216Y-112154114D01*
X145449676Y-112108784D01*
X145492705Y-112071609D01*
X145545681Y-112041065D01*
X145610327Y-112017376D01*
X145714708Y-111996490D01*
X145837106Y-111989075D01*
X146208783Y-111989075D01*
X146326291Y-111994944D01*
G37*
G36*
X146622500Y-82891025D02*
G01*
X146229757Y-82960267D01*
X146229757Y-83256381D01*
X146622500Y-83323609D01*
X146622500Y-83611297D01*
X144921470Y-83271127D01*
X144921470Y-83107271D01*
X145318426Y-83107271D01*
X146032378Y-83222767D01*
X146032378Y-82991775D01*
X145318426Y-83107271D01*
X144921470Y-83107271D01*
X144921470Y-82939293D01*
X146622500Y-82599124D01*
X146622500Y-82891025D01*
G37*
G36*
X146622500Y-83781381D02*
G01*
X144921470Y-83781381D01*
X144921470Y-84480679D01*
X145135702Y-84480679D01*
X145135702Y-84092150D01*
X145631301Y-84092150D01*
X145631301Y-84409238D01*
X145847639Y-84409238D01*
X145847639Y-84092150D01*
X146622500Y-84092150D01*
X146622500Y-83781381D01*
G37*
G36*
X146622500Y-84647466D02*
G01*
X144921470Y-84647466D01*
X144921470Y-85361419D01*
X145139915Y-85361419D01*
X145139915Y-84958235D01*
X145629194Y-84958235D01*
X145629194Y-85275323D01*
X145845532Y-85275323D01*
X145845532Y-84958235D01*
X146408268Y-84958235D01*
X146408268Y-85365632D01*
X146622500Y-85365632D01*
X146622500Y-84647466D01*
G37*
G36*
X146622500Y-86045238D02*
G01*
X145408735Y-86045238D01*
X145408735Y-86330819D01*
X146622500Y-86330819D01*
X146622500Y-86045238D01*
G37*
G36*
X145215478Y-86045238D02*
G01*
X144978165Y-86045238D01*
X144978165Y-86330819D01*
X145215478Y-86330819D01*
X145215478Y-86045238D01*
G37*
G36*
X146622500Y-86557049D02*
G01*
X145408735Y-86557049D01*
X145408735Y-86842630D01*
X145530459Y-86842630D01*
X145472955Y-86910400D01*
X145428702Y-86980199D01*
X145399557Y-87055332D01*
X145389775Y-87136637D01*
X145399651Y-87206524D01*
X145426595Y-87256346D01*
X145468671Y-87294233D01*
X145524231Y-87321468D01*
X145586921Y-87337066D01*
X145656489Y-87342442D01*
X146622500Y-87342442D01*
X146622500Y-87056861D01*
X145713183Y-87056861D01*
X145662262Y-87052098D01*
X145629194Y-87040008D01*
X145607889Y-87016960D01*
X145599794Y-86974979D01*
X145603718Y-86945368D01*
X145616646Y-86910865D01*
X145658595Y-86842630D01*
X146622500Y-86842630D01*
X146622500Y-86557049D01*
G37*
D12*
%TO.C,Listen*%
X147500000Y-95900000D02*
X147500000Y-102100000D01*
X147500000Y-95900000D02*
X148625000Y-95900000D01*
X148625000Y-94500000D02*
X148625000Y-95900000D01*
X150175000Y-94500000D02*
X150175000Y-95900000D01*
X150175000Y-95900000D02*
X152575000Y-95900000D01*
X154225000Y-95900000D02*
X155575000Y-95900000D01*
X157225000Y-95900000D02*
X159600000Y-95900000D01*
X159600000Y-96500000D02*
X159600000Y-95900000D01*
X159600000Y-102100000D02*
X149075000Y-102100000D01*
X159600000Y-102100000D02*
X159600000Y-101500000D01*
X161600000Y-96500000D02*
X159600000Y-96500000D01*
X161600000Y-101500000D02*
X159600000Y-101500000D01*
X161600000Y-101500000D02*
X161600000Y-96500000D01*
%TO.C,Record*%
X147500000Y-106950000D02*
X147500000Y-113150000D01*
X147500000Y-106950000D02*
X148625000Y-106950000D01*
X148625000Y-105550000D02*
X148625000Y-106950000D01*
X150175000Y-105550000D02*
X150175000Y-106950000D01*
X150175000Y-106950000D02*
X152575000Y-106950000D01*
X154225000Y-106950000D02*
X155575000Y-106950000D01*
X157225000Y-106950000D02*
X159600000Y-106950000D01*
X159600000Y-107550000D02*
X159600000Y-106950000D01*
X159600000Y-113150000D02*
X149075000Y-113150000D01*
X159600000Y-113150000D02*
X159600000Y-112550000D01*
X161600000Y-107550000D02*
X159600000Y-107550000D01*
X161600000Y-112550000D02*
X159600000Y-112550000D01*
X161600000Y-112550000D02*
X161600000Y-107550000D01*
%TO.C,AFE in*%
X147500000Y-81900000D02*
X147500000Y-88100000D01*
X147500000Y-81900000D02*
X148625000Y-81900000D01*
X148625000Y-80500000D02*
X148625000Y-81900000D01*
X150175000Y-80500000D02*
X150175000Y-81900000D01*
X150175000Y-81900000D02*
X152575000Y-81900000D01*
X154225000Y-81900000D02*
X155575000Y-81900000D01*
X157225000Y-81900000D02*
X159600000Y-81900000D01*
X159600000Y-82500000D02*
X159600000Y-81900000D01*
X159600000Y-88100000D02*
X149075000Y-88100000D01*
X159600000Y-88100000D02*
X159600000Y-87500000D01*
X161600000Y-82500000D02*
X159600000Y-82500000D01*
X161600000Y-87500000D02*
X159600000Y-87500000D01*
X161600000Y-87500000D02*
X161600000Y-82500000D01*
%TD*%
M02*
