%TF.GenerationSoftware,KiCad,Pcbnew,8.0.2*%
%TF.CreationDate,2025-06-15T12:49:30+05:30*%
%TF.ProjectId,final schematics,66696e61-6c20-4736-9368-656d61746963,1.0*%
%TF.SameCoordinates,Original*%
%TF.FileFunction,Copper,L2,Bot*%
%TF.FilePolarity,Positive*%
%FSLAX46Y46*%
G04 Gerber Fmt 4.6, Leading zero omitted, Abs format (unit mm)*
G04 Created by KiCad (PCBNEW 8.0.2) date 2025-06-15 12:49:30*
%MOMM*%
%LPD*%
G01*
G04 APERTURE LIST*
%TA.AperFunction,ComponentPad*%
%ADD10O,2.200000X3.500000*%
%TD*%
%TA.AperFunction,ComponentPad*%
%ADD11R,1.500000X2.500000*%
%TD*%
%TA.AperFunction,ComponentPad*%
%ADD12O,1.500000X2.500000*%
%TD*%
%TA.AperFunction,ComponentPad*%
%ADD13R,1.700000X1.700000*%
%TD*%
%TA.AperFunction,ComponentPad*%
%ADD14O,1.700000X1.700000*%
%TD*%
%TA.AperFunction,ComponentPad*%
%ADD15C,1.440000*%
%TD*%
%TA.AperFunction,SMDPad,CuDef*%
%ADD16R,1.200000X2.500000*%
%TD*%
%TA.AperFunction,ViaPad*%
%ADD17C,0.700000*%
%TD*%
%TA.AperFunction,Conductor*%
%ADD18C,0.300000*%
%TD*%
%TA.AperFunction,Conductor*%
%ADD19C,0.500000*%
%TD*%
G04 APERTURE END LIST*
D10*
%TO.P,PSWT,*%
%TO.N,*%
X136100000Y-80000000D03*
X127900000Y-80000000D03*
D11*
%TO.P,PSWT,1,C*%
%TO.N,unconnected-(PSWT1-C-Pad1)*%
X134000000Y-80000000D03*
D12*
%TO.P,PSWT,2,B*%
%TO.N,switch*%
X132000000Y-80000000D03*
%TO.P,PSWT,3,A*%
%TO.N,+5V*%
X130000000Y-80000000D03*
%TD*%
D13*
%TO.P,BAT,1,Pin_1*%
%TO.N,switch*%
X140444205Y-82000000D03*
D14*
%TO.P,BAT,2,Pin_2*%
%TO.N,GND*%
X140444205Y-79460000D03*
%TD*%
D10*
%TO.P,MSWT,*%
%TO.N,*%
X127900000Y-114000000D03*
X136100000Y-114000000D03*
D11*
%TO.P,MSWT,1,C*%
%TO.N,Heart*%
X130000000Y-114000000D03*
D12*
%TO.P,MSWT,2,B*%
%TO.N,Net-(SW1-B)*%
X132000000Y-114000000D03*
%TO.P,MSWT,3,A*%
%TO.N,Lungs*%
X134000000Y-114000000D03*
%TD*%
D15*
%TO.P,POT,1,1*%
%TO.N,unconnected-(RV1-Pad1)*%
X146000000Y-114000000D03*
%TO.P,POT,2,2*%
%TO.N,Net-(C13-Pad2)*%
X143460000Y-114000000D03*
%TO.P,POT,3,3*%
%TO.N,Net-(U1B--)*%
X140920000Y-114000000D03*
%TD*%
D16*
%TO.P,Listen,R1*%
%TO.N,FSignal*%
X153400000Y-95750000D03*
%TO.P,Listen,R2*%
X156400000Y-95750000D03*
%TO.P,Listen,S*%
%TO.N,GND*%
X148300000Y-102250000D03*
%TO.P,Listen,T*%
%TO.N,unconnected-(J4-PadT)*%
X149400000Y-95750000D03*
%TD*%
%TO.P,Record,R1*%
%TO.N,Net-(J5-PadR1)*%
X153400000Y-106800000D03*
%TO.P,Record,R2*%
X156400000Y-106800000D03*
%TO.P,Record,S*%
%TO.N,GND*%
X148300000Y-113300000D03*
%TO.P,Record,T*%
%TO.N,unconnected-(J5-PadT)*%
X149400000Y-106800000D03*
%TD*%
%TO.P,AFE in,R1*%
%TO.N,Signal*%
X153400000Y-81750000D03*
%TO.P,AFE in,R2*%
X156400000Y-81750000D03*
%TO.P,AFE in,S*%
%TO.N,GND*%
X148300000Y-88250000D03*
%TO.P,AFE in,T*%
%TO.N,unconnected-(J3-PadT)*%
X149400000Y-81750000D03*
%TD*%
D17*
%TO.N,FSignal*%
X155300000Y-91000000D03*
%TO.N,GND*%
X141000000Y-106000000D03*
X137000000Y-100000000D03*
X154000000Y-93000000D03*
X125971020Y-110300000D03*
X151000000Y-103000000D03*
X136000000Y-86000000D03*
X148000000Y-100000000D03*
X136000000Y-92000000D03*
X125000000Y-105000000D03*
X151000000Y-113300000D03*
X153000000Y-110000000D03*
%TO.N,+5V*%
X155000000Y-79000000D03*
X143000000Y-86000000D03*
%TO.N,Net-(U2A-+)*%
X139000000Y-104000000D03*
X133850000Y-105000000D03*
%TO.N,Signal*%
X152000000Y-81000000D03*
X127000000Y-94000000D03*
X144000000Y-82000000D03*
%TO.N,Net-(C6-Pad2)*%
X145000000Y-95000000D03*
X151000000Y-99602500D03*
%TO.N,Heart*%
X136000000Y-110000000D03*
%TO.N,Lungs*%
X152000000Y-110000000D03*
%TO.N,2.5V*%
X139615921Y-88615919D03*
X142000000Y-93000000D03*
X139000000Y-98000000D03*
X142000000Y-100000000D03*
%TO.N,Net-(SW1-B)*%
X154000000Y-85000000D03*
%TO.N,Net-(U2A--)*%
X136000000Y-106000000D03*
X136000000Y-109000000D03*
%TO.N,Net-(U2C--)*%
X146000000Y-110300000D03*
X149000000Y-110000000D03*
%TO.N,Net-(C13-Pad2)*%
X153000000Y-85000000D03*
%TO.N,Net-(U2D-+)*%
X151000000Y-107000000D03*
X144000000Y-109000000D03*
X141192749Y-105120883D03*
%TO.N,Net-(J5-PadR1)*%
X152000000Y-93300000D03*
%TO.N,Net-(R10-Pad1)*%
X143958716Y-96972117D03*
X146150000Y-105000000D03*
%TO.N,Net-(U1B--)*%
X149000000Y-84000000D03*
X159000000Y-89000000D03*
X145260200Y-87149702D03*
X144000000Y-90000000D03*
%TD*%
D18*
%TO.N,FSignal*%
X156400000Y-92100000D02*
X156400000Y-95750000D01*
X156400000Y-95750000D02*
X153400000Y-95750000D01*
X155300000Y-91000000D02*
X156400000Y-92100000D01*
%TO.N,GND*%
X148300000Y-102250000D02*
X148300000Y-100300000D01*
X148300000Y-100300000D02*
X148000000Y-100000000D01*
X151000000Y-113300000D02*
X148300000Y-113300000D01*
D19*
%TO.N,+5V*%
X143000000Y-86000000D02*
X147000000Y-82000000D01*
X153000000Y-79000000D02*
X155000000Y-79000000D01*
X149400000Y-79000000D02*
X153000000Y-79000000D01*
X147000000Y-81400000D02*
X149400000Y-79000000D01*
X147000000Y-82000000D02*
X147000000Y-81400000D01*
D18*
%TO.N,Net-(U2A-+)*%
X135000000Y-105000000D02*
X136000000Y-104000000D01*
X136000000Y-104000000D02*
X139000000Y-104000000D01*
X133850000Y-105000000D02*
X135000000Y-105000000D01*
%TO.N,Signal*%
X153400000Y-81750000D02*
X152750000Y-81750000D01*
X144000000Y-82000000D02*
X142000000Y-84000000D01*
X142000000Y-84000000D02*
X131000000Y-84000000D01*
X131000000Y-84000000D02*
X127000000Y-88000000D01*
X153400000Y-81750000D02*
X156400000Y-81750000D01*
X127000000Y-88000000D02*
X127000000Y-94000000D01*
X152750000Y-81750000D02*
X152000000Y-81000000D01*
%TO.N,Net-(C6-Pad2)*%
X145000000Y-95000000D02*
X149602500Y-99602500D01*
X149602500Y-99602500D02*
X151000000Y-99602500D01*
%TO.N,Heart*%
X130000000Y-113500000D02*
X130000000Y-114000000D01*
X132500000Y-111000000D02*
X130000000Y-113500000D01*
X136000000Y-110000000D02*
X135000000Y-111000000D01*
X135000000Y-111000000D02*
X132500000Y-111000000D01*
%TO.N,Lungs*%
X136000000Y-111000000D02*
X134000000Y-113000000D01*
X134000000Y-113000000D02*
X134000000Y-114000000D01*
X150000000Y-111000000D02*
X136000000Y-111000000D01*
X151000000Y-110000000D02*
X150000000Y-111000000D01*
X152000000Y-110000000D02*
X151000000Y-110000000D01*
D19*
%TO.N,2.5V*%
X140000000Y-91000000D02*
X140000000Y-89000000D01*
X139615921Y-88615921D02*
X139615921Y-88615919D01*
X139000000Y-100000000D02*
X139000000Y-98000000D01*
X142000000Y-100000000D02*
X139000000Y-100000000D01*
X140000000Y-89000000D02*
X139615921Y-88615921D01*
X139000000Y-96000000D02*
X142000000Y-93000000D01*
X142000000Y-93000000D02*
X140000000Y-91000000D01*
X139000000Y-98000000D02*
X139000000Y-96000000D01*
D18*
%TO.N,Net-(SW1-B)*%
X133850000Y-116350000D02*
X136000000Y-116350000D01*
X159000000Y-90000000D02*
X154000000Y-85000000D01*
X159350000Y-111000000D02*
X159350000Y-90350000D01*
X154000000Y-116350000D02*
X159350000Y-111000000D01*
X136000000Y-116350000D02*
X154000000Y-116350000D01*
X159350000Y-90350000D02*
X159000000Y-90000000D01*
X132000000Y-114000000D02*
X132000000Y-114500000D01*
X132000000Y-114500000D02*
X133850000Y-116350000D01*
%TO.N,Net-(U2A--)*%
X136000000Y-109000000D02*
X136000000Y-106000000D01*
%TO.N,Net-(U2C--)*%
X149000000Y-110000000D02*
X148700000Y-110300000D01*
X148700000Y-110300000D02*
X146000000Y-110300000D01*
%TO.N,Net-(C13-Pad2)*%
X143000000Y-115850000D02*
X143000000Y-114460000D01*
X156850000Y-99850000D02*
X158850000Y-101850000D01*
X158000000Y-97000000D02*
X156850000Y-98150000D01*
X143000000Y-114460000D02*
X143460000Y-114000000D01*
X153792894Y-115850000D02*
X143000000Y-115850000D01*
X158850000Y-97000000D02*
X158000000Y-97000000D01*
X156850000Y-109573654D02*
X156850000Y-110850000D01*
X158850000Y-90850000D02*
X158850000Y-97000000D01*
X156850000Y-98150000D02*
X156850000Y-99850000D01*
X158850000Y-107573654D02*
X156850000Y-109573654D01*
X157821447Y-111821447D02*
X153792894Y-115850000D01*
X153000000Y-85000000D02*
X158850000Y-90850000D01*
X156850000Y-110850000D02*
X157821447Y-111821447D01*
X158850000Y-101850000D02*
X158850000Y-107573654D01*
%TO.N,Net-(U2D-+)*%
X144000000Y-109000000D02*
X149750000Y-109000000D01*
X149750000Y-109000000D02*
X151000000Y-107750000D01*
X141192749Y-105120883D02*
X144000000Y-107928134D01*
X144000000Y-107928134D02*
X144000000Y-109000000D01*
X151000000Y-107750000D02*
X151000000Y-107000000D01*
%TO.N,Net-(J5-PadR1)*%
X157550000Y-106800000D02*
X156400000Y-106800000D01*
X152000000Y-100000000D02*
X156000000Y-100000000D01*
X152000000Y-93300000D02*
X152000000Y-100000000D01*
X156400000Y-106800000D02*
X153400000Y-106800000D01*
X158350000Y-102350000D02*
X158350000Y-106000000D01*
X156000000Y-100000000D02*
X158350000Y-102350000D01*
X158350000Y-106000000D02*
X157550000Y-106800000D01*
%TO.N,Net-(R10-Pad1)*%
X143958716Y-102808716D02*
X143958716Y-96972117D01*
X146150000Y-105000000D02*
X143958716Y-102808716D01*
%TO.N,Net-(U1B--)*%
X145110498Y-87000000D02*
X145260200Y-87149702D01*
X153850000Y-83850000D02*
X159000000Y-89000000D01*
X149150000Y-83850000D02*
X153850000Y-83850000D01*
X144000000Y-87000000D02*
X145110498Y-87000000D01*
X144000000Y-90000000D02*
X144000000Y-87000000D01*
X149000000Y-84000000D02*
X149150000Y-83850000D01*
%TD*%
%TA.AperFunction,Conductor*%
%TO.N,GND*%
G36*
X157690614Y-77520185D02*
G01*
X157736369Y-77572989D01*
X157746313Y-77642147D01*
X157717288Y-77705703D01*
X157661894Y-77742431D01*
X157500776Y-77794781D01*
X157318386Y-77887715D01*
X157152786Y-78008028D01*
X157008028Y-78152786D01*
X156887715Y-78318386D01*
X156794781Y-78500776D01*
X156731522Y-78695465D01*
X156699500Y-78897648D01*
X156699500Y-79102351D01*
X156731522Y-79304534D01*
X156794781Y-79499223D01*
X156887712Y-79681609D01*
X156975627Y-79802615D01*
X156999106Y-79868422D01*
X156983280Y-79936476D01*
X156933174Y-79985170D01*
X156875308Y-79999500D01*
X155752129Y-79999500D01*
X155752123Y-79999501D01*
X155692516Y-80005908D01*
X155557671Y-80056202D01*
X155557664Y-80056206D01*
X155442455Y-80142452D01*
X155442452Y-80142455D01*
X155356206Y-80257664D01*
X155356202Y-80257671D01*
X155305908Y-80392517D01*
X155299501Y-80452116D01*
X155299501Y-80452123D01*
X155299500Y-80452135D01*
X155299500Y-80975500D01*
X155279815Y-81042539D01*
X155227011Y-81088294D01*
X155175500Y-81099500D01*
X154624499Y-81099500D01*
X154557460Y-81079815D01*
X154511705Y-81027011D01*
X154500499Y-80975500D01*
X154500499Y-80452129D01*
X154500498Y-80452123D01*
X154500497Y-80452116D01*
X154494091Y-80392517D01*
X154471177Y-80331082D01*
X154443797Y-80257671D01*
X154443793Y-80257664D01*
X154357547Y-80142455D01*
X154357544Y-80142452D01*
X154242335Y-80056206D01*
X154242328Y-80056202D01*
X154107482Y-80005908D01*
X154107483Y-80005908D01*
X154047883Y-79999501D01*
X154047881Y-79999500D01*
X154047873Y-79999500D01*
X154047864Y-79999500D01*
X152752129Y-79999500D01*
X152752123Y-79999501D01*
X152692516Y-80005908D01*
X152557671Y-80056202D01*
X152557664Y-80056206D01*
X152442457Y-80142451D01*
X152442449Y-80142459D01*
X152432384Y-80155904D01*
X152376449Y-80197774D01*
X152306757Y-80202756D01*
X152282686Y-80194871D01*
X152264267Y-80186671D01*
X152264265Y-80186670D01*
X152119519Y-80155904D01*
X152089391Y-80149500D01*
X151910609Y-80149500D01*
X151880481Y-80155904D01*
X151735733Y-80186670D01*
X151735728Y-80186672D01*
X151572408Y-80259387D01*
X151427768Y-80364475D01*
X151308140Y-80497336D01*
X151218750Y-80652164D01*
X151218747Y-80652170D01*
X151163504Y-80822192D01*
X151163503Y-80822194D01*
X151144815Y-81000000D01*
X151163503Y-81177805D01*
X151163504Y-81177807D01*
X151218747Y-81347829D01*
X151218750Y-81347835D01*
X151308141Y-81502665D01*
X151310820Y-81505640D01*
X151427764Y-81635521D01*
X151427767Y-81635523D01*
X151427770Y-81635526D01*
X151572407Y-81740612D01*
X151735733Y-81813329D01*
X151900012Y-81848247D01*
X151961493Y-81881439D01*
X151961911Y-81881856D01*
X152263181Y-82183126D01*
X152296666Y-82244449D01*
X152299500Y-82270807D01*
X152299500Y-83047870D01*
X152299501Y-83047879D01*
X152301046Y-83062248D01*
X152288639Y-83131007D01*
X152241027Y-83182143D01*
X152177756Y-83199500D01*
X150622244Y-83199500D01*
X150555205Y-83179815D01*
X150509450Y-83127011D01*
X150498954Y-83062247D01*
X150500500Y-83047873D01*
X150500499Y-80452128D01*
X150494091Y-80392517D01*
X150471177Y-80331082D01*
X150443797Y-80257671D01*
X150443793Y-80257664D01*
X150357547Y-80142455D01*
X150357544Y-80142452D01*
X150242335Y-80056206D01*
X150242328Y-80056202D01*
X150107482Y-80005908D01*
X150107483Y-80005908D01*
X150047883Y-79999501D01*
X150047881Y-79999500D01*
X150047873Y-79999500D01*
X150047865Y-79999500D01*
X149761229Y-79999500D01*
X149694190Y-79979815D01*
X149648435Y-79927011D01*
X149638491Y-79857853D01*
X149667516Y-79794297D01*
X149673548Y-79787819D01*
X149674548Y-79786819D01*
X149735871Y-79753334D01*
X149762229Y-79750500D01*
X152926082Y-79750500D01*
X154568259Y-79750500D01*
X154618693Y-79761219D01*
X154735733Y-79813329D01*
X154910609Y-79850500D01*
X154910610Y-79850500D01*
X155089389Y-79850500D01*
X155089391Y-79850500D01*
X155264267Y-79813329D01*
X155427593Y-79740612D01*
X155572230Y-79635526D01*
X155691859Y-79502665D01*
X155781250Y-79347835D01*
X155836497Y-79177803D01*
X155855185Y-79000000D01*
X155836497Y-78822197D01*
X155808365Y-78735616D01*
X155781252Y-78652170D01*
X155781249Y-78652164D01*
X155744739Y-78588926D01*
X155691859Y-78497335D01*
X155631659Y-78430476D01*
X155572235Y-78364478D01*
X155572232Y-78364476D01*
X155572231Y-78364475D01*
X155572230Y-78364474D01*
X155427593Y-78259388D01*
X155264267Y-78186671D01*
X155264265Y-78186670D01*
X155104850Y-78152786D01*
X155089391Y-78149500D01*
X154910609Y-78149500D01*
X154895150Y-78152786D01*
X154735733Y-78186670D01*
X154618694Y-78238780D01*
X154568259Y-78249500D01*
X153073918Y-78249500D01*
X149326082Y-78249500D01*
X149299770Y-78254734D01*
X149299769Y-78254734D01*
X149181094Y-78278339D01*
X149181087Y-78278341D01*
X149113822Y-78306204D01*
X149113821Y-78306204D01*
X149044511Y-78334912D01*
X149044498Y-78334919D01*
X148966102Y-78387303D01*
X148921582Y-78417049D01*
X146417047Y-80921584D01*
X146406252Y-80937740D01*
X146395504Y-80953828D01*
X146365106Y-80999321D01*
X146334914Y-81044507D01*
X146278343Y-81181082D01*
X146278340Y-81181092D01*
X146249500Y-81326079D01*
X146249500Y-81637769D01*
X146229815Y-81704808D01*
X146213181Y-81725450D01*
X142780820Y-85157810D01*
X142740894Y-85182289D01*
X142741669Y-85184029D01*
X142735736Y-85186670D01*
X142735733Y-85186671D01*
X142572408Y-85259388D01*
X142572406Y-85259389D01*
X142427768Y-85364475D01*
X142308140Y-85497336D01*
X142218750Y-85652164D01*
X142218747Y-85652170D01*
X142163504Y-85822192D01*
X142163503Y-85822194D01*
X142144815Y-86000000D01*
X142163503Y-86177805D01*
X142163504Y-86177807D01*
X142218747Y-86347829D01*
X142218750Y-86347835D01*
X142308141Y-86502665D01*
X142349812Y-86548946D01*
X142427764Y-86635521D01*
X142427767Y-86635523D01*
X142427770Y-86635526D01*
X142572407Y-86740612D01*
X142735733Y-86813329D01*
X142910609Y-86850500D01*
X142910610Y-86850500D01*
X143089389Y-86850500D01*
X143089391Y-86850500D01*
X143199719Y-86827049D01*
X143269386Y-86832365D01*
X143325120Y-86874502D01*
X143349225Y-86940082D01*
X143349500Y-86948339D01*
X143349500Y-89403802D01*
X143329815Y-89470841D01*
X143317651Y-89486773D01*
X143308140Y-89497336D01*
X143218750Y-89652164D01*
X143218747Y-89652170D01*
X143163504Y-89822192D01*
X143163503Y-89822194D01*
X143144815Y-90000000D01*
X143163503Y-90177805D01*
X143163504Y-90177807D01*
X143218747Y-90347829D01*
X143218750Y-90347835D01*
X143308141Y-90502665D01*
X143349812Y-90548946D01*
X143427764Y-90635521D01*
X143427767Y-90635523D01*
X143427770Y-90635526D01*
X143572407Y-90740612D01*
X143735733Y-90813329D01*
X143910609Y-90850500D01*
X143910610Y-90850500D01*
X144089389Y-90850500D01*
X144089391Y-90850500D01*
X144264267Y-90813329D01*
X144427593Y-90740612D01*
X144572230Y-90635526D01*
X144691859Y-90502665D01*
X144781250Y-90347835D01*
X144836497Y-90177803D01*
X144855185Y-90000000D01*
X144836497Y-89822197D01*
X144781250Y-89652165D01*
X144721020Y-89547844D01*
X147200000Y-89547844D01*
X147206401Y-89607372D01*
X147206403Y-89607379D01*
X147256645Y-89742086D01*
X147256649Y-89742093D01*
X147342809Y-89857187D01*
X147342812Y-89857190D01*
X147457906Y-89943350D01*
X147457913Y-89943354D01*
X147592620Y-89993596D01*
X147592627Y-89993598D01*
X147652155Y-89999999D01*
X147652172Y-90000000D01*
X148050000Y-90000000D01*
X148550000Y-90000000D01*
X148947828Y-90000000D01*
X148947844Y-89999999D01*
X149007372Y-89993598D01*
X149007379Y-89993596D01*
X149142086Y-89943354D01*
X149142093Y-89943350D01*
X149257187Y-89857190D01*
X149257190Y-89857187D01*
X149343350Y-89742093D01*
X149343354Y-89742086D01*
X149393596Y-89607379D01*
X149393598Y-89607372D01*
X149399999Y-89547844D01*
X149400000Y-89547827D01*
X149400000Y-88500000D01*
X148550000Y-88500000D01*
X148550000Y-90000000D01*
X148050000Y-90000000D01*
X148050000Y-88500000D01*
X147200000Y-88500000D01*
X147200000Y-89547844D01*
X144721020Y-89547844D01*
X144691859Y-89497335D01*
X144682349Y-89486773D01*
X144652120Y-89423782D01*
X144650500Y-89403802D01*
X144650500Y-87999948D01*
X144670185Y-87932909D01*
X144722989Y-87887154D01*
X144792147Y-87877210D01*
X144826094Y-87888962D01*
X144826670Y-87887670D01*
X144832604Y-87890312D01*
X144832607Y-87890314D01*
X144995933Y-87963031D01*
X145170809Y-88000202D01*
X145170810Y-88000202D01*
X145349589Y-88000202D01*
X145349591Y-88000202D01*
X145524467Y-87963031D01*
X145687793Y-87890314D01*
X145832430Y-87785228D01*
X145952059Y-87652367D01*
X146041450Y-87497537D01*
X146096697Y-87327505D01*
X146115385Y-87149702D01*
X146096697Y-86971899D01*
X146090282Y-86952155D01*
X147200000Y-86952155D01*
X147200000Y-88000000D01*
X148050000Y-88000000D01*
X148550000Y-88000000D01*
X149400000Y-88000000D01*
X149400000Y-86952172D01*
X149399999Y-86952155D01*
X149393598Y-86892627D01*
X149393596Y-86892620D01*
X149343354Y-86757913D01*
X149343350Y-86757906D01*
X149257190Y-86642812D01*
X149257187Y-86642809D01*
X149142093Y-86556649D01*
X149142086Y-86556645D01*
X149007379Y-86506403D01*
X149007372Y-86506401D01*
X148947844Y-86500000D01*
X148550000Y-86500000D01*
X148550000Y-88000000D01*
X148050000Y-88000000D01*
X148050000Y-86500000D01*
X147652155Y-86500000D01*
X147592627Y-86506401D01*
X147592620Y-86506403D01*
X147457913Y-86556645D01*
X147457906Y-86556649D01*
X147342812Y-86642809D01*
X147342809Y-86642812D01*
X147256649Y-86757906D01*
X147256645Y-86757913D01*
X147206403Y-86892620D01*
X147206401Y-86892627D01*
X147200000Y-86952155D01*
X146090282Y-86952155D01*
X146057252Y-86850500D01*
X146041452Y-86801872D01*
X146041449Y-86801866D01*
X146006083Y-86740610D01*
X145952059Y-86647037D01*
X145905203Y-86594998D01*
X145832435Y-86514180D01*
X145832432Y-86514178D01*
X145832431Y-86514177D01*
X145832430Y-86514176D01*
X145687793Y-86409090D01*
X145524467Y-86336373D01*
X145524465Y-86336372D01*
X145396794Y-86309235D01*
X145349591Y-86299202D01*
X145170809Y-86299202D01*
X145133639Y-86307102D01*
X144995934Y-86336372D01*
X144995925Y-86336375D01*
X144990525Y-86338780D01*
X144940092Y-86349500D01*
X144011229Y-86349500D01*
X143944190Y-86329815D01*
X143898435Y-86277011D01*
X143888491Y-86207853D01*
X143917516Y-86144297D01*
X143923548Y-86137819D01*
X147582948Y-82478419D01*
X147582951Y-82478416D01*
X147665084Y-82355495D01*
X147721658Y-82218913D01*
X147750500Y-82073918D01*
X147750500Y-81926083D01*
X147750500Y-81762229D01*
X147770185Y-81695190D01*
X147786819Y-81674548D01*
X147925807Y-81535560D01*
X148087821Y-81373545D01*
X148149142Y-81340062D01*
X148218833Y-81345046D01*
X148274767Y-81386917D01*
X148299184Y-81452382D01*
X148299500Y-81461228D01*
X148299500Y-83047870D01*
X148299501Y-83047876D01*
X148305908Y-83107483D01*
X148356202Y-83242328D01*
X148356206Y-83242334D01*
X148377559Y-83270859D01*
X148401976Y-83336323D01*
X148387124Y-83404596D01*
X148370443Y-83428140D01*
X148308140Y-83497336D01*
X148218750Y-83652164D01*
X148218747Y-83652170D01*
X148163504Y-83822192D01*
X148163503Y-83822194D01*
X148144815Y-84000000D01*
X148163503Y-84177805D01*
X148163504Y-84177807D01*
X148218747Y-84347829D01*
X148218750Y-84347835D01*
X148308141Y-84502665D01*
X148329235Y-84526092D01*
X148427764Y-84635521D01*
X148427767Y-84635523D01*
X148427770Y-84635526D01*
X148572407Y-84740612D01*
X148735733Y-84813329D01*
X148910609Y-84850500D01*
X148910610Y-84850500D01*
X149089389Y-84850500D01*
X149089391Y-84850500D01*
X149264267Y-84813329D01*
X149427593Y-84740612D01*
X149572230Y-84635526D01*
X149581257Y-84625501D01*
X149656867Y-84541528D01*
X149716354Y-84504879D01*
X149749017Y-84500500D01*
X149938387Y-84500500D01*
X150005426Y-84520185D01*
X150051181Y-84572989D01*
X150061125Y-84642147D01*
X150052949Y-84671951D01*
X150037949Y-84708165D01*
X150037947Y-84708170D01*
X149999500Y-84901456D01*
X149999500Y-84901459D01*
X149999500Y-85098541D01*
X149999500Y-85098543D01*
X149999499Y-85098543D01*
X150037947Y-85291829D01*
X150037950Y-85291839D01*
X150113364Y-85473907D01*
X150113371Y-85473920D01*
X150222860Y-85637781D01*
X150222863Y-85637785D01*
X150362214Y-85777136D01*
X150362218Y-85777139D01*
X150526079Y-85886628D01*
X150526092Y-85886635D01*
X150708160Y-85962049D01*
X150708165Y-85962051D01*
X150708169Y-85962051D01*
X150708170Y-85962052D01*
X150901456Y-86000500D01*
X150901459Y-86000500D01*
X151098543Y-86000500D01*
X151228582Y-85974632D01*
X151291835Y-85962051D01*
X151473914Y-85886632D01*
X151637782Y-85777139D01*
X151777139Y-85637782D01*
X151886632Y-85473914D01*
X151962051Y-85291835D01*
X151962053Y-85291823D01*
X151962608Y-85289997D01*
X151963164Y-85289148D01*
X151964382Y-85286208D01*
X151964939Y-85286438D01*
X152000904Y-85231557D01*
X152064715Y-85203098D01*
X152133782Y-85213656D01*
X152186177Y-85259879D01*
X152199201Y-85287670D01*
X152218747Y-85347829D01*
X152218750Y-85347835D01*
X152308141Y-85502665D01*
X152349812Y-85548946D01*
X152427764Y-85635521D01*
X152427767Y-85635523D01*
X152427770Y-85635526D01*
X152572407Y-85740612D01*
X152735733Y-85813329D01*
X152735735Y-85813329D01*
X152735736Y-85813330D01*
X152792275Y-85825347D01*
X152900010Y-85848247D01*
X152961490Y-85881438D01*
X152961909Y-85881855D01*
X158163181Y-91083127D01*
X158196666Y-91144450D01*
X158199500Y-91170808D01*
X158199500Y-96225500D01*
X158179815Y-96292539D01*
X158127011Y-96338294D01*
X158075500Y-96349500D01*
X157935929Y-96349500D01*
X157810261Y-96374497D01*
X157810251Y-96374500D01*
X157761220Y-96394810D01*
X157691881Y-96423530D01*
X157686500Y-96426407D01*
X157685708Y-96424926D01*
X157626711Y-96443399D01*
X157559331Y-96424914D01*
X157512642Y-96372935D01*
X157500499Y-96319419D01*
X157500499Y-94452129D01*
X157500498Y-94452123D01*
X157500497Y-94452116D01*
X157494091Y-94392517D01*
X157483632Y-94364476D01*
X157443797Y-94257671D01*
X157443793Y-94257664D01*
X157357547Y-94142455D01*
X157357544Y-94142452D01*
X157242335Y-94056206D01*
X157242329Y-94056203D01*
X157131166Y-94014741D01*
X157075233Y-93972869D01*
X157050816Y-93907405D01*
X157050500Y-93898559D01*
X157050500Y-92035928D01*
X157025502Y-91910261D01*
X157025501Y-91910260D01*
X157025501Y-91910256D01*
X156976465Y-91791873D01*
X156905277Y-91685331D01*
X156905275Y-91685329D01*
X156905273Y-91685326D01*
X156905272Y-91685325D01*
X156178628Y-90958682D01*
X156145143Y-90897359D01*
X156142988Y-90883961D01*
X156139471Y-90850500D01*
X156136497Y-90822197D01*
X156105062Y-90725451D01*
X156081252Y-90652170D01*
X156081249Y-90652164D01*
X156071643Y-90635526D01*
X155991859Y-90497335D01*
X155945003Y-90445296D01*
X155872235Y-90364478D01*
X155872232Y-90364476D01*
X155872231Y-90364475D01*
X155872230Y-90364474D01*
X155727593Y-90259388D01*
X155564267Y-90186671D01*
X155564265Y-90186670D01*
X155436594Y-90159533D01*
X155389391Y-90149500D01*
X155210609Y-90149500D01*
X155179954Y-90156015D01*
X155035733Y-90186670D01*
X155035728Y-90186672D01*
X154872408Y-90259387D01*
X154727768Y-90364475D01*
X154608140Y-90497336D01*
X154518750Y-90652164D01*
X154518747Y-90652170D01*
X154463504Y-90822192D01*
X154463503Y-90822194D01*
X154444815Y-91000000D01*
X154463503Y-91177805D01*
X154463504Y-91177807D01*
X154518747Y-91347829D01*
X154518750Y-91347835D01*
X154608141Y-91502665D01*
X154649812Y-91548946D01*
X154727764Y-91635521D01*
X154727767Y-91635523D01*
X154727770Y-91635526D01*
X154872407Y-91740612D01*
X155035733Y-91813329D01*
X155035735Y-91813329D01*
X155035736Y-91813330D01*
X155092275Y-91825347D01*
X155200010Y-91848247D01*
X155261490Y-91881438D01*
X155261909Y-91881855D01*
X155713181Y-92333127D01*
X155746666Y-92394450D01*
X155749500Y-92420808D01*
X155749500Y-93898560D01*
X155729815Y-93965599D01*
X155677011Y-94011354D01*
X155668833Y-94014742D01*
X155557671Y-94056202D01*
X155557664Y-94056206D01*
X155442455Y-94142452D01*
X155442452Y-94142455D01*
X155356206Y-94257664D01*
X155356202Y-94257671D01*
X155305908Y-94392517D01*
X155299501Y-94452116D01*
X155299501Y-94452123D01*
X155299500Y-94452135D01*
X155299500Y-94975500D01*
X155279815Y-95042539D01*
X155227011Y-95088294D01*
X155175500Y-95099500D01*
X154624499Y-95099500D01*
X154557460Y-95079815D01*
X154511705Y-95027011D01*
X154500499Y-94975500D01*
X154500499Y-94452129D01*
X154500498Y-94452123D01*
X154500497Y-94452116D01*
X154494091Y-94392517D01*
X154483632Y-94364476D01*
X154443797Y-94257671D01*
X154443793Y-94257664D01*
X154357547Y-94142455D01*
X154357544Y-94142452D01*
X154242335Y-94056206D01*
X154242328Y-94056202D01*
X154107482Y-94005908D01*
X154107483Y-94005908D01*
X154047883Y-93999501D01*
X154047881Y-93999500D01*
X154047873Y-93999500D01*
X154047865Y-93999500D01*
X152792212Y-93999500D01*
X152725173Y-93979815D01*
X152679418Y-93927011D01*
X152669474Y-93857853D01*
X152689408Y-93808754D01*
X152688610Y-93808293D01*
X152727686Y-93740610D01*
X152781250Y-93647835D01*
X152836497Y-93477803D01*
X152855185Y-93300000D01*
X152836497Y-93122197D01*
X152796793Y-93000000D01*
X152781252Y-92952170D01*
X152781249Y-92952164D01*
X152691859Y-92797335D01*
X152645003Y-92745296D01*
X152572235Y-92664478D01*
X152572232Y-92664476D01*
X152572231Y-92664475D01*
X152572230Y-92664474D01*
X152427593Y-92559388D01*
X152264267Y-92486671D01*
X152264265Y-92486670D01*
X152136594Y-92459533D01*
X152089391Y-92449500D01*
X151910609Y-92449500D01*
X151879954Y-92456015D01*
X151735733Y-92486670D01*
X151735728Y-92486672D01*
X151572408Y-92559387D01*
X151427768Y-92664475D01*
X151308140Y-92797336D01*
X151218750Y-92952164D01*
X151218747Y-92952170D01*
X151163504Y-93122192D01*
X151163503Y-93122194D01*
X151144815Y-93300000D01*
X151163503Y-93477805D01*
X151163504Y-93477807D01*
X151218747Y-93647829D01*
X151218750Y-93647835D01*
X151308141Y-93802665D01*
X151313209Y-93808293D01*
X151317648Y-93813223D01*
X151347879Y-93876213D01*
X151349500Y-93896197D01*
X151349500Y-98654160D01*
X151329815Y-98721199D01*
X151277011Y-98766954D01*
X151207853Y-98776898D01*
X151199720Y-98775451D01*
X151185395Y-98772406D01*
X151089391Y-98752000D01*
X150910609Y-98752000D01*
X150879954Y-98758515D01*
X150735733Y-98789170D01*
X150735728Y-98789172D01*
X150572408Y-98861888D01*
X150572403Y-98861890D01*
X150480974Y-98928318D01*
X150415168Y-98951798D01*
X150408089Y-98952000D01*
X149923308Y-98952000D01*
X149856269Y-98932315D01*
X149835627Y-98915681D01*
X148629033Y-97709087D01*
X148595548Y-97647764D01*
X148600532Y-97578072D01*
X148642404Y-97522139D01*
X148707868Y-97497722D01*
X148729960Y-97498116D01*
X148752127Y-97500500D01*
X150047872Y-97500499D01*
X150107483Y-97494091D01*
X150242331Y-97443796D01*
X150357546Y-97357546D01*
X150443796Y-97242331D01*
X150494091Y-97107483D01*
X150500500Y-97047873D01*
X150500499Y-94452128D01*
X150494091Y-94392517D01*
X150483632Y-94364476D01*
X150443797Y-94257671D01*
X150443793Y-94257664D01*
X150357547Y-94142455D01*
X150357544Y-94142452D01*
X150242335Y-94056206D01*
X150242328Y-94056202D01*
X150107482Y-94005908D01*
X150107483Y-94005908D01*
X150047883Y-93999501D01*
X150047881Y-93999500D01*
X150047873Y-93999500D01*
X150047864Y-93999500D01*
X148752129Y-93999500D01*
X148752123Y-93999501D01*
X148692516Y-94005908D01*
X148557671Y-94056202D01*
X148557664Y-94056206D01*
X148442455Y-94142452D01*
X148442452Y-94142455D01*
X148356206Y-94257664D01*
X148356202Y-94257671D01*
X148305908Y-94392517D01*
X148299501Y-94452116D01*
X148299501Y-94452123D01*
X148299500Y-94452135D01*
X148299500Y-97047870D01*
X148299501Y-97047886D01*
X148301882Y-97070035D01*
X148289473Y-97138794D01*
X148241860Y-97189929D01*
X148174160Y-97207205D01*
X148107867Y-97185137D01*
X148090911Y-97170965D01*
X145878628Y-94958682D01*
X145845143Y-94897359D01*
X145842988Y-94883961D01*
X145839471Y-94850500D01*
X145836497Y-94822197D01*
X145781250Y-94652165D01*
X145691859Y-94497335D01*
X145645003Y-94445296D01*
X145572235Y-94364478D01*
X145572232Y-94364476D01*
X145572231Y-94364475D01*
X145572230Y-94364474D01*
X145427593Y-94259388D01*
X145264267Y-94186671D01*
X145264265Y-94186670D01*
X145136594Y-94159533D01*
X145089391Y-94149500D01*
X144910609Y-94149500D01*
X144879954Y-94156015D01*
X144735733Y-94186670D01*
X144735728Y-94186672D01*
X144572408Y-94259387D01*
X144427768Y-94364475D01*
X144308140Y-94497336D01*
X144218750Y-94652164D01*
X144218747Y-94652170D01*
X144163504Y-94822192D01*
X144163503Y-94822194D01*
X144144815Y-95000000D01*
X144163503Y-95177805D01*
X144163504Y-95177807D01*
X144218747Y-95347829D01*
X144218750Y-95347835D01*
X144308141Y-95502665D01*
X144325176Y-95521584D01*
X144427764Y-95635521D01*
X144427767Y-95635523D01*
X144427770Y-95635526D01*
X144572407Y-95740612D01*
X144735733Y-95813329D01*
X144735735Y-95813329D01*
X144735736Y-95813330D01*
X144792275Y-95825347D01*
X144900010Y-95848247D01*
X144961490Y-95881438D01*
X144961909Y-95881855D01*
X149187825Y-100107772D01*
X149187832Y-100107778D01*
X149292634Y-100177804D01*
X149292633Y-100177805D01*
X149292642Y-100177808D01*
X149294373Y-100178965D01*
X149412756Y-100228001D01*
X149412760Y-100228001D01*
X149412761Y-100228002D01*
X149538428Y-100253000D01*
X149538431Y-100253000D01*
X150408089Y-100253000D01*
X150475128Y-100272685D01*
X150480976Y-100276682D01*
X150572407Y-100343112D01*
X150735733Y-100415829D01*
X150910609Y-100453000D01*
X150910610Y-100453000D01*
X151089389Y-100453000D01*
X151089391Y-100453000D01*
X151264267Y-100415829D01*
X151347416Y-100378808D01*
X151416663Y-100369525D01*
X151479940Y-100399153D01*
X151493705Y-100413427D01*
X151494729Y-100414675D01*
X151585327Y-100505273D01*
X151585331Y-100505276D01*
X151691866Y-100576461D01*
X151691875Y-100576466D01*
X151718692Y-100587574D01*
X151810256Y-100625501D01*
X151810260Y-100625501D01*
X151810261Y-100625502D01*
X151935928Y-100650500D01*
X151935931Y-100650500D01*
X152064069Y-100650500D01*
X155679192Y-100650500D01*
X155746231Y-100670185D01*
X155766873Y-100686819D01*
X157663181Y-102583127D01*
X157696666Y-102644450D01*
X157699500Y-102670808D01*
X157699500Y-105305951D01*
X157679815Y-105372990D01*
X157627011Y-105418745D01*
X157557853Y-105428689D01*
X157494297Y-105399664D01*
X157459318Y-105349284D01*
X157443797Y-105307671D01*
X157443793Y-105307664D01*
X157357547Y-105192455D01*
X157357544Y-105192452D01*
X157242335Y-105106206D01*
X157242328Y-105106202D01*
X157107482Y-105055908D01*
X157107483Y-105055908D01*
X157047883Y-105049501D01*
X157047881Y-105049500D01*
X157047873Y-105049500D01*
X157047864Y-105049500D01*
X155752129Y-105049500D01*
X155752123Y-105049501D01*
X155692516Y-105055908D01*
X155557671Y-105106202D01*
X155557664Y-105106206D01*
X155442455Y-105192452D01*
X155442452Y-105192455D01*
X155356206Y-105307664D01*
X155356202Y-105307671D01*
X155305908Y-105442517D01*
X155300015Y-105497335D01*
X155299501Y-105502123D01*
X155299500Y-105502135D01*
X155299500Y-106025500D01*
X155279815Y-106092539D01*
X155227011Y-106138294D01*
X155175500Y-106149500D01*
X154624499Y-106149500D01*
X154557460Y-106129815D01*
X154511705Y-106077011D01*
X154500499Y-106025500D01*
X154500499Y-105502129D01*
X154500498Y-105502123D01*
X154500497Y-105502116D01*
X154494091Y-105442517D01*
X154488933Y-105428689D01*
X154443797Y-105307671D01*
X154443793Y-105307664D01*
X154357547Y-105192455D01*
X154357544Y-105192452D01*
X154242335Y-105106206D01*
X154242328Y-105106202D01*
X154107482Y-105055908D01*
X154107483Y-105055908D01*
X154047883Y-105049501D01*
X154047881Y-105049500D01*
X154047873Y-105049500D01*
X154047864Y-105049500D01*
X152752129Y-105049500D01*
X152752123Y-105049501D01*
X152692516Y-105055908D01*
X152557671Y-105106202D01*
X152557664Y-105106206D01*
X152442455Y-105192452D01*
X152442452Y-105192455D01*
X152356206Y-105307664D01*
X152356202Y-105307671D01*
X152305908Y-105442517D01*
X152300015Y-105497335D01*
X152299501Y-105502123D01*
X152299500Y-105502135D01*
X152299500Y-108097870D01*
X152299501Y-108097876D01*
X152305908Y-108157483D01*
X152356202Y-108292328D01*
X152356206Y-108292335D01*
X152442452Y-108407544D01*
X152442455Y-108407547D01*
X152557664Y-108493793D01*
X152557671Y-108493797D01*
X152692517Y-108544091D01*
X152692516Y-108544091D01*
X152699444Y-108544835D01*
X152752127Y-108550500D01*
X154047872Y-108550499D01*
X154107483Y-108544091D01*
X154242331Y-108493796D01*
X154357546Y-108407546D01*
X154443796Y-108292331D01*
X154494091Y-108157483D01*
X154500500Y-108097873D01*
X154500500Y-107574500D01*
X154520185Y-107507461D01*
X154572989Y-107461706D01*
X154624500Y-107450500D01*
X155175501Y-107450500D01*
X155242540Y-107470185D01*
X155288295Y-107522989D01*
X155299501Y-107574500D01*
X155299501Y-108097876D01*
X155305908Y-108157483D01*
X155356202Y-108292328D01*
X155356206Y-108292335D01*
X155442452Y-108407544D01*
X155442455Y-108407547D01*
X155557664Y-108493793D01*
X155557671Y-108493797D01*
X155692517Y-108544091D01*
X155692516Y-108544091D01*
X155699444Y-108544835D01*
X155752127Y-108550500D01*
X156653846Y-108550499D01*
X156720885Y-108570183D01*
X156766640Y-108622987D01*
X156776584Y-108692146D01*
X156747559Y-108755702D01*
X156741527Y-108762180D01*
X156344727Y-109158979D01*
X156344726Y-109158980D01*
X156344723Y-109158985D01*
X156277639Y-109259386D01*
X156277638Y-109259387D01*
X156277637Y-109259386D01*
X156273535Y-109265526D01*
X156273534Y-109265528D01*
X156224499Y-109383909D01*
X156224499Y-109383910D01*
X156199500Y-109509582D01*
X156199500Y-109509585D01*
X156199500Y-110914069D01*
X156199500Y-110914071D01*
X156199499Y-110914071D01*
X156224497Y-111039738D01*
X156224499Y-111039744D01*
X156273534Y-111158125D01*
X156344726Y-111264673D01*
X156813819Y-111733766D01*
X156847304Y-111795089D01*
X156842320Y-111864781D01*
X156813819Y-111909128D01*
X153559767Y-115163181D01*
X153498444Y-115196666D01*
X153472086Y-115199500D01*
X149239269Y-115199500D01*
X149172230Y-115179815D01*
X149126475Y-115127011D01*
X149116531Y-115057853D01*
X149145556Y-114994297D01*
X149164958Y-114976234D01*
X149257187Y-114907190D01*
X149257190Y-114907187D01*
X149343350Y-114792093D01*
X149343354Y-114792086D01*
X149393596Y-114657379D01*
X149393598Y-114657372D01*
X149399999Y-114597844D01*
X149400000Y-114597827D01*
X149400000Y-113550000D01*
X148174000Y-113550000D01*
X148106961Y-113530315D01*
X148061206Y-113477511D01*
X148050000Y-113426000D01*
X148050000Y-113174000D01*
X148069685Y-113106961D01*
X148122489Y-113061206D01*
X148174000Y-113050000D01*
X149400000Y-113050000D01*
X149400000Y-112002172D01*
X149399999Y-112002155D01*
X149393598Y-111942627D01*
X149393596Y-111942620D01*
X149347054Y-111817833D01*
X149342070Y-111748142D01*
X149375555Y-111686818D01*
X149436878Y-111653334D01*
X149463236Y-111650500D01*
X150064071Y-111650500D01*
X150148615Y-111633682D01*
X150189744Y-111625501D01*
X150308127Y-111576465D01*
X150414669Y-111505277D01*
X151233127Y-110686819D01*
X151294450Y-110653334D01*
X151320808Y-110650500D01*
X151408089Y-110650500D01*
X151475128Y-110670185D01*
X151480976Y-110674182D01*
X151572407Y-110740612D01*
X151735733Y-110813329D01*
X151910609Y-110850500D01*
X151910610Y-110850500D01*
X152089389Y-110850500D01*
X152089391Y-110850500D01*
X152264267Y-110813329D01*
X152427593Y-110740612D01*
X152572230Y-110635526D01*
X152691859Y-110502665D01*
X152781250Y-110347835D01*
X152836497Y-110177803D01*
X152855185Y-110000000D01*
X152836497Y-109822197D01*
X152787105Y-109670185D01*
X152781252Y-109652170D01*
X152781249Y-109652164D01*
X152691859Y-109497335D01*
X152638433Y-109438000D01*
X152572235Y-109364478D01*
X152572232Y-109364476D01*
X152572231Y-109364475D01*
X152572230Y-109364474D01*
X152427593Y-109259388D01*
X152264267Y-109186671D01*
X152264265Y-109186670D01*
X152133986Y-109158979D01*
X152089391Y-109149500D01*
X151910609Y-109149500D01*
X151879954Y-109156015D01*
X151735733Y-109186670D01*
X151735728Y-109186672D01*
X151572410Y-109259387D01*
X151572403Y-109259390D01*
X151480974Y-109325818D01*
X151415168Y-109349298D01*
X151408089Y-109349500D01*
X150935929Y-109349500D01*
X150810261Y-109374497D01*
X150810251Y-109374500D01*
X150787535Y-109383910D01*
X150691881Y-109423530D01*
X150691863Y-109423540D01*
X150585332Y-109494721D01*
X150585325Y-109494727D01*
X150060398Y-110019654D01*
X149999075Y-110053139D01*
X149929383Y-110048155D01*
X149873450Y-110006283D01*
X149849397Y-109944938D01*
X149836497Y-109822197D01*
X149825855Y-109789444D01*
X149823860Y-109719603D01*
X149859941Y-109659770D01*
X149919595Y-109629508D01*
X149939744Y-109625501D01*
X150058127Y-109576465D01*
X150070906Y-109567926D01*
X150083684Y-109559389D01*
X150110679Y-109541351D01*
X150164669Y-109505277D01*
X151505277Y-108164669D01*
X151576465Y-108058127D01*
X151625501Y-107939744D01*
X151650500Y-107814069D01*
X151650500Y-107596197D01*
X151670185Y-107529158D01*
X151682352Y-107513223D01*
X151691859Y-107502665D01*
X151781250Y-107347835D01*
X151836497Y-107177803D01*
X151855185Y-107000000D01*
X151836497Y-106822197D01*
X151781250Y-106652165D01*
X151691859Y-106497335D01*
X151645003Y-106445296D01*
X151572235Y-106364478D01*
X151572232Y-106364476D01*
X151572231Y-106364475D01*
X151572230Y-106364474D01*
X151427593Y-106259388D01*
X151264267Y-106186671D01*
X151264265Y-106186670D01*
X151136594Y-106159533D01*
X151089391Y-106149500D01*
X150910609Y-106149500D01*
X150879954Y-106156015D01*
X150735733Y-106186670D01*
X150735732Y-106186670D01*
X150674934Y-106213740D01*
X150605684Y-106223024D01*
X150542407Y-106193395D01*
X150505195Y-106134260D01*
X150500499Y-106100460D01*
X150500499Y-105502129D01*
X150500498Y-105502123D01*
X150500497Y-105502116D01*
X150494091Y-105442517D01*
X150488933Y-105428689D01*
X150443797Y-105307671D01*
X150443793Y-105307664D01*
X150357547Y-105192455D01*
X150357544Y-105192452D01*
X150242335Y-105106206D01*
X150242328Y-105106202D01*
X150107482Y-105055908D01*
X150107483Y-105055908D01*
X150047883Y-105049501D01*
X150047881Y-105049500D01*
X150047873Y-105049500D01*
X150047864Y-105049500D01*
X148752129Y-105049500D01*
X148752123Y-105049501D01*
X148692516Y-105055908D01*
X148557671Y-105106202D01*
X148557664Y-105106206D01*
X148442455Y-105192452D01*
X148442452Y-105192455D01*
X148356206Y-105307664D01*
X148356202Y-105307671D01*
X148305908Y-105442517D01*
X148300015Y-105497335D01*
X148299501Y-105502123D01*
X148299500Y-105502135D01*
X148299500Y-108097870D01*
X148299501Y-108097876D01*
X148305909Y-108157485D01*
X148315115Y-108182168D01*
X148320099Y-108251860D01*
X148286613Y-108313182D01*
X148225289Y-108346667D01*
X148198933Y-108349500D01*
X144774500Y-108349500D01*
X144707461Y-108329815D01*
X144661706Y-108277011D01*
X144650500Y-108225500D01*
X144650500Y-107864062D01*
X144625502Y-107738395D01*
X144625501Y-107738394D01*
X144625501Y-107738390D01*
X144576465Y-107620007D01*
X144536541Y-107560256D01*
X144536541Y-107560255D01*
X144505274Y-107513461D01*
X144505271Y-107513458D01*
X142071377Y-105079565D01*
X142037892Y-105018242D01*
X142035737Y-105004844D01*
X142029246Y-104943081D01*
X142027536Y-104937819D01*
X141973999Y-104773048D01*
X141884608Y-104618218D01*
X141837752Y-104566179D01*
X141764984Y-104485361D01*
X141764981Y-104485359D01*
X141764980Y-104485358D01*
X141764979Y-104485357D01*
X141620342Y-104380271D01*
X141457016Y-104307554D01*
X141457014Y-104307553D01*
X141329343Y-104280416D01*
X141282140Y-104270383D01*
X141103358Y-104270383D01*
X141072703Y-104276898D01*
X140928482Y-104307553D01*
X140928477Y-104307555D01*
X140765157Y-104380270D01*
X140620517Y-104485358D01*
X140500889Y-104618219D01*
X140411499Y-104773047D01*
X140411496Y-104773053D01*
X140356253Y-104943075D01*
X140356252Y-104943077D01*
X140337564Y-105120883D01*
X140356252Y-105298688D01*
X140356253Y-105298690D01*
X140411496Y-105468712D01*
X140411499Y-105468718D01*
X140500890Y-105623548D01*
X140542561Y-105669829D01*
X140620513Y-105756404D01*
X140620516Y-105756406D01*
X140620519Y-105756409D01*
X140765156Y-105861495D01*
X140928482Y-105934212D01*
X140928484Y-105934212D01*
X140928485Y-105934213D01*
X140985024Y-105946230D01*
X141092759Y-105969130D01*
X141154239Y-106002321D01*
X141154658Y-106002738D01*
X143313181Y-108161261D01*
X143346666Y-108222584D01*
X143349500Y-108248942D01*
X143349500Y-108403802D01*
X143329815Y-108470841D01*
X143317651Y-108486773D01*
X143308140Y-108497336D01*
X143218750Y-108652164D01*
X143218747Y-108652170D01*
X143163504Y-108822192D01*
X143163503Y-108822194D01*
X143144815Y-109000000D01*
X143163503Y-109177805D01*
X143163504Y-109177807D01*
X143218747Y-109347829D01*
X143218748Y-109347830D01*
X143218750Y-109347835D01*
X143308141Y-109502665D01*
X143314372Y-109509585D01*
X143427764Y-109635521D01*
X143427767Y-109635523D01*
X143427770Y-109635526D01*
X143572407Y-109740612D01*
X143735733Y-109813329D01*
X143910609Y-109850500D01*
X143910610Y-109850500D01*
X144089389Y-109850500D01*
X144089391Y-109850500D01*
X144264267Y-109813329D01*
X144427593Y-109740612D01*
X144519025Y-109674182D01*
X144584831Y-109650702D01*
X144591911Y-109650500D01*
X145178142Y-109650500D01*
X145245181Y-109670185D01*
X145290936Y-109722989D01*
X145300880Y-109792147D01*
X145285529Y-109836500D01*
X145218750Y-109952164D01*
X145218747Y-109952170D01*
X145163504Y-110122192D01*
X145163503Y-110122195D01*
X145151283Y-110238462D01*
X145124698Y-110303077D01*
X145067400Y-110343061D01*
X145027962Y-110349500D01*
X136951381Y-110349500D01*
X136884342Y-110329815D01*
X136838587Y-110277011D01*
X136828643Y-110207853D01*
X136833449Y-110187185D01*
X136836495Y-110177808D01*
X136836496Y-110177807D01*
X136836497Y-110177803D01*
X136855185Y-110000000D01*
X136836497Y-109822197D01*
X136787105Y-109670185D01*
X136781252Y-109652170D01*
X136781251Y-109652169D01*
X136781250Y-109652165D01*
X136729190Y-109561996D01*
X136712719Y-109494101D01*
X136729190Y-109438004D01*
X136781250Y-109347835D01*
X136836497Y-109177803D01*
X136855185Y-109000000D01*
X136836497Y-108822197D01*
X136781250Y-108652165D01*
X136691859Y-108497335D01*
X136682349Y-108486773D01*
X136652120Y-108423782D01*
X136650500Y-108403802D01*
X136650500Y-106596197D01*
X136670185Y-106529158D01*
X136682352Y-106513223D01*
X136691859Y-106502665D01*
X136781250Y-106347835D01*
X136836497Y-106177803D01*
X136855185Y-106000000D01*
X136836497Y-105822197D01*
X136781250Y-105652165D01*
X136691859Y-105497335D01*
X136645003Y-105445296D01*
X136572235Y-105364478D01*
X136572232Y-105364476D01*
X136572231Y-105364475D01*
X136572230Y-105364474D01*
X136427593Y-105259388D01*
X136264267Y-105186671D01*
X136264265Y-105186670D01*
X136136594Y-105159533D01*
X136089391Y-105149500D01*
X136069807Y-105149500D01*
X136002768Y-105129815D01*
X135957013Y-105077011D01*
X135947069Y-105007853D01*
X135976094Y-104944297D01*
X135982126Y-104937819D01*
X136069446Y-104850500D01*
X136233127Y-104686819D01*
X136294450Y-104653334D01*
X136320808Y-104650500D01*
X138408089Y-104650500D01*
X138475128Y-104670185D01*
X138480976Y-104674182D01*
X138572407Y-104740612D01*
X138735733Y-104813329D01*
X138910609Y-104850500D01*
X138910610Y-104850500D01*
X139089389Y-104850500D01*
X139089391Y-104850500D01*
X139264267Y-104813329D01*
X139427593Y-104740612D01*
X139572230Y-104635526D01*
X139587814Y-104618219D01*
X139598148Y-104606741D01*
X139691859Y-104502665D01*
X139781250Y-104347835D01*
X139836497Y-104177803D01*
X139855185Y-104000000D01*
X139836497Y-103822197D01*
X139781250Y-103652165D01*
X139691859Y-103497335D01*
X139645003Y-103445296D01*
X139572235Y-103364478D01*
X139572232Y-103364476D01*
X139572231Y-103364475D01*
X139572230Y-103364474D01*
X139427593Y-103259388D01*
X139264267Y-103186671D01*
X139264265Y-103186670D01*
X139136594Y-103159533D01*
X139089391Y-103149500D01*
X138910609Y-103149500D01*
X138879954Y-103156015D01*
X138735733Y-103186670D01*
X138735728Y-103186672D01*
X138572408Y-103259388D01*
X138572403Y-103259390D01*
X138480974Y-103325818D01*
X138415168Y-103349298D01*
X138408089Y-103349500D01*
X135935929Y-103349500D01*
X135810261Y-103374497D01*
X135810251Y-103374500D01*
X135779341Y-103387303D01*
X135779342Y-103387304D01*
X135691877Y-103423532D01*
X135691863Y-103423540D01*
X135585332Y-103494721D01*
X135585325Y-103494727D01*
X134766873Y-104313181D01*
X134705550Y-104346666D01*
X134679192Y-104349500D01*
X134441911Y-104349500D01*
X134374872Y-104329815D01*
X134369025Y-104325818D01*
X134277594Y-104259389D01*
X134277593Y-104259388D01*
X134114267Y-104186671D01*
X134114265Y-104186670D01*
X133986594Y-104159533D01*
X133939391Y-104149500D01*
X133760609Y-104149500D01*
X133729954Y-104156015D01*
X133585733Y-104186670D01*
X133585728Y-104186672D01*
X133422408Y-104259387D01*
X133277768Y-104364475D01*
X133158140Y-104497336D01*
X133068750Y-104652164D01*
X133068747Y-104652170D01*
X133013504Y-104822192D01*
X133013503Y-104822194D01*
X132994815Y-105000000D01*
X133013503Y-105177805D01*
X133013504Y-105177807D01*
X133068747Y-105347829D01*
X133068750Y-105347835D01*
X133158141Y-105502665D01*
X133199812Y-105548946D01*
X133277764Y-105635521D01*
X133277767Y-105635523D01*
X133277770Y-105635526D01*
X133422407Y-105740612D01*
X133585733Y-105813329D01*
X133760609Y-105850500D01*
X133760610Y-105850500D01*
X133939389Y-105850500D01*
X133939391Y-105850500D01*
X134114267Y-105813329D01*
X134277593Y-105740612D01*
X134369025Y-105674182D01*
X134434831Y-105650702D01*
X134441911Y-105650500D01*
X135048619Y-105650500D01*
X135115658Y-105670185D01*
X135161413Y-105722989D01*
X135171357Y-105792147D01*
X135166551Y-105812815D01*
X135163504Y-105822191D01*
X135163503Y-105822194D01*
X135144815Y-106000000D01*
X135163503Y-106177805D01*
X135163504Y-106177807D01*
X135218747Y-106347829D01*
X135218750Y-106347835D01*
X135308141Y-106502665D01*
X135317648Y-106513223D01*
X135347879Y-106576213D01*
X135349500Y-106596197D01*
X135349500Y-108403802D01*
X135329815Y-108470841D01*
X135317651Y-108486773D01*
X135308140Y-108497336D01*
X135218750Y-108652164D01*
X135218747Y-108652170D01*
X135163504Y-108822192D01*
X135163503Y-108822194D01*
X135144815Y-109000000D01*
X135163503Y-109177805D01*
X135163504Y-109177807D01*
X135218750Y-109347836D01*
X135270806Y-109438000D01*
X135287279Y-109505900D01*
X135270806Y-109562000D01*
X135218750Y-109652163D01*
X135163504Y-109822192D01*
X135163503Y-109822194D01*
X135157011Y-109883963D01*
X135130425Y-109948577D01*
X135121371Y-109958681D01*
X134766873Y-110313181D01*
X134705550Y-110346666D01*
X134679192Y-110349500D01*
X132435929Y-110349500D01*
X132310261Y-110374497D01*
X132310255Y-110374499D01*
X132191874Y-110423534D01*
X132085326Y-110494726D01*
X130366871Y-112213181D01*
X130305548Y-112246666D01*
X130279190Y-112249500D01*
X129202129Y-112249500D01*
X129202123Y-112249501D01*
X129135443Y-112256669D01*
X129066683Y-112244262D01*
X129034509Y-112221060D01*
X128942654Y-112129205D01*
X128942649Y-112129201D01*
X128738848Y-111981132D01*
X128738847Y-111981131D01*
X128738845Y-111981130D01*
X128663265Y-111942620D01*
X128514383Y-111866760D01*
X128274785Y-111788910D01*
X128025962Y-111749500D01*
X127774038Y-111749500D01*
X127649728Y-111769189D01*
X127525214Y-111788910D01*
X127285616Y-111866760D01*
X127061151Y-111981132D01*
X126857350Y-112129201D01*
X126857345Y-112129205D01*
X126679205Y-112307345D01*
X126679201Y-112307350D01*
X126531132Y-112511151D01*
X126416760Y-112735616D01*
X126338910Y-112975214D01*
X126338910Y-112975215D01*
X126299500Y-113224038D01*
X126299500Y-114775962D01*
X126316896Y-114885797D01*
X126338910Y-115024785D01*
X126416760Y-115264383D01*
X126531132Y-115488848D01*
X126679201Y-115692649D01*
X126679205Y-115692654D01*
X126857345Y-115870794D01*
X126857350Y-115870798D01*
X126997797Y-115972838D01*
X127061155Y-116018870D01*
X127204184Y-116091747D01*
X127285616Y-116133239D01*
X127285618Y-116133239D01*
X127285621Y-116133241D01*
X127525215Y-116211090D01*
X127774038Y-116250500D01*
X127774039Y-116250500D01*
X128025961Y-116250500D01*
X128025962Y-116250500D01*
X128274785Y-116211090D01*
X128514379Y-116133241D01*
X128738845Y-116018870D01*
X128942656Y-115870793D01*
X129034511Y-115778937D01*
X129095831Y-115745454D01*
X129135445Y-115743330D01*
X129142514Y-115744089D01*
X129142517Y-115744091D01*
X129202127Y-115750500D01*
X130797872Y-115750499D01*
X130857483Y-115744091D01*
X130992331Y-115693796D01*
X131107546Y-115607546D01*
X131136236Y-115569220D01*
X131192166Y-115527353D01*
X131261857Y-115522368D01*
X131308386Y-115543217D01*
X131344590Y-115569521D01*
X131344592Y-115569522D01*
X131344595Y-115569524D01*
X131356324Y-115575500D01*
X131519970Y-115658882D01*
X131519972Y-115658882D01*
X131519975Y-115658884D01*
X131610489Y-115688294D01*
X131707173Y-115719709D01*
X131901578Y-115750500D01*
X131901583Y-115750500D01*
X132098421Y-115750500D01*
X132190884Y-115735854D01*
X132236411Y-115728644D01*
X132305704Y-115737598D01*
X132343490Y-115763436D01*
X132867873Y-116287819D01*
X132901358Y-116349142D01*
X132896374Y-116418834D01*
X132854502Y-116474767D01*
X132789038Y-116499184D01*
X132780192Y-116499500D01*
X122376425Y-116499500D01*
X122309386Y-116479815D01*
X122263631Y-116427011D01*
X122253687Y-116357853D01*
X122282712Y-116294297D01*
X122338106Y-116257569D01*
X122374669Y-116245688D01*
X122499219Y-116205220D01*
X122681610Y-116112287D01*
X122810193Y-116018867D01*
X122847213Y-115991971D01*
X122847215Y-115991968D01*
X122847219Y-115991966D01*
X122991966Y-115847219D01*
X122991968Y-115847215D01*
X122991971Y-115847213D01*
X123062236Y-115750500D01*
X123112287Y-115681610D01*
X123205220Y-115499219D01*
X123268477Y-115304534D01*
X123300500Y-115102352D01*
X123300500Y-114897648D01*
X123294150Y-114857557D01*
X123268477Y-114695465D01*
X123205218Y-114500776D01*
X123160276Y-114412574D01*
X123112287Y-114318390D01*
X123104556Y-114307749D01*
X122991971Y-114152786D01*
X122847213Y-114008028D01*
X122681613Y-113887715D01*
X122681612Y-113887714D01*
X122681610Y-113887713D01*
X122624653Y-113858691D01*
X122499223Y-113794781D01*
X122304534Y-113731522D01*
X122129995Y-113703878D01*
X122102352Y-113699500D01*
X121897648Y-113699500D01*
X121873329Y-113703351D01*
X121695465Y-113731522D01*
X121500776Y-113794781D01*
X121318386Y-113887715D01*
X121152786Y-114008028D01*
X121008028Y-114152786D01*
X120887715Y-114318386D01*
X120794781Y-114500776D01*
X120742431Y-114661894D01*
X120702993Y-114719569D01*
X120638634Y-114746767D01*
X120569788Y-114734852D01*
X120518312Y-114687608D01*
X120500500Y-114623575D01*
X120500500Y-98000000D01*
X138144815Y-98000000D01*
X138163503Y-98177805D01*
X138163504Y-98177807D01*
X138218747Y-98347829D01*
X138218748Y-98347830D01*
X138218750Y-98347835D01*
X138232887Y-98372322D01*
X138249500Y-98434320D01*
X138249500Y-99926082D01*
X138249500Y-100073918D01*
X138249500Y-100073920D01*
X138249499Y-100073920D01*
X138278340Y-100218907D01*
X138278343Y-100218917D01*
X138334912Y-100355488D01*
X138334919Y-100355501D01*
X138417048Y-100478415D01*
X138417051Y-100478419D01*
X138521580Y-100582948D01*
X138521584Y-100582951D01*
X138644498Y-100665080D01*
X138644511Y-100665087D01*
X138781082Y-100721656D01*
X138781087Y-100721658D01*
X138781091Y-100721658D01*
X138781092Y-100721659D01*
X138926079Y-100750500D01*
X138926082Y-100750500D01*
X141568259Y-100750500D01*
X141618693Y-100761219D01*
X141735733Y-100813329D01*
X141910609Y-100850500D01*
X141910610Y-100850500D01*
X142089389Y-100850500D01*
X142089391Y-100850500D01*
X142264267Y-100813329D01*
X142427593Y-100740612D01*
X142572230Y-100635526D01*
X142581258Y-100625500D01*
X142610533Y-100592986D01*
X142691859Y-100502665D01*
X142781250Y-100347835D01*
X142836497Y-100177803D01*
X142855185Y-100000000D01*
X142836497Y-99822197D01*
X142781250Y-99652165D01*
X142691859Y-99497335D01*
X142645003Y-99445296D01*
X142572235Y-99364478D01*
X142572232Y-99364476D01*
X142572231Y-99364475D01*
X142572230Y-99364474D01*
X142427593Y-99259388D01*
X142264267Y-99186671D01*
X142264265Y-99186670D01*
X142136594Y-99159533D01*
X142089391Y-99149500D01*
X141910609Y-99149500D01*
X141879954Y-99156015D01*
X141735733Y-99186670D01*
X141618694Y-99238780D01*
X141568259Y-99249500D01*
X139874500Y-99249500D01*
X139807461Y-99229815D01*
X139761706Y-99177011D01*
X139750500Y-99125500D01*
X139750500Y-98434320D01*
X139767112Y-98372322D01*
X139781250Y-98347835D01*
X139836497Y-98177803D01*
X139855185Y-98000000D01*
X139836497Y-97822197D01*
X139781250Y-97652165D01*
X139767113Y-97627678D01*
X139750500Y-97565678D01*
X139750500Y-96972117D01*
X143103531Y-96972117D01*
X143122219Y-97149922D01*
X143122220Y-97149924D01*
X143177463Y-97319946D01*
X143177466Y-97319952D01*
X143266857Y-97474782D01*
X143270132Y-97478419D01*
X143276364Y-97485340D01*
X143306595Y-97548330D01*
X143308216Y-97568314D01*
X143308216Y-102872785D01*
X143318894Y-102926465D01*
X143333215Y-102998460D01*
X143382251Y-103116843D01*
X143428908Y-103186671D01*
X143453442Y-103223389D01*
X143453443Y-103223390D01*
X145271371Y-105041317D01*
X145304856Y-105102640D01*
X145307010Y-105116031D01*
X145313503Y-105177803D01*
X145313504Y-105177805D01*
X145313504Y-105177807D01*
X145368747Y-105347829D01*
X145368750Y-105347835D01*
X145458141Y-105502665D01*
X145499812Y-105548946D01*
X145577764Y-105635521D01*
X145577767Y-105635523D01*
X145577770Y-105635526D01*
X145722407Y-105740612D01*
X145885733Y-105813329D01*
X146060609Y-105850500D01*
X146060610Y-105850500D01*
X146239389Y-105850500D01*
X146239391Y-105850500D01*
X146414267Y-105813329D01*
X146577593Y-105740612D01*
X146722230Y-105635526D01*
X146841859Y-105502665D01*
X146931250Y-105347835D01*
X146986497Y-105177803D01*
X147005185Y-105000000D01*
X146986497Y-104822197D01*
X146931250Y-104652165D01*
X146841859Y-104497335D01*
X146795003Y-104445296D01*
X146722235Y-104364478D01*
X146722232Y-104364476D01*
X146722231Y-104364475D01*
X146722230Y-104364474D01*
X146577593Y-104259388D01*
X146414267Y-104186671D01*
X146414265Y-104186670D01*
X146277473Y-104157594D01*
X146249989Y-104151752D01*
X146188508Y-104118561D01*
X146188090Y-104118144D01*
X145617790Y-103547844D01*
X147200000Y-103547844D01*
X147206401Y-103607372D01*
X147206403Y-103607379D01*
X147256645Y-103742086D01*
X147256649Y-103742093D01*
X147342809Y-103857187D01*
X147342812Y-103857190D01*
X147457906Y-103943350D01*
X147457913Y-103943354D01*
X147592620Y-103993596D01*
X147592627Y-103993598D01*
X147652155Y-103999999D01*
X147652172Y-104000000D01*
X148050000Y-104000000D01*
X148550000Y-104000000D01*
X148947828Y-104000000D01*
X148947844Y-103999999D01*
X149007372Y-103993598D01*
X149007379Y-103993596D01*
X149142086Y-103943354D01*
X149142093Y-103943350D01*
X149257187Y-103857190D01*
X149257190Y-103857187D01*
X149343350Y-103742093D01*
X149343354Y-103742086D01*
X149393596Y-103607379D01*
X149393598Y-103607372D01*
X149399999Y-103547844D01*
X149400000Y-103547827D01*
X149400000Y-102500000D01*
X148550000Y-102500000D01*
X148550000Y-104000000D01*
X148050000Y-104000000D01*
X148050000Y-102500000D01*
X147200000Y-102500000D01*
X147200000Y-103547844D01*
X145617790Y-103547844D01*
X144645535Y-102575589D01*
X144612050Y-102514266D01*
X144609216Y-102487908D01*
X144609216Y-100952155D01*
X147200000Y-100952155D01*
X147200000Y-102000000D01*
X148050000Y-102000000D01*
X148550000Y-102000000D01*
X149400000Y-102000000D01*
X149400000Y-100952172D01*
X149399999Y-100952155D01*
X149393598Y-100892627D01*
X149393596Y-100892620D01*
X149343354Y-100757913D01*
X149343350Y-100757906D01*
X149257190Y-100642812D01*
X149257187Y-100642809D01*
X149142093Y-100556649D01*
X149142086Y-100556645D01*
X149007379Y-100506403D01*
X149007372Y-100506401D01*
X148947844Y-100500000D01*
X148550000Y-100500000D01*
X148550000Y-102000000D01*
X148050000Y-102000000D01*
X148050000Y-100500000D01*
X147652155Y-100500000D01*
X147592627Y-100506401D01*
X147592620Y-100506403D01*
X147457913Y-100556645D01*
X147457906Y-100556649D01*
X147342812Y-100642809D01*
X147342809Y-100642812D01*
X147256649Y-100757906D01*
X147256645Y-100757913D01*
X147206403Y-100892620D01*
X147206401Y-100892627D01*
X147200000Y-100952155D01*
X144609216Y-100952155D01*
X144609216Y-97568314D01*
X144628901Y-97501275D01*
X144641068Y-97485340D01*
X144650575Y-97474782D01*
X144739966Y-97319952D01*
X144795213Y-97149920D01*
X144813901Y-96972117D01*
X144795213Y-96794314D01*
X144739966Y-96624282D01*
X144650575Y-96469452D01*
X144565079Y-96374499D01*
X144530951Y-96336595D01*
X144530948Y-96336593D01*
X144530947Y-96336592D01*
X144530946Y-96336591D01*
X144386309Y-96231505D01*
X144222983Y-96158788D01*
X144222981Y-96158787D01*
X144095310Y-96131650D01*
X144048107Y-96121617D01*
X143869325Y-96121617D01*
X143838670Y-96128132D01*
X143694449Y-96158787D01*
X143694444Y-96158789D01*
X143531124Y-96231504D01*
X143386484Y-96336592D01*
X143266856Y-96469453D01*
X143177466Y-96624281D01*
X143177463Y-96624287D01*
X143122220Y-96794309D01*
X143122219Y-96794311D01*
X143103531Y-96972117D01*
X139750500Y-96972117D01*
X139750500Y-96362228D01*
X139770185Y-96295189D01*
X139786814Y-96274552D01*
X142219177Y-93842188D01*
X142259111Y-93817729D01*
X142258329Y-93815972D01*
X142264263Y-93813329D01*
X142264267Y-93813329D01*
X142427593Y-93740612D01*
X142572230Y-93635526D01*
X142691859Y-93502665D01*
X142781250Y-93347835D01*
X142836497Y-93177803D01*
X142855185Y-93000000D01*
X142836497Y-92822197D01*
X142785250Y-92664475D01*
X142781252Y-92652170D01*
X142781249Y-92652164D01*
X142691859Y-92497335D01*
X142599221Y-92394450D01*
X142572235Y-92364478D01*
X142572232Y-92364476D01*
X142572231Y-92364475D01*
X142572230Y-92364474D01*
X142427593Y-92259388D01*
X142264267Y-92186671D01*
X142264265Y-92186670D01*
X142258330Y-92184028D01*
X142259106Y-92182284D01*
X142219175Y-92157808D01*
X140786819Y-90725451D01*
X140753334Y-90664128D01*
X140750500Y-90637770D01*
X140750500Y-88926079D01*
X140734010Y-88843183D01*
X140734010Y-88843182D01*
X140721659Y-88781088D01*
X140683862Y-88689839D01*
X140683862Y-88689838D01*
X140665086Y-88644508D01*
X140612275Y-88565470D01*
X140612275Y-88565469D01*
X140597613Y-88543527D01*
X140582952Y-88521584D01*
X140450814Y-88389446D01*
X140420564Y-88340082D01*
X140397171Y-88268084D01*
X140397169Y-88268080D01*
X140330007Y-88151753D01*
X140307780Y-88113254D01*
X140296260Y-88100460D01*
X140188156Y-87980397D01*
X140188153Y-87980395D01*
X140188152Y-87980394D01*
X140188151Y-87980393D01*
X140043514Y-87875307D01*
X139880188Y-87802590D01*
X139880186Y-87802589D01*
X139752515Y-87775452D01*
X139705312Y-87765419D01*
X139526530Y-87765419D01*
X139495875Y-87771934D01*
X139351654Y-87802589D01*
X139351649Y-87802591D01*
X139188329Y-87875306D01*
X139043689Y-87980394D01*
X138924061Y-88113255D01*
X138834671Y-88268083D01*
X138834668Y-88268089D01*
X138779425Y-88438111D01*
X138779424Y-88438113D01*
X138760736Y-88615919D01*
X138779424Y-88793724D01*
X138779425Y-88793726D01*
X138834668Y-88963748D01*
X138834671Y-88963754D01*
X138924062Y-89118584D01*
X138965733Y-89164865D01*
X139043685Y-89251440D01*
X139043688Y-89251442D01*
X139043691Y-89251445D01*
X139188328Y-89356531D01*
X139193586Y-89360351D01*
X139192725Y-89361535D01*
X139235713Y-89406615D01*
X139249500Y-89463440D01*
X139249500Y-91073918D01*
X139249500Y-91073920D01*
X139249499Y-91073920D01*
X139278340Y-91218907D01*
X139278343Y-91218917D01*
X139334914Y-91355492D01*
X139367812Y-91404727D01*
X139367813Y-91404730D01*
X139417046Y-91478414D01*
X139417052Y-91478421D01*
X140850950Y-92912319D01*
X140884435Y-92973642D01*
X140879451Y-93043334D01*
X140850950Y-93087681D01*
X138417047Y-95521584D01*
X138404100Y-95540961D01*
X138391209Y-95560256D01*
X138362965Y-95602525D01*
X138334914Y-95644507D01*
X138278343Y-95781082D01*
X138278340Y-95781092D01*
X138249500Y-95926079D01*
X138249500Y-97565678D01*
X138232887Y-97627678D01*
X138218750Y-97652163D01*
X138163504Y-97822192D01*
X138163503Y-97822194D01*
X138144815Y-98000000D01*
X120500500Y-98000000D01*
X120500500Y-94000000D01*
X126144815Y-94000000D01*
X126163503Y-94177805D01*
X126163504Y-94177807D01*
X126218747Y-94347829D01*
X126218750Y-94347835D01*
X126308141Y-94502665D01*
X126349812Y-94548946D01*
X126427764Y-94635521D01*
X126427767Y-94635523D01*
X126427770Y-94635526D01*
X126572407Y-94740612D01*
X126735733Y-94813329D01*
X126910609Y-94850500D01*
X126910610Y-94850500D01*
X127089389Y-94850500D01*
X127089391Y-94850500D01*
X127264267Y-94813329D01*
X127427593Y-94740612D01*
X127572230Y-94635526D01*
X127691859Y-94502665D01*
X127781250Y-94347835D01*
X127836497Y-94177803D01*
X127855185Y-94000000D01*
X127836497Y-93822197D01*
X127781250Y-93652165D01*
X127691859Y-93497335D01*
X127682349Y-93486773D01*
X127652120Y-93423782D01*
X127650500Y-93403802D01*
X127650500Y-88320808D01*
X127670185Y-88253769D01*
X127686819Y-88233127D01*
X131233127Y-84686819D01*
X131294450Y-84653334D01*
X131320808Y-84650500D01*
X142064071Y-84650500D01*
X142148615Y-84633682D01*
X142189744Y-84625501D01*
X142308127Y-84576465D01*
X142317991Y-84569873D01*
X142324583Y-84565470D01*
X142392357Y-84520185D01*
X142414669Y-84505277D01*
X144038090Y-82881854D01*
X144099411Y-82848371D01*
X144099757Y-82848296D01*
X144264267Y-82813329D01*
X144427593Y-82740612D01*
X144572230Y-82635526D01*
X144691859Y-82502665D01*
X144781250Y-82347835D01*
X144836497Y-82177803D01*
X144855185Y-82000000D01*
X144836497Y-81822197D01*
X144804661Y-81724217D01*
X144781252Y-81652170D01*
X144781249Y-81652164D01*
X144771643Y-81635526D01*
X144691859Y-81497335D01*
X144645003Y-81445296D01*
X144572235Y-81364478D01*
X144572232Y-81364476D01*
X144572231Y-81364475D01*
X144572230Y-81364474D01*
X144427593Y-81259388D01*
X144264267Y-81186671D01*
X144264265Y-81186670D01*
X144136594Y-81159533D01*
X144089391Y-81149500D01*
X143910609Y-81149500D01*
X143879954Y-81156015D01*
X143735733Y-81186670D01*
X143735728Y-81186672D01*
X143572408Y-81259387D01*
X143427768Y-81364475D01*
X143308140Y-81497336D01*
X143218750Y-81652164D01*
X143218747Y-81652170D01*
X143163504Y-81822192D01*
X143163503Y-81822194D01*
X143163503Y-81822197D01*
X143157233Y-81881856D01*
X143157011Y-81883964D01*
X143130426Y-81948578D01*
X143121371Y-81958682D01*
X141992517Y-83087536D01*
X141931194Y-83121021D01*
X141861502Y-83116037D01*
X141805569Y-83074165D01*
X141781152Y-83008701D01*
X141787401Y-82965245D01*
X141786512Y-82965035D01*
X141788296Y-82957483D01*
X141794705Y-82897873D01*
X141794704Y-81102128D01*
X141788296Y-81042517D01*
X141781682Y-81024785D01*
X141738002Y-80907671D01*
X141737998Y-80907664D01*
X141651752Y-80792455D01*
X141651749Y-80792452D01*
X141536540Y-80706206D01*
X141536533Y-80706202D01*
X141404606Y-80656997D01*
X141348672Y-80615126D01*
X141324255Y-80549662D01*
X141339107Y-80481389D01*
X141360258Y-80453133D01*
X141482313Y-80331078D01*
X141617805Y-80137578D01*
X141717634Y-79923492D01*
X141717637Y-79923486D01*
X141774841Y-79710000D01*
X140877217Y-79710000D01*
X140910130Y-79652993D01*
X140944205Y-79525826D01*
X140944205Y-79394174D01*
X140910130Y-79267007D01*
X140877217Y-79210000D01*
X141774841Y-79210000D01*
X141774840Y-79209999D01*
X141717637Y-78996513D01*
X141717634Y-78996507D01*
X141617805Y-78782422D01*
X141617804Y-78782420D01*
X141482318Y-78588926D01*
X141482313Y-78588920D01*
X141315287Y-78421894D01*
X141121783Y-78286399D01*
X140907697Y-78186570D01*
X140907691Y-78186567D01*
X140694205Y-78129364D01*
X140694205Y-79026988D01*
X140637198Y-78994075D01*
X140510031Y-78960000D01*
X140378379Y-78960000D01*
X140251212Y-78994075D01*
X140194205Y-79026988D01*
X140194205Y-78129364D01*
X140194204Y-78129364D01*
X139980718Y-78186567D01*
X139980712Y-78186570D01*
X139766627Y-78286399D01*
X139766625Y-78286400D01*
X139573131Y-78421886D01*
X139573125Y-78421891D01*
X139406096Y-78588920D01*
X139406091Y-78588926D01*
X139270605Y-78782420D01*
X139270604Y-78782422D01*
X139170775Y-78996507D01*
X139170772Y-78996513D01*
X139113569Y-79209999D01*
X139113569Y-79210000D01*
X140011193Y-79210000D01*
X139978280Y-79267007D01*
X139944205Y-79394174D01*
X139944205Y-79525826D01*
X139978280Y-79652993D01*
X140011193Y-79710000D01*
X139113569Y-79710000D01*
X139170772Y-79923486D01*
X139170775Y-79923492D01*
X139270604Y-80137578D01*
X139406099Y-80331082D01*
X139528151Y-80453134D01*
X139561636Y-80514457D01*
X139556652Y-80584149D01*
X139514780Y-80640082D01*
X139483803Y-80656997D01*
X139351876Y-80706202D01*
X139351869Y-80706206D01*
X139236660Y-80792452D01*
X139236657Y-80792455D01*
X139150411Y-80907664D01*
X139150407Y-80907671D01*
X139100113Y-81042517D01*
X139095192Y-81088294D01*
X139093706Y-81102123D01*
X139093705Y-81102135D01*
X139093705Y-82897870D01*
X139093706Y-82897876D01*
X139100113Y-82957483D01*
X139150407Y-83092328D01*
X139150409Y-83092331D01*
X139194470Y-83151189D01*
X139218888Y-83216652D01*
X139204037Y-83284925D01*
X139154632Y-83334331D01*
X139095204Y-83349500D01*
X130935929Y-83349500D01*
X130810261Y-83374497D01*
X130810255Y-83374499D01*
X130691870Y-83423535D01*
X130585331Y-83494722D01*
X130585324Y-83494728D01*
X126494726Y-87585326D01*
X126425465Y-87688985D01*
X126425464Y-87688986D01*
X126423538Y-87691867D01*
X126423532Y-87691878D01*
X126374499Y-87810255D01*
X126374497Y-87810261D01*
X126349500Y-87935928D01*
X126349500Y-93403802D01*
X126329815Y-93470841D01*
X126317651Y-93486773D01*
X126308140Y-93497336D01*
X126218750Y-93652164D01*
X126218747Y-93652170D01*
X126163504Y-93822192D01*
X126163503Y-93822194D01*
X126144815Y-94000000D01*
X120500500Y-94000000D01*
X120500500Y-79376424D01*
X120520185Y-79309385D01*
X120572989Y-79263630D01*
X120642147Y-79253686D01*
X120705703Y-79282711D01*
X120742431Y-79338106D01*
X120794780Y-79499219D01*
X120887712Y-79681609D01*
X120887715Y-79681613D01*
X121008028Y-79847213D01*
X121152786Y-79991971D01*
X121241200Y-80056206D01*
X121318390Y-80112287D01*
X121434607Y-80171503D01*
X121500776Y-80205218D01*
X121500778Y-80205218D01*
X121500781Y-80205220D01*
X121592801Y-80235119D01*
X121695465Y-80268477D01*
X121796557Y-80284488D01*
X121897648Y-80300500D01*
X121897649Y-80300500D01*
X122102351Y-80300500D01*
X122102352Y-80300500D01*
X122304534Y-80268477D01*
X122499219Y-80205220D01*
X122681610Y-80112287D01*
X122774590Y-80044732D01*
X122847213Y-79991971D01*
X122847215Y-79991968D01*
X122847219Y-79991966D01*
X122991966Y-79847219D01*
X122991968Y-79847215D01*
X122991971Y-79847213D01*
X123069421Y-79740610D01*
X123112287Y-79681610D01*
X123205220Y-79499219D01*
X123268477Y-79304534D01*
X123281227Y-79224038D01*
X126299500Y-79224038D01*
X126299500Y-80775962D01*
X126327671Y-80953825D01*
X126338910Y-81024785D01*
X126416760Y-81264383D01*
X126463521Y-81356155D01*
X126517058Y-81461228D01*
X126531132Y-81488848D01*
X126679201Y-81692649D01*
X126679205Y-81692654D01*
X126857345Y-81870794D01*
X126857350Y-81870798D01*
X126964406Y-81948578D01*
X127061155Y-82018870D01*
X127169193Y-82073918D01*
X127285616Y-82133239D01*
X127285618Y-82133239D01*
X127285621Y-82133241D01*
X127525215Y-82211090D01*
X127774038Y-82250500D01*
X127774039Y-82250500D01*
X128025961Y-82250500D01*
X128025962Y-82250500D01*
X128274785Y-82211090D01*
X128514379Y-82133241D01*
X128738845Y-82018870D01*
X128942656Y-81870793D01*
X129120793Y-81692656D01*
X129184298Y-81605247D01*
X129239628Y-81562581D01*
X129309241Y-81556602D01*
X129340912Y-81567647D01*
X129344593Y-81569522D01*
X129344595Y-81569524D01*
X129414708Y-81605248D01*
X129519970Y-81658882D01*
X129519972Y-81658882D01*
X129519975Y-81658884D01*
X129568184Y-81674548D01*
X129707173Y-81719709D01*
X129901578Y-81750500D01*
X129901583Y-81750500D01*
X130098422Y-81750500D01*
X130292826Y-81719709D01*
X130480025Y-81658884D01*
X130655405Y-81569524D01*
X130814646Y-81453828D01*
X130912319Y-81356155D01*
X130973642Y-81322670D01*
X131043334Y-81327654D01*
X131087681Y-81356155D01*
X131185354Y-81453828D01*
X131344595Y-81569524D01*
X131414708Y-81605248D01*
X131519970Y-81658882D01*
X131519972Y-81658882D01*
X131519975Y-81658884D01*
X131568184Y-81674548D01*
X131707173Y-81719709D01*
X131901578Y-81750500D01*
X131901583Y-81750500D01*
X132098422Y-81750500D01*
X132292826Y-81719709D01*
X132480025Y-81658884D01*
X132655405Y-81569524D01*
X132691614Y-81543215D01*
X132757417Y-81519736D01*
X132825471Y-81535560D01*
X132863763Y-81569220D01*
X132892454Y-81607546D01*
X132892455Y-81607546D01*
X132892456Y-81607548D01*
X133007664Y-81693793D01*
X133007671Y-81693797D01*
X133142517Y-81744091D01*
X133142516Y-81744091D01*
X133149444Y-81744835D01*
X133202127Y-81750500D01*
X134797872Y-81750499D01*
X134857483Y-81744091D01*
X134857486Y-81744089D01*
X134864554Y-81743330D01*
X134933314Y-81755736D01*
X134965490Y-81778939D01*
X135057345Y-81870794D01*
X135057350Y-81870798D01*
X135164406Y-81948578D01*
X135261155Y-82018870D01*
X135369193Y-82073918D01*
X135485616Y-82133239D01*
X135485618Y-82133239D01*
X135485621Y-82133241D01*
X135725215Y-82211090D01*
X135974038Y-82250500D01*
X135974039Y-82250500D01*
X136225961Y-82250500D01*
X136225962Y-82250500D01*
X136474785Y-82211090D01*
X136714379Y-82133241D01*
X136938845Y-82018870D01*
X137142656Y-81870793D01*
X137320793Y-81692656D01*
X137468870Y-81488845D01*
X137583241Y-81264379D01*
X137661090Y-81024785D01*
X137700500Y-80775962D01*
X137700500Y-79224038D01*
X137661090Y-78975215D01*
X137583241Y-78735621D01*
X137583239Y-78735618D01*
X137583239Y-78735616D01*
X137508493Y-78588920D01*
X137468870Y-78511155D01*
X137420986Y-78445248D01*
X137320798Y-78307350D01*
X137320794Y-78307345D01*
X137142654Y-78129205D01*
X137142649Y-78129201D01*
X136938848Y-77981132D01*
X136938847Y-77981131D01*
X136938845Y-77981130D01*
X136868747Y-77945413D01*
X136714383Y-77866760D01*
X136474785Y-77788910D01*
X136225962Y-77749500D01*
X135974038Y-77749500D01*
X135849626Y-77769205D01*
X135725214Y-77788910D01*
X135485616Y-77866760D01*
X135261151Y-77981132D01*
X135057350Y-78129200D01*
X134965487Y-78221062D01*
X134904163Y-78254546D01*
X134864553Y-78256669D01*
X134855522Y-78255698D01*
X134797873Y-78249500D01*
X134797865Y-78249500D01*
X133202129Y-78249500D01*
X133202123Y-78249501D01*
X133142516Y-78255908D01*
X133007671Y-78306202D01*
X133007664Y-78306206D01*
X132892455Y-78392452D01*
X132863765Y-78430777D01*
X132807830Y-78472648D01*
X132738139Y-78477631D01*
X132691613Y-78456783D01*
X132655405Y-78430476D01*
X132480029Y-78341117D01*
X132292826Y-78280290D01*
X132098422Y-78249500D01*
X132098417Y-78249500D01*
X131901583Y-78249500D01*
X131901578Y-78249500D01*
X131707173Y-78280290D01*
X131519970Y-78341117D01*
X131344594Y-78430476D01*
X131279692Y-78477631D01*
X131185354Y-78546172D01*
X131185352Y-78546174D01*
X131185351Y-78546174D01*
X131087681Y-78643845D01*
X131026358Y-78677330D01*
X130956666Y-78672346D01*
X130912319Y-78643845D01*
X130814648Y-78546174D01*
X130814646Y-78546172D01*
X130655405Y-78430476D01*
X130629051Y-78417048D01*
X130480029Y-78341117D01*
X130292826Y-78280290D01*
X130098422Y-78249500D01*
X130098417Y-78249500D01*
X129901583Y-78249500D01*
X129901578Y-78249500D01*
X129707173Y-78280290D01*
X129519967Y-78341118D01*
X129340911Y-78432352D01*
X129272242Y-78445248D01*
X129207502Y-78418971D01*
X129184299Y-78394752D01*
X129120798Y-78307349D01*
X128942654Y-78129205D01*
X128942649Y-78129201D01*
X128738848Y-77981132D01*
X128738847Y-77981131D01*
X128738845Y-77981130D01*
X128668747Y-77945413D01*
X128514383Y-77866760D01*
X128274785Y-77788910D01*
X128025962Y-77749500D01*
X127774038Y-77749500D01*
X127649626Y-77769205D01*
X127525214Y-77788910D01*
X127285616Y-77866760D01*
X127061151Y-77981132D01*
X126857350Y-78129201D01*
X126857345Y-78129205D01*
X126679205Y-78307345D01*
X126679201Y-78307350D01*
X126531132Y-78511151D01*
X126416760Y-78735616D01*
X126338910Y-78975214D01*
X126306823Y-79177803D01*
X126299500Y-79224038D01*
X123281227Y-79224038D01*
X123300500Y-79102352D01*
X123300500Y-78897648D01*
X123268477Y-78695466D01*
X123265191Y-78685354D01*
X123215733Y-78533137D01*
X123205220Y-78500781D01*
X123205218Y-78500778D01*
X123205218Y-78500776D01*
X123151195Y-78394752D01*
X123112287Y-78318390D01*
X123089045Y-78286400D01*
X122991971Y-78152786D01*
X122847213Y-78008028D01*
X122681613Y-77887715D01*
X122681612Y-77887714D01*
X122681610Y-77887713D01*
X122624653Y-77858691D01*
X122499223Y-77794781D01*
X122338106Y-77742431D01*
X122280431Y-77702993D01*
X122253233Y-77638634D01*
X122265148Y-77569788D01*
X122312392Y-77518312D01*
X122376425Y-77500500D01*
X157623575Y-77500500D01*
X157690614Y-77520185D01*
G37*
%TD.AperFunction*%
%TD*%
M02*
