<?xml version="1.0" standalone="no"?>
 <!DOCTYPE svg PUBLIC "-//W3C//DTD SVG 1.1//EN" 
 "http://www.w3.org/Graphics/SVG/1.1/DTD/svg11.dtd"> 
<svg
  xmlns:svg="http://www.w3.org/2000/svg"
  xmlns="http://www.w3.org/2000/svg"
  xmlns:xlink="http://www.w3.org/1999/xlink"
  version="1.1"
  width="297.002200mm" height="210.007200mm" viewBox="0.000000 0.000000 297.002200 210.007200">
<title>SVG Image created as final schematics-B_Paste.svg date 2025/06/16 13:51:48 </title>
  <desc>Image generated by PCBNEW </desc>
<g style="fill:#000000; fill-opacity:1.000000;stroke:#000000; stroke-opacity:1.000000;
stroke-linecap:round; stroke-linejoin:round;"
 transform="translate(0 0) scale(1 1)">
<path style="fill:#00C2C2; fill-opacity:0.900000; stroke:none;fill-rule:evenodd;"
d="M 154.000000,94.500000
154.000000,97.000000
152.800000,97.000000
152.800000,94.500000
Z" /> 
<path style="fill:#00C2C2; fill-opacity:0.900000; stroke:none;fill-rule:evenodd;"
d="M 157.000000,94.500000
157.000000,97.000000
155.800000,97.000000
155.800000,94.500000
Z" /> 
<path style="fill:#00C2C2; fill-opacity:0.900000; stroke:none;fill-rule:evenodd;"
d="M 148.900000,101.000000
148.900000,103.500000
147.700000,103.500000
147.700000,101.000000
Z" /> 
<path style="fill:#00C2C2; fill-opacity:0.900000; stroke:none;fill-rule:evenodd;"
d="M 150.000000,94.500000
150.000000,97.000000
148.800000,97.000000
148.800000,94.500000
Z" /> 
<path style="fill:#00C2C2; fill-opacity:0.900000; stroke:none;fill-rule:evenodd;"
d="M 154.000000,105.550000
154.000000,108.050000
152.800000,108.050000
152.800000,105.550000
Z" /> 
<path style="fill:#00C2C2; fill-opacity:0.900000; stroke:none;fill-rule:evenodd;"
d="M 157.000000,105.550000
157.000000,108.050000
155.800000,108.050000
155.800000,105.550000
Z" /> 
<path style="fill:#00C2C2; fill-opacity:0.900000; stroke:none;fill-rule:evenodd;"
d="M 148.900000,112.050000
148.900000,114.550000
147.700000,114.550000
147.700000,112.050000
Z" /> 
<path style="fill:#00C2C2; fill-opacity:0.900000; stroke:none;fill-rule:evenodd;"
d="M 150.000000,105.550000
150.000000,108.050000
148.800000,108.050000
148.800000,105.550000
Z" /> 
<path style="fill:#00C2C2; fill-opacity:0.900000; stroke:none;fill-rule:evenodd;"
d="M 154.000000,80.500000
154.000000,83.000000
152.800000,83.000000
152.800000,80.500000
Z" /> 
<path style="fill:#00C2C2; fill-opacity:0.900000; stroke:none;fill-rule:evenodd;"
d="M 157.000000,80.500000
157.000000,83.000000
155.800000,83.000000
155.800000,80.500000
Z" /> 
<path style="fill:#00C2C2; fill-opacity:0.900000; stroke:none;fill-rule:evenodd;"
d="M 148.900000,87.000000
148.900000,89.500000
147.700000,89.500000
147.700000,87.000000
Z" /> 
<path style="fill:#00C2C2; fill-opacity:0.900000; stroke:none;fill-rule:evenodd;"
d="M 150.000000,80.500000
150.000000,83.000000
148.800000,83.000000
148.800000,80.500000
Z" /> 
</g> 
</svg>
